<svg width="335" height="700" viewBox="0 0 335 700" fill="none" xmlns="http://www.w3.org/2000/svg">
<rect width="335" height="700" fill="#F6F6F6"/>
<rect width="295" height="150" transform="translate(20 55)" fill="#F5E1C1"/>
<path d="M255.136 181.6H253.344L253.088 183.2H254.88L254.672 184.56H252.864L252.416 187.2H250.992L251.44 184.56H249.648L249.2 187.2H247.776L248.224 184.56H246.4L246.624 183.2H248.448L248.704 181.6H246.88L247.104 180.24H248.944L249.376 177.6H250.8L250.368 180.24H252.16L252.592 177.6H254.016L253.584 180.24H255.36L255.136 181.6ZM251.664 183.2L251.92 181.6H250.128L249.872 183.2H251.664ZM263.446 178.56H258.726V181.696H263.286V183.456H258.726V188H256.886V176.8H263.446V178.56ZM268.447 181.024C269.514 181.024 270.415 181.344 271.151 181.984C271.887 182.613 272.255 183.488 272.255 184.608C272.255 185.728 271.876 186.608 271.119 187.248C270.362 187.888 269.434 188.208 268.335 188.208C267.45 188.208 266.666 188.005 265.983 187.6C265.3 187.184 264.815 186.587 264.527 185.808L266.111 184.896C266.41 185.909 267.151 186.416 268.335 186.416C268.964 186.416 269.466 186.256 269.839 185.936C270.223 185.605 270.415 185.163 270.415 184.608C270.415 184.053 270.228 183.616 269.855 183.296C269.482 182.976 268.986 182.816 268.367 182.816H265.103L265.535 176.8H271.775V178.528H267.231L267.039 181.024H268.447ZM275.726 186.24H280.686V188H273.886V176.8H280.606V178.56H275.726V181.472H280.206V183.216H275.726V186.24ZM284.48 176.8H286.08V188H284.24V178.768L281.984 179.408L281.536 177.84L284.48 176.8ZM293.697 188.208C292.012 188.208 290.615 187.653 289.505 186.544C288.396 185.424 287.841 184.043 287.841 182.4C287.841 180.757 288.396 179.381 289.505 178.272C290.615 177.152 292.012 176.592 293.697 176.592C294.711 176.592 295.644 176.832 296.497 177.312C297.361 177.792 298.033 178.443 298.513 179.264L296.913 180.192C296.615 179.637 296.177 179.2 295.601 178.88C295.036 178.549 294.401 178.384 293.697 178.384C292.503 178.384 291.532 178.763 290.785 179.52C290.049 180.277 289.681 181.237 289.681 182.4C289.681 183.563 290.049 184.523 290.785 185.28C291.532 186.037 292.503 186.416 293.697 186.416C294.401 186.416 295.041 186.256 295.617 185.936C296.193 185.605 296.625 185.163 296.913 184.608L298.513 185.52C298.044 186.341 297.377 186.997 296.513 187.488C295.66 187.968 294.721 188.208 293.697 188.208ZM302.152 176.8H303.752V188H301.912V178.768L299.656 179.408L299.208 177.84L302.152 176.8Z" fill="#231F20"/>
<rect width="295" height="100" transform="translate(20 205)" fill="#231F20"/>
<path d="M255.136 281.6H253.344L253.088 283.2H254.88L254.672 284.56H252.864L252.416 287.2H250.992L251.44 284.56H249.648L249.2 287.2H247.776L248.224 284.56H246.4L246.624 283.2H248.448L248.704 281.6H246.88L247.104 280.24H248.944L249.376 277.6H250.8L250.368 280.24H252.16L252.592 277.6H254.016L253.584 280.24H255.36L255.136 281.6ZM251.664 283.2L251.92 281.6H250.128L249.872 283.2H251.664ZM256.262 288V286.56L260.166 282.576C261.115 281.627 261.59 280.805 261.59 280.112C261.59 279.568 261.424 279.147 261.094 278.848C260.774 278.539 260.363 278.384 259.862 278.384C258.923 278.384 258.23 278.848 257.782 279.776L256.23 278.864C256.582 278.117 257.078 277.552 257.718 277.168C258.358 276.784 259.067 276.592 259.846 276.592C260.827 276.592 261.67 276.901 262.374 277.52C263.078 278.139 263.43 278.981 263.43 280.048C263.43 281.189 262.795 282.405 261.526 283.696L258.998 286.224H263.638V288H256.262ZM269.422 281.376C270.233 281.568 270.889 281.947 271.39 282.512C271.902 283.067 272.158 283.765 272.158 284.608C272.158 285.728 271.779 286.608 271.022 287.248C270.265 287.888 269.337 288.208 268.238 288.208C267.385 288.208 266.617 288.011 265.934 287.616C265.262 287.221 264.777 286.645 264.478 285.888L266.046 284.976C266.377 285.936 267.107 286.416 268.238 286.416C268.878 286.416 269.385 286.256 269.758 285.936C270.131 285.605 270.318 285.163 270.318 284.608C270.318 284.053 270.131 283.616 269.758 283.296C269.385 282.976 268.878 282.816 268.238 282.816H267.822L267.086 281.712L269.502 278.528H264.814V276.8H271.694V278.368L269.422 281.376ZM275.402 276.8H277.002V288H275.162V278.768L272.906 279.408L272.458 277.84L275.402 276.8ZM285.883 278.56H281.163V281.696H285.723V283.456H281.163V288H279.323V276.8H285.883V278.56ZM286.98 288V286.56L290.884 282.576C291.834 281.627 292.308 280.805 292.308 280.112C292.308 279.568 292.143 279.147 291.812 278.848C291.492 278.539 291.082 278.384 290.58 278.384C289.642 278.384 288.948 278.848 288.5 279.776L286.948 278.864C287.3 278.117 287.796 277.552 288.436 277.168C289.076 276.784 289.786 276.592 290.564 276.592C291.546 276.592 292.388 276.901 293.092 277.52C293.796 278.139 294.148 278.981 294.148 280.048C294.148 281.189 293.514 282.405 292.244 283.696L289.716 286.224H294.356V288H286.98ZM303.069 286.624C302.301 287.68 301.224 288.208 299.837 288.208C298.45 288.208 297.368 287.68 296.589 286.624C295.821 285.568 295.437 284.16 295.437 282.4C295.437 280.64 295.821 279.232 296.589 278.176C297.368 277.12 298.45 276.592 299.837 276.592C301.224 276.592 302.301 277.12 303.069 278.176C303.848 279.232 304.237 280.64 304.237 282.4C304.237 284.16 303.848 285.568 303.069 286.624ZM299.837 286.416C300.669 286.416 301.304 286.069 301.741 285.376C302.178 284.683 302.397 283.691 302.397 282.4C302.397 281.109 302.178 280.117 301.741 279.424C301.304 278.731 300.669 278.384 299.837 278.384C299.016 278.384 298.381 278.731 297.933 279.424C297.496 280.117 297.277 281.109 297.277 282.4C297.277 283.691 297.496 284.683 297.933 285.376C298.381 286.069 299.016 286.416 299.837 286.416Z" fill="white"/>
<rect width="98.3333" height="80" transform="translate(20 305)" fill="white"/>
<path d="M57.47 361.6H55.678L55.422 363.2H57.214L57.006 364.56H55.198L54.75 367.2H53.326L53.774 364.56H51.982L51.534 367.2H50.11L50.558 364.56H48.734L48.958 363.2H50.782L51.038 361.6H49.214L49.438 360.24H51.278L51.71 357.6H53.134L52.702 360.24H54.494L54.926 357.6H56.35L55.918 360.24H57.694L57.47 361.6ZM53.998 363.2L54.254 361.6H52.462L52.206 363.2H53.998ZM65.7796 358.56H61.0596V361.696H65.6196V363.456H61.0596V368H59.2196V356.8H65.7796V358.56ZM74.0609 358.56H69.3409V361.696H73.9009V363.456H69.3409V368H67.5009V356.8H74.0609V358.56ZM82.3421 358.56H77.6221V361.696H82.1821V363.456H77.6221V368H75.7821V356.8H82.3421V358.56ZM90.6234 358.56H85.9034V361.696H90.4634V363.456H85.9034V368H84.0634V356.8H90.6234V358.56ZM98.9046 358.56H94.1846V361.696H98.7446V363.456H94.1846V368H92.3446V356.8H98.9046V358.56ZM107.186 358.56H102.466V361.696H107.026V363.456H102.466V368H100.626V356.8H107.186V358.56Z" fill="#231F20"/>
<rect width="98.3333" height="80" transform="translate(118.334 305)" fill="#FFFDED"/>
<path d="M149.804 361.6H148.012L147.756 363.2H149.548L149.34 364.56H147.532L147.084 367.2H145.66L146.108 364.56H144.316L143.868 367.2H142.444L142.892 364.56H141.068L141.292 363.2H143.116L143.372 361.6H141.548L141.772 360.24H143.612L144.044 357.6H145.468L145.036 360.24H146.828L147.26 357.6H148.684L148.252 360.24H150.028L149.804 361.6ZM146.332 363.2L146.588 361.6H144.796L144.54 363.2H146.332ZM158.114 358.56H153.394V361.696H157.954V363.456H153.394V368H151.554V356.8H158.114V358.56ZM166.395 358.56H161.675V361.696H166.235V363.456H161.675V368H159.835V356.8H166.395V358.56ZM174.676 358.56H169.956V361.696H174.516V363.456H169.956V368H168.116V356.8H174.676V358.56ZM180.797 356.8C182.333 356.8 183.608 357.339 184.621 358.416C185.645 359.493 186.157 360.821 186.157 362.4C186.157 363.968 185.645 365.296 184.621 366.384C183.608 367.461 182.333 368 180.797 368H176.397V356.8H180.797ZM180.797 366.24C181.853 366.24 182.712 365.877 183.373 365.152C184.045 364.427 184.381 363.509 184.381 362.4C184.381 361.28 184.045 360.363 183.373 359.648C182.712 358.923 181.853 358.56 180.797 358.56H178.237V366.24H180.797ZM189.675 366.24H194.635V368H187.835V356.8H194.555V358.56H189.675V361.472H194.155V363.216H189.675V366.24ZM200.719 356.8C202.255 356.8 203.53 357.339 204.543 358.416C205.567 359.493 206.079 360.821 206.079 362.4C206.079 363.968 205.567 365.296 204.543 366.384C203.53 367.461 202.255 368 200.719 368H196.319V356.8H200.719ZM200.719 366.24C201.775 366.24 202.634 365.877 203.295 365.152C203.967 364.427 204.303 363.509 204.303 362.4C204.303 361.28 203.967 360.363 203.295 359.648C202.634 358.923 201.775 358.56 200.719 358.56H198.159V366.24H200.719Z" fill="#231F20"/>
<rect width="98.3333" height="80" transform="translate(216.666 305)" fill="#FF6B00"/>
<path d="M249.136 361.6H247.344L247.088 363.2H248.88L248.672 364.56H246.864L246.416 367.2H244.992L245.44 364.56H243.648L243.2 367.2H241.776L242.224 364.56H240.4L240.624 363.2H242.448L242.704 361.6H240.88L241.104 360.24H242.944L243.376 357.6H244.8L244.368 360.24H246.16L246.592 357.6H248.016L247.584 360.24H249.36L249.136 361.6ZM245.664 363.2L245.92 361.6H244.128L243.872 363.2H245.664ZM257.446 358.56H252.726V361.696H257.286V363.456H252.726V368H250.886V356.8H257.446V358.56ZM265.727 358.56H261.007V361.696H265.567V363.456H261.007V368H259.167V356.8H265.727V358.56ZM270.696 360.56C271.859 360.56 272.808 360.917 273.544 361.632C274.28 362.336 274.648 363.253 274.648 364.384C274.648 365.515 274.28 366.437 273.544 367.152C272.808 367.856 271.859 368.208 270.696 368.208C269.523 368.208 268.568 367.856 267.832 367.152C267.096 366.437 266.728 365.515 266.728 364.384C266.728 363.531 266.952 362.779 267.4 362.128L270.952 356.8H273.048L270.488 360.56H270.696ZM270.696 366.464C271.315 366.464 271.821 366.277 272.216 365.904C272.611 365.52 272.808 365.013 272.808 364.384C272.808 363.755 272.611 363.253 272.216 362.88C271.821 362.496 271.315 362.304 270.696 362.304C270.067 362.304 269.555 362.496 269.16 362.88C268.765 363.253 268.568 363.755 268.568 364.384C268.568 365.013 268.765 365.52 269.16 365.904C269.555 366.277 270.067 366.464 270.696 366.464ZM282.759 362.192C283.25 362.448 283.634 362.8 283.911 363.248C284.188 363.696 284.327 364.213 284.327 364.8C284.327 365.717 284.002 366.48 283.351 367.088C282.7 367.696 281.906 368 280.967 368H276.167V356.8H280.615C281.532 356.8 282.306 357.099 282.935 357.696C283.575 358.283 283.895 359.019 283.895 359.904C283.895 360.875 283.516 361.637 282.759 362.192ZM280.615 358.528H278.007V361.472H280.615C281.02 361.472 281.362 361.333 281.639 361.056C281.916 360.768 282.055 360.416 282.055 360C282.055 359.584 281.916 359.237 281.639 358.96C281.362 358.672 281.02 358.528 280.615 358.528ZM280.967 366.272C281.394 366.272 281.751 366.123 282.039 365.824C282.338 365.515 282.487 365.141 282.487 364.704C282.487 364.267 282.338 363.899 282.039 363.6C281.751 363.291 281.394 363.136 280.967 363.136H278.007V366.272H280.967ZM293.006 366.624C292.238 367.68 291.161 368.208 289.774 368.208C288.388 368.208 287.305 367.68 286.526 366.624C285.758 365.568 285.374 364.16 285.374 362.4C285.374 360.64 285.758 359.232 286.526 358.176C287.305 357.12 288.388 356.592 289.774 356.592C291.161 356.592 292.238 357.12 293.006 358.176C293.785 359.232 294.174 360.64 294.174 362.4C294.174 364.16 293.785 365.568 293.006 366.624ZM289.774 366.416C290.606 366.416 291.241 366.069 291.678 365.376C292.116 364.683 292.334 363.691 292.334 362.4C292.334 361.109 292.116 360.117 291.678 359.424C291.241 358.731 290.606 358.384 289.774 358.384C288.953 358.384 288.318 358.731 287.87 359.424C287.433 360.117 287.214 361.109 287.214 362.4C287.214 363.691 287.433 364.683 287.87 365.376C288.318 366.069 288.953 366.416 289.774 366.416ZM303.085 366.624C302.317 367.68 301.239 368.208 299.853 368.208C298.466 368.208 297.383 367.68 296.605 366.624C295.837 365.568 295.453 364.16 295.453 362.4C295.453 360.64 295.837 359.232 296.605 358.176C297.383 357.12 298.466 356.592 299.853 356.592C301.239 356.592 302.317 357.12 303.085 358.176C303.863 359.232 304.253 360.64 304.253 362.4C304.253 364.16 303.863 365.568 303.085 366.624ZM299.853 366.416C300.685 366.416 301.319 366.069 301.757 365.376C302.194 364.683 302.413 363.691 302.413 362.4C302.413 361.109 302.194 360.117 301.757 359.424C301.319 358.731 300.685 358.384 299.853 358.384C299.031 358.384 298.397 358.731 297.949 359.424C297.511 360.117 297.293 361.109 297.293 362.4C297.293 363.691 297.511 364.683 297.949 365.376C298.397 366.069 299.031 366.416 299.853 366.416Z" fill="#231F20"/>
<rect width="295" height="100" transform="translate(20 385)" fill="#3DAE2B"/>
<path d="M237.136 451.6H235.344L235.088 453.2H236.88L236.672 454.56H234.864L234.416 457.2H232.992L233.44 454.56H231.648L231.2 457.2H229.776L230.224 454.56H228.4L228.624 453.2H230.448L230.704 451.6H228.88L229.104 450.24H230.944L231.376 447.6H232.8L232.368 450.24H234.16L234.592 447.6H236.016L235.584 450.24H237.36L237.136 451.6ZM233.664 453.2L233.92 451.6H232.128L231.872 453.2H233.664ZM243.11 451.376C243.92 451.568 244.576 451.947 245.078 452.512C245.59 453.067 245.846 453.765 245.846 454.608C245.846 455.728 245.467 456.608 244.71 457.248C243.952 457.888 243.024 458.208 241.926 458.208C241.072 458.208 240.304 458.011 239.622 457.616C238.95 457.221 238.464 456.645 238.166 455.888L239.734 454.976C240.064 455.936 240.795 456.416 241.926 456.416C242.566 456.416 243.072 456.256 243.446 455.936C243.819 455.605 244.006 455.163 244.006 454.608C244.006 454.053 243.819 453.616 243.446 453.296C243.072 452.976 242.566 452.816 241.926 452.816H241.51L240.774 451.712L243.19 448.528H238.502V446.8H245.382V448.368L243.11 451.376ZM251.926 446.8C253.462 446.8 254.737 447.339 255.75 448.416C256.774 449.493 257.286 450.821 257.286 452.4C257.286 453.968 256.774 455.296 255.75 456.384C254.737 457.461 253.462 458 251.926 458H247.526V446.8H251.926ZM251.926 456.24C252.982 456.24 253.841 455.877 254.502 455.152C255.174 454.427 255.51 453.509 255.51 452.4C255.51 451.28 255.174 450.363 254.502 449.648C253.841 448.923 252.982 448.56 251.926 448.56H249.366V456.24H251.926ZM265.838 458L265.054 455.744H260.286L259.502 458H257.502L261.566 446.8H263.774L267.822 458H265.838ZM260.894 454.016H264.446L262.67 448.96L260.894 454.016ZM270.866 456.24H275.826V458H269.026V446.8H275.746V448.56H270.866V451.472H275.346V453.216H270.866V456.24ZM276.887 458V456.56L280.791 452.576C281.74 451.627 282.215 450.805 282.215 450.112C282.215 449.568 282.049 449.147 281.719 448.848C281.399 448.539 280.988 448.384 280.487 448.384C279.548 448.384 278.855 448.848 278.407 449.776L276.855 448.864C277.207 448.117 277.703 447.552 278.343 447.168C278.983 446.784 279.692 446.592 280.471 446.592C281.452 446.592 282.295 446.901 282.999 447.52C283.703 448.139 284.055 448.981 284.055 450.048C284.055 451.189 283.42 452.405 282.151 453.696L279.623 456.224H284.263V458H276.887ZM292.571 452.192C293.062 452.448 293.446 452.8 293.723 453.248C294.001 453.696 294.139 454.213 294.139 454.8C294.139 455.717 293.814 456.48 293.163 457.088C292.513 457.696 291.718 458 290.779 458H285.979V446.8H290.427C291.345 446.8 292.118 447.099 292.747 447.696C293.387 448.283 293.707 449.019 293.707 449.904C293.707 450.875 293.329 451.637 292.571 452.192ZM290.427 448.528H287.819V451.472H290.427C290.833 451.472 291.174 451.333 291.451 451.056C291.729 450.768 291.867 450.416 291.867 450C291.867 449.584 291.729 449.237 291.451 448.96C291.174 448.672 290.833 448.528 290.427 448.528ZM290.779 456.272C291.206 456.272 291.563 456.123 291.851 455.824C292.15 455.515 292.299 455.141 292.299 454.704C292.299 454.267 292.15 453.899 291.851 453.6C291.563 453.291 291.206 453.136 290.779 453.136H287.819V456.272H290.779Z" fill="white"/>
<rect width="98.3333" height="80" transform="translate(20 485)" fill="#995480"/>
<path d="M53.47 541.6H51.678L51.422 543.2H53.214L53.006 544.56H51.198L50.75 547.2H49.326L49.774 544.56H47.982L47.534 547.2H46.11L46.558 544.56H44.734L44.958 543.2H46.782L47.038 541.6H45.214L45.438 540.24H47.278L47.71 537.6H49.134L48.702 540.24H50.494L50.926 537.6H52.35L51.918 540.24H53.694L53.47 541.6ZM49.998 543.2L50.254 541.6H48.462L48.206 543.2H49.998ZM62.4196 540.416C62.4196 541.269 62.1956 542.021 61.7476 542.672L58.2116 548H56.0996L58.6596 544.24H58.4676C57.3049 544.24 56.3503 543.888 55.6036 543.184C54.8676 542.469 54.4996 541.547 54.4996 540.416C54.4996 539.285 54.8676 538.368 55.6036 537.664C56.3503 536.949 57.3049 536.592 58.4676 536.592C59.6303 536.592 60.5796 536.949 61.3156 537.664C62.0516 538.368 62.4196 539.285 62.4196 540.416ZM56.3396 540.416C56.3396 541.035 56.5369 541.536 56.9316 541.92C57.3369 542.304 57.8489 542.496 58.4676 542.496C59.0863 542.496 59.5929 542.309 59.9876 541.936C60.3823 541.552 60.5796 541.045 60.5796 540.416C60.5796 539.787 60.3823 539.285 59.9876 538.912C59.5929 538.528 59.0863 538.336 58.4676 538.336C57.8489 538.336 57.3369 538.528 56.9316 538.912C56.5369 539.285 56.3396 539.787 56.3396 540.416ZM71.1384 540.416C71.1384 541.269 70.9144 542.021 70.4664 542.672L66.9304 548H64.8184L67.3784 544.24H67.1864C66.0237 544.24 65.069 543.888 64.3224 543.184C63.5864 542.469 63.2184 541.547 63.2184 540.416C63.2184 539.285 63.5864 538.368 64.3224 537.664C65.069 536.949 66.0237 536.592 67.1864 536.592C68.349 536.592 69.2984 536.949 70.0344 537.664C70.7704 538.368 71.1384 539.285 71.1384 540.416ZM65.0584 540.416C65.0584 541.035 65.2557 541.536 65.6504 541.92C66.0557 542.304 66.5677 542.496 67.1864 542.496C67.805 542.496 68.3117 542.309 68.7064 541.936C69.101 541.552 69.2984 541.045 69.2984 540.416C69.2984 539.787 69.101 539.285 68.7064 538.912C68.3117 538.528 67.805 538.336 67.1864 538.336C66.5677 538.336 66.0557 538.528 65.6504 538.912C65.2557 539.285 65.0584 539.787 65.0584 540.416ZM75.3121 541.024C76.3788 541.024 77.2801 541.344 78.0161 541.984C78.7521 542.613 79.1201 543.488 79.1201 544.608C79.1201 545.728 78.7414 546.608 77.9841 547.248C77.2268 547.888 76.2988 548.208 75.2001 548.208C74.3148 548.208 73.5308 548.005 72.8481 547.6C72.1654 547.184 71.6801 546.587 71.3921 545.808L72.9761 544.896C73.2748 545.909 74.0161 546.416 75.2001 546.416C75.8294 546.416 76.3308 546.256 76.7041 545.936C77.0881 545.605 77.2801 545.163 77.2801 544.608C77.2801 544.053 77.0934 543.616 76.7201 543.296C76.3468 542.976 75.8508 542.816 75.2321 542.816H71.9681L72.4001 536.8H78.6401V538.528H74.0961L73.9041 541.024H75.3121ZM88.6389 544.272V545.984H87.3589V548H85.5029V545.984H79.9989V544.272L83.8549 536.8H85.8549L81.9989 544.272H85.5029V541.36H87.3589V544.272H88.6389ZM95.7582 542.176C96.8569 542.784 97.4062 543.691 97.4062 544.896C97.4062 545.92 97.0489 546.731 96.3342 547.328C95.6196 547.915 94.6702 548.208 93.4862 548.208C92.3022 548.208 91.3476 547.915 90.6222 547.328C89.9076 546.731 89.5502 545.92 89.5502 544.896C89.5502 544.32 89.6942 543.797 89.9822 543.328C90.2702 542.848 90.6756 542.464 91.1982 542.176C90.3556 541.621 89.9342 540.832 89.9342 539.808C89.9342 538.784 90.2756 537.995 90.9582 537.44C91.6409 536.875 92.4836 536.592 93.4862 536.592C94.4782 536.592 95.3156 536.875 95.9982 537.44C96.6916 537.995 97.0382 538.784 97.0382 539.808C97.0382 540.832 96.6116 541.621 95.7582 542.176ZM93.4862 538.336C92.9849 538.336 92.5742 538.469 92.2542 538.736C91.9342 539.003 91.7742 539.387 91.7742 539.888C91.7742 540.368 91.9342 540.747 92.2542 541.024C92.5849 541.301 92.9956 541.44 93.4862 541.44C93.9662 541.44 94.3716 541.301 94.7022 541.024C95.0329 540.747 95.1982 540.368 95.1982 539.888C95.1982 539.387 95.0329 539.003 94.7022 538.736C94.3822 538.469 93.9769 538.336 93.4862 538.336ZM93.4862 546.464C94.1049 546.464 94.6062 546.315 94.9902 546.016C95.3742 545.707 95.5662 545.275 95.5662 544.72C95.5662 544.165 95.3742 543.739 94.9902 543.44C94.6062 543.131 94.1049 542.976 93.4862 542.976C92.8569 542.976 92.3502 543.131 91.9662 543.44C91.5822 543.739 91.3902 544.165 91.3902 544.72C91.3902 545.275 91.5822 545.707 91.9662 546.016C92.3502 546.315 92.8569 546.464 93.4862 546.464ZM106.231 546.624C105.463 547.68 104.386 548.208 102.999 548.208C101.612 548.208 100.53 547.68 99.751 546.624C98.983 545.568 98.599 544.16 98.599 542.4C98.599 540.64 98.983 539.232 99.751 538.176C100.53 537.12 101.612 536.592 102.999 536.592C104.386 536.592 105.463 537.12 106.231 538.176C107.01 539.232 107.399 540.64 107.399 542.4C107.399 544.16 107.01 545.568 106.231 546.624ZM102.999 546.416C103.831 546.416 104.466 546.069 104.903 545.376C105.34 544.683 105.559 543.691 105.559 542.4C105.559 541.109 105.34 540.117 104.903 539.424C104.466 538.731 103.831 538.384 102.999 538.384C102.178 538.384 101.543 538.731 101.095 539.424C100.658 540.117 100.439 541.109 100.439 542.4C100.439 543.691 100.658 544.683 101.095 545.376C101.543 546.069 102.178 546.416 102.999 546.416Z" fill="white"/>
<rect width="98.3333" height="80" transform="translate(118.334 485)" fill="#DF3FAF"/>
<path d="M150.804 541.6H149.012L148.756 543.2H150.548L150.34 544.56H148.532L148.084 547.2H146.66L147.108 544.56H145.316L144.868 547.2H143.444L143.892 544.56H142.068L142.292 543.2H144.116L144.372 541.6H142.548L142.772 540.24H144.612L145.044 537.6H146.468L146.036 540.24H147.828L148.26 537.6H149.684L149.252 540.24H151.028L150.804 541.6ZM147.332 543.2L147.588 541.6H145.796L145.54 543.2H147.332ZM156.954 536.8C158.49 536.8 159.764 537.339 160.778 538.416C161.802 539.493 162.314 540.821 162.314 542.4C162.314 543.968 161.802 545.296 160.778 546.384C159.764 547.461 158.49 548 156.954 548H152.554V536.8H156.954ZM156.954 546.24C158.01 546.24 158.868 545.877 159.53 545.152C160.202 544.427 160.538 543.509 160.538 542.4C160.538 541.28 160.202 540.363 159.53 539.648C158.868 538.923 158.01 538.56 156.954 538.56H154.394V546.24H156.954ZM170.551 538.56H165.831V541.696H170.391V543.456H165.831V548H163.991V536.8H170.551V538.56ZM176.496 541.376C177.307 541.568 177.963 541.947 178.464 542.512C178.976 543.067 179.232 543.765 179.232 544.608C179.232 545.728 178.854 546.608 178.096 547.248C177.339 547.888 176.411 548.208 175.312 548.208C174.459 548.208 173.691 548.011 173.008 547.616C172.336 547.221 171.851 546.645 171.552 545.888L173.12 544.976C173.451 545.936 174.182 546.416 175.312 546.416C175.952 546.416 176.459 546.256 176.832 545.936C177.206 545.605 177.392 545.163 177.392 544.608C177.392 544.053 177.206 543.616 176.832 543.296C176.459 542.976 175.952 542.816 175.312 542.816H174.896L174.16 541.712L176.576 538.528H171.888V536.8H178.768V538.368L176.496 541.376ZM187.473 538.56H182.753V541.696H187.313V543.456H182.753V548H180.913V536.8H187.473V538.56ZM196.006 548L195.222 545.744H190.454L189.67 548H187.67L191.734 536.8H193.942L197.99 548H196.006ZM191.062 544.016H194.614L192.838 538.96L191.062 544.016ZM205.754 538.56H201.034V541.696H205.594V543.456H201.034V548H199.194V536.8H205.754V538.56Z" fill="white"/>
<rect width="98.3333" height="80" transform="translate(216.666 485)" fill="#B0876F"/>
<path d="M252.136 541.6H250.344L250.088 543.2H251.88L251.672 544.56H249.864L249.416 547.2H247.992L248.44 544.56H246.648L246.2 547.2H244.776L245.224 544.56H243.4L243.624 543.2H245.448L245.704 541.6H243.88L244.104 540.24H245.944L246.376 537.6H247.8L247.368 540.24H249.16L249.592 537.6H251.016L250.584 540.24H252.36L252.136 541.6ZM248.664 543.2L248.92 541.6H247.128L246.872 543.2H248.664ZM260.478 542.192C260.968 542.448 261.352 542.8 261.63 543.248C261.907 543.696 262.046 544.213 262.046 544.8C262.046 545.717 261.72 546.48 261.07 547.088C260.419 547.696 259.624 548 258.686 548H253.886V536.8H258.334C259.251 536.8 260.024 537.099 260.654 537.696C261.294 538.283 261.614 539.019 261.614 539.904C261.614 540.875 261.235 541.637 260.478 542.192ZM258.334 538.528H255.726V541.472H258.334C258.739 541.472 259.08 541.333 259.358 541.056C259.635 540.768 259.774 540.416 259.774 540C259.774 539.584 259.635 539.237 259.358 538.96C259.08 538.672 258.739 538.528 258.334 538.528ZM258.686 546.272C259.112 546.272 259.47 546.123 259.758 545.824C260.056 545.515 260.206 545.141 260.206 544.704C260.206 544.267 260.056 543.899 259.758 543.6C259.47 543.291 259.112 543.136 258.686 543.136H255.726V546.272H258.686ZM270.725 546.624C269.957 547.68 268.88 548.208 267.493 548.208C266.106 548.208 265.024 547.68 264.245 546.624C263.477 545.568 263.093 544.16 263.093 542.4C263.093 540.64 263.477 539.232 264.245 538.176C265.024 537.12 266.106 536.592 267.493 536.592C268.88 536.592 269.957 537.12 270.725 538.176C271.504 539.232 271.893 540.64 271.893 542.4C271.893 544.16 271.504 545.568 270.725 546.624ZM267.493 546.416C268.325 546.416 268.96 546.069 269.397 545.376C269.834 544.683 270.053 543.691 270.053 542.4C270.053 541.109 269.834 540.117 269.397 539.424C268.96 538.731 268.325 538.384 267.493 538.384C266.672 538.384 266.037 538.731 265.589 539.424C265.152 540.117 264.933 541.109 264.933 542.4C264.933 543.691 265.152 544.683 265.589 545.376C266.037 546.069 266.672 546.416 267.493 546.416ZM279.299 542.176C280.398 542.784 280.947 543.691 280.947 544.896C280.947 545.92 280.59 546.731 279.875 547.328C279.161 547.915 278.211 548.208 277.027 548.208C275.843 548.208 274.889 547.915 274.163 547.328C273.449 546.731 273.091 545.92 273.091 544.896C273.091 544.32 273.235 543.797 273.523 543.328C273.811 542.848 274.217 542.464 274.739 542.176C273.897 541.621 273.475 540.832 273.475 539.808C273.475 538.784 273.817 537.995 274.499 537.44C275.182 536.875 276.025 536.592 277.027 536.592C278.019 536.592 278.857 536.875 279.539 537.44C280.233 537.995 280.579 538.784 280.579 539.808C280.579 540.832 280.153 541.621 279.299 542.176ZM277.027 538.336C276.526 538.336 276.115 538.469 275.795 538.736C275.475 539.003 275.315 539.387 275.315 539.888C275.315 540.368 275.475 540.747 275.795 541.024C276.126 541.301 276.537 541.44 277.027 541.44C277.507 541.44 277.913 541.301 278.243 541.024C278.574 540.747 278.739 540.368 278.739 539.888C278.739 539.387 278.574 539.003 278.243 538.736C277.923 538.469 277.518 538.336 277.027 538.336ZM277.027 546.464C277.646 546.464 278.147 546.315 278.531 546.016C278.915 545.707 279.107 545.275 279.107 544.72C279.107 544.165 278.915 543.739 278.531 543.44C278.147 543.131 277.646 542.976 277.027 542.976C276.398 542.976 275.891 543.131 275.507 543.44C275.123 543.739 274.931 544.165 274.931 544.72C274.931 545.275 275.123 545.707 275.507 546.016C275.891 546.315 276.398 546.464 277.027 546.464ZM281.428 536.8H288.548V538.4L284.612 548H282.676L286.548 538.56H281.428V536.8ZM292.118 540.56C293.281 540.56 294.23 540.917 294.966 541.632C295.702 542.336 296.07 543.253 296.07 544.384C296.07 545.515 295.702 546.437 294.966 547.152C294.23 547.856 293.281 548.208 292.118 548.208C290.945 548.208 289.99 547.856 289.254 547.152C288.518 546.437 288.15 545.515 288.15 544.384C288.15 543.531 288.374 542.779 288.822 542.128L292.374 536.8H294.47L291.91 540.56H292.118ZM292.118 546.464C292.737 546.464 293.243 546.277 293.638 545.904C294.033 545.52 294.23 545.013 294.23 544.384C294.23 543.755 294.033 543.253 293.638 542.88C293.243 542.496 292.737 542.304 292.118 542.304C291.489 542.304 290.977 542.496 290.582 542.88C290.187 543.253 289.99 543.755 289.99 544.384C289.99 545.013 290.187 545.52 290.582 545.904C290.977 546.277 291.489 546.464 292.118 546.464ZM304.149 538.56H299.429V541.696H303.989V543.456H299.429V548H297.589V536.8H304.149V538.56Z" fill="white"/>
<rect width="98.3333" height="80" transform="translate(20 565)" fill="#F93549"/>
<path d="M56.47 621.6H54.678L54.422 623.2H56.214L56.006 624.56H54.198L53.75 627.2H52.326L52.774 624.56H50.982L50.534 627.2H49.11L49.558 624.56H47.734L47.958 623.2H49.782L50.038 621.6H48.214L48.438 620.24H50.278L50.71 617.6H52.134L51.702 620.24H53.494L53.926 617.6H55.35L54.918 620.24H56.694L56.47 621.6ZM52.998 623.2L53.254 621.6H51.462L51.206 623.2H52.998ZM64.7796 618.56H60.0596V621.696H64.6196V623.456H60.0596V628H58.2196V616.8H64.7796V618.56ZM73.7009 620.416C73.7009 621.269 73.4769 622.021 73.0289 622.672L69.4929 628H67.3809L69.9409 624.24H69.7489C68.5862 624.24 67.6315 623.888 66.8849 623.184C66.1489 622.469 65.7809 621.547 65.7809 620.416C65.7809 619.285 66.1489 618.368 66.8849 617.664C67.6315 616.949 68.5862 616.592 69.7489 616.592C70.9115 616.592 71.8609 616.949 72.5969 617.664C73.3329 618.368 73.7009 619.285 73.7009 620.416ZM67.6209 620.416C67.6209 621.035 67.8182 621.536 68.2129 621.92C68.6182 622.304 69.1302 622.496 69.7489 622.496C70.3675 622.496 70.8742 622.309 71.2689 621.936C71.6635 621.552 71.8609 621.045 71.8609 620.416C71.8609 619.787 71.6635 619.285 71.2689 618.912C70.8742 618.528 70.3675 618.336 69.7489 618.336C69.1302 618.336 68.6182 618.528 68.2129 618.912C67.8182 619.285 67.6209 619.787 67.6209 620.416ZM78.4749 621.376C79.2855 621.568 79.9415 621.947 80.4429 622.512C80.9549 623.067 81.2109 623.765 81.2109 624.608C81.2109 625.728 80.8322 626.608 80.0749 627.248C79.3175 627.888 78.3895 628.208 77.2909 628.208C76.4375 628.208 75.6695 628.011 74.9869 627.616C74.3149 627.221 73.8295 626.645 73.5309 625.888L75.0989 624.976C75.4295 625.936 76.1602 626.416 77.2909 626.416C77.9309 626.416 78.4375 626.256 78.8109 625.936C79.1842 625.605 79.3709 625.163 79.3709 624.608C79.3709 624.053 79.1842 623.616 78.8109 623.296C78.4375 622.976 77.9309 622.816 77.2909 622.816H76.8749L76.1389 621.712L78.5549 618.528H73.8669V616.8H80.7469V618.368L78.4749 621.376ZM86.0152 621.024C87.0819 621.024 87.9832 621.344 88.7192 621.984C89.4552 622.613 89.8232 623.488 89.8232 624.608C89.8232 625.728 89.4446 626.608 88.6872 627.248C87.9299 627.888 87.0019 628.208 85.9032 628.208C85.0179 628.208 84.2339 628.005 83.5512 627.6C82.8686 627.184 82.3832 626.587 82.0952 625.808L83.6792 624.896C83.9779 625.909 84.7192 626.416 85.9032 626.416C86.5326 626.416 87.0339 626.256 87.4072 625.936C87.7912 625.605 87.9832 625.163 87.9832 624.608C87.9832 624.053 87.7966 623.616 87.4232 623.296C87.0499 622.976 86.5539 622.816 85.9352 622.816H82.6712L83.1032 616.8H89.3432V618.528H84.7992L84.6072 621.024H86.0152ZM99.342 624.272V625.984H98.062V628H96.206V625.984H90.702V624.272L94.558 616.8H96.558L92.702 624.272H96.206V621.36H98.062V624.272H99.342ZM107.623 620.416C107.623 621.269 107.399 622.021 106.951 622.672L103.415 628H101.303L103.863 624.24H103.671C102.508 624.24 101.553 623.888 100.807 623.184C100.071 622.469 99.7027 621.547 99.7027 620.416C99.7027 619.285 100.071 618.368 100.807 617.664C101.553 616.949 102.508 616.592 103.671 616.592C104.833 616.592 105.783 616.949 106.519 617.664C107.255 618.368 107.623 619.285 107.623 620.416ZM101.543 620.416C101.543 621.035 101.74 621.536 102.135 621.92C102.54 622.304 103.052 622.496 103.671 622.496C104.289 622.496 104.796 622.309 105.191 621.936C105.585 621.552 105.783 621.045 105.783 620.416C105.783 619.787 105.585 619.285 105.191 618.912C104.796 618.528 104.289 618.336 103.671 618.336C103.052 618.336 102.54 618.528 102.135 618.912C101.74 619.285 101.543 619.787 101.543 620.416Z" fill="white"/>
<rect width="98.3333" height="80" transform="translate(118.334 565)" fill="#E7B00C"/>
<path d="M147.804 621.6H146.012L145.756 623.2H147.548L147.34 624.56H145.532L145.084 627.2H143.66L144.108 624.56H142.316L141.868 627.2H140.444L140.892 624.56H139.068L139.292 623.2H141.116L141.372 621.6H139.548L139.772 620.24H141.612L142.044 617.6H143.468L143.036 620.24H144.828L145.26 617.6H146.684L146.252 620.24H148.028L147.804 621.6ZM144.332 623.2L144.588 621.6H142.796L142.54 623.2H144.332ZM151.394 626.24H156.354V628H149.554V616.8H156.274V618.56H151.394V621.472H155.874V623.216H151.394V626.24ZM157.158 616.8H164.278V618.4L160.342 628H158.406L162.278 618.56H157.158V616.8ZM172.474 622.192C172.964 622.448 173.348 622.8 173.626 623.248C173.903 623.696 174.042 624.213 174.042 624.8C174.042 625.717 173.716 626.48 173.066 627.088C172.415 627.696 171.62 628 170.682 628H165.882V616.8H170.33C171.247 616.8 172.02 617.099 172.65 617.696C173.29 618.283 173.61 619.019 173.61 619.904C173.61 620.875 173.231 621.637 172.474 622.192ZM170.33 618.528H167.722V621.472H170.33C170.735 621.472 171.076 621.333 171.354 621.056C171.631 620.768 171.77 620.416 171.77 620C171.77 619.584 171.631 619.237 171.354 618.96C171.076 618.672 170.735 618.528 170.33 618.528ZM170.682 626.272C171.108 626.272 171.466 626.123 171.754 625.824C172.052 625.515 172.202 625.141 172.202 624.704C172.202 624.267 172.052 623.899 171.754 623.6C171.466 623.291 171.108 623.136 170.682 623.136H167.722V626.272H170.682ZM182.721 626.624C181.953 627.68 180.876 628.208 179.489 628.208C178.103 628.208 177.02 627.68 176.241 626.624C175.473 625.568 175.089 624.16 175.089 622.4C175.089 620.64 175.473 619.232 176.241 618.176C177.02 617.12 178.103 616.592 179.489 616.592C180.876 616.592 181.953 617.12 182.721 618.176C183.5 619.232 183.889 620.64 183.889 622.4C183.889 624.16 183.5 625.568 182.721 626.624ZM179.489 626.416C180.321 626.416 180.956 626.069 181.393 625.376C181.831 624.683 182.049 623.691 182.049 622.4C182.049 621.109 181.831 620.117 181.393 619.424C180.956 618.731 180.321 618.384 179.489 618.384C178.668 618.384 178.033 618.731 177.585 619.424C177.148 620.117 176.929 621.109 176.929 622.4C176.929 623.691 177.148 624.683 177.585 625.376C178.033 626.069 178.668 626.416 179.489 626.416ZM192.799 626.624C192.031 627.68 190.954 628.208 189.567 628.208C188.181 628.208 187.098 627.68 186.319 626.624C185.551 625.568 185.167 624.16 185.167 622.4C185.167 620.64 185.551 619.232 186.319 618.176C187.098 617.12 188.181 616.592 189.567 616.592C190.954 616.592 192.031 617.12 192.799 618.176C193.578 619.232 193.967 620.64 193.967 622.4C193.967 624.16 193.578 625.568 192.799 626.624ZM189.567 626.416C190.399 626.416 191.034 626.069 191.471 625.376C191.909 624.683 192.127 623.691 192.127 622.4C192.127 621.109 191.909 620.117 191.471 619.424C191.034 618.731 190.399 618.384 189.567 618.384C188.746 618.384 188.111 618.731 187.663 619.424C187.226 620.117 187.007 621.109 187.007 622.4C187.007 623.691 187.226 624.683 187.663 625.376C188.111 626.069 188.746 626.416 189.567 626.416ZM201.021 628.208C199.336 628.208 197.939 627.653 196.829 626.544C195.72 625.424 195.165 624.043 195.165 622.4C195.165 620.757 195.72 619.381 196.829 618.272C197.939 617.152 199.336 616.592 201.021 616.592C202.035 616.592 202.968 616.832 203.821 617.312C204.685 617.792 205.357 618.443 205.837 619.264L204.237 620.192C203.939 619.637 203.501 619.2 202.925 618.88C202.36 618.549 201.725 618.384 201.021 618.384C199.827 618.384 198.856 618.763 198.109 619.52C197.373 620.277 197.005 621.237 197.005 622.4C197.005 623.563 197.373 624.523 198.109 625.28C198.856 626.037 199.827 626.416 201.021 626.416C201.725 626.416 202.365 626.256 202.941 625.936C203.517 625.605 203.949 625.163 204.237 624.608L205.837 625.52C205.368 626.341 204.701 626.997 203.837 627.488C202.984 627.968 202.045 628.208 201.021 628.208Z" fill="white"/>
<rect width="98.3333" height="80" transform="translate(216.666 565)" fill="#65B2E8"/>
<path d="M251.136 621.6H249.344L249.088 623.2H250.88L250.672 624.56H248.864L248.416 627.2H246.992L247.44 624.56H245.648L245.2 627.2H243.776L244.224 624.56H242.4L242.624 623.2H244.448L244.704 621.6H242.88L243.104 620.24H244.944L245.376 617.6H246.8L246.368 620.24H248.16L248.592 617.6H250.016L249.584 620.24H251.36L251.136 621.6ZM247.664 623.2L247.92 621.6H246.128L245.872 623.2H247.664ZM256.134 620.56C257.296 620.56 258.246 620.917 258.982 621.632C259.718 622.336 260.086 623.253 260.086 624.384C260.086 625.515 259.718 626.437 258.982 627.152C258.246 627.856 257.296 628.208 256.134 628.208C254.96 628.208 254.006 627.856 253.27 627.152C252.534 626.437 252.166 625.515 252.166 624.384C252.166 623.531 252.39 622.779 252.838 622.128L256.39 616.8H258.486L255.926 620.56H256.134ZM256.134 626.464C256.752 626.464 257.259 626.277 257.654 625.904C258.048 625.52 258.246 625.013 258.246 624.384C258.246 623.755 258.048 623.253 257.654 622.88C257.259 622.496 256.752 622.304 256.134 622.304C255.504 622.304 254.992 622.496 254.598 622.88C254.203 623.253 254.006 623.755 254.006 624.384C254.006 625.013 254.203 625.52 254.598 625.904C254.992 626.277 255.504 626.464 256.134 626.464ZM264.572 621.024C265.639 621.024 266.54 621.344 267.276 621.984C268.012 622.613 268.38 623.488 268.38 624.608C268.38 625.728 268.001 626.608 267.244 627.248C266.487 627.888 265.559 628.208 264.46 628.208C263.575 628.208 262.791 628.005 262.108 627.6C261.425 627.184 260.94 626.587 260.652 625.808L262.236 624.896C262.535 625.909 263.276 626.416 264.46 626.416C265.089 626.416 265.591 626.256 265.964 625.936C266.348 625.605 266.54 625.163 266.54 624.608C266.54 624.053 266.353 623.616 265.98 623.296C265.607 622.976 265.111 622.816 264.492 622.816H261.228L261.66 616.8H267.9V618.528H263.356L263.164 621.024H264.572ZM276.603 622.192C277.093 622.448 277.477 622.8 277.755 623.248C278.032 623.696 278.171 624.213 278.171 624.8C278.171 625.717 277.845 626.48 277.195 627.088C276.544 627.696 275.749 628 274.811 628H270.011V616.8H274.459C275.376 616.8 276.149 617.099 276.779 617.696C277.419 618.283 277.739 619.019 277.739 619.904C277.739 620.875 277.36 621.637 276.603 622.192ZM274.459 618.528H271.851V621.472H274.459C274.864 621.472 275.205 621.333 275.483 621.056C275.76 620.768 275.899 620.416 275.899 620C275.899 619.584 275.76 619.237 275.483 618.96C275.205 618.672 274.864 618.528 274.459 618.528ZM274.811 626.272C275.237 626.272 275.595 626.123 275.883 625.824C276.181 625.515 276.331 625.141 276.331 624.704C276.331 624.267 276.181 623.899 275.883 623.6C275.595 623.291 275.237 623.136 274.811 623.136H271.851V626.272H274.811ZM278.746 628V626.56L282.65 622.576C283.599 621.627 284.074 620.805 284.074 620.112C284.074 619.568 283.909 619.147 283.578 618.848C283.258 618.539 282.847 618.384 282.346 618.384C281.407 618.384 280.714 618.848 280.266 619.776L278.714 618.864C279.066 618.117 279.562 617.552 280.202 617.168C280.842 616.784 281.551 616.592 282.33 616.592C283.311 616.592 284.154 616.901 284.858 617.52C285.562 618.139 285.914 618.981 285.914 620.048C285.914 621.189 285.279 622.405 284.01 623.696L281.482 626.224H286.122V628H278.746ZM289.679 626.24H294.639V628H287.839V616.8H294.559V618.56H289.679V621.472H294.159V623.216H289.679V626.24ZM301.971 622.176C303.07 622.784 303.619 623.691 303.619 624.896C303.619 625.92 303.262 626.731 302.547 627.328C301.832 627.915 300.883 628.208 299.699 628.208C298.515 628.208 297.56 627.915 296.835 627.328C296.12 626.731 295.763 625.92 295.763 624.896C295.763 624.32 295.907 623.797 296.195 623.328C296.483 622.848 296.888 622.464 297.411 622.176C296.568 621.621 296.147 620.832 296.147 619.808C296.147 618.784 296.488 617.995 297.171 617.44C297.854 616.875 298.696 616.592 299.699 616.592C300.691 616.592 301.528 616.875 302.211 617.44C302.904 617.995 303.251 618.784 303.251 619.808C303.251 620.832 302.824 621.621 301.971 622.176ZM299.699 618.336C299.198 618.336 298.787 618.469 298.467 618.736C298.147 619.003 297.987 619.387 297.987 619.888C297.987 620.368 298.147 620.747 298.467 621.024C298.798 621.301 299.208 621.44 299.699 621.44C300.179 621.44 300.584 621.301 300.915 621.024C301.246 620.747 301.411 620.368 301.411 619.888C301.411 619.387 301.246 619.003 300.915 618.736C300.595 618.469 300.19 618.336 299.699 618.336ZM299.699 626.464C300.318 626.464 300.819 626.315 301.203 626.016C301.587 625.707 301.779 625.275 301.779 624.72C301.779 624.165 301.587 623.739 301.203 623.44C300.819 623.131 300.318 622.976 299.699 622.976C299.07 622.976 298.563 623.131 298.179 623.44C297.795 623.739 297.603 624.165 297.603 624.72C297.603 625.275 297.795 625.707 298.179 626.016C298.563 626.315 299.07 626.464 299.699 626.464Z" fill="white"/>
</svg>
