<svg width="645" height="768" viewBox="0 0 645 768" fill="none" xmlns="http://www.w3.org/2000/svg">
<rect width="645" height="768" fill="#F6F6F6"/>
<rect width="530" height="150" transform="translate(58 89)" fill="#F5E1C1"/>
<path d="M518.136 205.6H516.344L516.088 207.2H517.88L517.672 208.56H515.864L515.416 211.2H513.992L514.44 208.56H512.648L512.2 211.2H510.776L511.224 208.56H509.4L509.624 207.2H511.448L511.704 205.6H509.88L510.104 204.24H511.944L512.376 201.6H513.8L513.368 204.24H515.16L515.592 201.6H517.016L516.584 204.24H518.36L518.136 205.6ZM514.664 207.2L514.92 205.6H513.128L512.872 207.2H514.664ZM526.446 202.56H521.726V205.696H526.286V207.456H521.726V212H519.886V200.8H526.446V202.56ZM531.447 205.024C532.514 205.024 533.415 205.344 534.151 205.984C534.887 206.613 535.255 207.488 535.255 208.608C535.255 209.728 534.876 210.608 534.119 211.248C533.362 211.888 532.434 212.208 531.335 212.208C530.45 212.208 529.666 212.005 528.983 211.6C528.3 211.184 527.815 210.587 527.527 209.808L529.111 208.896C529.41 209.909 530.151 210.416 531.335 210.416C531.964 210.416 532.466 210.256 532.839 209.936C533.223 209.605 533.415 209.163 533.415 208.608C533.415 208.053 533.228 207.616 532.855 207.296C532.482 206.976 531.986 206.816 531.367 206.816H528.103L528.535 200.8H534.775V202.528H530.231L530.039 205.024H531.447ZM538.726 210.24H543.686V212H536.886V200.8H543.606V202.56H538.726V205.472H543.206V207.216H538.726V210.24ZM547.48 200.8H549.08V212H547.24V202.768L544.984 203.408L544.536 201.84L547.48 200.8ZM556.697 212.208C555.012 212.208 553.615 211.653 552.505 210.544C551.396 209.424 550.841 208.043 550.841 206.4C550.841 204.757 551.396 203.381 552.505 202.272C553.615 201.152 555.012 200.592 556.697 200.592C557.711 200.592 558.644 200.832 559.497 201.312C560.361 201.792 561.033 202.443 561.513 203.264L559.913 204.192C559.615 203.637 559.177 203.2 558.601 202.88C558.036 202.549 557.401 202.384 556.697 202.384C555.503 202.384 554.532 202.763 553.785 203.52C553.049 204.277 552.681 205.237 552.681 206.4C552.681 207.563 553.049 208.523 553.785 209.28C554.532 210.037 555.503 210.416 556.697 210.416C557.401 210.416 558.041 210.256 558.617 209.936C559.193 209.605 559.625 209.163 559.913 208.608L561.513 209.52C561.044 210.341 560.377 210.997 559.513 211.488C558.66 211.968 557.721 212.208 556.697 212.208ZM565.152 200.8H566.752V212H564.912V202.768L562.656 203.408L562.208 201.84L565.152 200.8Z" fill="#231F20"/>
<rect width="530" height="120" transform="translate(58 239)" fill="#231F20"/>
<path d="M518.136 325.6H516.344L516.088 327.2H517.88L517.672 328.56H515.864L515.416 331.2H513.992L514.44 328.56H512.648L512.2 331.2H510.776L511.224 328.56H509.4L509.624 327.2H511.448L511.704 325.6H509.88L510.104 324.24H511.944L512.376 321.6H513.8L513.368 324.24H515.16L515.592 321.6H517.016L516.584 324.24H518.36L518.136 325.6ZM514.664 327.2L514.92 325.6H513.128L512.872 327.2H514.664ZM519.262 332V330.56L523.166 326.576C524.115 325.627 524.59 324.805 524.59 324.112C524.59 323.568 524.424 323.147 524.094 322.848C523.774 322.539 523.363 322.384 522.862 322.384C521.923 322.384 521.23 322.848 520.782 323.776L519.23 322.864C519.582 322.117 520.078 321.552 520.718 321.168C521.358 320.784 522.067 320.592 522.846 320.592C523.827 320.592 524.67 320.901 525.374 321.52C526.078 322.139 526.43 322.981 526.43 324.048C526.43 325.189 525.795 326.405 524.526 327.696L521.998 330.224H526.638V332H519.262ZM532.422 325.376C533.233 325.568 533.889 325.947 534.39 326.512C534.902 327.067 535.158 327.765 535.158 328.608C535.158 329.728 534.779 330.608 534.022 331.248C533.265 331.888 532.337 332.208 531.238 332.208C530.385 332.208 529.617 332.011 528.934 331.616C528.262 331.221 527.777 330.645 527.478 329.888L529.046 328.976C529.377 329.936 530.107 330.416 531.238 330.416C531.878 330.416 532.385 330.256 532.758 329.936C533.131 329.605 533.318 329.163 533.318 328.608C533.318 328.053 533.131 327.616 532.758 327.296C532.385 326.976 531.878 326.816 531.238 326.816H530.822L530.086 325.712L532.502 322.528H527.814V320.8H534.694V322.368L532.422 325.376ZM538.402 320.8H540.002V332H538.162V322.768L535.906 323.408L535.458 321.84L538.402 320.8ZM548.883 322.56H544.163V325.696H548.723V327.456H544.163V332H542.323V320.8H548.883V322.56ZM549.98 332V330.56L553.884 326.576C554.834 325.627 555.308 324.805 555.308 324.112C555.308 323.568 555.143 323.147 554.812 322.848C554.492 322.539 554.082 322.384 553.58 322.384C552.642 322.384 551.948 322.848 551.5 323.776L549.948 322.864C550.3 322.117 550.796 321.552 551.436 321.168C552.076 320.784 552.786 320.592 553.564 320.592C554.546 320.592 555.388 320.901 556.092 321.52C556.796 322.139 557.148 322.981 557.148 324.048C557.148 325.189 556.514 326.405 555.244 327.696L552.716 330.224H557.356V332H549.98ZM566.069 330.624C565.301 331.68 564.224 332.208 562.837 332.208C561.45 332.208 560.368 331.68 559.589 330.624C558.821 329.568 558.437 328.16 558.437 326.4C558.437 324.64 558.821 323.232 559.589 322.176C560.368 321.12 561.45 320.592 562.837 320.592C564.224 320.592 565.301 321.12 566.069 322.176C566.848 323.232 567.237 324.64 567.237 326.4C567.237 328.16 566.848 329.568 566.069 330.624ZM562.837 330.416C563.669 330.416 564.304 330.069 564.741 329.376C565.178 328.683 565.397 327.691 565.397 326.4C565.397 325.109 565.178 324.117 564.741 323.424C564.304 322.731 563.669 322.384 562.837 322.384C562.016 322.384 561.381 322.731 560.933 323.424C560.496 324.117 560.277 325.109 560.277 326.4C560.277 327.691 560.496 328.683 560.933 329.376C561.381 330.069 562.016 330.416 562.837 330.416Z" fill="white"/>
<rect width="176.667" height="80" transform="translate(58 359)" fill="white"/>
<path d="M163.802 405.6H162.01L161.754 407.2H163.546L163.338 408.56H161.53L161.082 411.2H159.658L160.106 408.56H158.314L157.866 411.2H156.442L156.89 408.56H155.066L155.29 407.2H157.114L157.37 405.6H155.546L155.77 404.24H157.61L158.042 401.6H159.466L159.034 404.24H160.826L161.258 401.6H162.682L162.25 404.24H164.026L163.802 405.6ZM160.33 407.2L160.586 405.6H158.794L158.538 407.2H160.33ZM172.112 402.56H167.392V405.696H171.952V407.456H167.392V412H165.552V400.8H172.112V402.56ZM180.393 402.56H175.673V405.696H180.233V407.456H175.673V412H173.833V400.8H180.393V402.56ZM188.674 402.56H183.954V405.696H188.514V407.456H183.954V412H182.114V400.8H188.674V402.56ZM196.955 402.56H192.235V405.696H196.795V407.456H192.235V412H190.395V400.8H196.955V402.56ZM205.237 402.56H200.517V405.696H205.077V407.456H200.517V412H198.677V400.8H205.237V402.56ZM213.518 402.56H208.798V405.696H213.358V407.456H208.798V412H206.958V400.8H213.518V402.56Z" fill="#231F20"/>
<rect width="176.667" height="80" transform="translate(234.666 359)" fill="#FFFDED"/>
<path d="M334.468 405.6H332.676L332.42 407.2H334.212L334.004 408.56H332.196L331.748 411.2H330.324L330.772 408.56H328.98L328.532 411.2H327.108L327.556 408.56H325.732L325.956 407.2H327.78L328.036 405.6H326.212L326.436 404.24H328.276L328.708 401.6H330.132L329.7 404.24H331.492L331.924 401.6H333.348L332.916 404.24H334.692L334.468 405.6ZM330.996 407.2L331.252 405.6H329.46L329.204 407.2H330.996ZM342.778 402.56H338.058V405.696H342.618V407.456H338.058V412H336.218V400.8H342.778V402.56ZM351.059 402.56H346.339V405.696H350.899V407.456H346.339V412H344.499V400.8H351.059V402.56ZM359.34 402.56H354.62V405.696H359.18V407.456H354.62V412H352.78V400.8H359.34V402.56ZM365.461 400.8C366.997 400.8 368.272 401.339 369.285 402.416C370.309 403.493 370.821 404.821 370.821 406.4C370.821 407.968 370.309 409.296 369.285 410.384C368.272 411.461 366.997 412 365.461 412H361.061V400.8H365.461ZM365.461 410.24C366.517 410.24 367.376 409.877 368.037 409.152C368.709 408.427 369.045 407.509 369.045 406.4C369.045 405.28 368.709 404.363 368.037 403.648C367.376 402.923 366.517 402.56 365.461 402.56H362.901V410.24H365.461ZM374.339 410.24H379.299V412H372.499V400.8H379.219V402.56H374.339V405.472H378.819V407.216H374.339V410.24ZM385.383 400.8C386.919 400.8 388.194 401.339 389.207 402.416C390.231 403.493 390.743 404.821 390.743 406.4C390.743 407.968 390.231 409.296 389.207 410.384C388.194 411.461 386.919 412 385.383 412H380.983V400.8H385.383ZM385.383 410.24C386.439 410.24 387.298 409.877 387.959 409.152C388.631 408.427 388.967 407.509 388.967 406.4C388.967 405.28 388.631 404.363 387.959 403.648C387.298 402.923 386.439 402.56 385.383 402.56H382.823V410.24H385.383Z" fill="#231F20"/>
<rect width="176.667" height="80" transform="translate(411.334 359)" fill="#FF6B00"/>
<path d="M512.136 405.6H510.344L510.088 407.2H511.88L511.672 408.56H509.864L509.416 411.2H507.992L508.44 408.56H506.648L506.2 411.2H504.776L505.224 408.56H503.4L503.624 407.2H505.448L505.704 405.6H503.88L504.104 404.24H505.944L506.376 401.6H507.8L507.368 404.24H509.16L509.592 401.6H511.016L510.584 404.24H512.36L512.136 405.6ZM508.664 407.2L508.92 405.6H507.128L506.872 407.2H508.664ZM520.446 402.56H515.726V405.696H520.286V407.456H515.726V412H513.886V400.8H520.446V402.56ZM528.727 402.56H524.007V405.696H528.567V407.456H524.007V412H522.167V400.8H528.727V402.56ZM533.696 404.56C534.859 404.56 535.808 404.917 536.544 405.632C537.28 406.336 537.648 407.253 537.648 408.384C537.648 409.515 537.28 410.437 536.544 411.152C535.808 411.856 534.859 412.208 533.696 412.208C532.523 412.208 531.568 411.856 530.832 411.152C530.096 410.437 529.728 409.515 529.728 408.384C529.728 407.531 529.952 406.779 530.4 406.128L533.952 400.8H536.048L533.488 404.56H533.696ZM533.696 410.464C534.315 410.464 534.821 410.277 535.216 409.904C535.611 409.52 535.808 409.013 535.808 408.384C535.808 407.755 535.611 407.253 535.216 406.88C534.821 406.496 534.315 406.304 533.696 406.304C533.067 406.304 532.555 406.496 532.16 406.88C531.765 407.253 531.568 407.755 531.568 408.384C531.568 409.013 531.765 409.52 532.16 409.904C532.555 410.277 533.067 410.464 533.696 410.464ZM545.759 406.192C546.25 406.448 546.634 406.8 546.911 407.248C547.188 407.696 547.327 408.213 547.327 408.8C547.327 409.717 547.002 410.48 546.351 411.088C545.7 411.696 544.906 412 543.967 412H539.167V400.8H543.615C544.532 400.8 545.306 401.099 545.935 401.696C546.575 402.283 546.895 403.019 546.895 403.904C546.895 404.875 546.516 405.637 545.759 406.192ZM543.615 402.528H541.007V405.472H543.615C544.02 405.472 544.362 405.333 544.639 405.056C544.916 404.768 545.055 404.416 545.055 404C545.055 403.584 544.916 403.237 544.639 402.96C544.362 402.672 544.02 402.528 543.615 402.528ZM543.967 410.272C544.394 410.272 544.751 410.123 545.039 409.824C545.338 409.515 545.487 409.141 545.487 408.704C545.487 408.267 545.338 407.899 545.039 407.6C544.751 407.291 544.394 407.136 543.967 407.136H541.007V410.272H543.967ZM556.006 410.624C555.238 411.68 554.161 412.208 552.774 412.208C551.388 412.208 550.305 411.68 549.526 410.624C548.758 409.568 548.374 408.16 548.374 406.4C548.374 404.64 548.758 403.232 549.526 402.176C550.305 401.12 551.388 400.592 552.774 400.592C554.161 400.592 555.238 401.12 556.006 402.176C556.785 403.232 557.174 404.64 557.174 406.4C557.174 408.16 556.785 409.568 556.006 410.624ZM552.774 410.416C553.606 410.416 554.241 410.069 554.678 409.376C555.116 408.683 555.334 407.691 555.334 406.4C555.334 405.109 555.116 404.117 554.678 403.424C554.241 402.731 553.606 402.384 552.774 402.384C551.953 402.384 551.318 402.731 550.87 403.424C550.433 404.117 550.214 405.109 550.214 406.4C550.214 407.691 550.433 408.683 550.87 409.376C551.318 410.069 551.953 410.416 552.774 410.416ZM566.085 410.624C565.317 411.68 564.239 412.208 562.853 412.208C561.466 412.208 560.383 411.68 559.605 410.624C558.837 409.568 558.453 408.16 558.453 406.4C558.453 404.64 558.837 403.232 559.605 402.176C560.383 401.12 561.466 400.592 562.853 400.592C564.239 400.592 565.317 401.12 566.085 402.176C566.863 403.232 567.253 404.64 567.253 406.4C567.253 408.16 566.863 409.568 566.085 410.624ZM562.853 410.416C563.685 410.416 564.319 410.069 564.757 409.376C565.194 408.683 565.413 407.691 565.413 406.4C565.413 405.109 565.194 404.117 564.757 403.424C564.319 402.731 563.685 402.384 562.853 402.384C562.031 402.384 561.397 402.731 560.949 403.424C560.511 404.117 560.293 405.109 560.293 406.4C560.293 407.691 560.511 408.683 560.949 409.376C561.397 410.069 562.031 410.416 562.853 410.416Z" fill="#231F20"/>
<rect width="530" height="80" transform="translate(58 439)" fill="#3DAE2B"/>
<path d="M510.136 485.6H508.344L508.088 487.2H509.88L509.672 488.56H507.864L507.416 491.2H505.992L506.44 488.56H504.648L504.2 491.2H502.776L503.224 488.56H501.4L501.624 487.2H503.448L503.704 485.6H501.88L502.104 484.24H503.944L504.376 481.6H505.8L505.368 484.24H507.16L507.592 481.6H509.016L508.584 484.24H510.36L510.136 485.6ZM506.664 487.2L506.92 485.6H505.128L504.872 487.2H506.664ZM516.11 485.376C516.92 485.568 517.576 485.947 518.078 486.512C518.59 487.067 518.846 487.765 518.846 488.608C518.846 489.728 518.467 490.608 517.71 491.248C516.952 491.888 516.024 492.208 514.926 492.208C514.072 492.208 513.304 492.011 512.622 491.616C511.95 491.221 511.464 490.645 511.166 489.888L512.734 488.976C513.064 489.936 513.795 490.416 514.926 490.416C515.566 490.416 516.072 490.256 516.446 489.936C516.819 489.605 517.006 489.163 517.006 488.608C517.006 488.053 516.819 487.616 516.446 487.296C516.072 486.976 515.566 486.816 514.926 486.816H514.51L513.774 485.712L516.19 482.528H511.502V480.8H518.382V482.368L516.11 485.376ZM524.926 480.8C526.462 480.8 527.737 481.339 528.75 482.416C529.774 483.493 530.286 484.821 530.286 486.4C530.286 487.968 529.774 489.296 528.75 490.384C527.737 491.461 526.462 492 524.926 492H520.526V480.8H524.926ZM524.926 490.24C525.982 490.24 526.841 489.877 527.502 489.152C528.174 488.427 528.51 487.509 528.51 486.4C528.51 485.28 528.174 484.363 527.502 483.648C526.841 482.923 525.982 482.56 524.926 482.56H522.366V490.24H524.926ZM538.838 492L538.054 489.744H533.286L532.502 492H530.502L534.566 480.8H536.774L540.822 492H538.838ZM533.894 488.016H537.446L535.67 482.96L533.894 488.016ZM543.866 490.24H548.826V492H542.026V480.8H548.746V482.56H543.866V485.472H548.346V487.216H543.866V490.24ZM549.887 492V490.56L553.791 486.576C554.74 485.627 555.215 484.805 555.215 484.112C555.215 483.568 555.049 483.147 554.719 482.848C554.399 482.539 553.988 482.384 553.487 482.384C552.548 482.384 551.855 482.848 551.407 483.776L549.855 482.864C550.207 482.117 550.703 481.552 551.343 481.168C551.983 480.784 552.692 480.592 553.471 480.592C554.452 480.592 555.295 480.901 555.999 481.52C556.703 482.139 557.055 482.981 557.055 484.048C557.055 485.189 556.42 486.405 555.151 487.696L552.623 490.224H557.263V492H549.887ZM565.571 486.192C566.062 486.448 566.446 486.8 566.723 487.248C567.001 487.696 567.139 488.213 567.139 488.8C567.139 489.717 566.814 490.48 566.163 491.088C565.513 491.696 564.718 492 563.779 492H558.979V480.8H563.427C564.345 480.8 565.118 481.099 565.747 481.696C566.387 482.283 566.707 483.019 566.707 483.904C566.707 484.875 566.329 485.637 565.571 486.192ZM563.427 482.528H560.819V485.472H563.427C563.833 485.472 564.174 485.333 564.451 485.056C564.729 484.768 564.867 484.416 564.867 484C564.867 483.584 564.729 483.237 564.451 482.96C564.174 482.672 563.833 482.528 563.427 482.528ZM563.779 490.272C564.206 490.272 564.563 490.123 564.851 489.824C565.15 489.515 565.299 489.141 565.299 488.704C565.299 488.267 565.15 487.899 564.851 487.6C564.563 487.291 564.206 487.136 563.779 487.136H560.819V490.272H563.779Z" fill="white"/>
<rect width="176.667" height="80" transform="translate(58 519)" fill="#995480"/>
<path d="M159.802 565.6H158.01L157.754 567.2H159.546L159.338 568.56H157.53L157.082 571.2H155.658L156.106 568.56H154.314L153.866 571.2H152.442L152.89 568.56H151.066L151.29 567.2H153.114L153.37 565.6H151.546L151.77 564.24H153.61L154.042 561.6H155.466L155.034 564.24H156.826L157.258 561.6H158.682L158.25 564.24H160.026L159.802 565.6ZM156.33 567.2L156.586 565.6H154.794L154.538 567.2H156.33ZM168.752 564.416C168.752 565.269 168.528 566.021 168.08 566.672L164.544 572H162.432L164.992 568.24H164.8C163.637 568.24 162.682 567.888 161.936 567.184C161.2 566.469 160.832 565.547 160.832 564.416C160.832 563.285 161.2 562.368 161.936 561.664C162.682 560.949 163.637 560.592 164.8 560.592C165.962 560.592 166.912 560.949 167.648 561.664C168.384 562.368 168.752 563.285 168.752 564.416ZM162.672 564.416C162.672 565.035 162.869 565.536 163.264 565.92C163.669 566.304 164.181 566.496 164.8 566.496C165.418 566.496 165.925 566.309 166.32 565.936C166.714 565.552 166.912 565.045 166.912 564.416C166.912 563.787 166.714 563.285 166.32 562.912C165.925 562.528 165.418 562.336 164.8 562.336C164.181 562.336 163.669 562.528 163.264 562.912C162.869 563.285 162.672 563.787 162.672 564.416ZM177.47 564.416C177.47 565.269 177.246 566.021 176.798 566.672L173.262 572H171.15L173.71 568.24H173.518C172.356 568.24 171.401 567.888 170.654 567.184C169.918 566.469 169.55 565.547 169.55 564.416C169.55 563.285 169.918 562.368 170.654 561.664C171.401 560.949 172.356 560.592 173.518 560.592C174.681 560.592 175.63 560.949 176.366 561.664C177.102 562.368 177.47 563.285 177.47 564.416ZM171.39 564.416C171.39 565.035 171.588 565.536 171.982 565.92C172.388 566.304 172.9 566.496 173.518 566.496C174.137 566.496 174.644 566.309 175.038 565.936C175.433 565.552 175.63 565.045 175.63 564.416C175.63 563.787 175.433 563.285 175.038 562.912C174.644 562.528 174.137 562.336 173.518 562.336C172.9 562.336 172.388 562.528 171.982 562.912C171.588 563.285 171.39 563.787 171.39 564.416ZM181.644 565.024C182.711 565.024 183.612 565.344 184.348 565.984C185.084 566.613 185.452 567.488 185.452 568.608C185.452 569.728 185.073 570.608 184.316 571.248C183.559 571.888 182.631 572.208 181.532 572.208C180.647 572.208 179.863 572.005 179.18 571.6C178.497 571.184 178.012 570.587 177.724 569.808L179.308 568.896C179.607 569.909 180.348 570.416 181.532 570.416C182.161 570.416 182.663 570.256 183.036 569.936C183.42 569.605 183.612 569.163 183.612 568.608C183.612 568.053 183.425 567.616 183.052 567.296C182.679 566.976 182.183 566.816 181.564 566.816H178.3L178.732 560.8H184.972V562.528H180.428L180.236 565.024H181.644ZM194.971 568.272V569.984H193.691V572H191.835V569.984H186.331V568.272L190.187 560.8H192.187L188.331 568.272H191.835V565.36H193.691V568.272H194.971ZM202.09 566.176C203.189 566.784 203.738 567.691 203.738 568.896C203.738 569.92 203.381 570.731 202.666 571.328C201.952 571.915 201.002 572.208 199.818 572.208C198.634 572.208 197.68 571.915 196.954 571.328C196.24 570.731 195.882 569.92 195.882 568.896C195.882 568.32 196.026 567.797 196.314 567.328C196.602 566.848 197.008 566.464 197.53 566.176C196.688 565.621 196.266 564.832 196.266 563.808C196.266 562.784 196.608 561.995 197.29 561.44C197.973 560.875 198.816 560.592 199.818 560.592C200.81 560.592 201.648 560.875 202.33 561.44C203.024 561.995 203.37 562.784 203.37 563.808C203.37 564.832 202.944 565.621 202.09 566.176ZM199.818 562.336C199.317 562.336 198.906 562.469 198.586 562.736C198.266 563.003 198.106 563.387 198.106 563.888C198.106 564.368 198.266 564.747 198.586 565.024C198.917 565.301 199.328 565.44 199.818 565.44C200.298 565.44 200.704 565.301 201.034 565.024C201.365 564.747 201.53 564.368 201.53 563.888C201.53 563.387 201.365 563.003 201.034 562.736C200.714 562.469 200.309 562.336 199.818 562.336ZM199.818 570.464C200.437 570.464 200.938 570.315 201.322 570.016C201.706 569.707 201.898 569.275 201.898 568.72C201.898 568.165 201.706 567.739 201.322 567.44C200.938 567.131 200.437 566.976 199.818 566.976C199.189 566.976 198.682 567.131 198.298 567.44C197.914 567.739 197.722 568.165 197.722 568.72C197.722 569.275 197.914 569.707 198.298 570.016C198.682 570.315 199.189 570.464 199.818 570.464ZM212.563 570.624C211.795 571.68 210.718 572.208 209.331 572.208C207.944 572.208 206.862 571.68 206.083 570.624C205.315 569.568 204.931 568.16 204.931 566.4C204.931 564.64 205.315 563.232 206.083 562.176C206.862 561.12 207.944 560.592 209.331 560.592C210.718 560.592 211.795 561.12 212.563 562.176C213.342 563.232 213.731 564.64 213.731 566.4C213.731 568.16 213.342 569.568 212.563 570.624ZM209.331 570.416C210.163 570.416 210.798 570.069 211.235 569.376C211.672 568.683 211.891 567.691 211.891 566.4C211.891 565.109 211.672 564.117 211.235 563.424C210.798 562.731 210.163 562.384 209.331 562.384C208.51 562.384 207.875 562.731 207.427 563.424C206.99 564.117 206.771 565.109 206.771 566.4C206.771 567.691 206.99 568.683 207.427 569.376C207.875 570.069 208.51 570.416 209.331 570.416Z" fill="white"/>
<rect width="176.667" height="80" transform="translate(234.666 519)" fill="#DF3FAF"/>
<path d="M335.468 565.6H333.676L333.42 567.2H335.212L335.004 568.56H333.196L332.748 571.2H331.324L331.772 568.56H329.98L329.532 571.2H328.108L328.556 568.56H326.732L326.956 567.2H328.78L329.036 565.6H327.212L327.436 564.24H329.276L329.708 561.6H331.132L330.7 564.24H332.492L332.924 561.6H334.348L333.916 564.24H335.692L335.468 565.6ZM331.996 567.2L332.252 565.6H330.46L330.204 567.2H331.996ZM341.618 560.8C343.154 560.8 344.428 561.339 345.442 562.416C346.466 563.493 346.978 564.821 346.978 566.4C346.978 567.968 346.466 569.296 345.442 570.384C344.428 571.461 343.154 572 341.618 572H337.218V560.8H341.618ZM341.618 570.24C342.674 570.24 343.532 569.877 344.194 569.152C344.866 568.427 345.202 567.509 345.202 566.4C345.202 565.28 344.866 564.363 344.194 563.648C343.532 562.923 342.674 562.56 341.618 562.56H339.058V570.24H341.618ZM355.215 562.56H350.495V565.696H355.055V567.456H350.495V572H348.655V560.8H355.215V562.56ZM361.16 565.376C361.971 565.568 362.627 565.947 363.128 566.512C363.64 567.067 363.896 567.765 363.896 568.608C363.896 569.728 363.518 570.608 362.76 571.248C362.003 571.888 361.075 572.208 359.976 572.208C359.123 572.208 358.355 572.011 357.672 571.616C357 571.221 356.515 570.645 356.216 569.888L357.784 568.976C358.115 569.936 358.846 570.416 359.976 570.416C360.616 570.416 361.123 570.256 361.496 569.936C361.87 569.605 362.056 569.163 362.056 568.608C362.056 568.053 361.87 567.616 361.496 567.296C361.123 566.976 360.616 566.816 359.976 566.816H359.56L358.824 565.712L361.24 562.528H356.552V560.8H363.432V562.368L361.16 565.376ZM372.137 562.56H367.417V565.696H371.977V567.456H367.417V572H365.577V560.8H372.137V562.56ZM380.67 572L379.886 569.744H375.118L374.334 572H372.334L376.398 560.8H378.606L382.654 572H380.67ZM375.726 568.016H379.278L377.502 562.96L375.726 568.016ZM390.418 562.56H385.698V565.696H390.258V567.456H385.698V572H383.858V560.8H390.418V562.56Z" fill="white"/>
<rect width="176.667" height="80" transform="translate(411.334 519)" fill="#B0876F"/>
<path d="M515.136 565.6H513.344L513.088 567.2H514.88L514.672 568.56H512.864L512.416 571.2H510.992L511.44 568.56H509.648L509.2 571.2H507.776L508.224 568.56H506.4L506.624 567.2H508.448L508.704 565.6H506.88L507.104 564.24H508.944L509.376 561.6H510.8L510.368 564.24H512.16L512.592 561.6H514.016L513.584 564.24H515.36L515.136 565.6ZM511.664 567.2L511.92 565.6H510.128L509.872 567.2H511.664ZM523.478 566.192C523.968 566.448 524.352 566.8 524.63 567.248C524.907 567.696 525.046 568.213 525.046 568.8C525.046 569.717 524.72 570.48 524.07 571.088C523.419 571.696 522.624 572 521.686 572H516.886V560.8H521.334C522.251 560.8 523.024 561.099 523.654 561.696C524.294 562.283 524.614 563.019 524.614 563.904C524.614 564.875 524.235 565.637 523.478 566.192ZM521.334 562.528H518.726V565.472H521.334C521.739 565.472 522.08 565.333 522.358 565.056C522.635 564.768 522.774 564.416 522.774 564C522.774 563.584 522.635 563.237 522.358 562.96C522.08 562.672 521.739 562.528 521.334 562.528ZM521.686 570.272C522.112 570.272 522.47 570.123 522.758 569.824C523.056 569.515 523.206 569.141 523.206 568.704C523.206 568.267 523.056 567.899 522.758 567.6C522.47 567.291 522.112 567.136 521.686 567.136H518.726V570.272H521.686ZM533.725 570.624C532.957 571.68 531.88 572.208 530.493 572.208C529.106 572.208 528.024 571.68 527.245 570.624C526.477 569.568 526.093 568.16 526.093 566.4C526.093 564.64 526.477 563.232 527.245 562.176C528.024 561.12 529.106 560.592 530.493 560.592C531.88 560.592 532.957 561.12 533.725 562.176C534.504 563.232 534.893 564.64 534.893 566.4C534.893 568.16 534.504 569.568 533.725 570.624ZM530.493 570.416C531.325 570.416 531.96 570.069 532.397 569.376C532.834 568.683 533.053 567.691 533.053 566.4C533.053 565.109 532.834 564.117 532.397 563.424C531.96 562.731 531.325 562.384 530.493 562.384C529.672 562.384 529.037 562.731 528.589 563.424C528.152 564.117 527.933 565.109 527.933 566.4C527.933 567.691 528.152 568.683 528.589 569.376C529.037 570.069 529.672 570.416 530.493 570.416ZM542.299 566.176C543.398 566.784 543.947 567.691 543.947 568.896C543.947 569.92 543.59 570.731 542.875 571.328C542.161 571.915 541.211 572.208 540.027 572.208C538.843 572.208 537.889 571.915 537.163 571.328C536.449 570.731 536.091 569.92 536.091 568.896C536.091 568.32 536.235 567.797 536.523 567.328C536.811 566.848 537.217 566.464 537.739 566.176C536.897 565.621 536.475 564.832 536.475 563.808C536.475 562.784 536.817 561.995 537.499 561.44C538.182 560.875 539.025 560.592 540.027 560.592C541.019 560.592 541.857 560.875 542.539 561.44C543.233 561.995 543.579 562.784 543.579 563.808C543.579 564.832 543.153 565.621 542.299 566.176ZM540.027 562.336C539.526 562.336 539.115 562.469 538.795 562.736C538.475 563.003 538.315 563.387 538.315 563.888C538.315 564.368 538.475 564.747 538.795 565.024C539.126 565.301 539.537 565.44 540.027 565.44C540.507 565.44 540.913 565.301 541.243 565.024C541.574 564.747 541.739 564.368 541.739 563.888C541.739 563.387 541.574 563.003 541.243 562.736C540.923 562.469 540.518 562.336 540.027 562.336ZM540.027 570.464C540.646 570.464 541.147 570.315 541.531 570.016C541.915 569.707 542.107 569.275 542.107 568.72C542.107 568.165 541.915 567.739 541.531 567.44C541.147 567.131 540.646 566.976 540.027 566.976C539.398 566.976 538.891 567.131 538.507 567.44C538.123 567.739 537.931 568.165 537.931 568.72C537.931 569.275 538.123 569.707 538.507 570.016C538.891 570.315 539.398 570.464 540.027 570.464ZM544.428 560.8H551.548V562.4L547.612 572H545.676L549.548 562.56H544.428V560.8ZM555.118 564.56C556.281 564.56 557.23 564.917 557.966 565.632C558.702 566.336 559.07 567.253 559.07 568.384C559.07 569.515 558.702 570.437 557.966 571.152C557.23 571.856 556.281 572.208 555.118 572.208C553.945 572.208 552.99 571.856 552.254 571.152C551.518 570.437 551.15 569.515 551.15 568.384C551.15 567.531 551.374 566.779 551.822 566.128L555.374 560.8H557.47L554.91 564.56H555.118ZM555.118 570.464C555.737 570.464 556.243 570.277 556.638 569.904C557.033 569.52 557.23 569.013 557.23 568.384C557.23 567.755 557.033 567.253 556.638 566.88C556.243 566.496 555.737 566.304 555.118 566.304C554.489 566.304 553.977 566.496 553.582 566.88C553.187 567.253 552.99 567.755 552.99 568.384C552.99 569.013 553.187 569.52 553.582 569.904C553.977 570.277 554.489 570.464 555.118 570.464ZM567.149 562.56H562.429V565.696H566.989V567.456H562.429V572H560.589V560.8H567.149V562.56Z" fill="white"/>
<rect width="176.667" height="80" transform="translate(58 599)" fill="#F93549"/>
<path d="M162.802 645.6H161.01L160.754 647.2H162.546L162.338 648.56H160.53L160.082 651.2H158.658L159.106 648.56H157.314L156.866 651.2H155.442L155.89 648.56H154.066L154.29 647.2H156.114L156.37 645.6H154.546L154.77 644.24H156.61L157.042 641.6H158.466L158.034 644.24H159.826L160.258 641.6H161.682L161.25 644.24H163.026L162.802 645.6ZM159.33 647.2L159.586 645.6H157.794L157.538 647.2H159.33ZM171.112 642.56H166.392V645.696H170.952V647.456H166.392V652H164.552V640.8H171.112V642.56ZM180.033 644.416C180.033 645.269 179.809 646.021 179.361 646.672L175.825 652H173.713L176.273 648.24H176.081C174.918 648.24 173.964 647.888 173.217 647.184C172.481 646.469 172.113 645.547 172.113 644.416C172.113 643.285 172.481 642.368 173.217 641.664C173.964 640.949 174.918 640.592 176.081 640.592C177.244 640.592 178.193 640.949 178.929 641.664C179.665 642.368 180.033 643.285 180.033 644.416ZM173.953 644.416C173.953 645.035 174.15 645.536 174.545 645.92C174.95 646.304 175.462 646.496 176.081 646.496C176.7 646.496 177.206 646.309 177.601 645.936C177.996 645.552 178.193 645.045 178.193 644.416C178.193 643.787 177.996 643.285 177.601 642.912C177.206 642.528 176.7 642.336 176.081 642.336C175.462 642.336 174.95 642.528 174.545 642.912C174.15 643.285 173.953 643.787 173.953 644.416ZM184.807 645.376C185.618 645.568 186.274 645.947 186.775 646.512C187.287 647.067 187.543 647.765 187.543 648.608C187.543 649.728 187.164 650.608 186.407 651.248C185.65 651.888 184.722 652.208 183.623 652.208C182.77 652.208 182.002 652.011 181.319 651.616C180.647 651.221 180.162 650.645 179.863 649.888L181.431 648.976C181.762 649.936 182.492 650.416 183.623 650.416C184.263 650.416 184.77 650.256 185.143 649.936C185.516 649.605 185.703 649.163 185.703 648.608C185.703 648.053 185.516 647.616 185.143 647.296C184.77 646.976 184.263 646.816 183.623 646.816H183.207L182.471 645.712L184.887 642.528H180.199V640.8H187.079V642.368L184.807 645.376ZM192.347 645.024C193.414 645.024 194.315 645.344 195.051 645.984C195.787 646.613 196.155 647.488 196.155 648.608C196.155 649.728 195.777 650.608 195.019 651.248C194.262 651.888 193.334 652.208 192.235 652.208C191.35 652.208 190.566 652.005 189.883 651.6C189.201 651.184 188.715 650.587 188.427 649.808L190.011 648.896C190.31 649.909 191.051 650.416 192.235 650.416C192.865 650.416 193.366 650.256 193.739 649.936C194.123 649.605 194.315 649.163 194.315 648.608C194.315 648.053 194.129 647.616 193.755 647.296C193.382 646.976 192.886 646.816 192.267 646.816H189.003L189.435 640.8H195.675V642.528H191.131L190.939 645.024H192.347ZM205.674 648.272V649.984H204.394V652H202.538V649.984H197.034V648.272L200.89 640.8H202.89L199.034 648.272H202.538V645.36H204.394V648.272H205.674ZM213.955 644.416C213.955 645.269 213.731 646.021 213.283 646.672L209.747 652H207.635L210.195 648.24H210.003C208.84 648.24 207.885 647.888 207.139 647.184C206.403 646.469 206.035 645.547 206.035 644.416C206.035 643.285 206.403 642.368 207.139 641.664C207.885 640.949 208.84 640.592 210.003 640.592C211.165 640.592 212.115 640.949 212.851 641.664C213.587 642.368 213.955 643.285 213.955 644.416ZM207.875 644.416C207.875 645.035 208.072 645.536 208.467 645.92C208.872 646.304 209.384 646.496 210.003 646.496C210.621 646.496 211.128 646.309 211.523 645.936C211.917 645.552 212.115 645.045 212.115 644.416C212.115 643.787 211.917 643.285 211.523 642.912C211.128 642.528 210.621 642.336 210.003 642.336C209.384 642.336 208.872 642.528 208.467 642.912C208.072 643.285 207.875 643.787 207.875 644.416Z" fill="white"/>
<rect width="176.667" height="80" transform="translate(234.666 599)" fill="#E7B00C"/>
<path d="M332.468 645.6H330.676L330.42 647.2H332.212L332.004 648.56H330.196L329.748 651.2H328.324L328.772 648.56H326.98L326.532 651.2H325.108L325.556 648.56H323.732L323.956 647.2H325.78L326.036 645.6H324.212L324.436 644.24H326.276L326.708 641.6H328.132L327.7 644.24H329.492L329.924 641.6H331.348L330.916 644.24H332.692L332.468 645.6ZM328.996 647.2L329.252 645.6H327.46L327.204 647.2H328.996ZM336.058 650.24H341.018V652H334.218V640.8H340.938V642.56H336.058V645.472H340.538V647.216H336.058V650.24ZM341.822 640.8H348.942V642.4L345.006 652H343.07L346.942 642.56H341.822V640.8ZM357.138 646.192C357.628 646.448 358.012 646.8 358.29 647.248C358.567 647.696 358.706 648.213 358.706 648.8C358.706 649.717 358.38 650.48 357.73 651.088C357.079 651.696 356.284 652 355.346 652H350.546V640.8H354.994C355.911 640.8 356.684 641.099 357.314 641.696C357.954 642.283 358.274 643.019 358.274 643.904C358.274 644.875 357.895 645.637 357.138 646.192ZM354.994 642.528H352.386V645.472H354.994C355.399 645.472 355.74 645.333 356.018 645.056C356.295 644.768 356.434 644.416 356.434 644C356.434 643.584 356.295 643.237 356.018 642.96C355.74 642.672 355.399 642.528 354.994 642.528ZM355.346 650.272C355.772 650.272 356.13 650.123 356.418 649.824C356.716 649.515 356.866 649.141 356.866 648.704C356.866 648.267 356.716 647.899 356.418 647.6C356.13 647.291 355.772 647.136 355.346 647.136H352.386V650.272H355.346ZM367.385 650.624C366.617 651.68 365.54 652.208 364.153 652.208C362.767 652.208 361.684 651.68 360.905 650.624C360.137 649.568 359.753 648.16 359.753 646.4C359.753 644.64 360.137 643.232 360.905 642.176C361.684 641.12 362.767 640.592 364.153 640.592C365.54 640.592 366.617 641.12 367.385 642.176C368.164 643.232 368.553 644.64 368.553 646.4C368.553 648.16 368.164 649.568 367.385 650.624ZM364.153 650.416C364.985 650.416 365.62 650.069 366.057 649.376C366.495 648.683 366.713 647.691 366.713 646.4C366.713 645.109 366.495 644.117 366.057 643.424C365.62 642.731 364.985 642.384 364.153 642.384C363.332 642.384 362.697 642.731 362.249 643.424C361.812 644.117 361.593 645.109 361.593 646.4C361.593 647.691 361.812 648.683 362.249 649.376C362.697 650.069 363.332 650.416 364.153 650.416ZM377.463 650.624C376.695 651.68 375.618 652.208 374.231 652.208C372.845 652.208 371.762 651.68 370.983 650.624C370.215 649.568 369.831 648.16 369.831 646.4C369.831 644.64 370.215 643.232 370.983 642.176C371.762 641.12 372.845 640.592 374.231 640.592C375.618 640.592 376.695 641.12 377.463 642.176C378.242 643.232 378.631 644.64 378.631 646.4C378.631 648.16 378.242 649.568 377.463 650.624ZM374.231 650.416C375.063 650.416 375.698 650.069 376.135 649.376C376.573 648.683 376.791 647.691 376.791 646.4C376.791 645.109 376.573 644.117 376.135 643.424C375.698 642.731 375.063 642.384 374.231 642.384C373.41 642.384 372.775 642.731 372.327 643.424C371.89 644.117 371.671 645.109 371.671 646.4C371.671 647.691 371.89 648.683 372.327 649.376C372.775 650.069 373.41 650.416 374.231 650.416ZM385.686 652.208C384 652.208 382.603 651.653 381.494 650.544C380.384 649.424 379.83 648.043 379.83 646.4C379.83 644.757 380.384 643.381 381.494 642.272C382.603 641.152 384 640.592 385.686 640.592C386.699 640.592 387.632 640.832 388.486 641.312C389.35 641.792 390.022 642.443 390.502 643.264L388.902 644.192C388.603 643.637 388.166 643.2 387.59 642.88C387.024 642.549 386.39 642.384 385.686 642.384C384.491 642.384 383.52 642.763 382.774 643.52C382.038 644.277 381.67 645.237 381.67 646.4C381.67 647.563 382.038 648.523 382.774 649.28C383.52 650.037 384.491 650.416 385.686 650.416C386.39 650.416 387.03 650.256 387.606 649.936C388.182 649.605 388.614 649.163 388.902 648.608L390.502 649.52C390.032 650.341 389.366 650.997 388.502 651.488C387.648 651.968 386.71 652.208 385.686 652.208Z" fill="white"/>
<rect width="176.667" height="80" transform="translate(411.334 599)" fill="#65B2E8"/>
<path d="M514.136 645.6H512.344L512.088 647.2H513.88L513.672 648.56H511.864L511.416 651.2H509.992L510.44 648.56H508.648L508.2 651.2H506.776L507.224 648.56H505.4L505.624 647.2H507.448L507.704 645.6H505.88L506.104 644.24H507.944L508.376 641.6H509.8L509.368 644.24H511.16L511.592 641.6H513.016L512.584 644.24H514.36L514.136 645.6ZM510.664 647.2L510.92 645.6H509.128L508.872 647.2H510.664ZM519.134 644.56C520.296 644.56 521.246 644.917 521.982 645.632C522.718 646.336 523.086 647.253 523.086 648.384C523.086 649.515 522.718 650.437 521.982 651.152C521.246 651.856 520.296 652.208 519.134 652.208C517.96 652.208 517.006 651.856 516.27 651.152C515.534 650.437 515.166 649.515 515.166 648.384C515.166 647.531 515.39 646.779 515.838 646.128L519.39 640.8H521.486L518.926 644.56H519.134ZM519.134 650.464C519.752 650.464 520.259 650.277 520.654 649.904C521.048 649.52 521.246 649.013 521.246 648.384C521.246 647.755 521.048 647.253 520.654 646.88C520.259 646.496 519.752 646.304 519.134 646.304C518.504 646.304 517.992 646.496 517.598 646.88C517.203 647.253 517.006 647.755 517.006 648.384C517.006 649.013 517.203 649.52 517.598 649.904C517.992 650.277 518.504 650.464 519.134 650.464ZM527.572 645.024C528.639 645.024 529.54 645.344 530.276 645.984C531.012 646.613 531.38 647.488 531.38 648.608C531.38 649.728 531.001 650.608 530.244 651.248C529.487 651.888 528.559 652.208 527.46 652.208C526.575 652.208 525.791 652.005 525.108 651.6C524.425 651.184 523.94 650.587 523.652 649.808L525.236 648.896C525.535 649.909 526.276 650.416 527.46 650.416C528.089 650.416 528.591 650.256 528.964 649.936C529.348 649.605 529.54 649.163 529.54 648.608C529.54 648.053 529.353 647.616 528.98 647.296C528.607 646.976 528.111 646.816 527.492 646.816H524.228L524.66 640.8H530.9V642.528H526.356L526.164 645.024H527.572ZM539.603 646.192C540.093 646.448 540.477 646.8 540.755 647.248C541.032 647.696 541.171 648.213 541.171 648.8C541.171 649.717 540.845 650.48 540.195 651.088C539.544 651.696 538.749 652 537.811 652H533.011V640.8H537.459C538.376 640.8 539.149 641.099 539.779 641.696C540.419 642.283 540.739 643.019 540.739 643.904C540.739 644.875 540.36 645.637 539.603 646.192ZM537.459 642.528H534.851V645.472H537.459C537.864 645.472 538.205 645.333 538.483 645.056C538.76 644.768 538.899 644.416 538.899 644C538.899 643.584 538.76 643.237 538.483 642.96C538.205 642.672 537.864 642.528 537.459 642.528ZM537.811 650.272C538.237 650.272 538.595 650.123 538.883 649.824C539.181 649.515 539.331 649.141 539.331 648.704C539.331 648.267 539.181 647.899 538.883 647.6C538.595 647.291 538.237 647.136 537.811 647.136H534.851V650.272H537.811ZM541.746 652V650.56L545.65 646.576C546.599 645.627 547.074 644.805 547.074 644.112C547.074 643.568 546.909 643.147 546.578 642.848C546.258 642.539 545.847 642.384 545.346 642.384C544.407 642.384 543.714 642.848 543.266 643.776L541.714 642.864C542.066 642.117 542.562 641.552 543.202 641.168C543.842 640.784 544.551 640.592 545.33 640.592C546.311 640.592 547.154 640.901 547.858 641.52C548.562 642.139 548.914 642.981 548.914 644.048C548.914 645.189 548.279 646.405 547.01 647.696L544.482 650.224H549.122V652H541.746ZM552.679 650.24H557.639V652H550.839V640.8H557.559V642.56H552.679V645.472H557.159V647.216H552.679V650.24ZM564.971 646.176C566.07 646.784 566.619 647.691 566.619 648.896C566.619 649.92 566.262 650.731 565.547 651.328C564.832 651.915 563.883 652.208 562.699 652.208C561.515 652.208 560.56 651.915 559.835 651.328C559.12 650.731 558.763 649.92 558.763 648.896C558.763 648.32 558.907 647.797 559.195 647.328C559.483 646.848 559.888 646.464 560.411 646.176C559.568 645.621 559.147 644.832 559.147 643.808C559.147 642.784 559.488 641.995 560.171 641.44C560.854 640.875 561.696 640.592 562.699 640.592C563.691 640.592 564.528 640.875 565.211 641.44C565.904 641.995 566.251 642.784 566.251 643.808C566.251 644.832 565.824 645.621 564.971 646.176ZM562.699 642.336C562.198 642.336 561.787 642.469 561.467 642.736C561.147 643.003 560.987 643.387 560.987 643.888C560.987 644.368 561.147 644.747 561.467 645.024C561.798 645.301 562.208 645.44 562.699 645.44C563.179 645.44 563.584 645.301 563.915 645.024C564.246 644.747 564.411 644.368 564.411 643.888C564.411 643.387 564.246 643.003 563.915 642.736C563.595 642.469 563.19 642.336 562.699 642.336ZM562.699 650.464C563.318 650.464 563.819 650.315 564.203 650.016C564.587 649.707 564.779 649.275 564.779 648.72C564.779 648.165 564.587 647.739 564.203 647.44C563.819 647.131 563.318 646.976 562.699 646.976C562.07 646.976 561.563 647.131 561.179 647.44C560.795 647.739 560.603 648.165 560.603 648.72C560.603 649.275 560.795 649.707 561.179 650.016C561.563 650.315 562.07 650.464 562.699 650.464Z" fill="white"/>
</svg>
