<svg width="645" height="768" viewBox="0 0 645 768" fill="none" xmlns="http://www.w3.org/2000/svg">
<rect width="645" height="768" fill="#F6F6F6"/>
<path opacity="0.4" d="M62.672 57.2V60.368H58.136V74H54.824V60.368H50.312V57.2H62.672ZM70.49 62H73.802L69.434 74C68.81 75.728 67.978 76.976 66.938 77.744C65.914 78.528 64.634 78.88 63.098 78.8V75.92C63.93 75.936 64.586 75.76 65.066 75.392C65.562 75.024 65.954 74.432 66.242 73.616L61.322 62H64.706L67.826 70.064L70.49 62ZM82.2594 61.664C83.8754 61.664 85.2514 62.28 86.3874 63.512C87.5394 64.728 88.1154 66.224 88.1154 68C88.1154 69.776 87.5394 71.28 86.3874 72.512C85.2514 73.728 83.8754 74.336 82.2594 74.336C80.5794 74.336 79.2834 73.752 78.3714 72.584V78.8H75.2754V62H78.3714V63.416C79.2834 62.248 80.5794 61.664 82.2594 61.664ZM79.3074 70.448C79.9314 71.072 80.7234 71.384 81.6834 71.384C82.6434 71.384 83.4354 71.072 84.0594 70.448C84.6994 69.808 85.0194 68.992 85.0194 68C85.0194 67.008 84.6994 66.2 84.0594 65.576C83.4354 64.936 82.6434 64.616 81.6834 64.616C80.7234 64.616 79.9314 64.936 79.3074 65.576C78.6834 66.2 78.3714 67.008 78.3714 68C78.3714 68.992 78.6834 69.808 79.3074 70.448ZM92.9148 69.272C93.3308 70.776 94.4588 71.528 96.2988 71.528C97.4828 71.528 98.3788 71.128 98.9868 70.328L101.483 71.768C100.299 73.48 98.5548 74.336 96.2508 74.336C94.2668 74.336 92.6748 73.736 91.4748 72.536C90.2748 71.336 89.6748 69.824 89.6748 68C89.6748 66.192 90.2668 64.688 91.4508 63.488C92.6348 62.272 94.1548 61.664 96.0108 61.664C97.7708 61.664 99.2188 62.272 100.355 63.488C101.507 64.704 102.083 66.208 102.083 68C102.083 68.4 102.043 68.824 101.963 69.272H92.9148ZM92.8668 66.872H98.9868C98.8108 66.056 98.4428 65.448 97.8828 65.048C97.3388 64.648 96.7148 64.448 96.0108 64.448C95.1788 64.448 94.4908 64.664 93.9468 65.096C93.4028 65.512 93.0428 66.104 92.8668 66.872ZM110.349 59.84C108.653 59.712 107.805 60.392 107.805 61.88V62H110.349V64.976H107.805V74H104.709V64.976H102.981V62H104.709V61.88C104.709 60.184 105.181 58.896 106.125 58.016C107.069 57.136 108.477 56.752 110.349 56.864V59.84ZM120.442 62H123.538V74H120.442V72.584C119.514 73.752 118.21 74.336 116.53 74.336C114.93 74.336 113.554 73.728 112.402 72.512C111.266 71.28 110.698 69.776 110.698 68C110.698 66.224 111.266 64.728 112.402 63.512C113.554 62.28 114.93 61.664 116.53 61.664C118.21 61.664 119.514 62.248 120.442 63.416V62ZM114.73 70.448C115.354 71.072 116.146 71.384 117.106 71.384C118.066 71.384 118.858 71.072 119.482 70.448C120.122 69.808 120.442 68.992 120.442 68C120.442 67.008 120.122 66.2 119.482 65.576C118.858 64.936 118.066 64.616 117.106 64.616C116.146 64.616 115.354 64.936 114.73 65.576C114.106 66.2 113.794 67.008 113.794 68C113.794 68.992 114.106 69.808 114.73 70.448ZM132.058 74.336C130.25 74.336 128.738 73.728 127.522 72.512C126.322 71.296 125.722 69.792 125.722 68C125.722 66.208 126.322 64.704 127.522 63.488C128.738 62.272 130.25 61.664 132.058 61.664C133.226 61.664 134.29 61.944 135.25 62.504C136.21 63.064 136.938 63.816 137.434 64.76L134.77 66.32C134.53 65.824 134.162 65.432 133.666 65.144C133.186 64.856 132.642 64.712 132.034 64.712C131.106 64.712 130.338 65.024 129.73 65.648C129.122 66.256 128.818 67.04 128.818 68C128.818 68.944 129.122 69.728 129.73 70.352C130.338 70.96 131.106 71.264 132.034 71.264C132.658 71.264 133.21 71.128 133.69 70.856C134.186 70.568 134.554 70.176 134.794 69.68L137.482 71.216C136.954 72.16 136.21 72.92 135.25 73.496C134.29 74.056 133.226 74.336 132.058 74.336ZM141.548 69.272C141.964 70.776 143.092 71.528 144.932 71.528C146.116 71.528 147.012 71.128 147.62 70.328L150.116 71.768C148.932 73.48 147.188 74.336 144.884 74.336C142.9 74.336 141.308 73.736 140.108 72.536C138.908 71.336 138.308 69.824 138.308 68C138.308 66.192 138.9 64.688 140.084 63.488C141.268 62.272 142.788 61.664 144.644 61.664C146.404 61.664 147.852 62.272 148.988 63.488C150.14 64.704 150.716 66.208 150.716 68C150.716 68.4 150.676 68.824 150.596 69.272H141.548ZM141.5 66.872H147.62C147.444 66.056 147.076 65.448 146.516 65.048C145.972 64.648 145.348 64.448 144.644 64.448C143.812 64.448 143.124 64.664 142.58 65.096C142.036 65.512 141.676 66.104 141.5 66.872Z" fill="#011627"/>
<path d="M63.552 169.368V167.016H51.576V169.368H56.232V183H58.896V169.368H63.552ZM72.3384 179.328V179.28H70.2024V179.52C70.2024 180.504 69.4104 181.32 67.9464 181.32C66.3384 181.32 65.4024 180.384 65.4024 179.064V177.528H72.3384V176.136C72.3384 173.4 70.7064 171.528 67.7544 171.528C64.8024 171.528 63.0504 173.424 63.0504 176.112V178.68C63.0504 181.44 64.9224 183.192 67.8024 183.192C70.3224 183.192 72.3384 181.752 72.3384 179.328ZM70.1304 176.28H65.4024V175.56C65.4024 174.312 66.2904 173.4 67.7784 173.4C69.2424 173.4 70.1304 174.36 70.1304 175.56V176.28ZM83.7313 183L79.8673 177.336L83.7313 171.768H81.2113L78.6673 175.752L76.1233 171.768H73.5553L77.4433 177.432L73.5553 183H76.0753L78.6433 178.992L81.1873 183H83.7313ZM90.8417 173.712V171.864H88.7297V169.032L86.3777 169.824V171.864H84.5537V173.712H86.2817V179.376C86.2817 181.032 86.4977 182.112 87.0737 183H89.7377C89.0177 181.992 88.7297 180.816 88.7297 179.376V173.712H90.8417Z" fill="#FF6B00"/>
<path d="M125.848 183V167.016H123.184V173.784H116.344V167.016H113.704V183H116.344V176.064H123.184V183H125.848ZM140.091 169.368V167.016H128.115V169.368H132.771V183H135.435V169.368H140.091ZM152.352 169.344V167.016H142.368V183H145.008V176.208H150.576V173.952H145.008V169.344H152.352ZM164.561 178.992V178.032C164.561 176.376 163.601 175.2 161.753 174.768C163.625 174.432 164.561 173.04 164.561 171.408V171C164.561 168.504 162.689 166.56 159.305 166.56C156.281 166.56 154.193 168.504 154.193 171.024V171.792H156.665V171.456C156.665 169.656 157.697 168.72 159.401 168.72C161.177 168.72 162.089 169.704 162.089 171.216V171.72C162.089 172.92 161.297 173.88 159.305 173.88H157.961V175.872H159.305C161.393 175.872 162.089 176.856 162.089 178.032V178.8C162.089 180.264 161.249 181.296 159.401 181.296C157.577 181.296 156.665 180.36 156.665 178.56V177.984H154.193V178.992C154.193 181.512 156.281 183.456 159.305 183.456C162.689 183.456 164.561 181.44 164.561 178.992ZM170.258 183V167.016H168.938C168.938 167.664 168.602 168.24 167.69 168.24V183H170.258Z" fill="#FF6B00"/>
<path d="M216.968 178.656C216.968 176.472 215.816 175.272 213.008 173.928C210.272 172.608 209.6 172.032 209.6 170.76C209.6 169.632 210.32 168.768 211.784 168.768C213.632 168.768 214.376 170.016 214.376 171.48V171.744H216.824V171.12C216.824 168.528 214.88 166.632 211.856 166.632C208.808 166.632 207.056 168.6 207.056 171C207.056 173.544 209.216 174.816 211.352 175.8C213.752 176.904 214.4 177.6 214.4 178.944C214.4 180.288 213.56 181.248 211.952 181.248C210.248 181.248 209.36 180.336 209.36 178.416V178.152H206.84V178.92C206.84 181.488 208.856 183.408 211.88 183.408C214.928 183.408 216.968 181.344 216.968 178.656ZM227.485 183V171.768H225.181V178.536C225.181 179.376 224.413 181.464 223.021 181.464C222.061 181.464 221.437 180.792 221.437 179.664V171.768H219.133V179.688C219.133 181.776 220.189 183.192 222.325 183.192C223.693 183.192 224.797 182.472 225.445 180.768L225.613 183H227.485ZM238.405 179.448V175.248C238.405 173.136 237.421 171.552 235.453 171.552C234.037 171.552 232.981 172.32 232.405 173.352V167.016H230.125V183H231.517L231.925 181.272C232.477 182.712 233.797 183.192 234.997 183.192C237.037 183.192 238.405 181.752 238.405 179.448ZM236.173 179.16C236.173 180.792 235.501 181.488 234.325 181.488C233.341 181.488 232.405 180.768 232.405 179.304V175.608C232.405 174.24 233.173 173.424 234.373 173.424C235.549 173.424 236.173 174.12 236.173 175.752V179.16ZM245.66 173.76V171.912H243.836V169.104L241.652 169.8V171.912H240.02V173.76H241.532V179.304C241.532 181.008 241.676 182.04 242.18 183H244.604C244.004 181.944 243.836 180.792 243.836 179.304V173.76H245.66ZM249.771 169.824V167.544H247.611V169.824H249.771ZM249.843 183V171.768H247.539V183H249.843ZM257.308 173.76V171.912H255.484V169.104L253.3 169.8V171.912H251.668V173.76H253.18V179.304C253.18 181.008 253.324 182.04 253.828 183H256.252C255.652 181.944 255.484 180.792 255.484 179.304V173.76H257.308ZM261.491 183V167.016H259.187V183H261.491ZM271.837 179.136V178.992H269.821V179.448C269.821 180.6 269.173 181.368 267.973 181.368C266.773 181.368 266.125 180.6 266.125 179.448V177.432H271.837V175.704C271.837 173.16 270.517 171.552 267.973 171.552C265.429 171.552 263.917 173.16 263.917 175.704V179.064C263.917 181.632 265.429 183.192 267.973 183.192C270.517 183.192 271.837 181.68 271.837 179.136ZM269.821 176.256H266.125V175.296C266.125 174.168 266.773 173.376 267.973 173.376C269.173 173.376 269.821 174.168 269.821 175.296V176.256Z" fill="#FF6B00"/>
<path d="M305.024 183V167.016H302.48V173.784H297.032V167.016H294.488V183H297.032V176.04H302.48V183H305.024ZM317.155 169.32V167.016H306.835V169.32H310.723V183H313.267V169.32H317.155ZM327.549 169.272V166.992H318.957V183H321.501V176.112H326.133V173.904H321.501V169.272H327.549ZM338.074 179.112V177.696C338.074 176.04 337.186 175.056 335.842 174.72C337.258 174.48 338.074 173.184 338.074 171.6V170.904C338.074 168.312 336.418 166.608 333.394 166.608C330.346 166.608 328.906 168.552 328.906 170.856V172.008H331.066V171.24C331.066 169.512 331.762 168.624 333.394 168.624C335.002 168.624 335.77 169.488 335.77 171.096V172.08C335.77 173.016 335.362 173.904 333.61 173.904H332.242V175.776H333.61C335.362 175.776 335.77 176.688 335.77 177.6V178.92C335.77 180.504 335.002 181.392 333.394 181.392C331.762 181.392 331.066 180.504 331.066 178.776V178.008H328.906V179.16C328.906 181.44 330.346 183.408 333.394 183.408C336.418 183.408 338.074 181.704 338.074 179.112ZM349.954 178.776V171.24C349.954 168.48 348.082 166.608 345.058 166.608C342.01 166.608 340.138 168.48 340.138 171.24V178.776C340.138 181.536 342.01 183.408 345.058 183.408C348.082 183.408 349.954 181.536 349.954 178.776ZM347.578 178.944C347.578 180.216 346.666 181.248 345.058 181.248C343.45 181.248 342.514 180.216 342.514 178.944V171.072C342.514 169.8 343.45 168.768 345.058 168.768C346.666 168.768 347.578 169.8 347.578 171.072V178.944Z" fill="#FF6B00"/>
<path d="M70.632 220V204.016H63.144V210.088H59.448V204.016H51.96V220H59.448V214.432H63.144V220H70.632ZM85.4295 217.48L83.0535 215.488C82.1175 216.136 81.0855 216.496 79.8615 216.496C78.6375 216.496 77.9415 216.112 77.9415 215.104V214.552H85.8615V213.064C85.8615 209.92 83.6535 207.304 79.0215 207.304C74.3895 207.304 71.9175 209.944 71.9175 213.352V214.192C71.9175 217.672 74.4375 220.216 79.0935 220.216C82.2855 220.216 84.2055 219.16 85.4295 217.48ZM80.1015 212.872H77.9415V212.536C77.9415 211.744 78.2055 210.952 79.0215 210.952C79.8375 210.952 80.1015 211.744 80.1015 212.536V212.872ZM101.252 220.072V216.952C100.628 216.952 100.46 216.688 100.46 216.208V212.416C100.46 209.632 98.4443 207.304 94.0043 207.304C91.0283 207.304 89.2283 207.928 87.1643 209.392L88.9163 212.032C90.1403 211.384 91.2683 211.048 92.4922 211.048C93.8843 211.048 94.5563 211.504 94.5563 212.512V213.016C90.0683 212.32 86.3963 213.616 86.3963 216.568V216.664C86.3963 218.848 88.3403 220.216 91.0763 220.216C93.1403 220.216 94.4363 219.448 95.5403 218.032C96.3803 219.592 97.3403 220.072 99.7643 220.072H101.252ZM94.5563 215.728C94.5563 216.592 94.1243 217.216 93.1163 217.216C92.4203 217.216 92.0603 216.856 92.0603 216.232V216.016C92.0603 215.152 92.9723 214.624 94.5563 215.104V215.728ZM116.03 220V203.56H110.078V208.408C109.238 207.64 108.446 207.304 107.03 207.304C104.102 207.304 101.918 209.776 101.918 212.944V214.336C101.918 217.624 103.814 220.216 107.605 220.216C109.238 220.216 110.438 219.52 111.254 218.488L111.422 220H116.03ZM110.126 214.648C110.126 216.04 109.718 216.736 108.998 216.736C108.278 216.736 107.87 216.04 107.87 214.648V212.992C107.87 211.576 108.278 210.856 108.998 210.856C109.718 210.856 110.126 211.576 110.126 212.992V214.648ZM123.44 220V203.56H117.488V220H123.44ZM131.01 206.752V203.32H125.058V206.752H131.01ZM131.01 220V207.52H125.058V220H131.01ZM146.789 220V211.432C146.789 209.176 145.565 207.304 142.709 207.304C140.861 207.304 139.445 208.288 138.293 209.944L138.101 207.52H132.629V220H138.581V212.632C138.581 211.72 139.013 211.048 139.829 211.048C140.573 211.048 140.837 211.552 140.837 212.416V220H146.789ZM161.437 217.48L159.061 215.488C158.125 216.136 157.093 216.496 155.869 216.496C154.645 216.496 153.949 216.112 153.949 215.104V214.552H161.869V213.064C161.869 209.92 159.661 207.304 155.029 207.304C150.397 207.304 147.925 209.944 147.925 213.352V214.192C147.925 217.672 150.445 220.216 155.101 220.216C158.293 220.216 160.213 219.16 161.437 217.48ZM156.109 212.872H153.949V212.536C153.949 211.744 154.213 210.952 155.029 210.952C155.845 210.952 156.109 211.744 156.109 212.536V212.872Z" fill="#FF6B00"/>
<path d="M202.632 220V204.016H195.144V210.088H191.448V204.016H183.96V220H191.448V214.432H195.144V220H202.632ZM221.842 209.176V204.016H203.962V209.176H209.17V220H216.634V209.176H221.842ZM239.635 208.792V204.016H223.171V220H230.659V213.976H235.363V210.976H230.659V208.792H239.635ZM257.021 212.584V210.928C257.021 206.416 253.661 203.464 248.333 203.464C243.317 203.464 240.221 206.272 240.221 209.344V209.656C240.221 212.296 242.381 214.192 246.077 214.192C248.141 214.192 249.365 213.472 250.517 212.44V213.136C250.517 214.576 249.389 216.136 246.845 216.136C245.213 216.136 243.557 215.632 242.285 214.864L240.101 218.44C242.285 219.784 244.373 220.552 247.637 220.552C252.701 220.552 257.021 217.312 257.021 212.584ZM250.517 210.352C249.941 210.976 249.221 211.432 248.165 211.432C246.893 211.432 246.269 210.784 246.269 209.968V209.536C246.269 208.768 247.013 207.976 248.429 207.976C249.653 207.976 250.517 208.792 250.517 209.848V210.352ZM273.191 215.872V215.608C273.191 214.048 272.255 212.344 268.343 211.888C271.943 211.576 272.999 209.752 272.999 208.192V208.048C272.999 205.744 270.407 203.464 265.415 203.464C261.791 203.464 259.775 204.424 257.591 205.984L259.895 209.56C261.407 208.504 262.871 207.856 264.551 207.856C265.943 207.856 266.519 208.408 266.519 209.08V209.272C266.519 210.016 265.871 210.472 264.671 210.472H263.063V213.52H264.623C265.847 213.52 266.519 213.928 266.519 214.672V214.96C266.519 215.656 265.943 216.16 264.527 216.16C262.919 216.16 261.119 215.44 259.439 214.408L257.087 218.032C259.295 219.52 262.007 220.552 265.103 220.552C270.239 220.552 273.191 218.296 273.191 215.872Z" fill="#FF6B00"/>
<path d="M312.696 220V204.016H308.016V210.448H300.528V204.016H295.872V220H300.528V213.76H308.016V220H312.696ZM331.954 207.592V204.016H315.49V207.592H321.394V220H326.074V207.592H331.954ZM348.987 207.448V204.016H334.755V220H339.411V213.76H345.627V210.88H339.411V207.448H348.987ZM365.766 215.032V214.504C365.766 211.744 363.798 209.584 360.126 209.584C358.014 209.584 356.598 210.232 355.302 211.336L355.614 207.256H362.502C364.494 207.256 365.262 206.368 365.454 204.016H352.278L351.606 213.016L355.014 213.64C355.974 212.8 357.078 212.296 358.566 212.296C360.558 212.296 361.542 213.328 361.542 214.552V214.912C361.542 216.328 360.534 217.312 358.134 217.312C356.238 217.312 354.486 216.64 352.686 215.608L350.91 218.152C352.95 219.544 355.35 220.528 358.446 220.528C362.91 220.528 365.766 218.104 365.766 215.032ZM382.25 215.8V215.56C382.25 213.904 381.146 212.344 378.002 211.888C380.93 211.504 382.154 209.896 382.154 208.264V208.096C382.154 205.792 379.682 203.488 375.194 203.488C372.194 203.488 370.298 204.424 368.21 205.984L370.058 208.504C371.498 207.4 372.938 206.68 374.69 206.68C376.922 206.68 377.978 207.568 377.978 208.672V208.84C377.978 209.992 377.186 210.736 374.834 210.736H373.058V213.208H374.834C376.994 213.208 377.978 213.976 377.978 215.056V215.248C377.978 216.304 377.042 217.336 374.642 217.336C372.746 217.336 371.138 216.568 369.506 215.536L367.682 218.08C369.938 219.592 372.026 220.528 375.026 220.528C379.538 220.528 382.25 218.176 382.25 215.8Z" fill="#FF6B00"/>
<path d="M418.616 220V204.016H413.6V210.376H410.12V204.016H405.104V220H410.12V214.216H413.6V220H418.616ZM432.879 207.952V204.016H420.159V207.952H423.999V220H429.015V207.952H432.879ZM445.56 207.688V204.016H434.424V220H439.44V213.808H443.16V210.472H439.44V207.688H445.56ZM458.291 205.912V204.016H446.699V207.856H453.683C450.923 210.76 448.715 215.608 448.259 220H453.275C453.659 214.696 455.267 210.4 458.291 205.912ZM464.945 220V204.016H462.473C462.473 205.048 461.873 206.008 460.433 206.008V220H464.945Z" fill="#FF6B00"/>
<path d="M93.3 138L82.4 119.05L93.15 104.7H76.8L68.6 117.65V104.7H53V138H68.6V131.35L71.7 127.7L76.8 138H93.3ZM136.933 138V104.7H122.983V117.85L121.733 116.25L111.133 104.7H98.3828V138H112.333V124.6L113.783 126.6L123.683 138H136.933ZM182.812 123.05V119.6C182.812 110.6 175.412 103.55 162.912 103.55C150.362 103.55 142.912 110.6 142.912 119.6V123.05C142.912 132 150.362 139.15 162.912 139.15C175.412 139.15 182.812 132 182.812 123.05ZM166.962 123.7C166.962 126.7 166.062 129.05 162.912 129.05C159.762 129.05 158.812 126.7 158.812 123.7V118.95C158.812 115.9 159.762 113.55 162.912 113.55C166.062 113.55 166.962 115.9 166.962 118.95V123.7ZM225.807 132.35L218.757 125.45C217.007 127.15 213.907 128.65 210.607 128.65C206.457 128.65 203.707 126.3 203.707 122.7V119.9C203.707 116.3 206.457 113.95 210.607 113.95C213.757 113.95 216.707 115.35 218.757 117.15L226.057 110.3C223.057 106.4 216.507 103.55 208.757 103.55C196.057 103.55 187.807 110.2 187.807 119.7V123C187.807 132.5 196.057 139.15 208.757 139.15C216.507 139.15 222.557 136.4 225.807 132.35ZM271.609 138L260.709 119.05L271.459 104.7H255.109L246.909 117.65V104.7H231.309V138H246.909V131.35L250.009 127.7L255.109 138H271.609ZM313.004 123.05V119.6C313.004 110.6 305.604 103.55 293.104 103.55C280.554 103.55 273.104 110.6 273.104 119.6V123.05C273.104 132 280.554 139.15 293.104 139.15C305.604 139.15 313.004 132 313.004 123.05ZM297.154 123.7C297.154 126.7 296.254 129.05 293.104 129.05C289.954 129.05 289.004 126.7 289.004 123.7V118.95C289.004 115.9 289.954 113.55 293.104 113.55C296.254 113.55 297.154 115.9 297.154 118.95V123.7ZM357.298 124.95V104.7H343.248V124.05C343.248 127.45 342.248 128.95 338.848 128.95C335.498 128.95 334.398 127.45 334.398 124.05V104.7H318.798V124.95C318.798 133 324.498 139.15 338.198 139.15C351.948 139.15 357.298 133 357.298 124.95ZM400.088 115.45V104.7H362.838V115.45H373.688V138H389.238V115.45H400.088Z" fill="#FF6B00"/>
<path opacity="0.4" d="M62.712 271.288C64.184 272.136 64.92 273.416 64.92 275.128C64.92 276.552 64.416 277.72 63.408 278.632C62.4 279.544 61.16 280 59.688 280H52.56V263.2H59.184C60.624 263.2 61.832 263.648 62.808 264.544C63.8 265.424 64.296 266.552 64.296 267.928C64.296 269.32 63.768 270.44 62.712 271.288ZM59.184 266.296H55.872V269.992H59.184C59.696 269.992 60.12 269.816 60.456 269.464C60.808 269.112 60.984 268.672 60.984 268.144C60.984 267.616 60.816 267.176 60.48 266.824C60.144 266.472 59.712 266.296 59.184 266.296ZM59.688 276.904C60.248 276.904 60.712 276.72 61.08 276.352C61.448 275.968 61.632 275.488 61.632 274.912C61.632 274.352 61.448 273.888 61.08 273.52C60.712 273.136 60.248 272.944 59.688 272.944H55.872V276.904H59.688ZM75.1251 268H78.2211V280H75.1251V278.656C74.3731 279.776 73.1811 280.336 71.5491 280.336C70.2371 280.336 69.1491 279.896 68.2851 279.016C67.4371 278.136 67.0131 276.92 67.0131 275.368V268H70.1091V274.984C70.1091 275.784 70.3251 276.4 70.7571 276.832C71.1891 277.248 71.7651 277.456 72.4851 277.456C73.2851 277.456 73.9251 277.208 74.4051 276.712C74.8851 276.216 75.1251 275.472 75.1251 274.48V268ZM87.9206 270.976H85.2086V275.968C85.2086 276.384 85.3126 276.688 85.5206 276.88C85.7286 277.072 86.0326 277.184 86.4326 277.216C86.8326 277.232 87.3286 277.224 87.9206 277.192V280C85.7926 280.24 84.2886 280.04 83.4086 279.4C82.5446 278.76 82.1126 277.616 82.1126 275.968V270.976H80.0246V268H82.1126V265.576L85.2086 264.64V268H87.9206V270.976ZM96.4988 270.976H93.7868V275.968C93.7868 276.384 93.8908 276.688 94.0988 276.88C94.3068 277.072 94.6108 277.184 95.0108 277.216C95.4108 277.232 95.9068 277.224 96.4988 277.192V280C94.3708 280.24 92.8668 280.04 91.9868 279.4C91.1228 278.76 90.6908 277.616 90.6908 275.968V270.976H88.6028V268H90.6908V265.576L93.7868 264.64V268H96.4988V270.976ZM108.531 278.512C107.299 279.728 105.795 280.336 104.019 280.336C102.243 280.336 100.739 279.728 99.5066 278.512C98.2906 277.28 97.6826 275.776 97.6826 274C97.6826 272.224 98.2906 270.728 99.5066 269.512C100.739 268.28 102.243 267.664 104.019 267.664C105.795 267.664 107.299 268.28 108.531 269.512C109.763 270.728 110.379 272.224 110.379 274C110.379 275.776 109.763 277.28 108.531 278.512ZM101.691 276.376C102.315 277 103.091 277.312 104.019 277.312C104.947 277.312 105.723 277 106.347 276.376C106.971 275.752 107.283 274.96 107.283 274C107.283 273.04 106.971 272.248 106.347 271.624C105.723 271 104.947 270.688 104.019 270.688C103.091 270.688 102.315 271 101.691 271.624C101.083 272.248 100.779 273.04 100.779 274C100.779 274.96 101.083 275.752 101.691 276.376ZM119.229 267.664C120.541 267.664 121.621 268.104 122.469 268.984C123.333 269.864 123.765 271.08 123.765 272.632V280H120.669V273.016C120.669 272.216 120.453 271.608 120.021 271.192C119.589 270.76 119.013 270.544 118.293 270.544C117.493 270.544 116.853 270.792 116.373 271.288C115.893 271.784 115.653 272.528 115.653 273.52V280H112.557V268H115.653V269.344C116.405 268.224 117.597 267.664 119.229 267.664ZM129.264 271.408C129.264 271.728 129.472 271.992 129.888 272.2C130.32 272.392 130.84 272.568 131.448 272.728C132.056 272.872 132.664 273.064 133.272 273.304C133.88 273.528 134.392 273.912 134.808 274.456C135.24 275 135.456 275.68 135.456 276.496C135.456 277.728 134.992 278.68 134.064 279.352C133.152 280.008 132.008 280.336 130.632 280.336C128.168 280.336 126.488 279.384 125.592 277.48L128.28 275.968C128.632 277.008 129.416 277.528 130.632 277.528C131.736 277.528 132.288 277.184 132.288 276.496C132.288 276.176 132.072 275.92 131.64 275.728C131.224 275.52 130.712 275.336 130.104 275.176C129.496 275.016 128.888 274.816 128.28 274.576C127.672 274.336 127.152 273.96 126.72 273.448C126.304 272.92 126.096 272.264 126.096 271.48C126.096 270.296 126.528 269.368 127.392 268.696C128.272 268.008 129.36 267.664 130.656 267.664C131.632 267.664 132.52 267.888 133.32 268.336C134.12 268.768 134.752 269.392 135.216 270.208L132.576 271.648C132.192 270.832 131.552 270.424 130.656 270.424C130.256 270.424 129.92 270.512 129.648 270.688C129.392 270.864 129.264 271.104 129.264 271.408Z" fill="#011627"/>
<rect x="51" y="299" width="205.224" height="50" rx="5" fill="#FF6B00"/>
<path d="M116.833 322.156V320.198C116.833 317.778 115.161 316.348 112.895 316.348H106.911V331H111.333V326.006H112.895C115.161 326.006 116.833 324.576 116.833 322.156ZM112.675 322.42C112.675 322.926 112.411 323.124 111.993 323.124H111.333V319.472H111.993C112.411 319.472 112.675 319.692 112.675 320.198V322.42ZM131.404 331V330.934C131.14 330.23 130.898 329.482 130.898 328.558V326.006C130.898 325.038 130.282 324.158 128.962 323.916C130.348 323.564 130.832 322.706 130.832 321.804V319.692C130.832 317.668 129.16 316.348 126.806 316.348H120.91V331H125.31V325.456H125.904C126.564 325.456 126.74 325.896 126.74 326.402V328.734C126.74 329.79 127.048 331 127.664 331H131.404ZM126.63 321.98C126.63 322.508 126.41 322.706 125.97 322.706H125.31V319.472H125.97C126.41 319.472 126.63 319.67 126.63 320.198V321.98ZM139.631 331V316.348H135.231V331H139.631ZM158.199 331V316.348H152.699L151.621 321.518L151.247 323.498L150.851 321.518L149.751 316.348H144.031V331H147.705V323.08L148.211 325.522L149.311 331H152.193L153.403 325.522L153.953 323.08V331H158.199ZM172.771 331L169.867 316.348H164.807L161.837 331H165.819L166.171 328.954H168.151L168.437 331H172.771ZM167.799 326.248H166.611L167.293 321.848L167.799 326.248ZM186.928 331V330.934C186.664 330.23 186.422 329.482 186.422 328.558V326.006C186.422 325.038 185.806 324.158 184.486 323.916C185.872 323.564 186.356 322.706 186.356 321.804V319.692C186.356 317.668 184.684 316.348 182.33 316.348H176.434V331H180.834V325.456H181.428C182.088 325.456 182.264 325.896 182.264 326.402V328.734C182.264 329.79 182.572 331 183.188 331H186.928ZM182.154 321.98C182.154 322.508 181.934 322.706 181.494 322.706H180.834V319.472H181.494C181.934 319.472 182.154 319.67 182.154 320.198V321.98ZM201.128 316.348H196.684L195.518 321.122L194.176 316.348H189.556L193.054 325.302V331H197.454V325.5L201.128 316.348Z" fill="white"/>
<path d="M319.58 326.842C319.58 322.464 313.97 322.068 313.97 320.132C313.97 319.516 314.3 319.208 314.762 319.208C315.51 319.208 315.664 319.868 315.62 321.012H319.536C319.668 318.57 318.656 315.996 314.85 315.996C311.374 315.996 309.878 318.042 309.878 320.506C309.878 324.664 315.488 325.258 315.488 327.238C315.488 327.854 315.224 328.162 314.564 328.162C313.882 328.162 313.464 327.678 313.53 326.16H309.592C309.416 329.702 310.934 331.374 314.74 331.374C318.172 331.374 319.58 329.152 319.58 326.842ZM332.509 331V327.436H328.065V325.082H330.903V321.98H328.065V319.736H332.509V316.348H323.643V331H332.509ZM346.776 326.798V325.324H342.662V326.908C342.662 327.48 342.53 327.964 341.804 327.964C341.1 327.964 340.968 327.48 340.968 326.908V320.44C340.968 319.868 341.1 319.384 341.804 319.384C342.53 319.384 342.662 319.868 342.662 320.44V322.024H346.776V320.55C346.776 317.998 345.104 315.974 341.892 315.974C338.306 315.974 336.458 318.086 336.458 320.792V326.556C336.458 329.262 338.306 331.374 341.892 331.374C345.104 331.374 346.776 329.328 346.776 326.798ZM361.273 326.798V320.55C361.273 318.02 359.227 315.996 356.037 315.996C352.825 315.996 350.801 318.02 350.801 320.55V326.798C350.801 329.35 352.825 331.374 356.037 331.374C359.227 331.374 361.273 329.35 361.273 326.798ZM356.763 327.194C356.763 327.678 356.499 327.964 356.037 327.964C355.575 327.964 355.311 327.678 355.311 327.194V320.154C355.311 319.692 355.575 319.384 356.037 319.384C356.499 319.384 356.763 319.692 356.763 320.154V327.194ZM376.093 331V316.348H372.199V322.97L371.473 321.254L369.361 316.348H365.555V331H369.471V324.114L370.395 326.226L372.441 331H376.093ZM390.861 326.556V321.166C390.861 318.416 389.343 316.348 385.757 316.348H380.499V331H385.757C389.343 331 390.861 329.284 390.861 326.556ZM386.461 326.358C386.461 327.172 386.263 327.634 385.471 327.634H384.899V319.692H385.471C386.263 319.692 386.461 320.176 386.461 320.99V326.358ZM404.942 331L402.038 316.348H396.978L394.008 331H397.99L398.342 328.954H400.322L400.608 331H404.942ZM399.97 326.248H398.782L399.464 321.848L399.97 326.248ZM419.099 331V330.934C418.835 330.23 418.593 329.482 418.593 328.558V326.006C418.593 325.038 417.977 324.158 416.657 323.916C418.043 323.564 418.527 322.706 418.527 321.804V319.692C418.527 317.668 416.855 316.348 414.501 316.348H408.605V331H413.005V325.456H413.599C414.259 325.456 414.435 325.896 414.435 326.402V328.734C414.435 329.79 414.743 331 415.359 331H419.099ZM414.325 321.98C414.325 322.508 414.105 322.706 413.665 322.706H413.005V319.472H413.665C414.105 319.472 414.325 319.67 414.325 320.198V321.98ZM433.299 316.348H428.855L427.689 321.122L426.347 316.348H421.727L425.225 325.302V331H429.625V325.5L433.299 316.348Z" fill="#FF6B00"/>
<rect x="272.225" y="300" width="198" height="48" rx="4" stroke="#FF6B00" stroke-width="2"/>
<path opacity="0.4" d="M51.56 384.2H54.872V401H51.56V384.2ZM63.5499 401.336C61.7419 401.336 60.2299 400.728 59.0139 399.512C57.8139 398.296 57.2139 396.792 57.2139 395C57.2139 393.208 57.8139 391.704 59.0139 390.488C60.2299 389.272 61.7419 388.664 63.5499 388.664C64.7179 388.664 65.7819 388.944 66.7419 389.504C67.7019 390.064 68.4299 390.816 68.9259 391.76L66.2619 393.32C66.0219 392.824 65.6539 392.432 65.1579 392.144C64.6779 391.856 64.1339 391.712 63.5259 391.712C62.5979 391.712 61.8299 392.024 61.2219 392.648C60.6139 393.256 60.3099 394.04 60.3099 395C60.3099 395.944 60.6139 396.728 61.2219 397.352C61.8299 397.96 62.5979 398.264 63.5259 398.264C64.1499 398.264 64.7019 398.128 65.1819 397.856C65.6779 397.568 66.0459 397.176 66.2859 396.68L68.9739 398.216C68.4459 399.16 67.7019 399.92 66.7419 400.496C65.7819 401.056 64.7179 401.336 63.5499 401.336ZM80.6478 399.512C79.4158 400.728 77.9118 401.336 76.1358 401.336C74.3598 401.336 72.8558 400.728 71.6238 399.512C70.4078 398.28 69.7998 396.776 69.7998 395C69.7998 393.224 70.4078 391.728 71.6238 390.512C72.8558 389.28 74.3598 388.664 76.1358 388.664C77.9118 388.664 79.4158 389.28 80.6478 390.512C81.8798 391.728 82.4958 393.224 82.4958 395C82.4958 396.776 81.8798 398.28 80.6478 399.512ZM73.8078 397.376C74.4318 398 75.2078 398.312 76.1358 398.312C77.0638 398.312 77.8398 398 78.4638 397.376C79.0878 396.752 79.3998 395.96 79.3998 395C79.3998 394.04 79.0878 393.248 78.4638 392.624C77.8398 392 77.0638 391.688 76.1358 391.688C75.2078 391.688 74.4318 392 73.8078 392.624C73.1998 393.248 72.8958 394.04 72.8958 395C72.8958 395.96 73.1998 396.752 73.8078 397.376ZM91.3458 388.664C92.6578 388.664 93.7378 389.104 94.5858 389.984C95.4498 390.864 95.8818 392.08 95.8818 393.632V401H92.7858V394.016C92.7858 393.216 92.5698 392.608 92.1378 392.192C91.7058 391.76 91.1298 391.544 90.4098 391.544C89.6098 391.544 88.9698 391.792 88.4898 392.288C88.0098 392.784 87.7698 393.528 87.7698 394.52V401H84.6738V389H87.7698V390.344C88.5218 389.224 89.7138 388.664 91.3458 388.664ZM101.381 392.408C101.381 392.728 101.589 392.992 102.005 393.2C102.437 393.392 102.957 393.568 103.565 393.728C104.173 393.872 104.781 394.064 105.389 394.304C105.997 394.528 106.509 394.912 106.925 395.456C107.357 396 107.573 396.68 107.573 397.496C107.573 398.728 107.109 399.68 106.181 400.352C105.269 401.008 104.125 401.336 102.749 401.336C100.285 401.336 98.6054 400.384 97.7094 398.48L100.397 396.968C100.749 398.008 101.533 398.528 102.749 398.528C103.853 398.528 104.405 398.184 104.405 397.496C104.405 397.176 104.189 396.92 103.757 396.728C103.341 396.52 102.829 396.336 102.221 396.176C101.613 396.016 101.005 395.816 100.397 395.576C99.7894 395.336 99.2694 394.96 98.8374 394.448C98.4214 393.92 98.2134 393.264 98.2134 392.48C98.2134 391.296 98.6454 390.368 99.5094 389.696C100.389 389.008 101.477 388.664 102.773 388.664C103.749 388.664 104.637 388.888 105.437 389.336C106.237 389.768 106.869 390.392 107.333 391.208L104.693 392.648C104.309 391.832 103.669 391.424 102.773 391.424C102.373 391.424 102.037 391.512 101.765 391.688C101.509 391.864 101.381 392.104 101.381 392.408Z" fill="#011627"/>
<path d="M70 430L59 441L54 436" stroke="#FF6B00" stroke-width="2" stroke-linecap="round" stroke-linejoin="round"/>
<path d="M115 430L103 442" stroke="#FF6B00" stroke-width="2" stroke-linecap="round" stroke-linejoin="round"/>
<path d="M103 430L115 442" stroke="#FF6B00" stroke-width="2" stroke-linecap="round" stroke-linejoin="round"/>
<path d="M150 433L156 439L162 433" stroke="#FF6B00" stroke-width="2" stroke-linecap="round" stroke-linejoin="round"/>
<path d="M212 434C212 441 203 447 203 447C203 447 194 441 194 434C194 431.613 194.948 429.324 196.636 427.636C198.324 425.948 200.613 425 203 425C205.387 425 207.676 425.948 209.364 427.636C211.052 429.324 212 431.613 212 434Z" stroke="#FF6B00" stroke-width="2" stroke-linecap="round" stroke-linejoin="round"/>
<path d="M203 437C204.657 437 206 435.657 206 434C206 432.343 204.657 431 203 431C201.343 431 200 432.343 200 434C200 435.657 201.343 437 203 437Z" stroke="#FF6B00" stroke-width="2" stroke-linecap="round" stroke-linejoin="round"/>
<rect x="50" y="468" width="24" height="24" rx="12" fill="#FF6B00"/>
<path d="M62.002 475.332V484.668" stroke="white" stroke-width="1.33382" stroke-linecap="round" stroke-linejoin="round"/>
<path d="M57.332 480H66.6688" stroke="white" stroke-width="1.33382" stroke-linecap="round" stroke-linejoin="round"/>
<path d="M109 490C114.523 490 119 485.523 119 480C119 474.477 114.523 470 109 470C103.477 470 99 474.477 99 480C99 485.523 103.477 490 109 490Z" stroke="#FF6B00" stroke-width="2" stroke-linecap="round" stroke-linejoin="round"/>
<path d="M109 474V480L113 482" stroke="#FF6B00" stroke-width="2" stroke-linecap="round" stroke-linejoin="round"/>
<path d="M163 480H149" stroke="#FF6B00" stroke-width="2" stroke-linecap="round" stroke-linejoin="round"/>
<path d="M156 473L149 480L156 487" stroke="#FF6B00" stroke-width="2" stroke-linecap="round" stroke-linejoin="round"/>
<path d="M204.112 487.358L202.583 488.888L201.053 487.358C200.868 487.173 200.59 487.173 200.405 487.358C200.219 487.544 200.219 487.822 200.405 488.007L202.258 489.861C202.351 489.954 202.467 490 202.583 490C202.699 490 202.815 489.954 202.907 489.861L204.761 488.007C204.946 487.822 204.946 487.544 204.761 487.358C204.575 487.173 204.297 487.173 204.112 487.358L204.112 487.358Z" fill="#FF6B00"/>
<path d="M204.761 484.809C204.575 484.624 204.297 484.624 204.112 484.809L202.583 486.339L201.053 484.809C200.868 484.624 200.59 484.624 200.405 484.809C200.219 484.995 200.219 485.273 200.405 485.458L202.258 487.312C202.351 487.405 202.467 487.451 202.583 487.451C202.699 487.451 202.815 487.405 202.907 487.312L204.761 485.458C204.946 485.273 204.946 484.995 204.761 484.809H204.761Z" fill="#FF6B00"/>
<path d="M206.754 479.341V475.171C206.754 472.877 204.877 471 202.583 471C200.289 471 198.412 472.877 198.412 475.171V479.341C198.412 481.635 200.289 483.512 202.583 483.512C204.877 483.512 206.754 481.635 206.754 479.341ZM202.583 482.585C200.799 482.585 199.339 481.125 199.339 479.341V475.171C199.339 473.387 200.799 471.927 202.583 471.927C204.367 471.927 205.827 473.387 205.827 475.171V479.341C205.827 481.126 204.367 482.585 202.583 482.585Z" fill="#FF6B00"/>
<path d="M202.583 473.549C202.328 473.549 202.119 473.757 202.119 474.012V475.403C202.119 475.657 202.328 475.866 202.583 475.866C202.837 475.866 203.046 475.657 203.046 475.403V474.012C203.046 473.757 202.837 473.549 202.583 473.549Z" fill="#FF6B00"/>
<circle cx="12" cy="12" r="12" transform="matrix(-1 8.74228e-08 8.74228e-08 1 74 512)" fill="white"/>
<path d="M61.025 525.954L62.9785 524L61.025 522.047" stroke="#231F20" stroke-width="0.956536" stroke-linecap="round" stroke-linejoin="round"/>
<circle cx="109" cy="524" r="12" fill="white"/>
<path d="M109.977 525.954L108.023 524L109.977 522.047" stroke="#231F20" stroke-width="0.956536" stroke-linecap="round" stroke-linejoin="round"/>
<path opacity="0.4" d="M59.528 588.336C57 588.336 54.912 587.496 53.264 585.816C51.616 584.136 50.792 582.064 50.792 579.6C50.792 577.12 51.616 575.048 53.264 573.384C54.912 571.704 57 570.864 59.528 570.864C61.048 570.864 62.448 571.224 63.728 571.944C65.024 572.648 66.032 573.608 66.752 574.824L63.896 576.48C63.48 575.728 62.888 575.144 62.12 574.728C61.352 574.296 60.488 574.08 59.528 574.08C57.896 574.08 56.576 574.592 55.568 575.616C54.576 576.64 54.08 577.968 54.08 579.6C54.08 581.216 54.576 582.536 55.568 583.56C56.576 584.584 57.896 585.096 59.528 585.096C60.488 585.096 61.352 584.888 62.12 584.472C62.904 584.04 63.496 583.456 63.896 582.72L66.752 584.376C66.032 585.592 65.032 586.56 63.752 587.28C62.472 587.984 61.064 588.336 59.528 588.336ZM75.5021 575.664C76.8141 575.664 77.8941 576.104 78.7421 576.984C79.6061 577.864 80.0381 579.08 80.0381 580.632V588H76.9421V581.016C76.9421 580.216 76.7261 579.608 76.2941 579.192C75.8621 578.76 75.2861 578.544 74.5661 578.544C73.7661 578.544 73.1261 578.792 72.6461 579.288C72.1661 579.784 71.9261 580.528 71.9261 581.52V588H68.8301V571.2H71.9261V577.344C72.6781 576.224 73.8701 575.664 75.5021 575.664ZM84.2176 574.56C83.7056 574.56 83.2576 574.376 82.8736 574.008C82.5056 573.624 82.3216 573.176 82.3216 572.664C82.3216 572.152 82.5056 571.704 82.8736 571.32C83.2576 570.936 83.7056 570.744 84.2176 570.744C84.7456 570.744 85.1936 570.936 85.5616 571.32C85.9456 571.704 86.1376 572.152 86.1376 572.664C86.1376 573.176 85.9456 573.624 85.5616 574.008C85.1936 574.376 84.7456 574.56 84.2176 574.56ZM82.6816 588V576H85.7776V588H82.6816ZM95.5953 575.664C97.2113 575.664 98.5873 576.28 99.7233 577.512C100.875 578.728 101.451 580.224 101.451 582C101.451 583.776 100.875 585.28 99.7233 586.512C98.5873 587.728 97.2113 588.336 95.5953 588.336C93.9153 588.336 92.6193 587.752 91.7073 586.584V592.8H88.6113V576H91.7073V577.416C92.6193 576.248 93.9153 575.664 95.5953 575.664ZM92.6433 584.448C93.2673 585.072 94.0593 585.384 95.0193 585.384C95.9793 585.384 96.7713 585.072 97.3953 584.448C98.0353 583.808 98.3553 582.992 98.3553 582C98.3553 581.008 98.0353 580.2 97.3953 579.576C96.7713 578.936 95.9793 578.616 95.0193 578.616C94.0593 578.616 93.2673 578.936 92.6433 579.576C92.0193 580.2 91.7073 581.008 91.7073 582C91.7073 582.992 92.0193 583.808 92.6433 584.448ZM106.233 579.408C106.233 579.728 106.441 579.992 106.857 580.2C107.289 580.392 107.809 580.568 108.417 580.728C109.025 580.872 109.633 581.064 110.241 581.304C110.849 581.528 111.361 581.912 111.777 582.456C112.209 583 112.425 583.68 112.425 584.496C112.425 585.728 111.961 586.68 111.033 587.352C110.121 588.008 108.977 588.336 107.601 588.336C105.137 588.336 103.457 587.384 102.561 585.48L105.249 583.968C105.601 585.008 106.385 585.528 107.601 585.528C108.705 585.528 109.257 585.184 109.257 584.496C109.257 584.176 109.041 583.92 108.609 583.728C108.193 583.52 107.681 583.336 107.073 583.176C106.465 583.016 105.857 582.816 105.249 582.576C104.641 582.336 104.121 581.96 103.689 581.448C103.273 580.92 103.065 580.264 103.065 579.48C103.065 578.296 103.497 577.368 104.361 576.696C105.241 576.008 106.329 575.664 107.625 575.664C108.601 575.664 109.489 575.888 110.289 576.336C111.089 576.768 111.721 577.392 112.185 578.208L109.545 579.648C109.161 578.832 108.521 578.424 107.625 578.424C107.225 578.424 106.889 578.512 106.617 578.688C106.361 578.864 106.233 579.104 106.233 579.408Z" fill="#011627"/>
<rect x="51" y="669" width="208" height="43" rx="21.5" fill="#FF6B00" fill-opacity="0.2"/>
<path d="M112 684.5L100 696.5" stroke="#FF6B00" stroke-width="2" stroke-linecap="round" stroke-linejoin="round"/>
<path d="M100 684.5L112 696.5" stroke="#FF6B00" stroke-width="2" stroke-linecap="round" stroke-linejoin="round"/>
<path d="M144.46 683.18H142L137.9 693.66L133.76 683.18H131.28L136.8 696.5H138.8L144.46 683.18ZM153.4 692V691.12C153.4 688.68 151.78 686.92 148.98 686.92C146.18 686.92 144.5 688.72 144.5 691.08V692.58C144.5 695.06 146.38 696.66 149.06 696.66C151.12 696.66 152.54 695.76 153.32 693.88L151.6 693.28C151.24 694.3 150.4 695.08 149.18 695.08C147.62 695.08 146.6 694.14 146.6 692.9V692H153.4ZM151.38 690.9H146.6V690.5C146.6 689.38 147.54 688.5 149.02 688.5C150.44 688.5 151.38 689.46 151.38 690.5V690.9ZM161.462 689.02V687.08C159.482 686.86 158.422 687.34 157.662 689.3L157.582 687.14H155.722V696.5H157.862V690.66C157.862 689.48 158.962 688.6 161.462 689.02ZM176.195 689.4C175.415 687.84 174.215 686.92 172.055 686.92C169.475 686.92 168.015 688.4 168.015 689.8C168.015 693.22 174.255 691.88 174.255 693.84C174.255 694.6 173.575 695.08 172.155 695.08C170.855 695.08 169.795 694.48 169.215 693.36L167.595 694.22C168.375 695.58 169.755 696.66 172.055 696.66C174.975 696.66 176.215 695.1 176.215 693.74C176.215 690.2 169.955 691.58 169.955 689.66C169.955 689.04 170.775 688.5 172.075 688.5C173.275 688.5 174.115 689.14 174.475 689.98L176.195 689.4ZM180.537 685.52V683.62H178.497V685.52H180.537ZM180.597 696.5V687.14H178.437V696.5H180.597ZM188.435 688.74V687.2H186.435V684.8L184.315 685.52V687.2H182.635V688.74H184.275V693.54C184.275 694.86 184.495 695.8 185.055 696.5H187.455C186.755 695.7 186.435 694.68 186.435 693.54V688.74H188.435ZM192.587 685.52V683.62H190.547V685.52H192.587ZM192.647 696.5V687.14H190.487V696.5H192.647ZM204.266 692.46V691.16C204.266 688.48 202.246 686.92 199.666 686.92C197.086 686.92 195.066 688.48 195.066 691.16V692.46C195.066 695.14 197.086 696.66 199.666 696.66C202.246 696.66 204.266 695.14 204.266 692.46ZM202.146 692.52C202.146 694.12 201.246 695.08 199.666 695.08C198.086 695.08 197.186 694.12 197.186 692.52V691.08C197.186 689.48 198.086 688.5 199.666 688.5C201.246 688.5 202.146 689.48 202.146 691.08V692.52ZM214.378 689.4C213.598 687.84 212.398 686.92 210.238 686.92C207.658 686.92 206.198 688.4 206.198 689.8C206.198 693.22 212.438 691.88 212.438 693.84C212.438 694.6 211.758 695.08 210.338 695.08C209.038 695.08 207.978 694.48 207.398 693.36L205.778 694.22C206.558 695.58 207.938 696.66 210.238 696.66C213.158 696.66 214.398 695.1 214.398 693.74C214.398 690.2 208.138 691.58 208.138 689.66C208.138 689.04 208.958 688.5 210.258 688.5C211.458 688.5 212.298 689.14 212.658 689.98L214.378 689.4Z" fill="#FF6B00"/>
<rect x="51" y="669" width="208" height="43" rx="21.5" stroke="#FF6B00" stroke-width="2"/>
<path d="M103.56 635.5V622.18H100.38L96.72 630.96L96.1 632.58L95.48 630.94L91.78 622.18H88.58V635.5H90.74V625.16L91.4 626.86L95.2 635.5H96.86L100.7 626.86L101.36 625.16V635.5H103.56ZM115.505 635.5V626.14H113.365V630.92C113.365 632.4 112.125 634.08 110.625 634.08C109.405 634.08 108.725 633.4 108.725 632.14V626.14H106.565V632.36C106.565 634.34 107.685 635.66 109.845 635.66C111.505 635.66 112.725 634.86 113.565 633.1L113.645 635.5H115.505ZM113.565 621.54H111.285L110.285 624.52H111.585L113.565 621.54ZM125.945 628.4C125.165 626.84 123.965 625.92 121.805 625.92C119.225 625.92 117.765 627.4 117.765 628.8C117.765 632.22 124.005 630.88 124.005 632.84C124.005 633.6 123.325 634.08 121.905 634.08C120.605 634.08 119.545 633.48 118.965 632.36L117.345 633.22C118.125 634.58 119.505 635.66 121.805 635.66C124.725 635.66 125.965 634.1 125.965 632.74C125.965 629.2 119.705 630.58 119.705 628.66C119.705 628.04 120.525 627.5 121.825 627.5C123.025 627.5 123.865 628.14 124.225 628.98L125.945 628.4ZM130.287 624.52V622.62H128.247V624.52H130.287ZM130.347 635.5V626.14H128.187V635.5H130.347ZM141.605 632.82L139.845 632.22C139.545 633.22 138.665 634.02 137.445 634.02C135.985 634.02 134.865 633.14 134.865 631.44V630.12C134.865 628.52 135.945 627.56 137.445 627.56C138.665 627.56 139.505 628.26 139.805 629.32L141.605 628.86C141.105 626.96 139.565 625.92 137.405 625.92C134.785 625.92 132.765 627.7 132.765 630.2V631.46C132.765 633.96 134.685 635.66 137.365 635.66C139.425 635.66 140.825 634.7 141.605 632.82ZM152.654 635.66V634.16C151.854 634.16 151.654 633.96 151.654 633.44V629.72C151.654 627.44 150.394 625.92 147.614 625.92C145.754 625.92 144.474 626.82 143.654 628.32L145.194 629.12C145.794 628.12 146.494 627.54 147.714 627.54C148.954 627.54 149.614 628.24 149.614 629.44V630.16C146.154 629.66 143.134 630.48 143.134 632.88V632.96C143.134 634.64 144.494 635.66 146.494 635.66C147.914 635.66 149.254 635.08 150.114 634.04C150.074 635.26 150.934 635.66 151.894 635.66H152.654ZM149.614 632.26C149.614 633.32 148.134 634.08 146.874 634.08C145.854 634.08 145.214 633.52 145.214 632.86V632.82C145.214 631.56 146.754 630.98 149.614 631.42V632.26ZM168.208 631V630.12C168.208 627.68 166.588 625.92 163.788 625.92C160.988 625.92 159.308 627.72 159.308 630.08V631.58C159.308 634.06 161.188 635.66 163.868 635.66C165.928 635.66 167.348 634.76 168.128 632.88L166.408 632.28C166.048 633.3 165.208 634.08 163.988 634.08C162.428 634.08 161.408 633.14 161.408 631.9V631H168.208ZM166.188 629.9H161.408V629.5C161.408 628.38 162.348 627.5 163.828 627.5C165.248 627.5 166.188 628.46 166.188 629.5V629.9ZM179.47 635.5V629.26C179.47 627.32 178.35 625.92 176.33 625.92C174.71 625.92 173.39 626.78 172.47 628.82L172.41 626.14H170.53V635.5H172.69V630.84C172.69 629.36 174.03 627.5 175.53 627.5C176.71 627.5 177.31 628.18 177.31 629.44V635.5H179.47ZM196.043 626.14H193.843L192.063 631.08L191.203 633.38L190.343 631.08L188.543 626.14H186.243L190.183 635.5H192.083L196.043 626.14ZM199.857 624.52V622.62H197.817V624.52H199.857ZM199.917 635.5V626.14H197.757V635.5H199.917ZM211.375 626.14H209.175L207.395 631.08L206.535 633.38L205.675 631.08L203.875 626.14H201.575L205.515 635.5H207.415L211.375 626.14ZM221.711 631.46V630.16C221.711 627.48 219.691 625.92 217.111 625.92C214.531 625.92 212.511 627.48 212.511 630.16V631.46C212.511 634.14 214.531 635.66 217.111 635.66C219.691 635.66 221.711 634.14 221.711 631.46ZM219.591 631.52C219.591 633.12 218.691 634.08 217.111 634.08C215.531 634.08 214.631 633.12 214.631 631.52V630.08C214.631 628.48 215.531 627.5 217.111 627.5C218.691 627.5 219.591 628.48 219.591 630.08V631.52Z" fill="#FF6B00"/>
<rect x="51" y="608" width="208" height="43" rx="21.5" stroke="#FF6B00" stroke-width="2"/>
<rect x="276" y="608" width="208" height="43" rx="21.5" fill="#FF6B00" fill-opacity="0.2"/>
<path d="M360.5 623.5L349.5 634.5L344.5 629.5" stroke="#FF6B00" stroke-width="2" stroke-linecap="round" stroke-linejoin="round"/>
<path d="M392.66 630.28V627.38C392.66 624.36 390.48 621.76 386.62 621.76C382.76 621.76 380.58 624.36 380.58 627.38V630.28C380.58 633.28 382.76 635.92 386.62 635.92C390.48 635.92 392.66 633.28 392.66 630.28ZM390.34 630.3C390.34 632.28 389.06 633.92 386.62 633.92C384.18 633.92 382.9 632.28 382.9 630.3V627.36C382.9 625.38 384.18 623.76 386.62 623.76C389.06 623.76 390.34 625.38 390.34 627.36V630.3ZM400.138 627.74V626.2H398.138V623.8L396.018 624.52V626.2H394.338V627.74H395.978V632.54C395.978 633.86 396.198 634.8 396.758 635.5H399.158C398.458 634.7 398.138 633.68 398.138 632.54V627.74H400.138ZM407.93 628.02V626.08C405.95 625.86 404.89 626.34 404.13 628.3L404.05 626.14H402.19V635.5H404.33V629.66C404.33 628.48 405.43 627.6 407.93 628.02ZM418.508 631.46V630.16C418.508 627.48 416.488 625.92 413.908 625.92C411.328 625.92 409.308 627.48 409.308 630.16V631.46C409.308 634.14 411.328 635.66 413.908 635.66C416.488 635.66 418.508 634.14 418.508 631.46ZM416.388 631.52C416.388 633.12 415.488 634.08 413.908 634.08C412.328 634.08 411.428 633.12 411.428 631.52V630.08C411.428 628.48 412.328 627.5 413.908 627.5C415.488 627.5 416.388 628.48 416.388 630.08V631.52Z" fill="#FF6B00"/>
<rect x="276" y="608" width="208" height="43" rx="21.5" stroke="#FF6B00" stroke-width="2"/>
</svg>
