<svg width="335" height="700" viewBox="0 0 335 700" fill="none" xmlns="http://www.w3.org/2000/svg">
<rect width="335" height="700" fill="#F6F6F6"/>
<path opacity="0.4" d="M27.6653 127.512V129.678H24.5635V139H22.2987V129.678H19.2133V127.512H27.6653ZM33.0113 130.794H35.2761L32.2892 139C31.8625 140.182 31.2936 141.035 30.5824 141.56C29.8822 142.096 29.0069 142.337 27.9566 142.282V140.313C28.5255 140.324 28.9741 140.204 29.3023 139.952C29.6415 139.7 29.9095 139.295 30.1065 138.737L26.7421 130.794H29.0561L31.1896 136.309L33.0113 130.794ZM41.0594 130.564C42.1644 130.564 43.1053 130.986 43.8821 131.828C44.6699 132.66 45.0638 133.683 45.0638 134.897C45.0638 136.112 44.6699 137.14 43.8821 137.982C43.1053 138.814 42.1644 139.23 41.0594 139.23C39.9106 139.23 39.0243 138.83 38.4007 138.032V142.282H36.2836V130.794H38.4007V131.763C39.0243 130.964 39.9106 130.564 41.0594 130.564ZM39.0407 136.571C39.4674 136.998 40.009 137.211 40.6655 137.211C41.3219 137.211 41.8635 136.998 42.2902 136.571C42.7279 136.133 42.9467 135.575 42.9467 134.897C42.9467 134.219 42.7279 133.666 42.2902 133.24C41.8635 132.802 41.3219 132.583 40.6655 132.583C40.009 132.583 39.4674 132.802 39.0407 133.24C38.614 133.666 38.4007 134.219 38.4007 134.897C38.4007 135.575 38.614 136.133 39.0407 136.571ZM48.3457 135.767C48.6301 136.795 49.4015 137.31 50.6597 137.31C51.4693 137.31 52.082 137.036 52.4978 136.489L54.2046 137.474C53.395 138.644 52.2024 139.23 50.6269 139.23C49.2702 139.23 48.1816 138.819 47.361 137.999C46.5404 137.178 46.1301 136.144 46.1301 134.897C46.1301 133.661 46.5349 132.632 47.3446 131.812C48.1542 130.98 49.1936 130.564 50.4628 130.564C51.6663 130.564 52.6564 130.98 53.4332 131.812C54.221 132.643 54.6149 133.672 54.6149 134.897C54.6149 135.171 54.5875 135.461 54.5328 135.767H48.3457ZM48.3129 134.126H52.4978C52.3774 133.568 52.1258 133.152 51.7429 132.879C51.3709 132.605 50.9442 132.468 50.4628 132.468C49.8938 132.468 49.4234 132.616 49.0514 132.911C48.6794 133.196 48.4332 133.601 48.3129 134.126ZM60.2671 129.317C59.1074 129.23 58.5275 129.695 58.5275 130.712V130.794H60.2671V132.829H58.5275V139H56.4104V132.829H55.2288V130.794H56.4104V130.712C56.4104 129.552 56.7332 128.672 57.3787 128.07C58.0242 127.468 58.987 127.206 60.2671 127.282V129.317ZM67.1693 130.794H69.2864V139H67.1693V138.032C66.5347 138.83 65.643 139.23 64.4942 139.23C63.4001 139.23 62.4592 138.814 61.6714 137.982C60.8946 137.14 60.5062 136.112 60.5062 134.897C60.5062 133.683 60.8946 132.66 61.6714 131.828C62.4592 130.986 63.4001 130.564 64.4942 130.564C65.643 130.564 66.5347 130.964 67.1693 131.763V130.794ZM63.2634 136.571C63.6901 136.998 64.2316 137.211 64.8881 137.211C65.5446 137.211 66.0861 136.998 66.5128 136.571C66.9505 136.133 67.1693 135.575 67.1693 134.897C67.1693 134.219 66.9505 133.666 66.5128 133.24C66.0861 132.802 65.5446 132.583 64.8881 132.583C64.2316 132.583 63.6901 132.802 63.2634 133.24C62.8367 133.666 62.6233 134.219 62.6233 134.897C62.6233 135.575 62.8367 136.133 63.2634 136.571ZM75.1121 139.23C73.8757 139.23 72.8418 138.814 72.0103 137.982C71.1897 137.151 70.7794 136.123 70.7794 134.897C70.7794 133.672 71.1897 132.643 72.0103 131.812C72.8418 130.98 73.8757 130.564 75.1121 130.564C75.9108 130.564 76.6383 130.756 77.2948 131.139C77.9513 131.522 78.4491 132.036 78.7882 132.682L76.9666 133.748C76.8025 133.409 76.5508 133.141 76.2116 132.944C75.8834 132.747 75.5114 132.649 75.0957 132.649C74.4611 132.649 73.9359 132.862 73.5202 133.289C73.1044 133.705 72.8965 134.241 72.8965 134.897C72.8965 135.543 73.1044 136.079 73.5202 136.505C73.9359 136.921 74.4611 137.129 75.0957 137.129C75.5224 137.129 75.8998 137.036 76.2281 136.85C76.5672 136.653 76.8189 136.385 76.983 136.046L78.8211 137.096C78.46 137.742 77.9513 138.261 77.2948 138.655C76.6383 139.038 75.9108 139.23 75.1121 139.23ZM81.6014 135.767C81.8859 136.795 82.6572 137.31 83.9154 137.31C84.7251 137.31 85.3378 137.036 85.7535 136.489L87.4603 137.474C86.6507 138.644 85.4581 139.23 83.8826 139.23C82.5259 139.23 81.4373 138.819 80.6167 137.999C79.7961 137.178 79.3859 136.144 79.3859 134.897C79.3859 133.661 79.7907 132.632 80.6003 131.812C81.4099 130.98 82.4493 130.564 83.7185 130.564C84.922 130.564 85.9122 130.98 86.689 131.812C87.4767 132.643 87.8706 133.672 87.8706 134.897C87.8706 135.171 87.8432 135.461 87.7885 135.767H81.6014ZM81.5686 134.126H85.7535C85.6332 133.568 85.3815 133.152 84.9986 132.879C84.6266 132.605 84.1999 132.468 83.7185 132.468C83.1496 132.468 82.6791 132.616 82.3071 132.911C81.9351 133.196 81.6889 133.601 81.5686 134.126Z" fill="#011627"/>
<path d="M28.2668 203.53V201.922H20.0775V203.53H23.2613V212.852H25.083V203.53H28.2668ZM34.2751 210.341V210.308H32.8145V210.472C32.8145 211.145 32.2729 211.703 31.2718 211.703C30.1722 211.703 29.5322 211.063 29.5322 210.16V209.11H34.2751V208.158C34.2751 206.287 33.1591 205.007 31.1405 205.007C29.1219 205.007 27.9238 206.303 27.9238 208.141V209.897C27.9238 211.785 29.2039 212.983 31.1733 212.983C32.8965 212.983 34.2751 211.998 34.2751 210.341ZM32.7652 208.256H29.5322V207.764C29.5322 206.911 30.1394 206.287 31.1569 206.287C32.158 206.287 32.7652 206.943 32.7652 207.764V208.256ZM42.0657 212.852L39.4234 208.978L42.0657 205.171H40.3425L38.6028 207.895L36.8632 205.171H35.1072L37.7659 209.044L35.1072 212.852H36.8304L38.5864 210.111L40.3261 212.852H42.0657ZM46.9278 206.5V205.237H45.4836V203.3L43.8753 203.842V205.237H42.628V206.5H43.8097V210.373C43.8097 211.506 43.9574 212.244 44.3512 212.852H46.1729C45.6806 212.162 45.4836 211.358 45.4836 210.373V206.5H46.9278Z" fill="#FF6B00"/>
<path d="M70.8288 212.852V201.922H69.0071V206.55H64.3299V201.922H62.5246V212.852H64.3299V208.109H69.0071V212.852H70.8288ZM80.5684 203.53V201.922H72.3791V203.53H75.5629V212.852H77.3846V203.53H80.5684ZM88.9526 203.513V201.922H82.1254V212.852H83.9307V208.207H87.7382V206.664H83.9307V203.513H88.9526ZM97.3015 210.111V209.454C97.3015 208.322 96.645 207.518 95.3813 207.222C96.6614 206.993 97.3015 206.041 97.3015 204.925V204.646C97.3015 202.939 96.0214 201.61 93.7073 201.61C91.6395 201.61 90.2117 202.939 90.2117 204.662V205.187H91.9021V204.958C91.9021 203.727 92.6078 203.087 93.773 203.087C94.9874 203.087 95.6111 203.76 95.6111 204.794V205.138C95.6111 205.959 95.0695 206.615 93.7073 206.615H92.7883V207.977H93.7073C95.1351 207.977 95.6111 208.65 95.6111 209.454V209.98C95.6111 210.981 95.0367 211.686 93.773 211.686C92.5257 211.686 91.9021 211.046 91.9021 209.815V209.422H90.2117V210.111C90.2117 211.834 91.6395 213.163 93.7073 213.163C96.0214 213.163 97.3015 211.785 97.3015 210.111ZM101.197 212.852V201.922H100.294C100.294 202.365 100.064 202.758 99.4406 202.758V212.852H101.197Z" fill="#FF6B00"/>
<path d="M133.176 209.881C133.176 208.388 132.388 207.567 130.468 206.648C128.597 205.745 128.138 205.352 128.138 204.482C128.138 203.71 128.63 203.12 129.631 203.12C130.895 203.12 131.403 203.973 131.403 204.974V205.155H133.077V204.728C133.077 202.955 131.748 201.659 129.68 201.659C127.596 201.659 126.398 203.005 126.398 204.646C126.398 206.385 127.875 207.255 129.336 207.928C130.977 208.683 131.42 209.159 131.42 210.078C131.42 210.997 130.845 211.654 129.746 211.654C128.581 211.654 127.973 211.03 127.973 209.717V209.536H126.25V210.062C126.25 211.818 127.629 213.131 129.697 213.131C131.781 213.131 133.176 211.719 133.176 209.881ZM140.367 212.852V205.171H138.792V209.799C138.792 210.373 138.266 211.801 137.315 211.801C136.658 211.801 136.231 211.342 136.231 210.57V205.171H134.656V210.587C134.656 212.015 135.378 212.983 136.839 212.983C137.774 212.983 138.529 212.491 138.972 211.325L139.087 212.852H140.367ZM147.835 210.423V207.551C147.835 206.106 147.162 205.023 145.816 205.023C144.848 205.023 144.126 205.548 143.732 206.254V201.922H142.173V212.852H143.124L143.403 211.67C143.781 212.655 144.684 212.983 145.504 212.983C146.899 212.983 147.835 211.998 147.835 210.423ZM146.308 210.226C146.308 211.342 145.849 211.818 145.045 211.818C144.372 211.818 143.732 211.325 143.732 210.324V207.797C143.732 206.861 144.257 206.303 145.077 206.303C145.882 206.303 146.308 206.779 146.308 207.895V210.226ZM152.796 206.533V205.269H151.548V203.349L150.055 203.825V205.269H148.939V206.533H149.973V210.324C149.973 211.489 150.071 212.195 150.416 212.852H152.073C151.663 212.129 151.548 211.342 151.548 210.324V206.533H152.796ZM155.607 203.842V202.283H154.13V203.842H155.607ZM155.656 212.852V205.171H154.08V212.852H155.656ZM160.761 206.533V205.269H159.514V203.349L158.02 203.825V205.269H156.904V206.533H157.938V210.324C157.938 211.489 158.037 212.195 158.381 212.852H160.039C159.628 212.129 159.514 211.342 159.514 210.324V206.533H160.761ZM163.621 212.852V201.922H162.046V212.852H163.621ZM170.696 210.209V210.111H169.317V210.423C169.317 211.21 168.874 211.736 168.053 211.736C167.233 211.736 166.79 211.21 166.79 210.423V209.044H170.696V207.862C170.696 206.123 169.793 205.023 168.053 205.023C166.314 205.023 165.28 206.123 165.28 207.862V210.16C165.28 211.916 166.314 212.983 168.053 212.983C169.793 212.983 170.696 211.949 170.696 210.209ZM169.317 208.24H166.79V207.583C166.79 206.812 167.233 206.271 168.053 206.271C168.874 206.271 169.317 206.812 169.317 207.583V208.24Z" fill="#FF6B00"/>
<path d="M193.574 212.852V201.922H191.834V206.55H188.109V201.922H186.369V212.852H188.109V208.092H191.834V212.852H193.574ZM201.869 203.497V201.922H194.812V203.497H197.471V212.852H199.211V203.497H201.869ZM208.976 203.464V201.905H203.101V212.852H204.841V208.141H208.008V206.632H204.841V203.464H208.976ZM216.174 210.193V209.225C216.174 208.092 215.566 207.419 214.647 207.19C215.616 207.025 216.174 206.139 216.174 205.056V204.58C216.174 202.808 215.041 201.643 212.973 201.643C210.889 201.643 209.904 202.972 209.904 204.547V205.335H211.381V204.81C211.381 203.628 211.857 203.021 212.973 203.021C214.073 203.021 214.598 203.612 214.598 204.711V205.384C214.598 206.024 214.319 206.632 213.121 206.632H212.186V207.912H213.121C214.319 207.912 214.598 208.535 214.598 209.159V210.062C214.598 211.145 214.073 211.752 212.973 211.752C211.857 211.752 211.381 211.145 211.381 209.963V209.438H209.904V210.226C209.904 211.785 210.889 213.131 212.973 213.131C215.041 213.131 216.174 211.965 216.174 210.193ZM224.297 209.963V204.81C224.297 202.923 223.017 201.643 220.95 201.643C218.865 201.643 217.585 202.923 217.585 204.81V209.963C217.585 211.85 218.865 213.131 220.95 213.131C223.017 213.131 224.297 211.85 224.297 209.963ZM222.673 210.078C222.673 210.948 222.049 211.654 220.95 211.654C219.85 211.654 219.21 210.948 219.21 210.078V204.695C219.21 203.825 219.85 203.12 220.95 203.12C222.049 203.12 222.673 203.825 222.673 204.695V210.078Z" fill="#FF6B00"/>
<path d="M33.1082 239.153V228.223H27.9878V232.375H25.4604V228.223H20.3401V239.153H25.4604V235.345H27.9878V239.153H33.1082ZM43.2269 237.43L41.6022 236.067C40.9621 236.511 40.2564 236.757 39.4194 236.757C38.5825 236.757 38.1065 236.494 38.1065 235.805V235.427H43.5223V234.41C43.5223 232.26 42.0125 230.471 38.845 230.471C35.6776 230.471 33.9872 232.276 33.9872 234.607V235.181C33.9872 237.561 35.7104 239.301 38.8943 239.301C41.077 239.301 42.3899 238.578 43.2269 237.43ZM39.5836 234.279H38.1065V234.049C38.1065 233.507 38.2871 232.966 38.845 232.966C39.403 232.966 39.5836 233.507 39.5836 234.049V234.279ZM54.0467 239.202V237.069C53.62 237.069 53.5051 236.888 53.5051 236.56V233.967C53.5051 232.063 52.1266 230.471 49.0904 230.471C47.0554 230.471 45.8245 230.898 44.4132 231.899L45.6112 233.704C46.4482 233.261 47.2195 233.031 48.0565 233.031C49.0084 233.031 49.4679 233.343 49.4679 234.032V234.377C46.399 233.901 43.888 234.787 43.888 236.806V236.872C43.888 238.365 45.2173 239.301 47.0882 239.301C48.4996 239.301 49.3858 238.775 50.1408 237.807C50.7152 238.874 51.3716 239.202 53.0292 239.202H54.0467ZM49.4679 236.232C49.4679 236.822 49.1725 237.249 48.4832 237.249C48.0073 237.249 47.7611 237.003 47.7611 236.576V236.429C47.7611 235.838 48.3847 235.477 49.4679 235.805V236.232ZM64.1516 239.153V227.911H60.0815V231.226C59.5071 230.701 58.9655 230.471 57.9973 230.471C55.9951 230.471 54.5016 232.162 54.5016 234.328V235.28C54.5016 237.528 55.7981 239.301 58.3911 239.301C59.5071 239.301 60.3277 238.825 60.8857 238.119L61.0006 239.153H64.1516ZM60.1143 235.493C60.1143 236.445 59.8354 236.921 59.343 236.921C58.8507 236.921 58.5717 236.445 58.5717 235.493V234.361C58.5717 233.392 58.8507 232.9 59.343 232.9C59.8354 232.9 60.1143 233.392 60.1143 234.361V235.493ZM69.2189 239.153V227.911H65.1488V239.153H69.2189ZM74.3956 230.094V227.747H70.3255V230.094H74.3956ZM74.3956 239.153V230.619H70.3255V239.153H74.3956ZM85.185 239.153V233.294C85.185 231.751 84.348 230.471 82.395 230.471C81.1313 230.471 80.163 231.144 79.3753 232.276L79.244 230.619H75.5022V239.153H79.5722V234.115C79.5722 233.491 79.8676 233.031 80.4256 233.031C80.9344 233.031 81.1149 233.376 81.1149 233.967V239.153H85.185ZM95.202 237.43L93.5773 236.067C92.9372 236.511 92.2315 236.757 91.3945 236.757C90.5576 236.757 90.0816 236.494 90.0816 235.805V235.427H95.4974V234.41C95.4974 232.26 93.9876 230.471 90.8201 230.471C87.6527 230.471 85.9623 232.276 85.9623 234.607V235.181C85.9623 237.561 87.6855 239.301 90.8694 239.301C93.0521 239.301 94.365 238.578 95.202 237.43ZM91.5587 234.279H90.0816V234.049C90.0816 233.507 90.2621 232.966 90.8201 232.966C91.3781 232.966 91.5587 233.507 91.5587 234.049V234.279Z" fill="#FF6B00"/>
<path d="M123.784 239.153V228.223H118.664V232.375H116.136V228.223H111.016V239.153H116.136V235.345H118.664V239.153H123.784ZM136.92 231.751V228.223H124.693V231.751H128.254V239.153H133.358V231.751H136.92ZM149.087 231.489V228.223H137.829V239.153H142.949V235.034H146.166V232.982H142.949V231.489H149.087ZM160.976 234.082V232.949C160.976 229.864 158.678 227.845 155.035 227.845C151.605 227.845 149.488 229.765 149.488 231.866V232.079C149.488 233.885 150.965 235.181 153.492 235.181C154.904 235.181 155.741 234.689 156.528 233.983V234.459C156.528 235.444 155.757 236.511 154.017 236.511C152.901 236.511 151.769 236.166 150.899 235.641L149.406 238.086C150.899 239.005 152.327 239.53 154.559 239.53C158.022 239.53 160.976 237.315 160.976 234.082ZM156.528 232.555C156.135 232.982 155.642 233.294 154.92 233.294C154.05 233.294 153.624 232.851 153.624 232.293V231.997C153.624 231.472 154.132 230.931 155.101 230.931C155.938 230.931 156.528 231.489 156.528 232.211V232.555ZM172.033 236.33V236.15C172.033 235.083 171.393 233.918 168.718 233.606C171.18 233.392 171.902 232.145 171.902 231.078V230.98C171.902 229.404 170.129 227.845 166.716 227.845C164.238 227.845 162.859 228.502 161.366 229.569L162.941 232.014C163.975 231.292 164.976 230.849 166.125 230.849C167.077 230.849 167.471 231.226 167.471 231.686V231.817C167.471 232.326 167.028 232.637 166.207 232.637H165.107V234.722H166.174C167.011 234.722 167.471 235.001 167.471 235.509V235.706C167.471 236.182 167.077 236.527 166.109 236.527C165.009 236.527 163.778 236.035 162.629 235.329L161.021 237.807C162.531 238.825 164.385 239.53 166.502 239.53C170.015 239.53 172.033 237.988 172.033 236.33Z" fill="#FF6B00"/>
<path d="M199.82 239.153V228.223H196.619V232.621H191.499V228.223H188.315V239.153H191.499V234.886H196.619V239.153H199.82ZM212.989 230.668V228.223H201.73V230.668H205.768V239.153H208.968V230.668H212.989ZM224.636 230.57V228.223H214.904V239.153H218.088V234.886H222.338V232.916H218.088V230.57H224.636ZM236.11 235.756V235.395C236.11 233.507 234.764 232.03 232.253 232.03C230.809 232.03 229.841 232.473 228.954 233.228L229.168 230.438H233.878C235.24 230.438 235.765 229.831 235.897 228.223H226.887L226.427 234.377L228.758 234.804C229.414 234.229 230.169 233.885 231.186 233.885C232.549 233.885 233.221 234.59 233.221 235.427V235.674C233.221 236.642 232.532 237.315 230.891 237.315C229.595 237.315 228.396 236.855 227.166 236.15L225.951 237.889C227.346 238.841 228.987 239.514 231.104 239.514C234.157 239.514 236.11 237.856 236.11 235.756ZM247.382 236.281V236.117C247.382 234.984 246.627 233.918 244.477 233.606C246.479 233.343 247.316 232.244 247.316 231.128V231.013C247.316 229.437 245.626 227.862 242.557 227.862C240.505 227.862 239.209 228.502 237.781 229.569L239.045 231.292C240.029 230.537 241.014 230.044 242.212 230.044C243.738 230.044 244.46 230.652 244.46 231.407V231.521C244.46 232.309 243.919 232.818 242.31 232.818H241.096V234.508H242.31C243.788 234.508 244.46 235.034 244.46 235.772V235.903C244.46 236.625 243.82 237.331 242.179 237.331C240.883 237.331 239.783 236.806 238.667 236.1L237.42 237.84C238.963 238.874 240.39 239.514 242.442 239.514C245.527 239.514 247.382 237.906 247.382 236.281Z" fill="#FF6B00"/>
<path d="M272.707 239.153V228.223H269.277V232.572H266.898V228.223H263.468V239.153H266.898V235.198H269.277V239.153H272.707ZM282.46 230.914V228.223H273.762V230.914H276.388V239.153H279.818V230.914H282.46ZM291.132 230.734V228.223H283.517V239.153H286.947V234.919H289.491V232.637H286.947V230.734H291.132ZM299.838 229.519V228.223H291.911V230.849H296.687C294.799 232.834 293.289 236.15 292.978 239.153H296.408C296.67 235.526 297.77 232.588 299.838 229.519ZM304.388 239.153V228.223H302.697C302.697 228.928 302.287 229.585 301.302 229.585V239.153H304.388Z" fill="#FF6B00"/>
<path d="M48.6089 183.036L41.1553 170.078L48.5063 160.265H37.326L31.7187 169.121V160.265H21.0512V183.036H31.7187V178.489L33.8385 175.993L37.326 183.036H48.6089ZM78.4455 183.036V160.265H68.9063V169.257L68.0516 168.163L60.8032 160.265H52.0846V183.036H61.6237V173.873L62.6153 175.241L69.385 183.036H78.4455ZM109.818 172.813V170.454C109.818 164.3 104.758 159.479 96.2105 159.479C87.6286 159.479 82.5342 164.3 82.5342 170.454V172.813C82.5342 178.933 87.6286 183.823 96.2105 183.823C104.758 183.823 109.818 178.933 109.818 172.813ZM98.9799 173.258C98.9799 175.309 98.3645 176.916 96.2105 176.916C94.0565 176.916 93.4069 175.309 93.4069 173.258V170.01C93.4069 167.924 94.0565 166.317 96.2105 166.317C98.3645 166.317 98.9799 167.924 98.9799 170.01V173.258ZM139.219 179.173L134.398 174.454C133.201 175.617 131.081 176.642 128.825 176.642C125.987 176.642 124.106 175.036 124.106 172.574V170.659C124.106 168.197 125.987 166.59 128.825 166.59C130.979 166.59 132.996 167.548 134.398 168.779L139.39 164.095C137.338 161.428 132.859 159.479 127.56 159.479C118.875 159.479 113.234 164.026 113.234 170.522V172.779C113.234 179.275 118.875 183.823 127.56 183.823C132.859 183.823 136.996 181.942 139.219 179.173ZM170.539 183.036L163.085 170.078L170.436 160.265H159.256L153.648 169.121V160.265H142.981V183.036H153.648V178.489L155.768 175.993L159.256 183.036H170.539ZM198.845 172.813V170.454C198.845 164.3 193.785 159.479 185.237 159.479C176.655 159.479 171.561 164.3 171.561 170.454V172.813C171.561 178.933 176.655 183.823 185.237 183.823C193.785 183.823 198.845 178.933 198.845 172.813ZM188.006 173.258C188.006 175.309 187.391 176.916 185.237 176.916C183.083 176.916 182.433 175.309 182.433 173.258V170.01C182.433 167.924 183.083 166.317 185.237 166.317C187.391 166.317 188.006 167.924 188.006 170.01V173.258ZM229.134 174.112V160.265H219.526V173.497C219.526 175.822 218.843 176.848 216.518 176.848C214.227 176.848 213.475 175.822 213.475 173.497V160.265H202.807V174.112C202.807 179.617 206.705 183.823 216.073 183.823C225.476 183.823 229.134 179.617 229.134 174.112ZM258.394 167.616V160.265H232.922V167.616H240.342V183.036H250.975V167.616H258.394Z" fill="#FF6B00"/>
<path opacity="0.4" d="M27.6924 273.908C28.699 274.488 29.2023 275.364 29.2023 276.534C29.2023 277.508 28.8576 278.307 28.1683 278.93C27.4791 279.554 26.6311 279.866 25.6246 279.866H20.7503V268.378H25.2799C26.2646 268.378 27.0907 268.684 27.7581 269.297C28.4364 269.898 28.7756 270.67 28.7756 271.611C28.7756 272.563 28.4145 273.328 27.6924 273.908ZM25.2799 270.495H23.0151V273.022H25.2799C25.63 273.022 25.92 272.902 26.1497 272.661C26.3904 272.42 26.5108 272.119 26.5108 271.758C26.5108 271.397 26.3959 271.097 26.1661 270.856C25.9364 270.615 25.641 270.495 25.2799 270.495ZM25.6246 277.749C26.0075 277.749 26.3248 277.623 26.5764 277.371C26.8281 277.109 26.9539 276.78 26.9539 276.386C26.9539 276.004 26.8281 275.686 26.5764 275.435C26.3248 275.172 26.0075 275.041 25.6246 275.041H23.0151V277.749H25.6246ZM36.1806 271.66H38.2977V279.866H36.1806V278.947C35.6664 279.713 34.8513 280.095 33.7353 280.095C32.8381 280.095 32.0941 279.795 31.5033 279.193C30.9235 278.591 30.6335 277.76 30.6335 276.698V271.66H32.7506V276.436C32.7506 276.983 32.8983 277.404 33.1937 277.699C33.4891 277.984 33.883 278.126 34.3753 278.126C34.9224 278.126 35.36 277.957 35.6883 277.617C36.0165 277.278 36.1806 276.769 36.1806 276.091V271.66ZM44.9304 273.695H43.0759V277.109C43.0759 277.393 43.147 277.601 43.2892 277.732C43.4315 277.864 43.6393 277.94 43.9129 277.962C44.1864 277.973 44.5256 277.967 44.9304 277.946V279.866C43.4752 280.03 42.4468 279.893 41.845 279.455C41.2542 279.018 40.9588 278.236 40.9588 277.109V273.695H39.531V271.66H40.9588V270.002L43.0759 269.362V271.66H44.9304V273.695ZM50.7962 273.695H48.9417V277.109C48.9417 277.393 49.0128 277.601 49.1551 277.732C49.2973 277.864 49.5052 277.94 49.7787 277.962C50.0522 277.973 50.3914 277.967 50.7962 277.946V279.866C49.3411 280.03 48.3126 279.893 47.7108 279.455C47.12 279.018 46.8246 278.236 46.8246 277.109V273.695H45.3968V271.66H46.8246V270.002L48.9417 269.362V271.66H50.7962V273.695ZM59.0238 278.848C58.1813 279.68 57.1528 280.095 55.9384 280.095C54.7239 280.095 53.6955 279.68 52.853 278.848C52.0215 278.006 51.6058 276.977 51.6058 275.763C51.6058 274.548 52.0215 273.525 52.853 272.694C53.6955 271.851 54.7239 271.43 55.9384 271.43C57.1528 271.43 58.1813 271.851 59.0238 272.694C59.8662 273.525 60.2874 274.548 60.2874 275.763C60.2874 276.977 59.8662 278.006 59.0238 278.848ZM54.3465 277.388C54.7732 277.814 55.3038 278.028 55.9384 278.028C56.573 278.028 57.1036 277.814 57.5303 277.388C57.957 276.961 58.1704 276.419 58.1704 275.763C58.1704 275.106 57.957 274.565 57.5303 274.138C57.1036 273.711 56.573 273.498 55.9384 273.498C55.3038 273.498 54.7732 273.711 54.3465 274.138C53.9307 274.565 53.7228 275.106 53.7228 275.763C53.7228 276.419 53.9307 276.961 54.3465 277.388ZM66.3392 271.43C67.2363 271.43 67.9749 271.731 68.5547 272.333C69.1455 272.935 69.441 273.766 69.441 274.827V279.866H67.3239V275.09C67.3239 274.543 67.1762 274.127 66.8808 273.843C66.5854 273.547 66.1915 273.4 65.6991 273.4C65.1521 273.4 64.7144 273.569 64.3862 273.908C64.058 274.248 63.8939 274.756 63.8939 275.435V279.866H61.7768V271.66H63.8939V272.579C64.4081 271.813 65.2232 271.43 66.3392 271.43ZM73.2016 273.99C73.2016 274.209 73.3439 274.39 73.6283 274.532C73.9237 274.663 74.2793 274.784 74.6951 274.893C75.1108 274.992 75.5266 275.123 75.9423 275.287C76.3581 275.44 76.7082 275.703 76.9927 276.075C77.2881 276.447 77.4358 276.912 77.4358 277.47C77.4358 278.312 77.1185 278.963 76.4839 279.423C75.8603 279.871 75.078 280.095 74.1371 280.095C72.4522 280.095 71.3034 279.444 70.6907 278.143L72.5287 277.109C72.7695 277.82 73.3056 278.175 74.1371 278.175C74.892 278.175 75.2695 277.94 75.2695 277.47C75.2695 277.251 75.1218 277.076 74.8264 276.944C74.5419 276.802 74.1918 276.676 73.776 276.567C73.3603 276.458 72.9445 276.321 72.5287 276.157C72.113 275.993 71.7574 275.735 71.462 275.385C71.1775 275.024 71.0353 274.576 71.0353 274.04C71.0353 273.23 71.3307 272.595 71.9215 272.136C72.5233 271.665 73.2673 271.43 74.1535 271.43C74.8209 271.43 75.4281 271.583 75.9752 271.89C76.5222 272.185 76.9544 272.612 77.2717 273.17L75.4664 274.155C75.2038 273.597 74.7662 273.318 74.1535 273.318C73.88 273.318 73.6502 273.378 73.4642 273.498C73.2891 273.618 73.2016 273.783 73.2016 273.99Z" fill="#011627"/>
<rect x="19.6836" y="292.902" width="140.335" height="34.1906" rx="3.41906" fill="#FF6B00"/>
<path d="M64.7019 308.949V307.611C64.7019 305.956 63.5586 304.978 62.0091 304.978H57.9171V314.997H60.9409V311.582H62.0091C63.5586 311.582 64.7019 310.604 64.7019 308.949ZM61.8586 309.13C61.8586 309.476 61.6781 309.611 61.3923 309.611H60.9409V307.114H61.3923C61.6781 307.114 61.8586 307.265 61.8586 307.611V309.13ZM74.6659 314.997V314.952C74.4854 314.471 74.3199 313.959 74.3199 313.327V311.582C74.3199 310.92 73.8987 310.318 72.996 310.153C73.9438 309.912 74.2747 309.326 74.2747 308.709V307.265C74.2747 305.88 73.1314 304.978 71.5217 304.978H67.49V314.997H70.4987V311.206H70.9049C71.3562 311.206 71.4766 311.507 71.4766 311.853V313.448C71.4766 314.17 71.6872 314.997 72.1084 314.997H74.6659ZM71.4014 308.829C71.4014 309.19 71.2509 309.326 70.9501 309.326H70.4987V307.114H70.9501C71.2509 307.114 71.4014 307.249 71.4014 307.611V308.829ZM80.2919 314.997V304.978H77.2832V314.997H80.2919ZM92.989 314.997V304.978H89.228L88.4909 308.513L88.2351 309.867L87.9643 308.513L87.2121 304.978H83.3007V314.997H85.813V309.581L86.1591 311.251L86.9112 314.997H88.882L89.7094 311.251L90.0855 309.581V314.997H92.989ZM102.953 314.997L100.967 304.978H97.5072L95.4763 314.997H98.1992L98.4399 313.598H99.7939L99.9894 314.997H102.953ZM99.5532 311.748H98.7408L99.2071 308.739L99.5532 311.748ZM112.634 314.997V314.952C112.454 314.471 112.288 313.959 112.288 313.327V311.582C112.288 310.92 111.867 310.318 110.964 310.153C111.912 309.912 112.243 309.326 112.243 308.709V307.265C112.243 305.88 111.1 304.978 109.49 304.978H105.458V314.997H108.467V311.206H108.873C109.324 311.206 109.445 311.507 109.445 311.853V313.448C109.445 314.17 109.655 314.997 110.077 314.997H112.634ZM109.37 308.829C109.37 309.19 109.219 309.326 108.918 309.326H108.467V307.114H108.918C109.219 307.114 109.37 307.249 109.37 307.611V308.829ZM122.344 304.978H119.305L118.508 308.242L117.59 304.978H114.431L116.823 311.101V314.997H119.832V311.236L122.344 304.978Z" fill="white"/>
<path d="M203.341 312.154C203.341 309.16 199.505 308.889 199.505 307.565C199.505 307.144 199.731 306.934 200.047 306.934C200.558 306.934 200.663 307.385 200.633 308.167H203.311C203.401 306.497 202.709 304.737 200.107 304.737C197.73 304.737 196.707 306.136 196.707 307.821C196.707 310.664 200.543 311.071 200.543 312.425C200.543 312.846 200.362 313.056 199.911 313.056C199.445 313.056 199.159 312.725 199.204 311.687H196.511C196.391 314.109 197.429 315.253 200.032 315.253C202.378 315.253 203.341 313.733 203.341 312.154ZM212.182 314.997V312.56H209.143V310.95H211.084V308.829H209.143V307.295H212.182V304.978H206.119V314.997H212.182ZM221.938 312.124V311.116H219.125V312.199C219.125 312.59 219.035 312.921 218.538 312.921C218.057 312.921 217.967 312.59 217.967 312.199V307.776C217.967 307.385 218.057 307.054 218.538 307.054C219.035 307.054 219.125 307.385 219.125 307.776V308.859H221.938V307.851C221.938 306.106 220.795 304.722 218.598 304.722C216.146 304.722 214.883 306.166 214.883 308.017V311.958C214.883 313.809 216.146 315.253 218.598 315.253C220.795 315.253 221.938 313.854 221.938 312.124ZM231.851 312.124V307.851C231.851 306.121 230.452 304.737 228.271 304.737C226.074 304.737 224.69 306.121 224.69 307.851V312.124C224.69 313.869 226.074 315.253 228.271 315.253C230.452 315.253 231.851 313.869 231.851 312.124ZM228.767 312.394C228.767 312.725 228.587 312.921 228.271 312.921C227.955 312.921 227.774 312.725 227.774 312.394V307.58C227.774 307.265 227.955 307.054 228.271 307.054C228.587 307.054 228.767 307.265 228.767 307.58V312.394ZM241.985 314.997V304.978H239.322V309.506L238.826 308.333L237.382 304.978H234.779V314.997H237.457V310.288L238.089 311.733L239.488 314.997H241.985ZM252.084 311.958V308.272C252.084 306.392 251.046 304.978 248.594 304.978H244.998V314.997H248.594C251.046 314.997 252.084 313.824 252.084 311.958ZM249.075 311.823C249.075 312.379 248.94 312.695 248.398 312.695H248.007V307.265H248.398C248.94 307.265 249.075 307.595 249.075 308.152V311.823ZM261.713 314.997L259.727 304.978H256.267L254.236 314.997H256.959L257.199 313.598H258.553L258.749 314.997H261.713ZM258.313 311.748H257.5L257.967 308.739L258.313 311.748ZM271.394 314.997V314.952C271.213 314.471 271.048 313.959 271.048 313.327V311.582C271.048 310.92 270.626 310.318 269.724 310.153C270.671 309.912 271.002 309.326 271.002 308.709V307.265C271.002 305.88 269.859 304.978 268.249 304.978H264.218V314.997H267.226V311.206H267.633C268.084 311.206 268.204 311.507 268.204 311.853V313.448C268.204 314.17 268.415 314.997 268.836 314.997H271.394ZM268.129 308.829C268.129 309.19 267.979 309.326 267.678 309.326H267.226V307.114H267.678C267.979 307.114 268.129 307.249 268.129 307.611V308.829ZM281.104 304.978H278.065L277.267 308.242L276.35 304.978H273.19L275.582 311.101V314.997H278.591V311.236L281.104 304.978Z" fill="#FF6B00"/>
<rect x="170.959" y="293.586" width="135.395" height="32.823" rx="2.73525" stroke="#FF6B00" stroke-width="1.36762"/>
<path opacity="0.4" d="M20.0667 351.118H22.3315V362.606H20.0667V351.118ZM28.2656 362.836C27.0292 362.836 25.9953 362.42 25.1638 361.589C24.3432 360.757 23.9329 359.729 23.9329 358.504C23.9329 357.278 24.3432 356.25 25.1638 355.418C25.9953 354.587 27.0292 354.171 28.2656 354.171C29.0643 354.171 29.7918 354.362 30.4483 354.745C31.1048 355.128 31.6026 355.642 31.9417 356.288L30.1201 357.355C29.956 357.016 29.7043 356.748 29.3651 356.551C29.0369 356.354 28.6649 356.255 28.2492 356.255C27.6146 356.255 27.0894 356.469 26.6737 356.895C26.2579 357.311 26.05 357.847 26.05 358.504C26.05 359.149 26.2579 359.685 26.6737 360.112C27.0894 360.528 27.6146 360.736 28.2492 360.736C28.6759 360.736 29.0533 360.643 29.3816 360.457C29.7207 360.26 29.9724 359.992 30.1365 359.652L31.9746 360.703C31.6135 361.348 31.1048 361.868 30.4483 362.262C29.7918 362.645 29.0643 362.836 28.2656 362.836ZM39.9574 361.589C39.1149 362.42 38.0864 362.836 36.872 362.836C35.6575 362.836 34.6291 362.42 33.7866 361.589C32.9551 360.746 32.5394 359.718 32.5394 358.504C32.5394 357.289 32.9551 356.266 33.7866 355.435C34.6291 354.592 35.6575 354.171 36.872 354.171C38.0864 354.171 39.1149 354.592 39.9574 355.435C40.7998 356.266 41.221 357.289 41.221 358.504C41.221 359.718 40.7998 360.746 39.9574 361.589ZM35.2801 360.128C35.7068 360.555 36.2374 360.768 36.872 360.768C37.5066 360.768 38.0372 360.555 38.4639 360.128C38.8906 359.702 39.104 359.16 39.104 358.504C39.104 357.847 38.8906 357.306 38.4639 356.879C38.0372 356.452 37.5066 356.239 36.872 356.239C36.2374 356.239 35.7068 356.452 35.2801 356.879C34.8643 357.306 34.6564 357.847 34.6564 358.504C34.6564 359.16 34.8643 359.702 35.2801 360.128ZM47.2728 354.171C48.1699 354.171 48.9085 354.472 49.4883 355.074C50.0791 355.675 50.3746 356.507 50.3746 357.568V362.606H48.2575V357.831C48.2575 357.284 48.1098 356.868 47.8144 356.583C47.519 356.288 47.1251 356.14 46.6327 356.14C46.0857 356.14 45.648 356.31 45.3198 356.649C44.9916 356.988 44.8275 357.497 44.8275 358.175V362.606H42.7104V354.401H44.8275V355.32C45.3417 354.554 46.1568 354.171 47.2728 354.171ZM54.1352 356.731C54.1352 356.95 54.2775 357.13 54.5619 357.273C54.8573 357.404 55.2129 357.524 55.6287 357.634C56.0444 357.732 56.4602 357.864 56.8759 358.028C57.2917 358.181 57.6418 358.443 57.9263 358.815C58.2217 359.187 58.3694 359.652 58.3694 360.21C58.3694 361.053 58.0521 361.704 57.4175 362.163C56.7939 362.612 56.0116 362.836 55.0707 362.836C53.3858 362.836 52.237 362.185 51.6243 360.883L53.4624 359.849C53.7031 360.56 54.2392 360.916 55.0707 360.916C55.8256 360.916 56.2031 360.681 56.2031 360.21C56.2031 359.992 56.0554 359.816 55.76 359.685C55.4755 359.543 55.1254 359.417 54.7096 359.308C54.2939 359.198 53.8781 359.062 53.4624 358.897C53.0466 358.733 52.691 358.476 52.3956 358.126C52.1111 357.765 51.9689 357.316 51.9689 356.78C51.9689 355.971 52.2643 355.336 52.8551 354.877C53.4569 354.406 54.2009 354.171 55.0871 354.171C55.7545 354.171 56.3617 354.324 56.9088 354.63C57.4558 354.926 57.888 355.353 58.2053 355.911L56.4 356.895C56.1374 356.337 55.6998 356.058 55.0871 356.058C54.8136 356.058 54.5838 356.118 54.3978 356.239C54.2228 356.359 54.1352 356.523 54.1352 356.731Z" fill="#011627"/>
<path d="M32.6773 382.481L25.1554 390.003L21.7363 386.584" stroke="#FF6B00" stroke-width="1.36762" stroke-linecap="round" stroke-linejoin="round"/>
<path d="M63.4479 382.481L55.2422 390.687" stroke="#FF6B00" stroke-width="1.36762" stroke-linecap="round" stroke-linejoin="round"/>
<path d="M55.2422 382.481L63.4479 390.687" stroke="#FF6B00" stroke-width="1.36762" stroke-linecap="round" stroke-linejoin="round"/>
<path d="M87.3828 384.532L91.4857 388.635L95.5886 384.532" stroke="#FF6B00" stroke-width="1.36762" stroke-linecap="round" stroke-linejoin="round"/>
<g clip-path="url(#clip0_364_5010)">
<path d="M129.777 385.216C129.777 390.003 123.623 394.106 123.623 394.106C123.623 394.106 117.469 390.003 117.469 385.216C117.469 383.584 118.117 382.019 119.271 380.865C120.425 379.71 121.991 379.062 123.623 379.062C125.255 379.062 126.821 379.71 127.975 380.865C129.129 382.019 129.777 383.584 129.777 385.216Z" stroke="#FF6B00" stroke-width="1.36762" stroke-linecap="round" stroke-linejoin="round"/>
<path d="M123.624 387.268C124.757 387.268 125.675 386.349 125.675 385.216C125.675 384.083 124.757 383.165 123.624 383.165C122.491 383.165 121.572 384.083 121.572 385.216C121.572 386.349 122.491 387.268 123.624 387.268Z" stroke="#FF6B00" stroke-width="1.36762" stroke-linecap="round" stroke-linejoin="round"/>
</g>
<rect x="19" y="408.466" width="16.4115" height="16.4115" rx="8.20575" fill="#FF6B00"/>
<path d="M27.2051 413.479V419.864" stroke="white" stroke-width="0.912081" stroke-linecap="round" stroke-linejoin="round"/>
<path d="M24.0117 416.671H30.3963" stroke="white" stroke-width="0.912081" stroke-linecap="round" stroke-linejoin="round"/>
<g clip-path="url(#clip1_364_5010)">
<path d="M59.344 423.51C63.1206 423.51 66.1821 420.448 66.1821 416.672C66.1821 412.895 63.1206 409.833 59.344 409.833C55.5674 409.833 52.5059 412.895 52.5059 416.672C52.5059 420.448 55.5674 423.51 59.344 423.51Z" stroke="#FF6B00" stroke-width="1.36762" stroke-linecap="round" stroke-linejoin="round"/>
<path d="M59.3438 412.569V416.672L62.079 418.039" stroke="#FF6B00" stroke-width="1.36762" stroke-linecap="round" stroke-linejoin="round"/>
</g>
<path d="M96.2715 416.671H86.6981" stroke="#FF6B00" stroke-width="1.36762" stroke-linecap="round" stroke-linejoin="round"/>
<path d="M91.4844 411.885L86.6977 416.671L91.4844 421.458" stroke="#FF6B00" stroke-width="1.36762" stroke-linecap="round" stroke-linejoin="round"/>
<path d="M124.382 421.703L123.336 422.749L122.291 421.703C122.164 421.576 121.974 421.576 121.847 421.703C121.72 421.83 121.72 422.02 121.847 422.147L123.115 423.414C123.178 423.478 123.257 423.509 123.336 423.509C123.416 423.509 123.495 423.478 123.558 423.414L124.826 422.147C124.953 422.02 124.953 421.83 124.826 421.703C124.699 421.576 124.509 421.576 124.382 421.703L124.382 421.703Z" fill="#FF6B00"/>
<path d="M124.826 419.96C124.699 419.833 124.509 419.833 124.382 419.96L123.336 421.006L122.291 419.96C122.164 419.833 121.974 419.833 121.847 419.96C121.72 420.087 121.72 420.277 121.847 420.403L123.115 421.671C123.178 421.734 123.257 421.766 123.336 421.766C123.416 421.766 123.495 421.734 123.558 421.671L124.826 420.403C124.953 420.277 124.953 420.087 124.826 419.96H124.826Z" fill="#FF6B00"/>
<path d="M126.188 416.221V413.369C126.188 411.8 124.905 410.517 123.336 410.517C121.768 410.517 120.484 411.8 120.484 413.369V416.221C120.484 417.79 121.768 419.073 123.336 419.073C124.905 419.073 126.188 417.79 126.188 416.221ZM123.336 418.439C122.116 418.439 121.118 417.441 121.118 416.221V413.369C121.118 412.149 122.116 411.151 123.336 411.151C124.556 411.151 125.555 412.149 125.555 413.369V416.221C125.555 417.441 124.556 418.439 123.336 418.439Z" fill="#FF6B00"/>
<path d="M123.336 412.26C123.162 412.26 123.02 412.403 123.02 412.577V413.528C123.02 413.702 123.162 413.845 123.336 413.845C123.511 413.845 123.653 413.702 123.653 413.528V412.577C123.653 412.403 123.511 412.26 123.336 412.26Z" fill="#FF6B00"/>
<circle cx="8.20575" cy="8.20575" r="8.20575" transform="matrix(-1 8.74228e-08 8.74228e-08 1 35.4121 438.554)" fill="white"/>
<path d="M26.5411 448.096L27.877 446.76L26.5411 445.424" stroke="#231F20" stroke-width="0.654091" stroke-linecap="round" stroke-linejoin="round"/>
<circle cx="59.3444" cy="446.759" r="8.20575" fill="white"/>
<path d="M60.0116 448.096L58.6758 446.76L60.0116 445.424" stroke="#231F20" stroke-width="0.654091" stroke-linecap="round" stroke-linejoin="round"/>
<path opacity="0.4" d="M25.5154 490.709C23.7867 490.709 22.3589 490.135 21.232 488.986C20.105 487.837 19.5416 486.42 19.5416 484.735C19.5416 483.04 20.105 481.623 21.232 480.485C22.3589 479.336 23.7867 478.762 25.5154 478.762C26.5548 478.762 27.5121 479.008 28.3874 479.5C29.2736 479.982 29.9629 480.638 30.4552 481.47L28.5023 482.602C28.2178 482.088 27.813 481.688 27.2878 481.404C26.7626 481.109 26.1718 480.961 25.5154 480.961C24.3994 480.961 23.4968 481.311 22.8075 482.011C22.1291 482.711 21.79 483.619 21.79 484.735C21.79 485.841 22.1291 486.743 22.8075 487.443C23.4968 488.144 24.3994 488.494 25.5154 488.494C26.1718 488.494 26.7626 488.351 27.2878 488.067C27.8239 487.772 28.2287 487.372 28.5023 486.869L30.4552 488.001C29.9629 488.833 29.2791 489.495 28.4038 489.987C27.5285 490.469 26.5657 490.709 25.5154 490.709ZM36.4386 482.044C37.3358 482.044 38.0743 482.345 38.6542 482.947C39.245 483.548 39.5404 484.38 39.5404 485.441V490.479H37.4233V485.704C37.4233 485.157 37.2756 484.741 36.9802 484.456C36.6848 484.161 36.2909 484.013 35.7986 484.013C35.2515 484.013 34.8139 484.183 34.4857 484.522C34.1574 484.861 33.9933 485.37 33.9933 486.048V490.479H31.8762V478.991H33.9933V483.193C34.5075 482.427 35.3226 482.044 36.4386 482.044ZM42.3984 481.289C42.0483 481.289 41.742 481.163 41.4794 480.912C41.2278 480.649 41.1019 480.343 41.1019 479.993C41.1019 479.642 41.2278 479.336 41.4794 479.073C41.742 478.811 42.0483 478.68 42.3984 478.68C42.7595 478.68 43.0658 478.811 43.3175 479.073C43.5801 479.336 43.7114 479.642 43.7114 479.993C43.7114 480.343 43.5801 480.649 43.3175 480.912C43.0658 481.163 42.7595 481.289 42.3984 481.289ZM41.3481 490.479V482.274H43.4652V490.479H41.3481ZM50.1786 482.044C51.2837 482.044 52.2246 482.465 53.0014 483.308C53.7892 484.139 54.1831 485.162 54.1831 486.377C54.1831 487.591 53.7892 488.62 53.0014 489.462C52.2246 490.293 51.2837 490.709 50.1786 490.709C49.0298 490.709 48.1436 490.31 47.52 489.511V493.762H45.4029V482.274H47.52V483.242C48.1436 482.443 49.0298 482.044 50.1786 482.044ZM48.16 488.051C48.5867 488.477 49.1283 488.691 49.7848 488.691C50.4412 488.691 50.9828 488.477 51.4095 488.051C51.8471 487.613 52.066 487.055 52.066 486.377C52.066 485.698 51.8471 485.146 51.4095 484.719C50.9828 484.281 50.4412 484.063 49.7848 484.063C49.1283 484.063 48.5867 484.281 48.16 484.719C47.7333 485.146 47.52 485.698 47.52 486.377C47.52 487.055 47.7333 487.613 48.16 488.051ZM57.4528 484.604C57.4528 484.823 57.595 485.004 57.8795 485.146C58.1749 485.277 58.5305 485.397 58.9462 485.507C59.362 485.605 59.7777 485.737 60.1935 485.901C60.6093 486.054 60.9594 486.316 61.2438 486.688C61.5392 487.06 61.6869 487.525 61.6869 488.083C61.6869 488.926 61.3697 489.577 60.7351 490.036C60.1114 490.485 59.3292 490.709 58.3882 490.709C56.7033 490.709 55.5545 490.058 54.9418 488.756L56.7799 487.722C57.0206 488.434 57.5567 488.789 58.3882 488.789C59.1432 488.789 59.5206 488.554 59.5206 488.083C59.5206 487.865 59.3729 487.69 59.0775 487.558C58.7931 487.416 58.4429 487.29 58.0272 487.181C57.6114 487.071 57.1957 486.935 56.7799 486.77C56.3642 486.606 56.0086 486.349 55.7132 485.999C55.4287 485.638 55.2865 485.19 55.2865 484.653C55.2865 483.844 55.5819 483.209 56.1727 482.75C56.7744 482.279 57.5184 482.044 58.4047 482.044C59.0721 482.044 59.6793 482.197 60.2263 482.504C60.7734 482.799 61.2055 483.226 61.5228 483.784L59.7176 484.768C59.455 484.21 59.0173 483.931 58.4047 483.931C58.1311 483.931 57.9014 483.991 57.7154 484.112C57.5403 484.232 57.4528 484.396 57.4528 484.604Z" fill="#011627"/>
<rect x="19.6838" y="545.912" width="142.233" height="29.4039" rx="14.702" fill="#FF6B00" fill-opacity="0.2"/>
<path d="M61.4577 556.512L53.252 564.717" stroke="#FF6B00" stroke-width="1.36762" stroke-linecap="round" stroke-linejoin="round"/>
<path d="M53.252 556.512L61.4577 564.717" stroke="#FF6B00" stroke-width="1.36762" stroke-linecap="round" stroke-linejoin="round"/>
<path d="M83.6553 555.506H81.9731L79.1695 562.672L76.3385 555.506H74.6426L78.4173 564.614H79.7849L83.6553 555.506ZM89.7683 561.537V560.935C89.7683 559.267 88.6605 558.063 86.7458 558.063C84.8311 558.063 83.6823 559.294 83.6823 560.908V561.934C83.6823 563.63 84.9679 564.724 86.8005 564.724C88.2092 564.724 89.1802 564.108 89.7135 562.823L88.5374 562.412C88.2912 563.11 87.7168 563.643 86.8826 563.643C85.8158 563.643 85.1183 563 85.1183 562.153V561.537H89.7683ZM88.3869 560.785H85.1183V560.511C85.1183 559.746 85.7611 559.144 86.7732 559.144C87.7442 559.144 88.3869 559.8 88.3869 560.511V560.785ZM95.2813 559.499V558.173C93.9273 558.022 93.2025 558.351 92.6828 559.691L92.6281 558.214H91.3562V564.614H92.8195V560.621C92.8195 559.814 93.5717 559.212 95.2813 559.499ZM105.356 559.759C104.822 558.692 104.002 558.063 102.525 558.063C100.761 558.063 99.7623 559.075 99.7623 560.033C99.7623 562.371 104.029 561.455 104.029 562.795C104.029 563.315 103.564 563.643 102.593 563.643C101.704 563.643 100.979 563.233 100.583 562.467L99.4751 563.055C100.008 563.985 100.952 564.724 102.525 564.724C104.522 564.724 105.37 563.657 105.37 562.727C105.37 560.306 101.089 561.25 101.089 559.937C101.089 559.513 101.65 559.144 102.539 559.144C103.359 559.144 103.934 559.581 104.18 560.156L105.356 559.759ZM108.325 557.106V555.807H106.93V557.106H108.325ZM108.366 564.614V558.214H106.889V564.614H108.366ZM113.726 559.308V558.255H112.358V556.614L110.909 557.106V558.255H109.76V559.308H110.881V562.59C110.881 563.493 111.032 564.136 111.415 564.614H113.056C112.577 564.067 112.358 563.37 112.358 562.59V559.308H113.726ZM116.565 557.106V555.807H115.17V557.106H116.565ZM116.606 564.614V558.214H115.129V564.614H116.606ZM124.551 561.852V560.963C124.551 559.13 123.17 558.063 121.406 558.063C119.642 558.063 118.26 559.13 118.26 560.963V561.852C118.26 563.684 119.642 564.724 121.406 564.724C123.17 564.724 124.551 563.684 124.551 561.852ZM123.102 561.893C123.102 562.987 122.486 563.643 121.406 563.643C120.325 563.643 119.71 562.987 119.71 561.893V560.908C119.71 559.814 120.325 559.144 121.406 559.144C122.486 559.144 123.102 559.814 123.102 560.908V561.893ZM131.466 559.759C130.933 558.692 130.112 558.063 128.635 558.063C126.871 558.063 125.873 559.075 125.873 560.033C125.873 562.371 130.14 561.455 130.14 562.795C130.14 563.315 129.675 563.643 128.704 563.643C127.815 563.643 127.09 563.233 126.693 562.467L125.585 563.055C126.119 563.985 127.063 564.724 128.635 564.724C130.632 564.724 131.48 563.657 131.48 562.727C131.48 560.306 127.199 561.25 127.199 559.937C127.199 559.513 127.76 559.144 128.649 559.144C129.47 559.144 130.044 559.581 130.29 560.156L131.466 559.759Z" fill="#FF6B00"/>
<rect x="19.6838" y="545.912" width="142.233" height="29.4039" rx="14.702" stroke="#FF6B00" stroke-width="1.36762"/>
<path d="M55.6247 522.901V513.793H53.4502L50.9474 519.797L50.5235 520.905L50.0995 519.783L47.5694 513.793H45.3812V522.901H46.8582V515.831L47.3096 516.993L49.908 522.901H51.0432L53.669 516.993L54.1203 515.831V522.901H55.6247ZM63.7925 522.901V516.501H62.3292V519.77C62.3292 520.782 61.4812 521.93 60.4555 521.93C59.6213 521.93 59.1563 521.465 59.1563 520.604V516.501H57.6793V520.754C57.6793 522.108 58.4451 523.011 59.9222 523.011C61.0573 523.011 61.8915 522.464 62.4659 521.26L62.5206 522.901H63.7925ZM62.4659 513.355H60.9068L60.223 515.393H61.112L62.4659 513.355ZM70.9316 518.046C70.3983 516.98 69.5777 516.35 68.1007 516.35C66.3364 516.35 65.3381 517.362 65.3381 518.32C65.3381 520.658 69.605 519.742 69.605 521.082C69.605 521.602 69.1401 521.93 68.169 521.93C67.2801 521.93 66.5552 521.52 66.1586 520.754L65.0509 521.342C65.5842 522.272 66.5279 523.011 68.1007 523.011C70.0974 523.011 70.9453 521.944 70.9453 521.014C70.9453 518.593 66.6647 519.537 66.6647 518.224C66.6647 517.8 67.2254 517.431 68.1143 517.431C68.9349 517.431 69.5093 517.869 69.7555 518.443L70.9316 518.046ZM73.9007 515.393V514.094H72.5057V515.393H73.9007ZM73.9417 522.901V516.501H72.4647V522.901H73.9417ZM81.6405 521.069L80.437 520.658C80.2318 521.342 79.6301 521.889 78.7958 521.889C77.7974 521.889 77.0316 521.288 77.0316 520.125V519.222C77.0316 518.128 77.7701 517.472 78.7958 517.472C79.6301 517.472 80.2045 517.951 80.4096 518.675L81.6405 518.361C81.2986 517.062 80.2455 516.35 78.7685 516.35C76.9769 516.35 75.5956 517.568 75.5956 519.277V520.139C75.5956 521.848 76.9085 523.011 78.7411 523.011C80.1498 523.011 81.1071 522.354 81.6405 521.069ZM89.1957 523.011V521.985C88.6487 521.985 88.5119 521.848 88.5119 521.493V518.949C88.5119 517.39 87.6503 516.35 85.7493 516.35C84.4774 516.35 83.6022 516.966 83.0414 517.992L84.0945 518.539C84.5048 517.855 84.9835 517.458 85.8177 517.458C86.6656 517.458 87.117 517.937 87.117 518.757V519.25C84.751 518.908 82.6858 519.469 82.6858 521.11V521.164C82.6858 522.313 83.6158 523.011 84.9835 523.011C85.9545 523.011 86.8708 522.614 87.4589 521.903C87.4315 522.737 88.0196 523.011 88.676 523.011H89.1957ZM87.117 520.686C87.117 521.411 86.1049 521.93 85.2433 521.93C84.5458 521.93 84.1082 521.547 84.1082 521.096V521.069C84.1082 520.207 85.1612 519.811 87.117 520.111V520.686ZM99.8319 519.824V519.222C99.8319 517.554 98.7241 516.35 96.8095 516.35C94.8948 516.35 93.746 517.581 93.746 519.195V520.221C93.746 521.917 95.0315 523.011 96.8642 523.011C98.2728 523.011 99.2438 522.395 99.7772 521.11L98.601 520.699C98.3549 521.397 97.7805 521.93 96.9462 521.93C95.8795 521.93 95.182 521.288 95.182 520.44V519.824H99.8319ZM98.4506 519.072H95.182V518.798C95.182 518.033 95.8248 517.431 96.8368 517.431C97.8078 517.431 98.4506 518.087 98.4506 518.798V519.072ZM107.533 522.901V518.634C107.533 517.308 106.767 516.35 105.386 516.35C104.278 516.35 103.376 516.939 102.746 518.333L102.705 516.501H101.42V522.901H102.897V519.715C102.897 518.703 103.813 517.431 104.839 517.431C105.646 517.431 106.056 517.896 106.056 518.757V522.901H107.533ZM118.866 516.501H117.362L116.144 519.879L115.556 521.452L114.968 519.879L113.737 516.501H112.165L114.859 522.901H116.158L118.866 516.501ZM121.474 515.393V514.094H120.079V515.393H121.474ZM121.515 522.901V516.501H120.038V522.901H121.515ZM129.35 516.501H127.846L126.629 519.879L126.041 521.452L125.453 519.879L124.222 516.501H122.649L125.343 522.901H126.642L129.35 516.501ZM136.418 520.139V519.25C136.418 517.417 135.037 516.35 133.272 516.35C131.508 516.35 130.127 517.417 130.127 519.25V520.139C130.127 521.971 131.508 523.011 133.272 523.011C135.037 523.011 136.418 521.971 136.418 520.139ZM134.968 520.18C134.968 521.274 134.353 521.93 133.272 521.93C132.192 521.93 131.577 521.274 131.577 520.18V519.195C131.577 518.101 132.192 517.431 133.272 517.431C134.353 517.431 134.968 518.101 134.968 519.195V520.18Z" fill="#FF6B00"/>
<rect x="19.6838" y="504.199" width="142.233" height="29.4039" rx="14.702" stroke="#FF6B00" stroke-width="1.36762"/>
<rect x="173.543" y="504.199" width="142.233" height="29.4039" rx="14.702" fill="#FF6B00" fill-opacity="0.2"/>
<path d="M231.003 514.799L223.482 522.321L220.062 518.902" stroke="#FF6B00" stroke-width="1.36762" stroke-linecap="round" stroke-linejoin="round"/>
<path d="M252.993 519.332V517.349C252.993 515.284 251.502 513.506 248.863 513.506C246.223 513.506 244.733 515.284 244.733 517.349V519.332C244.733 521.383 246.223 523.189 248.863 523.189C251.502 523.189 252.993 521.383 252.993 519.332ZM251.407 519.346C251.407 520.699 250.531 521.821 248.863 521.821C247.194 521.821 246.319 520.699 246.319 519.346V517.335C246.319 515.981 247.194 514.873 248.863 514.873C250.531 514.873 251.407 515.981 251.407 517.335V519.346ZM258.107 517.595V516.542H256.739V514.901L255.29 515.393V516.542H254.141V517.595H255.262V520.877C255.262 521.78 255.413 522.423 255.796 522.901H257.437C256.958 522.354 256.739 521.657 256.739 520.877V517.595H258.107ZM263.435 517.786V516.46C262.081 516.309 261.356 516.638 260.837 517.978L260.782 516.501H259.51V522.901H260.974V518.908C260.974 518.101 261.726 517.499 263.435 517.786ZM270.668 520.139V519.25C270.668 517.417 269.287 516.35 267.523 516.35C265.759 516.35 264.377 517.417 264.377 519.25V520.139C264.377 521.971 265.759 523.011 267.523 523.011C269.287 523.011 270.668 521.971 270.668 520.139ZM269.219 520.18C269.219 521.274 268.603 521.93 267.523 521.93C266.442 521.93 265.827 521.274 265.827 520.18V519.195C265.827 518.101 266.442 517.431 267.523 517.431C268.603 517.431 269.219 518.101 269.219 519.195V520.18Z" fill="#FF6B00"/>
<rect x="173.543" y="504.199" width="142.233" height="29.4039" rx="14.702" stroke="#FF6B00" stroke-width="1.36762"/>
<defs>
<clipPath id="clip0_364_5010">
<rect width="16.4115" height="16.4115" fill="white" transform="translate(115.418 378.378)"/>
</clipPath>
<clipPath id="clip1_364_5010">
<rect width="16.4115" height="16.4115" fill="white" transform="translate(51.1387 408.466)"/>
</clipPath>
</defs>
</svg>
