<svg width="201" height="34" viewBox="0 0 201 34" fill="none" xmlns="http://www.w3.org/2000/svg">
<path d="M17.352 26L16.272 22.364H7.884L6.804 26H-0.18L8.136 0.799998H15.984L24.3 26H17.352ZM9.54 16.82H14.616L12.06 8.252L9.54 16.82ZM36.9683 7.496C39.3683 7.496 41.3723 8.408 42.9803 10.232C44.6123 12.032 45.4283 14.288 45.4283 17C45.4283 19.712 44.6123 21.98 42.9803 23.804C41.3723 25.604 39.3683 26.504 36.9683 26.504C34.7843 26.504 33.0803 25.784 31.8563 24.344V33.2H25.8803V8H31.8563V9.656C33.0803 8.216 34.7843 7.496 36.9683 7.496ZM32.9003 19.844C33.5963 20.564 34.5083 20.924 35.6363 20.924C36.7643 20.924 37.6763 20.564 38.3723 19.844C39.0683 19.124 39.4163 18.176 39.4163 17C39.4163 15.824 39.0683 14.876 38.3723 14.156C37.6763 13.436 36.7643 13.076 35.6363 13.076C34.5083 13.076 33.5963 13.436 32.9003 14.156C32.2043 14.876 31.8563 15.824 31.8563 17C31.8563 18.176 32.2043 19.124 32.9003 19.844ZM59.1168 7.496C61.5168 7.496 63.5208 8.408 65.1288 10.232C66.7608 12.032 67.5768 14.288 67.5768 17C67.5768 19.712 66.7608 21.98 65.1288 23.804C63.5208 25.604 61.5168 26.504 59.1168 26.504C56.9328 26.504 55.2288 25.784 54.0048 24.344V33.2H48.0288V8H54.0048V9.656C55.2288 8.216 56.9328 7.496 59.1168 7.496ZM55.0488 19.844C55.7448 20.564 56.6568 20.924 57.7848 20.924C58.9128 20.924 59.8248 20.564 60.5208 19.844C61.2168 19.124 61.5648 18.176 61.5648 17C61.5648 15.824 61.2168 14.876 60.5208 14.156C59.8248 13.436 58.9128 13.076 57.7848 13.076C56.6568 13.076 55.7448 13.436 55.0488 14.156C54.3528 14.876 54.0048 15.824 54.0048 17C54.0048 18.176 54.3528 19.124 55.0488 19.844ZM84.3095 11.348C84.6455 10.172 85.3175 9.26 86.3255 8.612C87.3335 7.964 88.4615 7.64 89.7095 7.64V14.264C88.3415 14.048 87.0935 14.3 85.9655 15.02C84.8615 15.74 84.3095 16.916 84.3095 18.548V26H78.3335V8H84.3095V11.348ZM96.8451 19.196C97.4451 20.66 98.7891 21.392 100.877 21.392C102.173 21.392 103.265 20.972 104.153 20.132L108.473 23.156C106.697 25.388 104.117 26.504 100.733 26.504C97.6851 26.504 95.2371 25.616 93.3891 23.84C91.5651 22.04 90.6531 19.772 90.6531 17.036C90.6531 14.324 91.5531 12.056 93.3531 10.232C95.1531 8.408 97.4451 7.496 100.229 7.496C102.917 7.496 105.137 8.396 106.889 10.196C108.641 11.996 109.517 14.252 109.517 16.964C109.517 17.756 109.433 18.5 109.265 19.196H96.8451ZM96.7731 15.056H103.685C103.205 13.376 102.077 12.536 100.301 12.536C98.4531 12.536 97.2771 13.376 96.7731 15.056ZM120.725 26.504C117.989 26.504 115.709 25.592 113.885 23.768C112.061 21.944 111.149 19.688 111.149 17C111.149 14.312 112.061 12.056 113.885 10.232C115.709 8.408 117.989 7.496 120.725 7.496C122.501 7.496 124.109 7.916 125.549 8.756C127.013 9.596 128.141 10.724 128.933 12.14L123.821 15.092C123.173 13.916 122.129 13.328 120.689 13.328C119.681 13.328 118.841 13.676 118.169 14.372C117.497 15.044 117.161 15.92 117.161 17C117.161 18.08 117.497 18.968 118.169 19.664C118.841 20.336 119.681 20.672 120.689 20.672C122.177 20.672 123.221 20.072 123.821 18.872L128.933 21.824C128.141 23.264 127.013 24.404 125.549 25.244C124.109 26.084 122.501 26.504 120.725 26.504ZM135.833 19.196C136.433 20.66 137.777 21.392 139.865 21.392C141.161 21.392 142.253 20.972 143.141 20.132L147.461 23.156C145.685 25.388 143.105 26.504 139.721 26.504C136.673 26.504 134.225 25.616 132.377 23.84C130.553 22.04 129.641 19.772 129.641 17.036C129.641 14.324 130.541 12.056 132.341 10.232C134.141 8.408 136.433 7.496 139.217 7.496C141.905 7.496 144.125 8.396 145.877 10.196C147.629 11.996 148.505 14.252 148.505 16.964C148.505 17.756 148.421 18.5 148.253 19.196H135.833ZM135.761 15.056H142.673C142.193 13.376 141.065 12.536 139.289 12.536C137.441 12.536 136.265 13.376 135.761 15.056ZM161.775 13.724H158.031V18.944C158.031 19.736 158.319 20.228 158.895 20.42C159.471 20.612 160.431 20.672 161.775 20.6V26C158.199 26.432 155.679 26.108 154.215 25.028C152.775 23.924 152.055 21.944 152.055 19.088V13.724H149.355V8H152.055V4.76L158.031 2.96V8H161.775V13.724ZM176.928 8H182.904V26H176.928V24.344C175.704 25.784 174 26.504 171.816 26.504C169.416 26.504 167.4 25.604 165.768 23.804C164.16 21.98 163.356 19.712 163.356 17C163.356 14.288 164.16 12.032 165.768 10.232C167.4 8.408 169.416 7.496 171.816 7.496C174 7.496 175.704 8.216 176.928 9.656V8ZM170.412 19.844C171.108 20.564 172.02 20.924 173.148 20.924C174.276 20.924 175.188 20.564 175.884 19.844C176.58 19.124 176.928 18.176 176.928 17C176.928 15.824 176.58 14.876 175.884 14.156C175.188 13.436 174.276 13.076 173.148 13.076C172.02 13.076 171.108 13.436 170.412 14.156C169.716 14.876 169.368 15.824 169.368 17C169.368 18.176 169.716 19.124 170.412 19.844ZM191.987 13.256C191.987 13.592 192.287 13.868 192.887 14.084C193.511 14.3 194.255 14.504 195.119 14.696C196.007 14.888 196.883 15.164 197.747 15.524C198.635 15.86 199.379 16.448 199.979 17.288C200.603 18.128 200.915 19.184 200.915 20.456C200.915 22.52 200.147 24.044 198.611 25.028C197.075 26.012 195.251 26.504 193.139 26.504C189.107 26.504 186.419 25.076 185.075 22.22L190.295 19.592C190.751 20.912 191.687 21.572 193.103 21.572C194.183 21.572 194.723 21.248 194.723 20.6C194.723 20.264 194.423 19.988 193.823 19.772C193.223 19.556 192.491 19.34 191.627 19.124C190.763 18.908 189.899 18.62 189.035 18.26C188.171 17.9 187.439 17.324 186.839 16.532C186.239 15.716 185.939 14.72 185.939 13.544C185.939 11.624 186.647 10.136 188.063 9.08C189.479 8.024 191.183 7.496 193.175 7.496C196.727 7.496 199.199 8.888 200.591 11.672L195.551 13.94C195.023 12.908 194.279 12.392 193.319 12.392C192.431 12.392 191.987 12.68 191.987 13.256Z" fill="#011627"/>
</svg>
