<svg width="335" height="700" viewBox="0 0 335 700" fill="none" xmlns="http://www.w3.org/2000/svg">
<rect width="335" height="700" fill="#F6F6F6"/>
<rect width="295" height="150" transform="translate(20 100)" fill="#0C2340"/>
<path d="M245.136 226.6H243.344L243.088 228.2H244.88L244.672 229.56H242.864L242.416 232.2H240.992L241.44 229.56H239.648L239.2 232.2H237.776L238.224 229.56H236.4L236.624 228.2H238.448L238.704 226.6H236.88L237.104 225.24H238.944L239.376 222.6H240.8L240.368 225.24H242.16L242.592 222.6H244.016L243.584 225.24H245.36L245.136 226.6ZM241.664 228.2L241.92 226.6H240.128L239.872 228.2H241.664ZM254.038 231.624C253.27 232.68 252.192 233.208 250.806 233.208C249.419 233.208 248.336 232.68 247.558 231.624C246.79 230.568 246.406 229.16 246.406 227.4C246.406 225.64 246.79 224.232 247.558 223.176C248.336 222.12 249.419 221.592 250.806 221.592C252.192 221.592 253.27 222.12 254.038 223.176C254.816 224.232 255.206 225.64 255.206 227.4C255.206 229.16 254.816 230.568 254.038 231.624ZM250.806 231.416C251.638 231.416 252.272 231.069 252.71 230.376C253.147 229.683 253.366 228.691 253.366 227.4C253.366 226.109 253.147 225.117 252.71 224.424C252.272 223.731 251.638 223.384 250.806 223.384C249.984 223.384 249.35 223.731 248.902 224.424C248.464 225.117 248.246 226.109 248.246 227.4C248.246 228.691 248.464 229.683 248.902 230.376C249.35 231.069 249.984 231.416 250.806 231.416ZM262.26 233.208C260.574 233.208 259.177 232.653 258.068 231.544C256.958 230.424 256.404 229.043 256.404 227.4C256.404 225.757 256.958 224.381 258.068 223.272C259.177 222.152 260.574 221.592 262.26 221.592C263.273 221.592 264.206 221.832 265.06 222.312C265.924 222.792 266.596 223.443 267.076 224.264L265.476 225.192C265.177 224.637 264.74 224.2 264.164 223.88C263.598 223.549 262.964 223.384 262.26 223.384C261.065 223.384 260.094 223.763 259.348 224.52C258.612 225.277 258.244 226.237 258.244 227.4C258.244 228.563 258.612 229.523 259.348 230.28C260.094 231.037 261.065 231.416 262.26 231.416C262.964 231.416 263.604 231.256 264.18 230.936C264.756 230.605 265.188 230.163 265.476 229.608L267.076 230.52C266.606 231.341 265.94 231.997 265.076 232.488C264.222 232.968 263.284 233.208 262.26 233.208ZM267.902 233V231.56L271.806 227.576C272.756 226.627 273.23 225.805 273.23 225.112C273.23 224.568 273.065 224.147 272.734 223.848C272.414 223.539 272.004 223.384 271.502 223.384C270.564 223.384 269.87 223.848 269.422 224.776L267.87 223.864C268.222 223.117 268.718 222.552 269.358 222.168C269.998 221.784 270.708 221.592 271.486 221.592C272.468 221.592 273.31 221.901 274.014 222.52C274.718 223.139 275.07 223.981 275.07 225.048C275.07 226.189 274.436 227.405 273.166 228.696L270.638 231.224H275.278V233H267.902ZM281.063 226.376C281.873 226.568 282.529 226.947 283.031 227.512C283.543 228.067 283.799 228.765 283.799 229.608C283.799 230.728 283.42 231.608 282.663 232.248C281.905 232.888 280.977 233.208 279.879 233.208C279.025 233.208 278.257 233.011 277.575 232.616C276.903 232.221 276.417 231.645 276.119 230.888L277.687 229.976C278.017 230.936 278.748 231.416 279.879 231.416C280.519 231.416 281.025 231.256 281.399 230.936C281.772 230.605 281.959 230.163 281.959 229.608C281.959 229.053 281.772 228.616 281.399 228.296C281.025 227.976 280.519 227.816 279.879 227.816H279.463L278.727 226.712L281.143 223.528H276.455V221.8H283.335V223.368L281.063 226.376ZM293.68 229.272V230.984H292.4V233H290.544V230.984H285.04V229.272L288.896 221.8H290.896L287.04 229.272H290.544V226.36H292.4V229.272H293.68ZM302.225 231.624C301.457 232.68 300.38 233.208 298.993 233.208C297.606 233.208 296.524 232.68 295.745 231.624C294.977 230.568 294.593 229.16 294.593 227.4C294.593 225.64 294.977 224.232 295.745 223.176C296.524 222.12 297.606 221.592 298.993 221.592C300.38 221.592 301.457 222.12 302.225 223.176C303.004 224.232 303.393 225.64 303.393 227.4C303.393 229.16 303.004 230.568 302.225 231.624ZM298.993 231.416C299.825 231.416 300.46 231.069 300.897 230.376C301.334 229.683 301.553 228.691 301.553 227.4C301.553 226.109 301.334 225.117 300.897 224.424C300.46 223.731 299.825 223.384 298.993 223.384C298.172 223.384 297.537 223.731 297.089 224.424C296.652 225.117 296.433 226.109 296.433 227.4C296.433 228.691 296.652 229.683 297.089 230.376C297.537 231.069 298.172 231.416 298.993 231.416Z" fill="white"/>
<rect width="147.5" height="80" transform="translate(20 250)" fill="#EFF5FC"/>
<path d="M102.636 306.6H100.844L100.588 308.2H102.38L102.172 309.56H100.364L99.916 312.2H98.492L98.94 309.56H97.148L96.7 312.2H95.276L95.724 309.56H93.9L94.124 308.2H95.948L96.204 306.6H94.38L94.604 305.24H96.444L96.876 302.6H98.3L97.868 305.24H99.66L100.092 302.6H101.516L101.084 305.24H102.86L102.636 306.6ZM99.164 308.2L99.42 306.6H97.628L97.372 308.2H99.164ZM106.226 311.24H111.186V313H104.386V301.8H111.106V303.56H106.226V306.472H110.706V308.216H106.226V311.24ZM119.43 303.56H114.71V306.696H119.27V308.456H114.71V313H112.87V301.8H119.43V303.56ZM127.711 303.56H122.991V306.696H127.551V308.456H122.991V313H121.151V301.8H127.711V303.56ZM132.713 306.024C133.779 306.024 134.681 306.344 135.417 306.984C136.153 307.613 136.521 308.488 136.521 309.608C136.521 310.728 136.142 311.608 135.385 312.248C134.627 312.888 133.699 313.208 132.601 313.208C131.715 313.208 130.931 313.005 130.249 312.6C129.566 312.184 129.081 311.587 128.793 310.808L130.377 309.896C130.675 310.909 131.417 311.416 132.601 311.416C133.23 311.416 133.731 311.256 134.105 310.936C134.489 310.605 134.681 310.163 134.681 309.608C134.681 309.053 134.494 308.616 134.121 308.296C133.747 307.976 133.251 307.816 132.633 307.816H129.368L129.801 301.8H136.041V303.528H131.497L131.305 306.024H132.713ZM144.711 303.56H139.991V306.696H144.551V308.456H139.991V313H138.151V301.8H144.711V303.56ZM151.729 313.208C150.043 313.208 148.646 312.653 147.537 311.544C146.427 310.424 145.873 309.043 145.873 307.4C145.873 305.757 146.427 304.381 147.537 303.272C148.646 302.152 150.043 301.592 151.729 301.592C152.742 301.592 153.675 301.832 154.529 302.312C155.393 302.792 156.065 303.443 156.545 304.264L154.945 305.192C154.646 304.637 154.209 304.2 153.633 303.88C153.067 303.549 152.433 303.384 151.729 303.384C150.534 303.384 149.563 303.763 148.817 304.52C148.081 305.277 147.713 306.237 147.713 307.4C147.713 308.563 148.081 309.523 148.817 310.28C149.563 311.037 150.534 311.416 151.729 311.416C152.433 311.416 153.073 311.256 153.649 310.936C154.225 310.605 154.657 310.163 154.945 309.608L156.545 310.52C156.075 311.341 155.409 311.997 154.545 312.488C153.691 312.968 152.753 313.208 151.729 313.208Z" fill="#011627"/>
<rect width="147.5" height="80" transform="translate(167.5 250)" fill="#919EAE"/>
<path d="M253.136 306.6H251.344L251.088 308.2H252.88L252.672 309.56H250.864L250.416 312.2H248.992L249.44 309.56H247.648L247.2 312.2H245.776L246.224 309.56H244.4L244.624 308.2H246.448L246.704 306.6H244.88L245.104 305.24H246.944L247.376 302.6H248.8L248.368 305.24H250.16L250.592 302.6H252.016L251.584 305.24H253.36L253.136 306.6ZM249.664 308.2L249.92 306.6H248.128L247.872 308.2H249.664ZM262.086 305.416C262.086 306.269 261.862 307.021 261.414 307.672L257.878 313H255.766L258.326 309.24H258.134C256.971 309.24 256.016 308.888 255.27 308.184C254.534 307.469 254.166 306.547 254.166 305.416C254.166 304.285 254.534 303.368 255.27 302.664C256.016 301.949 256.971 301.592 258.134 301.592C259.296 301.592 260.246 301.949 260.982 302.664C261.718 303.368 262.086 304.285 262.086 305.416ZM256.006 305.416C256.006 306.035 256.203 306.536 256.598 306.92C257.003 307.304 257.515 307.496 258.134 307.496C258.752 307.496 259.259 307.309 259.654 306.936C260.048 306.552 260.246 306.045 260.246 305.416C260.246 304.787 260.048 304.285 259.654 303.912C259.259 303.528 258.752 303.336 258.134 303.336C257.515 303.336 257.003 303.528 256.598 303.912C256.203 304.285 256.006 304.787 256.006 305.416ZM265.636 301.8H267.236V313H265.396V303.768L263.14 304.408L262.692 302.84L265.636 301.8ZM276.758 305.416C276.758 306.269 276.534 307.021 276.086 307.672L272.549 313H270.438L272.998 309.24H272.806C271.643 309.24 270.688 308.888 269.942 308.184C269.206 307.469 268.838 306.547 268.838 305.416C268.838 304.285 269.206 303.368 269.942 302.664C270.688 301.949 271.643 301.592 272.806 301.592C273.968 301.592 274.918 301.949 275.654 302.664C276.39 303.368 276.758 304.285 276.758 305.416ZM270.678 305.416C270.678 306.035 270.875 306.536 271.27 306.92C271.675 307.304 272.187 307.496 272.806 307.496C273.424 307.496 273.931 307.309 274.326 306.936C274.72 306.552 274.918 306.045 274.918 305.416C274.918 304.787 274.72 304.285 274.326 303.912C273.931 303.528 273.424 303.336 272.806 303.336C272.187 303.336 271.675 303.528 271.27 303.912C270.875 304.285 270.678 304.787 270.678 305.416ZM280.116 311.24H285.076V313H278.276V301.8H284.996V303.56H280.116V306.472H284.596V308.216H280.116V311.24ZM294.213 313L293.429 310.744H288.661L287.877 313H285.877L289.941 301.8H292.149L296.197 313H294.213ZM289.269 309.016H292.821L291.045 303.96L289.269 309.016ZM299.241 311.24H304.201V313H297.401V301.8H304.121V303.56H299.241V306.472H303.721V308.216H299.241V311.24Z" fill="white"/>
<rect width="295" height="95" transform="translate(20 330)" fill="#C8102E"/>
<path d="M251.136 401.6H249.344L249.088 403.2H250.88L250.672 404.56H248.864L248.416 407.2H246.992L247.44 404.56H245.648L245.2 407.2H243.776L244.224 404.56H242.4L242.624 403.2H244.448L244.704 401.6H242.88L243.104 400.24H244.944L245.376 397.6H246.8L246.368 400.24H248.16L248.592 397.6H250.016L249.584 400.24H251.36L251.136 401.6ZM247.664 403.2L247.92 401.6H246.128L245.872 403.2H247.664ZM258.182 408.208C256.496 408.208 255.099 407.653 253.99 406.544C252.88 405.424 252.326 404.043 252.326 402.4C252.326 400.757 252.88 399.381 253.99 398.272C255.099 397.152 256.496 396.592 258.182 396.592C259.195 396.592 260.128 396.832 260.982 397.312C261.846 397.792 262.518 398.443 262.998 399.264L261.398 400.192C261.099 399.637 260.662 399.2 260.086 398.88C259.52 398.549 258.886 398.384 258.182 398.384C256.987 398.384 256.016 398.763 255.27 399.52C254.534 400.277 254.166 401.237 254.166 402.4C254.166 403.563 254.534 404.523 255.27 405.28C256.016 406.037 256.987 406.416 258.182 406.416C258.886 406.416 259.526 406.256 260.102 405.936C260.678 405.605 261.11 405.163 261.398 404.608L262.998 405.52C262.528 406.341 261.862 406.997 260.998 407.488C260.144 407.968 259.206 408.208 258.182 408.208ZM270.096 402.176C271.195 402.784 271.744 403.691 271.744 404.896C271.744 405.92 271.387 406.731 270.672 407.328C269.957 407.915 269.008 408.208 267.824 408.208C266.64 408.208 265.685 407.915 264.96 407.328C264.245 406.731 263.888 405.92 263.888 404.896C263.888 404.32 264.032 403.797 264.32 403.328C264.608 402.848 265.013 402.464 265.536 402.176C264.693 401.621 264.272 400.832 264.272 399.808C264.272 398.784 264.613 397.995 265.296 397.44C265.979 396.875 266.821 396.592 267.824 396.592C268.816 396.592 269.653 396.875 270.336 397.44C271.029 397.995 271.376 398.784 271.376 399.808C271.376 400.832 270.949 401.621 270.096 402.176ZM267.824 398.336C267.323 398.336 266.912 398.469 266.592 398.736C266.272 399.003 266.112 399.387 266.112 399.888C266.112 400.368 266.272 400.747 266.592 401.024C266.923 401.301 267.333 401.44 267.824 401.44C268.304 401.44 268.709 401.301 269.04 401.024C269.371 400.747 269.536 400.368 269.536 399.888C269.536 399.387 269.371 399.003 269.04 398.736C268.72 398.469 268.315 398.336 267.824 398.336ZM267.824 406.464C268.443 406.464 268.944 406.315 269.328 406.016C269.712 405.707 269.904 405.275 269.904 404.72C269.904 404.165 269.712 403.739 269.328 403.44C268.944 403.131 268.443 402.976 267.824 402.976C267.195 402.976 266.688 403.131 266.304 403.44C265.92 403.739 265.728 404.165 265.728 404.72C265.728 405.275 265.92 405.707 266.304 406.016C266.688 406.315 267.195 406.464 267.824 406.464ZM274.824 396.8H276.424V408H274.584V398.768L272.328 399.408L271.88 397.84L274.824 396.8ZM285.897 406.624C285.129 407.68 284.052 408.208 282.665 408.208C281.278 408.208 280.196 407.68 279.417 406.624C278.649 405.568 278.265 404.16 278.265 402.4C278.265 400.64 278.649 399.232 279.417 398.176C280.196 397.12 281.278 396.592 282.665 396.592C284.052 396.592 285.129 397.12 285.897 398.176C286.676 399.232 287.065 400.64 287.065 402.4C287.065 404.16 286.676 405.568 285.897 406.624ZM282.665 406.416C283.497 406.416 284.132 406.069 284.569 405.376C285.006 404.683 285.225 403.691 285.225 402.4C285.225 401.109 285.006 400.117 284.569 399.424C284.132 398.731 283.497 398.384 282.665 398.384C281.844 398.384 281.209 398.731 280.761 399.424C280.324 400.117 280.105 401.109 280.105 402.4C280.105 403.691 280.324 404.683 280.761 405.376C281.209 406.069 281.844 406.416 282.665 406.416ZM287.965 408V406.56L291.869 402.576C292.818 401.627 293.293 400.805 293.293 400.112C293.293 399.568 293.127 399.147 292.797 398.848C292.477 398.539 292.066 398.384 291.565 398.384C290.626 398.384 289.933 398.848 289.485 399.776L287.933 398.864C288.285 398.117 288.781 397.552 289.421 397.168C290.061 396.784 290.77 396.592 291.549 396.592C292.53 396.592 293.373 396.901 294.077 397.52C294.781 398.139 295.133 398.981 295.133 400.048C295.133 401.189 294.498 402.405 293.229 403.696L290.701 406.224H295.341V408H287.965ZM298.898 406.24H303.858V408H297.058V396.8H303.778V398.56H298.898V401.472H303.378V403.216H298.898V406.24Z" fill="white"/>
<rect width="295" height="95" transform="translate(20 425)" fill="#FFCDD5"/>
<path d="M244.136 496.6H242.344L242.088 498.2H243.88L243.672 499.56H241.864L241.416 502.2H239.992L240.44 499.56H238.648L238.2 502.2H236.776L237.224 499.56H235.4L235.624 498.2H237.448L237.704 496.6H235.88L236.104 495.24H237.944L238.376 492.6H239.8L239.368 495.24H241.16L241.592 492.6H243.016L242.584 495.24H244.36L244.136 496.6ZM240.664 498.2L240.92 496.6H239.128L238.872 498.2H240.664ZM252.446 493.56H247.726V496.696H252.286V498.456H247.726V503H245.886V491.8H252.446V493.56ZM260.727 493.56H256.007V496.696H260.567V498.456H256.007V503H254.167V491.8H260.727V493.56ZM267.744 503.208C266.059 503.208 264.661 502.653 263.552 501.544C262.443 500.424 261.888 499.043 261.888 497.4C261.888 495.757 262.443 494.381 263.552 493.272C264.661 492.152 266.059 491.592 267.744 491.592C268.757 491.592 269.691 491.832 270.544 492.312C271.408 492.792 272.08 493.443 272.56 494.264L270.96 495.192C270.661 494.637 270.224 494.2 269.648 493.88C269.083 493.549 268.448 493.384 267.744 493.384C266.549 493.384 265.579 493.763 264.832 494.52C264.096 495.277 263.728 496.237 263.728 497.4C263.728 498.563 264.096 499.523 264.832 500.28C265.579 501.037 266.549 501.416 267.744 501.416C268.448 501.416 269.088 501.256 269.664 500.936C270.24 500.605 270.672 500.163 270.96 499.608L272.56 500.52C272.091 501.341 271.424 501.997 270.56 502.488C269.707 502.968 268.768 503.208 267.744 503.208ZM278.489 491.8C280.025 491.8 281.299 492.339 282.313 493.416C283.337 494.493 283.849 495.821 283.849 497.4C283.849 498.968 283.337 500.296 282.313 501.384C281.299 502.461 280.025 503 278.489 503H274.089V491.8H278.489ZM278.489 501.24C279.545 501.24 280.403 500.877 281.065 500.152C281.737 499.427 282.073 498.509 282.073 497.4C282.073 496.28 281.737 495.363 281.065 494.648C280.403 493.923 279.545 493.56 278.489 493.56H275.929V501.24H278.489ZM289.926 491.8C291.462 491.8 292.737 492.339 293.75 493.416C294.774 494.493 295.286 495.821 295.286 497.4C295.286 498.968 294.774 500.296 293.75 501.384C292.737 502.461 291.462 503 289.926 503H285.526V491.8H289.926ZM289.926 501.24C290.982 501.24 291.841 500.877 292.502 500.152C293.174 499.427 293.51 498.509 293.51 497.4C293.51 496.28 293.174 495.363 292.502 494.648C291.841 493.923 290.982 493.56 289.926 493.56H287.366V501.24H289.926ZM300.088 496.024C301.154 496.024 302.056 496.344 302.792 496.984C303.528 497.613 303.896 498.488 303.896 499.608C303.896 500.728 303.517 501.608 302.76 502.248C302.002 502.888 301.074 503.208 299.976 503.208C299.09 503.208 298.306 503.005 297.624 502.6C296.941 502.184 296.456 501.587 296.168 500.808L297.752 499.896C298.05 500.909 298.792 501.416 299.976 501.416C300.605 501.416 301.106 501.256 301.48 500.936C301.864 500.605 302.056 500.163 302.056 499.608C302.056 499.053 301.869 498.616 301.496 498.296C301.122 497.976 300.626 497.816 300.008 497.816H296.743L297.176 491.8H303.416V493.528H298.872L298.68 496.024H300.088Z" fill="#C8102E"/>
<rect width="147.5" height="80" transform="translate(20 520)" fill="#23D639"/>
<path d="M102.636 576.6H100.844L100.588 578.2H102.38L102.172 579.56H100.364L99.916 582.2H98.492L98.94 579.56H97.148L96.7 582.2H95.276L95.724 579.56H93.9L94.124 578.2H95.948L96.204 576.6H94.38L94.604 575.24H96.444L96.876 572.6H98.3L97.868 575.24H99.66L100.092 572.6H101.516L101.084 575.24H102.86L102.636 576.6ZM99.164 578.2L99.42 576.6H97.628L97.372 578.2H99.164ZM110.034 577.176C111.132 577.784 111.682 578.691 111.682 579.896C111.682 580.92 111.324 581.731 110.61 582.328C109.895 582.915 108.946 583.208 107.762 583.208C106.578 583.208 105.623 582.915 104.898 582.328C104.183 581.731 103.826 580.92 103.826 579.896C103.826 579.32 103.97 578.797 104.258 578.328C104.546 577.848 104.951 577.464 105.474 577.176C104.631 576.621 104.21 575.832 104.21 574.808C104.21 573.784 104.551 572.995 105.234 572.44C105.916 571.875 106.759 571.592 107.762 571.592C108.754 571.592 109.591 571.875 110.274 572.44C110.967 572.995 111.314 573.784 111.314 574.808C111.314 575.832 110.887 576.621 110.034 577.176ZM107.762 573.336C107.26 573.336 106.85 573.469 106.53 573.736C106.21 574.003 106.05 574.387 106.05 574.888C106.05 575.368 106.21 575.747 106.53 576.024C106.86 576.301 107.271 576.44 107.762 576.44C108.242 576.44 108.647 576.301 108.978 576.024C109.308 575.747 109.474 575.368 109.474 574.888C109.474 574.387 109.308 574.003 108.978 573.736C108.658 573.469 108.252 573.336 107.762 573.336ZM107.762 581.464C108.38 581.464 108.882 581.315 109.266 581.016C109.65 580.707 109.842 580.275 109.842 579.72C109.842 579.165 109.65 578.739 109.266 578.44C108.882 578.131 108.38 577.976 107.762 577.976C107.132 577.976 106.626 578.131 106.242 578.44C105.858 578.739 105.666 579.165 105.666 579.72C105.666 580.275 105.858 580.707 106.242 581.016C106.626 581.315 107.132 581.464 107.762 581.464ZM116.478 576.024C117.545 576.024 118.446 576.344 119.182 576.984C119.918 577.613 120.286 578.488 120.286 579.608C120.286 580.728 119.907 581.608 119.15 582.248C118.393 582.888 117.465 583.208 116.366 583.208C115.481 583.208 114.697 583.005 114.014 582.6C113.331 582.184 112.846 581.587 112.558 580.808L114.142 579.896C114.441 580.909 115.182 581.416 116.366 581.416C116.995 581.416 117.497 581.256 117.87 580.936C118.254 580.605 118.446 580.163 118.446 579.608C118.446 579.053 118.259 578.616 117.886 578.296C117.513 577.976 117.017 577.816 116.398 577.816H113.134L113.566 571.8H119.806V573.528H115.262L115.07 576.024H116.478ZM128.477 573.56H123.757V576.696H128.317V578.456H123.757V583H121.917V571.8H128.477V573.56ZM136.758 573.56H132.038V576.696H136.598V578.456H132.038V583H130.198V571.8H136.758V573.56ZM143.775 583.208C142.09 583.208 140.693 582.653 139.583 581.544C138.474 580.424 137.919 579.043 137.919 577.4C137.919 575.757 138.474 574.381 139.583 573.272C140.693 572.152 142.09 571.592 143.775 571.592C144.789 571.592 145.722 571.832 146.575 572.312C147.439 572.792 148.111 573.443 148.591 574.264L146.991 575.192C146.693 574.637 146.255 574.2 145.679 573.88C145.114 573.549 144.479 573.384 143.775 573.384C142.581 573.384 141.61 573.763 140.863 574.52C140.127 575.277 139.759 576.237 139.759 577.4C139.759 578.563 140.127 579.523 140.863 580.28C141.61 581.037 142.581 581.416 143.775 581.416C144.479 581.416 145.119 581.256 145.695 580.936C146.271 580.605 146.703 580.163 146.991 579.608L148.591 580.52C148.122 581.341 147.455 581.997 146.591 582.488C145.738 582.968 144.799 583.208 143.775 583.208ZM149.084 571.8H156.204V573.4L152.268 583H150.332L154.204 573.56H149.084V571.8Z" fill="white"/>
<rect width="147.5" height="80" transform="translate(167.5 520)" fill="#FF0000"/>
<path d="M247.136 576.6H245.344L245.088 578.2H246.88L246.672 579.56H244.864L244.416 582.2H242.992L243.44 579.56H241.648L241.2 582.2H239.776L240.224 579.56H238.4L238.624 578.2H240.448L240.704 576.6H238.88L239.104 575.24H240.944L241.376 572.6H242.8L242.368 575.24H244.16L244.592 572.6H246.016L245.584 575.24H247.36L247.136 576.6ZM243.664 578.2L243.92 576.6H242.128L241.872 578.2H243.664ZM255.446 573.56H250.726V576.696H255.286V578.456H250.726V583H248.886V571.8H255.446V573.56ZM263.727 573.56H259.007V576.696H263.567V578.456H259.007V583H257.167V571.8H263.727V573.56ZM272.6 581.624C271.832 582.68 270.755 583.208 269.368 583.208C267.981 583.208 266.899 582.68 266.12 581.624C265.352 580.568 264.968 579.16 264.968 577.4C264.968 575.64 265.352 574.232 266.12 573.176C266.899 572.12 267.981 571.592 269.368 571.592C270.755 571.592 271.832 572.12 272.6 573.176C273.379 574.232 273.768 575.64 273.768 577.4C273.768 579.16 273.379 580.568 272.6 581.624ZM269.368 581.416C270.2 581.416 270.835 581.069 271.272 580.376C271.709 579.683 271.928 578.691 271.928 577.4C271.928 576.109 271.709 575.117 271.272 574.424C270.835 573.731 270.2 573.384 269.368 573.384C268.547 573.384 267.912 573.731 267.464 574.424C267.027 575.117 266.808 576.109 266.808 577.4C266.808 578.691 267.027 579.683 267.464 580.376C267.912 581.069 268.547 581.416 269.368 581.416ZM282.678 581.624C281.91 582.68 280.833 583.208 279.446 583.208C278.06 583.208 276.977 582.68 276.198 581.624C275.43 580.568 275.046 579.16 275.046 577.4C275.046 575.64 275.43 574.232 276.198 573.176C276.977 572.12 278.06 571.592 279.446 571.592C280.833 571.592 281.91 572.12 282.678 573.176C283.457 574.232 283.846 575.64 283.846 577.4C283.846 579.16 283.457 580.568 282.678 581.624ZM279.446 581.416C280.278 581.416 280.913 581.069 281.35 580.376C281.788 579.683 282.006 578.691 282.006 577.4C282.006 576.109 281.788 575.117 281.35 574.424C280.913 573.731 280.278 573.384 279.446 573.384C278.625 573.384 277.99 573.731 277.542 574.424C277.105 575.117 276.886 576.109 276.886 577.4C276.886 578.691 277.105 579.683 277.542 580.376C277.99 581.069 278.625 581.416 279.446 581.416ZM292.756 581.624C291.988 582.68 290.911 583.208 289.524 583.208C288.138 583.208 287.055 582.68 286.276 581.624C285.508 580.568 285.124 579.16 285.124 577.4C285.124 575.64 285.508 574.232 286.276 573.176C287.055 572.12 288.138 571.592 289.524 571.592C290.911 571.592 291.988 572.12 292.756 573.176C293.535 574.232 293.924 575.64 293.924 577.4C293.924 579.16 293.535 580.568 292.756 581.624ZM289.524 581.416C290.356 581.416 290.991 581.069 291.428 580.376C291.866 579.683 292.084 578.691 292.084 577.4C292.084 576.109 291.866 575.117 291.428 574.424C290.991 573.731 290.356 573.384 289.524 573.384C288.703 573.384 288.068 573.731 287.62 574.424C287.183 575.117 286.964 576.109 286.964 577.4C286.964 578.691 287.183 579.683 287.62 580.376C288.068 581.069 288.703 581.416 289.524 581.416ZM302.835 581.624C302.067 582.68 300.989 583.208 299.603 583.208C298.216 583.208 297.133 582.68 296.355 581.624C295.587 580.568 295.203 579.16 295.203 577.4C295.203 575.64 295.587 574.232 296.355 573.176C297.133 572.12 298.216 571.592 299.603 571.592C300.989 571.592 302.067 572.12 302.835 573.176C303.613 574.232 304.003 575.64 304.003 577.4C304.003 579.16 303.613 580.568 302.835 581.624ZM299.603 581.416C300.435 581.416 301.069 581.069 301.507 580.376C301.944 579.683 302.163 578.691 302.163 577.4C302.163 576.109 301.944 575.117 301.507 574.424C301.069 573.731 300.435 573.384 299.603 573.384C298.781 573.384 298.147 573.731 297.699 574.424C297.261 575.117 297.043 576.109 297.043 577.4C297.043 578.691 297.261 579.683 297.699 580.376C298.147 581.069 298.781 581.416 299.603 581.416Z" fill="white"/>
</svg>
