<svg width="645" height="768" viewBox="0 0 645 768" fill="none" xmlns="http://www.w3.org/2000/svg">
<rect width="645" height="768" fill="#F6F6F6"/>
<rect width="530" height="150" transform="translate(58 129)" fill="#0C2340"/>
<path d="M508.136 245.6H506.344L506.088 247.2H507.88L507.672 248.56H505.864L505.416 251.2H503.992L504.44 248.56H502.648L502.2 251.2H500.776L501.224 248.56H499.4L499.624 247.2H501.448L501.704 245.6H499.88L500.104 244.24H501.944L502.376 241.6H503.8L503.368 244.24H505.16L505.592 241.6H507.016L506.584 244.24H508.36L508.136 245.6ZM504.664 247.2L504.92 245.6H503.128L502.872 247.2H504.664ZM517.038 250.624C516.27 251.68 515.192 252.208 513.806 252.208C512.419 252.208 511.336 251.68 510.558 250.624C509.79 249.568 509.406 248.16 509.406 246.4C509.406 244.64 509.79 243.232 510.558 242.176C511.336 241.12 512.419 240.592 513.806 240.592C515.192 240.592 516.27 241.12 517.038 242.176C517.816 243.232 518.206 244.64 518.206 246.4C518.206 248.16 517.816 249.568 517.038 250.624ZM513.806 250.416C514.638 250.416 515.272 250.069 515.71 249.376C516.147 248.683 516.366 247.691 516.366 246.4C516.366 245.109 516.147 244.117 515.71 243.424C515.272 242.731 514.638 242.384 513.806 242.384C512.984 242.384 512.35 242.731 511.902 243.424C511.464 244.117 511.246 245.109 511.246 246.4C511.246 247.691 511.464 248.683 511.902 249.376C512.35 250.069 512.984 250.416 513.806 250.416ZM525.26 252.208C523.574 252.208 522.177 251.653 521.068 250.544C519.958 249.424 519.404 248.043 519.404 246.4C519.404 244.757 519.958 243.381 521.068 242.272C522.177 241.152 523.574 240.592 525.26 240.592C526.273 240.592 527.206 240.832 528.06 241.312C528.924 241.792 529.596 242.443 530.076 243.264L528.476 244.192C528.177 243.637 527.74 243.2 527.164 242.88C526.598 242.549 525.964 242.384 525.26 242.384C524.065 242.384 523.094 242.763 522.348 243.52C521.612 244.277 521.244 245.237 521.244 246.4C521.244 247.563 521.612 248.523 522.348 249.28C523.094 250.037 524.065 250.416 525.26 250.416C525.964 250.416 526.604 250.256 527.18 249.936C527.756 249.605 528.188 249.163 528.476 248.608L530.076 249.52C529.606 250.341 528.94 250.997 528.076 251.488C527.222 251.968 526.284 252.208 525.26 252.208ZM530.902 252V250.56L534.806 246.576C535.756 245.627 536.23 244.805 536.23 244.112C536.23 243.568 536.065 243.147 535.734 242.848C535.414 242.539 535.004 242.384 534.502 242.384C533.564 242.384 532.87 242.848 532.422 243.776L530.87 242.864C531.222 242.117 531.718 241.552 532.358 241.168C532.998 240.784 533.708 240.592 534.486 240.592C535.468 240.592 536.31 240.901 537.014 241.52C537.718 242.139 538.07 242.981 538.07 244.048C538.07 245.189 537.436 246.405 536.166 247.696L533.638 250.224H538.278V252H530.902ZM544.063 245.376C544.873 245.568 545.529 245.947 546.031 246.512C546.543 247.067 546.799 247.765 546.799 248.608C546.799 249.728 546.42 250.608 545.663 251.248C544.905 251.888 543.977 252.208 542.879 252.208C542.025 252.208 541.257 252.011 540.575 251.616C539.903 251.221 539.417 250.645 539.119 249.888L540.687 248.976C541.017 249.936 541.748 250.416 542.879 250.416C543.519 250.416 544.025 250.256 544.399 249.936C544.772 249.605 544.959 249.163 544.959 248.608C544.959 248.053 544.772 247.616 544.399 247.296C544.025 246.976 543.519 246.816 542.879 246.816H542.463L541.727 245.712L544.143 242.528H539.455V240.8H546.335V242.368L544.063 245.376ZM556.68 248.272V249.984H555.4V252H553.544V249.984H548.04V248.272L551.896 240.8H553.896L550.04 248.272H553.544V245.36H555.4V248.272H556.68ZM565.225 250.624C564.457 251.68 563.38 252.208 561.993 252.208C560.606 252.208 559.524 251.68 558.745 250.624C557.977 249.568 557.593 248.16 557.593 246.4C557.593 244.64 557.977 243.232 558.745 242.176C559.524 241.12 560.606 240.592 561.993 240.592C563.38 240.592 564.457 241.12 565.225 242.176C566.004 243.232 566.393 244.64 566.393 246.4C566.393 248.16 566.004 249.568 565.225 250.624ZM561.993 250.416C562.825 250.416 563.46 250.069 563.897 249.376C564.334 248.683 564.553 247.691 564.553 246.4C564.553 245.109 564.334 244.117 563.897 243.424C563.46 242.731 562.825 242.384 561.993 242.384C561.172 242.384 560.537 242.731 560.089 243.424C559.652 244.117 559.433 245.109 559.433 246.4C559.433 247.691 559.652 248.683 560.089 249.376C560.537 250.069 561.172 250.416 561.993 250.416Z" fill="white"/>
<rect width="265" height="80" transform="translate(58 279)" fill="#EFF5FC"/>
<path d="M248.136 325.6H246.344L246.088 327.2H247.88L247.672 328.56H245.864L245.416 331.2H243.992L244.44 328.56H242.648L242.2 331.2H240.776L241.224 328.56H239.4L239.624 327.2H241.448L241.704 325.6H239.88L240.104 324.24H241.944L242.376 321.6H243.8L243.368 324.24H245.16L245.592 321.6H247.016L246.584 324.24H248.36L248.136 325.6ZM244.664 327.2L244.92 325.6H243.128L242.872 327.2H244.664ZM251.726 330.24H256.686V332H249.886V320.8H256.606V322.56H251.726V325.472H256.206V327.216H251.726V330.24ZM264.93 322.56H260.21V325.696H264.77V327.456H260.21V332H258.37V320.8H264.93V322.56ZM273.211 322.56H268.491V325.696H273.051V327.456H268.491V332H266.651V320.8H273.211V322.56ZM278.213 325.024C279.279 325.024 280.181 325.344 280.917 325.984C281.653 326.613 282.021 327.488 282.021 328.608C282.021 329.728 281.642 330.608 280.885 331.248C280.127 331.888 279.199 332.208 278.101 332.208C277.215 332.208 276.431 332.005 275.749 331.6C275.066 331.184 274.581 330.587 274.293 329.808L275.877 328.896C276.175 329.909 276.917 330.416 278.101 330.416C278.73 330.416 279.231 330.256 279.605 329.936C279.989 329.605 280.181 329.163 280.181 328.608C280.181 328.053 279.994 327.616 279.621 327.296C279.247 326.976 278.751 326.816 278.133 326.816H274.868L275.301 320.8H281.541V322.528H276.997L276.805 325.024H278.213ZM290.211 322.56H285.491V325.696H290.051V327.456H285.491V332H283.651V320.8H290.211V322.56ZM297.229 332.208C295.543 332.208 294.146 331.653 293.037 330.544C291.927 329.424 291.373 328.043 291.373 326.4C291.373 324.757 291.927 323.381 293.037 322.272C294.146 321.152 295.543 320.592 297.229 320.592C298.242 320.592 299.175 320.832 300.029 321.312C300.893 321.792 301.565 322.443 302.045 323.264L300.445 324.192C300.146 323.637 299.709 323.2 299.133 322.88C298.567 322.549 297.933 322.384 297.229 322.384C296.034 322.384 295.063 322.763 294.317 323.52C293.581 324.277 293.213 325.237 293.213 326.4C293.213 327.563 293.581 328.523 294.317 329.28C295.063 330.037 296.034 330.416 297.229 330.416C297.933 330.416 298.573 330.256 299.149 329.936C299.725 329.605 300.157 329.163 300.445 328.608L302.045 329.52C301.575 330.341 300.909 330.997 300.045 331.488C299.191 331.968 298.253 332.208 297.229 332.208Z" fill="#011627"/>
<rect width="265" height="80" transform="translate(323 279)" fill="#919EAE"/>
<path d="M516.136 325.6H514.344L514.088 327.2H515.88L515.672 328.56H513.864L513.416 331.2H511.992L512.44 328.56H510.648L510.2 331.2H508.776L509.224 328.56H507.4L507.624 327.2H509.448L509.704 325.6H507.88L508.104 324.24H509.944L510.376 321.6H511.8L511.368 324.24H513.16L513.592 321.6H515.016L514.584 324.24H516.36L516.136 325.6ZM512.664 327.2L512.92 325.6H511.128L510.872 327.2H512.664ZM525.086 324.416C525.086 325.269 524.862 326.021 524.414 326.672L520.878 332H518.766L521.326 328.24H521.134C519.971 328.24 519.016 327.888 518.27 327.184C517.534 326.469 517.166 325.547 517.166 324.416C517.166 323.285 517.534 322.368 518.27 321.664C519.016 320.949 519.971 320.592 521.134 320.592C522.296 320.592 523.246 320.949 523.982 321.664C524.718 322.368 525.086 323.285 525.086 324.416ZM519.006 324.416C519.006 325.035 519.203 325.536 519.598 325.92C520.003 326.304 520.515 326.496 521.134 326.496C521.752 326.496 522.259 326.309 522.654 325.936C523.048 325.552 523.246 325.045 523.246 324.416C523.246 323.787 523.048 323.285 522.654 322.912C522.259 322.528 521.752 322.336 521.134 322.336C520.515 322.336 520.003 322.528 519.598 322.912C519.203 323.285 519.006 323.787 519.006 324.416ZM528.636 320.8H530.236V332H528.396V322.768L526.14 323.408L525.692 321.84L528.636 320.8ZM539.758 324.416C539.758 325.269 539.534 326.021 539.086 326.672L535.549 332H533.438L535.998 328.24H535.806C534.643 328.24 533.688 327.888 532.942 327.184C532.206 326.469 531.838 325.547 531.838 324.416C531.838 323.285 532.206 322.368 532.942 321.664C533.688 320.949 534.643 320.592 535.806 320.592C536.968 320.592 537.918 320.949 538.654 321.664C539.39 322.368 539.758 323.285 539.758 324.416ZM533.678 324.416C533.678 325.035 533.875 325.536 534.27 325.92C534.675 326.304 535.187 326.496 535.806 326.496C536.424 326.496 536.931 326.309 537.326 325.936C537.72 325.552 537.918 325.045 537.918 324.416C537.918 323.787 537.72 323.285 537.326 322.912C536.931 322.528 536.424 322.336 535.806 322.336C535.187 322.336 534.675 322.528 534.27 322.912C533.875 323.285 533.678 323.787 533.678 324.416ZM543.116 330.24H548.076V332H541.276V320.8H547.996V322.56H543.116V325.472H547.596V327.216H543.116V330.24ZM557.213 332L556.429 329.744H551.661L550.877 332H548.877L552.941 320.8H555.149L559.197 332H557.213ZM552.269 328.016H555.821L554.045 322.96L552.269 328.016ZM562.241 330.24H567.201V332H560.401V320.8H567.121V322.56H562.241V325.472H566.721V327.216H562.241V330.24Z" fill="white"/>
<rect width="530" height="120" transform="translate(58 359)" fill="#C8102E"/>
<path d="M514.136 445.6H512.344L512.088 447.2H513.88L513.672 448.56H511.864L511.416 451.2H509.992L510.44 448.56H508.648L508.2 451.2H506.776L507.224 448.56H505.4L505.624 447.2H507.448L507.704 445.6H505.88L506.104 444.24H507.944L508.376 441.6H509.8L509.368 444.24H511.16L511.592 441.6H513.016L512.584 444.24H514.36L514.136 445.6ZM510.664 447.2L510.92 445.6H509.128L508.872 447.2H510.664ZM521.182 452.208C519.496 452.208 518.099 451.653 516.99 450.544C515.88 449.424 515.326 448.043 515.326 446.4C515.326 444.757 515.88 443.381 516.99 442.272C518.099 441.152 519.496 440.592 521.182 440.592C522.195 440.592 523.128 440.832 523.982 441.312C524.846 441.792 525.518 442.443 525.998 443.264L524.398 444.192C524.099 443.637 523.662 443.2 523.086 442.88C522.52 442.549 521.886 442.384 521.182 442.384C519.987 442.384 519.016 442.763 518.27 443.52C517.534 444.277 517.166 445.237 517.166 446.4C517.166 447.563 517.534 448.523 518.27 449.28C519.016 450.037 519.987 450.416 521.182 450.416C521.886 450.416 522.526 450.256 523.102 449.936C523.678 449.605 524.11 449.163 524.398 448.608L525.998 449.52C525.528 450.341 524.862 450.997 523.998 451.488C523.144 451.968 522.206 452.208 521.182 452.208ZM533.096 446.176C534.195 446.784 534.744 447.691 534.744 448.896C534.744 449.92 534.387 450.731 533.672 451.328C532.957 451.915 532.008 452.208 530.824 452.208C529.64 452.208 528.685 451.915 527.96 451.328C527.245 450.731 526.888 449.92 526.888 448.896C526.888 448.32 527.032 447.797 527.32 447.328C527.608 446.848 528.013 446.464 528.536 446.176C527.693 445.621 527.272 444.832 527.272 443.808C527.272 442.784 527.613 441.995 528.296 441.44C528.979 440.875 529.821 440.592 530.824 440.592C531.816 440.592 532.653 440.875 533.336 441.44C534.029 441.995 534.376 442.784 534.376 443.808C534.376 444.832 533.949 445.621 533.096 446.176ZM530.824 442.336C530.323 442.336 529.912 442.469 529.592 442.736C529.272 443.003 529.112 443.387 529.112 443.888C529.112 444.368 529.272 444.747 529.592 445.024C529.923 445.301 530.333 445.44 530.824 445.44C531.304 445.44 531.709 445.301 532.04 445.024C532.371 444.747 532.536 444.368 532.536 443.888C532.536 443.387 532.371 443.003 532.04 442.736C531.72 442.469 531.315 442.336 530.824 442.336ZM530.824 450.464C531.443 450.464 531.944 450.315 532.328 450.016C532.712 449.707 532.904 449.275 532.904 448.72C532.904 448.165 532.712 447.739 532.328 447.44C531.944 447.131 531.443 446.976 530.824 446.976C530.195 446.976 529.688 447.131 529.304 447.44C528.92 447.739 528.728 448.165 528.728 448.72C528.728 449.275 528.92 449.707 529.304 450.016C529.688 450.315 530.195 450.464 530.824 450.464ZM537.824 440.8H539.424V452H537.584V442.768L535.328 443.408L534.88 441.84L537.824 440.8ZM548.897 450.624C548.129 451.68 547.052 452.208 545.665 452.208C544.278 452.208 543.196 451.68 542.417 450.624C541.649 449.568 541.265 448.16 541.265 446.4C541.265 444.64 541.649 443.232 542.417 442.176C543.196 441.12 544.278 440.592 545.665 440.592C547.052 440.592 548.129 441.12 548.897 442.176C549.676 443.232 550.065 444.64 550.065 446.4C550.065 448.16 549.676 449.568 548.897 450.624ZM545.665 450.416C546.497 450.416 547.132 450.069 547.569 449.376C548.006 448.683 548.225 447.691 548.225 446.4C548.225 445.109 548.006 444.117 547.569 443.424C547.132 442.731 546.497 442.384 545.665 442.384C544.844 442.384 544.209 442.731 543.761 443.424C543.324 444.117 543.105 445.109 543.105 446.4C543.105 447.691 543.324 448.683 543.761 449.376C544.209 450.069 544.844 450.416 545.665 450.416ZM550.965 452V450.56L554.869 446.576C555.818 445.627 556.293 444.805 556.293 444.112C556.293 443.568 556.127 443.147 555.797 442.848C555.477 442.539 555.066 442.384 554.565 442.384C553.626 442.384 552.933 442.848 552.485 443.776L550.933 442.864C551.285 442.117 551.781 441.552 552.421 441.168C553.061 440.784 553.77 440.592 554.549 440.592C555.53 440.592 556.373 440.901 557.077 441.52C557.781 442.139 558.133 442.981 558.133 444.048C558.133 445.189 557.498 446.405 556.229 447.696L553.701 450.224H558.341V452H550.965ZM561.898 450.24H566.858V452H560.058V440.8H566.778V442.56H561.898V445.472H566.378V447.216H561.898V450.24Z" fill="white"/>
<rect width="530" height="80" transform="translate(58 479)" fill="#FFCDD5"/>
<path d="M507.136 525.6H505.344L505.088 527.2H506.88L506.672 528.56H504.864L504.416 531.2H502.992L503.44 528.56H501.648L501.2 531.2H499.776L500.224 528.56H498.4L498.624 527.2H500.448L500.704 525.6H498.88L499.104 524.24H500.944L501.376 521.6H502.8L502.368 524.24H504.16L504.592 521.6H506.016L505.584 524.24H507.36L507.136 525.6ZM503.664 527.2L503.92 525.6H502.128L501.872 527.2H503.664ZM515.446 522.56H510.726V525.696H515.286V527.456H510.726V532H508.886V520.8H515.446V522.56ZM523.727 522.56H519.007V525.696H523.567V527.456H519.007V532H517.167V520.8H523.727V522.56ZM530.744 532.208C529.059 532.208 527.661 531.653 526.552 530.544C525.443 529.424 524.888 528.043 524.888 526.4C524.888 524.757 525.443 523.381 526.552 522.272C527.661 521.152 529.059 520.592 530.744 520.592C531.757 520.592 532.691 520.832 533.544 521.312C534.408 521.792 535.08 522.443 535.56 523.264L533.96 524.192C533.661 523.637 533.224 523.2 532.648 522.88C532.083 522.549 531.448 522.384 530.744 522.384C529.549 522.384 528.579 522.763 527.832 523.52C527.096 524.277 526.728 525.237 526.728 526.4C526.728 527.563 527.096 528.523 527.832 529.28C528.579 530.037 529.549 530.416 530.744 530.416C531.448 530.416 532.088 530.256 532.664 529.936C533.24 529.605 533.672 529.163 533.96 528.608L535.56 529.52C535.091 530.341 534.424 530.997 533.56 531.488C532.707 531.968 531.768 532.208 530.744 532.208ZM541.489 520.8C543.025 520.8 544.299 521.339 545.313 522.416C546.337 523.493 546.849 524.821 546.849 526.4C546.849 527.968 546.337 529.296 545.313 530.384C544.299 531.461 543.025 532 541.489 532H537.089V520.8H541.489ZM541.489 530.24C542.545 530.24 543.403 529.877 544.065 529.152C544.737 528.427 545.073 527.509 545.073 526.4C545.073 525.28 544.737 524.363 544.065 523.648C543.403 522.923 542.545 522.56 541.489 522.56H538.929V530.24H541.489ZM552.926 520.8C554.462 520.8 555.737 521.339 556.75 522.416C557.774 523.493 558.286 524.821 558.286 526.4C558.286 527.968 557.774 529.296 556.75 530.384C555.737 531.461 554.462 532 552.926 532H548.526V520.8H552.926ZM552.926 530.24C553.982 530.24 554.841 529.877 555.502 529.152C556.174 528.427 556.51 527.509 556.51 526.4C556.51 525.28 556.174 524.363 555.502 523.648C554.841 522.923 553.982 522.56 552.926 522.56H550.366V530.24H552.926ZM563.088 525.024C564.154 525.024 565.056 525.344 565.792 525.984C566.528 526.613 566.896 527.488 566.896 528.608C566.896 529.728 566.517 530.608 565.76 531.248C565.002 531.888 564.074 532.208 562.976 532.208C562.09 532.208 561.306 532.005 560.624 531.6C559.941 531.184 559.456 530.587 559.168 529.808L560.752 528.896C561.05 529.909 561.792 530.416 562.976 530.416C563.605 530.416 564.106 530.256 564.48 529.936C564.864 529.605 565.056 529.163 565.056 528.608C565.056 528.053 564.869 527.616 564.496 527.296C564.122 526.976 563.626 526.816 563.008 526.816H559.743L560.176 520.8H566.416V522.528H561.872L561.68 525.024H563.088Z" fill="#C8102E"/>
<rect width="265" height="80" transform="translate(58 559)" fill="#23D639"/>
<path d="M248.136 605.6H246.344L246.088 607.2H247.88L247.672 608.56H245.864L245.416 611.2H243.992L244.44 608.56H242.648L242.2 611.2H240.776L241.224 608.56H239.4L239.624 607.2H241.448L241.704 605.6H239.88L240.104 604.24H241.944L242.376 601.6H243.8L243.368 604.24H245.16L245.592 601.6H247.016L246.584 604.24H248.36L248.136 605.6ZM244.664 607.2L244.92 605.6H243.128L242.872 607.2H244.664ZM255.534 606.176C256.632 606.784 257.182 607.691 257.182 608.896C257.182 609.92 256.824 610.731 256.11 611.328C255.395 611.915 254.446 612.208 253.262 612.208C252.078 612.208 251.123 611.915 250.398 611.328C249.683 610.731 249.326 609.92 249.326 608.896C249.326 608.32 249.47 607.797 249.758 607.328C250.046 606.848 250.451 606.464 250.974 606.176C250.131 605.621 249.71 604.832 249.71 603.808C249.71 602.784 250.051 601.995 250.734 601.44C251.416 600.875 252.259 600.592 253.262 600.592C254.254 600.592 255.091 600.875 255.774 601.44C256.467 601.995 256.814 602.784 256.814 603.808C256.814 604.832 256.387 605.621 255.534 606.176ZM253.262 602.336C252.76 602.336 252.35 602.469 252.03 602.736C251.71 603.003 251.55 603.387 251.55 603.888C251.55 604.368 251.71 604.747 252.03 605.024C252.36 605.301 252.771 605.44 253.262 605.44C253.742 605.44 254.147 605.301 254.478 605.024C254.808 604.747 254.974 604.368 254.974 603.888C254.974 603.387 254.808 603.003 254.478 602.736C254.158 602.469 253.752 602.336 253.262 602.336ZM253.262 610.464C253.88 610.464 254.382 610.315 254.766 610.016C255.15 609.707 255.342 609.275 255.342 608.72C255.342 608.165 255.15 607.739 254.766 607.44C254.382 607.131 253.88 606.976 253.262 606.976C252.632 606.976 252.126 607.131 251.742 607.44C251.358 607.739 251.166 608.165 251.166 608.72C251.166 609.275 251.358 609.707 251.742 610.016C252.126 610.315 252.632 610.464 253.262 610.464ZM261.978 605.024C263.045 605.024 263.946 605.344 264.682 605.984C265.418 606.613 265.786 607.488 265.786 608.608C265.786 609.728 265.407 610.608 264.65 611.248C263.893 611.888 262.965 612.208 261.866 612.208C260.981 612.208 260.197 612.005 259.514 611.6C258.831 611.184 258.346 610.587 258.058 609.808L259.642 608.896C259.941 609.909 260.682 610.416 261.866 610.416C262.495 610.416 262.997 610.256 263.37 609.936C263.754 609.605 263.946 609.163 263.946 608.608C263.946 608.053 263.759 607.616 263.386 607.296C263.013 606.976 262.517 606.816 261.898 606.816H258.634L259.066 600.8H265.306V602.528H260.762L260.57 605.024H261.978ZM273.977 602.56H269.257V605.696H273.817V607.456H269.257V612H267.417V600.8H273.977V602.56ZM282.258 602.56H277.538V605.696H282.098V607.456H277.538V612H275.698V600.8H282.258V602.56ZM289.275 612.208C287.59 612.208 286.193 611.653 285.083 610.544C283.974 609.424 283.419 608.043 283.419 606.4C283.419 604.757 283.974 603.381 285.083 602.272C286.193 601.152 287.59 600.592 289.275 600.592C290.289 600.592 291.222 600.832 292.075 601.312C292.939 601.792 293.611 602.443 294.091 603.264L292.491 604.192C292.193 603.637 291.755 603.2 291.179 602.88C290.614 602.549 289.979 602.384 289.275 602.384C288.081 602.384 287.11 602.763 286.363 603.52C285.627 604.277 285.259 605.237 285.259 606.4C285.259 607.563 285.627 608.523 286.363 609.28C287.11 610.037 288.081 610.416 289.275 610.416C289.979 610.416 290.619 610.256 291.195 609.936C291.771 609.605 292.203 609.163 292.491 608.608L294.091 609.52C293.622 610.341 292.955 610.997 292.091 611.488C291.238 611.968 290.299 612.208 289.275 612.208ZM294.584 600.8H301.704V602.4L297.768 612H295.832L299.704 602.56H294.584V600.8Z" fill="white"/>
<rect width="265" height="80" transform="translate(323 559)" fill="#FF0000"/>
<path d="M510.136 605.6H508.344L508.088 607.2H509.88L509.672 608.56H507.864L507.416 611.2H505.992L506.44 608.56H504.648L504.2 611.2H502.776L503.224 608.56H501.4L501.624 607.2H503.448L503.704 605.6H501.88L502.104 604.24H503.944L504.376 601.6H505.8L505.368 604.24H507.16L507.592 601.6H509.016L508.584 604.24H510.36L510.136 605.6ZM506.664 607.2L506.92 605.6H505.128L504.872 607.2H506.664ZM518.446 602.56H513.726V605.696H518.286V607.456H513.726V612H511.886V600.8H518.446V602.56ZM526.727 602.56H522.007V605.696H526.567V607.456H522.007V612H520.167V600.8H526.727V602.56ZM535.6 610.624C534.832 611.68 533.755 612.208 532.368 612.208C530.981 612.208 529.899 611.68 529.12 610.624C528.352 609.568 527.968 608.16 527.968 606.4C527.968 604.64 528.352 603.232 529.12 602.176C529.899 601.12 530.981 600.592 532.368 600.592C533.755 600.592 534.832 601.12 535.6 602.176C536.379 603.232 536.768 604.64 536.768 606.4C536.768 608.16 536.379 609.568 535.6 610.624ZM532.368 610.416C533.2 610.416 533.835 610.069 534.272 609.376C534.709 608.683 534.928 607.691 534.928 606.4C534.928 605.109 534.709 604.117 534.272 603.424C533.835 602.731 533.2 602.384 532.368 602.384C531.547 602.384 530.912 602.731 530.464 603.424C530.027 604.117 529.808 605.109 529.808 606.4C529.808 607.691 530.027 608.683 530.464 609.376C530.912 610.069 531.547 610.416 532.368 610.416ZM545.678 610.624C544.91 611.68 543.833 612.208 542.446 612.208C541.06 612.208 539.977 611.68 539.198 610.624C538.43 609.568 538.046 608.16 538.046 606.4C538.046 604.64 538.43 603.232 539.198 602.176C539.977 601.12 541.06 600.592 542.446 600.592C543.833 600.592 544.91 601.12 545.678 602.176C546.457 603.232 546.846 604.64 546.846 606.4C546.846 608.16 546.457 609.568 545.678 610.624ZM542.446 610.416C543.278 610.416 543.913 610.069 544.35 609.376C544.788 608.683 545.006 607.691 545.006 606.4C545.006 605.109 544.788 604.117 544.35 603.424C543.913 602.731 543.278 602.384 542.446 602.384C541.625 602.384 540.99 602.731 540.542 603.424C540.105 604.117 539.886 605.109 539.886 606.4C539.886 607.691 540.105 608.683 540.542 609.376C540.99 610.069 541.625 610.416 542.446 610.416ZM555.756 610.624C554.988 611.68 553.911 612.208 552.524 612.208C551.138 612.208 550.055 611.68 549.276 610.624C548.508 609.568 548.124 608.16 548.124 606.4C548.124 604.64 548.508 603.232 549.276 602.176C550.055 601.12 551.138 600.592 552.524 600.592C553.911 600.592 554.988 601.12 555.756 602.176C556.535 603.232 556.924 604.64 556.924 606.4C556.924 608.16 556.535 609.568 555.756 610.624ZM552.524 610.416C553.356 610.416 553.991 610.069 554.428 609.376C554.866 608.683 555.084 607.691 555.084 606.4C555.084 605.109 554.866 604.117 554.428 603.424C553.991 602.731 553.356 602.384 552.524 602.384C551.703 602.384 551.068 602.731 550.62 603.424C550.183 604.117 549.964 605.109 549.964 606.4C549.964 607.691 550.183 608.683 550.62 609.376C551.068 610.069 551.703 610.416 552.524 610.416ZM565.835 610.624C565.067 611.68 563.989 612.208 562.603 612.208C561.216 612.208 560.133 611.68 559.355 610.624C558.587 609.568 558.203 608.16 558.203 606.4C558.203 604.64 558.587 603.232 559.355 602.176C560.133 601.12 561.216 600.592 562.603 600.592C563.989 600.592 565.067 601.12 565.835 602.176C566.613 603.232 567.003 604.64 567.003 606.4C567.003 608.16 566.613 609.568 565.835 610.624ZM562.603 610.416C563.435 610.416 564.069 610.069 564.507 609.376C564.944 608.683 565.163 607.691 565.163 606.4C565.163 605.109 564.944 604.117 564.507 603.424C564.069 602.731 563.435 602.384 562.603 602.384C561.781 602.384 561.147 602.731 560.699 603.424C560.261 604.117 560.043 605.109 560.043 606.4C560.043 607.691 560.261 608.683 560.699 609.376C561.147 610.069 561.781 610.416 562.603 610.416Z" fill="white"/>
</svg>
