<svg width="645" height="768" viewBox="0 0 645 768" fill="none" xmlns="http://www.w3.org/2000/svg">
<rect width="645" height="768" fill="#0C2340"/>
<g clip-path="url(#clip0_234_2167)">
<path d="M426.353 532.877H432.786V549.723H435.479V532.877H441.913V530.793H426.353V532.877Z" fill="white"/>
<path d="M382.919 542.525C382.919 546.243 380.597 548.284 376.403 548.284C372.765 548.284 370.668 546.157 370.668 542.461V530.793H367.996V542.268C367.996 543.944 368.222 546.071 369.99 547.897C371.059 548.972 373.032 550.239 376.362 550.239C379.137 550.239 381.337 549.444 382.899 547.897C384.667 546.071 384.893 543.922 384.893 542.268V530.793H382.899V542.525H382.919Z" fill="white"/>
<path d="M403.352 530.793H400.68V549.723H415.212V547.639H403.352V530.793Z" fill="white"/>
<path d="M471.946 539.989C472.954 539.001 473.529 537.626 473.529 536.315C473.529 534.983 473.036 533.629 472.214 532.748C470.569 531.051 469.192 530.771 465.862 530.771H456.345V549.701H459.017V541.601H466.273L470.898 549.701H473.981L469.11 541.429C470.24 541.214 471.186 540.741 471.946 539.989ZM470.857 536.336C470.857 538.421 469.459 539.667 467.095 539.667H459.017V532.877H466.705C469.541 532.877 470.857 533.973 470.857 536.336Z" fill="white"/>
<path d="M499.263 530.901L499.202 530.793H496.509L487.608 549.723H490.013L492.316 544.459H502.532L504.978 549.723H508L499.263 530.901ZM501.668 542.611H493.138L497.311 533.178L501.668 542.611Z" fill="white"/>
<path d="M198.084 533.285C197.919 534.488 198.68 535.519 199.749 535.519C200.818 535.519 201.866 534.488 202.031 533.285C202.195 532.081 201.434 531.05 200.366 531.05C199.297 531.05 198.248 532.081 198.084 533.285Z" fill="white"/>
<path d="M283 538.399C280.389 538.399 277.655 541.751 276.114 543.47C279.587 537.475 283.205 531.888 286.885 526.044H283.185C280.965 529.524 278.539 533.371 276.216 537.26C274.181 540.204 271.427 543.319 268.323 544.565C268.487 543.77 268.549 542.954 268.508 542.137C268.467 541.085 268.138 539.709 267.295 539.065C266.74 538.614 265.918 538.313 264.849 538.313C261.54 538.313 258.086 540.483 255.846 543.642L255.866 543.599C255.825 543.663 255.784 543.727 255.743 543.792C255.537 544.093 255.352 544.372 255.167 544.694C252.557 548.927 250.09 554.278 247.48 554.278C246.904 554.278 246.514 553.955 246.472 553.096C246.329 548.111 257.264 530.943 260.368 526.065H256.606C253.831 530.534 250.316 536.25 247.397 541.6C245.465 545.167 240.367 554.493 235.969 554.493C234.612 554.493 233.872 553.698 233.831 552.279C233.749 550.174 234.776 548.046 235.866 546.37C236.256 546.478 236.647 546.542 237.058 546.542C239.977 546.542 244.807 543.964 244.684 540.44C244.622 538.828 243.184 538.313 241.745 538.313C238.23 538.313 234.468 541.88 232.639 544.737C231.076 547.187 227.993 554.407 224.91 554.407C224.19 554.407 223.759 554.063 223.738 553.289C223.615 549.937 229.021 545.876 228.877 541.493C228.815 539.731 227.602 538.399 225.629 538.399C222.813 538.399 220.038 541.665 218.311 543.663C218.805 542.632 219.298 541.6 219.812 540.569C222.69 538.141 231.775 531.158 231.631 527.182C231.59 526.001 230.83 525.227 229.596 525.227C224.704 525.227 219.812 533.736 217.715 537.711C216.914 539.237 216.215 540.848 215.392 542.352C213.501 545.769 207.89 554.407 203.799 554.407C202.34 554.407 201.99 553.612 201.949 552.215C201.826 548.863 206.8 539.258 210.315 539.258C210.87 539.258 211.343 539.495 211.364 540.139C211.425 541.858 208.63 542.288 208.691 544.093C208.712 544.823 209.267 545.275 209.945 545.275C211.857 545.275 212.597 542.696 212.535 541.042C212.474 539.215 211.343 538.399 209.678 538.399C205.217 538.399 201.476 542.782 199.606 546.564C198.64 548.498 195.412 554.385 193.028 554.385C192.473 554.385 192.124 554.041 192.103 553.461C191.98 550.131 196.79 541.643 198.537 538.614H195.042C192.494 542.202 189.369 548.154 189.369 551.592C189.369 553.934 190.582 555.352 192.781 555.352C195.248 555.352 197.468 552.215 198.681 550.281C198.599 553.547 200.51 555.374 203.594 555.374C207.437 555.374 210.911 551.012 212.946 548.068C212.494 549.121 210.911 552.838 210.089 555.094L213.46 554.965C214.632 551.721 216.153 548.562 218.065 545.747C219.38 543.813 223.183 539.387 225.588 539.387C226.02 539.387 226.41 539.645 226.431 540.139C226.513 542.546 220.757 547.294 220.922 551.914C220.984 553.848 222.607 555.395 224.457 555.395C227.52 555.395 229.637 552.172 231.035 549.744C230.994 550.109 230.974 550.474 230.974 550.84C231.076 553.719 233.132 555.374 235.784 555.374C239.278 555.374 242.361 551.635 244.211 548.97C244.047 549.765 243.862 550.711 243.882 551.527C243.965 553.762 245.136 555.245 247.356 555.245C250.152 555.245 252.29 551.549 253.605 549.357C253.544 550.002 253.544 550.646 253.646 551.205C254.057 553.698 255.702 555.352 258.21 555.352C262.609 555.352 266.699 549.529 268.035 545.618C270.05 544.995 271.797 543.663 273.318 542.202L273.524 541.858C273.297 542.266 273.051 542.675 272.825 543.083C271.612 545.253 269.741 548.755 269.844 551.398C269.926 554.02 272.085 555.266 274.387 555.266C278.971 555.266 282.938 551.57 284.911 547.574C285.672 546.048 286.268 543.921 286.206 542.18C286.104 540.161 285.137 538.399 283 538.399ZM242.608 539.194C242.937 539.194 243.204 539.366 243.225 539.731C243.307 542.137 239.155 545.79 236.935 545.79C236.709 545.79 236.482 545.79 236.256 545.726C237.181 544.222 240.922 539.194 242.608 539.194ZM229.617 526.28C230.275 526.28 230.645 526.624 230.665 527.225C230.768 530.234 223.286 536.336 220.984 538.248C222.279 535.756 227.191 526.28 229.617 526.28ZM257.757 554.493C256.791 554.493 256.236 553.612 256.216 552.688C256.154 550.904 257.449 548.326 258.333 546.757C259.854 544.093 261.56 541.278 264.068 539.86C263.328 540.719 262.917 541.944 262.917 543.147C262.917 544.673 263.78 546.134 265.692 546.027C264.397 548.863 261.149 554.493 257.757 554.493ZM266.124 545.038C264.479 545.253 263.904 544.394 263.904 543.169C263.904 541.665 264.931 539.623 266.165 539.623C266.699 539.623 267.028 540.118 267.069 540.891C267.11 542.266 266.617 543.813 266.124 545.038ZM281.396 546.822C280.184 549.013 276.956 554.493 274.12 554.493C273.092 554.493 272.496 553.869 272.455 552.795C272.372 550.431 274.346 547.445 275.6 545.618C276.833 543.856 280.718 539.409 282.815 539.409C283.431 539.409 283.822 539.666 283.842 540.354C283.904 541.987 282.198 545.382 281.396 546.822Z" fill="white"/>
<path d="M183.49 554.75C183.49 554.364 183.531 553.934 183.593 553.612C185.094 545.489 193.768 526.989 201.065 524.282C202.052 523.916 203.224 523.809 204.149 523.916C204.231 523.487 203.82 523.186 203.203 523.164C189.904 523.186 180.53 538.248 172.616 547.488C173.994 545.017 175.021 542.331 176.09 539.688C177.365 536.551 181.044 525.442 184.806 525.442C185.073 525.442 185.402 525.485 185.751 525.614C185.834 525.378 185.772 525.012 185.196 524.776C180.427 522.864 174.179 521.102 168.402 521.102C164.004 521.102 157.714 522.541 157.714 527.934C157.714 530.191 159.152 531.544 160.674 531.544C161.002 531.544 161.208 531.458 161.27 531.372C160.139 530.728 159.666 529.653 159.666 528.429C159.666 523.637 165.73 522.412 169.615 522.412C174.158 522.412 178.906 523.444 183.244 524.862C182.236 524.969 181.25 525.141 180.284 525.442C173.726 527.483 167.827 534.617 163.962 540.225C159.646 546.478 154.425 556.104 145.915 556.104C142.831 556.104 140.241 554.643 140.097 551.098C139.871 545.425 145.154 539.817 150.622 539.817C153.13 539.817 154.569 541.192 154.61 543.513C154.671 546.628 152.287 548.927 150.046 549.679C150.211 550.088 150.992 550.195 151.794 549.808C154.055 548.713 155.72 546.091 155.617 543.341C155.494 540.182 153.191 538.592 149.738 538.592C143.736 538.592 137.734 542.89 138.001 549.701C138.186 554.536 141.495 557.157 146.059 557.157C164.127 557.157 169.348 528.837 181.825 525.872C173.377 530.298 172.061 541.944 168.444 550.109C167.971 551.205 167.395 552.236 166.614 553.117C166.984 553.354 167.375 553.418 167.786 553.418C169.101 553.418 170.006 552.86 170.91 551.936C172.596 550.195 173.994 548.132 175.515 546.242C180.242 540.397 189.164 528.837 195.618 526.022C189.143 530.169 179.605 547.423 179.893 554.557C179.955 556.169 180.88 557.007 182.401 557.007C183.079 557.007 183.799 556.878 184.333 556.62C183.716 556.233 183.49 555.417 183.49 554.75Z" fill="white"/>
<path d="M287.11 553.569H286.39V555.395H286.02V553.569H285.321V553.29H287.13V553.569H287.11ZM287.829 555.374H287.439V553.268H288.035L288.734 554.858L289.412 553.268H290.008V555.374H289.638V553.612H289.617L288.857 555.374H288.61L287.85 553.612H287.829V555.374Z" fill="white"/>
<path d="M198.084 533.285C197.919 534.488 198.68 535.519 199.749 535.519C200.818 535.519 201.866 534.488 202.031 533.285C202.195 532.081 201.434 531.05 200.366 531.05C199.297 531.05 198.248 532.081 198.084 533.285Z" fill="white"/>
<path d="M283 538.399C280.389 538.399 277.655 541.751 276.114 543.47C279.587 537.475 283.205 531.888 286.885 526.044H283.185C280.965 529.524 278.539 533.371 276.216 537.26C274.181 540.204 271.427 543.319 268.323 544.565C268.487 543.77 268.549 542.954 268.508 542.137C268.467 541.085 268.138 539.709 267.295 539.065C266.74 538.614 265.918 538.313 264.849 538.313C261.54 538.313 258.086 540.483 255.846 543.642L255.866 543.599C255.825 543.663 255.784 543.727 255.743 543.792C255.537 544.093 255.352 544.372 255.167 544.694C252.557 548.927 250.09 554.278 247.48 554.278C246.904 554.278 246.514 553.955 246.472 553.096C246.329 548.111 257.264 530.943 260.368 526.065H256.606C253.831 530.534 250.316 536.25 247.397 541.6C245.465 545.167 240.367 554.493 235.969 554.493C234.612 554.493 233.872 553.698 233.831 552.279C233.749 550.174 234.776 548.046 235.866 546.37C236.256 546.478 236.647 546.542 237.058 546.542C239.977 546.542 244.807 543.964 244.684 540.44C244.622 538.828 243.184 538.313 241.745 538.313C238.23 538.313 234.468 541.88 232.639 544.737C231.076 547.187 227.993 554.407 224.91 554.407C224.19 554.407 223.759 554.063 223.738 553.289C223.615 549.937 229.021 545.876 228.877 541.493C228.815 539.731 227.602 538.399 225.629 538.399C222.813 538.399 220.038 541.665 218.311 543.663C218.805 542.632 219.298 541.6 219.812 540.569C222.69 538.141 231.775 531.158 231.631 527.182C231.59 526.001 230.83 525.227 229.596 525.227C224.704 525.227 219.812 533.736 217.715 537.711C216.914 539.237 216.215 540.848 215.392 542.352C213.501 545.769 207.89 554.407 203.799 554.407C202.34 554.407 201.99 553.612 201.949 552.215C201.826 548.863 206.8 539.258 210.315 539.258C210.87 539.258 211.343 539.495 211.364 540.139C211.425 541.858 208.63 542.288 208.691 544.093C208.712 544.823 209.267 545.275 209.945 545.275C211.857 545.275 212.597 542.696 212.535 541.042C212.474 539.215 211.343 538.399 209.678 538.399C205.217 538.399 201.476 542.782 199.606 546.564C198.64 548.498 195.412 554.385 193.028 554.385C192.473 554.385 192.124 554.041 192.103 553.461C191.98 550.131 196.79 541.643 198.537 538.614H195.042C192.494 542.202 189.369 548.154 189.369 551.592C189.369 553.934 190.582 555.352 192.781 555.352C195.248 555.352 197.468 552.215 198.681 550.281C198.599 553.547 200.51 555.374 203.594 555.374C207.437 555.374 210.911 551.012 212.946 548.068C212.494 549.121 210.911 552.838 210.089 555.094L213.46 554.965C214.632 551.721 216.153 548.562 218.065 545.747C219.38 543.813 223.183 539.387 225.588 539.387C226.02 539.387 226.41 539.645 226.431 540.139C226.513 542.546 220.757 547.294 220.922 551.914C220.984 553.848 222.607 555.395 224.457 555.395C227.52 555.395 229.637 552.172 231.035 549.744C230.994 550.109 230.974 550.474 230.974 550.84C231.076 553.719 233.132 555.374 235.784 555.374C239.278 555.374 242.361 551.635 244.211 548.97C244.047 549.765 243.862 550.711 243.882 551.527C243.965 553.762 245.136 555.245 247.356 555.245C250.152 555.245 252.29 551.549 253.605 549.357C253.544 550.002 253.544 550.646 253.646 551.205C254.057 553.698 255.702 555.352 258.21 555.352C262.609 555.352 266.699 549.529 268.035 545.618C270.05 544.995 271.797 543.663 273.318 542.202L273.524 541.858C273.297 542.266 273.051 542.675 272.825 543.083C271.612 545.253 269.741 548.755 269.844 551.398C269.926 554.02 272.085 555.266 274.387 555.266C278.971 555.266 282.938 551.57 284.911 547.574C285.672 546.048 286.268 543.921 286.206 542.18C286.104 540.161 285.137 538.399 283 538.399ZM242.608 539.194C242.937 539.194 243.204 539.366 243.225 539.731C243.307 542.137 239.155 545.79 236.935 545.79C236.709 545.79 236.482 545.79 236.256 545.726C237.181 544.222 240.922 539.194 242.608 539.194ZM229.617 526.28C230.275 526.28 230.645 526.624 230.665 527.225C230.768 530.234 223.286 536.336 220.984 538.248C222.279 535.756 227.191 526.28 229.617 526.28ZM257.757 554.493C256.791 554.493 256.236 553.612 256.216 552.688C256.154 550.904 257.449 548.326 258.333 546.757C259.854 544.093 261.56 541.278 264.068 539.86C263.328 540.719 262.917 541.944 262.917 543.147C262.917 544.673 263.78 546.134 265.692 546.027C264.397 548.863 261.149 554.493 257.757 554.493ZM266.124 545.038C264.479 545.253 263.904 544.394 263.904 543.169C263.904 541.665 264.931 539.623 266.165 539.623C266.699 539.623 267.028 540.118 267.069 540.891C267.11 542.266 266.617 543.813 266.124 545.038ZM281.396 546.822C280.184 549.013 276.956 554.493 274.12 554.493C273.092 554.493 272.496 553.869 272.455 552.795C272.372 550.431 274.346 547.445 275.6 545.618C276.833 543.856 280.718 539.409 282.815 539.409C283.431 539.409 283.822 539.666 283.842 540.354C283.904 541.987 282.198 545.382 281.396 546.822Z" fill="white"/>
<path d="M183.49 554.75C183.49 554.364 183.531 553.934 183.593 553.612C185.094 545.489 193.768 526.989 201.065 524.282C202.052 523.916 203.224 523.809 204.149 523.916C204.231 523.487 203.82 523.186 203.203 523.164C189.904 523.186 180.53 538.248 172.616 547.488C173.994 545.017 175.021 542.331 176.09 539.688C177.365 536.551 181.044 525.442 184.806 525.442C185.073 525.442 185.402 525.485 185.751 525.614C185.834 525.378 185.772 525.012 185.196 524.776C180.427 522.864 174.179 521.102 168.402 521.102C164.004 521.102 157.714 522.541 157.714 527.934C157.714 530.191 159.152 531.544 160.674 531.544C161.002 531.544 161.208 531.458 161.27 531.372C160.139 530.728 159.666 529.653 159.666 528.429C159.666 523.637 165.73 522.412 169.615 522.412C174.158 522.412 178.906 523.444 183.244 524.862C182.236 524.969 181.25 525.141 180.284 525.442C173.726 527.483 167.827 534.617 163.962 540.225C159.646 546.478 154.425 556.104 145.915 556.104C142.831 556.104 140.241 554.643 140.097 551.098C139.871 545.425 145.154 539.817 150.622 539.817C153.13 539.817 154.569 541.192 154.61 543.513C154.671 546.628 152.287 548.927 150.046 549.679C150.211 550.088 150.992 550.195 151.794 549.808C154.055 548.713 155.72 546.091 155.617 543.341C155.494 540.182 153.191 538.592 149.738 538.592C143.736 538.592 137.734 542.89 138.001 549.701C138.186 554.536 141.495 557.157 146.059 557.157C164.127 557.157 169.348 528.837 181.825 525.872C173.377 530.298 172.061 541.944 168.444 550.109C167.971 551.205 167.395 552.236 166.614 553.117C166.984 553.354 167.375 553.418 167.786 553.418C169.101 553.418 170.006 552.86 170.91 551.936C172.596 550.195 173.994 548.132 175.515 546.242C180.242 540.397 189.164 528.837 195.618 526.022C189.143 530.169 179.605 547.423 179.893 554.557C179.955 556.169 180.88 557.007 182.401 557.007C183.079 557.007 183.799 556.878 184.333 556.62C183.716 556.233 183.49 555.417 183.49 554.75Z" fill="white"/>
<path d="M287.11 553.569H286.39V555.395H286.02V553.569H285.321V553.29H287.13V553.569H287.11ZM287.829 555.374H287.439V553.268H288.035L288.734 554.858L289.412 553.268H290.008V555.374H289.638V553.612H289.617L288.857 555.374H288.61L287.85 553.612H287.829V555.374Z" fill="white"/>
<path d="M343.988 564.656H343.268V566.483H342.898V564.656H342.199V564.377H344.008V564.656H343.988ZM344.686 566.461H344.316V564.355H344.913L345.611 565.946L346.29 564.355H346.886V566.461H346.516V564.699H346.495L345.735 566.461H345.488L344.728 564.699H344.707V566.461H344.686Z" fill="#EFF0F6"/>
<path d="M315.334 566.483V514.247H340.042V566.483L327.688 553.612L315.334 566.483Z" fill="#C8102E"/>
<path d="M327.688 553.612L315.334 566.483V514.247H327.688V553.612Z" fill="#C8102E"/>
</g>
<path d="M396.906 234H247.613C234.019 234 223 245.019 223 258.613V408.387C223 421.981 234.019 433 247.613 433H396.906C410.499 433 421.518 421.981 421.518 408.387V258.613C421.518 245.019 410.499 234 396.906 234Z" fill="#DF1E2E"/>
<path d="M282.986 363.512L272.08 341.234H264.241V363.512H253.329V307.653H275.215C277.818 307.612 280.404 308.078 282.829 309.024C284.962 309.868 286.908 311.121 288.557 312.714C290.117 314.245 291.333 316.091 292.124 318.128C292.946 320.246 293.358 322.502 293.338 324.774C293.366 326.586 293.088 328.39 292.515 330.11C291.997 331.618 291.241 333.034 290.276 334.303C289.359 335.512 288.259 336.572 287.017 337.444C285.824 338.289 284.518 338.962 283.137 339.443L295.612 363.518L282.986 363.512ZM282.426 324.757C282.465 323.765 282.292 322.777 281.919 321.857C281.547 320.937 280.983 320.107 280.265 319.421C278.824 318.059 276.902 317.38 274.498 317.383H264.23V332.131H274.51C276.917 332.131 278.839 331.451 280.276 330.093C280.992 329.409 281.554 328.581 281.926 327.665C282.299 326.748 282.473 325.763 282.438 324.774L282.426 324.757Z" fill="white"/>
<path d="M338.611 344.371C338.652 347.149 338.104 349.904 337.004 352.455C335.98 354.789 334.483 356.886 332.609 358.614C330.71 360.336 328.5 361.679 326.098 362.572C320.901 364.454 315.209 364.454 310.012 362.572C307.613 361.679 305.407 360.335 303.512 358.614C301.638 356.886 300.141 354.789 299.117 352.455C298.013 349.905 297.462 347.149 297.499 344.371V307.653H308.405V323.655C308.405 326.895 309.268 329.418 310.992 331.224C312.716 333.031 315.075 333.927 318.069 333.912C321.055 333.912 323.421 333.009 325.168 331.202C326.915 329.396 327.787 326.88 327.783 323.655V307.653H338.611V344.371Z" fill="white"/>
<path d="M377.528 363.513L355.402 329.254V363.535H344.495V307.653H354.226L376.353 341.862V307.653H387.254V363.513H377.528Z" fill="white"/>
<path d="M283.009 407.587H276.604L265.999 382.14L260.854 407.587H253.329L261.52 366.872H267.925L278.563 392.375L283.652 366.872H291.194L283.009 407.587Z" fill="white"/>
<path d="M320.98 378.248C320.98 378.707 320.98 379.178 320.918 379.654C320.856 380.13 320.817 380.701 320.722 381.367C320.627 382.033 320.492 382.828 320.319 383.741C320.145 384.653 319.927 385.762 319.664 387.055C319.167 389.534 318.72 391.631 318.32 393.348C317.981 394.852 317.541 396.332 317.004 397.777C316.588 398.905 316.041 399.979 315.375 400.98C314.724 401.925 313.973 402.798 313.136 403.583C310.351 406.252 306.619 407.586 301.938 407.586H287.465L295.673 366.872H308.998C310.593 366.86 312.181 367.081 313.712 367.527C315.106 367.933 316.399 368.628 317.508 369.565C318.618 370.533 319.489 371.746 320.05 373.109C320.704 374.741 321.021 376.49 320.98 378.248ZM313.371 378.881C313.371 377.052 312.856 375.697 311.825 374.816C310.642 373.882 309.16 373.408 307.654 373.484H301.876L296.389 400.918H302.106C303.196 400.963 304.285 400.787 305.306 400.402C306.328 400.018 307.261 399.431 308.052 398.679C308.496 398.274 308.874 397.801 309.172 397.279C309.557 396.593 309.883 395.876 310.146 395.135C310.525 394.068 310.841 392.98 311.092 391.876C311.394 390.577 311.736 388.959 312.117 387.011C312.576 384.648 312.9 382.856 313.091 381.636C313.249 380.725 313.342 379.805 313.371 378.881Z" fill="white"/>
<path d="M350.945 373.484H333.102L331.041 383.719H346.427L345.111 390.354H329.726L327.587 400.952H345.772L344.462 407.587H318.69L326.87 366.872H352.261L350.945 373.484Z" fill="white"/>
<path d="M380.737 377.796C380.731 379.077 380.529 380.349 380.137 381.569C379.733 382.835 379.134 384.031 378.363 385.113C377.543 386.261 376.549 387.273 375.418 388.114C374.16 389.061 372.754 389.793 371.258 390.281L376.857 407.609H368.559L363.811 391.121H358.089L354.73 407.587H347.183L355.363 366.872H369.662C371.44 366.821 373.209 367.131 374.863 367.785C376.17 368.323 377.342 369.143 378.295 370.187C379.178 371.193 379.823 372.385 380.182 373.675C380.558 375.016 380.744 376.403 380.737 377.796ZM373.189 378.193C373.224 377.574 373.136 376.955 372.929 376.37C372.722 375.786 372.402 375.248 371.986 374.789C371.187 373.972 370.005 373.563 368.441 373.563H361.577L359.293 384.828H366.157C367.288 384.862 368.412 384.638 369.444 384.173C370.28 383.775 371.021 383.202 371.616 382.493C372.15 381.863 372.557 381.134 372.814 380.349C373.053 379.655 373.18 378.927 373.189 378.193Z" fill="white"/>
<path d="M385.597 407.587H377.534L379.253 399.127H387.254L385.597 407.587Z" fill="white"/>
<path d="M308.405 353.026V307.653H327.783V353.026L318.097 343.38L308.405 353.026Z" fill="#D02030"/>
<path d="M318.097 343.38L308.405 353.026V307.653H318.097V343.38Z" fill="#DF1E2E"/>
<defs>
<clipPath id="clip0_234_2167">
<rect width="370" height="52.2353" fill="white" transform="translate(138 514.248)"/>
</clipPath>
</defs>
</svg>
