<svg width="335" height="700" viewBox="0 0 335 700" fill="none" xmlns="http://www.w3.org/2000/svg">
<rect width="335" height="700" fill="#0C2340"/>
<g clip-path="url(#clip0_283_8387)">
<path d="M242.642 452.223H247.319V464.47H249.277V452.223H253.955V450.708H242.642V452.223Z" fill="white"/>
<path d="M211.065 459.237C211.065 461.94 209.376 463.424 206.327 463.424C203.682 463.424 202.158 461.877 202.158 459.19V450.708H200.215V459.05C200.215 460.268 200.379 461.815 201.664 463.143C202.442 463.924 203.876 464.845 206.297 464.845C208.315 464.845 209.914 464.267 211.05 463.143C212.335 461.815 212.499 460.253 212.499 459.05V450.708H211.05V459.237H211.065Z" fill="white"/>
<path d="M225.919 450.708H223.977V464.47H234.542V462.955H225.919V450.708Z" fill="white"/>
<path d="M275.789 457.393C276.521 456.675 276.94 455.675 276.94 454.722C276.94 453.753 276.581 452.769 275.983 452.129C274.788 450.894 273.787 450.691 271.366 450.691H264.446V464.454H266.389V458.565H271.664L275.027 464.454H277.269L273.727 458.44C274.549 458.284 275.236 457.94 275.789 457.393ZM274.997 454.737C274.997 456.253 273.981 457.159 272.262 457.159H266.389V452.222H271.978C274.041 452.222 274.997 453.019 274.997 454.737Z" fill="white"/>
<path d="M295.65 450.786L295.605 450.708H293.648L287.177 464.47H288.925L290.599 460.643H298.026L299.805 464.47H302.002L295.65 450.786ZM297.399 459.299H291.197L294.231 452.442L297.399 459.299Z" fill="white"/>
<path d="M76.6833 452.519C76.5637 453.394 77.1167 454.143 77.8938 454.143C78.6709 454.143 79.433 453.394 79.5526 452.519C79.6722 451.644 79.1192 450.894 78.3421 450.894C77.565 450.894 76.8028 451.644 76.6833 452.519Z" fill="white"/>
<path d="M138.42 456.237C136.522 456.237 134.534 458.674 133.413 459.924C135.939 455.565 138.569 451.503 141.244 447.254H138.554C136.94 449.785 135.177 452.581 133.488 455.409C132.008 457.549 130.006 459.814 127.749 460.72C127.869 460.142 127.914 459.549 127.884 458.955C127.854 458.189 127.615 457.19 127.002 456.721C126.599 456.393 126.001 456.174 125.224 456.174C122.818 456.174 120.307 457.752 118.678 460.048L118.693 460.017C118.663 460.064 118.633 460.111 118.603 460.158C118.454 460.377 118.319 460.58 118.185 460.814C116.287 463.891 114.494 467.781 112.596 467.781C112.177 467.781 111.893 467.547 111.863 466.922C111.759 463.298 119.709 450.816 121.966 447.27H119.231C117.213 450.519 114.658 454.675 112.536 458.564C111.131 461.158 107.425 467.937 104.227 467.937C103.24 467.937 102.702 467.359 102.672 466.328C102.613 464.797 103.36 463.251 104.152 462.032C104.436 462.111 104.72 462.157 105.019 462.157C107.141 462.157 110.653 460.283 110.563 457.721C110.518 456.549 109.472 456.174 108.426 456.174C105.871 456.174 103.136 458.767 101.806 460.845C100.67 462.626 98.4283 467.875 96.1866 467.875C95.6635 467.875 95.3497 467.625 95.3348 467.063C95.2451 464.626 99.1755 461.673 99.0709 458.486C99.026 457.205 98.1443 456.237 96.7097 456.237C94.6623 456.237 92.6448 458.611 91.3894 460.064C91.7481 459.314 92.1068 458.564 92.4804 457.815C94.5726 456.049 101.178 450.972 101.073 448.082C101.044 447.223 100.491 446.661 99.5939 446.661C96.0372 446.661 92.4804 452.847 90.956 455.737C90.3732 456.846 89.8651 458.018 89.2673 459.111C87.8924 461.595 83.8126 467.875 80.8387 467.875C79.7776 467.875 79.5235 467.297 79.4937 466.282C79.404 463.845 83.0205 456.862 85.576 456.862C85.9795 456.862 86.3233 457.033 86.3382 457.502C86.383 458.752 84.3506 459.064 84.3954 460.377C84.4104 460.908 84.8139 461.236 85.307 461.236C86.6969 461.236 87.2349 459.361 87.19 458.158C87.1452 456.83 86.3233 456.237 85.1128 456.237C81.8698 456.237 79.1499 459.424 77.79 462.173C77.0876 463.579 74.7413 467.859 73.0078 467.859C72.6043 467.859 72.3502 467.609 72.3353 467.188C72.2456 464.766 75.7426 458.596 77.0129 456.393H74.4723C72.6192 459.002 70.3477 463.329 70.3477 465.829C70.3477 467.531 71.2294 468.562 72.8284 468.562C74.6218 468.562 76.2358 466.282 77.1175 464.876C77.0577 467.25 78.4475 468.578 80.6892 468.578C83.4838 468.578 86.0094 465.407 87.4889 463.267C87.1602 464.032 86.0094 466.735 85.4117 468.375L87.8625 468.281C88.7144 465.922 89.8203 463.626 91.2101 461.579C92.1665 460.173 94.9313 456.955 96.6798 456.955C96.9936 456.955 97.2775 457.143 97.2925 457.502C97.3523 459.252 93.1678 462.704 93.2874 466.063C93.3322 467.469 94.5128 468.594 95.8578 468.594C98.0845 468.594 99.6238 466.25 100.64 464.485C100.61 464.751 100.595 465.016 100.595 465.282C100.67 467.375 102.164 468.578 104.092 468.578C106.633 468.578 108.874 465.86 110.219 463.923C110.1 464.501 109.965 465.188 109.98 465.782C110.04 467.406 110.892 468.484 112.506 468.484C114.538 468.484 116.093 465.797 117.049 464.204C117.004 464.673 117.004 465.141 117.079 465.547C117.378 467.359 118.573 468.562 120.397 468.562C123.595 468.562 126.569 464.329 127.54 461.486C129.005 461.033 130.275 460.064 131.381 459.002L131.53 458.752C131.366 459.049 131.186 459.346 131.022 459.642C130.14 461.22 128.78 463.766 128.855 465.688C128.915 467.594 130.484 468.5 132.158 468.5C135.49 468.5 138.375 465.813 139.809 462.907C140.362 461.798 140.796 460.252 140.751 458.986C140.676 457.518 139.974 456.237 138.42 456.237ZM109.054 456.815C109.293 456.815 109.487 456.94 109.502 457.205C109.562 458.955 106.543 461.611 104.929 461.611C104.765 461.611 104.6 461.611 104.436 461.564C105.108 460.47 107.828 456.815 109.054 456.815ZM99.6089 447.426C100.087 447.426 100.356 447.676 100.371 448.113C100.446 450.301 95.006 454.737 93.3322 456.127C94.2737 454.315 97.8454 447.426 99.6089 447.426ZM120.068 467.937C119.365 467.937 118.962 467.297 118.947 466.625C118.902 465.329 119.844 463.454 120.486 462.314C121.592 460.377 122.833 458.33 124.656 457.299C124.118 457.924 123.819 458.814 123.819 459.689C123.819 460.798 124.447 461.861 125.836 461.782C124.895 463.845 122.534 467.937 120.068 467.937ZM126.15 461.064C124.955 461.22 124.536 460.595 124.536 459.705C124.536 458.611 125.283 457.127 126.18 457.127C126.569 457.127 126.808 457.487 126.838 458.049C126.868 459.049 126.509 460.173 126.15 461.064ZM137.254 462.361C136.372 463.954 134.026 467.937 131.964 467.937C131.216 467.937 130.783 467.484 130.753 466.703C130.693 464.985 132.128 462.814 133.04 461.486C133.936 460.205 136.761 456.971 138.285 456.971C138.733 456.971 139.017 457.158 139.032 457.658C139.077 458.846 137.837 461.314 137.254 462.361Z" fill="white"/>
<path d="M66.0744 468.125C66.0744 467.844 66.1043 467.531 66.1491 467.297C67.2401 461.392 73.5466 447.942 78.8519 445.973C79.5692 445.708 80.4211 445.63 81.0936 445.708C81.1534 445.395 80.8545 445.177 80.4061 445.161C70.7371 445.177 63.9224 456.128 58.1688 462.845C59.1701 461.048 59.9173 459.096 60.6944 457.174C61.621 454.893 64.296 446.817 67.0309 446.817C67.2251 446.817 67.4642 446.848 67.7183 446.942C67.7781 446.77 67.7332 446.505 67.3148 446.333C63.8477 444.942 59.3046 443.661 55.1052 443.661C51.9071 443.661 47.3341 444.708 47.3341 448.629C47.3341 450.269 48.3802 451.254 49.4861 451.254C49.7252 451.254 49.8746 451.191 49.9195 451.129C49.0975 450.66 48.7538 449.879 48.7538 448.988C48.7538 445.505 53.1624 444.614 55.9869 444.614C59.2896 444.614 62.7418 445.364 65.8951 446.395C65.1628 446.473 64.4455 446.598 63.7431 446.817C58.9758 448.301 54.6867 453.487 51.8772 457.565C48.7389 462.111 44.943 469.109 38.756 469.109C36.5143 469.109 34.6313 468.047 34.5267 465.469C34.3623 461.345 38.203 457.268 42.1782 457.268C44.0015 457.268 45.0476 458.268 45.0775 459.955C45.1223 462.22 43.3887 463.892 41.7598 464.438C41.8793 464.735 42.4472 464.813 43.0301 464.532C44.674 463.735 45.8845 461.829 45.8097 459.83C45.7201 457.533 44.0463 456.377 41.5356 456.377C37.1718 456.377 32.8081 459.502 33.0023 464.454C33.1368 467.969 35.5429 469.875 38.8606 469.875C51.9967 469.875 55.7926 449.285 64.8639 447.129C58.7217 450.347 57.7653 458.814 55.1351 464.751C54.7914 465.547 54.3729 466.297 53.805 466.938C54.074 467.11 54.358 467.156 54.6569 467.156C55.6133 467.156 56.2709 466.75 56.9284 466.079C58.1539 464.813 59.1701 463.314 60.276 461.939C63.7132 457.69 70.1991 449.285 74.8916 447.239C70.1841 450.254 63.2499 462.798 63.4591 467.984C63.504 469.156 64.1765 469.765 65.2824 469.765C65.7755 469.765 66.2986 469.672 66.6871 469.484C66.2388 469.203 66.0744 468.609 66.0744 468.125Z" fill="white"/>
<path d="M141.407 467.266H140.884V468.594H140.615V467.266H140.106V467.063H141.422V467.266H141.407ZM141.93 468.578H141.646V467.047H142.079L142.587 468.203L143.08 467.047H143.514V468.578H143.245V467.297H143.23L142.677 468.578H142.498L141.945 467.297H141.93V468.578Z" fill="white"/>
<path d="M76.6833 452.519C76.5637 453.394 77.1167 454.143 77.8938 454.143C78.6709 454.143 79.433 453.394 79.5526 452.519C79.6722 451.644 79.1192 450.894 78.3421 450.894C77.565 450.894 76.8028 451.644 76.6833 452.519Z" fill="white"/>
<path d="M138.42 456.237C136.522 456.237 134.534 458.674 133.413 459.924C135.939 455.565 138.569 451.503 141.244 447.254H138.554C136.94 449.785 135.177 452.581 133.488 455.409C132.008 457.549 130.006 459.814 127.749 460.72C127.869 460.142 127.914 459.549 127.884 458.955C127.854 458.189 127.615 457.19 127.002 456.721C126.599 456.393 126.001 456.174 125.224 456.174C122.818 456.174 120.307 457.752 118.678 460.048L118.693 460.017C118.663 460.064 118.633 460.111 118.603 460.158C118.454 460.377 118.319 460.58 118.185 460.814C116.287 463.891 114.494 467.781 112.596 467.781C112.177 467.781 111.893 467.547 111.863 466.922C111.759 463.298 119.709 450.816 121.966 447.27H119.231C117.213 450.519 114.658 454.675 112.536 458.564C111.131 461.158 107.425 467.937 104.227 467.937C103.24 467.937 102.702 467.359 102.672 466.328C102.613 464.797 103.36 463.251 104.152 462.032C104.436 462.111 104.72 462.157 105.019 462.157C107.141 462.157 110.653 460.283 110.563 457.721C110.518 456.549 109.472 456.174 108.426 456.174C105.871 456.174 103.136 458.767 101.806 460.845C100.67 462.626 98.4283 467.875 96.1866 467.875C95.6635 467.875 95.3497 467.625 95.3348 467.063C95.2451 464.626 99.1755 461.673 99.0709 458.486C99.026 457.205 98.1443 456.237 96.7097 456.237C94.6623 456.237 92.6448 458.611 91.3894 460.064C91.7481 459.314 92.1068 458.564 92.4804 457.815C94.5726 456.049 101.178 450.972 101.073 448.082C101.044 447.223 100.491 446.661 99.5939 446.661C96.0372 446.661 92.4804 452.847 90.956 455.737C90.3732 456.846 89.8651 458.018 89.2673 459.111C87.8924 461.595 83.8126 467.875 80.8387 467.875C79.7776 467.875 79.5235 467.297 79.4937 466.282C79.404 463.845 83.0205 456.862 85.576 456.862C85.9795 456.862 86.3233 457.033 86.3382 457.502C86.383 458.752 84.3506 459.064 84.3954 460.377C84.4104 460.908 84.8139 461.236 85.307 461.236C86.6969 461.236 87.2349 459.361 87.19 458.158C87.1452 456.83 86.3233 456.237 85.1128 456.237C81.8698 456.237 79.1499 459.424 77.79 462.173C77.0876 463.579 74.7413 467.859 73.0078 467.859C72.6043 467.859 72.3502 467.609 72.3353 467.188C72.2456 464.766 75.7426 458.596 77.0129 456.393H74.4723C72.6192 459.002 70.3477 463.329 70.3477 465.829C70.3477 467.531 71.2294 468.562 72.8284 468.562C74.6218 468.562 76.2358 466.282 77.1175 464.876C77.0577 467.25 78.4475 468.578 80.6892 468.578C83.4838 468.578 86.0094 465.407 87.4889 463.267C87.1602 464.032 86.0094 466.735 85.4117 468.375L87.8625 468.281C88.7144 465.922 89.8203 463.626 91.2101 461.579C92.1665 460.173 94.9313 456.955 96.6798 456.955C96.9936 456.955 97.2775 457.143 97.2925 457.502C97.3523 459.252 93.1678 462.704 93.2874 466.063C93.3322 467.469 94.5128 468.594 95.8578 468.594C98.0845 468.594 99.6238 466.25 100.64 464.485C100.61 464.751 100.595 465.016 100.595 465.282C100.67 467.375 102.164 468.578 104.092 468.578C106.633 468.578 108.874 465.86 110.219 463.923C110.1 464.501 109.965 465.188 109.98 465.782C110.04 467.406 110.892 468.484 112.506 468.484C114.538 468.484 116.093 465.797 117.049 464.204C117.004 464.673 117.004 465.141 117.079 465.547C117.378 467.359 118.573 468.562 120.397 468.562C123.595 468.562 126.569 464.329 127.54 461.486C129.005 461.033 130.275 460.064 131.381 459.002L131.53 458.752C131.366 459.049 131.186 459.346 131.022 459.642C130.14 461.22 128.78 463.766 128.855 465.688C128.915 467.594 130.484 468.5 132.158 468.5C135.49 468.5 138.375 465.813 139.809 462.907C140.362 461.798 140.796 460.252 140.751 458.986C140.676 457.518 139.974 456.237 138.42 456.237ZM109.054 456.815C109.293 456.815 109.487 456.94 109.502 457.205C109.562 458.955 106.543 461.611 104.929 461.611C104.765 461.611 104.6 461.611 104.436 461.564C105.108 460.47 107.828 456.815 109.054 456.815ZM99.6089 447.426C100.087 447.426 100.356 447.676 100.371 448.113C100.446 450.301 95.006 454.737 93.3322 456.127C94.2737 454.315 97.8454 447.426 99.6089 447.426ZM120.068 467.937C119.365 467.937 118.962 467.297 118.947 466.625C118.902 465.329 119.844 463.454 120.486 462.314C121.592 460.377 122.833 458.33 124.656 457.299C124.118 457.924 123.819 458.814 123.819 459.689C123.819 460.798 124.447 461.861 125.836 461.782C124.895 463.845 122.534 467.937 120.068 467.937ZM126.15 461.064C124.955 461.22 124.536 460.595 124.536 459.705C124.536 458.611 125.283 457.127 126.18 457.127C126.569 457.127 126.808 457.487 126.838 458.049C126.868 459.049 126.509 460.173 126.15 461.064ZM137.254 462.361C136.372 463.954 134.026 467.937 131.964 467.937C131.216 467.937 130.783 467.484 130.753 466.703C130.693 464.985 132.128 462.814 133.04 461.486C133.936 460.205 136.761 456.971 138.285 456.971C138.733 456.971 139.017 457.158 139.032 457.658C139.077 458.846 137.837 461.314 137.254 462.361Z" fill="white"/>
<path d="M66.0744 468.125C66.0744 467.844 66.1043 467.531 66.1491 467.297C67.2401 461.392 73.5466 447.942 78.8519 445.973C79.5692 445.708 80.4211 445.63 81.0936 445.708C81.1534 445.395 80.8545 445.177 80.4061 445.161C70.7371 445.177 63.9224 456.128 58.1688 462.845C59.1701 461.048 59.9173 459.096 60.6944 457.174C61.621 454.893 64.296 446.817 67.0309 446.817C67.2251 446.817 67.4642 446.848 67.7183 446.942C67.7781 446.77 67.7332 446.505 67.3148 446.333C63.8477 444.942 59.3046 443.661 55.1052 443.661C51.9071 443.661 47.3341 444.708 47.3341 448.629C47.3341 450.269 48.3802 451.254 49.4861 451.254C49.7252 451.254 49.8746 451.191 49.9195 451.129C49.0975 450.66 48.7538 449.879 48.7538 448.988C48.7538 445.505 53.1624 444.614 55.9869 444.614C59.2896 444.614 62.7418 445.364 65.8951 446.395C65.1628 446.473 64.4455 446.598 63.7431 446.817C58.9758 448.301 54.6867 453.487 51.8772 457.565C48.7389 462.111 44.943 469.109 38.756 469.109C36.5143 469.109 34.6313 468.047 34.5267 465.469C34.3623 461.345 38.203 457.268 42.1782 457.268C44.0015 457.268 45.0476 458.268 45.0775 459.955C45.1223 462.22 43.3887 463.892 41.7598 464.438C41.8793 464.735 42.4472 464.813 43.0301 464.532C44.674 463.735 45.8845 461.829 45.8097 459.83C45.7201 457.533 44.0463 456.377 41.5356 456.377C37.1718 456.377 32.8081 459.502 33.0023 464.454C33.1368 467.969 35.5429 469.875 38.8606 469.875C51.9967 469.875 55.7926 449.285 64.8639 447.129C58.7217 450.347 57.7653 458.814 55.1351 464.751C54.7914 465.547 54.3729 466.297 53.805 466.938C54.074 467.11 54.358 467.156 54.6569 467.156C55.6133 467.156 56.2709 466.75 56.9284 466.079C58.1539 464.813 59.1701 463.314 60.276 461.939C63.7132 457.69 70.1991 449.285 74.8916 447.239C70.1841 450.254 63.2499 462.798 63.4591 467.984C63.504 469.156 64.1765 469.765 65.2824 469.765C65.7755 469.765 66.2986 469.672 66.6871 469.484C66.2388 469.203 66.0744 468.609 66.0744 468.125Z" fill="white"/>
<path d="M141.407 467.266H140.884V468.594H140.615V467.266H140.106V467.063H141.422V467.266H141.407ZM141.93 468.578H141.646V467.047H142.079L142.587 468.203L143.08 467.047H143.514V468.578H143.245V467.297H143.23L142.677 468.578H142.498L141.945 467.297H141.93V468.578Z" fill="white"/>
<path d="M182.759 475.327H182.236V476.654H181.967V475.327H181.459V475.124H182.774V475.327H182.759ZM183.267 476.639H182.998V475.108H183.432L183.94 476.264L184.433 475.108H184.866V476.639H184.597V475.358H184.582L184.029 476.639H183.85L183.297 475.358H183.282V476.639H183.267Z" fill="#EFF0F6"/>
<path d="M161.929 476.654V438.678H179.892V476.654L170.91 467.297L161.929 476.654Z" fill="#C8102E"/>
<path d="M170.91 467.297L161.929 476.654V438.678H170.91V467.297Z" fill="#C8102E"/>
</g>
<path d="M221.434 224H112.894C103.011 224 95 232.011 95 241.894V350.784C95 360.667 103.011 368.678 112.894 368.678H221.434C231.317 368.678 239.328 360.667 239.328 350.784V241.894C239.328 232.011 231.317 224 221.434 224Z" fill="#DF1E2E"/>
<path d="M138.611 318.159L130.682 301.962H124.983V318.159H117.05V277.547H132.961C134.854 277.518 136.734 277.857 138.497 278.544C140.048 279.158 141.462 280.069 142.662 281.227C143.795 282.34 144.679 283.682 145.254 285.163C145.852 286.703 146.152 288.343 146.138 289.995C146.158 291.312 145.955 292.624 145.539 293.874C145.163 294.971 144.613 296 143.911 296.923C143.244 297.802 142.445 298.572 141.542 299.206C140.675 299.821 139.725 300.31 138.721 300.66L147.79 318.163L138.611 318.159ZM138.204 289.983C138.232 289.262 138.107 288.543 137.836 287.874C137.565 287.205 137.155 286.602 136.633 286.103C135.586 285.113 134.188 284.619 132.44 284.622H124.975V295.343H132.449C134.199 295.343 135.596 294.85 136.641 293.862C137.161 293.365 137.57 292.763 137.841 292.097C138.112 291.43 138.238 290.714 138.212 289.995L138.204 289.983Z" fill="white"/>
<path d="M179.052 304.242C179.082 306.262 178.683 308.265 177.884 310.12C177.139 311.817 176.051 313.342 174.689 314.598C173.308 315.849 171.701 316.826 169.955 317.476C166.176 318.843 162.038 318.843 158.26 317.476C156.516 316.826 154.912 315.849 153.534 314.598C152.172 313.342 151.084 311.817 150.339 310.12C149.536 308.266 149.136 306.263 149.162 304.242V277.548H157.092V289.181C157.092 291.537 157.719 293.371 158.972 294.685C160.226 295.998 161.941 296.649 164.117 296.639C166.288 296.639 168.009 295.982 169.279 294.668C170.549 293.355 171.183 291.526 171.18 289.181V277.548H179.052V304.242Z" fill="white"/>
<path d="M207.346 318.159L191.259 293.252V318.176H183.33V277.548H190.405L206.491 302.419V277.548H214.417V318.159H207.346Z" fill="white"/>
<path d="M138.628 350.202H133.971L126.261 331.702L122.521 350.202H117.05L123.005 320.602H127.662L135.396 339.143L139.096 320.602H144.579L138.628 350.202Z" fill="white"/>
<path d="M166.233 328.872C166.233 329.206 166.233 329.548 166.189 329.894C166.144 330.24 166.115 330.655 166.046 331.14C165.977 331.624 165.879 332.202 165.753 332.866C165.627 333.529 165.468 334.335 165.277 335.275C164.916 337.077 164.59 338.602 164.3 339.851C164.053 340.944 163.734 342.02 163.343 343.07C163.041 343.89 162.643 344.671 162.159 345.399C161.685 346.086 161.139 346.72 160.531 347.292C158.506 349.232 155.792 350.202 152.389 350.202H141.867L147.835 320.601H157.522C158.682 320.593 159.836 320.753 160.95 321.077C161.963 321.373 162.903 321.878 163.71 322.559C164.517 323.263 165.149 324.145 165.558 325.136C166.033 326.323 166.263 327.594 166.233 328.872ZM160.701 329.332C160.701 328.003 160.327 327.018 159.578 326.377C158.718 325.698 157.64 325.353 156.545 325.408H152.345L148.356 345.354H152.512C153.304 345.386 154.096 345.259 154.838 344.979C155.581 344.699 156.26 344.273 156.834 343.726C157.157 343.431 157.432 343.088 157.649 342.708C157.929 342.21 158.166 341.688 158.357 341.149C158.632 340.374 158.862 339.582 159.045 338.78C159.265 337.836 159.513 336.659 159.79 335.243C160.123 333.525 160.36 332.222 160.498 331.335C160.613 330.673 160.681 330.004 160.701 329.332Z" fill="white"/>
<path d="M188.02 325.409H175.047L173.549 332.85H184.735L183.778 337.673H172.592L171.037 345.379H184.258L183.306 350.202H164.569L170.516 320.602H188.976L188.02 325.409Z" fill="white"/>
<path d="M209.679 328.543C209.675 329.475 209.528 330.4 209.243 331.287C208.949 332.207 208.514 333.077 207.953 333.863C207.357 334.698 206.635 335.434 205.812 336.045C204.897 336.733 203.875 337.265 202.787 337.621L206.858 350.219H200.825L197.374 338.231H193.214L190.771 350.202H185.284L191.231 320.602H201.627C202.92 320.564 204.206 320.79 205.409 321.265C206.359 321.656 207.211 322.252 207.904 323.011C208.546 323.743 209.015 324.61 209.276 325.547C209.549 326.522 209.684 327.531 209.679 328.543ZM204.192 328.832C204.217 328.382 204.153 327.932 204.002 327.507C203.852 327.082 203.619 326.691 203.317 326.357C202.736 325.763 201.877 325.466 200.74 325.466H195.749L194.089 333.656H199.079C199.901 333.68 200.719 333.518 201.469 333.18C202.076 332.89 202.615 332.474 203.048 331.958C203.436 331.5 203.732 330.971 203.919 330.399C204.093 329.895 204.185 329.366 204.192 328.832Z" fill="white"/>
<path d="M213.212 350.202H207.351L208.6 344.052H214.417L213.212 350.202Z" fill="white"/>
<path d="M157.092 310.535V277.548H171.18V310.535L164.138 303.522L157.092 310.535Z" fill="#D02030"/>
<path d="M164.138 303.522L157.092 310.535V277.548H164.138V303.522Z" fill="#DF1E2E"/>
<defs>
<clipPath id="clip0_283_8387">
<rect width="269" height="37.9765" fill="white" transform="translate(33 438.678)"/>
</clipPath>
</defs>
</svg>
