<svg width="38" height="38" viewBox="0 0 38 38" fill="none" xmlns="http://www.w3.org/2000/svg">
<path d="M12.6667 9.5C13.6272 9.5 14.504 9.58554 15.297 9.75483C16.09 9.92413 16.7672 10.2021 17.3321 10.5888C17.897 10.9755 18.3354 11.4888 18.6472 12.1303C18.9591 12.7718 19.1141 13.563 19.1141 14.5057C19.1141 15.5233 18.8825 16.3715 18.4209 17.0505C17.9594 17.7295 17.2751 18.2855 16.3716 18.7185C17.6154 19.0767 18.5439 19.704 19.1569 20.5985C19.7699 21.4931 20.0764 22.573 20.0764 23.8365C20.0764 24.854 19.8786 25.7362 19.483 26.481C19.0874 27.2259 18.5546 27.8336 17.8845 28.3041C17.2145 28.7763 16.4518 29.1238 15.5946 29.3501C14.7321 29.5764 13.8429 29.6905 12.9518 29.6887H3.16667V9.5H12.6667ZM12.1018 17.6706C12.893 17.6706 13.5435 17.4818 14.0531 17.1057C14.5628 16.7279 14.8176 16.1167 14.8159 15.2685C14.8159 14.798 14.7303 14.4113 14.561 14.1101C14.3917 13.809 14.1654 13.572 13.8821 13.4027C13.5987 13.2334 13.2744 13.1158 12.9073 13.0498C12.5295 12.9839 12.1464 12.95 11.7614 12.9518H7.60751V17.6742L12.1018 17.6706ZM12.3566 26.2369C12.7754 26.2387 13.1924 26.1959 13.6005 26.1104C13.9961 26.0248 14.3454 25.8841 14.6466 25.6863C14.9477 25.4885 15.1883 25.2194 15.3683 24.8808C15.5465 24.5422 15.6374 24.1074 15.6374 23.5799C15.6374 22.5445 15.3451 21.8032 14.7606 21.3612C14.1761 20.9175 13.4027 20.6965 12.4422 20.6965H7.60751V26.2387L12.3566 26.2369ZM25.6613 25.8128C26.2637 26.3973 27.1315 26.6895 28.2631 26.6895C29.074 26.6895 29.7707 26.4864 30.3552 26.0819C30.9397 25.6773 31.2979 25.2479 31.4298 24.7952H34.9636C34.3987 26.5488 33.5308 27.8015 32.3618 28.5553C31.1928 29.3091 29.7796 29.6869 28.1206 29.6869C26.9711 29.6869 25.934 29.5034 25.0109 29.1363C24.0878 28.7692 23.3055 28.2453 22.664 27.5663C22.0224 26.8874 21.527 26.0783 21.1795 25.1356C20.832 24.1929 20.6574 23.1558 20.6574 22.0259C20.6574 20.9336 20.8356 19.916 21.1938 18.9733C21.552 18.0306 22.0616 17.2162 22.721 16.5284C23.3803 15.8405 24.168 15.2988 25.0822 14.9031C25.9964 14.5075 27.0104 14.3097 28.1223 14.3097C29.3662 14.3097 30.4497 14.5503 31.3746 15.0314C32.2977 15.5126 33.0568 16.1577 33.6502 16.9685C34.2436 17.7794 34.6731 18.7024 34.9369 19.7396C35.2006 20.7767 35.295 21.8602 35.2202 22.9918H24.6741C24.7293 24.2874 25.059 25.2301 25.6613 25.8128ZM30.2002 18.1233C29.719 17.5958 28.9884 17.3321 28.0083 17.3321C27.3668 17.3321 26.8339 17.4408 26.4116 17.6564C25.9875 17.8738 25.6489 18.1411 25.394 18.4619C25.1392 18.7826 24.961 19.1212 24.8576 19.4794C24.7543 19.8376 24.6919 20.1584 24.6741 20.4399H31.2053C31.0146 19.4242 30.6796 18.6508 30.2002 18.1233ZM23.9862 10.5247H32.1462V12.7879H23.9862V10.5247Z" fill="white"/>
</svg>
