<svg width="1245" height="282" viewBox="0 0 1245 282" fill="none" xmlns="http://www.w3.org/2000/svg">
<path opacity="0.07" d="M84.7809 10.4185C113.447 10.4185 137.368 20.4022 156.545 40.3695C175.919 60.1392 185.606 84.7524 185.606 114.209C185.606 143.666 175.919 168.378 156.545 188.346C137.368 208.115 113.447 218 84.7809 218H0.265541V10.4185H84.7809ZM84.7809 166.698C99.2127 166.698 110.976 161.953 120.07 152.464C129.164 142.776 133.711 130.025 133.711 114.209C133.711 98.3935 129.164 85.7409 120.07 76.2515C110.976 66.5644 99.2127 61.7208 84.7809 61.7208H54.8298V166.698H84.7809ZM257.426 161.953C262.369 174.012 273.44 180.042 290.639 180.042C301.315 180.042 310.31 176.583 317.625 169.663L353.21 194.573C338.581 212.959 317.328 222.152 289.453 222.152C264.346 222.152 244.181 214.837 228.958 200.207C213.933 185.38 206.421 166.698 206.421 144.16C206.421 121.821 213.834 103.138 228.661 88.1133C243.489 73.0883 262.369 65.5759 285.302 65.5759C307.444 65.5759 325.73 72.9895 340.162 87.8167C354.594 102.644 361.81 121.227 361.81 143.567C361.81 150.091 361.118 156.22 359.734 161.953H257.426ZM256.833 127.85H313.77C309.816 114.012 300.524 107.092 285.895 107.092C270.672 107.092 260.985 114.012 256.833 127.85ZM429.701 113.023C429.701 115.791 432.172 118.064 437.115 119.844C442.255 121.623 448.383 123.303 455.5 124.885C462.815 126.466 470.031 128.74 477.148 131.705C484.463 134.473 490.592 139.317 495.534 146.236C500.674 153.155 503.244 161.854 503.244 172.332C503.244 189.334 496.918 201.888 484.265 209.993C471.613 218.099 456.588 222.152 439.19 222.152C405.977 222.152 383.835 210.389 372.764 186.863L415.763 165.215C419.52 176.088 427.23 181.525 438.894 181.525C447.79 181.525 452.238 178.856 452.238 173.518C452.238 170.75 449.767 168.477 444.825 166.698C439.882 164.918 433.853 163.139 426.736 161.36C419.618 159.581 412.501 157.208 405.384 154.243C398.267 151.277 392.237 146.533 387.295 140.009C382.353 133.287 379.881 125.083 379.881 115.395C379.881 99.5797 385.713 87.3225 397.378 78.6238C409.042 69.9252 423.078 65.5759 439.487 65.5759C468.746 65.5759 489.109 77.0423 500.575 99.9751L459.059 118.657C454.71 110.156 448.581 105.906 440.673 105.906C433.358 105.906 429.701 108.278 429.701 113.023ZM572.298 49.2659C566.763 54.8014 560.14 57.5692 552.43 57.5692C544.719 57.5692 537.998 54.8014 532.264 49.2659C526.729 43.5327 523.961 36.811 523.961 29.1008C523.961 21.3907 526.729 14.7678 532.264 9.23232C537.998 3.69681 544.719 0.929057 552.43 0.929057C560.14 0.929057 566.763 3.69681 572.298 9.23232C578.031 14.7678 580.898 21.3907 580.898 29.1008C580.898 36.811 578.031 43.5327 572.298 49.2659ZM527.816 218V69.7275H577.043V218H527.816ZM716.693 69.7275H765.326V212.069C765.326 223.931 763.053 234.409 758.506 243.503C754.157 252.795 748.226 260.109 740.713 265.447C733.201 270.983 724.897 275.035 715.803 277.606C706.907 280.373 697.418 281.757 687.335 281.757C670.926 281.757 656.297 278.693 643.446 272.564C630.596 266.436 620.909 257.44 614.385 245.579L655.308 221.855C662.425 233.124 672.903 238.758 686.742 238.758C695.638 238.758 702.854 236.485 708.39 231.938C713.925 227.391 716.693 220.768 716.693 212.069V197.835C706.61 210.092 692.772 216.221 675.177 216.221C654.814 216.221 637.911 208.906 624.467 194.276C611.222 179.647 604.599 161.854 604.599 140.898C604.599 119.942 611.222 102.15 624.467 87.5202C637.911 72.8907 654.814 65.5759 675.177 65.5759C692.772 65.5759 706.61 71.7045 716.693 83.9617V69.7275ZM662.425 163.139C668.356 168.872 675.967 171.739 685.259 171.739C694.551 171.739 702.063 168.872 707.797 163.139C713.728 157.208 716.693 149.795 716.693 140.898C716.693 132.002 713.728 124.687 707.797 118.954C702.063 113.023 694.551 110.058 685.259 110.058C675.967 110.058 668.356 113.023 662.425 118.954C656.692 124.687 653.825 132.002 653.825 140.898C653.825 149.795 656.692 157.208 662.425 163.139ZM889.681 65.5759C905.695 65.5759 918.743 71.1114 928.825 82.1824C939.105 93.0557 944.246 108.773 944.246 129.333V218H895.019V135.56C895.019 127.85 892.943 122.018 888.792 118.064C884.838 114.11 879.5 112.133 872.778 112.133C865.068 112.133 859.038 114.506 854.689 119.251C850.537 123.798 848.461 130.42 848.461 139.119V218H799.235V69.7275H848.461V84.5548C857.358 71.9022 871.098 65.5759 889.681 65.5759ZM1019.96 161.953C1024.9 174.012 1035.97 180.042 1053.17 180.042C1063.84 180.042 1072.84 176.583 1080.15 169.663L1115.74 194.573C1101.11 212.959 1079.86 222.152 1051.98 222.152C1026.87 222.152 1006.71 214.837 991.487 200.207C976.462 185.38 968.95 166.698 968.95 144.16C968.95 121.821 976.363 103.138 991.191 88.1133C1006.02 73.0883 1024.9 65.5759 1047.83 65.5759C1069.97 65.5759 1088.26 72.9895 1102.69 87.8167C1117.12 102.644 1124.34 121.227 1124.34 143.567C1124.34 150.091 1123.65 156.22 1122.26 161.953H1019.96ZM1019.36 127.85H1076.3C1072.35 114.012 1063.05 107.092 1048.42 107.092C1033.2 107.092 1023.51 114.012 1019.36 127.85ZM1200.1 97.3062C1202.87 87.619 1208.4 80.1066 1216.7 74.7688C1225.01 69.431 1234.3 66.762 1244.58 66.762V121.326C1233.31 119.547 1223.03 121.623 1213.74 127.554C1204.64 133.485 1200.1 143.172 1200.1 156.615V218H1150.87V69.7275H1200.1V97.3062Z" fill="white"/>
</svg>
