<svg width="38" height="38" viewBox="0 0 38 38" fill="none" xmlns="http://www.w3.org/2000/svg">
<path d="M11.9296 30.9569H6.33334V14.1681H11.9296V30.9569ZM9.13259 11.9296C7.58467 11.9296 6.33334 10.675 6.33334 9.13039C6.33334 7.58582 7.58691 6.33337 9.13259 6.33337C10.6749 6.33337 11.9296 7.58806 11.9296 9.13039C11.9296 10.675 10.6749 11.9296 9.13259 11.9296ZM32.0762 30.9569H26.6959V22.7864C26.6959 20.8378 26.659 18.3318 23.8989 18.3318C21.0974 18.3318 20.6665 20.4539 20.6665 22.6454V30.9569H15.2874V14.1558H20.4516V16.4514H20.5244C21.2429 15.1307 22.999 13.7384 25.6181 13.7384C31.0688 13.7384 32.0762 17.2181 32.0762 21.7421V30.9569Z" fill="white"/>
</svg>
