<svg width="159" height="48" viewBox="0 0 159 48" fill="none" xmlns="http://www.w3.org/2000/svg">
<path d="M38.103 14.6085C37.4255 12.7049 36.3743 10.9574 35.0118 9.46983C33.6493 7.9823 32.0033 6.78503 30.1714 5.94913C28.3381 5.11673 26.3571 4.66275 24.3459 4.61411C22.3348 4.56547 20.3343 4.92317 18.4633 5.66598C16.5937 6.41239 14.8924 7.52875 13.4606 8.94879C12.0287 10.3688 10.8954 12.0636 10.128 13.9323C9.36169 15.8014 8.97836 17.8065 9.00094 19.8278C8.99277 20.8267 9.06591 21.8246 9.21962 22.8115C9.37172 23.8355 9.69296 24.8268 10.1701 25.7444C11.15 27.604 12.7312 28.9563 14.2115 30.1566C14.8825 30.7571 15.462 31.4534 15.9316 32.2232C16.1811 32.612 16.4166 33.0135 16.6381 33.4276L16.9703 34.0573L17.0545 34.2179C17.0965 34.2855 17.1302 34.3574 17.1764 34.425C17.2584 34.5563 17.3528 34.6794 17.4582 34.7927C17.8548 35.213 18.3407 35.5381 18.8796 35.7435C19.3667 35.9374 19.8728 36.0791 20.3894 36.1662C21.3759 36.3318 22.3752 36.4082 23.3753 36.3944C25.3234 36.362 27.2674 36.2053 29.1957 35.9253L29.7719 35.8492C29.7093 35.9893 29.6347 36.1236 29.549 36.2507C29.4677 36.3774 29.3636 36.4877 29.242 36.5761C29.0589 36.6888 28.8677 36.7877 28.67 36.8719C28.2634 37.0444 27.8408 37.1761 27.4084 37.265C25.5826 37.5767 23.7197 37.601 21.8866 37.3368C21.4198 37.2734 20.9488 37.2227 20.4861 37.134L19.788 37.0156H19.6997C19.596 36.9908 19.488 36.9908 19.3843 37.0156C19.2725 37.0459 19.1709 37.1057 19.0899 37.1889C18.9692 37.3139 18.8899 37.4733 18.8628 37.6453C18.8312 37.8138 18.8213 37.9857 18.8334 38.1567C18.8508 38.4574 18.9131 38.7537 19.0184 39.0357C19.1318 39.3454 19.3129 39.6256 19.5483 39.8556C19.7724 40.0466 20.0214 40.2058 20.2885 40.3289C20.5251 40.4472 20.7696 40.5489 21.0202 40.6332C21.5031 40.7954 21.9981 40.9184 22.5006 41.0009C22.7487 41.0431 22.9884 41.0812 23.2492 41.1108C23.5062 41.138 23.7645 41.1507 24.023 41.1488C25.0288 41.1527 26.031 41.0262 27.0047 40.7727C27.3188 40.6898 27.6278 40.5882 27.9299 40.4684L27.9088 40.5107C27.8034 40.6912 27.6809 40.861 27.543 41.0178C27.3965 41.1818 27.2391 41.3357 27.072 41.4784C26.7372 41.7689 26.3617 42.0081 25.9575 42.1884C25.555 42.3675 25.1308 42.4925 24.6959 42.5603C24.2609 42.6258 23.8187 42.6258 23.3837 42.5603C22.4715 42.3705 21.6037 42.0077 20.8268 41.4911C20.8146 41.4822 20.7998 41.4774 20.7847 41.4774C20.7696 41.4774 20.7549 41.4822 20.7427 41.4911C20.7293 41.5046 20.7218 41.5228 20.7218 41.5418C20.7218 41.5608 20.7293 41.5791 20.7427 41.5925C21.4156 42.3448 22.2767 42.9023 23.2365 43.2069C24.2516 43.5093 25.3408 43.4358 26.3066 42.9999C26.7783 42.7808 27.2229 42.5071 27.6313 42.1842C27.8367 42.0218 28.0306 41.8453 28.2116 41.6559C28.396 41.4549 28.5595 41.2354 28.6995 41.0009C28.8524 40.7603 28.9727 40.5002 29.0569 40.2275C29.0876 40.1332 29.1046 40.035 29.1074 39.9359C29.1098 39.856 29.0999 39.7761 29.078 39.6992C29.0395 39.5688 28.9598 39.4546 28.8509 39.3738C28.7481 39.2986 28.6247 39.2572 28.4976 39.2555C28.4254 39.2556 28.3534 39.2641 28.2831 39.2808C28.1927 39.307 28.1042 39.3395 28.0182 39.378C27.6128 39.5611 27.1902 39.7027 26.7565 39.8007C25.864 40.0123 24.9482 40.1089 24.0314 40.088C23.8092 40.0858 23.5873 40.0702 23.3669 40.0415C23.1482 40.012 22.9127 39.9739 22.6898 39.9317C22.246 39.8467 21.8089 39.7295 21.3819 39.5809C21.179 39.5078 20.9809 39.4217 20.7889 39.3231C20.6215 39.2379 20.4648 39.1329 20.3221 39.0104C20.1382 38.7939 20.0264 38.5249 20.0025 38.2412L20.2801 38.2961C20.7595 38.3933 21.2473 38.4567 21.731 38.5328C23.7005 38.8644 25.7123 38.8516 27.6775 38.4948C28.1877 38.3853 28.6863 38.2268 29.1663 38.0215C29.4107 37.9142 29.6481 37.7914 29.877 37.6538C30.1565 37.4742 30.3957 37.2382 30.5793 36.9607C30.7493 36.7204 30.8905 36.4608 30.9999 36.1873C31.0583 36.0381 31.1034 35.8839 31.1345 35.7266C31.1502 35.6288 31.1587 35.5299 31.1597 35.4308C31.1628 35.2854 31.1341 35.1412 31.0756 35.0082C31.0273 34.897 30.9557 34.7975 30.8657 34.7166C30.7757 34.6356 30.6694 34.5751 30.5541 34.5391C30.4599 34.5116 30.362 34.4988 30.2639 34.5011H30.1504H30.1041L29.7509 34.5518L29.0401 34.6447C27.1652 34.9214 25.2743 35.0752 23.3795 35.1054C22.457 35.1202 21.535 35.0509 20.6249 34.8983C19.7544 34.7377 18.8754 34.4419 18.4002 33.9178C18.3434 33.8542 18.2914 33.7864 18.2446 33.715C18.2211 33.6799 18.2 33.6431 18.1815 33.6051L18.0974 33.4487L17.7568 32.7979C17.5213 32.3753 17.2689 31.9316 16.9998 31.5089C16.4619 30.6317 15.7972 29.8398 15.0274 29.1592C14.2919 28.5755 13.5899 27.9504 12.9247 27.287C12.285 26.6487 11.7397 25.9214 11.3056 25.1274C10.4645 23.5638 10.2962 21.6789 10.2836 19.794C10.2635 17.9411 10.6139 16.103 11.314 14.3888C12.0176 12.6781 13.0557 11.1267 14.3668 9.82656C15.6779 8.52641 17.2354 7.50393 18.9469 6.81972C20.6608 6.13987 22.4929 5.81241 24.3349 5.85669C26.1769 5.90097 27.9914 6.3161 29.6709 7.07752C31.3488 7.84311 32.8563 8.93986 34.104 10.3026C35.3517 11.6653 36.314 13.2661 36.9338 15.01C37.5432 16.7603 37.7991 18.6151 37.6866 20.466C37.6412 21.3709 37.4728 22.2652 37.1862 23.1242C36.88 23.9711 36.4429 24.7641 35.8909 25.474C35.3315 26.2009 34.6797 26.894 34.0278 27.6082C33.704 27.9674 33.376 28.3309 33.0564 28.7028C32.7367 29.0747 32.4424 29.4466 32.1312 29.772C31.5829 30.4219 30.8648 30.9049 30.0579 31.1666C29.6645 31.2637 29.2567 31.2866 28.8551 31.2342C28.4363 31.1939 28.0255 31.0928 27.6355 30.9342C27.2632 30.777 26.9247 30.5488 26.6388 30.2622L26.4958 30.1185C27.7155 28.9844 28.7956 27.7074 29.713 26.315C30.0077 25.848 30.2237 25.3354 30.3522 24.7978C30.4157 24.5094 30.4397 24.2137 30.4237 23.9188C30.4156 23.6067 30.3559 23.2982 30.2471 23.0059C30.1257 22.6795 29.9247 22.3889 29.6625 22.1607C29.4053 21.9383 29.1 21.7791 28.771 21.6958C28.1906 21.5684 27.5878 21.5888 27.0173 21.755C26.7333 21.8358 26.4606 21.9522 26.2056 22.1015C25.9689 22.2513 25.7452 22.4209 25.537 22.6086C25.125 22.9735 24.7731 23.4013 24.494 23.8765C23.9638 24.8114 23.6747 25.8646 23.6529 26.9405C23.6347 27.5114 23.7349 28.0799 23.9473 28.6098C24.1399 29.1235 24.4109 29.604 24.7505 30.034C24.2102 30.5832 23.5404 30.9859 22.8034 31.2047C22.6172 31.248 22.4268 31.2706 22.2356 31.2723C22.034 31.271 21.8328 31.2526 21.6343 31.2173C21.247 31.1447 20.879 30.9922 20.5534 30.7694C19.8903 30.2654 19.4065 29.5599 19.174 28.7577C19.1404 28.6563 19.111 28.5506 19.0857 28.4492C19.0585 28.3506 19.0375 28.2504 19.0226 28.1491C18.9806 27.9336 18.9511 27.7265 18.9259 27.4729C18.8712 27.0081 18.8418 26.5432 18.7997 26.0614C18.7577 25.5796 18.7409 25.1232 18.7283 24.6541L18.6862 23.2003C18.6862 22.5579 18.661 21.9325 18.6862 21.2859L19.2161 21.1929C20.0025 21.0492 20.7805 20.9097 21.5712 20.8337C22.3618 20.7576 23.1608 20.7238 23.9935 20.6688C22.4099 20.1134 20.7047 20.0067 19.0647 20.3603L18.703 20.4322C18.703 20.4026 18.703 20.373 18.703 20.3434C18.7202 18.4662 19.1285 16.6134 19.9016 14.9044C20.3052 14.0685 20.8248 13.2944 21.445 12.6053C21.7358 12.2858 22.0974 12.0397 22.5006 11.8869C22.676 11.8098 22.8684 11.7802 23.0588 11.8009C23.2491 11.8217 23.4307 11.8921 23.5856 12.0052C23.7278 12.1374 23.8378 12.3007 23.9071 12.4824C23.9763 12.6642 24.0031 12.8595 23.9851 13.0533C23.9852 13.4479 23.855 13.8314 23.615 14.1437C23.4974 14.2935 23.3461 14.4133 23.1737 14.4934C23.0012 14.5734 22.8124 14.6114 22.6225 14.6043C22.4161 14.5977 22.2149 14.5381 22.038 14.431C21.8509 14.2944 21.6726 14.1462 21.5039 13.9873C21.5091 14.1199 21.5404 14.2502 21.596 14.3706C21.6516 14.491 21.7303 14.5991 21.8277 14.6888C22.022 14.892 22.2677 15.0381 22.5384 15.1114C22.8254 15.1801 23.1252 15.1717 23.4079 15.0872C23.6907 15.0026 23.9463 14.8448 24.1491 14.6297C24.3393 14.4146 24.4852 14.1639 24.5783 13.8918C24.6714 13.6198 24.7099 13.3319 24.6916 13.0449C24.6833 12.7551 24.6134 12.4706 24.4864 12.2103C24.3595 11.9501 24.1785 11.7202 23.9557 11.5361C23.7219 11.3494 23.4407 11.2323 23.144 11.198C22.8609 11.1652 22.574 11.194 22.3029 11.2825C21.7957 11.4542 21.3361 11.7438 20.9614 12.1278C20.2632 12.8468 19.6687 13.6605 19.1951 14.5451C18.3027 16.3326 17.79 18.287 17.6895 20.2843C17.6895 20.411 17.6685 20.5421 17.6643 20.6688C17.3362 20.7407 17.0166 20.8168 16.6928 20.8802C15.907 21.0431 15.1064 21.1225 14.3041 21.1168C15.0808 21.4513 15.9253 21.5961 16.7685 21.5394C17.0545 21.5394 17.3362 21.4972 17.6096 21.4591C17.5844 22.0466 17.5675 22.634 17.5591 23.2172V24.6626C17.5591 25.157 17.5591 25.6515 17.5591 26.1459C17.5591 26.6404 17.6138 27.1264 17.6643 27.6209C17.6895 27.8702 17.7189 28.1196 17.761 28.3774C17.782 28.5084 17.8115 28.6436 17.8451 28.8C17.8787 28.9563 17.9208 29.0578 17.9629 29.1845C18.2914 30.2654 18.9598 31.21 19.8679 31.8766C20.339 32.1999 20.8717 32.4215 21.4324 32.5274C21.7098 32.5788 21.9914 32.6043 22.2735 32.6035C22.5637 32.6018 22.8528 32.5678 23.1356 32.5021C24.0769 32.2375 24.9354 31.7356 25.6295 31.0441C25.6799 31.1032 25.7388 31.1582 25.7977 31.2173C26.1962 31.6113 26.6658 31.9254 27.1813 32.1429C27.6826 32.3485 28.211 32.4794 28.7499 32.5317C29.3035 32.6023 29.8653 32.5693 30.4069 32.4345C31.4434 32.1133 32.3698 31.5072 33.0816 30.6848C33.4307 30.3087 33.7461 29.9157 34.0489 29.5691C34.3517 29.2226 34.6713 28.8591 34.9951 28.5041C35.6385 27.7941 36.3114 27.0842 36.9254 26.2812C37.5592 25.4671 38.0603 24.557 38.41 23.5849C38.7366 22.6131 38.9277 21.6004 38.9777 20.5759C39.0876 18.5479 38.7901 16.5185 38.103 14.6085ZM25.6631 29.1845C25.184 28.5645 24.917 27.8056 24.9019 27.0208C24.9189 26.1566 25.1486 25.3101 25.5706 24.5569C25.7897 24.2003 26.0604 23.8784 26.3738 23.6018C26.6481 23.3276 26.9865 23.1271 27.3579 23.0186C27.7161 22.9144 28.0937 22.8971 28.4598 22.9679C28.5977 22.9992 28.7259 23.0642 28.833 23.157C28.94 23.2499 29.0227 23.3678 29.0738 23.5004C29.183 23.8435 29.199 24.2097 29.12 24.5611C29.019 24.9625 28.8543 25.345 28.6322 25.6937C28.141 26.4709 27.5778 27.1997 26.95 27.8702C26.6304 28.2168 26.3066 28.5591 25.9701 28.8929L25.6631 29.1845Z" fill="#011627"/>
<path d="M56.8964 26.6538C56.9005 26.6885 56.8967 26.7236 56.8853 26.7566C56.8739 26.7895 56.8551 26.8195 56.8304 26.8441C56.8058 26.8688 56.7758 26.8876 56.7429 26.899C56.7099 26.9104 56.6748 26.9142 56.6401 26.9101H55.4717C55.4371 26.9142 55.4019 26.9104 55.369 26.899C55.336 26.8876 55.3061 26.8688 55.2814 26.8441C55.2567 26.8195 55.238 26.7895 55.2266 26.7566C55.2151 26.7236 55.2114 26.6885 55.2155 26.6538V21.155H53.2578C53.2232 21.1592 53.1881 21.1554 53.1551 21.144C53.1222 21.1325 53.0922 21.1138 53.0675 21.0891C53.0429 21.0645 53.0241 21.0345 53.0127 21.0015C53.0013 20.9686 52.9975 20.9334 53.0016 20.8988V19.7919C52.9976 19.757 53.0015 19.7217 53.0129 19.6886C53.0243 19.6554 53.043 19.6252 53.0675 19.6002C53.092 19.5752 53.1219 19.5559 53.1548 19.5438C53.1877 19.5318 53.2229 19.5272 53.2578 19.5305H55.2155V16.6556C55.2115 16.6207 55.2154 16.5854 55.2268 16.5523C55.2382 16.5191 55.2568 16.4889 55.2814 16.4639C55.3059 16.4389 55.3357 16.4196 55.3687 16.4075C55.4016 16.3955 55.4368 16.3909 55.4717 16.3942H56.6555C56.6904 16.3909 56.7256 16.3955 56.7586 16.4075C56.7915 16.4196 56.8213 16.4389 56.8459 16.4639C56.8704 16.4889 56.8891 16.5191 56.9005 16.5523C56.9119 16.5854 56.9157 16.6207 56.9117 16.6556V19.5305H58.8694C58.9043 19.5272 58.9395 19.5318 58.9724 19.5438C59.0054 19.5559 59.0352 19.5752 59.0597 19.6002C59.0843 19.6252 59.1029 19.6554 59.1143 19.6886C59.1257 19.7217 59.1296 19.757 59.1256 19.7919V20.9039C59.1297 20.9386 59.1259 20.9737 59.1145 21.0067C59.1031 21.0396 59.0843 21.0696 59.0597 21.0942C59.035 21.1189 59.0051 21.1377 58.9721 21.1491C58.9392 21.1605 58.904 21.1643 58.8694 21.1602H56.9117L56.8964 26.6538Z" fill="#011627"/>
<path d="M67.9657 26.6538C67.9698 26.6885 67.9661 26.7236 67.9546 26.7566C67.9432 26.7895 67.9245 26.8195 67.8998 26.8441C67.8751 26.8688 67.8452 26.8875 67.8122 26.899C67.7793 26.9104 67.7441 26.9142 67.7095 26.9101H66.5257C66.491 26.9142 66.4559 26.9104 66.423 26.899C66.39 26.8875 66.36 26.8688 66.3354 26.8441C66.3107 26.8195 66.292 26.7895 66.2805 26.7566C66.2691 26.7236 66.2653 26.6885 66.2695 26.6538V25.9159C65.9821 26.3071 65.6025 26.6213 65.1644 26.8305C64.7263 27.0398 64.2433 27.1375 63.7584 27.115C61.4728 27.115 60.2172 25.2702 60.2172 23.2767C60.1866 22.7526 60.2663 22.2279 60.4512 21.7365C60.6361 21.2452 60.9221 20.7982 61.2906 20.4243C61.6592 20.0504 62.1021 19.7581 62.5907 19.5662C63.0794 19.3742 63.6029 19.287 64.1273 19.3102C66.2848 19.3102 67.9657 20.6375 67.9657 23.2972V26.6538ZM64.1273 20.9347C63.828 20.922 63.5293 20.9732 63.2512 21.0848C62.9732 21.1965 62.7221 21.3661 62.5146 21.5823C62.3071 21.7985 62.148 22.0563 62.0479 22.3388C61.9478 22.6212 61.909 22.9217 61.934 23.2203C61.934 24.9166 62.9589 25.511 63.907 25.5623C64.2181 25.5926 64.5322 25.555 64.8274 25.4519C65.1226 25.3489 65.3918 25.183 65.6165 24.9656C65.8412 24.7482 66.016 24.4845 66.1287 24.1929C66.2415 23.9013 66.2895 23.5887 66.2695 23.2767C66.2695 21.3754 65.0703 20.9347 64.1273 20.9347Z" fill="#011627"/>
<path d="M71.8708 22.9998V26.6537C71.8749 26.6884 71.8711 26.7235 71.8597 26.7565C71.8483 26.7894 71.8295 26.8194 71.8048 26.844C71.7802 26.8687 71.7502 26.8874 71.7173 26.8989C71.6843 26.9103 71.6492 26.9141 71.6145 26.91H70.4359C70.401 26.9139 70.3657 26.9101 70.3326 26.8987C70.2994 26.8873 70.2692 26.8686 70.2442 26.8441C70.2191 26.8195 70.1999 26.7897 70.1878 26.7568C70.1758 26.7238 70.1712 26.6886 70.1745 26.6537V22.9998C70.1745 20.5451 71.7426 19.3101 73.7925 19.3101C75.8424 19.3101 77.4054 20.5451 77.4054 22.9998V26.6537C77.4095 26.6884 77.4057 26.7235 77.3943 26.7565C77.3829 26.7894 77.3642 26.8194 77.3395 26.844C77.3148 26.8687 77.2849 26.8874 77.2519 26.8989C77.2189 26.9103 77.1838 26.9141 77.1492 26.91H75.9705C75.9359 26.9141 75.9007 26.9103 75.8678 26.8989C75.8348 26.8874 75.8049 26.8687 75.7802 26.844C75.7555 26.8194 75.7368 26.7894 75.7254 26.7565C75.7139 26.7235 75.7102 26.6884 75.7143 26.6537V22.9998C75.7143 21.3036 74.6278 20.9499 73.7976 20.9499C72.9674 20.9499 71.8708 21.3036 71.8708 22.9998Z" fill="#011627"/>
<path d="M80.6596 15.564C80.9314 15.564 81.1921 15.6719 81.3843 15.8642C81.5765 16.0564 81.6845 16.3171 81.6845 16.5889C81.6845 16.8607 81.5765 17.1214 81.3843 17.3136C81.1921 17.5059 80.9314 17.6138 80.6596 17.6138C80.3878 17.6138 80.1271 17.5059 79.9348 17.3136C79.7426 17.1214 79.6346 16.8607 79.6346 16.5889C79.6346 16.3171 79.7426 16.0564 79.9348 15.8642C80.1271 15.6719 80.3878 15.564 80.6596 15.564ZM81.5051 26.6538C81.5093 26.6884 81.5055 26.7236 81.4941 26.7565C81.4826 26.7895 81.4639 26.8194 81.4392 26.8441C81.4146 26.8688 81.3846 26.8875 81.3517 26.8989C81.3187 26.9104 81.2836 26.9141 81.2489 26.91H80.0702C80.0354 26.914 80.0001 26.9101 79.967 26.8987C79.9338 26.8873 79.9036 26.8687 79.8786 26.8441C79.8535 26.8196 79.8343 26.7898 79.8222 26.7568C79.8102 26.7239 79.8056 26.6887 79.8089 26.6538V19.7918C79.8048 19.7565 79.8087 19.7207 79.8204 19.6872C79.8321 19.6536 79.8512 19.6231 79.8764 19.5979C79.9015 19.5728 79.932 19.5537 79.9656 19.542C79.9991 19.5303 80.0349 19.5264 80.0702 19.5305H81.2489C81.284 19.5262 81.3197 19.5301 81.3531 19.5418C81.3865 19.5535 81.4167 19.5727 81.4415 19.5979C81.4663 19.6232 81.4849 19.6538 81.496 19.6875C81.507 19.7211 81.5101 19.7568 81.5051 19.7918V26.6538Z" fill="#011627"/>
<path d="M91.283 26.6538C91.2871 26.6885 91.2833 26.7236 91.2719 26.7566C91.2605 26.7895 91.2417 26.8195 91.2171 26.8441C91.1924 26.8688 91.1625 26.8876 91.1295 26.899C91.0965 26.9104 91.0614 26.9142 91.0268 26.9101H89.8481C89.8132 26.914 89.778 26.9102 89.7448 26.8988C89.7116 26.8874 89.6814 26.8687 89.6564 26.8442C89.6314 26.8196 89.6121 26.7898 89.6001 26.7569C89.588 26.7239 89.5835 26.6887 89.5867 26.6538V25.9159C89.3001 26.3067 88.9214 26.6207 88.4842 26.8299C88.047 27.0391 87.5649 27.1371 87.0808 27.115C84.79 27.115 83.5396 25.2702 83.5396 23.2767C83.509 22.7526 83.5887 22.2279 83.7736 21.7366C83.9585 21.2452 84.2445 20.7982 84.613 20.4243C84.9816 20.0504 85.4245 19.7581 85.9131 19.5662C86.4018 19.3742 86.9253 19.287 87.4497 19.3102C89.6072 19.3102 91.283 20.6375 91.283 23.2972V26.6538ZM87.4497 20.9347C87.1499 20.9212 86.8507 20.9719 86.572 21.0832C86.2933 21.1945 86.0416 21.364 85.8335 21.5803C85.6255 21.7965 85.466 22.0547 85.3656 22.3375C85.2651 22.6203 85.2262 22.9212 85.2512 23.2203C85.2512 24.9166 86.2762 25.511 87.2294 25.5623C87.5403 25.5927 87.8542 25.5551 88.1491 25.452C88.4441 25.349 88.7131 25.1829 88.9374 24.9654C89.1617 24.7479 89.336 24.4842 89.4481 24.1926C89.5603 23.901 89.6076 23.5884 89.5867 23.2767C89.5867 21.3754 88.3875 20.9347 87.4497 20.9347Z" fill="#011627"/>
<path d="M106.524 23.2766C106.523 23.3116 106.514 23.346 106.5 23.3778C106.485 23.4096 106.464 23.4382 106.439 23.462C106.413 23.4858 106.383 23.5043 106.35 23.5165C106.317 23.5286 106.282 23.5342 106.247 23.5328H100.569C100.569 23.8063 100.625 24.0768 100.735 24.3274C100.844 24.578 101.004 24.8033 101.205 24.9891C101.406 25.1748 101.643 25.3171 101.901 25.4069C102.159 25.4967 102.433 25.5321 102.706 25.5109C102.979 25.5254 103.251 25.4853 103.508 25.3929C103.765 25.3005 104.001 25.1577 104.202 24.9728C104.259 24.9209 104.329 24.8864 104.404 24.8737C104.48 24.8609 104.557 24.8705 104.628 24.9011L105.714 25.3777C105.745 25.3898 105.774 25.409 105.796 25.4339C105.819 25.4588 105.835 25.4887 105.844 25.521C105.853 25.5534 105.854 25.5874 105.848 25.6204C105.841 25.6533 105.827 25.6843 105.806 25.7108C105.444 26.182 104.973 26.5576 104.432 26.805C103.892 27.0524 103.299 27.1641 102.706 27.1303C100.548 27.1303 98.8676 25.7876 98.8676 23.2202C98.8676 20.6527 100.548 19.3101 102.706 19.3101C104.863 19.3101 106.544 20.6578 106.544 23.2202L106.524 23.2766ZM104.694 22.2977C104.562 21.8771 104.292 21.5135 103.928 21.266C103.563 21.0185 103.125 20.9017 102.685 20.9346C102.246 20.9026 101.809 21.0198 101.444 21.2672C101.08 21.5145 100.809 21.8776 100.677 22.2977H104.694Z" fill="#011627"/>
<path d="M109.881 24.7525C109.952 24.7339 110.028 24.7425 110.093 24.7766C110.158 24.8107 110.209 24.8678 110.234 24.937C110.403 25.1415 110.618 25.3033 110.861 25.4092C111.104 25.5152 111.368 25.5623 111.633 25.5468C112.356 25.5468 113.037 25.2496 113.037 24.732C113.037 23.3688 108.553 24.732 108.553 21.7648C108.553 19.9558 110.091 19.3101 111.628 19.3101C112.884 19.3101 114.139 19.7354 114.58 21.1191C114.636 21.2472 114.544 21.3753 114.395 21.4317L113.417 21.6725C113.288 21.7084 113.181 21.6725 113.089 21.5085C112.923 21.284 112.7 21.1087 112.443 21.0012C112.186 20.8938 111.904 20.8584 111.628 20.8987C110.926 20.8987 110.229 21.0986 110.229 21.7084C110.229 23.0562 114.708 21.6725 114.708 24.732C114.708 26.5256 113.104 27.1303 111.633 27.1303C110.378 27.1303 109.014 26.7101 108.666 25.3264C108.625 25.1573 108.702 25.0651 108.866 25.0087L109.881 24.7525Z" fill="#011627"/>
<path d="M117.111 23.2203C117.111 20.6579 118.792 19.3101 120.95 19.3101C121.465 19.2931 121.977 19.3832 122.455 19.5746C122.934 19.7661 123.367 20.0547 123.728 20.4223C124.089 20.7899 124.369 21.2283 124.552 21.71C124.734 22.1916 124.815 22.7059 124.788 23.2203C124.788 25.7826 123.107 27.1304 120.95 27.1304C120.551 27.1324 120.156 27.0536 119.789 26.8985C119.422 26.7435 119.089 26.5155 118.813 26.2285V32.1782C118.816 32.2131 118.812 32.2483 118.799 32.2813C118.787 32.3142 118.768 32.344 118.743 32.3685C118.718 32.3931 118.688 32.4117 118.655 32.4231C118.622 32.4345 118.586 32.4384 118.551 32.4344H117.373C117.338 32.4384 117.303 32.4345 117.27 32.4231C117.236 32.4117 117.206 32.3931 117.181 32.3685C117.156 32.344 117.137 32.3142 117.125 32.2813C117.113 32.2483 117.108 32.2131 117.111 32.1782V23.2203ZM120.95 25.511C121.893 25.511 123.092 25.0651 123.092 23.2203C123.092 21.3754 121.893 20.9346 120.95 20.9346C120.007 20.9346 118.813 21.3754 118.813 23.2203C118.813 25.0651 120.012 25.5161 120.95 25.5161V25.511Z" fill="#011627"/>
<path d="M127.853 15.564C128.125 15.564 128.385 15.6719 128.577 15.8642C128.77 16.0564 128.878 16.3171 128.878 16.5889C128.878 16.8607 128.77 17.1214 128.577 17.3136C128.385 17.5059 128.125 17.6138 127.853 17.6138C127.581 17.6138 127.32 17.5059 127.128 17.3136C126.936 17.1214 126.828 16.8607 126.828 16.5889C126.828 16.3171 126.936 16.0564 127.128 15.8642C127.32 15.6719 127.581 15.564 127.853 15.564ZM128.698 26.6538C128.702 26.6884 128.699 26.7236 128.687 26.7565C128.676 26.7895 128.657 26.8194 128.632 26.8441C128.608 26.8688 128.578 26.8875 128.545 26.8989C128.512 26.9104 128.477 26.9141 128.442 26.91H127.258C127.224 26.9141 127.189 26.9104 127.156 26.8989C127.123 26.8875 127.093 26.8688 127.068 26.8441C127.043 26.8194 127.025 26.7895 127.013 26.7565C127.002 26.7236 126.998 26.6884 127.002 26.6538V19.7918C126.998 19.757 127.002 19.7217 127.013 19.6885C127.025 19.6554 127.043 19.6252 127.068 19.6002C127.093 19.5751 127.122 19.5559 127.155 19.5438C127.188 19.5318 127.223 19.5272 127.258 19.5305H128.442C128.477 19.5272 128.512 19.5318 128.545 19.5438C128.578 19.5559 128.608 19.5751 128.632 19.6002C128.657 19.6252 128.676 19.6554 128.687 19.6885C128.698 19.7217 128.702 19.757 128.698 19.7918V26.6538Z" fill="#011627"/>
<path d="M134.453 26.6538C134.458 26.6884 134.454 26.7235 134.442 26.7565C134.431 26.7895 134.412 26.8194 134.387 26.8441C134.363 26.8687 134.333 26.8875 134.3 26.8989C134.267 26.9103 134.232 26.9141 134.197 26.91H133.018C132.984 26.914 132.948 26.9101 132.915 26.8987C132.882 26.8873 132.852 26.8687 132.827 26.8441C132.802 26.8196 132.783 26.7897 132.77 26.7568C132.758 26.7239 132.754 26.6887 132.757 26.6538V21.155H130.805C130.77 21.1589 130.735 21.1551 130.701 21.1437C130.668 21.1323 130.638 21.1136 130.613 21.0891C130.588 21.0645 130.569 21.0347 130.557 21.0018C130.545 20.9689 130.54 20.9337 130.543 20.8987V19.7918C130.539 19.7565 130.543 19.7207 130.555 19.6871C130.566 19.6536 130.586 19.6231 130.611 19.5979C130.636 19.5728 130.666 19.5537 130.7 19.542C130.734 19.5303 130.769 19.5264 130.805 19.5305H132.757V16.6555C132.753 16.6202 132.757 16.5844 132.769 16.5508C132.78 16.5173 132.799 16.4868 132.825 16.4616C132.85 16.4365 132.88 16.4173 132.914 16.4057C132.947 16.394 132.983 16.3901 133.018 16.3942H134.197C134.232 16.3909 134.267 16.3954 134.3 16.4075C134.333 16.4195 134.363 16.4388 134.388 16.4638C134.412 16.4889 134.431 16.5191 134.442 16.5522C134.454 16.5854 134.457 16.6207 134.453 16.6555V19.5305H136.411C136.446 19.5272 136.481 19.5317 136.514 19.5438C136.547 19.5558 136.577 19.5751 136.601 19.6001C136.626 19.6252 136.645 19.6554 136.656 19.6885C136.667 19.7217 136.671 19.757 136.667 19.7918V20.9039C136.671 20.9385 136.668 20.9736 136.656 21.0066C136.645 21.0396 136.626 21.0695 136.601 21.0942C136.577 21.1188 136.547 21.1376 136.514 21.149C136.481 21.1604 136.446 21.1642 136.411 21.1601H134.453V26.6538Z" fill="#011627"/>
<path d="M139.363 15.564C139.635 15.564 139.895 15.6719 140.088 15.8642C140.28 16.0564 140.388 16.3171 140.388 16.5889C140.388 16.8607 140.28 17.1214 140.088 17.3136C139.895 17.5059 139.635 17.6138 139.363 17.6138C139.091 17.6138 138.83 17.5059 138.638 17.3136C138.446 17.1214 138.338 16.8607 138.338 16.5889C138.338 16.3171 138.446 16.0564 138.638 15.8642C138.83 15.6719 139.091 15.564 139.363 15.564ZM140.213 26.6538C140.217 26.6887 140.212 26.7239 140.2 26.7568C140.188 26.7898 140.169 26.8196 140.144 26.8441C140.119 26.8687 140.089 26.8873 140.055 26.8987C140.022 26.9101 139.987 26.914 139.952 26.91H138.773C138.739 26.914 138.703 26.9101 138.67 26.8987C138.637 26.8873 138.607 26.8687 138.582 26.8441C138.557 26.8196 138.537 26.7898 138.525 26.7568C138.513 26.7239 138.509 26.6887 138.512 26.6538V19.7918C138.508 19.7565 138.512 19.7207 138.524 19.6872C138.535 19.6536 138.554 19.6231 138.58 19.5979C138.605 19.5728 138.635 19.5537 138.669 19.542C138.702 19.5303 138.738 19.5264 138.773 19.5305H139.952C139.987 19.5264 140.023 19.5303 140.057 19.542C140.09 19.5537 140.121 19.5728 140.146 19.5979C140.171 19.6231 140.19 19.6536 140.202 19.6872C140.214 19.7207 140.218 19.7565 140.213 19.7918V26.6538Z" fill="#011627"/>
<path d="M149.986 26.6538C149.99 26.6885 149.987 26.7236 149.975 26.7566C149.964 26.7895 149.945 26.8195 149.92 26.8441C149.896 26.8688 149.866 26.8876 149.833 26.899C149.8 26.9104 149.765 26.9142 149.73 26.9101H148.551C148.517 26.914 148.481 26.9102 148.448 26.8988C148.415 26.8874 148.385 26.8687 148.36 26.8442C148.335 26.8196 148.315 26.7898 148.303 26.7569C148.291 26.7239 148.287 26.6887 148.29 26.6538V25.9159C148.003 26.3067 147.625 26.6207 147.188 26.8299C146.75 27.0391 146.268 27.1371 145.784 27.115C143.493 27.115 142.243 25.2702 142.243 23.2767C142.212 22.7526 142.292 22.2279 142.477 21.7366C142.662 21.2452 142.948 20.7982 143.316 20.4243C143.685 20.0504 144.128 19.7581 144.616 19.5662C145.105 19.3742 145.629 19.287 146.153 19.3102C148.311 19.3102 149.986 20.6375 149.986 23.2972V26.6538ZM146.179 20.9347C145.879 20.9212 145.58 20.9719 145.301 21.0832C145.022 21.1945 144.771 21.364 144.562 21.5803C144.354 21.7965 144.195 22.0547 144.094 22.3375C143.994 22.6203 143.955 22.9212 143.98 23.2203C143.98 24.9166 145.005 25.511 145.953 25.5623C146.264 25.5926 146.578 25.555 146.874 25.4519C147.169 25.3489 147.438 25.183 147.663 24.9656C147.887 24.7482 148.062 24.4845 148.175 24.1929C148.288 23.9013 148.336 23.5887 148.316 23.2767C148.29 21.3754 147.091 20.9347 146.179 20.9347Z" fill="#011627"/>
</svg>
