<svg width="608" height="784" viewBox="0 0 608 784" fill="none" xmlns="http://www.w3.org/2000/svg">
<path opacity="0.05" d="M589.82 202.139C576.09 163.654 554.786 128.326 527.173 98.2534C499.559 68.1808 466.199 43.9765 429.074 27.0775C391.919 10.2494 351.771 1.07167 311.011 0.0883696C270.251 -0.894933 229.709 6.33635 191.79 21.3534C153.899 36.4429 119.42 59.0117 90.4006 87.7197C61.3812 116.428 38.4132 150.689 22.8611 188.469C7.33024 226.254 -0.438592 266.79 0.0191089 307.654C-0.146491 327.848 1.3357 348.022 4.45105 367.973C7.53358 388.675 14.044 408.715 23.7134 427.267C43.5723 464.859 75.6192 492.199 105.621 516.464C119.218 528.604 130.964 542.681 140.48 558.243C145.538 566.103 150.31 574.22 154.799 582.592L161.532 595.323L163.237 598.569C164.089 599.936 164.771 601.388 165.709 602.755C167.371 605.41 169.283 607.899 171.419 610.189C179.457 618.687 189.304 625.258 200.227 629.412C210.099 633.331 220.355 636.195 230.826 637.956C250.819 641.304 271.071 642.848 291.34 642.569C330.821 641.914 370.22 638.747 409.3 633.086L420.977 631.548C419.709 634.38 418.197 637.096 416.459 639.665C414.811 642.226 412.702 644.457 410.238 646.243C406.527 648.522 402.652 650.521 398.646 652.224C390.405 655.711 381.84 658.373 373.077 660.17C336.075 666.472 298.32 666.962 261.168 661.622C251.707 660.341 242.161 659.315 232.786 657.521L218.637 655.129H216.848C214.746 654.627 212.557 654.627 210.455 655.129C208.19 655.741 206.13 656.951 204.489 658.632C202.043 661.159 200.436 664.381 199.886 667.859C199.246 671.265 199.046 674.739 199.29 678.197C199.642 684.276 200.906 690.267 203.04 695.968C205.338 702.228 209.008 707.892 213.779 712.543C218.321 716.403 223.368 719.623 228.78 722.112C233.576 724.503 238.531 726.559 243.61 728.263C253.396 731.542 263.429 734.028 273.612 735.696C278.64 736.551 283.499 737.32 288.783 737.918C293.992 738.468 299.228 738.725 304.466 738.687C324.851 738.765 345.161 736.209 364.895 731.083C371.261 729.406 377.522 727.352 383.646 724.931L383.219 725.785C381.083 729.435 378.6 732.868 375.804 736.038C372.835 739.355 369.646 742.466 366.258 745.351C359.474 751.222 351.864 756.058 343.672 759.704C335.515 763.324 326.918 765.852 318.103 767.223C309.288 768.545 300.325 768.545 291.51 767.223C273.023 763.386 255.435 756.049 239.69 745.607C239.442 745.426 239.144 745.329 238.837 745.329C238.531 745.329 238.233 745.426 237.985 745.607C237.714 745.879 237.562 746.248 237.562 746.632C237.562 747.017 237.714 747.385 237.985 747.657C251.622 762.866 269.074 774.136 288.527 780.295C309.099 786.406 331.174 784.921 350.746 776.108C360.306 771.68 369.317 766.146 377.594 759.619C381.756 756.336 385.686 752.768 389.356 748.939C393.093 744.874 396.406 740.437 399.243 735.696C402.343 730.832 404.779 725.574 406.487 720.061C407.108 718.155 407.453 716.17 407.51 714.166C407.559 712.55 407.358 710.936 406.914 709.382C406.134 706.745 404.518 704.436 402.311 702.803C400.229 701.282 397.728 700.446 395.152 700.411C393.688 700.413 392.229 700.585 390.805 700.923C388.972 701.452 387.178 702.109 385.435 702.888C377.22 706.59 368.654 709.452 359.866 711.432C341.777 715.711 323.217 717.664 304.636 717.242C300.132 717.196 295.636 716.882 291.169 716.302C286.737 715.704 281.964 714.935 277.447 714.081C268.452 712.363 259.593 709.994 250.94 706.989C246.827 705.511 242.813 703.77 238.923 701.778C235.529 700.055 232.353 697.933 229.462 695.455C225.733 691.079 223.468 685.64 222.984 679.906L228.61 681.016C238.326 682.981 248.213 684.263 258.014 685.801C297.931 692.505 338.703 692.245 378.532 685.032C388.872 682.819 398.975 679.614 408.703 675.463C413.657 673.295 418.469 670.812 423.107 668.03C428.771 664.401 433.619 659.628 437.341 654.018C440.786 649.161 443.647 643.913 445.864 638.383C447.049 635.367 447.962 632.25 448.592 629.07C448.911 627.092 449.082 625.093 449.103 623.09C449.166 620.151 448.584 617.234 447.398 614.546C446.419 612.297 444.969 610.286 443.145 608.65C441.321 607.014 439.167 605.79 436.83 605.062C434.92 604.507 432.937 604.248 430.949 604.293H428.648H427.71L420.551 605.319L406.147 607.198C368.148 612.79 329.827 615.901 291.425 616.511C272.728 616.811 254.043 615.409 235.598 612.324C217.956 609.078 200.142 603.097 190.511 592.503C189.361 591.216 188.307 589.845 187.358 588.402C186.882 587.692 186.454 586.949 186.079 586.181L184.375 583.019L177.471 569.862C172.698 561.318 167.584 552.347 162.129 543.804C151.228 526.07 137.757 510.06 122.156 496.3C107.25 484.5 93.022 471.863 79.5399 458.452C66.5751 445.547 55.5247 430.844 46.726 414.793C29.6797 383.181 26.2703 345.076 26.0146 306.971C25.6077 269.512 32.7087 232.353 46.8964 197.696C61.1558 163.112 82.1949 131.749 108.767 105.465C135.339 79.1808 166.904 58.51 201.591 44.6776C236.325 30.9337 273.456 24.3137 310.788 25.2088C348.119 26.104 384.893 34.4964 418.931 49.8895C452.935 65.367 483.489 87.5392 508.775 115.088C534.061 142.637 553.565 175.001 566.126 210.256C578.476 245.64 583.662 283.138 581.382 320.555C580.461 338.849 577.049 356.93 571.24 374.296C565.036 391.415 556.176 407.447 544.988 421.799C533.653 436.494 520.442 450.506 507.231 464.945C500.668 472.207 494.02 479.555 487.542 487.073C481.065 494.592 475.099 502.11 468.792 508.689C457.679 521.828 443.126 531.593 426.773 536.883C418.801 538.845 410.536 539.309 402.396 538.25C393.908 537.435 385.583 535.392 377.679 532.184C370.134 529.007 363.274 524.394 357.479 518.599L354.582 515.695C379.302 492.766 401.192 466.951 419.784 438.801C425.756 429.361 430.133 418.998 432.739 408.129C434.024 402.299 434.511 396.32 434.188 390.358C434.023 384.05 432.814 377.813 430.608 371.903C428.147 365.304 424.073 359.429 418.761 354.816C413.547 350.32 407.361 347.103 400.692 345.418C388.93 342.843 376.713 343.254 365.15 346.614C359.395 348.248 353.869 350.602 348.701 353.62C343.902 356.647 339.369 360.077 335.149 363.872C326.801 371.247 319.667 379.898 314.011 389.504C303.266 408.403 297.407 429.697 296.965 451.446C296.596 462.988 298.628 474.481 302.931 485.193C306.835 495.579 312.327 505.293 319.21 513.986C308.261 525.088 294.685 533.23 279.749 537.652C275.974 538.528 272.116 538.986 268.242 539.019C264.156 538.993 260.079 538.621 256.054 537.908C248.206 536.441 240.748 533.357 234.15 528.852C220.71 518.663 210.906 504.401 206.194 488.184C205.512 486.133 204.915 483.997 204.404 481.947C203.853 479.953 203.426 477.927 203.125 475.881C202.273 471.523 201.677 467.337 201.165 462.211C200.057 452.813 199.46 443.414 198.608 433.675C197.756 423.935 197.415 414.708 197.159 405.224L196.307 375.833C196.307 362.847 195.796 350.202 196.307 337.13L207.046 335.251C222.984 332.346 238.752 329.526 254.776 327.988C270.799 326.451 286.993 325.767 303.869 324.656C271.774 313.428 237.215 311.27 203.978 318.419L196.648 319.872C196.648 319.274 196.648 318.676 196.648 318.078C196.997 280.127 205.271 242.67 220.939 208.12C229.118 191.221 239.65 175.572 252.219 161.642C258.112 155.182 265.441 150.207 273.612 147.117C277.167 145.559 281.067 144.96 284.924 145.38C288.782 145.799 292.463 147.223 295.601 149.51C298.483 152.181 300.712 155.482 302.116 159.157C303.52 162.831 304.062 166.78 303.698 170.698C303.7 178.675 301.062 186.427 296.198 192.741C293.813 195.77 290.748 198.193 287.253 199.811C283.758 201.429 279.931 202.198 276.083 202.054C271.9 201.921 267.821 200.715 264.236 198.551C260.446 195.789 256.831 192.793 253.412 189.58C253.518 192.261 254.153 194.894 255.279 197.329C256.406 199.763 258.001 201.949 259.975 203.762C263.913 207.869 268.892 210.822 274.379 212.306C280.194 213.694 286.272 213.525 292.001 211.815C297.731 210.106 302.911 206.916 307.022 202.566C310.876 198.219 313.833 193.149 315.72 187.65C317.607 182.151 318.388 176.331 318.017 170.527C317.849 164.67 316.431 158.917 313.858 153.656C311.285 148.394 307.617 143.747 303.102 140.026C298.363 136.252 292.665 133.884 286.652 133.191C280.914 132.527 275.1 133.11 269.606 134.9C259.327 138.37 250.011 144.225 242.417 151.987C228.268 166.523 216.219 182.973 206.62 200.857C188.535 236.994 178.144 276.505 176.107 316.882C176.107 319.445 175.681 322.093 175.596 324.656C168.948 326.109 162.47 327.647 155.907 328.928C139.983 332.223 123.756 333.827 107.496 333.713C123.237 340.475 140.353 343.403 157.441 342.257C163.237 342.257 168.948 341.402 174.488 340.633C173.976 352.509 173.635 364.385 173.465 376.175V405.395C173.465 415.391 173.465 425.387 173.465 435.383C173.465 445.38 174.573 455.205 175.596 465.201C176.107 470.242 176.704 475.283 177.556 480.494C177.982 483.143 178.579 485.877 179.261 489.038C179.943 492.199 180.795 494.25 181.647 496.813C188.305 518.663 201.853 537.76 220.257 551.237C229.804 557.773 240.6 562.253 251.963 564.394C257.585 565.433 263.292 565.948 269.009 565.932C274.891 565.898 280.751 565.21 286.482 563.882C305.559 558.533 322.957 548.387 337.024 534.405C338.047 535.602 339.24 536.712 340.433 537.908C348.511 545.873 358.027 552.223 368.474 556.619C378.634 560.776 389.343 563.424 400.266 564.479C411.484 565.907 422.87 565.241 433.847 562.515C454.852 556.021 473.629 543.77 488.054 527.143C495.128 519.539 501.52 511.594 507.657 504.588C513.794 497.582 520.271 490.234 526.834 483.057C539.875 468.704 553.512 454.351 565.955 438.117C578.8 421.659 588.955 403.26 596.042 383.608C602.662 363.961 606.535 343.489 607.548 322.777C609.776 281.779 603.747 240.751 589.82 202.139ZM337.706 496.813C327.996 484.279 322.585 468.936 322.279 453.069C322.622 435.598 327.278 418.485 335.831 403.259C340.272 396.049 345.758 389.542 352.11 383.95C357.668 378.407 364.526 374.353 372.054 372.16C379.312 370.054 386.965 369.703 394.385 371.135C397.18 371.768 399.778 373.081 401.948 374.958C404.118 376.836 405.794 379.22 406.828 381.899C409.043 388.836 409.367 396.24 407.766 403.344C405.719 411.46 402.38 419.191 397.879 426.242C387.925 441.954 376.51 456.686 363.786 470.242C357.309 477.248 350.746 484.168 343.928 490.918L337.706 496.813Z" fill="#011627"/>
</svg>
