<svg width="159" height="48" viewBox="0 0 159 48" fill="none" xmlns="http://www.w3.org/2000/svg">
<path d="M37.8001 19.4936C38.2142 25.0841 30.5532 36.6792 22.271 35.851C17.7157 35.0228 9.01943 24.463 10.0547 19.4936C10.0547 11.9463 16.2657 5.828 23.9274 5.828C31.5891 5.828 37.8001 11.9463 37.8001 19.4936Z" fill="#FF9F1C"/>
<path d="M37.887 14.7976C37.2199 12.9322 36.1849 11.2199 34.8432 9.76228C33.5016 8.30468 31.8807 7.13151 30.0769 6.31243C28.2717 5.49678 26.321 5.05194 24.3406 5.00428C22.3603 4.95662 20.3905 5.30712 18.5481 6.03498C16.7071 6.76636 15.0319 7.86026 13.6219 9.25172C12.212 10.6432 11.096 12.3038 10.3404 14.135C9.58583 15.9664 9.20837 17.9312 9.2306 19.9118C9.22256 20.8906 9.29457 21.8684 9.44594 22.8354C9.59571 23.8388 9.91203 24.8102 10.3818 25.7094C11.3467 27.5314 12.9038 28.8566 14.3614 30.0327C15.0221 30.6211 15.5928 31.3034 16.0551 32.0577C16.3009 32.4387 16.5328 32.8321 16.7508 33.2379L17.078 33.8549L17.1608 34.0123C17.2022 34.0785 17.2354 34.1489 17.2809 34.2152C17.3617 34.3439 17.4546 34.4645 17.5584 34.5755C17.9489 34.9874 18.4273 35.3059 18.9581 35.5072C19.4377 35.6972 19.936 35.836 20.4447 35.9213C21.4161 36.0836 22.4001 36.1584 23.3849 36.1449C25.3031 36.1132 27.2174 35.9597 29.1162 35.6853L29.6835 35.6107C29.6219 35.748 29.5485 35.8796 29.464 36.0042C29.384 36.1283 29.2814 36.2364 29.1617 36.323C28.9814 36.4334 28.7932 36.5303 28.5985 36.6129C28.1981 36.7819 27.782 36.9109 27.3562 36.998C25.5584 37.3035 23.724 37.3272 21.9189 37.0684C21.4593 37.0063 20.9955 36.9566 20.54 36.8696L19.8525 36.7537H19.7656C19.6635 36.7294 19.5571 36.7294 19.455 36.7537C19.3449 36.7834 19.2448 36.842 19.1651 36.9235C19.0463 37.046 18.9682 37.2022 18.9415 37.3707C18.9104 37.5358 18.9006 37.7042 18.9125 37.8718C18.9296 38.1664 18.991 38.4568 19.0947 38.7331C19.2064 39.0366 19.3847 39.3111 19.6165 39.5365C19.8371 39.7236 20.0824 39.8797 20.3453 40.0003C20.5783 40.1162 20.8191 40.2159 21.0659 40.2985C21.5413 40.4574 22.0288 40.5779 22.5236 40.6587C22.7679 40.7002 23.0039 40.7374 23.2607 40.7664C23.5138 40.7931 23.7681 40.8055 24.0226 40.8037C25.0131 40.8075 25.9999 40.6836 26.9587 40.4351C27.268 40.3539 27.5722 40.2543 27.8697 40.137L27.849 40.1784C27.7452 40.3553 27.6246 40.5217 27.4887 40.6753C27.3445 40.8361 27.1895 40.9869 27.0249 41.1267C26.6953 41.4113 26.3255 41.6457 25.9275 41.8224C25.5312 41.9978 25.1135 42.1204 24.6852 42.1868C24.2569 42.2509 23.8215 42.2509 23.3932 42.1868C22.4949 42.0008 21.6404 41.6453 20.8754 41.1391C20.8634 41.1304 20.8489 41.1256 20.834 41.1256C20.8191 41.1256 20.8046 41.1304 20.7926 41.1391C20.7794 41.1523 20.772 41.1702 20.772 41.1888C20.772 41.2074 20.7794 41.2253 20.7926 41.2385C21.4551 41.9757 22.3031 42.5219 23.2482 42.8204C24.2477 43.1166 25.3203 43.0446 26.2712 42.6175C26.7357 42.4029 27.1735 42.1346 27.5757 41.8183C27.7779 41.6591 27.9689 41.4862 28.1472 41.3006C28.3287 41.1036 28.4897 40.8885 28.6275 40.6587C28.7782 40.423 28.8965 40.1681 28.9795 39.9009C29.0097 39.8086 29.0264 39.7123 29.0292 39.6152C29.0316 39.5369 29.0218 39.4586 29.0002 39.3833C28.9623 39.2555 28.8838 39.1436 28.7766 39.0644C28.6755 38.9907 28.5539 38.9502 28.4288 38.9485C28.3576 38.9486 28.2868 38.9569 28.2176 38.9733C28.1285 38.999 28.0413 39.0308 27.9567 39.0686C27.5575 39.248 27.1413 39.3867 26.7143 39.4827C25.8355 39.6901 24.9337 39.7847 24.0309 39.7643C23.8121 39.762 23.5936 39.7468 23.3766 39.7187C23.1613 39.6897 22.9294 39.6525 22.7099 39.611C22.2728 39.5278 21.8424 39.413 21.422 39.2673C21.2222 39.1957 21.0272 39.1113 20.8381 39.0147C20.6732 38.9313 20.5189 38.8284 20.3784 38.7083C20.1973 38.4962 20.0872 38.2326 20.0637 37.9546L20.337 38.0084C20.8091 38.1037 21.2895 38.1658 21.7657 38.2403C23.7051 38.5653 25.6861 38.5527 27.6212 38.2031C28.1236 38.0958 28.6145 37.9405 29.0872 37.7393C29.3279 37.6342 29.5616 37.5138 29.787 37.379C30.0622 37.2031 30.2977 36.9718 30.4786 36.6999C30.646 36.4644 30.785 36.2101 30.8927 35.942C30.9503 35.7958 30.9946 35.6448 31.0252 35.4906C31.0408 35.3948 31.0491 35.2979 31.0501 35.2008C31.0531 35.0583 31.0248 34.917 30.9673 34.7867C30.9197 34.6777 30.8492 34.5802 30.7606 34.5009C30.672 34.4216 30.5673 34.3623 30.4538 34.327C30.361 34.3001 30.2646 34.2875 30.168 34.2897H30.0562H30.0107L29.6628 34.3394L28.963 34.4305C27.1167 34.7016 25.2548 34.8524 23.389 34.8819C22.4806 34.8964 21.5728 34.8285 20.6766 34.679C19.8194 34.5216 18.9539 34.2318 18.486 33.7183C18.4301 33.6559 18.3789 33.5894 18.3328 33.5195C18.3096 33.4851 18.2889 33.4491 18.2706 33.4118L18.1878 33.2586L17.8524 32.6209C17.6205 32.2068 17.372 31.7719 17.107 31.3578C16.5774 30.4983 15.9228 29.7223 15.1648 29.0554C14.4406 28.4834 13.7493 27.8709 13.0942 27.2209C12.4643 26.5954 11.9274 25.8828 11.4999 25.1048C10.6717 23.5726 10.5061 21.7256 10.4936 19.8787C10.4739 18.0631 10.8189 16.262 11.5082 14.5822C12.201 12.906 13.2232 11.3858 14.5143 10.1118C15.8054 8.83784 17.339 7.83594 19.0243 7.1655C20.7119 6.49934 22.516 6.17847 24.3298 6.22186C26.1436 6.26525 27.9303 6.67202 29.5841 7.41811C31.2363 8.1683 32.7208 9.24297 33.9493 10.5783C35.1779 11.9135 36.1255 13.4822 36.7358 15.191C37.3359 16.906 37.5879 18.7235 37.4771 20.5371C37.4323 21.4238 37.2665 22.3002 36.9843 23.1419C36.6828 23.9717 36.2524 24.7487 35.7088 25.4443C35.1581 26.1566 34.5162 26.8357 33.8743 27.5356C33.5555 27.8876 33.2324 28.2437 32.9177 28.6081C32.603 28.9725 32.3131 29.337 32.0067 29.6558C31.4668 30.2927 30.7597 30.766 29.9651 31.0224C29.5778 31.1175 29.1762 31.14 28.7808 31.0887C28.3683 31.0492 27.9638 30.9501 27.5798 30.7946C27.2132 30.6406 26.8799 30.417 26.5984 30.1362L26.4576 29.9954C27.6587 28.8841 28.7222 27.6328 29.6255 26.2684C29.9157 25.8109 30.1284 25.3086 30.255 24.7818C30.3174 24.4992 30.3411 24.2094 30.3254 23.9204C30.3174 23.6147 30.2586 23.3124 30.1515 23.0259C30.0319 22.7061 29.834 22.4213 29.5758 22.1977C29.3225 21.9798 29.022 21.8239 28.6979 21.7422C28.1265 21.6174 27.5329 21.6373 26.9711 21.8002C26.6915 21.8794 26.423 21.9934 26.1719 22.1397C25.9387 22.2865 25.7185 22.4527 25.5134 22.6367C25.1078 22.9941 24.7612 23.4134 24.4864 23.879C23.9644 24.7951 23.6797 25.8271 23.6582 26.8813C23.6403 27.4408 23.739 27.9978 23.9481 28.517C24.1377 29.0204 24.4046 29.4913 24.739 29.9126C24.207 30.4507 23.5474 30.8453 22.8217 31.0597C22.6383 31.1021 22.4509 31.1243 22.2627 31.1259C22.0641 31.1246 21.866 31.1066 21.6705 31.0721C21.2892 31.001 20.9268 30.8515 20.6062 30.6331C19.9532 30.1393 19.4769 29.448 19.2479 28.662C19.2148 28.5626 19.1858 28.4591 19.161 28.3597C19.1342 28.263 19.1135 28.1648 19.0988 28.0656C19.0574 27.8545 19.0285 27.6515 19.0036 27.4031C18.9498 26.9475 18.9208 26.492 18.8794 26.0199C18.838 25.5479 18.8214 25.1006 18.809 24.641L18.7676 23.2164C18.7676 22.587 18.7427 21.9741 18.7676 21.3405L19.2893 21.2494C20.0637 21.1086 20.8298 20.9719 21.6084 20.8974C22.3869 20.8229 23.1737 20.7897 23.9936 20.7359C22.4342 20.1916 20.7551 20.0871 19.1403 20.4336L18.7841 20.504C18.7841 20.475 18.7841 20.446 18.7841 20.417C18.8011 18.5776 19.2031 16.7621 19.9643 15.0874C20.3617 14.2684 20.8734 13.5099 21.4841 12.8347C21.7705 12.5216 22.1266 12.2804 22.5236 12.1307C22.6963 12.0552 22.8858 12.0261 23.0732 12.0465C23.2606 12.0668 23.4394 12.1358 23.5919 12.2466C23.732 12.3761 23.8403 12.5361 23.9085 12.7142C23.9767 12.8923 24.003 13.0837 23.9854 13.2736C23.9854 13.6603 23.8573 14.036 23.6209 14.342C23.5051 14.4889 23.3561 14.6063 23.1863 14.6847C23.0165 14.7632 22.8306 14.8004 22.6436 14.7934C22.4404 14.787 22.2422 14.7285 22.068 14.6236C21.8838 14.4898 21.7082 14.3446 21.5421 14.1888C21.5473 14.3188 21.5781 14.4464 21.6328 14.5644C21.6876 14.6824 21.7651 14.7884 21.861 14.8762C22.0523 15.0753 22.2943 15.2184 22.5608 15.2903C22.8434 15.3576 23.1386 15.3494 23.417 15.2666C23.6954 15.1837 23.9471 15.0291 24.1469 14.8183C24.3341 14.6076 24.4777 14.3618 24.5694 14.0953C24.6611 13.8287 24.6991 13.5467 24.6811 13.2653C24.6729 12.9815 24.604 12.7026 24.479 12.4476C24.354 12.1926 24.1758 11.9673 23.9564 11.787C23.7261 11.604 23.4493 11.4893 23.1571 11.4557C22.8783 11.4235 22.5958 11.4518 22.3289 11.5385C21.8295 11.7067 21.3769 11.9905 21.0079 12.3667C20.3205 13.0713 19.735 13.8686 19.2686 14.7354C18.39 16.4869 17.8851 18.402 17.7861 20.3591C17.7861 20.4833 17.7654 20.6117 17.7613 20.7359C17.4383 20.8063 17.1236 20.8808 16.8047 20.943C16.031 21.1027 15.2425 21.1804 14.4525 21.1749C15.2174 21.5026 16.049 21.6445 16.8792 21.589C17.1608 21.589 17.4383 21.5476 17.7074 21.5103C17.6826 22.0859 17.666 22.6615 17.6578 23.233V24.6492C17.6578 25.1337 17.6578 25.6183 17.6578 26.1028C17.6578 26.5873 17.7116 27.0635 17.7613 27.548C17.7861 27.7923 17.8151 28.0367 17.8565 28.2893C17.8772 28.4176 17.9062 28.5502 17.9393 28.7034C17.9725 28.8566 18.0139 28.956 18.0553 29.0802C18.3788 30.1393 19.037 31.0649 19.9312 31.7181C20.3951 32.0349 20.9196 32.2521 21.4717 32.3558C21.7449 32.4062 22.0221 32.4312 22.2999 32.4304C22.5857 32.4287 22.8704 32.3954 23.1488 32.331C24.0758 32.0718 24.9211 31.58 25.6045 30.9023C25.6542 30.9603 25.7122 31.0141 25.7702 31.0721C26.1626 31.4581 26.625 31.7659 27.1326 31.979C27.6262 32.1805 28.1466 32.3088 28.6772 32.36C29.2223 32.4292 29.7755 32.3969 30.3088 32.2647C31.3294 31.95 32.2417 31.3562 32.9426 30.5503C33.2863 30.1818 33.5969 29.7966 33.895 29.4571C34.1932 29.1175 34.5079 28.7614 34.8268 28.4135C35.4604 27.7178 36.1229 27.0221 36.7275 26.2353C37.3516 25.4376 37.845 24.5458 38.1893 23.5933C38.511 22.641 38.6992 21.6487 38.7484 20.6448C38.8566 18.6577 38.5637 16.6691 37.887 14.7976ZM25.6377 29.0802C25.1659 28.4727 24.903 27.729 24.8881 26.96C24.9048 26.1132 25.131 25.2837 25.5466 24.5457C25.7623 24.1962 26.0289 23.8808 26.3375 23.6098C26.6075 23.3412 26.9407 23.1447 27.3065 23.0384C27.6592 22.9363 28.031 22.9193 28.3915 22.9887C28.5273 23.0194 28.6535 23.083 28.759 23.174C28.8644 23.265 28.9459 23.3805 28.9961 23.5104C29.1037 23.8466 29.1194 24.2055 29.0416 24.5499C28.9422 24.9432 28.78 25.3179 28.5613 25.6597C28.0776 26.4212 27.523 27.1353 26.9048 27.7923C26.5901 28.1319 26.2712 28.4673 25.94 28.7945L25.6377 29.0802Z" fill="black"/>
<path d="M56.8964 26.6538C56.9005 26.6885 56.8967 26.7236 56.8853 26.7566C56.8739 26.7895 56.8551 26.8195 56.8304 26.8441C56.8058 26.8688 56.7758 26.8876 56.7429 26.899C56.7099 26.9104 56.6748 26.9142 56.6401 26.9101H55.4717C55.4371 26.9142 55.4019 26.9104 55.369 26.899C55.336 26.8876 55.3061 26.8688 55.2814 26.8441C55.2567 26.8195 55.238 26.7895 55.2266 26.7566C55.2151 26.7236 55.2114 26.6885 55.2155 26.6538V21.155H53.2578C53.2232 21.1592 53.1881 21.1554 53.1551 21.144C53.1222 21.1325 53.0922 21.1138 53.0675 21.0891C53.0429 21.0645 53.0241 21.0345 53.0127 21.0015C53.0013 20.9686 52.9975 20.9334 53.0016 20.8988V19.7919C52.9976 19.757 53.0015 19.7217 53.0129 19.6886C53.0243 19.6554 53.043 19.6252 53.0675 19.6002C53.092 19.5752 53.1219 19.5559 53.1548 19.5438C53.1877 19.5318 53.2229 19.5272 53.2578 19.5305H55.2155V16.6556C55.2115 16.6207 55.2154 16.5854 55.2268 16.5523C55.2382 16.5191 55.2568 16.4889 55.2814 16.4639C55.3059 16.4389 55.3357 16.4196 55.3687 16.4075C55.4016 16.3955 55.4368 16.3909 55.4717 16.3942H56.6555C56.6904 16.3909 56.7256 16.3955 56.7586 16.4075C56.7915 16.4196 56.8213 16.4389 56.8459 16.4639C56.8704 16.4889 56.8891 16.5191 56.9005 16.5523C56.9119 16.5854 56.9157 16.6207 56.9117 16.6556V19.5305H58.8694C58.9043 19.5272 58.9395 19.5318 58.9724 19.5438C59.0054 19.5559 59.0352 19.5752 59.0597 19.6002C59.0843 19.6252 59.1029 19.6554 59.1143 19.6886C59.1257 19.7217 59.1296 19.757 59.1256 19.7919V20.9039C59.1297 20.9386 59.1259 20.9737 59.1145 21.0067C59.1031 21.0396 59.0843 21.0696 59.0597 21.0942C59.035 21.1189 59.0051 21.1377 58.9721 21.1491C58.9392 21.1605 58.904 21.1643 58.8694 21.1602H56.9117L56.8964 26.6538Z" fill="#011627"/>
<path d="M67.9657 26.6538C67.9698 26.6885 67.9661 26.7236 67.9546 26.7566C67.9432 26.7895 67.9245 26.8195 67.8998 26.8441C67.8751 26.8688 67.8452 26.8875 67.8122 26.899C67.7793 26.9104 67.7441 26.9142 67.7095 26.9101H66.5257C66.491 26.9142 66.4559 26.9104 66.423 26.899C66.39 26.8875 66.36 26.8688 66.3354 26.8441C66.3107 26.8195 66.292 26.7895 66.2805 26.7566C66.2691 26.7236 66.2653 26.6885 66.2695 26.6538V25.9159C65.9821 26.3071 65.6025 26.6213 65.1644 26.8305C64.7263 27.0398 64.2433 27.1375 63.7584 27.115C61.4728 27.115 60.2172 25.2702 60.2172 23.2767C60.1866 22.7526 60.2663 22.2279 60.4512 21.7365C60.6361 21.2452 60.9221 20.7982 61.2906 20.4243C61.6592 20.0504 62.1021 19.7581 62.5907 19.5662C63.0794 19.3742 63.6029 19.287 64.1273 19.3102C66.2848 19.3102 67.9657 20.6375 67.9657 23.2972V26.6538ZM64.1273 20.9347C63.828 20.922 63.5293 20.9732 63.2512 21.0848C62.9732 21.1965 62.7221 21.3661 62.5146 21.5823C62.3071 21.7985 62.148 22.0563 62.0479 22.3388C61.9478 22.6212 61.909 22.9217 61.934 23.2203C61.934 24.9166 62.9589 25.511 63.907 25.5623C64.2181 25.5926 64.5322 25.555 64.8274 25.4519C65.1226 25.3489 65.3918 25.183 65.6165 24.9656C65.8412 24.7482 66.016 24.4845 66.1287 24.1929C66.2415 23.9013 66.2895 23.5887 66.2695 23.2767C66.2695 21.3754 65.0703 20.9347 64.1273 20.9347Z" fill="#011627"/>
<path d="M71.8708 22.9998V26.6537C71.8749 26.6884 71.8711 26.7235 71.8597 26.7565C71.8483 26.7894 71.8295 26.8194 71.8048 26.844C71.7802 26.8687 71.7502 26.8874 71.7173 26.8989C71.6843 26.9103 71.6492 26.9141 71.6145 26.91H70.4359C70.401 26.9139 70.3657 26.9101 70.3326 26.8987C70.2994 26.8873 70.2692 26.8686 70.2442 26.8441C70.2191 26.8195 70.1999 26.7897 70.1878 26.7568C70.1758 26.7238 70.1712 26.6886 70.1745 26.6537V22.9998C70.1745 20.5451 71.7426 19.3101 73.7925 19.3101C75.8424 19.3101 77.4054 20.5451 77.4054 22.9998V26.6537C77.4095 26.6884 77.4057 26.7235 77.3943 26.7565C77.3829 26.7894 77.3642 26.8194 77.3395 26.844C77.3148 26.8687 77.2849 26.8874 77.2519 26.8989C77.2189 26.9103 77.1838 26.9141 77.1492 26.91H75.9705C75.9359 26.9141 75.9007 26.9103 75.8678 26.8989C75.8348 26.8874 75.8049 26.8687 75.7802 26.844C75.7555 26.8194 75.7368 26.7894 75.7254 26.7565C75.7139 26.7235 75.7102 26.6884 75.7143 26.6537V22.9998C75.7143 21.3036 74.6278 20.9499 73.7976 20.9499C72.9674 20.9499 71.8708 21.3036 71.8708 22.9998Z" fill="#011627"/>
<path d="M80.6596 15.564C80.9314 15.564 81.1921 15.6719 81.3843 15.8642C81.5765 16.0564 81.6845 16.3171 81.6845 16.5889C81.6845 16.8607 81.5765 17.1214 81.3843 17.3136C81.1921 17.5059 80.9314 17.6138 80.6596 17.6138C80.3878 17.6138 80.1271 17.5059 79.9348 17.3136C79.7426 17.1214 79.6346 16.8607 79.6346 16.5889C79.6346 16.3171 79.7426 16.0564 79.9348 15.8642C80.1271 15.6719 80.3878 15.564 80.6596 15.564ZM81.5051 26.6538C81.5093 26.6884 81.5055 26.7236 81.4941 26.7565C81.4826 26.7895 81.4639 26.8194 81.4392 26.8441C81.4146 26.8688 81.3846 26.8875 81.3517 26.8989C81.3187 26.9104 81.2836 26.9141 81.2489 26.91H80.0702C80.0354 26.914 80.0001 26.9101 79.967 26.8987C79.9338 26.8873 79.9036 26.8687 79.8786 26.8441C79.8535 26.8196 79.8343 26.7898 79.8222 26.7568C79.8102 26.7239 79.8056 26.6887 79.8089 26.6538V19.7918C79.8048 19.7565 79.8087 19.7207 79.8204 19.6872C79.8321 19.6536 79.8512 19.6231 79.8764 19.5979C79.9015 19.5728 79.932 19.5537 79.9656 19.542C79.9991 19.5303 80.0349 19.5264 80.0702 19.5305H81.2489C81.284 19.5262 81.3197 19.5301 81.3531 19.5418C81.3865 19.5535 81.4167 19.5727 81.4415 19.5979C81.4663 19.6232 81.4849 19.6538 81.496 19.6875C81.507 19.7211 81.5101 19.7568 81.5051 19.7918V26.6538Z" fill="#011627"/>
<path d="M91.283 26.6538C91.2871 26.6885 91.2833 26.7236 91.2719 26.7566C91.2605 26.7895 91.2417 26.8195 91.2171 26.8441C91.1924 26.8688 91.1625 26.8876 91.1295 26.899C91.0965 26.9104 91.0614 26.9142 91.0268 26.9101H89.8481C89.8132 26.914 89.778 26.9102 89.7448 26.8988C89.7116 26.8874 89.6814 26.8687 89.6564 26.8442C89.6314 26.8196 89.6121 26.7898 89.6001 26.7569C89.588 26.7239 89.5835 26.6887 89.5867 26.6538V25.9159C89.3001 26.3067 88.9214 26.6207 88.4842 26.8299C88.047 27.0391 87.5649 27.1371 87.0808 27.115C84.79 27.115 83.5396 25.2702 83.5396 23.2767C83.509 22.7526 83.5887 22.2279 83.7736 21.7366C83.9585 21.2452 84.2445 20.7982 84.613 20.4243C84.9816 20.0504 85.4245 19.7581 85.9131 19.5662C86.4018 19.3742 86.9253 19.287 87.4497 19.3102C89.6072 19.3102 91.283 20.6375 91.283 23.2972V26.6538ZM87.4497 20.9347C87.1499 20.9212 86.8507 20.9719 86.572 21.0832C86.2933 21.1945 86.0416 21.364 85.8335 21.5803C85.6255 21.7965 85.466 22.0547 85.3656 22.3375C85.2651 22.6203 85.2262 22.9212 85.2512 23.2203C85.2512 24.9166 86.2762 25.511 87.2294 25.5623C87.5403 25.5927 87.8542 25.5551 88.1491 25.452C88.4441 25.349 88.7131 25.1829 88.9374 24.9654C89.1617 24.7479 89.336 24.4842 89.4481 24.1926C89.5603 23.901 89.6076 23.5884 89.5867 23.2767C89.5867 21.3754 88.3875 20.9347 87.4497 20.9347Z" fill="#011627"/>
<path d="M106.524 23.2766C106.523 23.3116 106.514 23.346 106.5 23.3778C106.485 23.4096 106.464 23.4382 106.439 23.462C106.413 23.4858 106.383 23.5043 106.35 23.5165C106.317 23.5286 106.282 23.5342 106.247 23.5328H100.569C100.569 23.8063 100.625 24.0768 100.735 24.3274C100.844 24.578 101.004 24.8033 101.205 24.9891C101.406 25.1748 101.643 25.3171 101.901 25.4069C102.159 25.4967 102.433 25.5321 102.706 25.5109C102.979 25.5254 103.251 25.4853 103.508 25.3929C103.765 25.3005 104.001 25.1577 104.202 24.9728C104.259 24.9209 104.329 24.8864 104.404 24.8737C104.48 24.8609 104.557 24.8705 104.628 24.9011L105.714 25.3777C105.745 25.3898 105.774 25.409 105.796 25.4339C105.819 25.4588 105.835 25.4887 105.844 25.521C105.853 25.5534 105.854 25.5874 105.848 25.6204C105.841 25.6533 105.827 25.6843 105.806 25.7108C105.444 26.182 104.973 26.5576 104.432 26.805C103.892 27.0524 103.299 27.1641 102.706 27.1303C100.548 27.1303 98.8676 25.7876 98.8676 23.2202C98.8676 20.6527 100.548 19.3101 102.706 19.3101C104.863 19.3101 106.544 20.6578 106.544 23.2202L106.524 23.2766ZM104.694 22.2977C104.562 21.8771 104.292 21.5135 103.928 21.266C103.563 21.0185 103.125 20.9017 102.685 20.9346C102.246 20.9026 101.809 21.0198 101.444 21.2672C101.08 21.5145 100.809 21.8776 100.677 22.2977H104.694Z" fill="#011627"/>
<path d="M109.881 24.7525C109.952 24.7339 110.028 24.7425 110.093 24.7766C110.158 24.8107 110.209 24.8678 110.234 24.937C110.403 25.1415 110.618 25.3033 110.861 25.4092C111.104 25.5152 111.368 25.5623 111.633 25.5468C112.356 25.5468 113.037 25.2496 113.037 24.732C113.037 23.3688 108.553 24.732 108.553 21.7648C108.553 19.9558 110.091 19.3101 111.628 19.3101C112.884 19.3101 114.139 19.7354 114.58 21.1191C114.636 21.2472 114.544 21.3753 114.395 21.4317L113.417 21.6725C113.288 21.7084 113.181 21.6725 113.089 21.5085C112.923 21.284 112.7 21.1087 112.443 21.0012C112.186 20.8938 111.904 20.8584 111.628 20.8987C110.926 20.8987 110.229 21.0986 110.229 21.7084C110.229 23.0562 114.708 21.6725 114.708 24.732C114.708 26.5256 113.104 27.1303 111.633 27.1303C110.378 27.1303 109.014 26.7101 108.666 25.3264C108.625 25.1573 108.702 25.0651 108.866 25.0087L109.881 24.7525Z" fill="#011627"/>
<path d="M117.111 23.2203C117.111 20.6579 118.792 19.3101 120.95 19.3101C121.465 19.2931 121.977 19.3832 122.455 19.5746C122.934 19.7661 123.367 20.0547 123.728 20.4223C124.089 20.7899 124.369 21.2283 124.552 21.71C124.734 22.1916 124.815 22.7059 124.788 23.2203C124.788 25.7826 123.107 27.1304 120.95 27.1304C120.551 27.1324 120.156 27.0536 119.789 26.8985C119.422 26.7435 119.089 26.5155 118.813 26.2285V32.1782C118.816 32.2131 118.812 32.2483 118.799 32.2813C118.787 32.3142 118.768 32.344 118.743 32.3685C118.718 32.3931 118.688 32.4117 118.655 32.4231C118.622 32.4345 118.586 32.4384 118.551 32.4344H117.373C117.338 32.4384 117.303 32.4345 117.27 32.4231C117.236 32.4117 117.206 32.3931 117.181 32.3685C117.156 32.344 117.137 32.3142 117.125 32.2813C117.113 32.2483 117.108 32.2131 117.111 32.1782V23.2203ZM120.95 25.511C121.893 25.511 123.092 25.0651 123.092 23.2203C123.092 21.3754 121.893 20.9346 120.95 20.9346C120.007 20.9346 118.813 21.3754 118.813 23.2203C118.813 25.0651 120.012 25.5161 120.95 25.5161V25.511Z" fill="#011627"/>
<path d="M127.853 15.564C128.125 15.564 128.385 15.6719 128.577 15.8642C128.77 16.0564 128.878 16.3171 128.878 16.5889C128.878 16.8607 128.77 17.1214 128.577 17.3136C128.385 17.5059 128.125 17.6138 127.853 17.6138C127.581 17.6138 127.32 17.5059 127.128 17.3136C126.936 17.1214 126.828 16.8607 126.828 16.5889C126.828 16.3171 126.936 16.0564 127.128 15.8642C127.32 15.6719 127.581 15.564 127.853 15.564ZM128.698 26.6538C128.702 26.6884 128.699 26.7236 128.687 26.7565C128.676 26.7895 128.657 26.8194 128.632 26.8441C128.608 26.8688 128.578 26.8875 128.545 26.8989C128.512 26.9104 128.477 26.9141 128.442 26.91H127.258C127.224 26.9141 127.189 26.9104 127.156 26.8989C127.123 26.8875 127.093 26.8688 127.068 26.8441C127.043 26.8194 127.025 26.7895 127.013 26.7565C127.002 26.7236 126.998 26.6884 127.002 26.6538V19.7918C126.998 19.757 127.002 19.7217 127.013 19.6885C127.025 19.6554 127.043 19.6252 127.068 19.6002C127.093 19.5751 127.122 19.5559 127.155 19.5438C127.188 19.5318 127.223 19.5272 127.258 19.5305H128.442C128.477 19.5272 128.512 19.5318 128.545 19.5438C128.578 19.5559 128.608 19.5751 128.632 19.6002C128.657 19.6252 128.676 19.6554 128.687 19.6885C128.698 19.7217 128.702 19.757 128.698 19.7918V26.6538Z" fill="#011627"/>
<path d="M134.453 26.6538C134.458 26.6884 134.454 26.7235 134.442 26.7565C134.431 26.7895 134.412 26.8194 134.387 26.8441C134.363 26.8687 134.333 26.8875 134.3 26.8989C134.267 26.9103 134.232 26.9141 134.197 26.91H133.018C132.984 26.914 132.948 26.9101 132.915 26.8987C132.882 26.8873 132.852 26.8687 132.827 26.8441C132.802 26.8196 132.783 26.7897 132.77 26.7568C132.758 26.7239 132.754 26.6887 132.757 26.6538V21.155H130.805C130.77 21.1589 130.735 21.1551 130.701 21.1437C130.668 21.1323 130.638 21.1136 130.613 21.0891C130.588 21.0645 130.569 21.0347 130.557 21.0018C130.545 20.9689 130.54 20.9337 130.543 20.8987V19.7918C130.539 19.7565 130.543 19.7207 130.555 19.6871C130.566 19.6536 130.586 19.6231 130.611 19.5979C130.636 19.5728 130.666 19.5537 130.7 19.542C130.734 19.5303 130.769 19.5264 130.805 19.5305H132.757V16.6555C132.753 16.6202 132.757 16.5844 132.769 16.5508C132.78 16.5173 132.799 16.4868 132.825 16.4616C132.85 16.4365 132.88 16.4173 132.914 16.4057C132.947 16.394 132.983 16.3901 133.018 16.3942H134.197C134.232 16.3909 134.267 16.3954 134.3 16.4075C134.333 16.4195 134.363 16.4388 134.388 16.4638C134.412 16.4889 134.431 16.5191 134.442 16.5522C134.454 16.5854 134.457 16.6207 134.453 16.6555V19.5305H136.411C136.446 19.5272 136.481 19.5317 136.514 19.5438C136.547 19.5558 136.577 19.5751 136.601 19.6001C136.626 19.6252 136.645 19.6554 136.656 19.6885C136.667 19.7217 136.671 19.757 136.667 19.7918V20.9039C136.671 20.9385 136.668 20.9736 136.656 21.0066C136.645 21.0396 136.626 21.0695 136.601 21.0942C136.577 21.1188 136.547 21.1376 136.514 21.149C136.481 21.1604 136.446 21.1642 136.411 21.1601H134.453V26.6538Z" fill="#011627"/>
<path d="M139.363 15.564C139.635 15.564 139.895 15.6719 140.088 15.8642C140.28 16.0564 140.388 16.3171 140.388 16.5889C140.388 16.8607 140.28 17.1214 140.088 17.3136C139.895 17.5059 139.635 17.6138 139.363 17.6138C139.091 17.6138 138.83 17.5059 138.638 17.3136C138.446 17.1214 138.338 16.8607 138.338 16.5889C138.338 16.3171 138.446 16.0564 138.638 15.8642C138.83 15.6719 139.091 15.564 139.363 15.564ZM140.213 26.6538C140.217 26.6887 140.212 26.7239 140.2 26.7568C140.188 26.7898 140.169 26.8196 140.144 26.8441C140.119 26.8687 140.089 26.8873 140.055 26.8987C140.022 26.9101 139.987 26.914 139.952 26.91H138.773C138.739 26.914 138.703 26.9101 138.67 26.8987C138.637 26.8873 138.607 26.8687 138.582 26.8441C138.557 26.8196 138.537 26.7898 138.525 26.7568C138.513 26.7239 138.509 26.6887 138.512 26.6538V19.7918C138.508 19.7565 138.512 19.7207 138.524 19.6872C138.535 19.6536 138.554 19.6231 138.58 19.5979C138.605 19.5728 138.635 19.5537 138.669 19.542C138.702 19.5303 138.738 19.5264 138.773 19.5305H139.952C139.987 19.5264 140.023 19.5303 140.057 19.542C140.09 19.5537 140.121 19.5728 140.146 19.5979C140.171 19.6231 140.19 19.6536 140.202 19.6872C140.214 19.7207 140.218 19.7565 140.213 19.7918V26.6538Z" fill="#011627"/>
<path d="M149.986 26.6538C149.99 26.6885 149.987 26.7236 149.975 26.7566C149.964 26.7895 149.945 26.8195 149.92 26.8441C149.896 26.8688 149.866 26.8876 149.833 26.899C149.8 26.9104 149.765 26.9142 149.73 26.9101H148.551C148.517 26.914 148.481 26.9102 148.448 26.8988C148.415 26.8874 148.385 26.8687 148.36 26.8442C148.335 26.8196 148.315 26.7898 148.303 26.7569C148.291 26.7239 148.287 26.6887 148.29 26.6538V25.9159C148.003 26.3067 147.625 26.6207 147.188 26.8299C146.75 27.0391 146.268 27.1371 145.784 27.115C143.493 27.115 142.243 25.2702 142.243 23.2767C142.212 22.7526 142.292 22.2279 142.477 21.7366C142.662 21.2452 142.948 20.7982 143.316 20.4243C143.685 20.0504 144.128 19.7581 144.616 19.5662C145.105 19.3742 145.629 19.287 146.153 19.3102C148.311 19.3102 149.986 20.6375 149.986 23.2972V26.6538ZM146.179 20.9347C145.879 20.9212 145.58 20.9719 145.301 21.0832C145.022 21.1945 144.771 21.364 144.562 21.5803C144.354 21.7965 144.195 22.0547 144.094 22.3375C143.994 22.6203 143.955 22.9212 143.98 23.2203C143.98 24.9166 145.005 25.511 145.953 25.5623C146.264 25.5926 146.578 25.555 146.874 25.4519C147.169 25.3489 147.438 25.183 147.663 24.9656C147.887 24.7482 148.062 24.4845 148.175 24.1929C148.288 23.9013 148.336 23.5887 148.316 23.2767C148.29 21.3754 147.091 20.9347 146.179 20.9347Z" fill="#011627"/>
</svg>
