<svg width="54" height="44" viewBox="0 0 54 44" fill="none" xmlns="http://www.w3.org/2000/svg">
<rect width="54" height="44" rx="22" fill="black" fill-opacity="0.3"/>
<path d="M34.2806 25.9206V18.4403C34.2806 14.3261 30.9145 10.96 26.8003 10.96C22.6861 10.96 19.32 14.3261 19.32 18.4403V25.9206C19.32 30.0349 22.6861 33.4009 26.8003 33.4009C30.9145 33.4009 34.2806 30.0349 34.2806 25.9206ZM26.8003 31.7385C23.6003 31.7385 20.9824 29.1203 20.9824 25.9206V18.4403C20.9824 15.2403 23.6006 12.6224 26.8003 12.6224C30.0003 12.6224 32.6182 15.2406 32.6182 18.4403V25.9206C32.6182 29.1206 30.0003 31.7385 26.8003 31.7385Z" fill="white"/>
<path d="M26.8 15.5313C26.3429 15.5313 25.9689 15.9052 25.9689 16.3624V18.8559C25.9689 19.3131 26.3429 19.687 26.8 19.687C27.2571 19.687 27.6311 19.3131 27.6311 18.8559V16.3624C27.6311 15.9052 27.2571 15.5313 26.8 15.5313Z" fill="white"/>
</svg>
