<svg width="237" height="30" viewBox="0 0 237 30" fill="none" xmlns="http://www.w3.org/2000/svg">
<path d="M140.56 30V0H141.201L160.85 22.9992V0H163.759V30H163.094L143.609 7.27653V30H140.56Z" fill="#38215C"/>
<path d="M174.677 29.9583V0H180.707C185.063 0 188.224 0.358739 190.191 1.0762C192.916 2.01862 195.248 3.88674 196.805 6.37375C198.458 9.05364 199.304 12.1768 199.237 15.3504C199.295 18.1181 198.64 20.8523 197.34 23.2759C196.228 25.4099 194.539 27.166 192.477 28.3315C190.467 29.4438 187.646 30 184.014 30L174.677 29.9583ZM177.465 27.1301H180.829C184.882 27.1301 187.646 26.8715 189.202 26.3543C191.313 25.68 193.135 24.2814 194.365 22.3915C195.667 20.3114 196.323 17.8732 196.246 15.4004C196.32 12.7764 195.607 10.1925 194.203 8.00055C192.845 5.96911 190.837 4.49286 188.529 3.82925C186.708 3.27308 183.706 2.99499 179.524 2.99499H177.465V27.1301Z" fill="#38215C"/>
<path d="M0 0.0201743H5.94701C8.20024 -0.0548017 10.4556 0.0793053 12.6842 0.420792C14.3811 0.780007 15.9062 1.70702 17.0093 3.04988C18.1394 4.44173 18.7301 6.19648 18.6728 7.99087C18.7053 9.50665 18.3072 11.0004 17.525 12.2976C16.7474 13.5514 15.6029 14.5338 14.2479 15.1102C12.3699 15.8276 10.367 16.1569 8.35909 16.0784L19.1053 30H15.4123L4.66612 16.0701H3.00262V29.9917H0V0.0201743ZM2.97767 2.94971V13.1405L8.1262 13.1823C9.6235 13.2542 11.1216 13.0592 12.5511 12.6064C13.4733 12.2584 14.2583 11.6201 14.7885 10.7869C15.3328 9.95369 15.622 8.97877 15.6203 7.98253C15.6233 7.00689 15.3335 6.05294 14.7885 5.24494C14.2788 4.44653 13.5306 3.83018 12.6509 3.48389C11.229 3.05143 9.74296 2.87067 8.25928 2.94971H2.97767Z" fill="#38215C"/>
<path d="M24.585 0H27.6767V17.6667C27.6476 18.9716 27.6877 20.277 27.797 21.5781C27.9048 22.6241 28.2759 23.6302 28.8791 24.5117C29.5402 25.3666 30.4296 26.0389 31.4556 26.4593C32.5442 26.9772 33.7419 27.2557 34.9596 27.2742C35.9739 27.2758 36.9763 27.0672 37.8968 26.663C38.8046 26.2681 39.6062 25.683 40.2414 24.9517C40.895 24.172 41.3663 23.2692 41.6241 22.3034C41.9017 20.7947 42.0082 19.2621 41.9418 17.7319V0H45.025V17.6667C45.0862 19.8034 44.8141 21.937 44.2177 23.9983C43.6229 25.684 42.4954 27.155 40.9885 28.2113C39.3043 29.4222 37.2351 30.0517 35.1228 29.9959C32.8626 30.0556 30.636 29.4678 28.7331 28.3091C27.023 27.2629 25.7599 25.6746 25.169 23.8272C24.6907 21.8068 24.4943 19.7356 24.585 17.6667V0Z" fill="#38215C"/>
<path d="M51.8569 2.93233V0H68.2329V2.93233H61.5726V30H58.5172V2.93233H51.8569Z" fill="#38215C"/>
<path d="M77.7856 0H94.1616V2.93233H80.6343V12.3392H94.0343V15.2715H80.6423V27.0593H94.0423V30H77.7856V0Z" fill="#38215C"/>
<path d="M118.039 28.6364H102.349L110.194 15L118.039 1.36365L125.884 15L133.736 28.6364H118.039Z" fill="#F9E900"/>
<path d="M220.397 1.36365H236.087L228.242 14.996L220.397 28.6364L212.545 14.996L204.7 1.36365H220.397Z" fill="#4A2545"/>
</svg>
