<svg width="382" height="189" viewBox="0 0 382 189" fill="none" xmlns="http://www.w3.org/2000/svg">
<path d="M34 11.5H20C19.4477 11.5 19 11.9477 19 12.5V21.5C19 22.0523 19.4477 22.5 20 22.5H34C34.5523 22.5 35 22.0523 35 21.5V12.5C35 11.9477 34.5523 11.5 34 11.5Z" stroke="#2EC4B6" stroke-width="1.5" stroke-linecap="round" stroke-linejoin="round"/>
<path d="M20 22.5H34M18.75 25H35.25C35.9404 25 36.5 24.4404 36.5 23.75C36.5 23.0596 35.9404 22.5 35.25 22.5H18.75C18.0596 22.5 17.5 23.0596 17.5 23.75C17.5 24.4404 18.0596 25 18.75 25Z" stroke="#2EC4B6" stroke-width="1.5" stroke-linecap="round" stroke-linejoin="round"/>
<path d="M52.64 12.38H47.33V15.908H52.46V17.888H47.33V23H45.26V10.4H52.64V12.38ZM56.2864 12.29C56.0464 12.53 55.7584 12.65 55.4224 12.65C55.0864 12.65 54.7924 12.53 54.5404 12.29C54.3004 12.038 54.1804 11.744 54.1804 11.408C54.1804 11.072 54.3004 10.784 54.5404 10.544C54.7804 10.292 55.0744 10.166 55.4224 10.166C55.7704 10.166 56.0644 10.292 56.3044 10.544C56.5444 10.784 56.6644 11.072 56.6644 11.408C56.6644 11.744 56.5384 12.038 56.2864 12.29ZM54.4504 23V14H56.3944V23H54.4504ZM65.8156 14H67.7236V22.586C67.7236 23.954 67.2736 25.004 66.3736 25.736C65.4736 26.468 64.3816 26.834 63.0976 26.834C61.0216 26.834 59.5996 26.108 58.8316 24.656L60.5056 23.684C60.9736 24.608 61.8496 25.07 63.1336 25.07C63.9736 25.07 64.6276 24.848 65.0956 24.404C65.5756 23.972 65.8156 23.366 65.8156 22.586V21.488C65.0836 22.532 64.0396 23.054 62.6836 23.054C61.4116 23.054 60.3376 22.604 59.4616 21.704C58.5856 20.792 58.1476 19.694 58.1476 18.41C58.1476 17.126 58.5856 16.034 59.4616 15.134C60.3376 14.222 61.4116 13.766 62.6836 13.766C64.0396 13.766 65.0836 14.288 65.8156 15.332V14ZM60.9016 20.426C61.4536 20.966 62.1376 21.236 62.9536 21.236C63.7696 21.236 64.4476 20.966 64.9876 20.426C65.5396 19.886 65.8156 19.214 65.8156 18.41C65.8156 17.606 65.5396 16.934 64.9876 16.394C64.4476 15.854 63.7696 15.584 62.9536 15.584C62.1376 15.584 61.4536 15.854 60.9016 16.394C60.3616 16.934 60.0916 17.606 60.0916 18.41C60.0916 19.214 60.3616 19.886 60.9016 20.426ZM79.8175 13.766C80.8375 13.766 81.6595 14.096 82.2835 14.756C82.9075 15.416 83.2195 16.304 83.2195 17.42V23H81.2755V17.546C81.2755 16.922 81.1195 16.442 80.8075 16.106C80.4955 15.758 80.0695 15.584 79.5295 15.584C78.9295 15.584 78.4495 15.782 78.0895 16.178C77.7415 16.574 77.5675 17.168 77.5675 17.96V23H75.6235V17.546C75.6235 16.922 75.4735 16.442 75.1735 16.106C74.8855 15.758 74.4715 15.584 73.9315 15.584C73.3435 15.584 72.8635 15.788 72.4915 16.196C72.1195 16.592 71.9335 17.18 71.9335 17.96V23H69.9895V14H71.9335V15.08C72.5095 14.204 73.3675 13.766 74.5075 13.766C75.6595 13.766 76.5115 14.24 77.0635 15.188C77.6635 14.24 78.5815 13.766 79.8175 13.766ZM92.428 14H94.372V23H92.428V21.704C91.696 22.724 90.646 23.234 89.278 23.234C88.042 23.234 86.986 22.778 86.11 21.866C85.234 20.942 84.796 19.82 84.796 18.5C84.796 17.168 85.234 16.046 86.11 15.134C86.986 14.222 88.042 13.766 89.278 13.766C90.646 13.766 91.696 14.27 92.428 15.278V14ZM87.55 20.57C88.09 21.11 88.768 21.38 89.584 21.38C90.4 21.38 91.078 21.11 91.618 20.57C92.158 20.018 92.428 19.328 92.428 18.5C92.428 17.672 92.158 16.988 91.618 16.448C91.078 15.896 90.4 15.62 89.584 15.62C88.768 15.62 88.09 15.896 87.55 16.448C87.01 16.988 86.74 17.672 86.74 18.5C86.74 19.328 87.01 20.018 87.55 20.57Z" fill="#2EC4B6"/>
<rect x="1" y="1" width="109" height="34" rx="17" stroke="#2EC4B6" stroke-width="2"/>
<path d="M155 11.5H141C140.448 11.5 140 11.9477 140 12.5V21.5C140 22.0523 140.448 22.5 141 22.5H155C155.552 22.5 156 22.0523 156 21.5V12.5C156 11.9477 155.552 11.5 155 11.5Z" stroke="#2EC4B6" stroke-width="1.5" stroke-linecap="round" stroke-linejoin="round"/>
<path d="M141 22.5H155M139.75 25H156.25C156.94 25 157.5 24.4404 157.5 23.75C157.5 23.0596 156.94 22.5 156.25 22.5H139.75C139.06 22.5 138.5 23.0596 138.5 23.75C138.5 24.4404 139.06 25 139.75 25Z" stroke="#2EC4B6" stroke-width="1.5" stroke-linecap="round" stroke-linejoin="round"/>
<path d="M170.904 10.4C172.092 10.4 173.082 10.796 173.874 11.588C174.678 12.38 175.08 13.364 175.08 14.54C175.08 15.704 174.678 16.688 173.874 17.492C173.082 18.284 172.092 18.68 170.904 18.68H168.33V23H166.26V10.4H170.904ZM170.904 16.736C171.516 16.736 172.02 16.532 172.416 16.124C172.812 15.704 173.01 15.176 173.01 14.54C173.01 13.904 172.812 13.382 172.416 12.974C172.02 12.554 171.516 12.344 170.904 12.344H168.33V16.736H170.904ZM181.485 13.766C182.517 13.766 183.351 14.096 183.987 14.756C184.623 15.416 184.941 16.322 184.941 17.474V23H182.997V17.672C182.997 17 182.817 16.484 182.457 16.124C182.097 15.764 181.605 15.584 180.981 15.584C180.297 15.584 179.745 15.8 179.325 16.232C178.905 16.652 178.695 17.3 178.695 18.176V23H176.751V10.4H178.695V15.152C179.283 14.228 180.213 13.766 181.485 13.766ZM191.282 23.234C189.962 23.234 188.84 22.778 187.916 21.866C186.992 20.954 186.53 19.832 186.53 18.5C186.53 17.168 186.992 16.046 187.916 15.134C188.84 14.222 189.962 13.766 191.282 13.766C192.614 13.766 193.736 14.222 194.648 15.134C195.572 16.046 196.034 17.168 196.034 18.5C196.034 19.832 195.572 20.954 194.648 21.866C193.736 22.778 192.614 23.234 191.282 23.234ZM189.284 20.534C189.824 21.074 190.49 21.344 191.282 21.344C192.074 21.344 192.74 21.074 193.28 20.534C193.82 19.994 194.09 19.316 194.09 18.5C194.09 17.684 193.82 17.006 193.28 16.466C192.74 15.926 192.074 15.656 191.282 15.656C190.49 15.656 189.824 15.926 189.284 16.466C188.744 17.006 188.474 17.684 188.474 18.5C188.474 19.316 188.744 19.994 189.284 20.534ZM202.638 15.872H200.406V20.192C200.406 20.564 200.49 20.834 200.658 21.002C200.826 21.158 201.072 21.248 201.396 21.272C201.732 21.284 202.146 21.278 202.638 21.254V23C201.15 23.18 200.082 23.054 199.434 22.622C198.786 22.178 198.462 21.368 198.462 20.192V15.872H196.806V14H198.462V12.056L200.406 11.48V14H202.638V15.872ZM208.28 23.234C206.96 23.234 205.838 22.778 204.914 21.866C203.99 20.954 203.528 19.832 203.528 18.5C203.528 17.168 203.99 16.046 204.914 15.134C205.838 14.222 206.96 13.766 208.28 13.766C209.612 13.766 210.734 14.222 211.646 15.134C212.57 16.046 213.032 17.168 213.032 18.5C213.032 19.832 212.57 20.954 211.646 21.866C210.734 22.778 209.612 23.234 208.28 23.234ZM206.282 20.534C206.822 21.074 207.488 21.344 208.28 21.344C209.072 21.344 209.738 21.074 210.278 20.534C210.818 19.994 211.088 19.316 211.088 18.5C211.088 17.684 210.818 17.006 210.278 16.466C209.738 15.926 209.072 15.656 208.28 15.656C207.488 15.656 206.822 15.926 206.282 16.466C205.742 17.006 205.472 17.684 205.472 18.5C205.472 19.316 205.742 19.994 206.282 20.534ZM216.36 16.484C216.36 16.784 216.522 17.024 216.846 17.204C217.182 17.372 217.584 17.522 218.052 17.654C218.532 17.774 219.012 17.918 219.492 18.086C219.972 18.254 220.374 18.542 220.698 18.95C221.034 19.346 221.202 19.85 221.202 20.462C221.202 21.326 220.866 22.004 220.194 22.496C219.534 22.988 218.7 23.234 217.692 23.234C216.804 23.234 216.042 23.048 215.406 22.676C214.77 22.304 214.308 21.788 214.02 21.128L215.694 20.156C216.006 21.02 216.672 21.452 217.692 21.452C218.712 21.452 219.222 21.116 219.222 20.444C219.222 20.156 219.054 19.922 218.718 19.742C218.394 19.562 217.992 19.412 217.512 19.292C217.044 19.16 216.57 19.01 216.09 18.842C215.61 18.674 215.202 18.398 214.866 18.014C214.542 17.618 214.38 17.12 214.38 16.52C214.38 15.692 214.692 15.026 215.316 14.522C215.952 14.018 216.738 13.766 217.674 13.766C218.418 13.766 219.078 13.934 219.654 14.27C220.242 14.594 220.692 15.05 221.004 15.638L219.366 16.556C219.054 15.872 218.49 15.53 217.674 15.53C217.302 15.53 216.99 15.614 216.738 15.782C216.486 15.938 216.36 16.172 216.36 16.484ZM227.54 13.766C228.572 13.766 229.406 14.096 230.042 14.756C230.678 15.416 230.996 16.322 230.996 17.474V23H229.052V17.672C229.052 17 228.872 16.484 228.512 16.124C228.152 15.764 227.66 15.584 227.036 15.584C226.352 15.584 225.8 15.8 225.38 16.232C224.96 16.652 224.75 17.3 224.75 18.176V23H222.806V10.4H224.75V15.152C225.338 14.228 226.268 13.766 227.54 13.766ZM237.337 23.234C236.017 23.234 234.895 22.778 233.971 21.866C233.047 20.954 232.585 19.832 232.585 18.5C232.585 17.168 233.047 16.046 233.971 15.134C234.895 14.222 236.017 13.766 237.337 13.766C238.669 13.766 239.791 14.222 240.703 15.134C241.627 16.046 242.089 17.168 242.089 18.5C242.089 19.832 241.627 20.954 240.703 21.866C239.791 22.778 238.669 23.234 237.337 23.234ZM235.339 20.534C235.879 21.074 236.545 21.344 237.337 21.344C238.129 21.344 238.795 21.074 239.335 20.534C239.875 19.994 240.145 19.316 240.145 18.5C240.145 17.684 239.875 17.006 239.335 16.466C238.795 15.926 238.129 15.656 237.337 15.656C236.545 15.656 235.879 15.926 235.339 16.466C234.799 17.006 234.529 17.684 234.529 18.5C234.529 19.316 234.799 19.994 235.339 20.534ZM248.941 13.766C250.177 13.766 251.233 14.228 252.109 15.152C252.985 16.064 253.423 17.18 253.423 18.5C253.423 19.832 252.985 20.954 252.109 21.866C251.233 22.778 250.177 23.234 248.941 23.234C247.573 23.234 246.523 22.73 245.791 21.722V26.6H243.847V14H245.791V15.296C246.523 14.276 247.573 13.766 248.941 13.766ZM246.601 20.57C247.141 21.11 247.819 21.38 248.635 21.38C249.451 21.38 250.129 21.11 250.669 20.57C251.209 20.018 251.479 19.328 251.479 18.5C251.479 17.672 251.209 16.988 250.669 16.448C250.129 15.896 249.451 15.62 248.635 15.62C247.819 15.62 247.141 15.896 246.601 16.448C246.061 16.988 245.791 17.672 245.791 18.5C245.791 19.328 246.061 20.018 246.601 20.57Z" fill="#2EC4B6"/>
<rect x="122" y="1" width="147" height="34" rx="17" stroke="#2EC4B6" stroke-width="2"/>
<path d="M34 62.5H20C19.4477 62.5 19 62.9477 19 63.5V72.5C19 73.0523 19.4477 73.5 20 73.5H34C34.5523 73.5 35 73.0523 35 72.5V63.5C35 62.9477 34.5523 62.5 34 62.5Z" stroke="#2EC4B6" stroke-width="1.5" stroke-linecap="round" stroke-linejoin="round"/>
<path d="M20 73.5H34M18.75 76H35.25C35.9404 76 36.5 75.4404 36.5 74.75C36.5 74.0596 35.9404 73.5 35.25 73.5H18.75C18.0596 73.5 17.5 74.0596 17.5 74.75C17.5 75.4404 18.0596 76 18.75 76Z" stroke="#2EC4B6" stroke-width="1.5" stroke-linecap="round" stroke-linejoin="round"/>
<path d="M45.26 61.4H47.33V74H45.26V61.4ZM49.7219 74V60.86H51.6659V74H49.7219ZM53.9231 74V60.86H55.8671V74H53.9231ZM64.1902 65H66.1342V74H64.1902V72.848C63.6022 73.772 62.6722 74.234 61.4002 74.234C60.3682 74.234 59.5342 73.904 58.8982 73.244C58.2622 72.584 57.9442 71.678 57.9442 70.526V65H59.8882V70.328C59.8882 71 60.0682 71.516 60.4282 71.876C60.7882 72.236 61.2802 72.416 61.9042 72.416C62.5882 72.416 63.1402 72.206 63.5602 71.786C63.9802 71.354 64.1902 70.7 64.1902 69.824V65ZM70.1007 67.484C70.1007 67.784 70.2627 68.024 70.5867 68.204C70.9227 68.372 71.3247 68.522 71.7927 68.654C72.2727 68.774 72.7527 68.918 73.2327 69.086C73.7127 69.254 74.1147 69.542 74.4387 69.95C74.7747 70.346 74.9427 70.85 74.9427 71.462C74.9427 72.326 74.6067 73.004 73.9347 73.496C73.2747 73.988 72.4407 74.234 71.4327 74.234C70.5447 74.234 69.7827 74.048 69.1467 73.676C68.5107 73.304 68.0487 72.788 67.7607 72.128L69.4347 71.156C69.7467 72.02 70.4127 72.452 71.4327 72.452C72.4527 72.452 72.9627 72.116 72.9627 71.444C72.9627 71.156 72.7947 70.922 72.4587 70.742C72.1347 70.562 71.7327 70.412 71.2527 70.292C70.7847 70.16 70.3107 70.01 69.8307 69.842C69.3507 69.674 68.9427 69.398 68.6067 69.014C68.2827 68.618 68.1207 68.12 68.1207 67.52C68.1207 66.692 68.4327 66.026 69.0567 65.522C69.6927 65.018 70.4787 64.766 71.4147 64.766C72.1587 64.766 72.8187 64.934 73.3947 65.27C73.9827 65.594 74.4327 66.05 74.7447 66.638L73.1067 67.556C72.7947 66.872 72.2307 66.53 71.4147 66.53C71.0427 66.53 70.7307 66.614 70.4787 66.782C70.2267 66.938 70.1007 67.172 70.1007 67.484ZM81.322 66.872H79.09V71.192C79.09 71.564 79.174 71.834 79.342 72.002C79.51 72.158 79.756 72.248 80.08 72.272C80.416 72.284 80.83 72.278 81.322 72.254V74C79.834 74.18 78.766 74.054 78.118 73.622C77.47 73.178 77.146 72.368 77.146 71.192V66.872H75.49V65H77.146V63.056L79.09 62.48V65H81.322V66.872ZM85.1171 66.512C85.6091 65.396 86.5331 64.838 87.8891 64.838V66.944C87.1451 66.896 86.4971 67.076 85.9451 67.484C85.3931 67.88 85.1171 68.54 85.1171 69.464V74H83.1731V65H85.1171V66.512ZM96.0315 65H97.9755V74H96.0315V72.704C95.2995 73.724 94.2495 74.234 92.8815 74.234C91.6455 74.234 90.5895 73.778 89.7135 72.866C88.8375 71.942 88.3995 70.82 88.3995 69.5C88.3995 68.168 88.8375 67.046 89.7135 66.134C90.5895 65.222 91.6455 64.766 92.8815 64.766C94.2495 64.766 95.2995 65.27 96.0315 66.278V65ZM91.1535 71.57C91.6935 72.11 92.3715 72.38 93.1875 72.38C94.0035 72.38 94.6815 72.11 95.2215 71.57C95.7615 71.018 96.0315 70.328 96.0315 69.5C96.0315 68.672 95.7615 67.988 95.2215 67.448C94.6815 66.896 94.0035 66.62 93.1875 66.62C92.3715 66.62 91.6935 66.896 91.1535 67.448C90.6135 67.988 90.3435 68.672 90.3435 69.5C90.3435 70.328 90.6135 71.018 91.1535 71.57ZM105.263 66.872H103.031V71.192C103.031 71.564 103.115 71.834 103.283 72.002C103.451 72.158 103.697 72.248 104.021 72.272C104.357 72.284 104.771 72.278 105.263 72.254V74C103.775 74.18 102.707 74.054 102.059 73.622C101.411 73.178 101.087 72.368 101.087 71.192V66.872H99.4314V65H101.087V63.056L103.031 62.48V65H105.263V66.872ZM110.905 74.234C109.585 74.234 108.463 73.778 107.539 72.866C106.615 71.954 106.153 70.832 106.153 69.5C106.153 68.168 106.615 67.046 107.539 66.134C108.463 65.222 109.585 64.766 110.905 64.766C112.237 64.766 113.359 65.222 114.271 66.134C115.195 67.046 115.657 68.168 115.657 69.5C115.657 70.832 115.195 71.954 114.271 72.866C113.359 73.778 112.237 74.234 110.905 74.234ZM108.907 71.534C109.447 72.074 110.113 72.344 110.905 72.344C111.697 72.344 112.363 72.074 112.903 71.534C113.443 70.994 113.713 70.316 113.713 69.5C113.713 68.684 113.443 68.006 112.903 67.466C112.363 66.926 111.697 66.656 110.905 66.656C110.113 66.656 109.447 66.926 108.907 67.466C108.367 68.006 108.097 68.684 108.097 69.5C108.097 70.316 108.367 70.994 108.907 71.534ZM119.359 66.512C119.851 65.396 120.775 64.838 122.131 64.838V66.944C121.387 66.896 120.739 67.076 120.187 67.484C119.635 67.88 119.359 68.54 119.359 69.464V74H117.415V65H119.359V66.512Z" fill="#2EC4B6"/>
<rect x="1" y="52" width="136" height="34" rx="17" stroke="#2EC4B6" stroke-width="2"/>
<path d="M182 62.5H168C167.448 62.5 167 62.9477 167 63.5V72.5C167 73.0523 167.448 73.5 168 73.5H182C182.552 73.5 183 73.0523 183 72.5V63.5C183 62.9477 182.552 62.5 182 62.5Z" stroke="#2EC4B6" stroke-width="1.5" stroke-linecap="round" stroke-linejoin="round"/>
<path d="M168 73.5H182M166.75 76H183.25C183.94 76 184.5 75.4404 184.5 74.75C184.5 74.0596 183.94 73.5 183.25 73.5H166.75C166.06 73.5 165.5 74.0596 165.5 74.75C165.5 75.4404 166.06 76 166.75 76Z" stroke="#2EC4B6" stroke-width="1.5" stroke-linecap="round" stroke-linejoin="round"/>
<path d="M201.468 74L200.586 71.462H195.222L194.34 74H192.09L196.662 61.4H199.146L203.7 74H201.468ZM195.906 69.518H199.902L197.904 63.83L195.906 69.518ZM211.828 61.4H213.772V74H211.828V72.704C211.096 73.724 210.046 74.234 208.678 74.234C207.442 74.234 206.386 73.778 205.51 72.866C204.634 71.942 204.196 70.82 204.196 69.5C204.196 68.168 204.634 67.046 205.51 66.134C206.386 65.222 207.442 64.766 208.678 64.766C210.046 64.766 211.096 65.27 211.828 66.278V61.4ZM206.95 71.57C207.49 72.11 208.168 72.38 208.984 72.38C209.8 72.38 210.478 72.11 211.018 71.57C211.558 71.018 211.828 70.328 211.828 69.5C211.828 68.672 211.558 67.988 211.018 67.448C210.478 66.896 209.8 66.62 208.984 66.62C208.168 66.62 207.49 66.896 206.95 67.448C206.41 67.988 206.14 68.672 206.14 69.5C206.14 70.328 206.41 71.018 206.95 71.57ZM220.286 74.234C218.966 74.234 217.844 73.778 216.92 72.866C215.996 71.954 215.534 70.832 215.534 69.5C215.534 68.168 215.996 67.046 216.92 66.134C217.844 65.222 218.966 64.766 220.286 64.766C221.618 64.766 222.74 65.222 223.652 66.134C224.576 67.046 225.038 68.168 225.038 69.5C225.038 70.832 224.576 71.954 223.652 72.866C222.74 73.778 221.618 74.234 220.286 74.234ZM218.288 71.534C218.828 72.074 219.494 72.344 220.286 72.344C221.078 72.344 221.744 72.074 222.284 71.534C222.824 70.994 223.094 70.316 223.094 69.5C223.094 68.684 222.824 68.006 222.284 67.466C221.744 66.926 221.078 66.656 220.286 66.656C219.494 66.656 218.828 66.926 218.288 67.466C217.748 68.006 217.478 68.684 217.478 69.5C217.478 70.316 217.748 70.994 218.288 71.534ZM231.89 64.766C233.126 64.766 234.182 65.222 235.058 66.134C235.934 67.046 236.372 68.168 236.372 69.5C236.372 70.82 235.934 71.942 235.058 72.866C234.182 73.778 233.126 74.234 231.89 74.234C230.522 74.234 229.472 73.724 228.74 72.704V74H226.796V61.4H228.74V66.278C229.472 65.27 230.522 64.766 231.89 64.766ZM229.55 71.57C230.09 72.11 230.768 72.38 231.584 72.38C232.4 72.38 233.078 72.11 233.618 71.57C234.158 71.018 234.428 70.328 234.428 69.5C234.428 68.672 234.158 67.988 233.618 67.448C233.078 66.896 232.4 66.62 231.584 66.62C230.768 66.62 230.09 66.896 229.55 67.448C229.01 67.988 228.74 68.672 228.74 69.5C228.74 70.328 229.01 71.018 229.55 71.57ZM239.664 70.328C239.808 71.012 240.138 71.54 240.654 71.912C241.17 72.272 241.8 72.452 242.544 72.452C243.576 72.452 244.35 72.08 244.866 71.336L246.468 72.272C245.58 73.58 244.266 74.234 242.526 74.234C241.062 74.234 239.88 73.79 238.98 72.902C238.08 72.002 237.63 70.868 237.63 69.5C237.63 68.156 238.074 67.034 238.962 66.134C239.85 65.222 240.99 64.766 242.382 64.766C243.702 64.766 244.782 65.228 245.622 66.152C246.474 67.076 246.9 68.198 246.9 69.518C246.9 69.722 246.876 69.992 246.828 70.328H239.664ZM239.646 68.744H244.938C244.806 68.012 244.5 67.46 244.02 67.088C243.552 66.716 243 66.53 242.364 66.53C241.644 66.53 241.044 66.728 240.564 67.124C240.084 67.52 239.778 68.06 239.646 68.744ZM262.507 74H260.149L257.377 69.446L254.605 74H252.247L256.207 67.52L252.481 61.4H254.821L257.377 65.594L259.933 61.4H262.291L258.565 67.52L262.507 74ZM268.98 61.4C270.708 61.4 272.142 62.006 273.282 63.218C274.434 64.43 275.01 65.924 275.01 67.7C275.01 69.464 274.434 70.958 273.282 72.182C272.142 73.394 270.708 74 268.98 74H264.03V61.4H268.98ZM268.98 72.02C270.168 72.02 271.134 71.612 271.878 70.796C272.634 69.98 273.012 68.948 273.012 67.7C273.012 66.44 272.634 65.408 271.878 64.604C271.134 63.788 270.168 63.38 268.98 63.38H266.1V72.02H268.98Z" fill="#2EC4B6"/>
<rect x="149" y="52" width="141" height="34" rx="17" stroke="#2EC4B6" stroke-width="2"/>
<path d="M34 113.5H20C19.4477 113.5 19 113.948 19 114.5V123.5C19 124.052 19.4477 124.5 20 124.5H34C34.5523 124.5 35 124.052 35 123.5V114.5C35 113.948 34.5523 113.5 34 113.5Z" stroke="#2EC4B6" stroke-width="1.5" stroke-linecap="round" stroke-linejoin="round"/>
<path d="M20 124.5H34M18.75 127H35.25C35.9404 127 36.5 126.44 36.5 125.75C36.5 125.06 35.9404 124.5 35.25 124.5H18.75C18.0596 124.5 17.5 125.06 17.5 125.75C17.5 126.44 18.0596 127 18.75 127Z" stroke="#2EC4B6" stroke-width="1.5" stroke-linecap="round" stroke-linejoin="round"/>
<path d="M53.468 125L52.586 122.462H47.222L46.34 125H44.09L48.662 112.4H51.146L55.7 125H53.468ZM47.906 120.518H51.902L49.904 114.83L47.906 120.518ZM61.3637 114.038C59.9477 113.906 59.2397 114.5 59.2397 115.82V116H61.3637V117.872H59.2397V125H57.2957V117.872H55.9277V116H57.2957V115.82C57.2957 114.584 57.6377 113.648 58.3217 113.012C59.0177 112.364 60.0317 112.082 61.3637 112.166V114.038ZM67.8396 117.872H65.6076V122.192C65.6076 122.564 65.6916 122.834 65.8596 123.002C66.0276 123.158 66.2736 123.248 66.5976 123.272C66.9336 123.284 67.3476 123.278 67.8396 123.254V125C66.3516 125.18 65.2836 125.054 64.6356 124.622C63.9876 124.178 63.6636 123.368 63.6636 122.192V117.872H62.0076V116H63.6636V114.056L65.6076 113.48V116H67.8396V117.872ZM70.7636 121.328C70.9076 122.012 71.2376 122.54 71.7536 122.912C72.2696 123.272 72.8996 123.452 73.6436 123.452C74.6756 123.452 75.4496 123.08 75.9656 122.336L77.5676 123.272C76.6796 124.58 75.3656 125.234 73.6256 125.234C72.1616 125.234 70.9796 124.79 70.0796 123.902C69.1796 123.002 68.7296 121.868 68.7296 120.5C68.7296 119.156 69.1736 118.034 70.0616 117.134C70.9496 116.222 72.0896 115.766 73.4816 115.766C74.8016 115.766 75.8816 116.228 76.7216 117.152C77.5736 118.076 77.9996 119.198 77.9996 120.518C77.9996 120.722 77.9756 120.992 77.9276 121.328H70.7636ZM70.7456 119.744H76.0376C75.9056 119.012 75.5996 118.46 75.1196 118.088C74.6516 117.716 74.0996 117.53 73.4636 117.53C72.7436 117.53 72.1436 117.728 71.6636 118.124C71.1836 118.52 70.8776 119.06 70.7456 119.744ZM81.6542 117.512C82.1462 116.396 83.0702 115.838 84.4262 115.838V117.944C83.6822 117.896 83.0342 118.076 82.4822 118.484C81.9302 118.88 81.6542 119.54 81.6542 120.464V125H79.7102V116H81.6542V117.512ZM92.5585 123.02H98.1385V125H90.4885V112.4H98.0485V114.38H92.5585V117.656H97.5985V119.618H92.5585V123.02ZM109.573 113.858C108.157 113.726 107.449 114.32 107.449 115.64V116H109.573V117.872H107.449V125H105.505V117.872H102.499V125H100.555V117.872H99.1874V116H100.555V115.82C100.555 114.584 100.897 113.648 101.581 113.012C102.277 112.364 103.291 112.082 104.623 112.166V114.038C103.207 113.906 102.499 114.5 102.499 115.82V116H105.505V115.64C105.505 114.404 105.847 113.468 106.531 112.832C107.227 112.184 108.241 111.902 109.573 111.986V113.858ZM111.809 121.328C111.953 122.012 112.283 122.54 112.799 122.912C113.315 123.272 113.945 123.452 114.689 123.452C115.721 123.452 116.495 123.08 117.011 122.336L118.613 123.272C117.725 124.58 116.411 125.234 114.671 125.234C113.207 125.234 112.025 124.79 111.125 123.902C110.225 123.002 109.775 121.868 109.775 120.5C109.775 119.156 110.219 118.034 111.107 117.134C111.995 116.222 113.135 115.766 114.527 115.766C115.847 115.766 116.927 116.228 117.767 117.152C118.619 118.076 119.045 119.198 119.045 120.518C119.045 120.722 119.021 120.992 118.973 121.328H111.809ZM111.791 119.744H117.083C116.951 119.012 116.645 118.46 116.165 118.088C115.697 117.716 115.145 117.53 114.509 117.53C113.789 117.53 113.189 117.728 112.709 118.124C112.229 118.52 111.923 119.06 111.791 119.744ZM124.95 125.234C123.594 125.234 122.46 124.778 121.548 123.866C120.648 122.954 120.198 121.832 120.198 120.5C120.198 119.156 120.648 118.034 121.548 117.134C122.46 116.222 123.594 115.766 124.95 115.766C125.826 115.766 126.624 115.976 127.344 116.396C128.064 116.816 128.604 117.38 128.964 118.088L127.29 119.06C127.086 118.628 126.774 118.292 126.354 118.052C125.946 117.8 125.472 117.674 124.932 117.674C124.14 117.674 123.474 117.944 122.934 118.484C122.406 119.024 122.142 119.696 122.142 120.5C122.142 121.304 122.406 121.976 122.934 122.516C123.474 123.056 124.14 123.326 124.932 123.326C125.46 123.326 125.934 123.2 126.354 122.948C126.786 122.696 127.11 122.36 127.326 121.94L129 122.894C128.616 123.614 128.064 124.184 127.344 124.604C126.624 125.024 125.826 125.234 124.95 125.234ZM135.427 117.872H133.195V122.192C133.195 122.564 133.279 122.834 133.447 123.002C133.615 123.158 133.861 123.248 134.185 123.272C134.521 123.284 134.935 123.278 135.427 123.254V125C133.939 125.18 132.871 125.054 132.223 124.622C131.575 124.178 131.251 123.368 131.251 122.192V117.872H129.595V116H131.251V114.056L133.195 113.48V116H135.427V117.872ZM138.603 118.484C138.603 118.784 138.765 119.024 139.089 119.204C139.425 119.372 139.827 119.522 140.295 119.654C140.775 119.774 141.255 119.918 141.735 120.086C142.215 120.254 142.617 120.542 142.941 120.95C143.277 121.346 143.445 121.85 143.445 122.462C143.445 123.326 143.109 124.004 142.437 124.496C141.777 124.988 140.943 125.234 139.935 125.234C139.047 125.234 138.285 125.048 137.649 124.676C137.013 124.304 136.551 123.788 136.263 123.128L137.937 122.156C138.249 123.02 138.915 123.452 139.935 123.452C140.955 123.452 141.465 123.116 141.465 122.444C141.465 122.156 141.297 121.922 140.961 121.742C140.637 121.562 140.235 121.412 139.755 121.292C139.287 121.16 138.813 121.01 138.333 120.842C137.853 120.674 137.445 120.398 137.109 120.014C136.785 119.618 136.623 119.12 136.623 118.52C136.623 117.692 136.935 117.026 137.559 116.522C138.195 116.018 138.981 115.766 139.917 115.766C140.661 115.766 141.321 115.934 141.897 116.27C142.485 116.594 142.935 117.05 143.247 117.638L141.609 118.556C141.297 117.872 140.733 117.53 139.917 117.53C139.545 117.53 139.233 117.614 138.981 117.782C138.729 117.938 138.603 118.172 138.603 118.484Z" fill="#2EC4B6"/>
<rect x="1" y="103" width="158" height="34" rx="17" stroke="#2EC4B6" stroke-width="2"/>
<path d="M204 113.5H190C189.448 113.5 189 113.948 189 114.5V123.5C189 124.052 189.448 124.5 190 124.5H204C204.552 124.5 205 124.052 205 123.5V114.5C205 113.948 204.552 113.5 204 113.5Z" stroke="#2EC4B6" stroke-width="1.5" stroke-linecap="round" stroke-linejoin="round"/>
<path d="M190 124.5H204M188.75 127H205.25C205.94 127 206.5 126.44 206.5 125.75C206.5 125.06 205.94 124.5 205.25 124.5H188.75C188.06 124.5 187.5 125.06 187.5 125.75C187.5 126.44 188.06 127 188.75 127Z" stroke="#2EC4B6" stroke-width="1.5" stroke-linecap="round" stroke-linejoin="round"/>
<path d="M222.73 112.4H224.8V125H222.73V119.546H217.33V125H215.26V112.4H217.33V117.566H222.73V112.4ZM235.509 112.4V114.38H231.963V125H229.893V114.38H226.329V112.4H235.509ZM249.099 112.4V125H247.029V116.018L243.195 122.354H242.943L239.109 116V125H237.039V112.4H239.271L243.069 118.7L246.885 112.4H249.099ZM253.682 123.02H258.812V125H251.612V112.4H253.682V123.02ZM264.038 117.152C265.238 117.152 266.252 117.512 267.08 118.232C267.908 118.94 268.322 119.924 268.322 121.184C268.322 122.444 267.896 123.434 267.044 124.154C266.192 124.874 265.148 125.234 263.912 125.234C262.916 125.234 262.034 125.006 261.266 124.55C260.498 124.082 259.952 123.41 259.628 122.534L261.41 121.508C261.746 122.648 262.58 123.218 263.912 123.218C264.62 123.218 265.184 123.038 265.604 122.678C266.036 122.306 266.252 121.808 266.252 121.184C266.252 120.56 266.042 120.068 265.622 119.708C265.202 119.348 264.644 119.168 263.948 119.168H260.276L260.762 112.4H267.782V114.344H262.67L262.454 117.152H264.038Z" fill="#2EC4B6"/>
<rect x="171" y="103" width="112" height="34" rx="17" stroke="#2EC4B6" stroke-width="2"/>
<path d="M34 164.5H20C19.4477 164.5 19 164.948 19 165.5V174.5C19 175.052 19.4477 175.5 20 175.5H34C34.5523 175.5 35 175.052 35 174.5V165.5C35 164.948 34.5523 164.5 34 164.5Z" stroke="#2EC4B6" stroke-width="1.5" stroke-linecap="round" stroke-linejoin="round"/>
<path d="M20 175.5H34M18.75 178H35.25C35.9404 178 36.5 177.44 36.5 176.75C36.5 176.06 35.9404 175.5 35.25 175.5H18.75C18.0596 175.5 17.5 176.06 17.5 176.75C17.5 177.44 18.0596 178 18.75 178Z" stroke="#2EC4B6" stroke-width="1.5" stroke-linecap="round" stroke-linejoin="round"/>
<path d="M51.218 176.234C49.322 176.234 47.75 175.61 46.502 174.362C45.254 173.102 44.63 171.548 44.63 169.7C44.63 167.852 45.254 166.304 46.502 165.056C47.75 163.796 49.322 163.166 51.218 163.166C52.358 163.166 53.408 163.436 54.368 163.976C55.34 164.516 56.096 165.248 56.636 166.172L54.836 167.216C54.5 166.592 54.008 166.1 53.36 165.74C52.724 165.368 52.01 165.182 51.218 165.182C49.874 165.182 48.782 165.608 47.942 166.46C47.114 167.312 46.7 168.392 46.7 169.7C46.7 171.008 47.114 172.088 47.942 172.94C48.782 173.792 49.874 174.218 51.218 174.218C52.01 174.218 52.73 174.038 53.378 173.678C54.026 173.306 54.512 172.808 54.836 172.184L56.636 173.21C56.108 174.134 55.358 174.872 54.386 175.424C53.426 175.964 52.37 176.234 51.218 176.234ZM62.5497 176.234C61.3377 176.234 60.3057 175.958 59.4537 175.406C58.6137 174.854 58.0257 174.098 57.6897 173.138L59.4717 172.094C59.9757 173.51 61.0197 174.218 62.6037 174.218C63.3837 174.218 63.9657 174.068 64.3497 173.768C64.7457 173.456 64.9437 173.054 64.9437 172.562C64.9437 172.046 64.7337 171.656 64.3137 171.392C63.8937 171.116 63.1497 170.816 62.0817 170.492C61.4817 170.312 60.9957 170.144 60.6237 169.988C60.2517 169.832 59.8557 169.616 59.4357 169.34C59.0277 169.052 58.7217 168.698 58.5177 168.278C58.3137 167.858 58.2117 167.366 58.2117 166.802C58.2117 165.686 58.6077 164.804 59.3997 164.156C60.1917 163.496 61.1457 163.166 62.2617 163.166C63.2697 163.166 64.1517 163.412 64.9077 163.904C65.6637 164.396 66.2457 165.074 66.6537 165.938L64.9077 166.946C64.3797 165.77 63.4977 165.182 62.2617 165.182C61.6617 165.182 61.1817 165.326 60.8217 165.614C60.4617 165.89 60.2817 166.268 60.2817 166.748C60.2817 167.216 60.4617 167.588 60.8217 167.864C61.1937 168.128 61.8597 168.41 62.8197 168.71C63.2997 168.866 63.6477 168.986 63.8637 169.07C64.0917 169.142 64.4037 169.262 64.7997 169.43C65.2077 169.598 65.5137 169.766 65.7177 169.934C65.9217 170.102 66.1377 170.312 66.3657 170.564C66.6057 170.816 66.7737 171.104 66.8697 171.428C66.9657 171.752 67.0137 172.118 67.0137 172.526C67.0137 173.666 66.5997 174.572 65.7717 175.244C64.9557 175.904 63.8817 176.234 62.5497 176.234ZM72.5868 176.234C71.3748 176.234 70.3428 175.958 69.4908 175.406C68.6508 174.854 68.0628 174.098 67.7268 173.138L69.5088 172.094C70.0128 173.51 71.0568 174.218 72.6408 174.218C73.4208 174.218 74.0028 174.068 74.3868 173.768C74.7828 173.456 74.9808 173.054 74.9808 172.562C74.9808 172.046 74.7708 171.656 74.3508 171.392C73.9308 171.116 73.1868 170.816 72.1188 170.492C71.5188 170.312 71.0328 170.144 70.6608 169.988C70.2888 169.832 69.8928 169.616 69.4728 169.34C69.0648 169.052 68.7588 168.698 68.5548 168.278C68.3508 167.858 68.2488 167.366 68.2488 166.802C68.2488 165.686 68.6448 164.804 69.4368 164.156C70.2288 163.496 71.1828 163.166 72.2988 163.166C73.3068 163.166 74.1888 163.412 74.9448 163.904C75.7008 164.396 76.2828 165.074 76.6908 165.938L74.9448 166.946C74.4168 165.77 73.5348 165.182 72.2988 165.182C71.6988 165.182 71.2188 165.326 70.8588 165.614C70.4988 165.89 70.3188 166.268 70.3188 166.748C70.3188 167.216 70.4988 167.588 70.8588 167.864C71.2308 168.128 71.8968 168.41 72.8568 168.71C73.3368 168.866 73.6848 168.986 73.9008 169.07C74.1288 169.142 74.4408 169.262 74.8368 169.43C75.2448 169.598 75.5508 169.766 75.7548 169.934C75.9588 170.102 76.1748 170.312 76.4028 170.564C76.6428 170.816 76.8108 171.104 76.9068 171.428C77.0028 171.752 77.0508 172.118 77.0508 172.526C77.0508 173.666 76.6368 174.572 75.8088 175.244C74.9928 175.904 73.9188 176.234 72.5868 176.234ZM83.6038 168.548C84.5158 168.764 85.2538 169.19 85.8178 169.826C86.3938 170.45 86.6818 171.236 86.6818 172.184C86.6818 173.444 86.2558 174.434 85.4038 175.154C84.5518 175.874 83.5078 176.234 82.2718 176.234C81.3118 176.234 80.4478 176.012 79.6798 175.568C78.9238 175.124 78.3778 174.476 78.0418 173.624L79.8058 172.598C80.1778 173.678 80.9998 174.218 82.2718 174.218C82.9918 174.218 83.5618 174.038 83.9818 173.678C84.4018 173.306 84.6118 172.808 84.6118 172.184C84.6118 171.56 84.4018 171.068 83.9818 170.708C83.5618 170.348 82.9918 170.168 82.2718 170.168H81.8038L80.9758 168.926L83.6938 165.344H78.4198V163.4H86.1598V165.164L83.6038 168.548Z" fill="#2EC4B6"/>
<rect x="1" y="154" width="101" height="34" rx="17" stroke="#2EC4B6" stroke-width="2"/>
<path d="M147 164.5H133C132.448 164.5 132 164.948 132 165.5V174.5C132 175.052 132.448 175.5 133 175.5H147C147.552 175.5 148 175.052 148 174.5V165.5C148 164.948 147.552 164.5 147 164.5Z" stroke="#2EC4B6" stroke-width="1.5" stroke-linecap="round" stroke-linejoin="round"/>
<path d="M133 175.5H147M131.75 178H148.25C148.94 178 149.5 177.44 149.5 176.75C149.5 176.06 148.94 175.5 148.25 175.5H131.75C131.06 175.5 130.5 176.06 130.5 176.75C130.5 177.44 131.06 178 131.75 178Z" stroke="#2EC4B6" stroke-width="1.5" stroke-linecap="round" stroke-linejoin="round"/>
<path d="M161.68 176.234C159.724 176.234 158.374 175.466 157.63 173.93L159.412 172.886C159.82 173.774 160.582 174.218 161.698 174.218C162.418 174.218 162.97 174.044 163.354 173.696C163.75 173.336 163.948 172.832 163.948 172.184V163.4H166.018V172.184C166.018 173.48 165.61 174.482 164.794 175.19C163.978 175.886 162.94 176.234 161.68 176.234ZM175.317 167H177.261V176H175.317V174.704C174.585 175.724 173.535 176.234 172.167 176.234C170.931 176.234 169.875 175.778 168.999 174.866C168.123 173.942 167.685 172.82 167.685 171.5C167.685 170.168 168.123 169.046 168.999 168.134C169.875 167.222 170.931 166.766 172.167 166.766C173.535 166.766 174.585 167.27 175.317 168.278V167ZM170.439 173.57C170.979 174.11 171.657 174.38 172.473 174.38C173.289 174.38 173.967 174.11 174.507 173.57C175.047 173.018 175.317 172.328 175.317 171.5C175.317 170.672 175.047 169.988 174.507 169.448C173.967 168.896 173.289 168.62 172.473 168.62C171.657 168.62 170.979 168.896 170.439 169.448C169.899 169.988 169.629 170.672 169.629 171.5C169.629 172.328 169.899 173.018 170.439 173.57ZM185.629 167H187.753L184.243 176H181.993L178.483 167H180.607L183.127 173.84L185.629 167ZM195.76 167H197.704V176H195.76V174.704C195.028 175.724 193.978 176.234 192.61 176.234C191.374 176.234 190.318 175.778 189.442 174.866C188.566 173.942 188.128 172.82 188.128 171.5C188.128 170.168 188.566 169.046 189.442 168.134C190.318 167.222 191.374 166.766 192.61 166.766C193.978 166.766 195.028 167.27 195.76 168.278V167ZM190.882 173.57C191.422 174.11 192.1 174.38 192.916 174.38C193.732 174.38 194.41 174.11 194.95 173.57C195.49 173.018 195.76 172.328 195.76 171.5C195.76 170.672 195.49 169.988 194.95 169.448C194.41 168.896 193.732 168.62 192.916 168.62C192.1 168.62 191.422 168.896 190.882 169.448C190.342 169.988 190.072 170.672 190.072 171.5C190.072 172.328 190.342 173.018 190.882 173.57ZM201.663 169.484C201.663 169.784 201.825 170.024 202.149 170.204C202.485 170.372 202.887 170.522 203.355 170.654C203.835 170.774 204.315 170.918 204.795 171.086C205.275 171.254 205.677 171.542 206.001 171.95C206.337 172.346 206.505 172.85 206.505 173.462C206.505 174.326 206.169 175.004 205.497 175.496C204.837 175.988 204.003 176.234 202.995 176.234C202.107 176.234 201.345 176.048 200.709 175.676C200.073 175.304 199.611 174.788 199.323 174.128L200.997 173.156C201.309 174.02 201.975 174.452 202.995 174.452C204.015 174.452 204.525 174.116 204.525 173.444C204.525 173.156 204.357 172.922 204.021 172.742C203.697 172.562 203.295 172.412 202.815 172.292C202.347 172.16 201.873 172.01 201.393 171.842C200.913 171.674 200.505 171.398 200.169 171.014C199.845 170.618 199.683 170.12 199.683 169.52C199.683 168.692 199.995 168.026 200.619 167.522C201.255 167.018 202.041 166.766 202.977 166.766C203.721 166.766 204.381 166.934 204.957 167.27C205.545 167.594 205.995 168.05 206.307 168.638L204.669 169.556C204.357 168.872 203.793 168.53 202.977 168.53C202.605 168.53 202.293 168.614 202.041 168.782C201.789 168.938 201.663 169.172 201.663 169.484ZM212.234 176.234C210.878 176.234 209.744 175.778 208.832 174.866C207.932 173.954 207.482 172.832 207.482 171.5C207.482 170.156 207.932 169.034 208.832 168.134C209.744 167.222 210.878 166.766 212.234 166.766C213.11 166.766 213.908 166.976 214.628 167.396C215.348 167.816 215.888 168.38 216.248 169.088L214.574 170.06C214.37 169.628 214.058 169.292 213.638 169.052C213.23 168.8 212.756 168.674 212.216 168.674C211.424 168.674 210.758 168.944 210.218 169.484C209.69 170.024 209.426 170.696 209.426 171.5C209.426 172.304 209.69 172.976 210.218 173.516C210.758 174.056 211.424 174.326 212.216 174.326C212.744 174.326 213.218 174.2 213.638 173.948C214.07 173.696 214.394 173.36 214.61 172.94L216.284 173.894C215.9 174.614 215.348 175.184 214.628 175.604C213.908 176.024 213.11 176.234 212.234 176.234ZM219.685 168.512C220.177 167.396 221.101 166.838 222.457 166.838V168.944C221.713 168.896 221.065 169.076 220.513 169.484C219.961 169.88 219.685 170.54 219.685 171.464V176H217.741V167H219.685V168.512ZM225.73 165.29C225.49 165.53 225.202 165.65 224.866 165.65C224.53 165.65 224.236 165.53 223.984 165.29C223.744 165.038 223.624 164.744 223.624 164.408C223.624 164.072 223.744 163.784 223.984 163.544C224.224 163.292 224.518 163.166 224.866 163.166C225.214 163.166 225.508 163.292 225.748 163.544C225.988 163.784 226.108 164.072 226.108 164.408C226.108 164.744 225.982 165.038 225.73 165.29ZM223.894 176V167H225.838V176H223.894ZM233.189 166.766C234.425 166.766 235.481 167.228 236.357 168.152C237.233 169.064 237.671 170.18 237.671 171.5C237.671 172.832 237.233 173.954 236.357 174.866C235.481 175.778 234.425 176.234 233.189 176.234C231.821 176.234 230.771 175.73 230.039 174.722V179.6H228.095V167H230.039V168.296C230.771 167.276 231.821 166.766 233.189 166.766ZM230.849 173.57C231.389 174.11 232.067 174.38 232.883 174.38C233.699 174.38 234.377 174.11 234.917 173.57C235.457 173.018 235.727 172.328 235.727 171.5C235.727 170.672 235.457 169.988 234.917 169.448C234.377 168.896 233.699 168.62 232.883 168.62C232.067 168.62 231.389 168.896 230.849 169.448C230.309 169.988 230.039 170.672 230.039 171.5C230.039 172.328 230.309 173.018 230.849 173.57ZM244.279 168.872H242.047V173.192C242.047 173.564 242.131 173.834 242.299 174.002C242.467 174.158 242.713 174.248 243.037 174.272C243.373 174.284 243.787 174.278 244.279 174.254V176C242.791 176.18 241.723 176.054 241.075 175.622C240.427 175.178 240.103 174.368 240.103 173.192V168.872H238.447V167H240.103V165.056L242.047 164.48V167H244.279V168.872Z" fill="#2EC4B6"/>
<rect x="114" y="154" width="145" height="34" rx="17" stroke="#2EC4B6" stroke-width="2"/>
<path d="M304 164.5H290C289.448 164.5 289 164.948 289 165.5V174.5C289 175.052 289.448 175.5 290 175.5H304C304.552 175.5 305 175.052 305 174.5V165.5C305 164.948 304.552 164.5 304 164.5Z" stroke="#2EC4B6" stroke-width="1.5" stroke-linecap="round" stroke-linejoin="round"/>
<path d="M290 175.5H304M288.75 178H305.25C305.94 178 306.5 177.44 306.5 176.75C306.5 176.06 305.94 175.5 305.25 175.5H288.75C288.06 175.5 287.5 176.06 287.5 176.75C287.5 177.44 288.06 178 288.75 178Z" stroke="#2EC4B6" stroke-width="1.5" stroke-linecap="round" stroke-linejoin="round"/>
<path d="M317.33 174.02H322.91V176H315.26V163.4H322.82V165.38H317.33V168.656H322.37V170.618H317.33V174.02ZM332.725 176H330.475L328.243 172.922L325.993 176H323.725L327.109 171.374L323.905 167H326.155L328.225 169.844L330.295 167H332.563L329.359 171.392L332.725 176ZM337.628 176.234C336.272 176.234 335.138 175.778 334.226 174.866C333.326 173.954 332.876 172.832 332.876 171.5C332.876 170.156 333.326 169.034 334.226 168.134C335.138 167.222 336.272 166.766 337.628 166.766C338.504 166.766 339.302 166.976 340.022 167.396C340.742 167.816 341.282 168.38 341.642 169.088L339.968 170.06C339.764 169.628 339.452 169.292 339.032 169.052C338.624 168.8 338.15 168.674 337.61 168.674C336.818 168.674 336.152 168.944 335.612 169.484C335.084 170.024 334.82 170.696 334.82 171.5C334.82 172.304 335.084 172.976 335.612 173.516C336.152 174.056 336.818 174.326 337.61 174.326C338.138 174.326 338.612 174.2 339.032 173.948C339.464 173.696 339.788 173.36 340.004 172.94L341.678 173.894C341.294 174.614 340.742 175.184 340.022 175.604C339.302 176.024 338.504 176.234 337.628 176.234ZM344.473 172.328C344.617 173.012 344.947 173.54 345.463 173.912C345.979 174.272 346.609 174.452 347.353 174.452C348.385 174.452 349.159 174.08 349.675 173.336L351.277 174.272C350.389 175.58 349.075 176.234 347.335 176.234C345.871 176.234 344.689 175.79 343.789 174.902C342.889 174.002 342.439 172.868 342.439 171.5C342.439 170.156 342.883 169.034 343.771 168.134C344.659 167.222 345.799 166.766 347.191 166.766C348.511 166.766 349.591 167.228 350.431 168.152C351.283 169.076 351.709 170.198 351.709 171.518C351.709 171.722 351.685 171.992 351.637 172.328H344.473ZM344.455 170.744H349.747C349.615 170.012 349.309 169.46 348.829 169.088C348.361 168.716 347.809 168.53 347.173 168.53C346.453 168.53 345.853 168.728 345.373 169.124C344.893 169.52 344.587 170.06 344.455 170.744ZM353.419 176V162.86H355.363V176H353.419Z" fill="#2EC4B6"/>
<rect x="271" y="154" width="100" height="34" rx="17" stroke="#2EC4B6" stroke-width="2"/>
</svg>
