<svg width="382" height="291" viewBox="0 0 382 291" fill="none" xmlns="http://www.w3.org/2000/svg">
<path d="M27 25L34 18L37 21L30 28L27 25Z" stroke="#2EC4B6" stroke-width="1.5" stroke-linecap="round" stroke-linejoin="round"/>
<path d="M33 19L31.5 11.5L17 8L20.5 22.5L28 24L33 19Z" stroke="#2EC4B6" stroke-width="1.5" stroke-linecap="round" stroke-linejoin="round"/>
<path d="M17 8L24.586 15.586" stroke="#2EC4B6" stroke-width="1.5" stroke-linecap="round" stroke-linejoin="round"/>
<path d="M26 19C27.1046 19 28 18.1046 28 17C28 15.8954 27.1046 15 26 15C24.8954 15 24 15.8954 24 17C24 18.1046 24.8954 19 26 19Z" stroke="#2EC4B6" stroke-width="1.5" stroke-linecap="round" stroke-linejoin="round"/>
<path d="M50.21 10.4C51.938 10.4 53.372 11.006 54.512 12.218C55.664 13.43 56.24 14.924 56.24 16.7C56.24 18.464 55.664 19.958 54.512 21.182C53.372 22.394 51.938 23 50.21 23H45.26V10.4H50.21ZM50.21 21.02C51.398 21.02 52.364 20.612 53.108 19.796C53.864 18.98 54.242 17.948 54.242 16.7C54.242 15.44 53.864 14.408 53.108 13.604C52.364 12.788 51.398 12.38 50.21 12.38H47.33V21.02H50.21ZM59.5312 19.328C59.6752 20.012 60.0052 20.54 60.5212 20.912C61.0372 21.272 61.6672 21.452 62.4112 21.452C63.4432 21.452 64.2172 21.08 64.7332 20.336L66.3352 21.272C65.4472 22.58 64.1332 23.234 62.3932 23.234C60.9292 23.234 59.7472 22.79 58.8472 21.902C57.9472 21.002 57.4972 19.868 57.4972 18.5C57.4972 17.156 57.9412 16.034 58.8292 15.134C59.7172 14.222 60.8572 13.766 62.2492 13.766C63.5692 13.766 64.6492 14.228 65.4892 15.152C66.3412 16.076 66.7672 17.198 66.7672 18.518C66.7672 18.722 66.7432 18.992 66.6952 19.328H59.5312ZM59.5132 17.744H64.8052C64.6732 17.012 64.3672 16.46 63.8872 16.088C63.4192 15.716 62.8672 15.53 62.2312 15.53C61.5112 15.53 60.9112 15.728 60.4312 16.124C59.9512 16.52 59.6452 17.06 59.5132 17.744ZM69.8722 16.484C69.8722 16.784 70.0342 17.024 70.3582 17.204C70.6942 17.372 71.0962 17.522 71.5642 17.654C72.0442 17.774 72.5242 17.918 73.0042 18.086C73.4842 18.254 73.8862 18.542 74.2102 18.95C74.5462 19.346 74.7142 19.85 74.7142 20.462C74.7142 21.326 74.3782 22.004 73.7062 22.496C73.0462 22.988 72.2122 23.234 71.2042 23.234C70.3162 23.234 69.5542 23.048 68.9182 22.676C68.2822 22.304 67.8202 21.788 67.5322 21.128L69.2062 20.156C69.5182 21.02 70.1842 21.452 71.2042 21.452C72.2242 21.452 72.7342 21.116 72.7342 20.444C72.7342 20.156 72.5662 19.922 72.2302 19.742C71.9062 19.562 71.5042 19.412 71.0242 19.292C70.5562 19.16 70.0822 19.01 69.6022 18.842C69.1222 18.674 68.7142 18.398 68.3782 18.014C68.0542 17.618 67.8922 17.12 67.8922 16.52C67.8922 15.692 68.2042 15.026 68.8282 14.522C69.4642 14.018 70.2502 13.766 71.1862 13.766C71.9302 13.766 72.5902 13.934 73.1662 14.27C73.7542 14.594 74.2042 15.05 74.5162 15.638L72.8782 16.556C72.5662 15.872 72.0022 15.53 71.1862 15.53C70.8142 15.53 70.5022 15.614 70.2502 15.782C69.9982 15.938 69.8722 16.172 69.8722 16.484ZM78.1536 12.29C77.9136 12.53 77.6256 12.65 77.2896 12.65C76.9536 12.65 76.6596 12.53 76.4076 12.29C76.1676 12.038 76.0476 11.744 76.0476 11.408C76.0476 11.072 76.1676 10.784 76.4076 10.544C76.6476 10.292 76.9416 10.166 77.2896 10.166C77.6376 10.166 77.9316 10.292 78.1716 10.544C78.4116 10.784 78.5316 11.072 78.5316 11.408C78.5316 11.744 78.4056 12.038 78.1536 12.29ZM76.3176 23V14H78.2616V23H76.3176ZM87.6828 14H89.5908V22.586C89.5908 23.954 89.1408 25.004 88.2408 25.736C87.3408 26.468 86.2488 26.834 84.9648 26.834C82.8888 26.834 81.4668 26.108 80.6988 24.656L82.3728 23.684C82.8408 24.608 83.7168 25.07 85.0008 25.07C85.8408 25.07 86.4948 24.848 86.9628 24.404C87.4428 23.972 87.6828 23.366 87.6828 22.586V21.488C86.9508 22.532 85.9068 23.054 84.5508 23.054C83.2788 23.054 82.2048 22.604 81.3288 21.704C80.4528 20.792 80.0148 19.694 80.0148 18.41C80.0148 17.126 80.4528 16.034 81.3288 15.134C82.2048 14.222 83.2788 13.766 84.5508 13.766C85.9068 13.766 86.9508 14.288 87.6828 15.332V14ZM82.7688 20.426C83.3208 20.966 84.0048 21.236 84.8208 21.236C85.6368 21.236 86.3148 20.966 86.8548 20.426C87.4068 19.886 87.6828 19.214 87.6828 18.41C87.6828 17.606 87.4068 16.934 86.8548 16.394C86.3148 15.854 85.6368 15.584 84.8208 15.584C84.0048 15.584 83.3208 15.854 82.7688 16.394C82.2288 16.934 81.9588 17.606 81.9588 18.41C81.9588 19.214 82.2288 19.886 82.7688 20.426ZM96.5907 13.766C97.6227 13.766 98.4567 14.096 99.0927 14.756C99.7287 15.416 100.047 16.322 100.047 17.474V23H98.1027V17.672C98.1027 17 97.9227 16.484 97.5627 16.124C97.2027 15.764 96.7107 15.584 96.0867 15.584C95.4027 15.584 94.8507 15.8 94.4307 16.232C94.0107 16.652 93.8007 17.3 93.8007 18.176V23H91.8567V14H93.8007V15.152C94.3887 14.228 95.3187 13.766 96.5907 13.766ZM111.662 15.872H109.43V20.192C109.43 20.564 109.514 20.834 109.682 21.002C109.85 21.158 110.096 21.248 110.42 21.272C110.756 21.284 111.17 21.278 111.662 21.254V23C110.174 23.18 109.106 23.054 108.458 22.622C107.81 22.178 107.486 21.368 107.486 20.192V15.872H105.83V14H107.486V12.056L109.43 11.48V14H111.662V15.872ZM118.159 13.766C119.191 13.766 120.025 14.096 120.661 14.756C121.297 15.416 121.615 16.322 121.615 17.474V23H119.671V17.672C119.671 17 119.491 16.484 119.131 16.124C118.771 15.764 118.279 15.584 117.655 15.584C116.971 15.584 116.419 15.8 115.999 16.232C115.579 16.652 115.369 17.3 115.369 18.176V23H113.425V10.4H115.369V15.152C115.957 14.228 116.887 13.766 118.159 13.766ZM125.544 12.29C125.304 12.53 125.016 12.65 124.68 12.65C124.344 12.65 124.05 12.53 123.798 12.29C123.558 12.038 123.438 11.744 123.438 11.408C123.438 11.072 123.558 10.784 123.798 10.544C124.038 10.292 124.332 10.166 124.68 10.166C125.028 10.166 125.322 10.292 125.562 10.544C125.802 10.784 125.922 11.072 125.922 11.408C125.922 11.744 125.796 12.038 125.544 12.29ZM123.708 23V14H125.652V23H123.708ZM132.643 13.766C133.675 13.766 134.509 14.096 135.145 14.756C135.781 15.416 136.099 16.322 136.099 17.474V23H134.155V17.672C134.155 17 133.975 16.484 133.615 16.124C133.255 15.764 132.763 15.584 132.139 15.584C131.455 15.584 130.903 15.8 130.483 16.232C130.063 16.652 129.853 17.3 129.853 18.176V23H127.909V14H129.853V15.152C130.441 14.228 131.371 13.766 132.643 13.766ZM146.149 23H143.827L140.137 18.842V23H138.193V10.4H140.137V17.978L143.629 14H146.005L142.045 18.41L146.149 23ZM149.292 12.29C149.052 12.53 148.764 12.65 148.428 12.65C148.092 12.65 147.798 12.53 147.546 12.29C147.306 12.038 147.186 11.744 147.186 11.408C147.186 11.072 147.306 10.784 147.546 10.544C147.786 10.292 148.08 10.166 148.428 10.166C148.776 10.166 149.07 10.292 149.31 10.544C149.55 10.784 149.67 11.072 149.67 11.408C149.67 11.744 149.544 12.038 149.292 12.29ZM147.456 23V14H149.4V23H147.456ZM156.391 13.766C157.423 13.766 158.257 14.096 158.893 14.756C159.529 15.416 159.847 16.322 159.847 17.474V23H157.903V17.672C157.903 17 157.723 16.484 157.363 16.124C157.003 15.764 156.511 15.584 155.887 15.584C155.203 15.584 154.651 15.8 154.231 16.232C153.811 16.652 153.601 17.3 153.601 18.176V23H151.657V14H153.601V15.152C154.189 14.228 155.119 13.766 156.391 13.766ZM169.105 14H171.013V22.586C171.013 23.954 170.563 25.004 169.663 25.736C168.763 26.468 167.671 26.834 166.387 26.834C164.311 26.834 162.889 26.108 162.121 24.656L163.795 23.684C164.263 24.608 165.139 25.07 166.423 25.07C167.263 25.07 167.917 24.848 168.385 24.404C168.865 23.972 169.105 23.366 169.105 22.586V21.488C168.373 22.532 167.329 23.054 165.973 23.054C164.701 23.054 163.627 22.604 162.751 21.704C161.875 20.792 161.437 19.694 161.437 18.41C161.437 17.126 161.875 16.034 162.751 15.134C163.627 14.222 164.701 13.766 165.973 13.766C167.329 13.766 168.373 14.288 169.105 15.332V14ZM164.191 20.426C164.743 20.966 165.427 21.236 166.243 21.236C167.059 21.236 167.737 20.966 168.277 20.426C168.829 19.886 169.105 19.214 169.105 18.41C169.105 17.606 168.829 16.934 168.277 16.394C167.737 15.854 167.059 15.584 166.243 15.584C165.427 15.584 164.743 15.854 164.191 16.394C163.651 16.934 163.381 17.606 163.381 18.41C163.381 19.214 163.651 19.886 164.191 20.426Z" fill="#2EC4B6"/>
<rect x="1" y="1" width="186" height="34" rx="17" stroke="#2EC4B6" stroke-width="2"/>
<path d="M225 25L232 18L235 21L228 28L225 25Z" stroke="#2EC4B6" stroke-width="1.5" stroke-linecap="round" stroke-linejoin="round"/>
<path d="M231 19L229.5 11.5L215 8L218.5 22.5L226 24L231 19Z" stroke="#2EC4B6" stroke-width="1.5" stroke-linecap="round" stroke-linejoin="round"/>
<path d="M215 8L222.586 15.586" stroke="#2EC4B6" stroke-width="1.5" stroke-linecap="round" stroke-linejoin="round"/>
<path d="M224 19C225.105 19 226 18.1046 226 17C226 15.8954 225.105 15 224 15C222.895 15 222 15.8954 222 17C222 18.1046 222.895 19 224 19Z" stroke="#2EC4B6" stroke-width="1.5" stroke-linecap="round" stroke-linejoin="round"/>
<path d="M251.342 22.046C250.454 22.838 249.308 23.234 247.904 23.234C246.5 23.234 245.354 22.838 244.466 22.046C243.578 21.242 243.134 20.168 243.134 18.824V10.4H245.204V18.698C245.204 19.466 245.426 20.078 245.87 20.534C246.326 20.99 247.004 21.218 247.904 21.218C248.804 21.218 249.476 20.99 249.92 20.534C250.376 20.078 250.604 19.466 250.604 18.698V10.4H252.674V18.824C252.674 20.168 252.23 21.242 251.342 22.046ZM256.569 16.484C256.569 16.784 256.731 17.024 257.055 17.204C257.391 17.372 257.793 17.522 258.261 17.654C258.741 17.774 259.221 17.918 259.701 18.086C260.181 18.254 260.583 18.542 260.907 18.95C261.243 19.346 261.411 19.85 261.411 20.462C261.411 21.326 261.075 22.004 260.403 22.496C259.743 22.988 258.909 23.234 257.901 23.234C257.013 23.234 256.251 23.048 255.615 22.676C254.979 22.304 254.517 21.788 254.229 21.128L255.903 20.156C256.215 21.02 256.881 21.452 257.901 21.452C258.921 21.452 259.431 21.116 259.431 20.444C259.431 20.156 259.263 19.922 258.927 19.742C258.603 19.562 258.201 19.412 257.721 19.292C257.253 19.16 256.779 19.01 256.299 18.842C255.819 18.674 255.411 18.398 255.075 18.014C254.751 17.618 254.589 17.12 254.589 16.52C254.589 15.692 254.901 15.026 255.525 14.522C256.161 14.018 256.947 13.766 257.883 13.766C258.627 13.766 259.287 13.934 259.863 14.27C260.451 14.594 260.901 15.05 261.213 15.638L259.575 16.556C259.263 15.872 258.699 15.53 257.883 15.53C257.511 15.53 257.199 15.614 256.947 15.782C256.695 15.938 256.569 16.172 256.569 16.484ZM264.422 19.328C264.566 20.012 264.896 20.54 265.412 20.912C265.928 21.272 266.558 21.452 267.302 21.452C268.334 21.452 269.108 21.08 269.624 20.336L271.226 21.272C270.338 22.58 269.024 23.234 267.284 23.234C265.82 23.234 264.638 22.79 263.738 21.902C262.838 21.002 262.388 19.868 262.388 18.5C262.388 17.156 262.832 16.034 263.72 15.134C264.608 14.222 265.748 13.766 267.14 13.766C268.46 13.766 269.54 14.228 270.38 15.152C271.232 16.076 271.658 17.198 271.658 18.518C271.658 18.722 271.634 18.992 271.586 19.328H264.422ZM264.404 17.744H269.696C269.564 17.012 269.258 16.46 268.778 16.088C268.31 15.716 267.758 15.53 267.122 15.53C266.402 15.53 265.802 15.728 265.322 16.124C264.842 16.52 264.536 17.06 264.404 17.744ZM275.312 15.512C275.804 14.396 276.728 13.838 278.084 13.838V15.944C277.34 15.896 276.692 16.076 276.14 16.484C275.588 16.88 275.312 17.54 275.312 18.464V23H273.368V14H275.312V15.512ZM285.965 15.512C286.457 14.396 287.381 13.838 288.737 13.838V15.944C287.993 15.896 287.345 16.076 286.793 16.484C286.241 16.88 285.965 17.54 285.965 18.464V23H284.021V14H285.965V15.512ZM291.281 19.328C291.425 20.012 291.755 20.54 292.271 20.912C292.787 21.272 293.417 21.452 294.161 21.452C295.193 21.452 295.967 21.08 296.483 20.336L298.085 21.272C297.197 22.58 295.883 23.234 294.143 23.234C292.679 23.234 291.497 22.79 290.597 21.902C289.697 21.002 289.247 19.868 289.247 18.5C289.247 17.156 289.691 16.034 290.579 15.134C291.467 14.222 292.607 13.766 293.999 13.766C295.319 13.766 296.399 14.228 297.239 15.152C298.091 16.076 298.517 17.198 298.517 18.518C298.517 18.722 298.493 18.992 298.445 19.328H291.281ZM291.263 17.744H296.555C296.423 17.012 296.117 16.46 295.637 16.088C295.169 15.716 294.617 15.53 293.981 15.53C293.261 15.53 292.661 15.728 292.181 16.124C291.701 16.52 291.395 17.06 291.263 17.744ZM301.622 16.484C301.622 16.784 301.784 17.024 302.108 17.204C302.444 17.372 302.846 17.522 303.314 17.654C303.794 17.774 304.274 17.918 304.754 18.086C305.234 18.254 305.636 18.542 305.96 18.95C306.296 19.346 306.464 19.85 306.464 20.462C306.464 21.326 306.128 22.004 305.456 22.496C304.796 22.988 303.962 23.234 302.954 23.234C302.066 23.234 301.304 23.048 300.668 22.676C300.032 22.304 299.57 21.788 299.282 21.128L300.956 20.156C301.268 21.02 301.934 21.452 302.954 21.452C303.974 21.452 304.484 21.116 304.484 20.444C304.484 20.156 304.316 19.922 303.98 19.742C303.656 19.562 303.254 19.412 302.774 19.292C302.306 19.16 301.832 19.01 301.352 18.842C300.872 18.674 300.464 18.398 300.128 18.014C299.804 17.618 299.642 17.12 299.642 16.52C299.642 15.692 299.954 15.026 300.578 14.522C301.214 14.018 302 13.766 302.936 13.766C303.68 13.766 304.34 13.934 304.916 14.27C305.504 14.594 305.954 15.05 306.266 15.638L304.628 16.556C304.316 15.872 303.752 15.53 302.936 15.53C302.564 15.53 302.252 15.614 302 15.782C301.748 15.938 301.622 16.172 301.622 16.484ZM309.475 19.328C309.619 20.012 309.949 20.54 310.465 20.912C310.981 21.272 311.611 21.452 312.355 21.452C313.387 21.452 314.161 21.08 314.677 20.336L316.279 21.272C315.391 22.58 314.077 23.234 312.337 23.234C310.873 23.234 309.691 22.79 308.791 21.902C307.891 21.002 307.441 19.868 307.441 18.5C307.441 17.156 307.885 16.034 308.773 15.134C309.661 14.222 310.801 13.766 312.193 13.766C313.513 13.766 314.593 14.228 315.433 15.152C316.285 16.076 316.711 17.198 316.711 18.518C316.711 18.722 316.687 18.992 316.639 19.328H309.475ZM309.457 17.744H314.749C314.617 17.012 314.311 16.46 313.831 16.088C313.363 15.716 312.811 15.53 312.175 15.53C311.455 15.53 310.855 15.728 310.375 16.124C309.895 16.52 309.589 17.06 309.457 17.744ZM325.496 14H327.44V23H325.496V21.704C324.764 22.724 323.714 23.234 322.346 23.234C321.11 23.234 320.054 22.778 319.178 21.866C318.302 20.942 317.864 19.82 317.864 18.5C317.864 17.168 318.302 16.046 319.178 15.134C320.054 14.222 321.11 13.766 322.346 13.766C323.714 13.766 324.764 14.27 325.496 15.278V14ZM320.618 20.57C321.158 21.11 321.836 21.38 322.652 21.38C323.468 21.38 324.146 21.11 324.686 20.57C325.226 20.018 325.496 19.328 325.496 18.5C325.496 17.672 325.226 16.988 324.686 16.448C324.146 15.896 323.468 15.62 322.652 15.62C321.836 15.62 321.158 15.896 320.618 16.448C320.078 16.988 319.808 17.672 319.808 18.5C319.808 19.328 320.078 20.018 320.618 20.57ZM331.65 15.512C332.142 14.396 333.066 13.838 334.422 13.838V15.944C333.678 15.896 333.03 16.076 332.478 16.484C331.926 16.88 331.65 17.54 331.65 18.464V23H329.706V14H331.65V15.512ZM339.685 23.234C338.329 23.234 337.195 22.778 336.283 21.866C335.383 20.954 334.933 19.832 334.933 18.5C334.933 17.156 335.383 16.034 336.283 15.134C337.195 14.222 338.329 13.766 339.685 13.766C340.561 13.766 341.359 13.976 342.079 14.396C342.799 14.816 343.339 15.38 343.699 16.088L342.025 17.06C341.821 16.628 341.509 16.292 341.089 16.052C340.681 15.8 340.207 15.674 339.667 15.674C338.875 15.674 338.209 15.944 337.669 16.484C337.141 17.024 336.877 17.696 336.877 18.5C336.877 19.304 337.141 19.976 337.669 20.516C338.209 21.056 338.875 21.326 339.667 21.326C340.195 21.326 340.669 21.2 341.089 20.948C341.521 20.696 341.845 20.36 342.061 19.94L343.735 20.894C343.351 21.614 342.799 22.184 342.079 22.604C341.359 23.024 340.561 23.234 339.685 23.234ZM349.874 13.766C350.906 13.766 351.74 14.096 352.376 14.756C353.012 15.416 353.33 16.322 353.33 17.474V23H351.386V17.672C351.386 17 351.206 16.484 350.846 16.124C350.486 15.764 349.994 15.584 349.37 15.584C348.686 15.584 348.134 15.8 347.714 16.232C347.294 16.652 347.084 17.3 347.084 18.176V23H345.14V10.4H347.084V15.152C347.672 14.228 348.602 13.766 349.874 13.766Z" fill="#2EC4B6"/>
<rect x="199" y="1" width="170" height="34" rx="17" stroke="#2EC4B6" stroke-width="2"/>
<path d="M27 76L34 69L37 72L30 79L27 76Z" stroke="#2EC4B6" stroke-width="1.5" stroke-linecap="round" stroke-linejoin="round"/>
<path d="M33 70L31.5 62.5L17 59L20.5 73.5L28 75L33 70Z" stroke="#2EC4B6" stroke-width="1.5" stroke-linecap="round" stroke-linejoin="round"/>
<path d="M17 59L24.586 66.586" stroke="#2EC4B6" stroke-width="1.5" stroke-linecap="round" stroke-linejoin="round"/>
<path d="M26 70C27.1046 70 28 69.1046 28 68C28 66.8954 27.1046 66 26 66C24.8954 66 24 66.8954 24 68C24 69.1046 24.8954 70 26 70Z" stroke="#2EC4B6" stroke-width="1.5" stroke-linecap="round" stroke-linejoin="round"/>
<path d="M49.904 61.4C51.092 61.4 52.082 61.796 52.874 62.588C53.678 63.38 54.08 64.364 54.08 65.54C54.08 66.704 53.678 67.688 52.874 68.492C52.082 69.284 51.092 69.68 49.904 69.68H47.33V74H45.26V61.4H49.904ZM49.904 67.736C50.516 67.736 51.02 67.532 51.416 67.124C51.812 66.704 52.01 66.176 52.01 65.54C52.01 64.904 51.812 64.382 51.416 63.974C51.02 63.554 50.516 63.344 49.904 63.344H47.33V67.736H49.904ZM57.5194 66.512C58.0114 65.396 58.9354 64.838 60.2914 64.838V66.944C59.5474 66.896 58.8994 67.076 58.3474 67.484C57.7954 67.88 57.5194 68.54 57.5194 69.464V74H55.5754V65H57.5194V66.512ZM65.5539 74.234C64.2339 74.234 63.1119 73.778 62.1879 72.866C61.2639 71.954 60.8019 70.832 60.8019 69.5C60.8019 68.168 61.2639 67.046 62.1879 66.134C63.1119 65.222 64.2339 64.766 65.5539 64.766C66.8859 64.766 68.0079 65.222 68.9199 66.134C69.8439 67.046 70.3059 68.168 70.3059 69.5C70.3059 70.832 69.8439 71.954 68.9199 72.866C68.0079 73.778 66.8859 74.234 65.5539 74.234ZM63.5559 71.534C64.0959 72.074 64.7619 72.344 65.5539 72.344C66.3459 72.344 67.0119 72.074 67.5519 71.534C68.0919 70.994 68.3619 70.316 68.3619 69.5C68.3619 68.684 68.0919 68.006 67.5519 67.466C67.0119 66.926 66.3459 66.656 65.5539 66.656C64.7619 66.656 64.0959 66.926 63.5559 67.466C63.0159 68.006 62.7459 68.684 62.7459 69.5C62.7459 70.316 63.0159 70.994 63.5559 71.534ZM76.9099 66.872H74.6779V71.192C74.6779 71.564 74.7619 71.834 74.9299 72.002C75.0979 72.158 75.3439 72.248 75.6679 72.272C76.0039 72.284 76.4179 72.278 76.9099 72.254V74C75.4219 74.18 74.3539 74.054 73.7059 73.622C73.0579 73.178 72.7339 72.368 72.7339 71.192V66.872H71.0779V65H72.7339V63.056L74.6779 62.48V65H76.9099V66.872ZM82.5519 74.234C81.2319 74.234 80.1099 73.778 79.1859 72.866C78.2619 71.954 77.7999 70.832 77.7999 69.5C77.7999 68.168 78.2619 67.046 79.1859 66.134C80.1099 65.222 81.2319 64.766 82.5519 64.766C83.8839 64.766 85.0059 65.222 85.9179 66.134C86.8419 67.046 87.3039 68.168 87.3039 69.5C87.3039 70.832 86.8419 71.954 85.9179 72.866C85.0059 73.778 83.8839 74.234 82.5519 74.234ZM80.5539 71.534C81.0939 72.074 81.7599 72.344 82.5519 72.344C83.3439 72.344 84.0099 72.074 84.5499 71.534C85.0899 70.994 85.3599 70.316 85.3599 69.5C85.3599 68.684 85.0899 68.006 84.5499 67.466C84.0099 66.926 83.3439 66.656 82.5519 66.656C81.7599 66.656 81.0939 66.926 80.5539 67.466C80.0139 68.006 79.7439 68.684 79.7439 69.5C79.7439 70.316 80.0139 70.994 80.5539 71.534ZM93.908 66.872H91.676V71.192C91.676 71.564 91.76 71.834 91.928 72.002C92.096 72.158 92.342 72.248 92.666 72.272C93.002 72.284 93.416 72.278 93.908 72.254V74C92.42 74.18 91.352 74.054 90.704 73.622C90.056 73.178 89.732 72.368 89.732 71.192V66.872H88.076V65H89.732V63.056L91.676 62.48V65H93.908V66.872ZM97.5071 63.29C97.2671 63.53 96.9791 63.65 96.6431 63.65C96.3071 63.65 96.0131 63.53 95.7611 63.29C95.5211 63.038 95.4011 62.744 95.4011 62.408C95.4011 62.072 95.5211 61.784 95.7611 61.544C96.0011 61.292 96.2951 61.166 96.6431 61.166C96.9911 61.166 97.2851 61.292 97.5251 61.544C97.7651 61.784 97.8851 62.072 97.8851 62.408C97.8851 62.744 97.7591 63.038 97.5071 63.29ZM95.6711 74V65H97.6151V74H95.6711ZM104.966 64.766C106.202 64.766 107.258 65.228 108.134 66.152C109.01 67.064 109.448 68.18 109.448 69.5C109.448 70.832 109.01 71.954 108.134 72.866C107.258 73.778 106.202 74.234 104.966 74.234C103.598 74.234 102.548 73.73 101.816 72.722V77.6H99.8723V65H101.816V66.296C102.548 65.276 103.598 64.766 104.966 64.766ZM102.626 71.57C103.166 72.11 103.844 72.38 104.66 72.38C105.476 72.38 106.154 72.11 106.694 71.57C107.234 71.018 107.504 70.328 107.504 69.5C107.504 68.672 107.234 67.988 106.694 67.448C106.154 66.896 105.476 66.62 104.66 66.62C103.844 66.62 103.166 66.896 102.626 67.448C102.086 67.988 101.816 68.672 101.816 69.5C101.816 70.328 102.086 71.018 102.626 71.57ZM118.338 65H120.282V74H118.338V72.704C117.606 73.724 116.556 74.234 115.188 74.234C113.952 74.234 112.896 73.778 112.02 72.866C111.144 71.942 110.706 70.82 110.706 69.5C110.706 68.168 111.144 67.046 112.02 66.134C112.896 65.222 113.952 64.766 115.188 64.766C116.556 64.766 117.606 65.27 118.338 66.278V65ZM113.46 71.57C114 72.11 114.678 72.38 115.494 72.38C116.31 72.38 116.988 72.11 117.528 71.57C118.068 71.018 118.338 70.328 118.338 69.5C118.338 68.672 118.068 67.988 117.528 67.448C116.988 66.896 116.31 66.62 115.494 66.62C114.678 66.62 114 66.896 113.46 67.448C112.92 67.988 112.65 68.672 112.65 69.5C112.65 70.328 112.92 71.018 113.46 71.57ZM129.676 61.4H131.62V74H129.676V72.704C128.944 73.724 127.894 74.234 126.526 74.234C125.29 74.234 124.234 73.778 123.358 72.866C122.482 71.942 122.044 70.82 122.044 69.5C122.044 68.168 122.482 67.046 123.358 66.134C124.234 65.222 125.29 64.766 126.526 64.766C127.894 64.766 128.944 65.27 129.676 66.278V61.4ZM124.798 71.57C125.338 72.11 126.016 72.38 126.832 72.38C127.648 72.38 128.326 72.11 128.866 71.57C129.406 71.018 129.676 70.328 129.676 69.5C129.676 68.672 129.406 67.988 128.866 67.448C128.326 66.896 127.648 66.62 126.832 66.62C126.016 66.62 125.338 66.896 124.798 67.448C124.258 67.988 123.988 68.672 123.988 69.5C123.988 70.328 124.258 71.018 124.798 71.57ZM138.134 74.234C136.814 74.234 135.692 73.778 134.768 72.866C133.844 71.954 133.382 70.832 133.382 69.5C133.382 68.168 133.844 67.046 134.768 66.134C135.692 65.222 136.814 64.766 138.134 64.766C139.466 64.766 140.588 65.222 141.5 66.134C142.424 67.046 142.886 68.168 142.886 69.5C142.886 70.832 142.424 71.954 141.5 72.866C140.588 73.778 139.466 74.234 138.134 74.234ZM136.136 71.534C136.676 72.074 137.342 72.344 138.134 72.344C138.926 72.344 139.592 72.074 140.132 71.534C140.672 70.994 140.942 70.316 140.942 69.5C140.942 68.684 140.672 68.006 140.132 67.466C139.592 66.926 138.926 66.656 138.134 66.656C137.342 66.656 136.676 66.926 136.136 67.466C135.596 68.006 135.326 68.684 135.326 69.5C135.326 70.316 135.596 70.994 136.136 71.534Z" fill="#2EC4B6"/>
<rect x="1" y="52" width="157" height="34" rx="17" stroke="#2EC4B6" stroke-width="2"/>
<path d="M196 76L203 69L206 72L199 79L196 76Z" stroke="#2EC4B6" stroke-width="1.5" stroke-linecap="round" stroke-linejoin="round"/>
<path d="M202 70L200.5 62.5L186 59L189.5 73.5L197 75L202 70Z" stroke="#2EC4B6" stroke-width="1.5" stroke-linecap="round" stroke-linejoin="round"/>
<path d="M186 59L193.586 66.586" stroke="#2EC4B6" stroke-width="1.5" stroke-linecap="round" stroke-linejoin="round"/>
<path d="M195 70C196.105 70 197 69.1046 197 68C197 66.8954 196.105 66 195 66C193.895 66 193 66.8954 193 68C193 69.1046 193.895 70 195 70Z" stroke="#2EC4B6" stroke-width="1.5" stroke-linecap="round" stroke-linejoin="round"/>
<path d="M219.21 61.4C220.938 61.4 222.372 62.006 223.512 63.218C224.664 64.43 225.24 65.924 225.24 67.7C225.24 69.464 224.664 70.958 223.512 72.182C222.372 73.394 220.938 74 219.21 74H214.26V61.4H219.21ZM219.21 72.02C220.398 72.02 221.364 71.612 222.108 70.796C222.864 69.98 223.242 68.948 223.242 67.7C223.242 66.44 222.864 65.408 222.108 64.604C221.364 63.788 220.398 63.38 219.21 63.38H216.33V72.02H219.21ZM228.531 70.328C228.675 71.012 229.005 71.54 229.521 71.912C230.037 72.272 230.667 72.452 231.411 72.452C232.443 72.452 233.217 72.08 233.733 71.336L235.335 72.272C234.447 73.58 233.133 74.234 231.393 74.234C229.929 74.234 228.747 73.79 227.847 72.902C226.947 72.002 226.497 70.868 226.497 69.5C226.497 68.156 226.941 67.034 227.829 66.134C228.717 65.222 229.857 64.766 231.249 64.766C232.569 64.766 233.649 65.228 234.489 66.152C235.341 67.076 235.767 68.198 235.767 69.518C235.767 69.722 235.743 69.992 235.695 70.328H228.531ZM228.513 68.744H233.805C233.673 68.012 233.367 67.46 232.887 67.088C232.419 66.716 231.867 66.53 231.231 66.53C230.511 66.53 229.911 66.728 229.431 67.124C228.951 67.52 228.645 68.06 228.513 68.744ZM238.872 67.484C238.872 67.784 239.034 68.024 239.358 68.204C239.694 68.372 240.096 68.522 240.564 68.654C241.044 68.774 241.524 68.918 242.004 69.086C242.484 69.254 242.886 69.542 243.21 69.95C243.546 70.346 243.714 70.85 243.714 71.462C243.714 72.326 243.378 73.004 242.706 73.496C242.046 73.988 241.212 74.234 240.204 74.234C239.316 74.234 238.554 74.048 237.918 73.676C237.282 73.304 236.82 72.788 236.532 72.128L238.206 71.156C238.518 72.02 239.184 72.452 240.204 72.452C241.224 72.452 241.734 72.116 241.734 71.444C241.734 71.156 241.566 70.922 241.23 70.742C240.906 70.562 240.504 70.412 240.024 70.292C239.556 70.16 239.082 70.01 238.602 69.842C238.122 69.674 237.714 69.398 237.378 69.014C237.054 68.618 236.892 68.12 236.892 67.52C236.892 66.692 237.204 66.026 237.828 65.522C238.464 65.018 239.25 64.766 240.186 64.766C240.93 64.766 241.59 64.934 242.166 65.27C242.754 65.594 243.204 66.05 243.516 66.638L241.878 67.556C241.566 66.872 241.002 66.53 240.186 66.53C239.814 66.53 239.502 66.614 239.25 66.782C238.998 66.938 238.872 67.172 238.872 67.484ZM247.154 63.29C246.914 63.53 246.626 63.65 246.29 63.65C245.954 63.65 245.66 63.53 245.408 63.29C245.168 63.038 245.048 62.744 245.048 62.408C245.048 62.072 245.168 61.784 245.408 61.544C245.648 61.292 245.942 61.166 246.29 61.166C246.638 61.166 246.932 61.292 247.172 61.544C247.412 61.784 247.532 62.072 247.532 62.408C247.532 62.744 247.406 63.038 247.154 63.29ZM245.318 74V65H247.262V74H245.318ZM256.683 65H258.591V73.586C258.591 74.954 258.141 76.004 257.241 76.736C256.341 77.468 255.249 77.834 253.965 77.834C251.889 77.834 250.467 77.108 249.699 75.656L251.373 74.684C251.841 75.608 252.717 76.07 254.001 76.07C254.841 76.07 255.495 75.848 255.963 75.404C256.443 74.972 256.683 74.366 256.683 73.586V72.488C255.951 73.532 254.907 74.054 253.551 74.054C252.279 74.054 251.205 73.604 250.329 72.704C249.453 71.792 249.015 70.694 249.015 69.41C249.015 68.126 249.453 67.034 250.329 66.134C251.205 65.222 252.279 64.766 253.551 64.766C254.907 64.766 255.951 65.288 256.683 66.332V65ZM251.769 71.426C252.321 71.966 253.005 72.236 253.821 72.236C254.637 72.236 255.315 71.966 255.855 71.426C256.407 70.886 256.683 70.214 256.683 69.41C256.683 68.606 256.407 67.934 255.855 67.394C255.315 66.854 254.637 66.584 253.821 66.584C253.005 66.584 252.321 66.854 251.769 67.394C251.229 67.934 250.959 68.606 250.959 69.41C250.959 70.214 251.229 70.886 251.769 71.426ZM265.591 64.766C266.623 64.766 267.457 65.096 268.093 65.756C268.729 66.416 269.047 67.322 269.047 68.474V74H267.103V68.672C267.103 68 266.923 67.484 266.563 67.124C266.203 66.764 265.711 66.584 265.087 66.584C264.403 66.584 263.851 66.8 263.431 67.232C263.011 67.652 262.801 68.3 262.801 69.176V74H260.857V65H262.801V66.152C263.389 65.228 264.319 64.766 265.591 64.766ZM277.386 67.484C277.386 67.784 277.548 68.024 277.872 68.204C278.208 68.372 278.61 68.522 279.078 68.654C279.558 68.774 280.038 68.918 280.518 69.086C280.998 69.254 281.4 69.542 281.724 69.95C282.06 70.346 282.228 70.85 282.228 71.462C282.228 72.326 281.892 73.004 281.22 73.496C280.56 73.988 279.726 74.234 278.718 74.234C277.83 74.234 277.068 74.048 276.432 73.676C275.796 73.304 275.334 72.788 275.046 72.128L276.72 71.156C277.032 72.02 277.698 72.452 278.718 72.452C279.738 72.452 280.248 72.116 280.248 71.444C280.248 71.156 280.08 70.922 279.744 70.742C279.42 70.562 279.018 70.412 278.538 70.292C278.07 70.16 277.596 70.01 277.116 69.842C276.636 69.674 276.228 69.398 275.892 69.014C275.568 68.618 275.406 68.12 275.406 67.52C275.406 66.692 275.718 66.026 276.342 65.522C276.978 65.018 277.764 64.766 278.7 64.766C279.444 64.766 280.104 64.934 280.68 65.27C281.268 65.594 281.718 66.05 282.03 66.638L280.392 67.556C280.08 66.872 279.516 66.53 278.7 66.53C278.328 66.53 278.016 66.614 277.764 66.782C277.512 66.938 277.386 67.172 277.386 67.484ZM289.528 65H291.598L288.142 74.288C287.278 76.616 285.814 77.72 283.75 77.6V75.782C284.362 75.818 284.854 75.686 285.226 75.386C285.598 75.098 285.904 74.642 286.144 74.018L286.234 73.838L282.418 65H284.542L287.224 71.534L289.528 65ZM294.015 67.484C294.015 67.784 294.177 68.024 294.501 68.204C294.837 68.372 295.239 68.522 295.707 68.654C296.187 68.774 296.667 68.918 297.147 69.086C297.627 69.254 298.029 69.542 298.353 69.95C298.689 70.346 298.857 70.85 298.857 71.462C298.857 72.326 298.521 73.004 297.849 73.496C297.189 73.988 296.355 74.234 295.347 74.234C294.459 74.234 293.697 74.048 293.061 73.676C292.425 73.304 291.963 72.788 291.675 72.128L293.349 71.156C293.661 72.02 294.327 72.452 295.347 72.452C296.367 72.452 296.877 72.116 296.877 71.444C296.877 71.156 296.709 70.922 296.373 70.742C296.049 70.562 295.647 70.412 295.167 70.292C294.699 70.16 294.225 70.01 293.745 69.842C293.265 69.674 292.857 69.398 292.521 69.014C292.197 68.618 292.035 68.12 292.035 67.52C292.035 66.692 292.347 66.026 292.971 65.522C293.607 65.018 294.393 64.766 295.329 64.766C296.073 64.766 296.733 64.934 297.309 65.27C297.897 65.594 298.347 66.05 298.659 66.638L297.021 67.556C296.709 66.872 296.145 66.53 295.329 66.53C294.957 66.53 294.645 66.614 294.393 66.782C294.141 66.938 294.015 67.172 294.015 67.484ZM305.236 66.872H303.004V71.192C303.004 71.564 303.088 71.834 303.256 72.002C303.424 72.158 303.67 72.248 303.994 72.272C304.33 72.284 304.744 72.278 305.236 72.254V74C303.748 74.18 302.68 74.054 302.032 73.622C301.384 73.178 301.06 72.368 301.06 71.192V66.872H299.404V65H301.06V63.056L303.004 62.48V65H305.236V66.872ZM308.16 70.328C308.304 71.012 308.634 71.54 309.15 71.912C309.666 72.272 310.296 72.452 311.04 72.452C312.072 72.452 312.846 72.08 313.362 71.336L314.964 72.272C314.076 73.58 312.762 74.234 311.022 74.234C309.558 74.234 308.376 73.79 307.476 72.902C306.576 72.002 306.126 70.868 306.126 69.5C306.126 68.156 306.57 67.034 307.458 66.134C308.346 65.222 309.486 64.766 310.878 64.766C312.198 64.766 313.278 65.228 314.118 66.152C314.97 67.076 315.396 68.198 315.396 69.518C315.396 69.722 315.372 69.992 315.324 70.328H308.16ZM308.142 68.744H313.434C313.302 68.012 312.996 67.46 312.516 67.088C312.048 66.716 311.496 66.53 310.86 66.53C310.14 66.53 309.54 66.728 309.06 67.124C308.58 67.52 308.274 68.06 308.142 68.744ZM326.935 64.766C327.955 64.766 328.777 65.096 329.401 65.756C330.025 66.416 330.337 67.304 330.337 68.42V74H328.393V68.546C328.393 67.922 328.237 67.442 327.925 67.106C327.613 66.758 327.187 66.584 326.647 66.584C326.047 66.584 325.567 66.782 325.207 67.178C324.859 67.574 324.685 68.168 324.685 68.96V74H322.741V68.546C322.741 67.922 322.591 67.442 322.291 67.106C322.003 66.758 321.589 66.584 321.049 66.584C320.461 66.584 319.981 66.788 319.609 67.196C319.237 67.592 319.051 68.18 319.051 68.96V74H317.107V65H319.051V66.08C319.627 65.204 320.485 64.766 321.625 64.766C322.777 64.766 323.629 65.24 324.181 66.188C324.781 65.24 325.699 64.766 326.935 64.766Z" fill="#2EC4B6"/>
<rect x="170" y="52" width="176" height="34" rx="17" stroke="#2EC4B6" stroke-width="2"/>
<path d="M27 127L34 120L37 123L30 130L27 127Z" stroke="#2EC4B6" stroke-width="1.5" stroke-linecap="round" stroke-linejoin="round"/>
<path d="M33 121L31.5 113.5L17 110L20.5 124.5L28 126L33 121Z" stroke="#2EC4B6" stroke-width="1.5" stroke-linecap="round" stroke-linejoin="round"/>
<path d="M17 110L24.586 117.586" stroke="#2EC4B6" stroke-width="1.5" stroke-linecap="round" stroke-linejoin="round"/>
<path d="M26 121C27.1046 121 28 120.105 28 119C28 117.895 27.1046 117 26 117C24.8954 117 24 117.895 24 119C24 120.105 24.8954 121 26 121Z" stroke="#2EC4B6" stroke-width="1.5" stroke-linecap="round" stroke-linejoin="round"/>
<path d="M50.21 112.4C51.938 112.4 53.372 113.006 54.512 114.218C55.664 115.43 56.24 116.924 56.24 118.7C56.24 120.464 55.664 121.958 54.512 123.182C53.372 124.394 51.938 125 50.21 125H45.26V112.4H50.21ZM50.21 123.02C51.398 123.02 52.364 122.612 53.108 121.796C53.864 120.98 54.242 119.948 54.242 118.7C54.242 117.44 53.864 116.408 53.108 115.604C52.364 114.788 51.398 114.38 50.21 114.38H47.33V123.02H50.21ZM59.8372 114.29C59.5972 114.53 59.3092 114.65 58.9732 114.65C58.6372 114.65 58.3432 114.53 58.0912 114.29C57.8512 114.038 57.7312 113.744 57.7312 113.408C57.7312 113.072 57.8512 112.784 58.0912 112.544C58.3312 112.292 58.6252 112.166 58.9732 112.166C59.3212 112.166 59.6152 112.292 59.8552 112.544C60.0952 112.784 60.2152 113.072 60.2152 113.408C60.2152 113.744 60.0892 114.038 59.8372 114.29ZM58.0012 125V116H59.9452V125H58.0012ZM63.8956 118.484C63.8956 118.784 64.0576 119.024 64.3816 119.204C64.7176 119.372 65.1196 119.522 65.5876 119.654C66.0676 119.774 66.5476 119.918 67.0276 120.086C67.5076 120.254 67.9096 120.542 68.2336 120.95C68.5696 121.346 68.7376 121.85 68.7376 122.462C68.7376 123.326 68.4016 124.004 67.7296 124.496C67.0696 124.988 66.2356 125.234 65.2276 125.234C64.3396 125.234 63.5776 125.048 62.9416 124.676C62.3056 124.304 61.8436 123.788 61.5556 123.128L63.2296 122.156C63.5416 123.02 64.2076 123.452 65.2276 123.452C66.2476 123.452 66.7576 123.116 66.7576 122.444C66.7576 122.156 66.5896 121.922 66.2536 121.742C65.9296 121.562 65.5276 121.412 65.0476 121.292C64.5796 121.16 64.1056 121.01 63.6256 120.842C63.1456 120.674 62.7376 120.398 62.4016 120.014C62.0776 119.618 61.9156 119.12 61.9156 118.52C61.9156 117.692 62.2276 117.026 62.8516 116.522C63.4876 116.018 64.2736 115.766 65.2096 115.766C65.9536 115.766 66.6136 115.934 67.1896 116.27C67.7776 116.594 68.2276 117.05 68.5396 117.638L66.9016 118.556C66.5896 117.872 66.0256 117.53 65.2096 117.53C64.8376 117.53 64.5256 117.614 64.2736 117.782C64.0216 117.938 63.8956 118.172 63.8956 118.484ZM71.748 121.328C71.892 122.012 72.222 122.54 72.738 122.912C73.254 123.272 73.884 123.452 74.628 123.452C75.66 123.452 76.434 123.08 76.95 122.336L78.552 123.272C77.664 124.58 76.35 125.234 74.61 125.234C73.146 125.234 71.964 124.79 71.064 123.902C70.164 123.002 69.714 121.868 69.714 120.5C69.714 119.156 70.158 118.034 71.046 117.134C71.934 116.222 73.074 115.766 74.466 115.766C75.786 115.766 76.866 116.228 77.706 117.152C78.558 118.076 78.984 119.198 78.984 120.518C78.984 120.722 78.96 120.992 78.912 121.328H71.748ZM71.73 119.744H77.022C76.89 119.012 76.584 118.46 76.104 118.088C75.636 117.716 75.084 117.53 74.448 117.53C73.728 117.53 73.128 117.728 72.648 118.124C72.168 118.52 71.862 119.06 71.73 119.744ZM84.7445 114.29C84.3485 113.978 84.0605 113.846 83.8805 113.894C83.7005 113.93 83.6105 114.2 83.6105 114.704H82.0085C82.0085 113.864 82.1645 113.234 82.4765 112.814C82.7885 112.394 83.1665 112.19 83.6105 112.202C84.0665 112.214 84.5465 112.388 85.0505 112.724C85.4345 113.036 85.7165 113.174 85.8965 113.138C86.0765 113.09 86.1665 112.814 86.1665 112.31H87.7685C87.7685 113.15 87.6125 113.78 87.3005 114.2C87.0005 114.62 86.6225 114.824 86.1665 114.812C85.7225 114.8 85.2485 114.626 84.7445 114.29ZM85.4285 115.766C86.4605 115.766 87.2945 116.096 87.9305 116.756C88.5665 117.416 88.8845 118.322 88.8845 119.474V125H86.9405V119.672C86.9405 119 86.7605 118.484 86.4005 118.124C86.0405 117.764 85.5485 117.584 84.9245 117.584C84.2405 117.584 83.6885 117.8 83.2685 118.232C82.8485 118.652 82.6385 119.3 82.6385 120.176V125H80.6945V116H82.6385V117.152C83.2265 116.228 84.1565 115.766 85.4285 115.766ZM95.2258 125.234C93.9058 125.234 92.7838 124.778 91.8598 123.866C90.9358 122.954 90.4738 121.832 90.4738 120.5C90.4738 119.168 90.9358 118.046 91.8598 117.134C92.7838 116.222 93.9058 115.766 95.2258 115.766C96.5578 115.766 97.6798 116.222 98.5918 117.134C99.5158 118.046 99.9778 119.168 99.9778 120.5C99.9778 121.832 99.5158 122.954 98.5918 123.866C97.6798 124.778 96.5578 125.234 95.2258 125.234ZM93.2278 122.534C93.7678 123.074 94.4338 123.344 95.2258 123.344C96.0178 123.344 96.6838 123.074 97.2238 122.534C97.7638 121.994 98.0338 121.316 98.0338 120.5C98.0338 119.684 97.7638 119.006 97.2238 118.466C96.6838 117.926 96.0178 117.656 95.2258 117.656C94.4338 117.656 93.7678 117.926 93.2278 118.466C92.6878 119.006 92.4178 119.684 92.4178 120.5C92.4178 121.316 92.6878 121.994 93.2278 122.534ZM110.484 125.234C109.128 125.234 107.994 124.778 107.082 123.866C106.182 122.954 105.732 121.832 105.732 120.5C105.732 119.156 106.182 118.034 107.082 117.134C107.994 116.222 109.128 115.766 110.484 115.766C111.36 115.766 112.158 115.976 112.878 116.396C113.598 116.816 114.138 117.38 114.498 118.088L112.824 119.06C112.62 118.628 112.308 118.292 111.888 118.052C111.48 117.8 111.006 117.674 110.466 117.674C109.674 117.674 109.008 117.944 108.468 118.484C107.94 119.024 107.676 119.696 107.676 120.5C107.676 121.304 107.94 121.976 108.468 122.516C109.008 123.056 109.674 123.326 110.466 123.326C110.994 123.326 111.468 123.2 111.888 122.948C112.32 122.696 112.644 122.36 112.86 121.94L114.534 122.894C114.15 123.614 113.598 124.184 112.878 124.604C112.158 125.024 111.36 125.234 110.484 125.234ZM117.328 121.328C117.472 122.012 117.802 122.54 118.318 122.912C118.834 123.272 119.464 123.452 120.208 123.452C121.24 123.452 122.014 123.08 122.53 122.336L124.132 123.272C123.244 124.58 121.93 125.234 120.19 125.234C118.726 125.234 117.544 124.79 116.644 123.902C115.744 123.002 115.294 121.868 115.294 120.5C115.294 119.156 115.738 118.034 116.626 117.134C117.514 116.222 118.654 115.766 120.046 115.766C121.366 115.766 122.446 116.228 123.286 117.152C124.138 118.076 124.564 119.198 124.564 120.518C124.564 120.722 124.54 120.992 124.492 121.328H117.328ZM117.31 119.744H122.602C122.47 119.012 122.164 118.46 121.684 118.088C121.216 117.716 120.664 117.53 120.028 117.53C119.308 117.53 118.708 117.728 118.228 118.124C117.748 118.52 117.442 119.06 117.31 119.744ZM131.009 115.766C132.041 115.766 132.875 116.096 133.511 116.756C134.147 117.416 134.465 118.322 134.465 119.474V125H132.521V119.672C132.521 119 132.341 118.484 131.981 118.124C131.621 117.764 131.129 117.584 130.505 117.584C129.821 117.584 129.269 117.8 128.849 118.232C128.429 118.652 128.219 119.3 128.219 120.176V125H126.275V116H128.219V117.152C128.807 116.228 129.737 115.766 131.009 115.766ZM141.58 117.872H139.348V122.192C139.348 122.564 139.432 122.834 139.6 123.002C139.768 123.158 140.014 123.248 140.338 123.272C140.674 123.284 141.088 123.278 141.58 123.254V125C140.092 125.18 139.024 125.054 138.376 124.622C137.728 124.178 137.404 123.368 137.404 122.192V117.872H135.748V116H137.404V114.056L139.348 113.48V116H141.58V117.872ZM145.375 117.512C145.867 116.396 146.791 115.838 148.147 115.838V117.944C147.403 117.896 146.755 118.076 146.203 118.484C145.651 118.88 145.375 119.54 145.375 120.464V125H143.431V116H145.375V117.512ZM156.289 116H158.233V125H156.289V123.704C155.557 124.724 154.507 125.234 153.139 125.234C151.903 125.234 150.847 124.778 149.971 123.866C149.095 122.942 148.657 121.82 148.657 120.5C148.657 119.168 149.095 118.046 149.971 117.134C150.847 116.222 151.903 115.766 153.139 115.766C154.507 115.766 155.557 116.27 156.289 117.278V116ZM151.411 122.57C151.951 123.11 152.629 123.38 153.445 123.38C154.261 123.38 154.939 123.11 155.479 122.57C156.019 122.018 156.289 121.328 156.289 120.5C156.289 119.672 156.019 118.988 155.479 118.448C154.939 117.896 154.261 117.62 153.445 117.62C152.629 117.62 151.951 117.896 151.411 118.448C150.871 118.988 150.601 119.672 150.601 120.5C150.601 121.328 150.871 122.018 151.411 122.57ZM167.627 112.4H169.571V125H167.627V123.704C166.895 124.724 165.845 125.234 164.477 125.234C163.241 125.234 162.185 124.778 161.309 123.866C160.433 122.942 159.995 121.82 159.995 120.5C159.995 119.168 160.433 118.046 161.309 117.134C162.185 116.222 163.241 115.766 164.477 115.766C165.845 115.766 166.895 116.27 167.627 117.278V112.4ZM162.749 122.57C163.289 123.11 163.967 123.38 164.783 123.38C165.599 123.38 166.277 123.11 166.817 122.57C167.357 122.018 167.627 121.328 167.627 120.5C167.627 119.672 167.357 118.988 166.817 118.448C166.277 117.896 165.599 117.62 164.783 117.62C163.967 117.62 163.289 117.896 162.749 118.448C162.209 118.988 161.939 119.672 161.939 120.5C161.939 121.328 162.209 122.018 162.749 122.57ZM176.085 125.234C174.765 125.234 173.643 124.778 172.719 123.866C171.795 122.954 171.333 121.832 171.333 120.5C171.333 119.168 171.795 118.046 172.719 117.134C173.643 116.222 174.765 115.766 176.085 115.766C177.417 115.766 178.539 116.222 179.451 117.134C180.375 118.046 180.837 119.168 180.837 120.5C180.837 121.832 180.375 122.954 179.451 123.866C178.539 124.778 177.417 125.234 176.085 125.234ZM174.087 122.534C174.627 123.074 175.293 123.344 176.085 123.344C176.877 123.344 177.543 123.074 178.083 122.534C178.623 121.994 178.893 121.316 178.893 120.5C178.893 119.684 178.623 119.006 178.083 118.466C177.543 117.926 176.877 117.656 176.085 117.656C175.293 117.656 174.627 117.926 174.087 118.466C173.547 119.006 173.277 119.684 173.277 120.5C173.277 121.316 173.547 121.994 174.087 122.534ZM188.625 121.328C188.769 122.012 189.099 122.54 189.615 122.912C190.131 123.272 190.761 123.452 191.505 123.452C192.537 123.452 193.311 123.08 193.827 122.336L195.429 123.272C194.541 124.58 193.227 125.234 191.487 125.234C190.023 125.234 188.841 124.79 187.941 123.902C187.041 123.002 186.591 121.868 186.591 120.5C186.591 119.156 187.035 118.034 187.923 117.134C188.811 116.222 189.951 115.766 191.343 115.766C192.663 115.766 193.743 116.228 194.583 117.152C195.435 118.076 195.861 119.198 195.861 120.518C195.861 120.722 195.837 120.992 195.789 121.328H188.625ZM188.607 119.744H193.899C193.767 119.012 193.461 118.46 192.981 118.088C192.513 117.716 191.961 117.53 191.325 117.53C190.605 117.53 190.005 117.728 189.525 118.124C189.045 118.52 188.739 119.06 188.607 119.744ZM202.306 115.766C203.338 115.766 204.172 116.096 204.808 116.756C205.444 117.416 205.762 118.322 205.762 119.474V125H203.818V119.672C203.818 119 203.638 118.484 203.278 118.124C202.918 117.764 202.426 117.584 201.802 117.584C201.118 117.584 200.566 117.8 200.146 118.232C199.726 118.652 199.516 119.3 199.516 120.176V125H197.572V116H199.516V117.152C200.104 116.228 201.034 115.766 202.306 115.766ZM218.421 116H220.365V125H218.421V123.848C217.833 124.772 216.903 125.234 215.631 125.234C214.599 125.234 213.765 124.904 213.129 124.244C212.493 123.584 212.175 122.678 212.175 121.526V116H214.119V121.328C214.119 122 214.299 122.516 214.659 122.876C215.019 123.236 215.511 123.416 216.135 123.416C216.819 123.416 217.371 123.206 217.791 122.786C218.211 122.354 218.421 121.7 218.421 120.824V116ZM224.331 118.484C224.331 118.784 224.493 119.024 224.817 119.204C225.153 119.372 225.555 119.522 226.023 119.654C226.503 119.774 226.983 119.918 227.463 120.086C227.943 120.254 228.345 120.542 228.669 120.95C229.005 121.346 229.173 121.85 229.173 122.462C229.173 123.326 228.837 124.004 228.165 124.496C227.505 124.988 226.671 125.234 225.663 125.234C224.775 125.234 224.013 125.048 223.377 124.676C222.741 124.304 222.279 123.788 221.991 123.128L223.665 122.156C223.977 123.02 224.643 123.452 225.663 123.452C226.683 123.452 227.193 123.116 227.193 122.444C227.193 122.156 227.025 121.922 226.689 121.742C226.365 121.562 225.963 121.412 225.483 121.292C225.015 121.16 224.541 121.01 224.061 120.842C223.581 120.674 223.173 120.398 222.837 120.014C222.513 119.618 222.351 119.12 222.351 118.52C222.351 117.692 222.663 117.026 223.287 116.522C223.923 116.018 224.709 115.766 225.645 115.766C226.389 115.766 227.049 115.934 227.625 116.27C228.213 116.594 228.663 117.05 228.975 117.638L227.337 118.556C227.025 117.872 226.461 117.53 225.645 117.53C225.273 117.53 224.961 117.614 224.709 117.782C224.457 117.938 224.331 118.172 224.331 118.484ZM236.843 116H238.787V125H236.843V123.848C236.255 124.772 235.325 125.234 234.053 125.234C233.021 125.234 232.187 124.904 231.551 124.244C230.915 123.584 230.597 122.678 230.597 121.526V116H232.541V121.328C232.541 122 232.721 122.516 233.081 122.876C233.441 123.236 233.933 123.416 234.557 123.416C235.241 123.416 235.793 123.206 236.213 122.786C236.633 122.354 236.843 121.7 236.843 120.824V116ZM248.188 116H250.132V125H248.188V123.704C247.456 124.724 246.406 125.234 245.038 125.234C243.802 125.234 242.746 124.778 241.87 123.866C240.994 122.942 240.556 121.82 240.556 120.5C240.556 119.168 240.994 118.046 241.87 117.134C242.746 116.222 243.802 115.766 245.038 115.766C246.406 115.766 247.456 116.27 248.188 117.278V116ZM243.31 122.57C243.85 123.11 244.528 123.38 245.344 123.38C246.16 123.38 246.838 123.11 247.378 122.57C247.918 122.018 248.188 121.328 248.188 120.5C248.188 119.672 247.918 118.988 247.378 118.448C246.838 117.896 246.16 117.62 245.344 117.62C244.528 117.62 243.85 117.896 243.31 118.448C242.77 118.988 242.5 119.672 242.5 120.5C242.5 121.328 242.77 122.018 243.31 122.57ZM254.342 117.512C254.834 116.396 255.758 115.838 257.114 115.838V117.944C256.37 117.896 255.722 118.076 255.17 118.484C254.618 118.88 254.342 119.54 254.342 120.464V125H252.398V116H254.342V117.512ZM260.386 114.29C260.146 114.53 259.858 114.65 259.522 114.65C259.186 114.65 258.892 114.53 258.64 114.29C258.4 114.038 258.28 113.744 258.28 113.408C258.28 113.072 258.4 112.784 258.64 112.544C258.88 112.292 259.174 112.166 259.522 112.166C259.87 112.166 260.164 112.292 260.404 112.544C260.644 112.784 260.764 113.072 260.764 113.408C260.764 113.744 260.638 114.038 260.386 114.29ZM258.55 125V116H260.494V125H258.55ZM266.999 125.234C265.679 125.234 264.557 124.778 263.633 123.866C262.709 122.954 262.247 121.832 262.247 120.5C262.247 119.168 262.709 118.046 263.633 117.134C264.557 116.222 265.679 115.766 266.999 115.766C268.331 115.766 269.453 116.222 270.365 117.134C271.289 118.046 271.751 119.168 271.751 120.5C271.751 121.832 271.289 122.954 270.365 123.866C269.453 124.778 268.331 125.234 266.999 125.234ZM265.001 122.534C265.541 123.074 266.207 123.344 266.999 123.344C267.791 123.344 268.457 123.074 268.997 122.534C269.537 121.994 269.807 121.316 269.807 120.5C269.807 119.684 269.537 119.006 268.997 118.466C268.457 117.926 267.791 117.656 266.999 117.656C266.207 117.656 265.541 117.926 265.001 118.466C264.461 119.006 264.191 119.684 264.191 120.5C264.191 121.316 264.461 121.994 265.001 122.534ZM275.079 118.484C275.079 118.784 275.241 119.024 275.565 119.204C275.901 119.372 276.303 119.522 276.771 119.654C277.251 119.774 277.731 119.918 278.211 120.086C278.691 120.254 279.093 120.542 279.417 120.95C279.753 121.346 279.921 121.85 279.921 122.462C279.921 123.326 279.585 124.004 278.913 124.496C278.253 124.988 277.419 125.234 276.411 125.234C275.523 125.234 274.761 125.048 274.125 124.676C273.489 124.304 273.027 123.788 272.739 123.128L274.413 122.156C274.725 123.02 275.391 123.452 276.411 123.452C277.431 123.452 277.941 123.116 277.941 122.444C277.941 122.156 277.773 121.922 277.437 121.742C277.113 121.562 276.711 121.412 276.231 121.292C275.763 121.16 275.289 121.01 274.809 120.842C274.329 120.674 273.921 120.398 273.585 120.014C273.261 119.618 273.099 119.12 273.099 118.52C273.099 117.692 273.411 117.026 274.035 116.522C274.671 116.018 275.457 115.766 276.393 115.766C277.137 115.766 277.797 115.934 278.373 116.27C278.961 116.594 279.411 117.05 279.723 117.638L278.085 118.556C277.773 117.872 277.209 117.53 276.393 117.53C276.021 117.53 275.709 117.614 275.457 117.782C275.205 117.938 275.079 118.172 275.079 118.484ZM287.966 126.8C286.646 124.16 285.986 121.46 285.986 118.7C285.986 115.94 286.646 113.24 287.966 110.6H289.91C288.59 113.24 287.93 115.94 287.93 118.7C287.93 121.46 288.59 124.16 289.91 126.8H287.966ZM299.612 124.046C298.724 124.838 297.578 125.234 296.174 125.234C294.77 125.234 293.624 124.838 292.736 124.046C291.848 123.242 291.404 122.168 291.404 120.824V112.4H293.474V120.698C293.474 121.466 293.696 122.078 294.14 122.534C294.596 122.99 295.274 123.218 296.174 123.218C297.074 123.218 297.746 122.99 298.19 122.534C298.646 122.078 298.874 121.466 298.874 120.698V112.4H300.944V120.824C300.944 122.168 300.5 123.242 299.612 124.046ZM309.282 125.234C307.386 125.234 305.814 124.61 304.566 123.362C303.318 122.102 302.694 120.548 302.694 118.7C302.694 116.852 303.318 115.304 304.566 114.056C305.814 112.796 307.386 112.166 309.282 112.166C310.422 112.166 311.472 112.436 312.432 112.976C313.404 113.516 314.16 114.248 314.7 115.172L312.9 116.216C312.564 115.592 312.072 115.1 311.424 114.74C310.788 114.368 310.074 114.182 309.282 114.182C307.938 114.182 306.846 114.608 306.006 115.46C305.178 116.312 304.764 117.392 304.764 118.7C304.764 120.008 305.178 121.088 306.006 121.94C306.846 122.792 307.938 123.218 309.282 123.218C310.074 123.218 310.794 123.038 311.442 122.678C312.09 122.306 312.576 121.808 312.9 121.184L314.7 122.21C314.172 123.134 313.422 123.872 312.45 124.424C311.49 124.964 310.434 125.234 309.282 125.234ZM321.37 112.4C323.098 112.4 324.532 113.006 325.672 114.218C326.824 115.43 327.4 116.924 327.4 118.7C327.4 120.464 326.824 121.958 325.672 123.182C324.532 124.394 323.098 125 321.37 125H316.42V112.4H321.37ZM321.37 123.02C322.558 123.02 323.524 122.612 324.268 121.796C325.024 120.98 325.402 119.948 325.402 118.7C325.402 117.44 325.024 116.408 324.268 115.604C323.524 114.788 322.558 114.38 321.37 114.38H318.49V123.02H321.37ZM330.331 126.8H328.387C329.707 124.16 330.367 121.46 330.367 118.7C330.367 115.94 329.707 113.24 328.387 110.6H330.331C331.651 113.24 332.311 115.94 332.311 118.7C332.311 121.46 331.651 124.16 330.331 126.8Z" fill="#2EC4B6"/>
<rect x="1" y="103" width="347" height="34" rx="17" stroke="#2EC4B6" stroke-width="2"/>
<path d="M27 178L34 171L37 174L30 181L27 178Z" stroke="#2EC4B6" stroke-width="1.5" stroke-linecap="round" stroke-linejoin="round"/>
<path d="M33 172L31.5 164.5L17 161L20.5 175.5L28 177L33 172Z" stroke="#2EC4B6" stroke-width="1.5" stroke-linecap="round" stroke-linejoin="round"/>
<path d="M17 161L24.586 168.586" stroke="#2EC4B6" stroke-width="1.5" stroke-linecap="round" stroke-linejoin="round"/>
<path d="M26 172C27.1046 172 28 171.105 28 170C28 168.895 27.1046 168 26 168C24.8954 168 24 168.895 24 170C24 171.105 24.8954 172 26 172Z" stroke="#2EC4B6" stroke-width="1.5" stroke-linecap="round" stroke-linejoin="round"/>
<path d="M47.924 176L44.36 163.4H46.538L49.184 173.246L52.046 163.4H53.954L56.798 173.246L59.444 163.4H61.622L58.058 176H55.664L53 166.802L50.318 176H47.924ZM64.6009 165.29C64.3609 165.53 64.0729 165.65 63.7369 165.65C63.4009 165.65 63.1069 165.53 62.8549 165.29C62.6149 165.038 62.4949 164.744 62.4949 164.408C62.4949 164.072 62.6149 163.784 62.8549 163.544C63.0949 163.292 63.3889 163.166 63.7369 163.166C64.0849 163.166 64.3789 163.292 64.6189 163.544C64.8589 163.784 64.9789 164.072 64.9789 164.408C64.9789 164.744 64.8529 165.038 64.6009 165.29ZM62.7649 176V167H64.7089V176H62.7649ZM68.91 168.512C69.402 167.396 70.326 166.838 71.682 166.838V168.944C70.938 168.896 70.29 169.076 69.738 169.484C69.186 169.88 68.91 170.54 68.91 171.464V176H66.966V167H68.91V168.512ZM74.2265 172.328C74.3705 173.012 74.7005 173.54 75.2165 173.912C75.7325 174.272 76.3625 174.452 77.1065 174.452C78.1385 174.452 78.9125 174.08 79.4285 173.336L81.0305 174.272C80.1425 175.58 78.8285 176.234 77.0885 176.234C75.6245 176.234 74.4425 175.79 73.5425 174.902C72.6425 174.002 72.1925 172.868 72.1925 171.5C72.1925 170.156 72.6365 169.034 73.5245 168.134C74.4125 167.222 75.5525 166.766 76.9445 166.766C78.2645 166.766 79.3445 167.228 80.1845 168.152C81.0365 169.076 81.4625 170.198 81.4625 171.518C81.4625 171.722 81.4385 171.992 81.3905 172.328H74.2265ZM74.2085 170.744H79.5005C79.3685 170.012 79.0625 169.46 78.5825 169.088C78.1145 168.716 77.5625 168.53 76.9265 168.53C76.2065 168.53 75.6065 168.728 75.1265 169.124C74.6465 169.52 74.3405 170.06 74.2085 170.744ZM87.6078 165.038C86.1918 164.906 85.4838 165.5 85.4838 166.82V167H87.6078V168.872H85.4838V176H83.5398V168.872H82.1718V167H83.5398V166.82C83.5398 165.584 83.8818 164.648 84.5658 164.012C85.2618 163.364 86.2758 163.082 87.6078 163.166V165.038ZM90.6893 168.512C91.1813 167.396 92.1053 166.838 93.4613 166.838V168.944C92.7173 168.896 92.0693 169.076 91.5173 169.484C90.9653 169.88 90.6893 170.54 90.6893 171.464V176H88.7453V167H90.6893V168.512ZM101.604 167H103.548V176H101.604V174.704C100.872 175.724 99.8218 176.234 98.4538 176.234C97.2178 176.234 96.1618 175.778 95.2858 174.866C94.4098 173.942 93.9718 172.82 93.9718 171.5C93.9718 170.168 94.4098 169.046 95.2858 168.134C96.1618 167.222 97.2178 166.766 98.4538 166.766C99.8218 166.766 100.872 167.27 101.604 168.278V167ZM96.7258 173.57C97.2658 174.11 97.9438 174.38 98.7598 174.38C99.5758 174.38 100.254 174.11 100.794 173.57C101.334 173.018 101.604 172.328 101.604 171.5C101.604 170.672 101.334 169.988 100.794 169.448C100.254 168.896 99.5758 168.62 98.7598 168.62C97.9438 168.62 97.2658 168.896 96.7258 169.448C96.1858 169.988 95.9158 170.672 95.9158 171.5C95.9158 172.328 96.1858 173.018 96.7258 173.57ZM115.642 166.766C116.662 166.766 117.484 167.096 118.108 167.756C118.732 168.416 119.044 169.304 119.044 170.42V176H117.1V170.546C117.1 169.922 116.944 169.442 116.632 169.106C116.32 168.758 115.894 168.584 115.354 168.584C114.754 168.584 114.274 168.782 113.914 169.178C113.566 169.574 113.392 170.168 113.392 170.96V176H111.448V170.546C111.448 169.922 111.298 169.442 110.998 169.106C110.71 168.758 110.296 168.584 109.756 168.584C109.168 168.584 108.688 168.788 108.316 169.196C107.944 169.592 107.758 170.18 107.758 170.96V176H105.814V167H107.758V168.08C108.334 167.204 109.192 166.766 110.332 166.766C111.484 166.766 112.336 167.24 112.888 168.188C113.488 167.24 114.406 166.766 115.642 166.766ZM122.96 165.29C122.72 165.53 122.432 165.65 122.096 165.65C121.76 165.65 121.466 165.53 121.214 165.29C120.974 165.038 120.854 164.744 120.854 164.408C120.854 164.072 120.974 163.784 121.214 163.544C121.454 163.292 121.748 163.166 122.096 163.166C122.444 163.166 122.738 163.292 122.978 163.544C123.218 163.784 123.338 164.072 123.338 164.408C123.338 164.744 123.212 165.038 122.96 165.29ZM121.124 176V167H123.068V176H121.124ZM130.059 166.766C131.091 166.766 131.925 167.096 132.561 167.756C133.197 168.416 133.515 169.322 133.515 170.474V176H131.571V170.672C131.571 170 131.391 169.484 131.031 169.124C130.671 168.764 130.179 168.584 129.555 168.584C128.871 168.584 128.319 168.8 127.899 169.232C127.479 169.652 127.269 170.3 127.269 171.176V176H125.325V167H127.269V168.152C127.857 167.228 128.787 166.766 130.059 166.766ZM142.773 167H144.681V175.586C144.681 176.954 144.231 178.004 143.331 178.736C142.431 179.468 141.339 179.834 140.055 179.834C137.979 179.834 136.557 179.108 135.789 177.656L137.463 176.684C137.931 177.608 138.807 178.07 140.091 178.07C140.931 178.07 141.585 177.848 142.053 177.404C142.533 176.972 142.773 176.366 142.773 175.586V174.488C142.041 175.532 140.997 176.054 139.641 176.054C138.369 176.054 137.295 175.604 136.419 174.704C135.543 173.792 135.105 172.694 135.105 171.41C135.105 170.126 135.543 169.034 136.419 168.134C137.295 167.222 138.369 166.766 139.641 166.766C140.997 166.766 142.041 167.288 142.773 168.332V167ZM137.859 173.426C138.411 173.966 139.095 174.236 139.911 174.236C140.727 174.236 141.405 173.966 141.945 173.426C142.497 172.886 142.773 172.214 142.773 171.41C142.773 170.606 142.497 169.934 141.945 169.394C141.405 168.854 140.727 168.584 139.911 168.584C139.095 168.584 138.411 168.854 137.859 169.394C137.319 169.934 137.049 170.606 137.049 171.41C137.049 172.214 137.319 172.886 137.859 173.426ZM147.073 171.464V169.592H153.733V171.464H147.073ZM168.308 163.4V176H166.238V167.018L162.404 173.354H162.152L158.318 167V176H156.248V163.4H158.48L162.278 169.7L166.094 163.4H168.308ZM174.943 176.234C173.623 176.234 172.501 175.778 171.577 174.866C170.653 173.954 170.191 172.832 170.191 171.5C170.191 170.168 170.653 169.046 171.577 168.134C172.501 167.222 173.623 166.766 174.943 166.766C176.275 166.766 177.397 167.222 178.309 168.134C179.233 169.046 179.695 170.168 179.695 171.5C179.695 172.832 179.233 173.954 178.309 174.866C177.397 175.778 176.275 176.234 174.943 176.234ZM172.945 173.534C173.485 174.074 174.151 174.344 174.943 174.344C175.735 174.344 176.401 174.074 176.941 173.534C177.481 172.994 177.751 172.316 177.751 171.5C177.751 170.684 177.481 170.006 176.941 169.466C176.401 168.926 175.735 168.656 174.943 168.656C174.151 168.656 173.485 168.926 172.945 169.466C172.405 170.006 172.135 170.684 172.135 171.5C172.135 172.316 172.405 172.994 172.945 173.534ZM185.7 176.234C184.344 176.234 183.21 175.778 182.298 174.866C181.398 173.954 180.948 172.832 180.948 171.5C180.948 170.156 181.398 169.034 182.298 168.134C183.21 167.222 184.344 166.766 185.7 166.766C186.576 166.766 187.374 166.976 188.094 167.396C188.814 167.816 189.354 168.38 189.714 169.088L188.04 170.06C187.836 169.628 187.524 169.292 187.104 169.052C186.696 168.8 186.222 168.674 185.682 168.674C184.89 168.674 184.224 168.944 183.684 169.484C183.156 170.024 182.892 170.696 182.892 171.5C182.892 172.304 183.156 172.976 183.684 173.516C184.224 174.056 184.89 174.326 185.682 174.326C186.21 174.326 186.684 174.2 187.104 173.948C187.536 173.696 187.86 173.36 188.076 172.94L189.75 173.894C189.366 174.614 188.814 175.184 188.094 175.604C187.374 176.024 186.576 176.234 185.7 176.234ZM199.111 176H196.789L193.099 171.842V176H191.155V163.4H193.099V170.978L196.591 167H198.967L195.007 171.41L199.111 176ZM206.134 167H208.078V176H206.134V174.848C205.546 175.772 204.616 176.234 203.344 176.234C202.312 176.234 201.478 175.904 200.842 175.244C200.206 174.584 199.888 173.678 199.888 172.526V167H201.832V172.328C201.832 173 202.012 173.516 202.372 173.876C202.732 174.236 203.224 174.416 203.848 174.416C204.532 174.416 205.084 174.206 205.504 173.786C205.924 173.354 206.134 172.7 206.134 171.824V167ZM215.445 166.766C216.681 166.766 217.737 167.228 218.613 168.152C219.489 169.064 219.927 170.18 219.927 171.5C219.927 172.832 219.489 173.954 218.613 174.866C217.737 175.778 216.681 176.234 215.445 176.234C214.077 176.234 213.027 175.73 212.295 174.722V179.6H210.351V167H212.295V168.296C213.027 167.276 214.077 166.766 215.445 166.766ZM213.105 173.57C213.645 174.11 214.323 174.38 215.139 174.38C215.955 174.38 216.633 174.11 217.173 173.57C217.713 173.018 217.983 172.328 217.983 171.5C217.983 170.672 217.713 169.988 217.173 169.448C216.633 168.896 215.955 168.62 215.139 168.62C214.323 168.62 213.645 168.896 213.105 169.448C212.565 169.988 212.295 170.672 212.295 171.5C212.295 172.328 212.565 173.018 213.105 173.57ZM223.259 169.484C223.259 169.784 223.421 170.024 223.745 170.204C224.081 170.372 224.483 170.522 224.951 170.654C225.431 170.774 225.911 170.918 226.391 171.086C226.871 171.254 227.273 171.542 227.597 171.95C227.933 172.346 228.101 172.85 228.101 173.462C228.101 174.326 227.765 175.004 227.093 175.496C226.433 175.988 225.599 176.234 224.591 176.234C223.703 176.234 222.941 176.048 222.305 175.676C221.669 175.304 221.207 174.788 220.919 174.128L222.593 173.156C222.905 174.02 223.571 174.452 224.591 174.452C225.611 174.452 226.121 174.116 226.121 173.444C226.121 173.156 225.953 172.922 225.617 172.742C225.293 172.562 224.891 172.412 224.411 172.292C223.943 172.16 223.469 172.01 222.989 171.842C222.509 171.674 222.101 171.398 221.765 171.014C221.441 170.618 221.279 170.12 221.279 169.52C221.279 168.692 221.591 168.026 222.215 167.522C222.851 167.018 223.637 166.766 224.573 166.766C225.317 166.766 225.977 166.934 226.553 167.27C227.141 167.594 227.591 168.05 227.903 168.638L226.265 169.556C225.953 168.872 225.389 168.53 224.573 168.53C224.201 168.53 223.889 168.614 223.637 168.782C223.385 168.938 223.259 169.172 223.259 169.484Z" fill="#2EC4B6"/>
<rect x="1" y="154" width="242" height="34" rx="17" stroke="#2EC4B6" stroke-width="2"/>
<path d="M27 229L34 222L37 225L30 232L27 229Z" stroke="#2EC4B6" stroke-width="1.5" stroke-linecap="round" stroke-linejoin="round"/>
<path d="M33 223L31.5 215.5L17 212L20.5 226.5L28 228L33 223Z" stroke="#2EC4B6" stroke-width="1.5" stroke-linecap="round" stroke-linejoin="round"/>
<path d="M17 212L24.586 219.586" stroke="#2EC4B6" stroke-width="1.5" stroke-linecap="round" stroke-linejoin="round"/>
<path d="M26 223C27.1046 223 28 222.105 28 221C28 219.895 27.1046 219 26 219C24.8954 219 24 219.895 24 221C24 222.105 24.8954 223 26 223Z" stroke="#2EC4B6" stroke-width="1.5" stroke-linecap="round" stroke-linejoin="round"/>
<path d="M53.468 227L52.586 224.462H47.222L46.34 227H44.09L48.662 214.4H51.146L55.7 227H53.468ZM47.906 222.518H51.902L49.904 216.83L47.906 222.518ZM58.8729 219.512C59.3649 218.396 60.2889 217.838 61.6449 217.838V219.944C60.9009 219.896 60.2529 220.076 59.7009 220.484C59.1489 220.88 58.8729 221.54 58.8729 222.464V227H56.9289V218H58.8729V219.512ZM69.7874 218H71.7314V230.6H69.7874V225.722C69.0554 226.73 68.0054 227.234 66.6374 227.234C65.4014 227.234 64.3454 226.778 63.4694 225.866C62.5934 224.954 62.1554 223.832 62.1554 222.5C62.1554 221.18 62.5934 220.064 63.4694 219.152C64.3454 218.228 65.4014 217.766 66.6374 217.766C68.0054 217.766 69.0554 218.276 69.7874 219.296V218ZM64.9094 224.57C65.4494 225.11 66.1274 225.38 66.9434 225.38C67.7594 225.38 68.4374 225.11 68.9774 224.57C69.5174 224.018 69.7874 223.328 69.7874 222.5C69.7874 221.672 69.5174 220.988 68.9774 220.448C68.4374 219.896 67.7594 219.62 66.9434 219.62C66.1274 219.62 65.4494 219.896 64.9094 220.448C64.3694 220.988 64.0994 221.672 64.0994 222.5C64.0994 223.328 64.3694 224.018 64.9094 224.57ZM80.0633 218H82.0073V227H80.0633V225.848C79.4753 226.772 78.5453 227.234 77.2733 227.234C76.2413 227.234 75.4073 226.904 74.7713 226.244C74.1353 225.584 73.8173 224.678 73.8173 223.526V218H75.7613V223.328C75.7613 224 75.9413 224.516 76.3013 224.876C76.6613 225.236 77.1533 225.416 77.7773 225.416C78.4613 225.416 79.0133 225.206 79.4333 224.786C79.8533 224.354 80.0633 223.7 80.0633 222.824V218ZM86.1165 216.29C85.8765 216.53 85.5885 216.65 85.2525 216.65C84.9165 216.65 84.6225 216.53 84.3705 216.29C84.1305 216.038 84.0105 215.744 84.0105 215.408C84.0105 215.072 84.1305 214.784 84.3705 214.544C84.6105 214.292 84.9045 214.166 85.2525 214.166C85.6005 214.166 85.8945 214.292 86.1345 214.544C86.3745 214.784 86.4945 215.072 86.4945 215.408C86.4945 215.744 86.3685 216.038 86.1165 216.29ZM84.2805 227V218H86.2245V227H84.2805ZM93.5037 219.872H91.2717V224.192C91.2717 224.564 91.3557 224.834 91.5237 225.002C91.6917 225.158 91.9377 225.248 92.2617 225.272C92.5977 225.284 93.0117 225.278 93.5037 225.254V227C92.0157 227.18 90.9477 227.054 90.2997 226.622C89.6517 226.178 89.3277 225.368 89.3277 224.192V219.872H87.6717V218H89.3277V216.056L91.2717 215.48V218H93.5037V219.872ZM96.4277 223.328C96.5717 224.012 96.9017 224.54 97.4177 224.912C97.9337 225.272 98.5637 225.452 99.3077 225.452C100.34 225.452 101.114 225.08 101.63 224.336L103.232 225.272C102.344 226.58 101.03 227.234 99.2897 227.234C97.8257 227.234 96.6437 226.79 95.7437 225.902C94.8437 225.002 94.3937 223.868 94.3937 222.5C94.3937 221.156 94.8377 220.034 95.7257 219.134C96.6137 218.222 97.7537 217.766 99.1457 217.766C100.466 217.766 101.546 218.228 102.386 219.152C103.238 220.076 103.664 221.198 103.664 222.518C103.664 222.722 103.64 222.992 103.592 223.328H96.4277ZM96.4097 221.744H101.702C101.57 221.012 101.264 220.46 100.784 220.088C100.316 219.716 99.7637 219.53 99.1277 219.53C98.4077 219.53 97.8077 219.728 97.3277 220.124C96.8477 220.52 96.5417 221.06 96.4097 221.744ZM109.57 227.234C108.214 227.234 107.08 226.778 106.168 225.866C105.268 224.954 104.818 223.832 104.818 222.5C104.818 221.156 105.268 220.034 106.168 219.134C107.08 218.222 108.214 217.766 109.57 217.766C110.446 217.766 111.244 217.976 111.964 218.396C112.684 218.816 113.224 219.38 113.584 220.088L111.91 221.06C111.706 220.628 111.394 220.292 110.974 220.052C110.566 219.8 110.092 219.674 109.552 219.674C108.76 219.674 108.094 219.944 107.554 220.484C107.026 221.024 106.762 221.696 106.762 222.5C106.762 223.304 107.026 223.976 107.554 224.516C108.094 225.056 108.76 225.326 109.552 225.326C110.08 225.326 110.554 225.2 110.974 224.948C111.406 224.696 111.73 224.36 111.946 223.94L113.62 224.894C113.236 225.614 112.684 226.184 111.964 226.604C111.244 227.024 110.446 227.234 109.57 227.234ZM120.047 219.872H117.815V224.192C117.815 224.564 117.899 224.834 118.067 225.002C118.235 225.158 118.481 225.248 118.805 225.272C119.141 225.284 119.555 225.278 120.047 225.254V227C118.559 227.18 117.491 227.054 116.843 226.622C116.195 226.178 115.871 225.368 115.871 224.192V219.872H114.215V218H115.871V216.056L117.815 215.48V218H120.047V219.872ZM127.964 218H129.908V227H127.964V225.848C127.376 226.772 126.446 227.234 125.174 227.234C124.142 227.234 123.308 226.904 122.672 226.244C122.036 225.584 121.718 224.678 121.718 223.526V218H123.662V223.328C123.662 224 123.842 224.516 124.202 224.876C124.562 225.236 125.054 225.416 125.678 225.416C126.362 225.416 126.914 225.206 127.334 224.786C127.754 224.354 127.964 223.7 127.964 222.824V218ZM134.125 219.512C134.617 218.396 135.541 217.838 136.897 217.838V219.944C136.153 219.896 135.505 220.076 134.953 220.484C134.401 220.88 134.125 221.54 134.125 222.464V227H132.181V218H134.125V219.512ZM145.039 218H146.983V227H145.039V225.704C144.307 226.724 143.257 227.234 141.889 227.234C140.653 227.234 139.597 226.778 138.721 225.866C137.845 224.942 137.407 223.82 137.407 222.5C137.407 221.168 137.845 220.046 138.721 219.134C139.597 218.222 140.653 217.766 141.889 217.766C143.257 217.766 144.307 218.27 145.039 219.278V218ZM140.161 224.57C140.701 225.11 141.379 225.38 142.195 225.38C143.011 225.38 143.689 225.11 144.229 224.57C144.769 224.018 145.039 223.328 145.039 222.5C145.039 221.672 144.769 220.988 144.229 220.448C143.689 219.896 143.011 219.62 142.195 219.62C141.379 219.62 140.701 219.896 140.161 220.448C139.621 220.988 139.351 221.672 139.351 222.5C139.351 223.328 139.621 224.018 140.161 224.57ZM160.877 214.4H162.821V227H160.877V225.704C160.145 226.724 159.095 227.234 157.727 227.234C156.491 227.234 155.435 226.778 154.559 225.866C153.683 224.942 153.245 223.82 153.245 222.5C153.245 221.168 153.683 220.046 154.559 219.134C155.435 218.222 156.491 217.766 157.727 217.766C159.095 217.766 160.145 218.27 160.877 219.278V214.4ZM155.999 224.57C156.539 225.11 157.217 225.38 158.033 225.38C158.849 225.38 159.527 225.11 160.067 224.57C160.607 224.018 160.877 223.328 160.877 222.5C160.877 221.672 160.607 220.988 160.067 220.448C159.527 219.896 158.849 219.62 158.033 219.62C157.217 219.62 156.539 219.896 155.999 220.448C155.459 220.988 155.189 221.672 155.189 222.5C155.189 223.328 155.459 224.018 155.999 224.57ZM166.617 223.328C166.761 224.012 167.091 224.54 167.607 224.912C168.123 225.272 168.753 225.452 169.497 225.452C170.529 225.452 171.303 225.08 171.819 224.336L173.421 225.272C172.533 226.58 171.219 227.234 169.479 227.234C168.015 227.234 166.833 226.79 165.933 225.902C165.033 225.002 164.583 223.868 164.583 222.5C164.583 221.156 165.027 220.034 165.915 219.134C166.803 218.222 167.943 217.766 169.335 217.766C170.655 217.766 171.735 218.228 172.575 219.152C173.427 220.076 173.853 221.198 173.853 222.518C173.853 222.722 173.829 222.992 173.781 223.328H166.617ZM166.599 221.744H171.891C171.759 221.012 171.453 220.46 170.973 220.088C170.505 219.716 169.953 219.53 169.317 219.53C168.597 219.53 167.997 219.728 167.517 220.124C167.037 220.52 166.731 221.06 166.599 221.744ZM180.064 227V213.86H182.008V227H180.064ZM191.393 218H193.337V227H191.393V225.704C190.661 226.724 189.611 227.234 188.243 227.234C187.007 227.234 185.951 226.778 185.075 225.866C184.199 224.942 183.761 223.82 183.761 222.5C183.761 221.168 184.199 220.046 185.075 219.134C185.951 218.222 187.007 217.766 188.243 217.766C189.611 217.766 190.661 218.27 191.393 219.278V218ZM186.515 224.57C187.055 225.11 187.733 225.38 188.549 225.38C189.365 225.38 190.043 225.11 190.583 224.57C191.123 224.018 191.393 223.328 191.393 222.5C191.393 221.672 191.123 220.988 190.583 220.448C190.043 219.896 189.365 219.62 188.549 219.62C187.733 219.62 187.055 219.896 186.515 220.448C185.975 220.988 185.705 221.672 185.705 222.5C185.705 223.328 185.975 224.018 186.515 224.57ZM201.939 216.29C201.699 216.53 201.411 216.65 201.075 216.65C200.739 216.65 200.445 216.53 200.193 216.29C199.953 216.038 199.833 215.744 199.833 215.408C199.833 215.072 199.953 214.784 200.193 214.544C200.433 214.292 200.727 214.166 201.075 214.166C201.423 214.166 201.717 214.292 201.957 214.544C202.197 214.784 202.317 215.072 202.317 215.408C202.317 215.744 202.191 216.038 201.939 216.29ZM200.103 227V218H202.047V227H200.103ZM209.038 217.766C210.07 217.766 210.904 218.096 211.54 218.756C212.176 219.416 212.494 220.322 212.494 221.474V227H210.55V221.672C210.55 221 210.37 220.484 210.01 220.124C209.65 219.764 209.158 219.584 208.534 219.584C207.85 219.584 207.298 219.8 206.878 220.232C206.458 220.652 206.248 221.3 206.248 222.176V227H204.304V218H206.248V219.152C206.836 218.228 207.766 217.766 209.038 217.766ZM219.303 216.038C217.887 215.906 217.179 216.5 217.179 217.82V218H219.303V219.872H217.179V227H215.235V219.872H213.867V218H215.235V217.82C215.235 216.584 215.577 215.648 216.261 215.012C216.957 214.364 217.971 214.082 219.303 214.166V216.038ZM224.267 227.234C222.947 227.234 221.825 226.778 220.901 225.866C219.977 224.954 219.515 223.832 219.515 222.5C219.515 221.168 219.977 220.046 220.901 219.134C221.825 218.222 222.947 217.766 224.267 217.766C225.599 217.766 226.721 218.222 227.633 219.134C228.557 220.046 229.019 221.168 229.019 222.5C229.019 223.832 228.557 224.954 227.633 225.866C226.721 226.778 225.599 227.234 224.267 227.234ZM222.269 224.534C222.809 225.074 223.475 225.344 224.267 225.344C225.059 225.344 225.725 225.074 226.265 224.534C226.805 223.994 227.075 223.316 227.075 222.5C227.075 221.684 226.805 221.006 226.265 220.466C225.725 219.926 225.059 219.656 224.267 219.656C223.475 219.656 222.809 219.926 222.269 220.466C221.729 221.006 221.459 221.684 221.459 222.5C221.459 223.316 221.729 223.994 222.269 224.534ZM232.721 219.512C233.213 218.396 234.137 217.838 235.493 217.838V219.944C234.749 219.896 234.101 220.076 233.549 220.484C232.997 220.88 232.721 221.54 232.721 222.464V227H230.777V218H232.721V219.512ZM246.757 217.766C247.777 217.766 248.599 218.096 249.223 218.756C249.847 219.416 250.159 220.304 250.159 221.42V227H248.215V221.546C248.215 220.922 248.059 220.442 247.747 220.106C247.435 219.758 247.009 219.584 246.469 219.584C245.869 219.584 245.389 219.782 245.029 220.178C244.681 220.574 244.507 221.168 244.507 221.96V227H242.563V221.546C242.563 220.922 242.413 220.442 242.113 220.106C241.825 219.758 241.411 219.584 240.871 219.584C240.283 219.584 239.803 219.788 239.431 220.196C239.059 220.592 238.873 221.18 238.873 221.96V227H236.929V218H238.873V219.08C239.449 218.204 240.307 217.766 241.447 217.766C242.599 217.766 243.451 218.24 244.003 219.188C244.603 218.24 245.521 217.766 246.757 217.766ZM259.367 218H261.311V227H259.367V225.704C258.635 226.724 257.585 227.234 256.217 227.234C254.981 227.234 253.925 226.778 253.049 225.866C252.173 224.942 251.735 223.82 251.735 222.5C251.735 221.168 252.173 220.046 253.049 219.134C253.925 218.222 254.981 217.766 256.217 217.766C257.585 217.766 258.635 218.27 259.367 219.278V218ZM254.489 224.57C255.029 225.11 255.707 225.38 256.523 225.38C257.339 225.38 258.017 225.11 258.557 224.57C259.097 224.018 259.367 223.328 259.367 222.5C259.367 221.672 259.097 220.988 258.557 220.448C258.017 219.896 257.339 219.62 256.523 219.62C255.707 219.62 255.029 219.896 254.489 220.448C253.949 220.988 253.679 221.672 253.679 222.5C253.679 223.328 253.949 224.018 254.489 224.57ZM267.825 227.234C266.469 227.234 265.335 226.778 264.423 225.866C263.523 224.954 263.073 223.832 263.073 222.5C263.073 221.156 263.523 220.034 264.423 219.134C265.335 218.222 266.469 217.766 267.825 217.766C268.701 217.766 269.499 217.976 270.219 218.396C270.939 218.816 271.479 219.38 271.839 220.088L270.165 221.06C269.961 220.628 269.649 220.292 269.229 220.052C268.821 219.8 268.347 219.674 267.807 219.674C267.015 219.674 266.349 219.944 265.809 220.484C265.281 221.024 265.017 221.696 265.017 222.5C265.017 223.304 265.281 223.976 265.809 224.516C266.349 225.056 267.015 225.326 267.807 225.326C268.335 225.326 268.809 225.2 269.229 224.948C269.661 224.696 269.985 224.36 270.201 223.94L271.875 224.894C271.491 225.614 270.939 226.184 270.219 226.604C269.499 227.024 268.701 227.234 267.825 227.234ZM275.116 216.29C274.876 216.53 274.588 216.65 274.252 216.65C273.916 216.65 273.622 216.53 273.37 216.29C273.13 216.038 273.01 215.744 273.01 215.408C273.01 215.072 273.13 214.784 273.37 214.544C273.61 214.292 273.904 214.166 274.252 214.166C274.6 214.166 274.894 214.292 275.134 214.544C275.374 214.784 275.494 215.072 275.494 215.408C275.494 215.744 275.368 216.038 275.116 216.29ZM273.28 227V218H275.224V227H273.28ZM280.47 216.74H282.342L284.25 214.31H281.91L280.47 216.74ZM281.73 227.234C280.41 227.234 279.288 226.778 278.364 225.866C277.44 224.954 276.978 223.832 276.978 222.5C276.978 221.168 277.44 220.046 278.364 219.134C279.288 218.222 280.41 217.766 281.73 217.766C283.062 217.766 284.184 218.222 285.096 219.134C286.02 220.046 286.482 221.168 286.482 222.5C286.482 223.832 286.02 224.954 285.096 225.866C284.184 226.778 283.062 227.234 281.73 227.234ZM279.732 224.534C280.272 225.074 280.938 225.344 281.73 225.344C282.522 225.344 283.188 225.074 283.728 224.534C284.268 223.994 284.538 223.316 284.538 222.5C284.538 221.684 284.268 221.006 283.728 220.466C283.188 219.926 282.522 219.656 281.73 219.656C280.938 219.656 280.272 219.926 279.732 220.466C279.192 221.006 278.922 221.684 278.922 222.5C278.922 223.316 279.192 223.994 279.732 224.534ZM292.973 217.766C294.005 217.766 294.839 218.096 295.475 218.756C296.111 219.416 296.429 220.322 296.429 221.474V227H294.485V221.672C294.485 221 294.305 220.484 293.945 220.124C293.585 219.764 293.093 219.584 292.469 219.584C291.785 219.584 291.233 219.8 290.813 220.232C290.393 220.652 290.183 221.3 290.183 222.176V227H288.239V218H290.183V219.152C290.771 218.228 291.701 217.766 292.973 217.766ZM304.859 228.8C303.539 226.16 302.879 223.46 302.879 220.7C302.879 217.94 303.539 215.24 304.859 212.6H306.803C305.483 215.24 304.823 217.94 304.823 220.7C304.823 223.46 305.483 226.16 306.803 228.8H304.859ZM308.422 214.4H310.492V227H308.422V214.4ZM321.218 227L320.336 224.462H314.972L314.09 227H311.84L316.412 214.4H318.896L323.45 227H321.218ZM315.656 222.518H319.652L317.654 216.83L315.656 222.518ZM325.849 228.8H323.905C325.225 226.16 325.885 223.46 325.885 220.7C325.885 217.94 325.225 215.24 323.905 212.6H325.849C327.169 215.24 327.829 217.94 327.829 220.7C327.829 223.46 327.169 226.16 325.849 228.8Z" fill="#2EC4B6"/>
<rect x="1" y="205" width="342" height="34" rx="17" stroke="#2EC4B6" stroke-width="2"/>
<path d="M27 280L34 273L37 276L30 283L27 280Z" stroke="#2EC4B6" stroke-width="1.5" stroke-linecap="round" stroke-linejoin="round"/>
<path d="M33 274L31.5 266.5L17 263L20.5 277.5L28 279L33 274Z" stroke="#2EC4B6" stroke-width="1.5" stroke-linecap="round" stroke-linejoin="round"/>
<path d="M17 263L24.586 270.586" stroke="#2EC4B6" stroke-width="1.5" stroke-linecap="round" stroke-linejoin="round"/>
<path d="M26 274C27.1046 274 28 273.105 28 272C28 270.895 27.1046 270 26 270C24.8954 270 24 270.895 24 272C24 273.105 24.8954 274 26 274Z" stroke="#2EC4B6" stroke-width="1.5" stroke-linecap="round" stroke-linejoin="round"/>
<path d="M52.676 271.466C53.228 271.754 53.66 272.15 53.972 272.654C54.284 273.158 54.44 273.74 54.44 274.4C54.44 275.432 54.074 276.29 53.342 276.974C52.61 277.658 51.716 278 50.66 278H45.26V265.4H50.264C51.296 265.4 52.166 265.736 52.874 266.408C53.594 267.068 53.954 267.896 53.954 268.892C53.954 269.984 53.528 270.842 52.676 271.466ZM50.264 267.344H47.33V270.656H50.264C50.72 270.656 51.104 270.5 51.416 270.188C51.728 269.864 51.884 269.468 51.884 269C51.884 268.532 51.728 268.142 51.416 267.83C51.104 267.506 50.72 267.344 50.264 267.344ZM50.66 276.056C51.14 276.056 51.542 275.888 51.866 275.552C52.202 275.204 52.37 274.784 52.37 274.292C52.37 273.8 52.202 273.386 51.866 273.05C51.542 272.702 51.14 272.528 50.66 272.528H47.33V276.056H50.66ZM58.0643 270.512C58.5563 269.396 59.4803 268.838 60.8363 268.838V270.944C60.0923 270.896 59.4443 271.076 58.8923 271.484C58.3403 271.88 58.0643 272.54 58.0643 273.464V278H56.1203V269H58.0643V270.512ZM68.9788 269H70.9228V278H68.9788V276.704C68.2468 277.724 67.1968 278.234 65.8288 278.234C64.5928 278.234 63.5368 277.778 62.6608 276.866C61.7848 275.942 61.3468 274.82 61.3468 273.5C61.3468 272.168 61.7848 271.046 62.6608 270.134C63.5368 269.222 64.5928 268.766 65.8288 268.766C67.1968 268.766 68.2468 269.27 68.9788 270.278V269ZM64.1008 275.57C64.6408 276.11 65.3188 276.38 66.1348 276.38C66.9508 276.38 67.6288 276.11 68.1688 275.57C68.7088 275.018 68.9788 274.328 68.9788 273.5C68.9788 272.672 68.7088 271.988 68.1688 271.448C67.6288 270.896 66.9508 270.62 66.1348 270.62C65.3188 270.62 64.6408 270.896 64.1008 271.448C63.5608 271.988 63.2908 272.672 63.2908 273.5C63.2908 274.328 63.5608 275.018 64.1008 275.57ZM77.9227 268.766C78.9547 268.766 79.7887 269.096 80.4247 269.756C81.0607 270.416 81.3787 271.322 81.3787 272.474V278H79.4347V272.672C79.4347 272 79.2547 271.484 78.8947 271.124C78.5347 270.764 78.0427 270.584 77.4187 270.584C76.7347 270.584 76.1827 270.8 75.7627 271.232C75.3427 271.652 75.1327 272.3 75.1327 273.176V278H73.1887V269H75.1327V270.152C75.7207 269.228 76.6507 268.766 77.9227 268.766ZM90.5999 265.4H92.5439V278H90.5999V276.704C89.8679 277.724 88.8179 278.234 87.4499 278.234C86.2139 278.234 85.1579 277.778 84.2819 276.866C83.4059 275.942 82.9679 274.82 82.9679 273.5C82.9679 272.168 83.4059 271.046 84.2819 270.134C85.1579 269.222 86.2139 268.766 87.4499 268.766C88.8179 268.766 89.8679 269.27 90.5999 270.278V265.4ZM85.7219 275.57C86.2619 276.11 86.9399 276.38 87.7559 276.38C88.5719 276.38 89.2499 276.11 89.7899 275.57C90.3299 275.018 90.5999 274.328 90.5999 273.5C90.5999 272.672 90.3299 271.988 89.7899 271.448C89.2499 270.896 88.5719 270.62 87.7559 270.62C86.9399 270.62 86.2619 270.896 85.7219 271.448C85.1819 271.988 84.9119 272.672 84.9119 273.5C84.9119 274.328 85.1819 275.018 85.7219 275.57ZM96.6458 267.29C96.4058 267.53 96.1178 267.65 95.7818 267.65C95.4458 267.65 95.1518 267.53 94.8998 267.29C94.6598 267.038 94.5398 266.744 94.5398 266.408C94.5398 266.072 94.6598 265.784 94.8998 265.544C95.1398 265.292 95.4338 265.166 95.7818 265.166C96.1298 265.166 96.4238 265.292 96.6638 265.544C96.9038 265.784 97.0238 266.072 97.0238 266.408C97.0238 266.744 96.8978 267.038 96.6458 267.29ZM94.8098 278V269H96.7538V278H94.8098ZM103.745 268.766C104.777 268.766 105.611 269.096 106.247 269.756C106.883 270.416 107.201 271.322 107.201 272.474V278H105.257V272.672C105.257 272 105.077 271.484 104.717 271.124C104.357 270.764 103.865 270.584 103.241 270.584C102.557 270.584 102.005 270.8 101.585 271.232C101.165 271.652 100.955 272.3 100.955 273.176V278H99.011V269H100.955V270.152C101.543 269.228 102.473 268.766 103.745 268.766ZM116.458 269H118.366V277.586C118.366 278.954 117.916 280.004 117.016 280.736C116.116 281.468 115.024 281.834 113.74 281.834C111.664 281.834 110.242 281.108 109.474 279.656L111.148 278.684C111.616 279.608 112.492 280.07 113.776 280.07C114.616 280.07 115.27 279.848 115.738 279.404C116.218 278.972 116.458 278.366 116.458 277.586V276.488C115.726 277.532 114.682 278.054 113.326 278.054C112.054 278.054 110.98 277.604 110.104 276.704C109.228 275.792 108.79 274.694 108.79 273.41C108.79 272.126 109.228 271.034 110.104 270.134C110.98 269.222 112.054 268.766 113.326 268.766C114.682 268.766 115.726 269.288 116.458 270.332V269ZM111.544 275.426C112.096 275.966 112.78 276.236 113.596 276.236C114.412 276.236 115.09 275.966 115.63 275.426C116.182 274.886 116.458 274.214 116.458 273.41C116.458 272.606 116.182 271.934 115.63 271.394C115.09 270.854 114.412 270.584 113.596 270.584C112.78 270.584 112.096 270.854 111.544 271.394C111.004 271.934 110.734 272.606 110.734 273.41C110.734 274.214 111.004 274.886 111.544 275.426Z" fill="#2EC4B6"/>
<rect x="1" y="256" width="133" height="34" rx="17" stroke="#2EC4B6" stroke-width="2"/>
<path d="M172 280L179 273L182 276L175 283L172 280Z" stroke="#2EC4B6" stroke-width="1.5" stroke-linecap="round" stroke-linejoin="round"/>
<path d="M178 274L176.5 266.5L162 263L165.5 277.5L173 279L178 274Z" stroke="#2EC4B6" stroke-width="1.5" stroke-linecap="round" stroke-linejoin="round"/>
<path d="M162 263L169.586 270.586" stroke="#2EC4B6" stroke-width="1.5" stroke-linecap="round" stroke-linejoin="round"/>
<path d="M171 274C172.105 274 173 273.105 173 272C173 270.895 172.105 270 171 270C169.895 270 169 270.895 169 272C169 273.105 169.895 274 171 274Z" stroke="#2EC4B6" stroke-width="1.5" stroke-linecap="round" stroke-linejoin="round"/>
<path d="M198.45 265.4V267.38H194.904V278H192.834V267.38H189.27V265.4H198.45ZM199.768 274.328C199.912 275.012 200.242 275.54 200.758 275.912C201.274 276.272 201.904 276.452 202.648 276.452C203.68 276.452 204.454 276.08 204.97 275.336L206.572 276.272C205.684 277.58 204.37 278.234 202.63 278.234C201.166 278.234 199.984 277.79 199.084 276.902C198.184 276.002 197.734 274.868 197.734 273.5C197.734 272.156 198.178 271.034 199.066 270.134C199.954 269.222 201.094 268.766 202.486 268.766C203.806 268.766 204.886 269.228 205.726 270.152C206.578 271.076 207.004 272.198 207.004 273.518C207.004 273.722 206.98 273.992 206.932 274.328H199.768ZM199.75 272.744H205.042C204.91 272.012 204.604 271.46 204.124 271.088C203.656 270.716 203.104 270.53 202.468 270.53C201.748 270.53 201.148 270.728 200.668 271.124C200.188 271.52 199.882 272.06 199.75 272.744ZM210.109 271.484C210.109 271.784 210.271 272.024 210.595 272.204C210.931 272.372 211.333 272.522 211.801 272.654C212.281 272.774 212.761 272.918 213.241 273.086C213.721 273.254 214.123 273.542 214.447 273.95C214.783 274.346 214.951 274.85 214.951 275.462C214.951 276.326 214.615 277.004 213.943 277.496C213.283 277.988 212.449 278.234 211.441 278.234C210.553 278.234 209.791 278.048 209.155 277.676C208.519 277.304 208.057 276.788 207.769 276.128L209.443 275.156C209.755 276.02 210.421 276.452 211.441 276.452C212.461 276.452 212.971 276.116 212.971 275.444C212.971 275.156 212.803 274.922 212.467 274.742C212.143 274.562 211.741 274.412 211.261 274.292C210.793 274.16 210.319 274.01 209.839 273.842C209.359 273.674 208.951 273.398 208.615 273.014C208.291 272.618 208.129 272.12 208.129 271.52C208.129 270.692 208.441 270.026 209.065 269.522C209.701 269.018 210.487 268.766 211.423 268.766C212.167 268.766 212.827 268.934 213.403 269.27C213.991 269.594 214.441 270.05 214.753 270.638L213.115 271.556C212.803 270.872 212.239 270.53 211.423 270.53C211.051 270.53 210.739 270.614 210.487 270.782C210.235 270.938 210.109 271.172 210.109 271.484ZM221.33 270.872H219.098V275.192C219.098 275.564 219.182 275.834 219.35 276.002C219.518 276.158 219.764 276.248 220.088 276.272C220.424 276.284 220.838 276.278 221.33 276.254V278C219.842 278.18 218.774 278.054 218.126 277.622C217.478 277.178 217.154 276.368 217.154 275.192V270.872H215.498V269H217.154V267.056L219.098 266.48V269H221.33V270.872ZM224.929 267.29C224.689 267.53 224.401 267.65 224.065 267.65C223.729 267.65 223.435 267.53 223.183 267.29C222.943 267.038 222.823 266.744 222.823 266.408C222.823 266.072 222.943 265.784 223.183 265.544C223.423 265.292 223.717 265.166 224.065 265.166C224.413 265.166 224.707 265.292 224.947 265.544C225.187 265.784 225.307 266.072 225.307 266.408C225.307 266.744 225.181 267.038 224.929 267.29ZM223.093 278V269H225.037V278H223.093ZM232.028 268.766C233.06 268.766 233.894 269.096 234.53 269.756C235.166 270.416 235.484 271.322 235.484 272.474V278H233.54V272.672C233.54 272 233.36 271.484 233 271.124C232.64 270.764 232.148 270.584 231.524 270.584C230.84 270.584 230.288 270.8 229.868 271.232C229.448 271.652 229.238 272.3 229.238 273.176V278H227.294V269H229.238V270.152C229.826 269.228 230.756 268.766 232.028 268.766ZM244.741 269H246.649V277.586C246.649 278.954 246.199 280.004 245.299 280.736C244.399 281.468 243.307 281.834 242.023 281.834C239.947 281.834 238.525 281.108 237.757 279.656L239.431 278.684C239.899 279.608 240.775 280.07 242.059 280.07C242.899 280.07 243.553 279.848 244.021 279.404C244.501 278.972 244.741 278.366 244.741 277.586V276.488C244.009 277.532 242.965 278.054 241.609 278.054C240.337 278.054 239.263 277.604 238.387 276.704C237.511 275.792 237.073 274.694 237.073 273.41C237.073 272.126 237.511 271.034 238.387 270.134C239.263 269.222 240.337 268.766 241.609 268.766C242.965 268.766 244.009 269.288 244.741 270.332V269ZM239.827 275.426C240.379 275.966 241.063 276.236 241.879 276.236C242.695 276.236 243.373 275.966 243.913 275.426C244.465 274.886 244.741 274.214 244.741 273.41C244.741 272.606 244.465 271.934 243.913 271.394C243.373 270.854 242.695 270.584 241.879 270.584C241.063 270.584 240.379 270.854 239.827 271.394C239.287 271.934 239.017 272.606 239.017 273.41C239.017 274.214 239.287 274.886 239.827 275.426Z" fill="#2EC4B6"/>
<rect x="146" y="256" width="116" height="34" rx="17" stroke="#2EC4B6" stroke-width="2"/>
</svg>
