<svg width="302" height="220" viewBox="0 0 302 220" fill="none" xmlns="http://www.w3.org/2000/svg">
<path d="M25.3333 18.5H18.6666C16.8256 18.5 15.3333 19.9924 15.3333 21.8333V23.5H21.9999H28.6666V21.8333C28.6666 19.9924 27.1742 18.5 25.3333 18.5Z" stroke="#2EC4B6" stroke-width="1.5" stroke-linecap="round" stroke-linejoin="round"/>
<path d="M21.9998 15.1667C23.8408 15.1667 25.3332 13.6743 25.3332 11.8333C25.3332 9.99238 23.8408 8.5 21.9998 8.5C20.1589 8.5 18.6665 9.99238 18.6665 11.8333C18.6665 13.6743 20.1589 15.1667 21.9998 15.1667Z" stroke="#2EC4B6" stroke-width="1.5" stroke-linecap="round" stroke-linejoin="round"/>
<path d="M45.4 8.8V10.56H42.248V20H40.408V10.56H37.24V8.8H45.4ZM47.3298 13.344C47.7671 12.352 48.5884 11.856 49.7938 11.856V13.728C49.1324 13.6853 48.5564 13.8453 48.0658 14.208C47.5751 14.56 47.3298 15.1467 47.3298 15.968V20H45.6018V12H47.3298V13.344ZM57.0315 12H58.7595V20H57.0315V18.848C56.3808 19.7547 55.4475 20.208 54.2315 20.208C53.1328 20.208 52.1942 19.8027 51.4155 18.992C50.6368 18.1707 50.2475 17.1733 50.2475 16C50.2475 14.816 50.6368 13.8187 51.4155 13.008C52.1942 12.1973 53.1328 11.792 54.2315 11.792C55.4475 11.792 56.3808 12.24 57.0315 13.136V12ZM52.6955 17.84C53.1755 18.32 53.7782 18.56 54.5035 18.56C55.2288 18.56 55.8315 18.32 56.3115 17.84C56.7915 17.3493 57.0315 16.736 57.0315 16C57.0315 15.264 56.7915 14.656 56.3115 14.176C55.8315 13.6853 55.2288 13.44 54.5035 13.44C53.7782 13.44 53.1755 13.6853 52.6955 14.176C52.2155 14.656 51.9755 15.264 51.9755 16C51.9755 16.736 52.2155 17.3493 52.6955 17.84ZM65.3016 11.792C66.4003 11.792 67.339 12.1973 68.1176 13.008C68.8963 13.8187 69.2856 14.816 69.2856 16C69.2856 17.1733 68.8963 18.1707 68.1176 18.992C67.339 19.8027 66.4003 20.208 65.3016 20.208C64.0856 20.208 63.1523 19.7547 62.5016 18.848V20H60.7736V8.8H62.5016V13.136C63.1523 12.24 64.0856 11.792 65.3016 11.792ZM63.2216 17.84C63.7016 18.32 64.3043 18.56 65.0296 18.56C65.755 18.56 66.3576 18.32 66.8376 17.84C67.3176 17.3493 67.5576 16.736 67.5576 16C67.5576 15.264 67.3176 14.656 66.8376 14.176C66.3576 13.6853 65.755 13.44 65.0296 13.44C64.3043 13.44 63.7016 13.6853 63.2216 14.176C62.7416 14.656 62.5016 15.264 62.5016 16C62.5016 16.736 62.7416 17.3493 63.2216 17.84ZM77.1878 12H78.9158V20H77.1878V18.848C76.5371 19.7547 75.6038 20.208 74.3878 20.208C73.2891 20.208 72.3504 19.8027 71.5718 18.992C70.7931 18.1707 70.4038 17.1733 70.4038 16C70.4038 14.816 70.7931 13.8187 71.5718 13.008C72.3504 12.1973 73.2891 11.792 74.3878 11.792C75.6038 11.792 76.5371 12.24 77.1878 13.136V12ZM72.8518 17.84C73.3318 18.32 73.9344 18.56 74.6598 18.56C75.3851 18.56 75.9878 18.32 76.4678 17.84C76.9478 17.3493 77.1878 16.736 77.1878 16C77.1878 15.264 76.9478 14.656 76.4678 14.176C75.9878 13.6853 75.3851 13.44 74.6598 13.44C73.9344 13.44 73.3318 13.6853 72.8518 14.176C72.3718 14.656 72.1318 15.264 72.1318 16C72.1318 16.736 72.3718 17.3493 72.8518 17.84ZM82.7096 10.48C82.4963 10.6933 82.2403 10.8 81.9416 10.8C81.643 10.8 81.3816 10.6933 81.1576 10.48C80.9443 10.256 80.8376 9.99467 80.8376 9.696C80.8376 9.39733 80.9443 9.14133 81.1576 8.928C81.3816 8.704 81.643 8.592 81.9416 8.592C82.2403 8.592 82.4963 8.704 82.7096 8.928C82.9336 9.14133 83.0456 9.39733 83.0456 9.696C83.0456 9.99467 82.9336 10.256 82.7096 10.48ZM81.0776 20.32V12H82.8056V20.32C82.8056 22.5387 81.7123 23.568 79.5256 23.408V21.744C80.059 21.7973 80.4483 21.712 80.6936 21.488C80.9496 21.264 81.0776 20.8747 81.0776 20.32ZM88.5965 20.208C87.4232 20.208 86.4258 19.8027 85.6045 18.992C84.7832 18.1813 84.3725 17.184 84.3725 16C84.3725 14.816 84.7832 13.8187 85.6045 13.008C86.4258 12.1973 87.4232 11.792 88.5965 11.792C89.7805 11.792 90.7778 12.1973 91.5885 13.008C92.4098 13.8187 92.8205 14.816 92.8205 16C92.8205 17.184 92.4098 18.1813 91.5885 18.992C90.7778 19.8027 89.7805 20.208 88.5965 20.208ZM86.8205 17.808C87.3005 18.288 87.8925 18.528 88.5965 18.528C89.3005 18.528 89.8925 18.288 90.3725 17.808C90.8525 17.328 91.0925 16.7253 91.0925 16C91.0925 15.2747 90.8525 14.672 90.3725 14.192C89.8925 13.712 89.3005 13.472 88.5965 13.472C87.8925 13.472 87.3005 13.712 86.8205 14.192C86.3405 14.672 86.1005 15.2747 86.1005 16C86.1005 16.7253 86.3405 17.328 86.8205 17.808ZM99.743 16.736C99.871 17.344 100.164 17.8133 100.623 18.144C101.082 18.464 101.642 18.624 102.303 18.624C103.22 18.624 103.908 18.2933 104.367 17.632L105.791 18.464C105.002 19.6267 103.834 20.208 102.287 20.208C100.986 20.208 99.935 19.8133 99.135 19.024C98.335 18.224 97.935 17.216 97.935 16C97.935 14.8053 98.3297 13.808 99.119 13.008C99.9083 12.1973 100.922 11.792 102.159 11.792C103.332 11.792 104.292 12.2027 105.039 13.024C105.796 13.8453 106.175 14.8427 106.175 16.016C106.175 16.1973 106.154 16.4373 106.111 16.736H99.743ZM99.727 15.328H104.431C104.314 14.6773 104.042 14.1867 103.615 13.856C103.199 13.5253 102.708 13.36 102.143 13.36C101.503 13.36 100.97 13.536 100.543 13.888C100.116 14.24 99.8443 14.72 99.727 15.328ZM111.904 11.792C112.821 11.792 113.562 12.0853 114.128 12.672C114.693 13.2587 114.976 14.064 114.976 15.088V20H113.248V15.264C113.248 14.6667 113.088 14.208 112.768 13.888C112.448 13.568 112.01 13.408 111.456 13.408C110.848 13.408 110.357 13.6 109.984 13.984C109.61 14.3573 109.424 14.9333 109.424 15.712V20H107.696V12H109.424V13.024C109.946 12.2027 110.773 11.792 111.904 11.792ZM122.196 16.736C122.324 17.344 122.617 17.8133 123.076 18.144C123.535 18.464 124.095 18.624 124.756 18.624C125.673 18.624 126.361 18.2933 126.82 17.632L128.244 18.464C127.455 19.6267 126.287 20.208 124.74 20.208C123.439 20.208 122.388 19.8133 121.588 19.024C120.788 18.224 120.388 17.216 120.388 16C120.388 14.8053 120.783 13.808 121.572 13.008C122.361 12.1973 123.375 11.792 124.612 11.792C125.785 11.792 126.745 12.2027 127.492 13.024C128.249 13.8453 128.628 14.8427 128.628 16.016C128.628 16.1973 128.607 16.4373 128.564 16.736H122.196ZM122.18 15.328H126.884C126.767 14.6773 126.495 14.1867 126.068 13.856C125.652 13.5253 125.161 13.36 124.596 13.36C123.956 13.36 123.423 13.536 122.996 13.888C122.569 14.24 122.297 14.72 122.18 15.328ZM136.438 12H138.166V23.2H136.438V18.864C135.787 19.76 134.854 20.208 133.638 20.208C132.539 20.208 131.6 19.8027 130.822 18.992C130.043 18.1813 129.654 17.184 129.654 16C129.654 14.8267 130.043 13.8347 130.822 13.024C131.6 12.2027 132.539 11.792 133.638 11.792C134.854 11.792 135.787 12.2453 136.438 13.152V12ZM132.102 17.84C132.582 18.32 133.184 18.56 133.91 18.56C134.635 18.56 135.238 18.32 135.718 17.84C136.198 17.3493 136.438 16.736 136.438 16C136.438 15.264 136.198 14.656 135.718 14.176C135.238 13.6853 134.635 13.44 133.91 13.44C133.184 13.44 132.582 13.6853 132.102 14.176C131.622 14.656 131.382 15.264 131.382 16C131.382 16.736 131.622 17.3493 132.102 17.84ZM145.572 12H147.3V20H145.572V18.976C145.049 19.7973 144.223 20.208 143.092 20.208C142.175 20.208 141.433 19.9147 140.868 19.328C140.303 18.7413 140.02 17.936 140.02 16.912V12H141.748V16.736C141.748 17.3333 141.908 17.792 142.228 18.112C142.548 18.432 142.985 18.592 143.54 18.592C144.148 18.592 144.639 18.4053 145.012 18.032C145.385 17.648 145.572 17.0667 145.572 16.288V12ZM150.953 10.48C150.739 10.6933 150.483 10.8 150.185 10.8C149.886 10.8 149.625 10.6933 149.401 10.48C149.187 10.256 149.081 9.99467 149.081 9.696C149.081 9.39733 149.187 9.14133 149.401 8.928C149.614 8.704 149.875 8.592 150.185 8.592C150.494 8.592 150.755 8.704 150.969 8.928C151.182 9.14133 151.289 9.39733 151.289 9.696C151.289 9.99467 151.177 10.256 150.953 10.48ZM149.321 20V12H151.049V20H149.321ZM157.583 11.792C158.682 11.792 159.62 12.2027 160.399 13.024C161.178 13.8347 161.567 14.8267 161.567 16C161.567 17.184 161.178 18.1813 160.399 18.992C159.62 19.8027 158.682 20.208 157.583 20.208C156.367 20.208 155.434 19.76 154.783 18.864V23.2H153.055V12H154.783V13.152C155.434 12.2453 156.367 11.792 157.583 11.792ZM155.503 17.84C155.983 18.32 156.586 18.56 157.311 18.56C158.036 18.56 158.639 18.32 159.119 17.84C159.599 17.3493 159.839 16.736 159.839 16C159.839 15.264 159.599 14.656 159.119 14.176C158.639 13.6853 158.036 13.44 157.311 13.44C156.586 13.44 155.983 13.6853 155.503 14.176C155.023 14.656 154.783 15.264 154.783 16C154.783 16.736 155.023 17.3493 155.503 17.84ZM166.909 20.208C165.736 20.208 164.738 19.8027 163.917 18.992C163.096 18.1813 162.685 17.184 162.685 16C162.685 14.816 163.096 13.8187 163.917 13.008C164.738 12.1973 165.736 11.792 166.909 11.792C168.093 11.792 169.09 12.1973 169.901 13.008C170.722 13.8187 171.133 14.816 171.133 16C171.133 17.184 170.722 18.1813 169.901 18.992C169.09 19.8027 168.093 20.208 166.909 20.208ZM165.133 17.808C165.613 18.288 166.205 18.528 166.909 18.528C167.613 18.528 168.205 18.288 168.685 17.808C169.165 17.328 169.405 16.7253 169.405 16C169.405 15.2747 169.165 14.672 168.685 14.192C168.205 13.712 167.613 13.472 166.909 13.472C166.205 13.472 165.613 13.712 165.133 14.192C164.653 14.672 164.413 15.2747 164.413 16C164.413 16.7253 164.653 17.328 165.133 17.808Z" fill="#2EC4B6"/>
<rect x="1" y="1" width="182" height="30" rx="15" stroke="#2EC4B6" stroke-width="2"/>
<path d="M25.3333 65.5H18.6666C16.8256 65.5 15.3333 66.9924 15.3333 68.8333V70.5H21.9999H28.6666V68.8333C28.6666 66.9924 27.1742 65.5 25.3333 65.5Z" stroke="#2EC4B6" stroke-width="1.5" stroke-linecap="round" stroke-linejoin="round"/>
<path d="M21.9998 62.1667C23.8408 62.1667 25.3332 60.6743 25.3332 58.8333C25.3332 56.9924 23.8408 55.5 21.9998 55.5C20.1589 55.5 18.6665 56.9924 18.6665 58.8333C18.6665 60.6743 20.1589 62.1667 21.9998 62.1667Z" stroke="#2EC4B6" stroke-width="1.5" stroke-linecap="round" stroke-linejoin="round"/>
<path d="M43.416 67.208C41.7307 67.208 40.3333 66.6533 39.224 65.544C38.1147 64.424 37.56 63.0427 37.56 61.4C37.56 59.7573 38.1147 58.3813 39.224 57.272C40.3333 56.152 41.7307 55.592 43.416 55.592C44.4293 55.592 45.3627 55.832 46.216 56.312C47.08 56.792 47.752 57.4427 48.232 58.264L46.632 59.192C46.3333 58.6373 45.896 58.2 45.32 57.88C44.7547 57.5493 44.12 57.384 43.416 57.384C42.2213 57.384 41.2507 57.7627 40.504 58.52C39.768 59.2773 39.4 60.2373 39.4 61.4C39.4 62.5627 39.768 63.5227 40.504 64.28C41.2507 65.0373 42.2213 65.416 43.416 65.416C44.12 65.416 44.76 65.256 45.336 64.936C45.912 64.6053 46.344 64.1627 46.632 63.608L48.232 64.52C47.7627 65.3413 47.096 65.9973 46.232 66.488C45.3787 66.968 44.44 67.208 43.416 67.208ZM53.409 67.208C52.2357 67.208 51.2383 66.8027 50.417 65.992C49.5957 65.1813 49.185 64.184 49.185 63C49.185 61.816 49.5957 60.8187 50.417 60.008C51.2383 59.1973 52.2357 58.792 53.409 58.792C54.593 58.792 55.5903 59.1973 56.401 60.008C57.2223 60.8187 57.633 61.816 57.633 63C57.633 64.184 57.2223 65.1813 56.401 65.992C55.5903 66.8027 54.593 67.208 53.409 67.208ZM51.633 64.808C52.113 65.288 52.705 65.528 53.409 65.528C54.113 65.528 54.705 65.288 55.185 64.808C55.665 64.328 55.905 63.7253 55.905 63C55.905 62.2747 55.665 61.672 55.185 61.192C54.705 60.712 54.113 60.472 53.409 60.472C52.705 60.472 52.113 60.712 51.633 61.192C51.153 61.672 50.913 62.2747 50.913 63C50.913 63.7253 51.153 64.328 51.633 64.808ZM67.9315 58.792C68.8382 58.792 69.5688 59.0853 70.1235 59.672C70.6782 60.2587 70.9555 61.048 70.9555 62.04V67H69.2275V62.152C69.2275 61.5973 69.0888 61.1707 68.8115 60.872C68.5342 60.5627 68.1555 60.408 67.6755 60.408C67.1422 60.408 66.7155 60.584 66.3955 60.936C66.0862 61.288 65.9315 61.816 65.9315 62.52V67H64.2035V62.152C64.2035 61.5973 64.0702 61.1707 63.8035 60.872C63.5475 60.5627 63.1795 60.408 62.6995 60.408C62.1768 60.408 61.7502 60.5893 61.4195 60.952C61.0888 61.304 60.9235 61.8267 60.9235 62.52V67H59.1955V59H60.9235V59.96C61.4355 59.1813 62.1982 58.792 63.2115 58.792C64.2355 58.792 64.9928 59.2133 65.4835 60.056C66.0168 59.2133 66.8328 58.792 67.9315 58.792ZM78.1969 59H79.9249V67H78.1969V65.976C77.6742 66.7973 76.8475 67.208 75.7169 67.208C74.7995 67.208 74.0582 66.9147 73.4929 66.328C72.9275 65.7413 72.6449 64.936 72.6449 63.912V59H74.3729V63.736C74.3729 64.3333 74.5329 64.792 74.8529 65.112C75.1729 65.432 75.6102 65.592 76.1649 65.592C76.7729 65.592 77.2635 65.4053 77.6369 65.032C78.0102 64.648 78.1969 64.0667 78.1969 63.288V59ZM86.1535 58.792C87.0708 58.792 87.8122 59.0853 88.3775 59.672C88.9428 60.2587 89.2255 61.064 89.2255 62.088V67H87.4975V62.264C87.4975 61.6667 87.3375 61.208 87.0175 60.888C86.6975 60.568 86.2602 60.408 85.7055 60.408C85.0975 60.408 84.6068 60.6 84.2335 60.984C83.8602 61.3573 83.6735 61.9333 83.6735 62.712V67H81.9455V59H83.6735V60.024C84.1962 59.2027 85.0228 58.792 86.1535 58.792ZM92.7181 57.48C92.5048 57.6933 92.2488 57.8 91.9501 57.8C91.6515 57.8 91.3901 57.6933 91.1661 57.48C90.9528 57.256 90.8461 56.9947 90.8461 56.696C90.8461 56.3973 90.9528 56.1413 91.1661 55.928C91.3795 55.704 91.6408 55.592 91.9501 55.592C92.2595 55.592 92.5208 55.704 92.7341 55.928C92.9475 56.1413 93.0541 56.3973 93.0541 56.696C93.0541 56.9947 92.9421 57.256 92.7181 57.48ZM91.0861 67V59H92.8141V67H91.0861ZM98.5965 67.208C97.3912 67.208 96.3832 66.8027 95.5725 65.992C94.7725 65.1813 94.3725 64.184 94.3725 63C94.3725 61.8053 94.7725 60.808 95.5725 60.008C96.3832 59.1973 97.3912 58.792 98.5965 58.792C99.3752 58.792 100.085 58.9787 100.725 59.352C101.365 59.7253 101.845 60.2267 102.165 60.856L100.677 61.72C100.495 61.336 100.218 61.0373 99.8445 60.824C99.4818 60.6 99.0605 60.488 98.5805 60.488C97.8765 60.488 97.2845 60.728 96.8045 61.208C96.3352 61.688 96.1005 62.2853 96.1005 63C96.1005 63.7147 96.3352 64.312 96.8045 64.792C97.2845 65.272 97.8765 65.512 98.5805 65.512C99.0498 65.512 99.4712 65.4 99.8445 65.176C100.229 64.952 100.517 64.6533 100.709 64.28L102.197 65.128C101.855 65.768 101.365 66.2747 100.725 66.648C100.085 67.0213 99.3752 67.208 98.5965 67.208ZM109.657 59H111.385V67H109.657V65.848C109.006 66.7547 108.073 67.208 106.857 67.208C105.758 67.208 104.819 66.8027 104.041 65.992C103.262 65.1707 102.873 64.1733 102.873 63C102.873 61.816 103.262 60.8187 104.041 60.008C104.819 59.1973 105.758 58.792 106.857 58.792C108.073 58.792 109.006 59.24 109.657 60.136V59ZM105.321 64.84C105.801 65.32 106.403 65.56 107.129 65.56C107.854 65.56 108.457 65.32 108.937 64.84C109.417 64.3493 109.657 63.736 109.657 63C109.657 62.264 109.417 61.656 108.937 61.176C108.457 60.6853 107.854 60.44 107.129 60.44C106.403 60.44 105.801 60.6853 105.321 61.176C104.841 61.656 104.601 62.264 104.601 63C104.601 63.736 104.841 64.3493 105.321 64.84ZM117.175 67.208C115.969 67.208 114.961 66.8027 114.151 65.992C113.351 65.1813 112.951 64.184 112.951 63C112.951 61.8053 113.351 60.808 114.151 60.008C114.961 59.1973 115.969 58.792 117.175 58.792C117.953 58.792 118.663 58.9787 119.303 59.352C119.943 59.7253 120.423 60.2267 120.743 60.856L119.255 61.72C119.073 61.336 118.796 61.0373 118.423 60.824C118.06 60.6 117.639 60.488 117.159 60.488C116.455 60.488 115.863 60.728 115.383 61.208C114.913 61.688 114.679 62.2853 114.679 63C114.679 63.7147 114.913 64.312 115.383 64.792C115.863 65.272 116.455 65.512 117.159 65.512C117.628 65.512 118.049 65.4 118.423 65.176C118.807 64.952 119.095 64.6533 119.287 64.28L120.775 65.128C120.433 65.768 119.943 66.2747 119.303 66.648C118.663 67.0213 117.953 67.208 117.175 67.208ZM123.656 57.48C123.442 57.6933 123.186 57.8 122.888 57.8C122.589 57.8 122.328 57.6933 122.104 57.48C121.89 57.256 121.784 56.9947 121.784 56.696C121.784 56.3973 121.89 56.1413 122.104 55.928C122.317 55.704 122.578 55.592 122.888 55.592C123.197 55.592 123.458 55.704 123.672 55.928C123.885 56.1413 123.992 56.3973 123.992 56.696C123.992 56.9947 123.88 57.256 123.656 57.48ZM122.024 67V59H123.752V67H122.024ZM128.414 57.88H130.078L131.774 55.72H129.694L128.414 57.88ZM129.534 67.208C128.361 67.208 127.363 66.8027 126.542 65.992C125.721 65.1813 125.31 64.184 125.31 63C125.31 61.816 125.721 60.8187 126.542 60.008C127.363 59.1973 128.361 58.792 129.534 58.792C130.718 58.792 131.715 59.1973 132.526 60.008C133.347 60.8187 133.758 61.816 133.758 63C133.758 64.184 133.347 65.1813 132.526 65.992C131.715 66.8027 130.718 67.208 129.534 67.208ZM127.758 64.808C128.238 65.288 128.83 65.528 129.534 65.528C130.238 65.528 130.83 65.288 131.31 64.808C131.79 64.328 132.03 63.7253 132.03 63C132.03 62.2747 131.79 61.672 131.31 61.192C130.83 60.712 130.238 60.472 129.534 60.472C128.83 60.472 128.238 60.712 127.758 61.192C127.278 61.672 127.038 62.2747 127.038 63C127.038 63.7253 127.278 64.328 127.758 64.808ZM139.529 58.792C140.446 58.792 141.187 59.0853 141.753 59.672C142.318 60.2587 142.601 61.064 142.601 62.088V67H140.873V62.264C140.873 61.6667 140.713 61.208 140.393 60.888C140.073 60.568 139.635 60.408 139.081 60.408C138.473 60.408 137.982 60.6 137.609 60.984C137.235 61.3573 137.049 61.9333 137.049 62.712V67H135.321V59H137.049V60.024C137.571 59.2027 138.398 58.792 139.529 58.792ZM154.797 59H156.525V67H154.797V65.848C154.146 66.7547 153.213 67.208 151.997 67.208C150.898 67.208 149.96 66.8027 149.181 65.992C148.402 65.1707 148.013 64.1733 148.013 63C148.013 61.816 148.402 60.8187 149.181 60.008C149.96 59.1973 150.898 58.792 151.997 58.792C153.213 58.792 154.146 59.24 154.797 60.136V59ZM150.461 64.84C150.941 65.32 151.544 65.56 152.269 65.56C152.994 65.56 153.597 65.32 154.077 64.84C154.557 64.3493 154.797 63.736 154.797 63C154.797 62.264 154.557 61.656 154.077 61.176C153.597 60.6853 152.994 60.44 152.269 60.44C151.544 60.44 150.941 60.6853 150.461 61.176C149.981 61.656 149.741 62.264 149.741 63C149.741 63.736 149.981 64.3493 150.461 64.84ZM160.044 61.208C160.044 61.4747 160.188 61.688 160.476 61.848C160.775 61.9973 161.132 62.1307 161.548 62.248C161.975 62.3547 162.402 62.4827 162.828 62.632C163.255 62.7813 163.612 63.0373 163.9 63.4C164.199 63.752 164.348 64.2 164.348 64.744C164.348 65.512 164.05 66.1147 163.452 66.552C162.866 66.9893 162.124 67.208 161.228 67.208C160.439 67.208 159.762 67.0427 159.196 66.712C158.631 66.3813 158.22 65.9227 157.964 65.336L159.452 64.472C159.73 65.24 160.322 65.624 161.228 65.624C162.135 65.624 162.588 65.3253 162.588 64.728C162.588 64.472 162.439 64.264 162.14 64.104C161.852 63.944 161.495 63.8107 161.068 63.704C160.652 63.5867 160.231 63.4533 159.804 63.304C159.378 63.1547 159.015 62.9093 158.716 62.568C158.428 62.216 158.284 61.7733 158.284 61.24C158.284 60.504 158.562 59.912 159.116 59.464C159.682 59.016 160.38 58.792 161.212 58.792C161.874 58.792 162.46 58.9413 162.972 59.24C163.495 59.528 163.895 59.9333 164.172 60.456L162.716 61.272C162.439 60.664 161.938 60.36 161.212 60.36C160.882 60.36 160.604 60.4347 160.38 60.584C160.156 60.7227 160.044 60.9307 160.044 61.208ZM167.024 63.736C167.152 64.344 167.446 64.8133 167.904 65.144C168.363 65.464 168.923 65.624 169.584 65.624C170.502 65.624 171.19 65.2933 171.648 64.632L173.072 65.464C172.283 66.6267 171.115 67.208 169.568 67.208C168.267 67.208 167.216 66.8133 166.416 66.024C165.616 65.224 165.216 64.216 165.216 63C165.216 61.8053 165.611 60.808 166.4 60.008C167.19 59.1973 168.203 58.792 169.44 58.792C170.614 58.792 171.574 59.2027 172.32 60.024C173.078 60.8453 173.456 61.8427 173.456 63.016C173.456 63.1973 173.435 63.4373 173.392 63.736H167.024ZM167.008 62.328H171.712C171.595 61.6773 171.323 61.1867 170.896 60.856C170.48 60.5253 169.99 60.36 169.424 60.36C168.784 60.36 168.251 60.536 167.824 60.888C167.398 61.24 167.126 61.72 167.008 62.328ZM176.705 60.344C177.142 59.352 177.963 58.856 179.169 58.856V60.728C178.507 60.6853 177.931 60.8453 177.441 61.208C176.95 61.56 176.705 62.1467 176.705 62.968V67H174.977V59H176.705V60.344ZM185.113 60.664H183.129V64.504C183.129 64.8347 183.203 65.0747 183.353 65.224C183.502 65.3627 183.721 65.4427 184.009 65.464C184.307 65.4747 184.675 65.4693 185.113 65.448V67C183.79 67.16 182.841 67.048 182.265 66.664C181.689 66.2693 181.401 65.5493 181.401 64.504V60.664H179.929V59H181.401V57.272L183.129 56.76V59H185.113V60.664ZM188.312 57.48C188.099 57.6933 187.843 57.8 187.544 57.8C187.245 57.8 186.984 57.6933 186.76 57.48C186.547 57.256 186.44 56.9947 186.44 56.696C186.44 56.3973 186.547 56.1413 186.76 55.928C186.973 55.704 187.235 55.592 187.544 55.592C187.853 55.592 188.115 55.704 188.328 55.928C188.541 56.1413 188.648 56.3973 188.648 56.696C188.648 56.9947 188.536 57.256 188.312 57.48ZM186.68 67V59H188.408V67H186.68ZM195.838 59H197.726L194.606 67H192.606L189.486 59H191.374L193.614 65.08L195.838 59ZM204.844 59H206.572V67H204.844V65.848C204.193 66.7547 203.26 67.208 202.044 67.208C200.945 67.208 200.007 66.8027 199.228 65.992C198.449 65.1707 198.06 64.1733 198.06 63C198.06 61.816 198.449 60.8187 199.228 60.008C200.007 59.1973 200.945 58.792 202.044 58.792C203.26 58.792 204.193 59.24 204.844 60.136V59ZM200.508 64.84C200.988 65.32 201.591 65.56 202.316 65.56C203.041 65.56 203.644 65.32 204.124 64.84C204.604 64.3493 204.844 63.736 204.844 63C204.844 62.264 204.604 61.656 204.124 61.176C203.644 60.6853 203.041 60.44 202.316 60.44C201.591 60.44 200.988 60.6853 200.508 61.176C200.028 61.656 199.788 62.264 199.788 63C199.788 63.736 200.028 64.3493 200.508 64.84Z" fill="#2EC4B6"/>
<rect x="1" y="48" width="218" height="30" rx="15" stroke="#2EC4B6" stroke-width="2"/>
<path d="M25.3333 112.5H18.6666C16.8256 112.5 15.3333 113.992 15.3333 115.833V117.5H21.9999H28.6666V115.833C28.6666 113.992 27.1742 112.5 25.3333 112.5Z" stroke="#2EC4B6" stroke-width="1.5" stroke-linecap="round" stroke-linejoin="round"/>
<path d="M21.9998 109.167C23.8408 109.167 25.3332 107.674 25.3332 105.833C25.3332 103.992 23.8408 102.5 21.9998 102.5C20.1589 102.5 18.6665 103.992 18.6665 105.833C18.6665 107.674 20.1589 109.167 21.9998 109.167Z" stroke="#2EC4B6" stroke-width="1.5" stroke-linecap="round" stroke-linejoin="round"/>
<path d="M43.416 114.208C41.7307 114.208 40.3333 113.653 39.224 112.544C38.1147 111.424 37.56 110.043 37.56 108.4C37.56 106.757 38.1147 105.381 39.224 104.272C40.3333 103.152 41.7307 102.592 43.416 102.592C44.4293 102.592 45.3627 102.832 46.216 103.312C47.08 103.792 47.752 104.443 48.232 105.264L46.632 106.192C46.3333 105.637 45.896 105.2 45.32 104.88C44.7547 104.549 44.12 104.384 43.416 104.384C42.2213 104.384 41.2507 104.763 40.504 105.52C39.768 106.277 39.4 107.237 39.4 108.4C39.4 109.563 39.768 110.523 40.504 111.28C41.2507 112.037 42.2213 112.416 43.416 112.416C44.12 112.416 44.76 112.256 45.336 111.936C45.912 111.605 46.344 111.163 46.632 110.608L48.232 111.52C47.7627 112.341 47.096 112.997 46.232 113.488C45.3787 113.968 44.44 114.208 43.416 114.208ZM51.4548 107.344C51.8921 106.352 52.7134 105.856 53.9188 105.856V107.728C53.2574 107.685 52.6814 107.845 52.1908 108.208C51.7001 108.56 51.4548 109.147 51.4548 109.968V114H49.7268V106H51.4548V107.344ZM56.1805 110.736C56.3085 111.344 56.6018 111.813 57.0605 112.144C57.5192 112.464 58.0792 112.624 58.7405 112.624C59.6578 112.624 60.3458 112.293 60.8045 111.632L62.2285 112.464C61.4392 113.627 60.2712 114.208 58.7245 114.208C57.4232 114.208 56.3725 113.813 55.5725 113.024C54.7725 112.224 54.3725 111.216 54.3725 110C54.3725 108.805 54.7672 107.808 55.5565 107.008C56.3458 106.197 57.3592 105.792 58.5965 105.792C59.7698 105.792 60.7298 106.203 61.4765 107.024C62.2338 107.845 62.6125 108.843 62.6125 110.016C62.6125 110.197 62.5912 110.437 62.5485 110.736H56.1805ZM56.1645 109.328H60.8685C60.7512 108.677 60.4792 108.187 60.0525 107.856C59.6365 107.525 59.1458 107.36 58.5805 107.36C57.9405 107.36 57.4072 107.536 56.9805 107.888C56.5538 108.24 56.2818 108.72 56.1645 109.328ZM70.4221 106H72.1501V114H70.4221V112.848C69.7715 113.755 68.8381 114.208 67.6221 114.208C66.5235 114.208 65.5848 113.803 64.8061 112.992C64.0275 112.171 63.6381 111.173 63.6381 110C63.6381 108.816 64.0275 107.819 64.8061 107.008C65.5848 106.197 66.5235 105.792 67.6221 105.792C68.8381 105.792 69.7715 106.24 70.4221 107.136V106ZM66.0861 111.84C66.5661 112.32 67.1688 112.56 67.8941 112.56C68.6195 112.56 69.2221 112.32 69.7021 111.84C70.1821 111.349 70.4221 110.736 70.4221 110C70.4221 109.264 70.1821 108.656 69.7021 108.176C69.2221 107.685 68.6195 107.44 67.8941 107.44C67.1688 107.44 66.5661 107.685 66.0861 108.176C65.6061 108.656 65.3661 109.264 65.3661 110C65.3661 110.736 65.6061 111.349 66.0861 111.84ZM78.6283 107.664H76.6443V111.504C76.6443 111.835 76.7189 112.075 76.8683 112.224C77.0176 112.363 77.2363 112.443 77.5243 112.464C77.8229 112.475 78.1909 112.469 78.6283 112.448V114C77.3056 114.16 76.3563 114.048 75.7803 113.664C75.2043 113.269 74.9163 112.549 74.9163 111.504V107.664H73.4443V106H74.9163V104.272L76.6443 103.76V106H78.6283V107.664ZM81.8275 104.48C81.6142 104.693 81.3582 104.8 81.0595 104.8C80.7608 104.8 80.4995 104.693 80.2755 104.48C80.0622 104.256 79.9555 103.995 79.9555 103.696C79.9555 103.397 80.0622 103.141 80.2755 102.928C80.4888 102.704 80.7502 102.592 81.0595 102.592C81.3688 102.592 81.6302 102.704 81.8435 102.928C82.0568 103.141 82.1635 103.397 82.1635 103.696C82.1635 103.995 82.0515 104.256 81.8275 104.48ZM80.1955 114V106H81.9235V114H80.1955ZM89.3539 106H91.2419L88.1219 114H86.1219L83.0019 106H84.8899L87.1299 112.08L89.3539 106ZM93.9681 104.48C93.7548 104.693 93.4988 104.8 93.2001 104.8C92.9015 104.8 92.6401 104.693 92.4161 104.48C92.2028 104.256 92.0961 103.995 92.0961 103.696C92.0961 103.397 92.2028 103.141 92.4161 102.928C92.6295 102.704 92.8908 102.592 93.2001 102.592C93.5095 102.592 93.7708 102.704 93.9841 102.928C94.1975 103.141 94.3041 103.397 94.3041 103.696C94.3041 103.995 94.1921 104.256 93.9681 104.48ZM92.3361 114V106H94.0641V114H92.3361ZM102.407 102.8H104.135V114H102.407V112.848C101.756 113.755 100.823 114.208 99.6065 114.208C98.5078 114.208 97.5692 113.803 96.7905 112.992C96.0118 112.171 95.6225 111.173 95.6225 110C95.6225 108.816 96.0118 107.819 96.7905 107.008C97.5692 106.197 98.5078 105.792 99.6065 105.792C100.823 105.792 101.756 106.24 102.407 107.136V102.8ZM98.0705 111.84C98.5505 112.32 99.1532 112.56 99.8785 112.56C100.604 112.56 101.207 112.32 101.687 111.84C102.167 111.349 102.407 110.736 102.407 110C102.407 109.264 102.167 108.656 101.687 108.176C101.207 107.685 100.604 107.44 99.8785 107.44C99.1532 107.44 98.5505 107.685 98.0705 108.176C97.5905 108.656 97.3505 109.264 97.3505 110C97.3505 110.736 97.5905 111.349 98.0705 111.84ZM112.485 106H114.213V114H112.485V112.848C111.834 113.755 110.901 114.208 109.685 114.208C108.586 114.208 107.647 113.803 106.869 112.992C106.09 112.171 105.701 111.173 105.701 110C105.701 108.816 106.09 107.819 106.869 107.008C107.647 106.197 108.586 105.792 109.685 105.792C110.901 105.792 111.834 106.24 112.485 107.136V106ZM108.149 111.84C108.629 112.32 109.231 112.56 109.957 112.56C110.682 112.56 111.285 112.32 111.765 111.84C112.245 111.349 112.485 110.736 112.485 110C112.485 109.264 112.245 108.656 111.765 108.176C111.285 107.685 110.682 107.44 109.957 107.44C109.231 107.44 108.629 107.685 108.149 108.176C107.669 108.656 107.429 109.264 107.429 110C107.429 110.736 107.669 111.349 108.149 111.84ZM122.563 102.8H124.291V114H122.563V112.848C121.912 113.755 120.979 114.208 119.763 114.208C118.664 114.208 117.725 113.803 116.947 112.992C116.168 112.171 115.779 111.173 115.779 110C115.779 108.816 116.168 107.819 116.947 107.008C117.725 106.197 118.664 105.792 119.763 105.792C120.979 105.792 121.912 106.24 122.563 107.136V102.8ZM118.227 111.84C118.707 112.32 119.309 112.56 120.035 112.56C120.76 112.56 121.363 112.32 121.843 111.84C122.323 111.349 122.563 110.736 122.563 110C122.563 109.264 122.323 108.656 121.843 108.176C121.363 107.685 120.76 107.44 120.035 107.44C119.309 107.44 118.707 107.685 118.227 108.176C117.747 108.656 117.507 109.264 117.507 110C117.507 110.736 117.747 111.349 118.227 111.84Z" fill="#2EC4B6"/>
<rect x="1" y="95" width="136" height="30" rx="15" stroke="#2EC4B6" stroke-width="2"/>
<path d="M25.3333 159.5H18.6666C16.8256 159.5 15.3333 160.992 15.3333 162.833V164.5H21.9999H28.6666V162.833C28.6666 160.992 27.1742 159.5 25.3333 159.5Z" stroke="#2EC4B6" stroke-width="1.5" stroke-linecap="round" stroke-linejoin="round"/>
<path d="M21.9998 156.167C23.8408 156.167 25.3332 154.674 25.3332 152.833C25.3332 150.992 23.8408 149.5 21.9998 149.5C20.1589 149.5 18.6665 150.992 18.6665 152.833C18.6665 154.674 20.1589 156.167 21.9998 156.167Z" stroke="#2EC4B6" stroke-width="1.5" stroke-linecap="round" stroke-linejoin="round"/>
<path d="M45.416 161L44.632 158.744H39.864L39.08 161H37.08L41.144 149.8H43.352L47.4 161H45.416ZM40.472 157.016H44.024L42.248 151.96L40.472 157.016ZM54.6253 149.8H56.3533V161H54.6253V159.848C53.9746 160.755 53.0413 161.208 51.8253 161.208C50.7266 161.208 49.7879 160.803 49.0093 159.992C48.2306 159.171 47.8413 158.173 47.8413 157C47.8413 155.816 48.2306 154.819 49.0093 154.008C49.7879 153.197 50.7266 152.792 51.8253 152.792C53.0413 152.792 53.9746 153.24 54.6253 154.136V149.8ZM50.2893 158.84C50.7693 159.32 51.3719 159.56 52.0973 159.56C52.8226 159.56 53.4253 159.32 53.9053 158.84C54.3853 158.349 54.6253 157.736 54.6253 157C54.6253 156.264 54.3853 155.656 53.9053 155.176C53.4253 154.685 52.8226 154.44 52.0973 154.44C51.3719 154.44 50.7693 154.685 50.2893 155.176C49.8093 155.656 49.5693 156.264 49.5693 157C49.5693 157.736 49.8093 158.349 50.2893 158.84ZM64.7034 153H66.4314V161H64.7034V159.848C64.0527 160.755 63.1194 161.208 61.9034 161.208C60.8047 161.208 59.866 160.803 59.0874 159.992C58.3087 159.171 57.9194 158.173 57.9194 157C57.9194 155.816 58.3087 154.819 59.0874 154.008C59.866 153.197 60.8047 152.792 61.9034 152.792C63.1194 152.792 64.0527 153.24 64.7034 154.136V153ZM60.3674 158.84C60.8474 159.32 61.45 159.56 62.1754 159.56C62.9007 159.56 63.5034 159.32 63.9834 158.84C64.4634 158.349 64.7034 157.736 64.7034 157C64.7034 156.264 64.4634 155.656 63.9834 155.176C63.5034 154.685 62.9007 154.44 62.1754 154.44C61.45 154.44 60.8474 154.685 60.3674 155.176C59.8874 155.656 59.6474 156.264 59.6474 157C59.6474 157.736 59.8874 158.349 60.3674 158.84ZM72.9735 152.792C74.0722 152.792 75.0108 153.203 75.7895 154.024C76.5682 154.835 76.9575 155.827 76.9575 157C76.9575 158.184 76.5682 159.181 75.7895 159.992C75.0108 160.803 74.0722 161.208 72.9735 161.208C71.7575 161.208 70.8242 160.76 70.1735 159.864V164.2H68.4455V153H70.1735V154.152C70.8242 153.245 71.7575 152.792 72.9735 152.792ZM70.8935 158.84C71.3735 159.32 71.9762 159.56 72.7015 159.56C73.4268 159.56 74.0295 159.32 74.5095 158.84C74.9895 158.349 75.2295 157.736 75.2295 157C75.2295 156.264 74.9895 155.656 74.5095 155.176C74.0295 154.685 73.4268 154.44 72.7015 154.44C71.9762 154.44 71.3735 154.685 70.8935 155.176C70.4135 155.656 70.1735 156.264 70.1735 157C70.1735 157.736 70.4135 158.349 70.8935 158.84ZM82.8314 154.664H80.8474V158.504C80.8474 158.835 80.922 159.075 81.0714 159.224C81.2207 159.363 81.4394 159.443 81.7274 159.464C82.026 159.475 82.394 159.469 82.8314 159.448V161C81.5087 161.16 80.5594 161.048 79.9834 160.664C79.4074 160.269 79.1194 159.549 79.1194 158.504V154.664H77.6474V153H79.1194V151.272L80.8474 150.76V153H82.8314V154.664ZM90.4065 153H92.1345V161H90.4065V159.848C89.7558 160.755 88.8225 161.208 87.6065 161.208C86.5078 161.208 85.5692 160.803 84.7905 159.992C84.0118 159.171 83.6225 158.173 83.6225 157C83.6225 155.816 84.0118 154.819 84.7905 154.008C85.5692 153.197 86.5078 152.792 87.6065 152.792C88.8225 152.792 89.7558 153.24 90.4065 154.136V153ZM86.0705 158.84C86.5505 159.32 87.1532 159.56 87.8785 159.56C88.6038 159.56 89.2065 159.32 89.6865 158.84C90.1665 158.349 90.4065 157.736 90.4065 157C90.4065 156.264 90.1665 155.656 89.6865 155.176C89.2065 154.685 88.6038 154.44 87.8785 154.44C87.1532 154.44 86.5505 154.685 86.0705 155.176C85.5905 155.656 85.3505 156.264 85.3505 157C85.3505 157.736 85.5905 158.349 86.0705 158.84ZM98.6766 152.792C99.7753 152.792 100.714 153.197 101.493 154.008C102.271 154.819 102.661 155.816 102.661 157C102.661 158.173 102.271 159.171 101.493 159.992C100.714 160.803 99.7753 161.208 98.6766 161.208C97.4606 161.208 96.5273 160.755 95.8766 159.848V161H94.1486V149.8H95.8766V154.136C96.5273 153.24 97.4606 152.792 98.6766 152.792ZM96.5966 158.84C97.0766 159.32 97.6793 159.56 98.4046 159.56C99.13 159.56 99.7326 159.32 100.213 158.84C100.693 158.349 100.933 157.736 100.933 157C100.933 156.264 100.693 155.656 100.213 155.176C99.7326 154.685 99.13 154.44 98.4046 154.44C97.6793 154.44 97.0766 154.685 96.5966 155.176C96.1166 155.656 95.8766 156.264 95.8766 157C95.8766 157.736 96.1166 158.349 96.5966 158.84ZM105.859 151.48C105.645 151.693 105.389 151.8 105.091 151.8C104.792 151.8 104.531 151.693 104.307 151.48C104.093 151.256 103.987 150.995 103.987 150.696C103.987 150.397 104.093 150.141 104.307 149.928C104.52 149.704 104.781 149.592 105.091 149.592C105.4 149.592 105.661 149.704 105.875 149.928C106.088 150.141 106.195 150.397 106.195 150.696C106.195 150.995 106.083 151.256 105.859 151.48ZM104.227 161V153H105.955V161H104.227ZM107.961 161V149.32H109.689V161H107.961ZM113.328 151.48C113.114 151.693 112.858 151.8 112.56 151.8C112.261 151.8 112 151.693 111.776 151.48C111.562 151.256 111.456 150.995 111.456 150.696C111.456 150.397 111.562 150.141 111.776 149.928C111.989 149.704 112.25 149.592 112.56 149.592C112.869 149.592 113.13 149.704 113.344 149.928C113.557 150.141 113.664 150.397 113.664 150.696C113.664 150.995 113.552 151.256 113.328 151.48ZM111.696 161V153H113.424V161H111.696ZM121.766 149.8H123.494V161H121.766V159.848C121.115 160.755 120.182 161.208 118.966 161.208C117.867 161.208 116.929 160.803 116.15 159.992C115.371 159.171 114.982 158.173 114.982 157C114.982 155.816 115.371 154.819 116.15 154.008C116.929 153.197 117.867 152.792 118.966 152.792C120.182 152.792 121.115 153.24 121.766 154.136V149.8ZM117.43 158.84C117.91 159.32 118.513 159.56 119.238 159.56C119.963 159.56 120.566 159.32 121.046 158.84C121.526 158.349 121.766 157.736 121.766 157C121.766 156.264 121.526 155.656 121.046 155.176C120.566 154.685 119.963 154.44 119.238 154.44C118.513 154.44 117.91 154.685 117.43 155.176C116.95 155.656 116.71 156.264 116.71 157C116.71 157.736 116.95 158.349 117.43 158.84ZM131.844 153H133.572V161H131.844V159.848C131.193 160.755 130.26 161.208 129.044 161.208C127.945 161.208 127.007 160.803 126.228 159.992C125.449 159.171 125.06 158.173 125.06 157C125.06 155.816 125.449 154.819 126.228 154.008C127.007 153.197 127.945 152.792 129.044 152.792C130.26 152.792 131.193 153.24 131.844 154.136V153ZM127.508 158.84C127.988 159.32 128.591 159.56 129.316 159.56C130.041 159.56 130.644 159.32 131.124 158.84C131.604 158.349 131.844 157.736 131.844 157C131.844 156.264 131.604 155.656 131.124 155.176C130.644 154.685 130.041 154.44 129.316 154.44C128.591 154.44 127.988 154.685 127.508 155.176C127.028 155.656 126.788 156.264 126.788 157C126.788 157.736 127.028 158.349 127.508 158.84ZM141.922 149.8H143.65V161H141.922V159.848C141.271 160.755 140.338 161.208 139.122 161.208C138.023 161.208 137.085 160.803 136.306 159.992C135.527 159.171 135.138 158.173 135.138 157C135.138 155.816 135.527 154.819 136.306 154.008C137.085 153.197 138.023 152.792 139.122 152.792C140.338 152.792 141.271 153.24 141.922 154.136V149.8ZM137.586 158.84C138.066 159.32 138.669 159.56 139.394 159.56C140.119 159.56 140.722 159.32 141.202 158.84C141.682 158.349 141.922 157.736 141.922 157C141.922 156.264 141.682 155.656 141.202 155.176C140.722 154.685 140.119 154.44 139.394 154.44C138.669 154.44 138.066 154.685 137.586 155.176C137.106 155.656 136.866 156.264 136.866 157C136.866 157.736 137.106 158.349 137.586 158.84Z" fill="#2EC4B6"/>
<rect x="1" y="142" width="155" height="30" rx="15" stroke="#2EC4B6" stroke-width="2"/>
<path d="M25.3333 206.5H18.6666C16.8256 206.5 15.3333 207.992 15.3333 209.833V211.5H21.9999H28.6666V209.833C28.6666 207.992 27.1742 206.5 25.3333 206.5Z" stroke="#2EC4B6" stroke-width="1.5" stroke-linecap="round" stroke-linejoin="round"/>
<path d="M21.9998 203.167C23.8408 203.167 25.3332 201.674 25.3332 199.833C25.3332 197.992 23.8408 196.5 21.9998 196.5C20.1589 196.5 18.6665 197.992 18.6665 199.833C18.6665 201.674 20.1589 203.167 21.9998 203.167Z" stroke="#2EC4B6" stroke-width="1.5" stroke-linecap="round" stroke-linejoin="round"/>
<path d="M42.248 196.8C43.304 196.8 44.184 197.152 44.888 197.856C45.6027 198.56 45.96 199.435 45.96 200.48C45.96 201.515 45.6027 202.389 44.888 203.104C44.184 203.808 43.304 204.16 42.248 204.16H39.96V208H38.12V196.8H42.248ZM42.248 202.432C42.792 202.432 43.24 202.251 43.592 201.888C43.944 201.515 44.12 201.045 44.12 200.48C44.12 199.915 43.944 199.451 43.592 199.088C43.24 198.715 42.792 198.528 42.248 198.528H39.96V202.432H42.248ZM49.0173 201.344C49.4546 200.352 50.2759 199.856 51.4813 199.856V201.728C50.8199 201.685 50.2439 201.845 49.7533 202.208C49.2626 202.56 49.0173 203.147 49.0173 203.968V208H47.2893V200H49.0173V201.344ZM54.39 198.48C54.1767 198.693 53.9207 198.8 53.622 198.8C53.3233 198.8 53.062 198.693 52.838 198.48C52.6247 198.256 52.518 197.995 52.518 197.696C52.518 197.397 52.6247 197.141 52.838 196.928C53.0513 196.704 53.3127 196.592 53.622 196.592C53.9313 196.592 54.1927 196.704 54.406 196.928C54.6193 197.141 54.726 197.397 54.726 197.696C54.726 197.995 54.614 198.256 54.39 198.48ZM52.758 208V200H54.486V208H52.758ZM60.2684 208.208C59.095 208.208 58.0977 207.803 57.2764 206.992C56.455 206.181 56.0444 205.184 56.0444 204C56.0444 202.816 56.455 201.819 57.2764 201.008C58.0977 200.197 59.095 199.792 60.2684 199.792C61.4524 199.792 62.4497 200.197 63.2604 201.008C64.0817 201.819 64.4924 202.816 64.4924 204C64.4924 205.184 64.0817 206.181 63.2604 206.992C62.4497 207.803 61.4524 208.208 60.2684 208.208ZM58.4924 205.808C58.9724 206.288 59.5644 206.528 60.2684 206.528C60.9724 206.528 61.5644 206.288 62.0444 205.808C62.5244 205.328 62.7644 204.725 62.7644 204C62.7644 203.275 62.5244 202.672 62.0444 202.192C61.5644 201.712 60.9724 201.472 60.2684 201.472C59.5644 201.472 58.9724 201.712 58.4924 202.192C58.0124 202.672 57.7724 203.275 57.7724 204C57.7724 204.725 58.0124 205.328 58.4924 205.808ZM67.7829 201.344C68.2202 200.352 69.0415 199.856 70.2469 199.856V201.728C69.5855 201.685 69.0095 201.845 68.5189 202.208C68.0282 202.56 67.7829 203.147 67.7829 203.968V208H66.0549V200H67.7829V201.344ZM73.1556 198.48C72.9423 198.693 72.6863 198.8 72.3876 198.8C72.089 198.8 71.8276 198.693 71.6036 198.48C71.3903 198.256 71.2836 197.995 71.2836 197.696C71.2836 197.397 71.3903 197.141 71.6036 196.928C71.817 196.704 72.0783 196.592 72.3876 196.592C72.697 196.592 72.9583 196.704 73.1716 196.928C73.385 197.141 73.4916 197.397 73.4916 197.696C73.4916 197.995 73.3796 198.256 73.1556 198.48ZM71.5236 208V200H73.2516V208H71.5236ZM77.322 206.368H81.21V208H74.97V206.848L78.714 201.632H75.13V200H81.05V201.152L77.322 206.368ZM88.6721 200H90.4001V208H88.6721V206.848C88.0215 207.755 87.0881 208.208 85.8721 208.208C84.7735 208.208 83.8348 207.803 83.0561 206.992C82.2775 206.171 81.8881 205.173 81.8881 204C81.8881 202.816 82.2775 201.819 83.0561 201.008C83.8348 200.197 84.7735 199.792 85.8721 199.792C87.0881 199.792 88.0215 200.24 88.6721 201.136V200ZM84.3361 205.84C84.8161 206.32 85.4188 206.56 86.1441 206.56C86.8695 206.56 87.4721 206.32 87.9521 205.84C88.4321 205.349 88.6721 204.736 88.6721 204C88.6721 203.264 88.4321 202.656 87.9521 202.176C87.4721 201.685 86.8695 201.44 86.1441 201.44C85.4188 201.44 84.8161 201.685 84.3361 202.176C83.8561 202.656 83.6161 203.264 83.6161 204C83.6161 204.736 83.8561 205.349 84.3361 205.84ZM96.1903 208.208C94.9849 208.208 93.9769 207.803 93.1663 206.992C92.3663 206.181 91.9663 205.184 91.9663 204C91.9663 202.805 92.3663 201.808 93.1663 201.008C93.9769 200.197 94.9849 199.792 96.1903 199.792C96.9689 199.792 97.6783 199.979 98.3183 200.352C98.9583 200.725 99.4383 201.227 99.7583 201.856L98.2703 202.72C98.0889 202.336 97.8116 202.037 97.4383 201.824C97.0756 201.6 96.6543 201.488 96.1743 201.488C95.4703 201.488 94.8783 201.728 94.3983 202.208C93.9289 202.688 93.6943 203.285 93.6943 204C93.6943 204.715 93.9289 205.312 94.3983 205.792C94.8783 206.272 95.4703 206.512 96.1743 206.512C96.6436 206.512 97.0649 206.4 97.4383 206.176C97.8223 205.952 98.1103 205.653 98.3023 205.28L99.7903 206.128C99.4489 206.768 98.9583 207.275 98.3183 207.648C97.6783 208.021 96.9689 208.208 96.1903 208.208ZM102.671 198.48C102.458 198.693 102.202 198.8 101.903 198.8C101.605 198.8 101.343 198.693 101.119 198.48C100.906 198.256 100.799 197.995 100.799 197.696C100.799 197.397 100.906 197.141 101.119 196.928C101.333 196.704 101.594 196.592 101.903 196.592C102.213 196.592 102.474 196.704 102.687 196.928C102.901 197.141 103.007 197.397 103.007 197.696C103.007 197.995 102.895 198.256 102.671 198.48ZM101.039 208V200H102.767V208H101.039ZM107.43 198.88H109.094L110.79 196.72H108.71L107.43 198.88ZM108.55 208.208C107.376 208.208 106.379 207.803 105.558 206.992C104.736 206.181 104.326 205.184 104.326 204C104.326 202.816 104.736 201.819 105.558 201.008C106.379 200.197 107.376 199.792 108.55 199.792C109.734 199.792 110.731 200.197 111.542 201.008C112.363 201.819 112.774 202.816 112.774 204C112.774 205.184 112.363 206.181 111.542 206.992C110.731 207.803 109.734 208.208 108.55 208.208ZM106.774 205.808C107.254 206.288 107.846 206.528 108.55 206.528C109.254 206.528 109.846 206.288 110.326 205.808C110.806 205.328 111.046 204.725 111.046 204C111.046 203.275 110.806 202.672 110.326 202.192C109.846 201.712 109.254 201.472 108.55 201.472C107.846 201.472 107.254 201.712 106.774 202.192C106.294 202.672 106.054 203.275 106.054 204C106.054 204.725 106.294 205.328 106.774 205.808ZM118.544 199.792C119.461 199.792 120.203 200.085 120.768 200.672C121.333 201.259 121.616 202.064 121.616 203.088V208H119.888V203.264C119.888 202.667 119.728 202.208 119.408 201.888C119.088 201.568 118.651 201.408 118.096 201.408C117.488 201.408 116.997 201.6 116.624 201.984C116.251 202.357 116.064 202.933 116.064 203.712V208H114.336V200H116.064V201.024C116.587 200.203 117.413 199.792 118.544 199.792ZM132.869 200H134.709L131.637 208.256C130.869 210.325 129.567 211.307 127.733 211.2V209.584C128.277 209.616 128.714 209.499 129.045 209.232C129.375 208.976 129.647 208.571 129.861 208.016L129.941 207.856L126.549 200H128.437L130.821 205.808L132.869 200ZM148.525 199.792C149.432 199.792 150.163 200.085 150.717 200.672C151.272 201.259 151.549 202.048 151.549 203.04V208H149.821V203.152C149.821 202.597 149.683 202.171 149.405 201.872C149.128 201.563 148.749 201.408 148.269 201.408C147.736 201.408 147.309 201.584 146.989 201.936C146.68 202.288 146.525 202.816 146.525 203.52V208H144.797V203.152C144.797 202.597 144.664 202.171 144.397 201.872C144.141 201.563 143.773 201.408 143.293 201.408C142.771 201.408 142.344 201.589 142.013 201.952C141.683 202.304 141.517 202.827 141.517 203.52V208H139.789V200H141.517V200.96C142.029 200.181 142.792 199.792 143.805 199.792C144.829 199.792 145.587 200.213 146.077 201.056C146.611 200.213 147.427 199.792 148.525 199.792ZM159.735 200H161.463V208H159.735V206.848C159.084 207.755 158.151 208.208 156.935 208.208C155.836 208.208 154.897 207.803 154.119 206.992C153.34 206.171 152.951 205.173 152.951 204C152.951 202.816 153.34 201.819 154.119 201.008C154.897 200.197 155.836 199.792 156.935 199.792C158.151 199.792 159.084 200.24 159.735 201.136V200ZM155.399 205.84C155.879 206.32 156.481 206.56 157.207 206.56C157.932 206.56 158.535 206.32 159.015 205.84C159.495 205.349 159.735 204.736 159.735 204C159.735 203.264 159.495 202.656 159.015 202.176C158.535 201.685 157.932 201.44 157.207 201.44C156.481 201.44 155.879 201.685 155.399 202.176C154.919 202.656 154.679 203.264 154.679 204C154.679 204.736 154.919 205.349 155.399 205.84ZM167.685 199.792C168.602 199.792 169.343 200.085 169.909 200.672C170.474 201.259 170.757 202.064 170.757 203.088V208H169.029V203.264C169.029 202.667 168.869 202.208 168.549 201.888C168.229 201.568 167.791 201.408 167.237 201.408C166.629 201.408 166.138 201.6 165.765 201.984C165.391 202.357 165.205 202.933 165.205 203.712V208H163.477V200H165.205V201.024C165.727 200.203 166.554 199.792 167.685 199.792ZM173.977 204.736C174.105 205.344 174.399 205.813 174.857 206.144C175.316 206.464 175.876 206.624 176.537 206.624C177.455 206.624 178.143 206.293 178.601 205.632L180.025 206.464C179.236 207.627 178.068 208.208 176.521 208.208C175.22 208.208 174.169 207.813 173.369 207.024C172.569 206.224 172.169 205.216 172.169 204C172.169 202.805 172.564 201.808 173.353 201.008C174.143 200.197 175.156 199.792 176.393 199.792C177.567 199.792 178.527 200.203 179.273 201.024C180.031 201.845 180.409 202.843 180.409 204.016C180.409 204.197 180.388 204.437 180.345 204.736H173.977ZM173.961 203.328H178.665C178.548 202.677 178.276 202.187 177.849 201.856C177.433 201.525 176.943 201.36 176.377 201.36C175.737 201.36 175.204 201.536 174.777 201.888C174.351 202.24 174.079 202.72 173.961 203.328ZM183.772 198.48C183.559 198.693 183.303 198.8 183.004 198.8C182.705 198.8 182.444 198.693 182.22 198.48C182.007 198.256 181.9 197.995 181.9 197.696C181.9 197.397 182.007 197.141 182.22 196.928C182.444 196.704 182.705 196.592 183.004 196.592C183.303 196.592 183.559 196.704 183.772 196.928C183.996 197.141 184.108 197.397 184.108 197.696C184.108 197.995 183.996 198.256 183.772 198.48ZM182.14 208.32V200H183.868V208.32C183.868 210.539 182.775 211.568 180.588 211.408V209.744C181.121 209.797 181.511 209.712 181.756 209.488C182.012 209.264 182.14 208.875 182.14 208.32ZM189.659 208.208C188.486 208.208 187.488 207.803 186.667 206.992C185.846 206.181 185.435 205.184 185.435 204C185.435 202.816 185.846 201.819 186.667 201.008C187.488 200.197 188.486 199.792 189.659 199.792C190.843 199.792 191.84 200.197 192.651 201.008C193.472 201.819 193.883 202.816 193.883 204C193.883 205.184 193.472 206.181 192.651 206.992C191.84 207.803 190.843 208.208 189.659 208.208ZM187.883 205.808C188.363 206.288 188.955 206.528 189.659 206.528C190.363 206.528 190.955 206.288 191.435 205.808C191.915 205.328 192.155 204.725 192.155 204C192.155 203.275 191.915 202.672 191.435 202.192C190.955 201.712 190.363 201.472 189.659 201.472C188.955 201.472 188.363 201.712 187.883 202.192C187.403 202.672 187.163 203.275 187.163 204C187.163 204.725 187.403 205.328 187.883 205.808ZM205.782 196.8H207.51V208H205.782V206.848C205.131 207.755 204.198 208.208 202.982 208.208C201.883 208.208 200.944 207.803 200.166 206.992C199.387 206.171 198.998 205.173 198.998 204C198.998 202.816 199.387 201.819 200.166 201.008C200.944 200.197 201.883 199.792 202.982 199.792C204.198 199.792 205.131 200.24 205.782 201.136V196.8ZM201.446 205.84C201.926 206.32 202.528 206.56 203.254 206.56C203.979 206.56 204.582 206.32 205.062 205.84C205.542 205.349 205.782 204.736 205.782 204C205.782 203.264 205.542 202.656 205.062 202.176C204.582 201.685 203.979 201.44 203.254 201.44C202.528 201.44 201.926 201.685 201.446 202.176C200.966 202.656 200.726 203.264 200.726 204C200.726 204.736 200.966 205.349 201.446 205.84ZM210.884 204.736C211.012 205.344 211.305 205.813 211.764 206.144C212.222 206.464 212.782 206.624 213.444 206.624C214.361 206.624 215.049 206.293 215.508 205.632L216.932 206.464C216.142 207.627 214.974 208.208 213.428 208.208C212.126 208.208 211.076 207.813 210.276 207.024C209.476 206.224 209.076 205.216 209.076 204C209.076 202.805 209.47 201.808 210.26 201.008C211.049 200.197 212.062 199.792 213.3 199.792C214.473 199.792 215.433 200.203 216.18 201.024C216.937 201.845 217.316 202.843 217.316 204.016C217.316 204.197 217.294 204.437 217.252 204.736H210.884ZM210.868 203.328H215.572C215.454 202.677 215.182 202.187 214.756 201.856C214.34 201.525 213.849 201.36 213.284 201.36C212.644 201.36 212.11 201.536 211.684 201.888C211.257 202.24 210.985 202.72 210.868 203.328ZM218.836 208V196.32H220.564V208H218.836ZM231.035 201.664H229.051V205.504C229.051 205.835 229.125 206.075 229.275 206.224C229.424 206.363 229.643 206.443 229.931 206.464C230.229 206.475 230.597 206.469 231.035 206.448V208C229.712 208.16 228.763 208.048 228.187 207.664C227.611 207.269 227.323 206.549 227.323 205.504V201.664H225.851V200H227.323V198.272L229.051 197.76V200H231.035V201.664ZM234.234 198.48C234.02 198.693 233.764 198.8 233.466 198.8C233.167 198.8 232.906 198.693 232.682 198.48C232.468 198.256 232.362 197.995 232.362 197.696C232.362 197.397 232.468 197.141 232.682 196.928C232.895 196.704 233.156 196.592 233.466 196.592C233.775 196.592 234.036 196.704 234.25 196.928C234.463 197.141 234.57 197.397 234.57 197.696C234.57 197.995 234.458 198.256 234.234 198.48ZM232.602 208V200H234.33V208H232.602ZM237.696 204.736C237.824 205.344 238.117 205.813 238.576 206.144C239.035 206.464 239.595 206.624 240.256 206.624C241.173 206.624 241.861 206.293 242.32 205.632L243.744 206.464C242.955 207.627 241.787 208.208 240.24 208.208C238.939 208.208 237.888 207.813 237.088 207.024C236.288 206.224 235.888 205.216 235.888 204C235.888 202.805 236.283 201.808 237.072 201.008C237.861 200.197 238.875 199.792 240.112 199.792C241.285 199.792 242.245 200.203 242.992 201.024C243.749 201.845 244.128 202.843 244.128 204.016C244.128 204.197 244.107 204.437 244.064 204.736H237.696ZM237.68 203.328H242.384C242.267 202.677 241.995 202.187 241.568 201.856C241.152 201.525 240.661 201.36 240.096 201.36C239.456 201.36 238.923 201.536 238.496 201.888C238.069 202.24 237.797 202.72 237.68 203.328ZM254.385 199.792C255.291 199.792 256.022 200.085 256.577 200.672C257.131 201.259 257.409 202.048 257.409 203.04V208H255.681V203.152C255.681 202.597 255.542 202.171 255.265 201.872C254.987 201.563 254.609 201.408 254.129 201.408C253.595 201.408 253.169 201.584 252.849 201.936C252.539 202.288 252.385 202.816 252.385 203.52V208H250.657V203.152C250.657 202.597 250.523 202.171 250.257 201.872C250.001 201.563 249.633 201.408 249.153 201.408C248.63 201.408 248.203 201.589 247.873 201.952C247.542 202.304 247.377 202.827 247.377 203.52V208H245.649V200H247.377V200.96C247.889 200.181 248.651 199.792 249.665 199.792C250.689 199.792 251.446 200.213 251.937 201.056C252.47 200.213 253.286 199.792 254.385 199.792ZM263.786 199.792C264.885 199.792 265.823 200.203 266.602 201.024C267.381 201.835 267.77 202.827 267.77 204C267.77 205.184 267.381 206.181 266.602 206.992C265.823 207.803 264.885 208.208 263.786 208.208C262.57 208.208 261.637 207.76 260.986 206.864V211.2H259.258V200H260.986V201.152C261.637 200.245 262.57 199.792 263.786 199.792ZM261.706 205.84C262.186 206.32 262.789 206.56 263.514 206.56C264.239 206.56 264.842 206.32 265.322 205.84C265.802 205.349 266.042 204.736 266.042 204C266.042 203.264 265.802 202.656 265.322 202.176C264.842 201.685 264.239 201.44 263.514 201.44C262.789 201.44 262.186 201.685 261.706 202.176C261.226 202.656 260.986 203.264 260.986 204C260.986 204.736 261.226 205.349 261.706 205.84ZM273.112 208.208C271.939 208.208 270.941 207.803 270.12 206.992C269.299 206.181 268.888 205.184 268.888 204C268.888 202.816 269.299 201.819 270.12 201.008C270.941 200.197 271.939 199.792 273.112 199.792C274.296 199.792 275.293 200.197 276.104 201.008C276.925 201.819 277.336 202.816 277.336 204C277.336 205.184 276.925 206.181 276.104 206.992C275.293 207.803 274.296 208.208 273.112 208.208ZM271.336 205.808C271.816 206.288 272.408 206.528 273.112 206.528C273.816 206.528 274.408 206.288 274.888 205.808C275.368 205.328 275.608 204.725 275.608 204C275.608 203.275 275.368 202.672 274.888 202.192C274.408 201.712 273.816 201.472 273.112 201.472C272.408 201.472 271.816 201.712 271.336 202.192C270.856 202.672 270.616 203.275 270.616 204C270.616 204.725 270.856 205.328 271.336 205.808Z" fill="#2EC4B6"/>
<rect x="1" y="189" width="288" height="30" rx="15" stroke="#2EC4B6" stroke-width="2"/>
</svg>
