<svg width="310" height="314" viewBox="0 0 310 314" fill="none" xmlns="http://www.w3.org/2000/svg">
<g clip-path="url(#clip0_126_2501)">
<path d="M22 21.8333L27.8333 16L30.3333 18.5L24.5 24.3333L22 21.8333Z" stroke="#2EC4B6" stroke-width="1.5" stroke-linecap="round" stroke-linejoin="round"/>
<path d="M27.0001 16.8333L25.7501 10.5833L13.6667 7.66663L16.5834 19.75L22.8334 21L27.0001 16.8333Z" stroke="#2EC4B6" stroke-width="1.5" stroke-linecap="round" stroke-linejoin="round"/>
<path d="M13.6667 7.66663L19.9884 13.9883" stroke="#2EC4B6" stroke-width="1.5" stroke-linecap="round" stroke-linejoin="round"/>
<path d="M21.1667 16.8333C22.0871 16.8333 22.8333 16.0871 22.8333 15.1667C22.8333 14.2462 22.0871 13.5 21.1667 13.5C20.2462 13.5 19.5 14.2462 19.5 15.1667C19.5 16.0871 20.2462 16.8333 21.1667 16.8333Z" stroke="#2EC4B6" stroke-width="1.5" stroke-linecap="round" stroke-linejoin="round"/>
</g>
<path d="M42.52 8.8C44.056 8.8 45.3307 9.33867 46.344 10.416C47.368 11.4933 47.88 12.8213 47.88 14.4C47.88 15.968 47.368 17.296 46.344 18.384C45.3307 19.4613 44.056 20 42.52 20H38.12V8.8H42.52ZM42.52 18.24C43.576 18.24 44.4347 17.8773 45.096 17.152C45.768 16.4267 46.104 15.5093 46.104 14.4C46.104 13.28 45.768 12.3627 45.096 11.648C44.4347 10.9227 43.576 10.56 42.52 10.56H39.96V18.24H42.52ZM50.8055 16.736C50.9335 17.344 51.2268 17.8133 51.6855 18.144C52.1442 18.464 52.7042 18.624 53.3655 18.624C54.2828 18.624 54.9708 18.2933 55.4295 17.632L56.8535 18.464C56.0642 19.6267 54.8962 20.208 53.3495 20.208C52.0482 20.208 50.9975 19.8133 50.1975 19.024C49.3975 18.224 48.9975 17.216 48.9975 16C48.9975 14.8053 49.3922 13.808 50.1815 13.008C50.9708 12.1973 51.9842 11.792 53.2215 11.792C54.3948 11.792 55.3548 12.2027 56.1015 13.024C56.8588 13.8453 57.2375 14.8427 57.2375 16.016C57.2375 16.1973 57.2162 16.4373 57.1735 16.736H50.8055ZM50.7895 15.328H55.4935C55.3762 14.6773 55.1042 14.1867 54.6775 13.856C54.2615 13.5253 53.7708 13.36 53.2055 13.36C52.5655 13.36 52.0322 13.536 51.6055 13.888C51.1788 14.24 50.9068 14.72 50.7895 15.328ZM59.9975 14.208C59.9975 14.4747 60.1415 14.688 60.4295 14.848C60.7282 14.9973 61.0855 15.1307 61.5015 15.248C61.9282 15.3547 62.3548 15.4827 62.7815 15.632C63.2082 15.7813 63.5655 16.0373 63.8535 16.4C64.1522 16.752 64.3015 17.2 64.3015 17.744C64.3015 18.512 64.0028 19.1147 63.4055 19.552C62.8188 19.9893 62.0775 20.208 61.1815 20.208C60.3922 20.208 59.7148 20.0427 59.1495 19.712C58.5842 19.3813 58.1735 18.9227 57.9175 18.336L59.4055 17.472C59.6828 18.24 60.2748 18.624 61.1815 18.624C62.0882 18.624 62.5415 18.3253 62.5415 17.728C62.5415 17.472 62.3922 17.264 62.0935 17.104C61.8055 16.944 61.4482 16.8107 61.0215 16.704C60.6055 16.5867 60.1842 16.4533 59.7575 16.304C59.3308 16.1547 58.9682 15.9093 58.6695 15.568C58.3815 15.216 58.2375 14.7733 58.2375 14.24C58.2375 13.504 58.5148 12.912 59.0695 12.464C59.6348 12.016 60.3335 11.792 61.1655 11.792C61.8268 11.792 62.4135 11.9413 62.9255 12.24C63.4482 12.528 63.8482 12.9333 64.1255 13.456L62.6695 14.272C62.3922 13.664 61.8908 13.36 61.1655 13.36C60.8348 13.36 60.5575 13.4347 60.3335 13.584C60.1095 13.7227 59.9975 13.9307 59.9975 14.208ZM67.3588 10.48C67.1454 10.6933 66.8894 10.8 66.5908 10.8C66.2921 10.8 66.0308 10.6933 65.8068 10.48C65.5934 10.256 65.4868 9.99467 65.4868 9.696C65.4868 9.39733 65.5934 9.14133 65.8068 8.928C66.0201 8.704 66.2814 8.592 66.5908 8.592C66.9001 8.592 67.1614 8.704 67.3748 8.928C67.5881 9.14133 67.6948 9.39733 67.6948 9.696C67.6948 9.99467 67.5828 10.256 67.3588 10.48ZM65.7268 20V12H67.4548V20H65.7268ZM75.8291 12H77.5251V19.632C77.5251 20.848 77.1251 21.7813 76.3251 22.432C75.5251 23.0827 74.5545 23.408 73.4131 23.408C71.5678 23.408 70.3038 22.7627 69.6211 21.472L71.1091 20.608C71.5251 21.4293 72.3038 21.84 73.4451 21.84C74.1918 21.84 74.7731 21.6427 75.1891 21.248C75.6158 20.864 75.8291 20.3253 75.8291 19.632V18.656C75.1785 19.584 74.2505 20.048 73.0451 20.048C71.9145 20.048 70.9598 19.648 70.1811 18.848C69.4025 18.0373 69.0131 17.0613 69.0131 15.92C69.0131 14.7787 69.4025 13.808 70.1811 13.008C70.9598 12.1973 71.9145 11.792 73.0451 11.792C74.2505 11.792 75.1785 12.256 75.8291 13.184V12ZM71.4611 17.712C71.9518 18.192 72.5598 18.432 73.2851 18.432C74.0105 18.432 74.6131 18.192 75.0931 17.712C75.5838 17.232 75.8291 16.6347 75.8291 15.92C75.8291 15.2053 75.5838 14.608 75.0931 14.128C74.6131 13.648 74.0105 13.408 73.2851 13.408C72.5598 13.408 71.9518 13.648 71.4611 14.128C70.9811 14.608 70.7411 15.2053 70.7411 15.92C70.7411 16.6347 70.9811 17.232 71.4611 17.712ZM83.7473 11.792C84.6646 11.792 85.4059 12.0853 85.9713 12.672C86.5366 13.2587 86.8193 14.064 86.8193 15.088V20H85.0913V15.264C85.0913 14.6667 84.9313 14.208 84.6113 13.888C84.2913 13.568 83.8539 13.408 83.2993 13.408C82.6913 13.408 82.2006 13.6 81.8273 13.984C81.4539 14.3573 81.2673 14.9333 81.2673 15.712V20H79.5393V12H81.2673V13.024C81.7899 12.2027 82.6166 11.792 83.7473 11.792ZM97.1439 13.664H95.1599V17.504C95.1599 17.8347 95.2345 18.0747 95.3839 18.224C95.5332 18.3627 95.7519 18.4427 96.0399 18.464C96.3385 18.4747 96.7065 18.4693 97.1439 18.448V20C95.8212 20.16 94.8719 20.048 94.2959 19.664C93.7199 19.2693 93.4319 18.5493 93.4319 17.504V13.664H91.9599V12H93.4319V10.272L95.1599 9.76V12H97.1439V13.664ZM102.919 11.792C103.836 11.792 104.578 12.0853 105.143 12.672C105.708 13.2587 105.991 14.064 105.991 15.088V20H104.263V15.264C104.263 14.6667 104.103 14.208 103.783 13.888C103.463 13.568 103.026 13.408 102.471 13.408C101.863 13.408 101.372 13.6 100.999 13.984C100.626 14.3573 100.439 14.9333 100.439 15.712V20H98.7111V8.8H100.439V13.024C100.962 12.2027 101.788 11.792 102.919 11.792ZM109.484 10.48C109.27 10.6933 109.014 10.8 108.716 10.8C108.417 10.8 108.156 10.6933 107.932 10.48C107.718 10.256 107.612 9.99467 107.612 9.696C107.612 9.39733 107.718 9.14133 107.932 8.928C108.145 8.704 108.406 8.592 108.716 8.592C109.025 8.592 109.286 8.704 109.5 8.928C109.713 9.14133 109.82 9.39733 109.82 9.696C109.82 9.99467 109.708 10.256 109.484 10.48ZM107.852 20V12H109.58V20H107.852ZM115.794 11.792C116.711 11.792 117.453 12.0853 118.018 12.672C118.583 13.2587 118.866 14.064 118.866 15.088V20H117.138V15.264C117.138 14.6667 116.978 14.208 116.658 13.888C116.338 13.568 115.901 13.408 115.346 13.408C114.738 13.408 114.247 13.6 113.874 13.984C113.501 14.3573 113.314 14.9333 113.314 15.712V20H111.586V12H113.314V13.024C113.837 12.2027 114.663 11.792 115.794 11.792ZM127.799 20H125.735L122.455 16.304V20H120.727V8.8H122.455V15.536L125.559 12H127.671L124.151 15.92L127.799 20ZM130.593 10.48C130.38 10.6933 130.124 10.8 129.825 10.8C129.526 10.8 129.265 10.6933 129.041 10.48C128.828 10.256 128.721 9.99467 128.721 9.696C128.721 9.39733 128.828 9.14133 129.041 8.928C129.254 8.704 129.516 8.592 129.825 8.592C130.134 8.592 130.396 8.704 130.609 8.928C130.822 9.14133 130.929 9.39733 130.929 9.696C130.929 9.99467 130.817 10.256 130.593 10.48ZM128.961 20V12H130.689V20H128.961ZM136.904 11.792C137.821 11.792 138.562 12.0853 139.128 12.672C139.693 13.2587 139.976 14.064 139.976 15.088V20H138.248V15.264C138.248 14.6667 138.088 14.208 137.768 13.888C137.448 13.568 137.01 13.408 136.456 13.408C135.848 13.408 135.357 13.6 134.984 13.984C134.61 14.3573 134.424 14.9333 134.424 15.712V20H132.696V12H134.424V13.024C134.946 12.2027 135.773 11.792 136.904 11.792ZM148.204 12H149.9V19.632C149.9 20.848 149.5 21.7813 148.7 22.432C147.9 23.0827 146.929 23.408 145.788 23.408C143.943 23.408 142.679 22.7627 141.996 21.472L143.484 20.608C143.9 21.4293 144.679 21.84 145.82 21.84C146.567 21.84 147.148 21.6427 147.564 21.248C147.991 20.864 148.204 20.3253 148.204 19.632V18.656C147.553 19.584 146.625 20.048 145.42 20.048C144.289 20.048 143.335 19.648 142.556 18.848C141.777 18.0373 141.388 17.0613 141.388 15.92C141.388 14.7787 141.777 13.808 142.556 13.008C143.335 12.1973 144.289 11.792 145.42 11.792C146.625 11.792 147.553 12.256 148.204 13.184V12ZM143.836 17.712C144.327 18.192 144.935 18.432 145.66 18.432C146.385 18.432 146.988 18.192 147.468 17.712C147.959 17.232 148.204 16.6347 148.204 15.92C148.204 15.2053 147.959 14.608 147.468 14.128C146.988 13.648 146.385 13.408 145.66 13.408C144.935 13.408 144.327 13.648 143.836 14.128C143.356 14.608 143.116 15.2053 143.116 15.92C143.116 16.6347 143.356 17.232 143.836 17.712Z" fill="#2EC4B6"/>
<rect x="1" y="1" width="161" height="30" rx="15" stroke="#2EC4B6" stroke-width="2"/>
<g clip-path="url(#clip1_126_2501)">
<path d="M22 68.8333L27.8333 63L30.3333 65.5L24.5 71.3333L22 68.8333Z" stroke="#2EC4B6" stroke-width="1.5" stroke-linecap="round" stroke-linejoin="round"/>
<path d="M27.0001 63.8333L25.7501 57.5833L13.6667 54.6666L16.5834 66.75L22.8334 68L27.0001 63.8333Z" stroke="#2EC4B6" stroke-width="1.5" stroke-linecap="round" stroke-linejoin="round"/>
<path d="M13.6667 54.6666L19.9884 60.9883" stroke="#2EC4B6" stroke-width="1.5" stroke-linecap="round" stroke-linejoin="round"/>
<path d="M21.1667 63.8333C22.0871 63.8333 22.8333 63.0871 22.8333 62.1667C22.8333 61.2462 22.0871 60.5 21.1667 60.5C20.2462 60.5 19.5 61.2462 19.5 62.1667C19.5 63.0871 20.2462 63.8333 21.1667 63.8333Z" stroke="#2EC4B6" stroke-width="1.5" stroke-linecap="round" stroke-linejoin="round"/>
</g>
<path d="M45.304 66.152C44.5147 66.856 43.496 67.208 42.248 67.208C41 67.208 39.9813 66.856 39.192 66.152C38.4027 65.4373 38.008 64.4827 38.008 63.288V55.8H39.848V63.176C39.848 63.8587 40.0453 64.4027 40.44 64.808C40.8453 65.2133 41.448 65.416 42.248 65.416C43.048 65.416 43.6453 65.2133 44.04 64.808C44.4453 64.4027 44.648 63.8587 44.648 63.176V55.8H46.488V63.288C46.488 64.4827 46.0933 65.4373 45.304 66.152ZM49.9506 61.208C49.9506 61.4747 50.0946 61.688 50.3826 61.848C50.6813 61.9973 51.0386 62.1307 51.4546 62.248C51.8813 62.3547 52.308 62.4827 52.7346 62.632C53.1613 62.7813 53.5186 63.0373 53.8066 63.4C54.1053 63.752 54.2546 64.2 54.2546 64.744C54.2546 65.512 53.956 66.1147 53.3586 66.552C52.772 66.9893 52.0306 67.208 51.1346 67.208C50.3453 67.208 49.668 67.0427 49.1026 66.712C48.5373 66.3813 48.1266 65.9227 47.8706 65.336L49.3586 64.472C49.636 65.24 50.228 65.624 51.1346 65.624C52.0413 65.624 52.4946 65.3253 52.4946 64.728C52.4946 64.472 52.3453 64.264 52.0466 64.104C51.7586 63.944 51.4013 63.8107 50.9746 63.704C50.5586 63.5867 50.1373 63.4533 49.7106 63.304C49.284 63.1547 48.9213 62.9093 48.6226 62.568C48.3346 62.216 48.1906 61.7733 48.1906 61.24C48.1906 60.504 48.468 59.912 49.0226 59.464C49.588 59.016 50.2866 58.792 51.1186 58.792C51.78 58.792 52.3666 58.9413 52.8786 59.24C53.4013 59.528 53.8013 59.9333 54.0786 60.456L52.6226 61.272C52.3453 60.664 51.844 60.36 51.1186 60.36C50.788 60.36 50.5106 60.4347 50.2866 60.584C50.0626 60.7227 49.9506 60.9307 49.9506 61.208ZM56.9305 63.736C57.0585 64.344 57.3518 64.8133 57.8105 65.144C58.2692 65.464 58.8292 65.624 59.4905 65.624C60.4078 65.624 61.0958 65.2933 61.5545 64.632L62.9785 65.464C62.1892 66.6267 61.0212 67.208 59.4745 67.208C58.1732 67.208 57.1225 66.8133 56.3225 66.024C55.5225 65.224 55.1225 64.216 55.1225 63C55.1225 61.8053 55.5172 60.808 56.3065 60.008C57.0958 59.1973 58.1092 58.792 59.3465 58.792C60.5198 58.792 61.4798 59.2027 62.2265 60.024C62.9838 60.8453 63.3625 61.8427 63.3625 63.016C63.3625 63.1973 63.3412 63.4373 63.2985 63.736H56.9305ZM56.9145 62.328H61.6185C61.5012 61.6773 61.2292 61.1867 60.8025 60.856C60.3865 60.5253 59.8958 60.36 59.3305 60.36C58.6905 60.36 58.1572 60.536 57.7305 60.888C57.3038 61.24 57.0318 61.72 56.9145 62.328ZM66.611 60.344C67.0483 59.352 67.8697 58.856 69.075 58.856V60.728C68.4137 60.6853 67.8377 60.8453 67.347 61.208C66.8563 61.56 66.611 62.1467 66.611 62.968V67H64.883V59H66.611V60.344ZM76.0798 60.344C76.5171 59.352 77.3384 58.856 78.5438 58.856V60.728C77.8824 60.6853 77.3064 60.8453 76.8158 61.208C76.3251 61.56 76.0798 62.1467 76.0798 62.968V67H74.3518V59H76.0798V60.344ZM80.8055 63.736C80.9335 64.344 81.2268 64.8133 81.6855 65.144C82.1442 65.464 82.7042 65.624 83.3655 65.624C84.2828 65.624 84.9708 65.2933 85.4295 64.632L86.8535 65.464C86.0642 66.6267 84.8962 67.208 83.3495 67.208C82.0482 67.208 80.9975 66.8133 80.1975 66.024C79.3975 65.224 78.9975 64.216 78.9975 63C78.9975 61.8053 79.3922 60.808 80.1815 60.008C80.9708 59.1973 81.9842 58.792 83.2215 58.792C84.3948 58.792 85.3548 59.2027 86.1015 60.024C86.8588 60.8453 87.2375 61.8427 87.2375 63.016C87.2375 63.1973 87.2162 63.4373 87.1735 63.736H80.8055ZM80.7895 62.328H85.4935C85.3762 61.6773 85.1042 61.1867 84.6775 60.856C84.2615 60.5253 83.7708 60.36 83.2055 60.36C82.5655 60.36 82.0322 60.536 81.6055 60.888C81.1788 61.24 80.9068 61.72 80.7895 62.328ZM89.9975 61.208C89.9975 61.4747 90.1415 61.688 90.4295 61.848C90.7282 61.9973 91.0855 62.1307 91.5015 62.248C91.9282 62.3547 92.3548 62.4827 92.7815 62.632C93.2082 62.7813 93.5655 63.0373 93.8535 63.4C94.1522 63.752 94.3015 64.2 94.3015 64.744C94.3015 65.512 94.0028 66.1147 93.4055 66.552C92.8188 66.9893 92.0775 67.208 91.1815 67.208C90.3922 67.208 89.7148 67.0427 89.1495 66.712C88.5842 66.3813 88.1735 65.9227 87.9175 65.336L89.4055 64.472C89.6828 65.24 90.2748 65.624 91.1815 65.624C92.0882 65.624 92.5415 65.3253 92.5415 64.728C92.5415 64.472 92.3922 64.264 92.0935 64.104C91.8055 63.944 91.4482 63.8107 91.0215 63.704C90.6055 63.5867 90.1842 63.4533 89.7575 63.304C89.3308 63.1547 88.9682 62.9093 88.6695 62.568C88.3815 62.216 88.2375 61.7733 88.2375 61.24C88.2375 60.504 88.5148 59.912 89.0695 59.464C89.6348 59.016 90.3335 58.792 91.1655 58.792C91.8268 58.792 92.4135 58.9413 92.9255 59.24C93.4482 59.528 93.8482 59.9333 94.1255 60.456L92.6695 61.272C92.3922 60.664 91.8908 60.36 91.1655 60.36C90.8348 60.36 90.5575 60.4347 90.3335 60.584C90.1095 60.7227 89.9975 60.9307 89.9975 61.208ZM96.9774 63.736C97.1054 64.344 97.3987 64.8133 97.8574 65.144C98.316 65.464 98.876 65.624 99.5374 65.624C100.455 65.624 101.143 65.2933 101.601 64.632L103.025 65.464C102.236 66.6267 101.068 67.208 99.5214 67.208C98.22 67.208 97.1694 66.8133 96.3694 66.024C95.5694 65.224 95.1694 64.216 95.1694 63C95.1694 61.8053 95.564 60.808 96.3534 60.008C97.1427 59.1973 98.156 58.792 99.3934 58.792C100.567 58.792 101.527 59.2027 102.273 60.024C103.031 60.8453 103.409 61.8427 103.409 63.016C103.409 63.1973 103.388 63.4373 103.345 63.736H96.9774ZM96.9614 62.328H101.665C101.548 61.6773 101.276 61.1867 100.849 60.856C100.433 60.5253 99.9427 60.36 99.3774 60.36C98.7374 60.36 98.204 60.536 97.7774 60.888C97.3507 61.24 97.0787 61.72 96.9614 62.328ZM111.219 59H112.947V67H111.219V65.848C110.568 66.7547 109.635 67.208 108.419 67.208C107.32 67.208 106.382 66.8027 105.603 65.992C104.824 65.1707 104.435 64.1733 104.435 63C104.435 61.816 104.824 60.8187 105.603 60.008C106.382 59.1973 107.32 58.792 108.419 58.792C109.635 58.792 110.568 59.24 111.219 60.136V59ZM106.883 64.84C107.363 65.32 107.966 65.56 108.691 65.56C109.416 65.56 110.019 65.32 110.499 64.84C110.979 64.3493 111.219 63.736 111.219 63C111.219 62.264 110.979 61.656 110.499 61.176C110.019 60.6853 109.416 60.44 108.691 60.44C107.966 60.44 107.363 60.6853 106.883 61.176C106.403 61.656 106.163 62.264 106.163 63C106.163 63.736 106.403 64.3493 106.883 64.84ZM116.689 60.344C117.126 59.352 117.948 58.856 119.153 58.856V60.728C118.492 60.6853 117.916 60.8453 117.425 61.208C116.934 61.56 116.689 62.1467 116.689 62.968V67H114.961V59H116.689V60.344ZM123.831 67.208C122.626 67.208 121.618 66.8027 120.807 65.992C120.007 65.1813 119.607 64.184 119.607 63C119.607 61.8053 120.007 60.808 120.807 60.008C121.618 59.1973 122.626 58.792 123.831 58.792C124.61 58.792 125.319 58.9787 125.959 59.352C126.599 59.7253 127.079 60.2267 127.399 60.856L125.911 61.72C125.73 61.336 125.452 61.0373 125.079 60.824C124.716 60.6 124.295 60.488 123.815 60.488C123.111 60.488 122.519 60.728 122.039 61.208C121.57 61.688 121.335 62.2853 121.335 63C121.335 63.7147 121.57 64.312 122.039 64.792C122.519 65.272 123.111 65.512 123.815 65.512C124.284 65.512 124.706 65.4 125.079 65.176C125.463 64.952 125.751 64.6533 125.943 64.28L127.431 65.128C127.09 65.768 126.599 66.2747 125.959 66.648C125.319 67.0213 124.61 67.208 123.831 67.208ZM132.888 58.792C133.805 58.792 134.547 59.0853 135.112 59.672C135.677 60.2587 135.96 61.064 135.96 62.088V67H134.232V62.264C134.232 61.6667 134.072 61.208 133.752 60.888C133.432 60.568 132.995 60.408 132.44 60.408C131.832 60.408 131.341 60.6 130.968 60.984C130.595 61.3573 130.408 61.9333 130.408 62.712V67H128.68V55.8H130.408V60.024C130.931 59.2027 131.757 58.792 132.888 58.792Z" fill="#2EC4B6"/>
<rect x="1" y="48" width="147" height="30" rx="15" stroke="#2EC4B6" stroke-width="2"/>
<g clip-path="url(#clip2_126_2501)">
<path d="M181 68.8333L186.833 63L189.333 65.5L183.5 71.3333L181 68.8333Z" stroke="#2EC4B6" stroke-width="1.5" stroke-linecap="round" stroke-linejoin="round"/>
<path d="M186 63.8333L184.75 57.5833L172.667 54.6666L175.583 66.75L181.833 68L186 63.8333Z" stroke="#2EC4B6" stroke-width="1.5" stroke-linecap="round" stroke-linejoin="round"/>
<path d="M172.667 54.6666L178.988 60.9883" stroke="#2EC4B6" stroke-width="1.5" stroke-linecap="round" stroke-linejoin="round"/>
<path d="M180.167 63.8333C181.087 63.8333 181.833 63.0871 181.833 62.1667C181.833 61.2462 181.087 60.5 180.167 60.5C179.246 60.5 178.5 61.2462 178.5 62.1667C178.5 63.0871 179.246 63.8333 180.167 63.8333Z" stroke="#2EC4B6" stroke-width="1.5" stroke-linecap="round" stroke-linejoin="round"/>
</g>
<path d="M201.248 55.8C202.304 55.8 203.184 56.152 203.888 56.856C204.603 57.56 204.96 58.4347 204.96 59.48C204.96 60.5147 204.603 61.3893 203.888 62.104C203.184 62.808 202.304 63.16 201.248 63.16H198.96V67H197.12V55.8H201.248ZM201.248 61.432C201.792 61.432 202.24 61.2507 202.592 60.888C202.944 60.5147 203.12 60.0453 203.12 59.48C203.12 58.9147 202.944 58.4507 202.592 58.088C202.24 57.7147 201.792 57.528 201.248 57.528H198.96V61.432H201.248ZM208.017 60.344C208.455 59.352 209.276 58.856 210.481 58.856V60.728C209.82 60.6853 209.244 60.8453 208.753 61.208C208.263 61.56 208.017 62.1467 208.017 62.968V67H206.289V59H208.017V60.344ZM215.159 67.208C213.986 67.208 212.988 66.8027 212.167 65.992C211.346 65.1813 210.935 64.184 210.935 63C210.935 61.816 211.346 60.8187 212.167 60.008C212.988 59.1973 213.986 58.792 215.159 58.792C216.343 58.792 217.34 59.1973 218.151 60.008C218.972 60.8187 219.383 61.816 219.383 63C219.383 64.184 218.972 65.1813 218.151 65.992C217.34 66.8027 216.343 67.208 215.159 67.208ZM213.383 64.808C213.863 65.288 214.455 65.528 215.159 65.528C215.863 65.528 216.455 65.288 216.935 64.808C217.415 64.328 217.655 63.7253 217.655 63C217.655 62.2747 217.415 61.672 216.935 61.192C216.455 60.712 215.863 60.472 215.159 60.472C214.455 60.472 213.863 60.712 213.383 61.192C212.903 61.672 212.663 62.2747 212.663 63C212.663 63.7253 212.903 64.328 213.383 64.808ZM225.253 60.664H223.269V64.504C223.269 64.8347 223.344 65.0747 223.493 65.224C223.643 65.3627 223.861 65.4427 224.149 65.464C224.448 65.4747 224.816 65.4693 225.253 65.448V67C223.931 67.16 222.981 67.048 222.405 66.664C221.829 66.2693 221.541 65.5493 221.541 64.504V60.664H220.069V59H221.541V57.272L223.269 56.76V59H225.253V60.664ZM230.268 67.208C229.095 67.208 228.098 66.8027 227.276 65.992C226.455 65.1813 226.044 64.184 226.044 63C226.044 61.816 226.455 60.8187 227.276 60.008C228.098 59.1973 229.095 58.792 230.268 58.792C231.452 58.792 232.45 59.1973 233.26 60.008C234.082 60.8187 234.492 61.816 234.492 63C234.492 64.184 234.082 65.1813 233.26 65.992C232.45 66.8027 231.452 67.208 230.268 67.208ZM228.492 64.808C228.972 65.288 229.564 65.528 230.268 65.528C230.972 65.528 231.564 65.288 232.044 64.808C232.524 64.328 232.764 63.7253 232.764 63C232.764 62.2747 232.524 61.672 232.044 61.192C231.564 60.712 230.972 60.472 230.268 60.472C229.564 60.472 228.972 60.712 228.492 61.192C228.012 61.672 227.772 62.2747 227.772 63C227.772 63.7253 228.012 64.328 228.492 64.808ZM240.363 60.664H238.379V64.504C238.379 64.8347 238.453 65.0747 238.603 65.224C238.752 65.3627 238.971 65.4427 239.259 65.464C239.557 65.4747 239.925 65.4693 240.363 65.448V67C239.04 67.16 238.091 67.048 237.515 66.664C236.939 66.2693 236.651 65.5493 236.651 64.504V60.664H235.179V59H236.651V57.272L238.379 56.76V59H240.363V60.664ZM243.562 57.48C243.349 57.6933 243.093 57.8 242.794 57.8C242.495 57.8 242.234 57.6933 242.01 57.48C241.797 57.256 241.69 56.9947 241.69 56.696C241.69 56.3973 241.797 56.1413 242.01 55.928C242.223 55.704 242.485 55.592 242.794 55.592C243.103 55.592 243.365 55.704 243.578 55.928C243.791 56.1413 243.898 56.3973 243.898 56.696C243.898 56.9947 243.786 57.256 243.562 57.48ZM241.93 67V59H243.658V67H241.93ZM250.192 58.792C251.291 58.792 252.23 59.2027 253.008 60.024C253.787 60.8347 254.176 61.8267 254.176 63C254.176 64.184 253.787 65.1813 253.008 65.992C252.23 66.8027 251.291 67.208 250.192 67.208C248.976 67.208 248.043 66.76 247.392 65.864V70.2H245.664V59H247.392V60.152C248.043 59.2453 248.976 58.792 250.192 58.792ZM248.112 64.84C248.592 65.32 249.195 65.56 249.92 65.56C250.646 65.56 251.248 65.32 251.728 64.84C252.208 64.3493 252.448 63.736 252.448 63C252.448 62.264 252.208 61.656 251.728 61.176C251.248 60.6853 250.646 60.44 249.92 60.44C249.195 60.44 248.592 60.6853 248.112 61.176C247.632 61.656 247.392 62.264 247.392 63C247.392 63.736 247.632 64.3493 248.112 64.84ZM262.078 59H263.806V67H262.078V65.848C261.428 66.7547 260.494 67.208 259.278 67.208C258.18 67.208 257.241 66.8027 256.462 65.992C255.684 65.1707 255.294 64.1733 255.294 63C255.294 61.816 255.684 60.8187 256.462 60.008C257.241 59.1973 258.18 58.792 259.278 58.792C260.494 58.792 261.428 59.24 262.078 60.136V59ZM257.742 64.84C258.222 65.32 258.825 65.56 259.55 65.56C260.276 65.56 260.878 65.32 261.358 64.84C261.838 64.3493 262.078 63.736 262.078 63C262.078 62.264 261.838 61.656 261.358 61.176C260.878 60.6853 260.276 60.44 259.55 60.44C258.825 60.44 258.222 60.6853 257.742 61.176C257.262 61.656 257.022 62.264 257.022 63C257.022 63.736 257.262 64.3493 257.742 64.84ZM272.157 55.8H273.885V67H272.157V65.848C271.506 66.7547 270.573 67.208 269.357 67.208C268.258 67.208 267.319 66.8027 266.541 65.992C265.762 65.1707 265.373 64.1733 265.373 63C265.373 61.816 265.762 60.8187 266.541 60.008C267.319 59.1973 268.258 58.792 269.357 58.792C270.573 58.792 271.506 59.24 272.157 60.136V55.8ZM267.821 64.84C268.301 65.32 268.903 65.56 269.629 65.56C270.354 65.56 270.957 65.32 271.437 64.84C271.917 64.3493 272.157 63.736 272.157 63C272.157 62.264 271.917 61.656 271.437 61.176C270.957 60.6853 270.354 60.44 269.629 60.44C268.903 60.44 268.301 60.6853 267.821 61.176C267.341 61.656 267.101 62.264 267.101 63C267.101 63.736 267.341 64.3493 267.821 64.84ZM279.675 67.208C278.501 67.208 277.504 66.8027 276.683 65.992C275.861 65.1813 275.451 64.184 275.451 63C275.451 61.816 275.861 60.8187 276.683 60.008C277.504 59.1973 278.501 58.792 279.675 58.792C280.859 58.792 281.856 59.1973 282.667 60.008C283.488 60.8187 283.899 61.816 283.899 63C283.899 64.184 283.488 65.1813 282.667 65.992C281.856 66.8027 280.859 67.208 279.675 67.208ZM277.899 64.808C278.379 65.288 278.971 65.528 279.675 65.528C280.379 65.528 280.971 65.288 281.451 64.808C281.931 64.328 282.171 63.7253 282.171 63C282.171 62.2747 281.931 61.672 281.451 61.192C280.971 60.712 280.379 60.472 279.675 60.472C278.971 60.472 278.379 60.712 277.899 61.192C277.419 61.672 277.179 62.2747 277.179 63C277.179 63.7253 277.419 64.328 277.899 64.808Z" fill="#2EC4B6"/>
<rect x="160" y="48" width="136" height="30" rx="15" stroke="#2EC4B6" stroke-width="2"/>
<g clip-path="url(#clip3_126_2501)">
<path d="M22 115.833L27.8333 110L30.3333 112.5L24.5 118.333L22 115.833Z" stroke="#2EC4B6" stroke-width="1.5" stroke-linecap="round" stroke-linejoin="round"/>
<path d="M27.0001 110.833L25.7501 104.583L13.6667 101.667L16.5834 113.75L22.8334 115L27.0001 110.833Z" stroke="#2EC4B6" stroke-width="1.5" stroke-linecap="round" stroke-linejoin="round"/>
<path d="M13.6667 101.667L19.9884 107.988" stroke="#2EC4B6" stroke-width="1.5" stroke-linecap="round" stroke-linejoin="round"/>
<path d="M21.1667 110.833C22.0871 110.833 22.8333 110.087 22.8333 109.167C22.8333 108.246 22.0871 107.5 21.1667 107.5C20.2462 107.5 19.5 108.246 19.5 109.167C19.5 110.087 20.2462 110.833 21.1667 110.833Z" stroke="#2EC4B6" stroke-width="1.5" stroke-linecap="round" stroke-linejoin="round"/>
</g>
<path d="M42.52 102.8C44.056 102.8 45.3307 103.339 46.344 104.416C47.368 105.493 47.88 106.821 47.88 108.4C47.88 109.968 47.368 111.296 46.344 112.384C45.3307 113.461 44.056 114 42.52 114H38.12V102.8H42.52ZM42.52 112.24C43.576 112.24 44.4347 111.877 45.096 111.152C45.768 110.427 46.104 109.509 46.104 108.4C46.104 107.28 45.768 106.363 45.096 105.648C44.4347 104.923 43.576 104.56 42.52 104.56H39.96V112.24H42.52ZM50.8055 110.736C50.9335 111.344 51.2268 111.813 51.6855 112.144C52.1442 112.464 52.7042 112.624 53.3655 112.624C54.2828 112.624 54.9708 112.293 55.4295 111.632L56.8535 112.464C56.0642 113.627 54.8962 114.208 53.3495 114.208C52.0482 114.208 50.9975 113.813 50.1975 113.024C49.3975 112.224 48.9975 111.216 48.9975 110C48.9975 108.805 49.3922 107.808 50.1815 107.008C50.9708 106.197 51.9842 105.792 53.2215 105.792C54.3948 105.792 55.3548 106.203 56.1015 107.024C56.8588 107.845 57.2375 108.843 57.2375 110.016C57.2375 110.197 57.2162 110.437 57.1735 110.736H50.8055ZM50.7895 109.328H55.4935C55.3762 108.677 55.1042 108.187 54.6775 107.856C54.2615 107.525 53.7708 107.36 53.2055 107.36C52.5655 107.36 52.0322 107.536 51.6055 107.888C51.1788 108.24 50.9068 108.72 50.7895 109.328ZM59.9975 108.208C59.9975 108.475 60.1415 108.688 60.4295 108.848C60.7282 108.997 61.0855 109.131 61.5015 109.248C61.9282 109.355 62.3548 109.483 62.7815 109.632C63.2082 109.781 63.5655 110.037 63.8535 110.4C64.1522 110.752 64.3015 111.2 64.3015 111.744C64.3015 112.512 64.0028 113.115 63.4055 113.552C62.8188 113.989 62.0775 114.208 61.1815 114.208C60.3922 114.208 59.7148 114.043 59.1495 113.712C58.5842 113.381 58.1735 112.923 57.9175 112.336L59.4055 111.472C59.6828 112.24 60.2748 112.624 61.1815 112.624C62.0882 112.624 62.5415 112.325 62.5415 111.728C62.5415 111.472 62.3922 111.264 62.0935 111.104C61.8055 110.944 61.4482 110.811 61.0215 110.704C60.6055 110.587 60.1842 110.453 59.7575 110.304C59.3308 110.155 58.9682 109.909 58.6695 109.568C58.3815 109.216 58.2375 108.773 58.2375 108.24C58.2375 107.504 58.5148 106.912 59.0695 106.464C59.6348 106.016 60.3335 105.792 61.1655 105.792C61.8268 105.792 62.4135 105.941 62.9255 106.24C63.4482 106.528 63.8482 106.933 64.1255 107.456L62.6695 108.272C62.3922 107.664 61.8908 107.36 61.1655 107.36C60.8348 107.36 60.5575 107.435 60.3335 107.584C60.1095 107.723 59.9975 107.931 59.9975 108.208ZM67.3588 104.48C67.1454 104.693 66.8894 104.8 66.5908 104.8C66.2921 104.8 66.0308 104.693 65.8068 104.48C65.5934 104.256 65.4868 103.995 65.4868 103.696C65.4868 103.397 65.5934 103.141 65.8068 102.928C66.0201 102.704 66.2814 102.592 66.5908 102.592C66.9001 102.592 67.1614 102.704 67.3748 102.928C67.5881 103.141 67.6948 103.397 67.6948 103.696C67.6948 103.995 67.5828 104.256 67.3588 104.48ZM65.7268 114V106H67.4548V114H65.7268ZM75.8291 106H77.5251V113.632C77.5251 114.848 77.1251 115.781 76.3251 116.432C75.5251 117.083 74.5545 117.408 73.4131 117.408C71.5678 117.408 70.3038 116.763 69.6211 115.472L71.1091 114.608C71.5251 115.429 72.3038 115.84 73.4451 115.84C74.1918 115.84 74.7731 115.643 75.1891 115.248C75.6158 114.864 75.8291 114.325 75.8291 113.632V112.656C75.1785 113.584 74.2505 114.048 73.0451 114.048C71.9145 114.048 70.9598 113.648 70.1811 112.848C69.4025 112.037 69.0131 111.061 69.0131 109.92C69.0131 108.779 69.4025 107.808 70.1811 107.008C70.9598 106.197 71.9145 105.792 73.0451 105.792C74.2505 105.792 75.1785 106.256 75.8291 107.184V106ZM71.4611 111.712C71.9518 112.192 72.5598 112.432 73.2851 112.432C74.0105 112.432 74.6131 112.192 75.0931 111.712C75.5838 111.232 75.8291 110.635 75.8291 109.92C75.8291 109.205 75.5838 108.608 75.0931 108.128C74.6131 107.648 74.0105 107.408 73.2851 107.408C72.5598 107.408 71.9518 107.648 71.4611 108.128C70.9811 108.608 70.7411 109.205 70.7411 109.92C70.7411 110.635 70.9811 111.232 71.4611 111.712ZM83.7473 105.792C84.6646 105.792 85.4059 106.085 85.9713 106.672C86.5366 107.259 86.8193 108.064 86.8193 109.088V114H85.0913V109.264C85.0913 108.667 84.9313 108.208 84.6113 107.888C84.2913 107.568 83.8539 107.408 83.2993 107.408C82.6913 107.408 82.2006 107.6 81.8273 107.984C81.4539 108.357 81.2673 108.933 81.2673 109.712V114H79.5393V106H81.2673V107.024C81.7899 106.203 82.6166 105.792 83.7473 105.792ZM94.2319 108.208C94.2319 108.475 94.3759 108.688 94.6639 108.848C94.9625 108.997 95.3199 109.131 95.7359 109.248C96.1625 109.355 96.5892 109.483 97.0159 109.632C97.4425 109.781 97.7999 110.037 98.0879 110.4C98.3865 110.752 98.5359 111.2 98.5359 111.744C98.5359 112.512 98.2372 113.115 97.6399 113.552C97.0532 113.989 96.3119 114.208 95.4159 114.208C94.6265 114.208 93.9492 114.043 93.3839 113.712C92.8185 113.381 92.4079 112.923 92.1519 112.336L93.6399 111.472C93.9172 112.24 94.5092 112.624 95.4159 112.624C96.3225 112.624 96.7759 112.325 96.7759 111.728C96.7759 111.472 96.6265 111.264 96.3279 111.104C96.0399 110.944 95.6825 110.811 95.2559 110.704C94.8399 110.587 94.4185 110.453 93.9919 110.304C93.5652 110.155 93.2025 109.909 92.9039 109.568C92.6159 109.216 92.4719 108.773 92.4719 108.24C92.4719 107.504 92.7492 106.912 93.3039 106.464C93.8692 106.016 94.5679 105.792 95.3999 105.792C96.0612 105.792 96.6479 105.941 97.1599 106.24C97.6825 106.528 98.0825 106.933 98.3599 107.456L96.9039 108.272C96.6265 107.664 96.1252 107.36 95.3999 107.36C95.0692 107.36 94.7919 107.435 94.5679 107.584C94.3439 107.723 94.2319 107.931 94.2319 108.208ZM105.025 106H106.865L103.793 114.256C103.025 116.325 101.724 117.307 99.889 117.2V115.584C100.433 115.616 100.87 115.499 101.201 115.232C101.532 114.976 101.804 114.571 102.017 114.016L102.097 113.856L98.705 106H100.593L102.977 111.808L105.025 106ZM109.013 108.208C109.013 108.475 109.157 108.688 109.445 108.848C109.744 108.997 110.101 109.131 110.517 109.248C110.944 109.355 111.37 109.483 111.797 109.632C112.224 109.781 112.581 110.037 112.869 110.4C113.168 110.752 113.317 111.2 113.317 111.744C113.317 112.512 113.018 113.115 112.421 113.552C111.834 113.989 111.093 114.208 110.197 114.208C109.408 114.208 108.73 114.043 108.165 113.712C107.6 113.381 107.189 112.923 106.933 112.336L108.421 111.472C108.698 112.24 109.29 112.624 110.197 112.624C111.104 112.624 111.557 112.325 111.557 111.728C111.557 111.472 111.408 111.264 111.109 111.104C110.821 110.944 110.464 110.811 110.037 110.704C109.621 110.587 109.2 110.453 108.773 110.304C108.346 110.155 107.984 109.909 107.685 109.568C107.397 109.216 107.253 108.773 107.253 108.24C107.253 107.504 107.53 106.912 108.085 106.464C108.65 106.016 109.349 105.792 110.181 105.792C110.842 105.792 111.429 105.941 111.941 106.24C112.464 106.528 112.864 106.933 113.141 107.456L111.685 108.272C111.408 107.664 110.906 107.36 110.181 107.36C109.85 107.36 109.573 107.435 109.349 107.584C109.125 107.723 109.013 107.931 109.013 108.208ZM118.988 107.664H117.004V111.504C117.004 111.835 117.078 112.075 117.228 112.224C117.377 112.363 117.596 112.443 117.884 112.464C118.182 112.475 118.55 112.469 118.988 112.448V114C117.665 114.16 116.716 114.048 116.14 113.664C115.564 113.269 115.276 112.549 115.276 111.504V107.664H113.804V106H115.276V104.272L117.004 103.76V106H118.988V107.664ZM121.587 110.736C121.715 111.344 122.008 111.813 122.467 112.144C122.925 112.464 123.485 112.624 124.147 112.624C125.064 112.624 125.752 112.293 126.211 111.632L127.635 112.464C126.845 113.627 125.677 114.208 124.131 114.208C122.829 114.208 121.779 113.813 120.979 113.024C120.179 112.224 119.779 111.216 119.779 110C119.779 108.805 120.173 107.808 120.963 107.008C121.752 106.197 122.765 105.792 124.003 105.792C125.176 105.792 126.136 106.203 126.883 107.024C127.64 107.845 128.019 108.843 128.019 110.016C128.019 110.197 127.997 110.437 127.955 110.736H121.587ZM121.571 109.328H126.275C126.157 108.677 125.885 108.187 125.459 107.856C125.043 107.525 124.552 107.36 123.987 107.36C123.347 107.36 122.813 107.536 122.387 107.888C121.96 108.24 121.688 108.72 121.571 109.328ZM138.275 105.792C139.182 105.792 139.913 106.085 140.467 106.672C141.022 107.259 141.299 108.048 141.299 109.04V114H139.571V109.152C139.571 108.597 139.433 108.171 139.155 107.872C138.878 107.563 138.499 107.408 138.019 107.408C137.486 107.408 137.059 107.584 136.739 107.936C136.43 108.288 136.275 108.816 136.275 109.52V114H134.547V109.152C134.547 108.597 134.414 108.171 134.147 107.872C133.891 107.563 133.523 107.408 133.043 107.408C132.521 107.408 132.094 107.589 131.763 107.952C131.433 108.304 131.267 108.827 131.267 109.52V114H129.539V106H131.267V106.96C131.779 106.181 132.542 105.792 133.555 105.792C134.579 105.792 135.337 106.213 135.827 107.056C136.361 106.213 137.177 105.792 138.275 105.792Z" fill="#2EC4B6"/>
<rect x="1" y="95" width="153" height="30" rx="15" stroke="#2EC4B6" stroke-width="2"/>
<g clip-path="url(#clip4_126_2501)">
<path d="M22 162.833L27.8333 157L30.3333 159.5L24.5 165.333L22 162.833Z" stroke="#2EC4B6" stroke-width="1.5" stroke-linecap="round" stroke-linejoin="round"/>
<path d="M27.0001 157.833L25.7501 151.583L13.6667 148.667L16.5834 160.75L22.8334 162L27.0001 157.833Z" stroke="#2EC4B6" stroke-width="1.5" stroke-linecap="round" stroke-linejoin="round"/>
<path d="M13.6667 148.667L19.9884 154.988" stroke="#2EC4B6" stroke-width="1.5" stroke-linecap="round" stroke-linejoin="round"/>
<path d="M21.1667 157.833C22.0871 157.833 22.8333 157.087 22.8333 156.167C22.8333 155.246 22.0871 154.5 21.1667 154.5C20.2462 154.5 19.5 155.246 19.5 156.167C19.5 157.087 20.2462 157.833 21.1667 157.833Z" stroke="#2EC4B6" stroke-width="1.5" stroke-linecap="round" stroke-linejoin="round"/>
</g>
<path d="M42.52 149.8C44.056 149.8 45.3307 150.339 46.344 151.416C47.368 152.493 47.88 153.821 47.88 155.4C47.88 156.968 47.368 158.296 46.344 159.384C45.3307 160.461 44.056 161 42.52 161H38.12V149.8H42.52ZM42.52 159.24C43.576 159.24 44.4347 158.877 45.096 158.152C45.768 157.427 46.104 156.509 46.104 155.4C46.104 154.28 45.768 153.363 45.096 152.648C44.4347 151.923 43.576 151.56 42.52 151.56H39.96V159.24H42.52ZM51.0775 151.48C50.8642 151.693 50.6082 151.8 50.3095 151.8C50.0108 151.8 49.7495 151.693 49.5255 151.48C49.3122 151.256 49.2055 150.995 49.2055 150.696C49.2055 150.397 49.3122 150.141 49.5255 149.928C49.7388 149.704 50.0002 149.592 50.3095 149.592C50.6188 149.592 50.8802 149.704 51.0935 149.928C51.3068 150.141 51.4135 150.397 51.4135 150.696C51.4135 150.995 51.3015 151.256 51.0775 151.48ZM49.4455 161V153H51.1735V161H49.4455ZM54.685 155.208C54.685 155.475 54.829 155.688 55.117 155.848C55.4157 155.997 55.773 156.131 56.189 156.248C56.6157 156.355 57.0423 156.483 57.469 156.632C57.8957 156.781 58.253 157.037 58.541 157.4C58.8397 157.752 58.989 158.2 58.989 158.744C58.989 159.512 58.6903 160.115 58.093 160.552C57.5063 160.989 56.765 161.208 55.869 161.208C55.0797 161.208 54.4023 161.043 53.837 160.712C53.2717 160.381 52.861 159.923 52.605 159.336L54.093 158.472C54.3703 159.24 54.9623 159.624 55.869 159.624C56.7757 159.624 57.229 159.325 57.229 158.728C57.229 158.472 57.0797 158.264 56.781 158.104C56.493 157.944 56.1357 157.811 55.709 157.704C55.293 157.587 54.8717 157.453 54.445 157.304C54.0183 157.155 53.6557 156.909 53.357 156.568C53.069 156.216 52.925 155.773 52.925 155.24C52.925 154.504 53.2023 153.912 53.757 153.464C54.3223 153.016 55.021 152.792 55.853 152.792C56.5143 152.792 57.101 152.941 57.613 153.24C58.1357 153.528 58.5357 153.933 58.813 154.456L57.357 155.272C57.0797 154.664 56.5783 154.36 55.853 154.36C55.5223 154.36 55.245 154.435 55.021 154.584C54.797 154.723 54.685 154.931 54.685 155.208ZM61.6649 157.736C61.7929 158.344 62.0862 158.813 62.5449 159.144C63.0035 159.464 63.5635 159.624 64.2249 159.624C65.1422 159.624 65.8302 159.293 66.2889 158.632L67.7129 159.464C66.9235 160.627 65.7555 161.208 64.2089 161.208C62.9075 161.208 61.8569 160.813 61.0569 160.024C60.2569 159.224 59.8569 158.216 59.8569 157C59.8569 155.805 60.2515 154.808 61.0409 154.008C61.8302 153.197 62.8435 152.792 64.0809 152.792C65.2542 152.792 66.2142 153.203 66.9609 154.024C67.7182 154.845 68.0969 155.843 68.0969 157.016C68.0969 157.197 68.0755 157.437 68.0329 157.736H61.6649ZM61.6489 156.328H66.3529C66.2355 155.677 65.9635 155.187 65.5369 154.856C65.1209 154.525 64.6302 154.36 64.0649 154.36C63.4249 154.36 62.8915 154.536 62.4649 154.888C62.0382 155.24 61.7662 155.72 61.6489 156.328ZM73.2174 151.48C72.8654 151.203 72.6094 151.085 72.4494 151.128C72.2894 151.16 72.2094 151.4 72.2094 151.848H70.7854C70.7854 151.101 70.924 150.541 71.2014 150.168C71.4787 149.795 71.8147 149.613 72.2094 149.624C72.6147 149.635 73.0414 149.789 73.4894 150.088C73.8307 150.365 74.0814 150.488 74.2414 150.456C74.4014 150.413 74.4814 150.168 74.4814 149.72H75.9054C75.9054 150.467 75.7667 151.027 75.4894 151.4C75.2227 151.773 74.8867 151.955 74.4814 151.944C74.0867 151.933 73.6654 151.779 73.2174 151.48ZM73.8254 152.792C74.7427 152.792 75.484 153.085 76.0494 153.672C76.6147 154.259 76.8974 155.064 76.8974 156.088V161H75.1694V156.264C75.1694 155.667 75.0094 155.208 74.6894 154.888C74.3694 154.568 73.932 154.408 73.3774 154.408C72.7694 154.408 72.2787 154.6 71.9054 154.984C71.532 155.357 71.3454 155.933 71.3454 156.712V161H69.6174V153H71.3454V154.024C71.868 153.203 72.6947 152.792 73.8254 152.792ZM82.534 161.208C81.3607 161.208 80.3633 160.803 79.542 159.992C78.7207 159.181 78.31 158.184 78.31 157C78.31 155.816 78.7207 154.819 79.542 154.008C80.3633 153.197 81.3607 152.792 82.534 152.792C83.718 152.792 84.7153 153.197 85.526 154.008C86.3473 154.819 86.758 155.816 86.758 157C86.758 158.184 86.3473 159.181 85.526 159.992C84.7153 160.803 83.718 161.208 82.534 161.208ZM80.758 158.808C81.238 159.288 81.83 159.528 82.534 159.528C83.238 159.528 83.83 159.288 84.31 158.808C84.79 158.328 85.03 157.725 85.03 157C85.03 156.275 84.79 155.672 84.31 155.192C83.83 154.712 83.238 154.472 82.534 154.472C81.83 154.472 81.238 154.712 80.758 155.192C80.278 155.672 80.038 156.275 80.038 157C80.038 157.725 80.278 158.328 80.758 158.808ZM96.0965 161.208C94.8912 161.208 93.8832 160.803 93.0725 159.992C92.2725 159.181 91.8725 158.184 91.8725 157C91.8725 155.805 92.2725 154.808 93.0725 154.008C93.8832 153.197 94.8912 152.792 96.0965 152.792C96.8752 152.792 97.5845 152.979 98.2245 153.352C98.8645 153.725 99.3445 154.227 99.6645 154.856L98.1765 155.72C97.9952 155.336 97.7178 155.037 97.3445 154.824C96.9818 154.6 96.5605 154.488 96.0805 154.488C95.3765 154.488 94.7845 154.728 94.3045 155.208C93.8352 155.688 93.6005 156.285 93.6005 157C93.6005 157.715 93.8352 158.312 94.3045 158.792C94.7845 159.272 95.3765 159.512 96.0805 159.512C96.5498 159.512 96.9712 159.4 97.3445 159.176C97.7285 158.952 98.0165 158.653 98.2085 158.28L99.6965 159.128C99.3552 159.768 98.8645 160.275 98.2245 160.648C97.5845 161.021 96.8752 161.208 96.0965 161.208ZM102.181 157.736C102.309 158.344 102.602 158.813 103.061 159.144C103.519 159.464 104.079 159.624 104.741 159.624C105.658 159.624 106.346 159.293 106.805 158.632L108.229 159.464C107.439 160.627 106.271 161.208 104.725 161.208C103.423 161.208 102.373 160.813 101.573 160.024C100.773 159.224 100.373 158.216 100.373 157C100.373 155.805 100.767 154.808 101.557 154.008C102.346 153.197 103.359 152.792 104.597 152.792C105.77 152.792 106.73 153.203 107.477 154.024C108.234 154.845 108.613 155.843 108.613 157.016C108.613 157.197 108.591 157.437 108.549 157.736H102.181ZM102.164 156.328H106.869C106.751 155.677 106.479 155.187 106.053 154.856C105.637 154.525 105.146 154.36 104.581 154.36C103.941 154.36 103.407 154.536 102.981 154.888C102.554 155.24 102.282 155.72 102.164 156.328ZM114.341 152.792C115.258 152.792 116 153.085 116.565 153.672C117.13 154.259 117.413 155.064 117.413 156.088V161H115.685V156.264C115.685 155.667 115.525 155.208 115.205 154.888C114.885 154.568 114.448 154.408 113.893 154.408C113.285 154.408 112.794 154.6 112.421 154.984C112.048 155.357 111.861 155.933 111.861 156.712V161H110.133V153H111.861V154.024C112.384 153.203 113.21 152.792 114.341 152.792ZM123.738 154.664H121.754V158.504C121.754 158.835 121.828 159.075 121.978 159.224C122.127 159.363 122.346 159.443 122.634 159.464C122.932 159.475 123.3 159.469 123.738 159.448V161C122.415 161.16 121.466 161.048 120.89 160.664C120.314 160.269 120.026 159.549 120.026 158.504V154.664H118.554V153H120.026V151.272L121.754 150.76V153H123.738V154.664ZM127.111 154.344C127.548 153.352 128.37 152.856 129.575 152.856V154.728C128.914 154.685 128.338 154.845 127.847 155.208C127.356 155.56 127.111 156.147 127.111 156.968V161H125.383V153H127.111V154.344ZM136.813 153H138.541V161H136.813V159.848C136.162 160.755 135.229 161.208 134.013 161.208C132.914 161.208 131.975 160.803 131.197 159.992C130.418 159.171 130.029 158.173 130.029 157C130.029 155.816 130.418 154.819 131.197 154.008C131.975 153.197 132.914 152.792 134.013 152.792C135.229 152.792 136.162 153.24 136.813 154.136V153ZM132.477 158.84C132.957 159.32 133.559 159.56 134.285 159.56C135.01 159.56 135.613 159.32 136.093 158.84C136.573 158.349 136.813 157.736 136.813 157C136.813 156.264 136.573 155.656 136.093 155.176C135.613 154.685 135.01 154.44 134.285 154.44C133.559 154.44 132.957 154.685 132.477 155.176C131.997 155.656 131.757 156.264 131.757 157C131.757 157.736 131.997 158.349 132.477 158.84ZM146.891 149.8H148.619V161H146.891V159.848C146.24 160.755 145.307 161.208 144.091 161.208C142.992 161.208 142.054 160.803 141.275 159.992C140.496 159.171 140.107 158.173 140.107 157C140.107 155.816 140.496 154.819 141.275 154.008C142.054 153.197 142.992 152.792 144.091 152.792C145.307 152.792 146.24 153.24 146.891 154.136V149.8ZM142.555 158.84C143.035 159.32 143.638 159.56 144.363 159.56C145.088 159.56 145.691 159.32 146.171 158.84C146.651 158.349 146.891 157.736 146.891 157C146.891 156.264 146.651 155.656 146.171 155.176C145.691 154.685 145.088 154.44 144.363 154.44C143.638 154.44 143.035 154.685 142.555 155.176C142.075 155.656 141.835 156.264 141.835 157C141.835 157.736 142.075 158.349 142.555 158.84ZM154.409 161.208C153.236 161.208 152.238 160.803 151.417 159.992C150.596 159.181 150.185 158.184 150.185 157C150.185 155.816 150.596 154.819 151.417 154.008C152.238 153.197 153.236 152.792 154.409 152.792C155.593 152.792 156.59 153.197 157.401 154.008C158.222 154.819 158.633 155.816 158.633 157C158.633 158.184 158.222 159.181 157.401 159.992C156.59 160.803 155.593 161.208 154.409 161.208ZM152.633 158.808C153.113 159.288 153.705 159.528 154.409 159.528C155.113 159.528 155.705 159.288 156.185 158.808C156.665 158.328 156.905 157.725 156.905 157C156.905 156.275 156.665 155.672 156.185 155.192C155.705 154.712 155.113 154.472 154.409 154.472C153.705 154.472 153.113 154.712 152.633 155.192C152.153 155.672 151.913 156.275 151.913 157C151.913 157.725 152.153 158.328 152.633 158.808ZM165.556 157.736C165.684 158.344 165.977 158.813 166.436 159.144C166.894 159.464 167.454 159.624 168.116 159.624C169.033 159.624 169.721 159.293 170.18 158.632L171.604 159.464C170.814 160.627 169.646 161.208 168.1 161.208C166.798 161.208 165.748 160.813 164.948 160.024C164.148 159.224 163.748 158.216 163.748 157C163.748 155.805 164.142 154.808 164.932 154.008C165.721 153.197 166.734 152.792 167.972 152.792C169.145 152.792 170.105 153.203 170.852 154.024C171.609 154.845 171.988 155.843 171.988 157.016C171.988 157.197 171.966 157.437 171.924 157.736H165.556ZM165.539 156.328H170.244C170.126 155.677 169.854 155.187 169.428 154.856C169.012 154.525 168.521 154.36 167.956 154.36C167.316 154.36 166.782 154.536 166.356 154.888C165.929 155.24 165.657 155.72 165.539 156.328ZM177.716 152.792C178.633 152.792 179.375 153.085 179.94 153.672C180.505 154.259 180.788 155.064 180.788 156.088V161H179.06V156.264C179.06 155.667 178.9 155.208 178.58 154.888C178.26 154.568 177.823 154.408 177.268 154.408C176.66 154.408 176.169 154.6 175.796 154.984C175.423 155.357 175.236 155.933 175.236 156.712V161H173.508V153H175.236V154.024C175.759 153.203 176.585 152.792 177.716 152.792ZM192.041 153H193.769V161H192.041V159.976C191.518 160.797 190.691 161.208 189.561 161.208C188.643 161.208 187.902 160.915 187.337 160.328C186.771 159.741 186.489 158.936 186.489 157.912V153H188.217V157.736C188.217 158.333 188.377 158.792 188.697 159.112C189.017 159.432 189.454 159.592 190.009 159.592C190.617 159.592 191.107 159.405 191.481 159.032C191.854 158.648 192.041 158.067 192.041 157.288V153ZM197.294 155.208C197.294 155.475 197.438 155.688 197.726 155.848C198.025 155.997 198.382 156.131 198.798 156.248C199.225 156.355 199.652 156.483 200.078 156.632C200.505 156.781 200.862 157.037 201.15 157.4C201.449 157.752 201.598 158.2 201.598 158.744C201.598 159.512 201.3 160.115 200.702 160.552C200.116 160.989 199.374 161.208 198.478 161.208C197.689 161.208 197.012 161.043 196.446 160.712C195.881 160.381 195.47 159.923 195.214 159.336L196.702 158.472C196.98 159.24 197.572 159.624 198.478 159.624C199.385 159.624 199.838 159.325 199.838 158.728C199.838 158.472 199.689 158.264 199.39 158.104C199.102 157.944 198.745 157.811 198.318 157.704C197.902 157.587 197.481 157.453 197.054 157.304C196.628 157.155 196.265 156.909 195.966 156.568C195.678 156.216 195.534 155.773 195.534 155.24C195.534 154.504 195.812 153.912 196.366 153.464C196.932 153.016 197.63 152.792 198.462 152.792C199.124 152.792 199.71 152.941 200.222 153.24C200.745 153.528 201.145 153.933 201.422 154.456L199.966 155.272C199.689 154.664 199.188 154.36 198.462 154.36C198.132 154.36 197.854 154.435 197.63 154.584C197.406 154.723 197.294 154.931 197.294 155.208ZM208.416 153H210.144V161H208.416V159.976C207.893 160.797 207.066 161.208 205.936 161.208C205.018 161.208 204.277 160.915 203.712 160.328C203.146 159.741 202.864 158.936 202.864 157.912V153H204.592V157.736C204.592 158.333 204.752 158.792 205.072 159.112C205.392 159.432 205.829 159.592 206.384 159.592C206.992 159.592 207.482 159.405 207.856 159.032C208.229 158.648 208.416 158.067 208.416 157.288V153ZM218.5 153H220.228V161H218.5V159.848C217.85 160.755 216.916 161.208 215.7 161.208C214.602 161.208 213.663 160.803 212.884 159.992C212.106 159.171 211.716 158.173 211.716 157C211.716 155.816 212.106 154.819 212.884 154.008C213.663 153.197 214.602 152.792 215.7 152.792C216.916 152.792 217.85 153.24 218.5 154.136V153ZM214.164 158.84C214.644 159.32 215.247 159.56 215.972 159.56C216.698 159.56 217.3 159.32 217.78 158.84C218.26 158.349 218.5 157.736 218.5 157C218.5 156.264 218.26 155.656 217.78 155.176C217.3 154.685 216.698 154.44 215.972 154.44C215.247 154.44 214.644 154.685 214.164 155.176C213.684 155.656 213.444 156.264 213.444 157C213.444 157.736 213.684 158.349 214.164 158.84ZM223.97 154.344C224.408 153.352 225.229 152.856 226.434 152.856V154.728C225.773 154.685 225.197 154.845 224.706 155.208C224.216 155.56 223.97 156.147 223.97 156.968V161H222.242V153H223.97V154.344ZM229.343 151.48C229.13 151.693 228.874 151.8 228.575 151.8C228.276 151.8 228.015 151.693 227.791 151.48C227.578 151.256 227.471 150.995 227.471 150.696C227.471 150.397 227.578 150.141 227.791 149.928C228.004 149.704 228.266 149.592 228.575 149.592C228.884 149.592 229.146 149.704 229.359 149.928C229.572 150.141 229.679 150.397 229.679 150.696C229.679 150.995 229.567 151.256 229.343 151.48ZM227.711 161V153H229.439V161H227.711ZM235.222 161.208C234.048 161.208 233.051 160.803 232.23 159.992C231.408 159.181 230.998 158.184 230.998 157C230.998 155.816 231.408 154.819 232.23 154.008C233.051 153.197 234.048 152.792 235.222 152.792C236.406 152.792 237.403 153.197 238.214 154.008C239.035 154.819 239.446 155.816 239.446 157C239.446 158.184 239.035 159.181 238.214 159.992C237.403 160.803 236.406 161.208 235.222 161.208ZM233.446 158.808C233.926 159.288 234.518 159.528 235.222 159.528C235.926 159.528 236.518 159.288 236.998 158.808C237.478 158.328 237.718 157.725 237.718 157C237.718 156.275 237.478 155.672 236.998 155.192C236.518 154.712 235.926 154.472 235.222 154.472C234.518 154.472 233.926 154.712 233.446 155.192C232.966 155.672 232.726 156.275 232.726 157C232.726 157.725 232.966 158.328 233.446 158.808ZM242.404 155.208C242.404 155.475 242.548 155.688 242.836 155.848C243.134 155.997 243.492 156.131 243.908 156.248C244.334 156.355 244.761 156.483 245.188 156.632C245.614 156.781 245.972 157.037 246.26 157.4C246.558 157.752 246.708 158.2 246.708 158.744C246.708 159.512 246.409 160.115 245.812 160.552C245.225 160.989 244.484 161.208 243.588 161.208C242.798 161.208 242.121 161.043 241.556 160.712C240.99 160.381 240.58 159.923 240.324 159.336L241.812 158.472C242.089 159.24 242.681 159.624 243.588 159.624C244.494 159.624 244.948 159.325 244.948 158.728C244.948 158.472 244.798 158.264 244.5 158.104C244.212 157.944 243.854 157.811 243.428 157.704C243.012 157.587 242.59 157.453 242.164 157.304C241.737 157.155 241.374 156.909 241.076 156.568C240.788 156.216 240.644 155.773 240.644 155.24C240.644 154.504 240.921 153.912 241.476 153.464C242.041 153.016 242.74 152.792 243.572 152.792C244.233 152.792 244.82 152.941 245.332 153.24C245.854 153.528 246.254 153.933 246.532 154.456L245.076 155.272C244.798 154.664 244.297 154.36 243.572 154.36C243.241 154.36 242.964 154.435 242.74 154.584C242.516 154.723 242.404 154.931 242.404 155.208ZM253.859 162.6C252.685 160.253 252.099 157.853 252.099 155.4C252.099 152.947 252.685 150.547 253.859 148.2H255.587C254.413 150.547 253.827 152.947 253.827 155.4C253.827 157.853 254.413 160.253 255.587 162.6H253.859ZM264.21 160.152C263.421 160.856 262.402 161.208 261.154 161.208C259.906 161.208 258.888 160.856 258.098 160.152C257.309 159.437 256.914 158.483 256.914 157.288V149.8H258.754V157.176C258.754 157.859 258.952 158.403 259.346 158.808C259.752 159.213 260.354 159.416 261.154 159.416C261.954 159.416 262.552 159.213 262.946 158.808C263.352 158.403 263.554 157.859 263.554 157.176V149.8H265.394V157.288C265.394 158.483 265 159.437 264.21 160.152ZM272.807 161.208C271.121 161.208 269.724 160.653 268.615 159.544C267.505 158.424 266.951 157.043 266.951 155.4C266.951 153.757 267.505 152.381 268.615 151.272C269.724 150.152 271.121 149.592 272.807 149.592C273.82 149.592 274.753 149.832 275.607 150.312C276.471 150.792 277.143 151.443 277.623 152.264L276.023 153.192C275.724 152.637 275.287 152.2 274.711 151.88C274.145 151.549 273.511 151.384 272.807 151.384C271.612 151.384 270.641 151.763 269.895 152.52C269.159 153.277 268.791 154.237 268.791 155.4C268.791 156.563 269.159 157.523 269.895 158.28C270.641 159.037 271.612 159.416 272.807 159.416C273.511 159.416 274.151 159.256 274.727 158.936C275.303 158.605 275.735 158.163 276.023 157.608L277.623 158.52C277.153 159.341 276.487 159.997 275.623 160.488C274.769 160.968 273.831 161.208 272.807 161.208ZM283.551 149.8C285.087 149.8 286.362 150.339 287.375 151.416C288.399 152.493 288.911 153.821 288.911 155.4C288.911 156.968 288.399 158.296 287.375 159.384C286.362 160.461 285.087 161 283.551 161H279.151V149.8H283.551ZM283.551 159.24C284.607 159.24 285.466 158.877 286.127 158.152C286.799 157.427 287.135 156.509 287.135 155.4C287.135 154.28 286.799 153.363 286.127 152.648C285.466 151.923 284.607 151.56 283.551 151.56H280.991V159.24H283.551ZM291.517 162.6H289.789C290.962 160.253 291.549 157.853 291.549 155.4C291.549 152.947 290.962 150.547 289.789 148.2H291.517C292.69 150.547 293.277 152.947 293.277 155.4C293.277 157.853 292.69 160.253 291.517 162.6Z" fill="#2EC4B6"/>
<rect x="1" y="142" width="305" height="30" rx="15" stroke="#2EC4B6" stroke-width="2"/>
<g clip-path="url(#clip5_126_2501)">
<path d="M22 209.833L27.8333 204L30.3333 206.5L24.5 212.333L22 209.833Z" stroke="#2EC4B6" stroke-width="1.5" stroke-linecap="round" stroke-linejoin="round"/>
<path d="M27.0001 204.833L25.7501 198.583L13.6667 195.667L16.5834 207.75L22.8334 209L27.0001 204.833Z" stroke="#2EC4B6" stroke-width="1.5" stroke-linecap="round" stroke-linejoin="round"/>
<path d="M13.6667 195.667L19.9884 201.988" stroke="#2EC4B6" stroke-width="1.5" stroke-linecap="round" stroke-linejoin="round"/>
<path d="M21.1667 204.833C22.0871 204.833 22.8333 204.087 22.8333 203.167C22.8333 202.246 22.0871 201.5 21.1667 201.5C20.2462 201.5 19.5 202.246 19.5 203.167C19.5 204.087 20.2462 204.833 21.1667 204.833Z" stroke="#2EC4B6" stroke-width="1.5" stroke-linecap="round" stroke-linejoin="round"/>
</g>
<path d="M40.488 208L37.32 196.8H39.256L41.608 205.552L44.152 196.8H45.848L48.376 205.552L50.728 196.8H52.664L49.496 208H47.368L45 199.824L42.616 208H40.488ZM55.3119 198.48C55.0985 198.693 54.8425 198.8 54.5439 198.8C54.2452 198.8 53.9839 198.693 53.7599 198.48C53.5465 198.256 53.4399 197.995 53.4399 197.696C53.4399 197.397 53.5465 197.141 53.7599 196.928C53.9732 196.704 54.2345 196.592 54.5439 196.592C54.8532 196.592 55.1145 196.704 55.3279 196.928C55.5412 197.141 55.6479 197.397 55.6479 197.696C55.6479 197.995 55.5359 198.256 55.3119 198.48ZM53.6799 208V200H55.4079V208H53.6799ZM59.1423 201.344C59.5796 200.352 60.4009 199.856 61.6063 199.856V201.728C60.9449 201.685 60.3689 201.845 59.8783 202.208C59.3876 202.56 59.1423 203.147 59.1423 203.968V208H57.4143V200H59.1423V201.344ZM63.868 204.736C63.996 205.344 64.2893 205.813 64.748 206.144C65.2067 206.464 65.7667 206.624 66.428 206.624C67.3453 206.624 68.0333 206.293 68.492 205.632L69.916 206.464C69.1267 207.627 67.9587 208.208 66.412 208.208C65.1107 208.208 64.06 207.813 63.26 207.024C62.46 206.224 62.06 205.216 62.06 204C62.06 202.805 62.4547 201.808 63.244 201.008C64.0333 200.197 65.0467 199.792 66.284 199.792C67.4573 199.792 68.4173 200.203 69.164 201.024C69.9213 201.845 70.3 202.843 70.3 204.016C70.3 204.197 70.2787 204.437 70.236 204.736H63.868ZM63.852 203.328H68.556C68.4387 202.677 68.1667 202.187 67.74 201.856C67.324 201.525 66.8333 201.36 66.268 201.36C65.628 201.36 65.0947 201.536 64.668 201.888C64.2413 202.24 63.9693 202.72 63.852 203.328ZM75.7625 198.256C74.5038 198.139 73.8745 198.667 73.8745 199.84V200H75.7625V201.664H73.8745V208H72.1465V201.664H70.9305V200H72.1465V199.84C72.1465 198.741 72.4505 197.909 73.0585 197.344C73.6772 196.768 74.5785 196.517 75.7625 196.592V198.256ZM78.5016 201.344C78.939 200.352 79.7603 199.856 80.9656 199.856V201.728C80.3043 201.685 79.7283 201.845 79.2376 202.208C78.747 202.56 78.5016 203.147 78.5016 203.968V208H76.7736V200H78.5016V201.344ZM88.2034 200H89.9314V208H88.2034V206.848C87.5527 207.755 86.6194 208.208 85.4034 208.208C84.3047 208.208 83.366 207.803 82.5874 206.992C81.8087 206.171 81.4194 205.173 81.4194 204C81.4194 202.816 81.8087 201.819 82.5874 201.008C83.366 200.197 84.3047 199.792 85.4034 199.792C86.6194 199.792 87.5527 200.24 88.2034 201.136V200ZM83.8674 205.84C84.3474 206.32 84.95 206.56 85.6754 206.56C86.4007 206.56 87.0034 206.32 87.4834 205.84C87.9634 205.349 88.2034 204.736 88.2034 204C88.2034 203.264 87.9634 202.656 87.4834 202.176C87.0034 201.685 86.4007 201.44 85.6754 201.44C84.95 201.44 84.3474 201.685 83.8674 202.176C83.3874 202.656 83.1474 203.264 83.1474 204C83.1474 204.736 83.3874 205.349 83.8674 205.84ZM100.682 199.792C101.588 199.792 102.319 200.085 102.874 200.672C103.428 201.259 103.706 202.048 103.706 203.04V208H101.978V203.152C101.978 202.597 101.839 202.171 101.562 201.872C101.284 201.563 100.906 201.408 100.426 201.408C99.8922 201.408 99.4655 201.584 99.1455 201.936C98.8362 202.288 98.6815 202.816 98.6815 203.52V208H96.9535V203.152C96.9535 202.597 96.8202 202.171 96.5535 201.872C96.2975 201.563 95.9295 201.408 95.4495 201.408C94.9268 201.408 94.5002 201.589 94.1695 201.952C93.8388 202.304 93.6735 202.827 93.6735 203.52V208H91.9455V200H93.6735V200.96C94.1855 200.181 94.9482 199.792 95.9615 199.792C96.9855 199.792 97.7428 200.213 98.2335 201.056C98.7668 200.213 99.5828 199.792 100.682 199.792ZM107.187 198.48C106.974 198.693 106.718 198.8 106.419 198.8C106.12 198.8 105.859 198.693 105.635 198.48C105.422 198.256 105.315 197.995 105.315 197.696C105.315 197.397 105.422 197.141 105.635 196.928C105.848 196.704 106.11 196.592 106.419 196.592C106.728 196.592 106.99 196.704 107.203 196.928C107.416 197.141 107.523 197.397 107.523 197.696C107.523 197.995 107.411 198.256 107.187 198.48ZM105.555 208V200H107.283V208H105.555ZM113.497 199.792C114.415 199.792 115.156 200.085 115.721 200.672C116.287 201.259 116.569 202.064 116.569 203.088V208H114.841V203.264C114.841 202.667 114.681 202.208 114.361 201.888C114.041 201.568 113.604 201.408 113.049 201.408C112.441 201.408 111.951 201.6 111.577 201.984C111.204 202.357 111.017 202.933 111.017 203.712V208H109.289V200H111.017V201.024C111.54 200.203 112.367 199.792 113.497 199.792ZM124.798 200H126.494V207.632C126.494 208.848 126.094 209.781 125.294 210.432C124.494 211.083 123.523 211.408 122.382 211.408C120.537 211.408 119.273 210.763 118.59 209.472L120.078 208.608C120.494 209.429 121.273 209.84 122.414 209.84C123.161 209.84 123.742 209.643 124.158 209.248C124.585 208.864 124.798 208.325 124.798 207.632V206.656C124.147 207.584 123.219 208.048 122.014 208.048C120.883 208.048 119.929 207.648 119.15 206.848C118.371 206.037 117.982 205.061 117.982 203.92C117.982 202.779 118.371 201.808 119.15 201.008C119.929 200.197 120.883 199.792 122.014 199.792C123.219 199.792 124.147 200.256 124.798 201.184V200ZM120.43 205.712C120.921 206.192 121.529 206.432 122.254 206.432C122.979 206.432 123.582 206.192 124.062 205.712C124.553 205.232 124.798 204.635 124.798 203.92C124.798 203.205 124.553 202.608 124.062 202.128C123.582 201.648 122.979 201.408 122.254 201.408C121.529 201.408 120.921 201.648 120.43 202.128C119.95 202.608 119.71 203.205 119.71 203.92C119.71 204.635 119.95 205.232 120.43 205.712ZM128.62 203.968V202.304H134.54V203.968H128.62ZM147.496 196.8V208H145.656V200.016L142.248 205.648H142.024L138.616 200V208H136.776V196.8H138.76L142.136 202.4L145.528 196.8H147.496ZM153.393 208.208C152.22 208.208 151.223 207.803 150.401 206.992C149.58 206.181 149.169 205.184 149.169 204C149.169 202.816 149.58 201.819 150.401 201.008C151.223 200.197 152.22 199.792 153.393 199.792C154.577 199.792 155.575 200.197 156.385 201.008C157.207 201.819 157.617 202.816 157.617 204C157.617 205.184 157.207 206.181 156.385 206.992C155.575 207.803 154.577 208.208 153.393 208.208ZM151.617 205.808C152.097 206.288 152.689 206.528 153.393 206.528C154.097 206.528 154.689 206.288 155.169 205.808C155.649 205.328 155.889 204.725 155.889 204C155.889 203.275 155.649 202.672 155.169 202.192C154.689 201.712 154.097 201.472 153.393 201.472C152.689 201.472 152.097 201.712 151.617 202.192C151.137 202.672 150.897 203.275 150.897 204C150.897 204.725 151.137 205.328 151.617 205.808ZM162.956 208.208C161.751 208.208 160.743 207.803 159.932 206.992C159.132 206.181 158.732 205.184 158.732 204C158.732 202.805 159.132 201.808 159.932 201.008C160.743 200.197 161.751 199.792 162.956 199.792C163.735 199.792 164.444 199.979 165.084 200.352C165.724 200.725 166.204 201.227 166.524 201.856L165.036 202.72C164.855 202.336 164.577 202.037 164.204 201.824C163.841 201.6 163.42 201.488 162.94 201.488C162.236 201.488 161.644 201.728 161.164 202.208C160.695 202.688 160.46 203.285 160.46 204C160.46 204.715 160.695 205.312 161.164 205.792C161.644 206.272 162.236 206.512 162.94 206.512C163.409 206.512 163.831 206.4 164.204 206.176C164.588 205.952 164.876 205.653 165.068 205.28L166.556 206.128C166.215 206.768 165.724 207.275 165.084 207.648C164.444 208.021 163.735 208.208 162.956 208.208ZM174.877 208H172.813L169.533 204.304V208H167.805V196.8H169.533V203.536L172.637 200H174.749L171.229 203.92L174.877 208ZM181.119 200H182.847V208H181.119V206.976C180.596 207.797 179.769 208.208 178.639 208.208C177.721 208.208 176.98 207.915 176.415 207.328C175.849 206.741 175.567 205.936 175.567 204.912V200H177.295V204.736C177.295 205.333 177.455 205.792 177.775 206.112C178.095 206.432 178.532 206.592 179.087 206.592C179.695 206.592 180.185 206.405 180.559 206.032C180.932 205.648 181.119 205.067 181.119 204.288V200ZM189.395 199.792C190.494 199.792 191.433 200.203 192.211 201.024C192.99 201.835 193.379 202.827 193.379 204C193.379 205.184 192.99 206.181 192.211 206.992C191.433 207.803 190.494 208.208 189.395 208.208C188.179 208.208 187.246 207.76 186.595 206.864V211.2H184.867V200H186.595V201.152C187.246 200.245 188.179 199.792 189.395 199.792ZM187.315 205.84C187.795 206.32 188.398 206.56 189.123 206.56C189.849 206.56 190.451 206.32 190.931 205.84C191.411 205.349 191.651 204.736 191.651 204C191.651 203.264 191.411 202.656 190.931 202.176C190.451 201.685 189.849 201.44 189.123 201.44C188.398 201.44 187.795 201.685 187.315 202.176C186.835 202.656 186.595 203.264 186.595 204C186.595 204.736 186.835 205.349 187.315 205.84ZM196.341 202.208C196.341 202.475 196.485 202.688 196.773 202.848C197.072 202.997 197.429 203.131 197.845 203.248C198.272 203.355 198.699 203.483 199.125 203.632C199.552 203.781 199.909 204.037 200.197 204.4C200.496 204.752 200.645 205.2 200.645 205.744C200.645 206.512 200.347 207.115 199.749 207.552C199.163 207.989 198.421 208.208 197.525 208.208C196.736 208.208 196.059 208.043 195.493 207.712C194.928 207.381 194.517 206.923 194.261 206.336L195.749 205.472C196.027 206.24 196.619 206.624 197.525 206.624C198.432 206.624 198.885 206.325 198.885 205.728C198.885 205.472 198.736 205.264 198.437 205.104C198.149 204.944 197.792 204.811 197.365 204.704C196.949 204.587 196.528 204.453 196.101 204.304C195.675 204.155 195.312 203.909 195.013 203.568C194.725 203.216 194.581 202.773 194.581 202.24C194.581 201.504 194.859 200.912 195.413 200.464C195.979 200.016 196.677 199.792 197.509 199.792C198.171 199.792 198.757 199.941 199.269 200.24C199.792 200.528 200.192 200.933 200.469 201.456L199.013 202.272C198.736 201.664 198.235 201.36 197.509 201.36C197.179 201.36 196.901 201.435 196.677 201.584C196.453 201.723 196.341 201.931 196.341 202.208Z" fill="#2EC4B6"/>
<rect x="1" y="189" width="212" height="30" rx="15" stroke="#2EC4B6" stroke-width="2"/>
<g clip-path="url(#clip6_126_2501)">
<path d="M22 256.833L27.8333 251L30.3333 253.5L24.5 259.333L22 256.833Z" stroke="#2EC4B6" stroke-width="1.5" stroke-linecap="round" stroke-linejoin="round"/>
<path d="M27.0001 251.833L25.7501 245.583L13.6667 242.667L16.5834 254.75L22.8334 256L27.0001 251.833Z" stroke="#2EC4B6" stroke-width="1.5" stroke-linecap="round" stroke-linejoin="round"/>
<path d="M13.6667 242.667L19.9884 248.988" stroke="#2EC4B6" stroke-width="1.5" stroke-linecap="round" stroke-linejoin="round"/>
<path d="M21.1667 251.833C22.0871 251.833 22.8333 251.087 22.8333 250.167C22.8333 249.246 22.0871 248.5 21.1667 248.5C20.2462 248.5 19.5 249.246 19.5 250.167C19.5 251.087 20.2462 251.833 21.1667 251.833Z" stroke="#2EC4B6" stroke-width="1.5" stroke-linecap="round" stroke-linejoin="round"/>
</g>
<path d="M45.416 255L44.632 252.744H39.864L39.08 255H37.08L41.144 243.8H43.352L47.4 255H45.416ZM40.472 251.016H44.024L42.248 245.96L40.472 251.016ZM50.2204 248.344C50.6577 247.352 51.479 246.856 52.6844 246.856V248.728C52.023 248.685 51.447 248.845 50.9564 249.208C50.4657 249.56 50.2204 250.147 50.2204 250.968V255H48.4924V247H50.2204V248.344ZM59.9221 247H61.6501V258.2H59.9221V253.864C59.2715 254.76 58.3381 255.208 57.1221 255.208C56.0235 255.208 55.0848 254.803 54.3061 253.992C53.5275 253.181 53.1381 252.184 53.1381 251C53.1381 249.827 53.5275 248.835 54.3061 248.024C55.0848 247.203 56.0235 246.792 57.1221 246.792C58.3381 246.792 59.2715 247.245 59.9221 248.152V247ZM55.5861 252.84C56.0661 253.32 56.6688 253.56 57.3941 253.56C58.1195 253.56 58.7221 253.32 59.2021 252.84C59.6821 252.349 59.9221 251.736 59.9221 251C59.9221 250.264 59.6821 249.656 59.2021 249.176C58.7221 248.685 58.1195 248.44 57.3941 248.44C56.6688 248.44 56.0661 248.685 55.5861 249.176C55.1061 249.656 54.8661 250.264 54.8661 251C54.8661 251.736 55.1061 252.349 55.5861 252.84ZM69.0563 247H70.7843V255H69.0563V253.976C68.5336 254.797 67.7069 255.208 66.5763 255.208C65.6589 255.208 64.9176 254.915 64.3523 254.328C63.7869 253.741 63.5043 252.936 63.5043 251.912V247H65.2323V251.736C65.2323 252.333 65.3923 252.792 65.7123 253.112C66.0323 253.432 66.4696 253.592 67.0243 253.592C67.6323 253.592 68.1229 253.405 68.4963 253.032C68.8696 252.648 69.0563 252.067 69.0563 251.288V247ZM74.4369 245.48C74.2235 245.693 73.9675 245.8 73.6689 245.8C73.3702 245.8 73.1089 245.693 72.8849 245.48C72.6715 245.256 72.5649 244.995 72.5649 244.696C72.5649 244.397 72.6715 244.141 72.8849 243.928C73.0982 243.704 73.3595 243.592 73.6689 243.592C73.9782 243.592 74.2395 243.704 74.4529 243.928C74.6662 244.141 74.7729 244.397 74.7729 244.696C74.7729 244.995 74.6609 245.256 74.4369 245.48ZM72.8049 255V247H74.5329V255H72.8049ZM81.0033 248.664H79.0193V252.504C79.0193 252.835 79.0939 253.075 79.2433 253.224C79.3926 253.363 79.6113 253.443 79.8993 253.464C80.1979 253.475 80.5659 253.469 81.0033 253.448V255C79.6806 255.16 78.7313 255.048 78.1553 254.664C77.5793 254.269 77.2913 253.549 77.2913 252.504V248.664H75.8193V247H77.2913V245.272L79.0193 244.76V247H81.0033V248.664ZM83.6024 251.736C83.7304 252.344 84.0237 252.813 84.4824 253.144C84.941 253.464 85.501 253.624 86.1624 253.624C87.0797 253.624 87.7677 253.293 88.2264 252.632L89.6504 253.464C88.861 254.627 87.693 255.208 86.1464 255.208C84.845 255.208 83.7944 254.813 82.9944 254.024C82.1944 253.224 81.7944 252.216 81.7944 251C81.7944 249.805 82.189 248.808 82.9784 248.008C83.7677 247.197 84.781 246.792 86.0184 246.792C87.1917 246.792 88.1517 247.203 88.8984 248.024C89.6557 248.845 90.0344 249.843 90.0344 251.016C90.0344 251.197 90.013 251.437 89.9704 251.736H83.6024ZM83.5864 250.328H88.2904C88.173 249.677 87.901 249.187 87.4744 248.856C87.0584 248.525 86.5677 248.36 86.0024 248.36C85.3624 248.36 84.829 248.536 84.4024 248.888C83.9757 249.24 83.7037 249.72 83.5864 250.328ZM95.284 255.208C94.0787 255.208 93.0707 254.803 92.26 253.992C91.46 253.181 91.06 252.184 91.06 251C91.06 249.805 91.46 248.808 92.26 248.008C93.0707 247.197 94.0787 246.792 95.284 246.792C96.0627 246.792 96.772 246.979 97.412 247.352C98.052 247.725 98.532 248.227 98.852 248.856L97.364 249.72C97.1827 249.336 96.9053 249.037 96.532 248.824C96.1693 248.6 95.748 248.488 95.268 248.488C94.564 248.488 93.972 248.728 93.492 249.208C93.0227 249.688 92.788 250.285 92.788 251C92.788 251.715 93.0227 252.312 93.492 252.792C93.972 253.272 94.564 253.512 95.268 253.512C95.7373 253.512 96.1587 253.4 96.532 253.176C96.916 252.952 97.204 252.653 97.396 252.28L98.884 253.128C98.5427 253.768 98.052 254.275 97.412 254.648C96.772 255.021 96.0627 255.208 95.284 255.208ZM104.597 248.664H102.613V252.504C102.613 252.835 102.688 253.075 102.837 253.224C102.986 253.363 103.205 253.443 103.493 253.464C103.792 253.475 104.16 253.469 104.597 253.448V255C103.274 255.16 102.325 255.048 101.749 254.664C101.173 254.269 100.885 253.549 100.885 252.504V248.664H99.413V247H100.885V245.272L102.613 244.76V247H104.597V248.664ZM111.634 247H113.362V255H111.634V253.976C111.112 254.797 110.285 255.208 109.154 255.208C108.237 255.208 107.496 254.915 106.93 254.328C106.365 253.741 106.082 252.936 106.082 251.912V247H107.81V251.736C107.81 252.333 107.97 252.792 108.29 253.112C108.61 253.432 109.048 253.592 109.602 253.592C110.21 253.592 110.701 253.405 111.074 253.032C111.448 252.648 111.634 252.067 111.634 251.288V247ZM117.111 248.344C117.548 247.352 118.37 246.856 119.575 246.856V248.728C118.914 248.685 118.338 248.845 117.847 249.208C117.356 249.56 117.111 250.147 117.111 250.968V255H115.383V247H117.111V248.344ZM126.813 247H128.541V255H126.813V253.848C126.162 254.755 125.229 255.208 124.013 255.208C122.914 255.208 121.975 254.803 121.197 253.992C120.418 253.171 120.029 252.173 120.029 251C120.029 249.816 120.418 248.819 121.197 248.008C121.975 247.197 122.914 246.792 124.013 246.792C125.229 246.792 126.162 247.24 126.813 248.136V247ZM122.477 252.84C122.957 253.32 123.559 253.56 124.285 253.56C125.01 253.56 125.613 253.32 126.093 252.84C126.573 252.349 126.813 251.736 126.813 251C126.813 250.264 126.573 249.656 126.093 249.176C125.613 248.685 125.01 248.44 124.285 248.44C123.559 248.44 122.957 248.685 122.477 249.176C121.997 249.656 121.757 250.264 121.757 251C121.757 251.736 121.997 252.349 122.477 252.84ZM140.891 243.8H142.619V255H140.891V253.848C140.24 254.755 139.307 255.208 138.091 255.208C136.992 255.208 136.054 254.803 135.275 253.992C134.496 253.171 134.107 252.173 134.107 251C134.107 249.816 134.496 248.819 135.275 248.008C136.054 247.197 136.992 246.792 138.091 246.792C139.307 246.792 140.24 247.24 140.891 248.136V243.8ZM136.555 252.84C137.035 253.32 137.638 253.56 138.363 253.56C139.088 253.56 139.691 253.32 140.171 252.84C140.651 252.349 140.891 251.736 140.891 251C140.891 250.264 140.651 249.656 140.171 249.176C139.691 248.685 139.088 248.44 138.363 248.44C137.638 248.44 137.035 248.685 136.555 249.176C136.075 249.656 135.835 250.264 135.835 251C135.835 251.736 136.075 252.349 136.555 252.84ZM145.993 251.736C146.121 252.344 146.414 252.813 146.873 253.144C147.332 253.464 147.892 253.624 148.553 253.624C149.47 253.624 150.158 253.293 150.617 252.632L152.041 253.464C151.252 254.627 150.084 255.208 148.537 255.208C147.236 255.208 146.185 254.813 145.385 254.024C144.585 253.224 144.185 252.216 144.185 251C144.185 249.805 144.58 248.808 145.369 248.008C146.158 247.197 147.172 246.792 148.409 246.792C149.582 246.792 150.542 247.203 151.289 248.024C152.046 248.845 152.425 249.843 152.425 251.016C152.425 251.197 152.404 251.437 152.361 251.736H145.993ZM145.977 250.328H150.681C150.564 249.677 150.292 249.187 149.865 248.856C149.449 248.525 148.958 248.36 148.393 248.36C147.753 248.36 147.22 248.536 146.793 248.888C146.366 249.24 146.094 249.72 145.977 250.328ZM157.946 255V243.32H159.674V255H157.946ZM168.016 247H169.744V255H168.016V253.848C167.365 254.755 166.432 255.208 165.216 255.208C164.117 255.208 163.179 254.803 162.4 253.992C161.621 253.171 161.232 252.173 161.232 251C161.232 249.816 161.621 248.819 162.4 248.008C163.179 247.197 164.117 246.792 165.216 246.792C166.432 246.792 167.365 247.24 168.016 248.136V247ZM163.68 252.84C164.16 253.32 164.763 253.56 165.488 253.56C166.213 253.56 166.816 253.32 167.296 252.84C167.776 252.349 168.016 251.736 168.016 251C168.016 250.264 167.776 249.656 167.296 249.176C166.816 248.685 166.213 248.44 165.488 248.44C164.763 248.44 164.16 248.685 163.68 249.176C163.2 249.656 162.96 250.264 162.96 251C162.96 251.736 163.2 252.349 163.68 252.84ZM177.39 245.48C177.177 245.693 176.921 245.8 176.622 245.8C176.323 245.8 176.062 245.693 175.838 245.48C175.625 245.256 175.518 244.995 175.518 244.696C175.518 244.397 175.625 244.141 175.838 243.928C176.051 243.704 176.313 243.592 176.622 243.592C176.931 243.592 177.193 243.704 177.406 243.928C177.619 244.141 177.726 244.397 177.726 244.696C177.726 244.995 177.614 245.256 177.39 245.48ZM175.758 255V247H177.486V255H175.758ZM183.7 246.792C184.618 246.792 185.359 247.085 185.924 247.672C186.49 248.259 186.772 249.064 186.772 250.088V255H185.044V250.264C185.044 249.667 184.884 249.208 184.564 248.888C184.244 248.568 183.807 248.408 183.252 248.408C182.644 248.408 182.154 248.6 181.78 248.984C181.407 249.357 181.22 249.933 181.22 250.712V255H179.492V247H181.22V248.024C181.743 247.203 182.57 246.792 183.7 246.792ZM192.825 245.256C191.566 245.139 190.937 245.667 190.937 246.84V247H192.825V248.664H190.937V255H189.209V248.664H187.993V247H189.209V246.84C189.209 245.741 189.513 244.909 190.121 244.344C190.74 243.768 191.641 243.517 192.825 243.592V245.256ZM197.237 255.208C196.064 255.208 195.066 254.803 194.245 253.992C193.424 253.181 193.013 252.184 193.013 251C193.013 249.816 193.424 248.819 194.245 248.008C195.066 247.197 196.064 246.792 197.237 246.792C198.421 246.792 199.418 247.197 200.229 248.008C201.05 248.819 201.461 249.816 201.461 251C201.461 252.184 201.05 253.181 200.229 253.992C199.418 254.803 198.421 255.208 197.237 255.208ZM195.461 252.808C195.941 253.288 196.533 253.528 197.237 253.528C197.941 253.528 198.533 253.288 199.013 252.808C199.493 252.328 199.733 251.725 199.733 251C199.733 250.275 199.493 249.672 199.013 249.192C198.533 248.712 197.941 248.472 197.237 248.472C196.533 248.472 195.941 248.712 195.461 249.192C194.981 249.672 194.741 250.275 194.741 251C194.741 251.725 194.981 252.328 195.461 252.808ZM204.752 248.344C205.189 247.352 206.01 246.856 207.216 246.856V248.728C206.554 248.685 205.978 248.845 205.488 249.208C204.997 249.56 204.752 250.147 204.752 250.968V255H203.024V247H204.752V248.344ZM217.228 246.792C218.135 246.792 218.866 247.085 219.42 247.672C219.975 248.259 220.252 249.048 220.252 250.04V255H218.524V250.152C218.524 249.597 218.386 249.171 218.108 248.872C217.831 248.563 217.452 248.408 216.972 248.408C216.439 248.408 216.012 248.584 215.692 248.936C215.383 249.288 215.228 249.816 215.228 250.52V255H213.5V250.152C213.5 249.597 213.367 249.171 213.1 248.872C212.844 248.563 212.476 248.408 211.996 248.408C211.474 248.408 211.047 248.589 210.716 248.952C210.386 249.304 210.22 249.827 210.22 250.52V255H208.492V247H210.22V247.96C210.732 247.181 211.495 246.792 212.508 246.792C213.532 246.792 214.29 247.213 214.78 248.056C215.314 247.213 216.13 246.792 217.228 246.792ZM228.438 247H230.166V255H228.438V253.848C227.787 254.755 226.854 255.208 225.638 255.208C224.539 255.208 223.6 254.803 222.822 253.992C222.043 253.171 221.654 252.173 221.654 251C221.654 249.816 222.043 248.819 222.822 248.008C223.6 247.197 224.539 246.792 225.638 246.792C226.854 246.792 227.787 247.24 228.438 248.136V247ZM224.102 252.84C224.582 253.32 225.184 253.56 225.91 253.56C226.635 253.56 227.238 253.32 227.718 252.84C228.198 252.349 228.438 251.736 228.438 251C228.438 250.264 228.198 249.656 227.718 249.176C227.238 248.685 226.635 248.44 225.91 248.44C225.184 248.44 224.582 248.685 224.102 249.176C223.622 249.656 223.382 250.264 223.382 251C223.382 251.736 223.622 252.349 224.102 252.84ZM235.956 255.208C234.751 255.208 233.743 254.803 232.932 253.992C232.132 253.181 231.732 252.184 231.732 251C231.732 249.805 232.132 248.808 232.932 248.008C233.743 247.197 234.751 246.792 235.956 246.792C236.735 246.792 237.444 246.979 238.084 247.352C238.724 247.725 239.204 248.227 239.524 248.856L238.036 249.72C237.855 249.336 237.577 249.037 237.204 248.824C236.841 248.6 236.42 248.488 235.94 248.488C235.236 248.488 234.644 248.728 234.164 249.208C233.695 249.688 233.46 250.285 233.46 251C233.46 251.715 233.695 252.312 234.164 252.792C234.644 253.272 235.236 253.512 235.94 253.512C236.409 253.512 236.831 253.4 237.204 253.176C237.588 252.952 237.876 252.653 238.068 252.28L239.556 253.128C239.215 253.768 238.724 254.275 238.084 254.648C237.444 255.021 236.735 255.208 235.956 255.208ZM242.437 245.48C242.224 245.693 241.968 245.8 241.669 245.8C241.37 245.8 241.109 245.693 240.885 245.48C240.672 245.256 240.565 244.995 240.565 244.696C240.565 244.397 240.672 244.141 240.885 243.928C241.098 243.704 241.36 243.592 241.669 243.592C241.978 243.592 242.24 243.704 242.453 243.928C242.666 244.141 242.773 244.397 242.773 244.696C242.773 244.995 242.661 245.256 242.437 245.48ZM240.805 255V247H242.533V255H240.805ZM247.195 245.88H248.859L250.555 243.72H248.475L247.195 245.88ZM248.315 255.208C247.142 255.208 246.145 254.803 245.323 253.992C244.502 253.181 244.091 252.184 244.091 251C244.091 249.816 244.502 248.819 245.323 248.008C246.145 247.197 247.142 246.792 248.315 246.792C249.499 246.792 250.497 247.197 251.307 248.008C252.129 248.819 252.539 249.816 252.539 251C252.539 252.184 252.129 253.181 251.307 253.992C250.497 254.803 249.499 255.208 248.315 255.208ZM246.539 252.808C247.019 253.288 247.611 253.528 248.315 253.528C249.019 253.528 249.611 253.288 250.091 252.808C250.571 252.328 250.811 251.725 250.811 251C250.811 250.275 250.571 249.672 250.091 249.192C249.611 248.712 249.019 248.472 248.315 248.472C247.611 248.472 247.019 248.712 246.539 249.192C246.059 249.672 245.819 250.275 245.819 251C245.819 251.725 246.059 252.328 246.539 252.808ZM258.31 246.792C259.227 246.792 259.968 247.085 260.534 247.672C261.099 248.259 261.382 249.064 261.382 250.088V255H259.654V250.264C259.654 249.667 259.494 249.208 259.174 248.888C258.854 248.568 258.416 248.408 257.862 248.408C257.254 248.408 256.763 248.6 256.39 248.984C256.016 249.357 255.83 249.933 255.83 250.712V255H254.102V247H255.83V248.024C256.352 247.203 257.179 246.792 258.31 246.792ZM268.874 256.6C267.701 254.253 267.114 251.853 267.114 249.4C267.114 246.947 267.701 244.547 268.874 242.2H270.602C269.429 244.547 268.842 246.947 268.842 249.4C268.842 251.853 269.429 254.253 270.602 256.6H268.874ZM272.042 243.8H273.882V255H272.042V243.8ZM283.416 255L282.632 252.744H277.864L277.08 255H275.08L279.144 243.8H281.352L285.4 255H283.416ZM278.472 251.016H282.024L280.248 245.96L278.472 251.016ZM287.532 256.6H285.804C286.978 254.253 287.564 251.853 287.564 249.4C287.564 246.947 286.978 244.547 285.804 242.2H287.532C288.706 244.547 289.292 246.947 289.292 249.4C289.292 251.853 288.706 254.253 287.532 256.6Z" fill="#2EC4B6"/>
<rect x="1" y="236" width="301" height="30" rx="15" stroke="#2EC4B6" stroke-width="2"/>
<g clip-path="url(#clip7_126_2501)">
<path d="M22 303.833L27.8333 298L30.3333 300.5L24.5 306.333L22 303.833Z" stroke="#2EC4B6" stroke-width="1.5" stroke-linecap="round" stroke-linejoin="round"/>
<path d="M27.0001 298.833L25.7501 292.583L13.6667 289.667L16.5834 301.75L22.8334 303L27.0001 298.833Z" stroke="#2EC4B6" stroke-width="1.5" stroke-linecap="round" stroke-linejoin="round"/>
<path d="M13.6667 289.667L19.9884 295.988" stroke="#2EC4B6" stroke-width="1.5" stroke-linecap="round" stroke-linejoin="round"/>
<path d="M21.1667 298.833C22.0871 298.833 22.8333 298.087 22.8333 297.167C22.8333 296.246 22.0871 295.5 21.1667 295.5C20.2462 295.5 19.5 296.246 19.5 297.167C19.5 298.087 20.2462 298.833 21.1667 298.833Z" stroke="#2EC4B6" stroke-width="1.5" stroke-linecap="round" stroke-linejoin="round"/>
</g>
<path d="M44.712 296.192C45.2027 296.448 45.5867 296.8 45.864 297.248C46.1413 297.696 46.28 298.213 46.28 298.8C46.28 299.717 45.9547 300.48 45.304 301.088C44.6533 301.696 43.8587 302 42.92 302H38.12V290.8H42.568C43.4853 290.8 44.2587 291.099 44.888 291.696C45.528 292.283 45.848 293.019 45.848 293.904C45.848 294.875 45.4693 295.637 44.712 296.192ZM42.568 292.528H39.96V295.472H42.568C42.9733 295.472 43.3147 295.333 43.592 295.056C43.8693 294.768 44.008 294.416 44.008 294C44.008 293.584 43.8693 293.237 43.592 292.96C43.3147 292.672 42.9733 292.528 42.568 292.528ZM42.92 300.272C43.3467 300.272 43.704 300.123 43.992 299.824C44.2907 299.515 44.44 299.141 44.44 298.704C44.44 298.267 44.2907 297.899 43.992 297.6C43.704 297.291 43.3467 297.136 42.92 297.136H39.96V300.272H42.92ZM49.5016 295.344C49.939 294.352 50.7603 293.856 51.9656 293.856V295.728C51.3043 295.685 50.7283 295.845 50.2376 296.208C49.747 296.56 49.5016 297.147 49.5016 297.968V302H47.7736V294H49.5016V295.344ZM59.2034 294H60.9314V302H59.2034V300.848C58.5527 301.755 57.6194 302.208 56.4034 302.208C55.3047 302.208 54.366 301.803 53.5874 300.992C52.8087 300.171 52.4194 299.173 52.4194 298C52.4194 296.816 52.8087 295.819 53.5874 295.008C54.366 294.197 55.3047 293.792 56.4034 293.792C57.6194 293.792 58.5527 294.24 59.2034 295.136V294ZM54.8674 299.84C55.3474 300.32 55.95 300.56 56.6754 300.56C57.4007 300.56 58.0034 300.32 58.4834 299.84C58.9634 299.349 59.2034 298.736 59.2034 298C59.2034 297.264 58.9634 296.656 58.4834 296.176C58.0034 295.685 57.4007 295.44 56.6754 295.44C55.95 295.44 55.3474 295.685 54.8674 296.176C54.3874 296.656 54.1474 297.264 54.1474 298C54.1474 298.736 54.3874 299.349 54.8674 299.84ZM67.1535 293.792C68.0708 293.792 68.8122 294.085 69.3775 294.672C69.9428 295.259 70.2255 296.064 70.2255 297.088V302H68.4975V297.264C68.4975 296.667 68.3375 296.208 68.0175 295.888C67.6975 295.568 67.2602 295.408 66.7055 295.408C66.0975 295.408 65.6068 295.6 65.2335 295.984C64.8602 296.357 64.6735 296.933 64.6735 297.712V302H62.9455V294H64.6735V295.024C65.1962 294.203 66.0228 293.792 67.1535 293.792ZM78.4221 290.8H80.1501V302H78.4221V300.848C77.7715 301.755 76.8381 302.208 75.6221 302.208C74.5235 302.208 73.5848 301.803 72.8061 300.992C72.0275 300.171 71.6381 299.173 71.6381 298C71.6381 296.816 72.0275 295.819 72.8061 295.008C73.5848 294.197 74.5235 293.792 75.6221 293.792C76.8381 293.792 77.7715 294.24 78.4221 295.136V290.8ZM74.0861 299.84C74.5661 300.32 75.1688 300.56 75.8941 300.56C76.6195 300.56 77.2221 300.32 77.7021 299.84C78.1821 299.349 78.4221 298.736 78.4221 298C78.4221 297.264 78.1821 296.656 77.7021 296.176C77.2221 295.685 76.6195 295.44 75.8941 295.44C75.1688 295.44 74.5661 295.685 74.0861 296.176C73.6061 296.656 73.3661 297.264 73.3661 298C73.3661 298.736 73.6061 299.349 74.0861 299.84ZM83.7963 292.48C83.5829 292.693 83.3269 292.8 83.0283 292.8C82.7296 292.8 82.4683 292.693 82.2443 292.48C82.0309 292.256 81.9243 291.995 81.9243 291.696C81.9243 291.397 82.0309 291.141 82.2443 290.928C82.4576 290.704 82.7189 290.592 83.0283 290.592C83.3376 290.592 83.5989 290.704 83.8123 290.928C84.0256 291.141 84.1323 291.397 84.1323 291.696C84.1323 291.995 84.0203 292.256 83.7963 292.48ZM82.1643 302V294H83.8923V302H82.1643ZM90.1066 293.792C91.024 293.792 91.7653 294.085 92.3306 294.672C92.896 295.259 93.1786 296.064 93.1786 297.088V302H91.4506V297.264C91.4506 296.667 91.2906 296.208 90.9706 295.888C90.6506 295.568 90.2133 295.408 89.6586 295.408C89.0506 295.408 88.56 295.6 88.1866 295.984C87.8133 296.357 87.6266 296.933 87.6266 297.712V302H85.8986V294H87.6266V295.024C88.1493 294.203 88.976 293.792 90.1066 293.792ZM101.407 294H103.103V301.632C103.103 302.848 102.703 303.781 101.903 304.432C101.103 305.083 100.133 305.408 98.9913 305.408C97.1459 305.408 95.8819 304.763 95.1993 303.472L96.6873 302.608C97.1033 303.429 97.8819 303.84 99.0233 303.84C99.7699 303.84 100.351 303.643 100.767 303.248C101.194 302.864 101.407 302.325 101.407 301.632V300.656C100.757 301.584 99.8286 302.048 98.6233 302.048C97.4926 302.048 96.5379 301.648 95.7593 300.848C94.9806 300.037 94.5913 299.061 94.5913 297.92C94.5913 296.779 94.9806 295.808 95.7593 295.008C96.5379 294.197 97.4926 293.792 98.6233 293.792C99.8286 293.792 100.757 294.256 101.407 295.184V294ZM97.0393 299.712C97.5299 300.192 98.1379 300.432 98.8633 300.432C99.5886 300.432 100.191 300.192 100.671 299.712C101.162 299.232 101.407 298.635 101.407 297.92C101.407 297.205 101.162 296.608 100.671 296.128C100.191 295.648 99.5886 295.408 98.8633 295.408C98.1379 295.408 97.5299 295.648 97.0393 296.128C96.5593 296.608 96.3193 297.205 96.3193 297.92C96.3193 298.635 96.5593 299.232 97.0393 299.712Z" fill="#2EC4B6"/>
<rect x="1" y="283" width="115" height="30" rx="15" stroke="#2EC4B6" stroke-width="2"/>
<g clip-path="url(#clip8_126_2501)">
<path d="M149 303.833L154.833 298L157.333 300.5L151.5 306.333L149 303.833Z" stroke="#2EC4B6" stroke-width="1.5" stroke-linecap="round" stroke-linejoin="round"/>
<path d="M154 298.833L152.75 292.583L140.667 289.667L143.583 301.75L149.833 303L154 298.833Z" stroke="#2EC4B6" stroke-width="1.5" stroke-linecap="round" stroke-linejoin="round"/>
<path d="M140.667 289.667L146.988 295.988" stroke="#2EC4B6" stroke-width="1.5" stroke-linecap="round" stroke-linejoin="round"/>
<path d="M148.167 298.833C149.087 298.833 149.833 298.087 149.833 297.167C149.833 296.246 149.087 295.5 148.167 295.5C147.246 295.5 146.5 296.246 146.5 297.167C146.5 298.087 147.246 298.833 148.167 298.833Z" stroke="#2EC4B6" stroke-width="1.5" stroke-linecap="round" stroke-linejoin="round"/>
</g>
<path d="M172.4 290.8V292.56H169.248V302H167.408V292.56H164.24V290.8H172.4ZM173.571 298.736C173.699 299.344 173.992 299.813 174.451 300.144C174.91 300.464 175.47 300.624 176.131 300.624C177.048 300.624 177.736 300.293 178.195 299.632L179.619 300.464C178.83 301.627 177.662 302.208 176.115 302.208C174.814 302.208 173.763 301.813 172.963 301.024C172.163 300.224 171.763 299.216 171.763 298C171.763 296.805 172.158 295.808 172.947 295.008C173.736 294.197 174.75 293.792 175.987 293.792C177.16 293.792 178.12 294.203 178.867 295.024C179.624 295.845 180.003 296.843 180.003 298.016C180.003 298.197 179.982 298.437 179.939 298.736H173.571ZM173.555 297.328H178.259C178.142 296.677 177.87 296.187 177.443 295.856C177.027 295.525 176.536 295.36 175.971 295.36C175.331 295.36 174.798 295.536 174.371 295.888C173.944 296.24 173.672 296.72 173.555 297.328ZM182.763 296.208C182.763 296.475 182.907 296.688 183.195 296.848C183.494 296.997 183.851 297.131 184.267 297.248C184.694 297.355 185.12 297.483 185.547 297.632C185.974 297.781 186.331 298.037 186.619 298.4C186.918 298.752 187.067 299.2 187.067 299.744C187.067 300.512 186.768 301.115 186.171 301.552C185.584 301.989 184.843 302.208 183.947 302.208C183.158 302.208 182.48 302.043 181.915 301.712C181.35 301.381 180.939 300.923 180.683 300.336L182.171 299.472C182.448 300.24 183.04 300.624 183.947 300.624C184.854 300.624 185.307 300.325 185.307 299.728C185.307 299.472 185.158 299.264 184.859 299.104C184.571 298.944 184.214 298.811 183.787 298.704C183.371 298.587 182.95 298.453 182.523 298.304C182.096 298.155 181.734 297.909 181.435 297.568C181.147 297.216 181.003 296.773 181.003 296.24C181.003 295.504 181.28 294.912 181.835 294.464C182.4 294.016 183.099 293.792 183.931 293.792C184.592 293.792 185.179 293.941 185.691 294.24C186.214 294.528 186.614 294.933 186.891 295.456L185.435 296.272C185.158 295.664 184.656 295.36 183.931 295.36C183.6 295.36 183.323 295.435 183.099 295.584C182.875 295.723 182.763 295.931 182.763 296.208ZM192.738 295.664H190.754V299.504C190.754 299.835 190.828 300.075 190.978 300.224C191.127 300.363 191.346 300.443 191.634 300.464C191.932 300.475 192.3 300.469 192.738 300.448V302C191.415 302.16 190.466 302.048 189.89 301.664C189.314 301.269 189.026 300.549 189.026 299.504V295.664H187.554V294H189.026V292.272L190.754 291.76V294H192.738V295.664ZM195.937 292.48C195.724 292.693 195.468 292.8 195.169 292.8C194.87 292.8 194.609 292.693 194.385 292.48C194.172 292.256 194.065 291.995 194.065 291.696C194.065 291.397 194.172 291.141 194.385 290.928C194.598 290.704 194.86 290.592 195.169 290.592C195.478 290.592 195.74 290.704 195.953 290.928C196.166 291.141 196.273 291.397 196.273 291.696C196.273 291.995 196.161 292.256 195.937 292.48ZM194.305 302V294H196.033V302H194.305ZM202.247 293.792C203.165 293.792 203.906 294.085 204.471 294.672C205.037 295.259 205.319 296.064 205.319 297.088V302H203.591V297.264C203.591 296.667 203.431 296.208 203.111 295.888C202.791 295.568 202.354 295.408 201.799 295.408C201.191 295.408 200.701 295.6 200.327 295.984C199.954 296.357 199.767 296.933 199.767 297.712V302H198.039V294H199.767V295.024C200.29 294.203 201.117 293.792 202.247 293.792ZM213.548 294H215.244V301.632C215.244 302.848 214.844 303.781 214.044 304.432C213.244 305.083 212.273 305.408 211.132 305.408C209.287 305.408 208.023 304.763 207.34 303.472L208.828 302.608C209.244 303.429 210.023 303.84 211.164 303.84C211.911 303.84 212.492 303.643 212.908 303.248C213.335 302.864 213.548 302.325 213.548 301.632V300.656C212.897 301.584 211.969 302.048 210.764 302.048C209.633 302.048 208.679 301.648 207.9 300.848C207.121 300.037 206.732 299.061 206.732 297.92C206.732 296.779 207.121 295.808 207.9 295.008C208.679 294.197 209.633 293.792 210.764 293.792C211.969 293.792 212.897 294.256 213.548 295.184V294ZM209.18 299.712C209.671 300.192 210.279 300.432 211.004 300.432C211.729 300.432 212.332 300.192 212.812 299.712C213.303 299.232 213.548 298.635 213.548 297.92C213.548 297.205 213.303 296.608 212.812 296.128C212.332 295.648 211.729 295.408 211.004 295.408C210.279 295.408 209.671 295.648 209.18 296.128C208.7 296.608 208.46 297.205 208.46 297.92C208.46 298.635 208.7 299.232 209.18 299.712Z" fill="#2EC4B6"/>
<rect x="128" y="283" width="100" height="30" rx="15" stroke="#2EC4B6" stroke-width="2"/>
<defs>
<clipPath id="clip0_126_2501">
<rect width="20" height="20" fill="white" transform="translate(12 6)"/>
</clipPath>
<clipPath id="clip1_126_2501">
<rect width="20" height="20" fill="white" transform="translate(12 53)"/>
</clipPath>
<clipPath id="clip2_126_2501">
<rect width="20" height="20" fill="white" transform="translate(171 53)"/>
</clipPath>
<clipPath id="clip3_126_2501">
<rect width="20" height="20" fill="white" transform="translate(12 100)"/>
</clipPath>
<clipPath id="clip4_126_2501">
<rect width="20" height="20" fill="white" transform="translate(12 147)"/>
</clipPath>
<clipPath id="clip5_126_2501">
<rect width="20" height="20" fill="white" transform="translate(12 194)"/>
</clipPath>
<clipPath id="clip6_126_2501">
<rect width="20" height="20" fill="white" transform="translate(12 241)"/>
</clipPath>
<clipPath id="clip7_126_2501">
<rect width="20" height="20" fill="white" transform="translate(12 288)"/>
</clipPath>
<clipPath id="clip8_126_2501">
<rect width="20" height="20" fill="white" transform="translate(139 288)"/>
</clipPath>
</defs>
</svg>
