<svg width="310" height="220" viewBox="0 0 310 220" fill="none" xmlns="http://www.w3.org/2000/svg">
<path d="M27.8333 10.5833H16.1666C15.7064 10.5833 15.3333 10.9564 15.3333 11.4166V18.9166C15.3333 19.3769 15.7064 19.75 16.1666 19.75H27.8333C28.2935 19.75 28.6666 19.3769 28.6666 18.9166V11.4166C28.6666 10.9564 28.2935 10.5833 27.8333 10.5833Z" stroke="#2EC4B6" stroke-width="1.5" stroke-linecap="round" stroke-linejoin="round"/>
<path d="M16.1666 19.75H27.8333M15.1249 21.8333H28.8749C29.4503 21.8333 29.9166 21.367 29.9166 20.7917C29.9166 20.2163 29.4503 19.75 28.8749 19.75H15.1249C14.5496 19.75 14.0833 20.2163 14.0833 20.7917C14.0833 21.367 14.5496 21.8333 15.1249 21.8333Z" stroke="#2EC4B6" stroke-width="1.5" stroke-linecap="round" stroke-linejoin="round"/>
<path d="M44.68 10.56H39.96V13.696H44.52V15.456H39.96V20H38.12V8.8H44.68V10.56ZM47.9213 10.48C47.7079 10.6933 47.4519 10.8 47.1533 10.8C46.8546 10.8 46.5933 10.6933 46.3693 10.48C46.1559 10.256 46.0493 9.99467 46.0493 9.696C46.0493 9.39733 46.1559 9.14133 46.3693 8.928C46.5826 8.704 46.8439 8.592 47.1533 8.592C47.4626 8.592 47.7239 8.704 47.9373 8.928C48.1506 9.14133 48.2573 9.39733 48.2573 9.696C48.2573 9.99467 48.1453 10.256 47.9213 10.48ZM46.2893 20V12H48.0173V20H46.2893ZM56.3916 12H58.0876V19.632C58.0876 20.848 57.6876 21.7813 56.8876 22.432C56.0876 23.0827 55.117 23.408 53.9756 23.408C52.1303 23.408 50.8663 22.7627 50.1836 21.472L51.6716 20.608C52.0876 21.4293 52.8663 21.84 54.0076 21.84C54.7543 21.84 55.3356 21.6427 55.7516 21.248C56.1783 20.864 56.3916 20.3253 56.3916 19.632V18.656C55.741 19.584 54.813 20.048 53.6076 20.048C52.477 20.048 51.5223 19.648 50.7436 18.848C49.965 18.0373 49.5756 17.0613 49.5756 15.92C49.5756 14.7787 49.965 13.808 50.7436 13.008C51.5223 12.1973 52.477 11.792 53.6076 11.792C54.813 11.792 55.741 12.256 56.3916 13.184V12ZM52.0236 17.712C52.5143 18.192 53.1223 18.432 53.8476 18.432C54.573 18.432 55.1756 18.192 55.6556 17.712C56.1463 17.232 56.3916 16.6347 56.3916 15.92C56.3916 15.2053 56.1463 14.608 55.6556 14.128C55.1756 13.648 54.573 13.408 53.8476 13.408C53.1223 13.408 52.5143 13.648 52.0236 14.128C51.5436 14.608 51.3036 15.2053 51.3036 15.92C51.3036 16.6347 51.5436 17.232 52.0236 17.712ZM68.8378 11.792C69.7444 11.792 70.4751 12.0853 71.0298 12.672C71.5844 13.2587 71.8618 14.048 71.8618 15.04V20H70.1338V15.152C70.1338 14.5973 69.9951 14.1707 69.7178 13.872C69.4404 13.5627 69.0618 13.408 68.5818 13.408C68.0484 13.408 67.6218 13.584 67.3018 13.936C66.9924 14.288 66.8378 14.816 66.8378 15.52V20H65.1098V15.152C65.1098 14.5973 64.9764 14.1707 64.7098 13.872C64.4538 13.5627 64.0858 13.408 63.6058 13.408C63.0831 13.408 62.6564 13.5893 62.3258 13.952C61.9951 14.304 61.8298 14.8267 61.8298 15.52V20H60.1018V12H61.8298V12.96C62.3418 12.1813 63.1044 11.792 64.1178 11.792C65.1418 11.792 65.8991 12.2133 66.3898 13.056C66.9231 12.2133 67.7391 11.792 68.8378 11.792ZM80.0471 12H81.7751V20H80.0471V18.848C79.3965 19.7547 78.4631 20.208 77.2471 20.208C76.1485 20.208 75.2098 19.8027 74.4311 18.992C73.6525 18.1707 73.2631 17.1733 73.2631 16C73.2631 14.816 73.6525 13.8187 74.4311 13.008C75.2098 12.1973 76.1485 11.792 77.2471 11.792C78.4631 11.792 79.3965 12.24 80.0471 13.136V12ZM75.7111 17.84C76.1911 18.32 76.7938 18.56 77.5191 18.56C78.2445 18.56 78.8471 18.32 79.3271 17.84C79.8071 17.3493 80.0471 16.736 80.0471 16C80.0471 15.264 79.8071 14.656 79.3271 14.176C78.8471 13.6853 78.2445 13.44 77.5191 13.44C76.7938 13.44 76.1911 13.6853 75.7111 14.176C75.2311 14.656 74.9911 15.264 74.9911 16C74.9911 16.736 75.2311 17.3493 75.7111 17.84Z" fill="#2EC4B6"/>
<rect x="1" y="1" width="93" height="30" rx="15" stroke="#2EC4B6" stroke-width="2"/>
<path d="M132.833 10.5833H121.167C120.706 10.5833 120.333 10.9564 120.333 11.4166V18.9166C120.333 19.3769 120.706 19.75 121.167 19.75H132.833C133.294 19.75 133.667 19.3769 133.667 18.9166V11.4166C133.667 10.9564 133.294 10.5833 132.833 10.5833Z" stroke="#2EC4B6" stroke-width="1.5" stroke-linecap="round" stroke-linejoin="round"/>
<path d="M121.167 19.75H132.833M120.125 21.8333H133.875C134.45 21.8333 134.917 21.367 134.917 20.7917C134.917 20.2163 134.45 19.75 133.875 19.75H120.125C119.55 19.75 119.083 20.2163 119.083 20.7917C119.083 21.367 119.55 21.8333 120.125 21.8333Z" stroke="#2EC4B6" stroke-width="1.5" stroke-linecap="round" stroke-linejoin="round"/>
<path d="M147.248 8.8C148.304 8.8 149.184 9.152 149.888 9.856C150.603 10.56 150.96 11.4347 150.96 12.48C150.96 13.5147 150.603 14.3893 149.888 15.104C149.184 15.808 148.304 16.16 147.248 16.16H144.96V20H143.12V8.8H147.248ZM147.248 14.432C147.792 14.432 148.24 14.2507 148.592 13.888C148.944 13.5147 149.12 13.0453 149.12 12.48C149.12 11.9147 148.944 11.4507 148.592 11.088C148.24 10.7147 147.792 10.528 147.248 10.528H144.96V14.432H147.248ZM156.654 11.792C157.571 11.792 158.312 12.0853 158.878 12.672C159.443 13.2587 159.726 14.064 159.726 15.088V20H157.998V15.264C157.998 14.6667 157.838 14.208 157.518 13.888C157.198 13.568 156.76 13.408 156.206 13.408C155.598 13.408 155.107 13.6 154.734 13.984C154.36 14.3573 154.174 14.9333 154.174 15.712V20H152.446V8.8H154.174V13.024C154.696 12.2027 155.523 11.792 156.654 11.792ZM165.362 20.208C164.189 20.208 163.191 19.8027 162.37 18.992C161.549 18.1813 161.138 17.184 161.138 16C161.138 14.816 161.549 13.8187 162.37 13.008C163.191 12.1973 164.189 11.792 165.362 11.792C166.546 11.792 167.543 12.1973 168.354 13.008C169.175 13.8187 169.586 14.816 169.586 16C169.586 17.184 169.175 18.1813 168.354 18.992C167.543 19.8027 166.546 20.208 165.362 20.208ZM163.586 17.808C164.066 18.288 164.658 18.528 165.362 18.528C166.066 18.528 166.658 18.288 167.138 17.808C167.618 17.328 167.858 16.7253 167.858 16C167.858 15.2747 167.618 14.672 167.138 14.192C166.658 13.712 166.066 13.472 165.362 13.472C164.658 13.472 164.066 13.712 163.586 14.192C163.106 14.672 162.866 15.2747 162.866 16C162.866 16.7253 163.106 17.328 163.586 17.808ZM175.456 13.664H173.472V17.504C173.472 17.8347 173.547 18.0747 173.696 18.224C173.846 18.3627 174.064 18.4427 174.352 18.464C174.651 18.4747 175.019 18.4693 175.456 18.448V20C174.134 20.16 173.184 20.048 172.608 19.664C172.032 19.2693 171.744 18.5493 171.744 17.504V13.664H170.272V12H171.744V10.272L173.472 9.76V12H175.456V13.664ZM180.472 20.208C179.298 20.208 178.301 19.8027 177.48 18.992C176.658 18.1813 176.248 17.184 176.248 16C176.248 14.816 176.658 13.8187 177.48 13.008C178.301 12.1973 179.298 11.792 180.472 11.792C181.656 11.792 182.653 12.1973 183.464 13.008C184.285 13.8187 184.696 14.816 184.696 16C184.696 17.184 184.285 18.1813 183.464 18.992C182.653 19.8027 181.656 20.208 180.472 20.208ZM178.696 17.808C179.176 18.288 179.768 18.528 180.472 18.528C181.176 18.528 181.768 18.288 182.248 17.808C182.728 17.328 182.968 16.7253 182.968 16C182.968 15.2747 182.728 14.672 182.248 14.192C181.768 13.712 181.176 13.472 180.472 13.472C179.768 13.472 179.176 13.712 178.696 14.192C178.216 14.672 177.976 15.2747 177.976 16C177.976 16.7253 178.216 17.328 178.696 17.808ZM187.654 14.208C187.654 14.4747 187.798 14.688 188.086 14.848C188.384 14.9973 188.742 15.1307 189.158 15.248C189.584 15.3547 190.011 15.4827 190.438 15.632C190.864 15.7813 191.222 16.0373 191.51 16.4C191.808 16.752 191.958 17.2 191.958 17.744C191.958 18.512 191.659 19.1147 191.062 19.552C190.475 19.9893 189.734 20.208 188.838 20.208C188.048 20.208 187.371 20.0427 186.806 19.712C186.24 19.3813 185.83 18.9227 185.574 18.336L187.062 17.472C187.339 18.24 187.931 18.624 188.838 18.624C189.744 18.624 190.198 18.3253 190.198 17.728C190.198 17.472 190.048 17.264 189.75 17.104C189.462 16.944 189.104 16.8107 188.678 16.704C188.262 16.5867 187.84 16.4533 187.414 16.304C186.987 16.1547 186.624 15.9093 186.326 15.568C186.038 15.216 185.894 14.7733 185.894 14.24C185.894 13.504 186.171 12.912 186.726 12.464C187.291 12.016 187.99 11.792 188.822 11.792C189.483 11.792 190.07 11.9413 190.582 12.24C191.104 12.528 191.504 12.9333 191.782 13.456L190.326 14.272C190.048 13.664 189.547 13.36 188.822 13.36C188.491 13.36 188.214 13.4347 187.99 13.584C187.766 13.7227 187.654 13.9307 187.654 14.208ZM197.591 11.792C198.508 11.792 199.25 12.0853 199.815 12.672C200.38 13.2587 200.663 14.064 200.663 15.088V20H198.935V15.264C198.935 14.6667 198.775 14.208 198.455 13.888C198.135 13.568 197.698 13.408 197.143 13.408C196.535 13.408 196.044 13.6 195.671 13.984C195.298 14.3573 195.111 14.9333 195.111 15.712V20H193.383V8.8H195.111V13.024C195.634 12.2027 196.46 11.792 197.591 11.792ZM206.3 20.208C205.126 20.208 204.129 19.8027 203.308 18.992C202.486 18.1813 202.076 17.184 202.076 16C202.076 14.816 202.486 13.8187 203.308 13.008C204.129 12.1973 205.126 11.792 206.3 11.792C207.484 11.792 208.481 12.1973 209.292 13.008C210.113 13.8187 210.524 14.816 210.524 16C210.524 17.184 210.113 18.1813 209.292 18.992C208.481 19.8027 207.484 20.208 206.3 20.208ZM204.524 17.808C205.004 18.288 205.596 18.528 206.3 18.528C207.004 18.528 207.596 18.288 208.076 17.808C208.556 17.328 208.796 16.7253 208.796 16C208.796 15.2747 208.556 14.672 208.076 14.192C207.596 13.712 207.004 13.472 206.3 13.472C205.596 13.472 205.004 13.712 204.524 14.192C204.044 14.672 203.804 15.2747 203.804 16C203.804 16.7253 204.044 17.328 204.524 17.808ZM216.614 11.792C217.713 11.792 218.651 12.2027 219.43 13.024C220.209 13.8347 220.598 14.8267 220.598 16C220.598 17.184 220.209 18.1813 219.43 18.992C218.651 19.8027 217.713 20.208 216.614 20.208C215.398 20.208 214.465 19.76 213.814 18.864V23.2H212.086V12H213.814V13.152C214.465 12.2453 215.398 11.792 216.614 11.792ZM214.534 17.84C215.014 18.32 215.617 18.56 216.342 18.56C217.067 18.56 217.67 18.32 218.15 17.84C218.63 17.3493 218.87 16.736 218.87 16C218.87 15.264 218.63 14.656 218.15 14.176C217.67 13.6853 217.067 13.44 216.342 13.44C215.617 13.44 215.014 13.6853 214.534 14.176C214.054 14.656 213.814 15.264 213.814 16C213.814 16.736 214.054 17.3493 214.534 17.84Z" fill="#2EC4B6"/>
<rect x="106" y="1" width="127" height="30" rx="15" stroke="#2EC4B6" stroke-width="2"/>
<path d="M27.8333 57.5833H16.1666C15.7064 57.5833 15.3333 57.9564 15.3333 58.4166V65.9166C15.3333 66.3769 15.7064 66.75 16.1666 66.75H27.8333C28.2935 66.75 28.6666 66.3769 28.6666 65.9166V58.4166C28.6666 57.9564 28.2935 57.5833 27.8333 57.5833Z" stroke="#2EC4B6" stroke-width="1.5" stroke-linecap="round" stroke-linejoin="round"/>
<path d="M16.1666 66.75H27.8333M15.1249 68.8333H28.8749C29.4503 68.8333 29.9166 68.367 29.9166 67.7917C29.9166 67.2163 29.4503 66.75 28.8749 66.75H15.1249C14.5496 66.75 14.0833 67.2163 14.0833 67.7917C14.0833 68.367 14.5496 68.8333 15.1249 68.8333Z" stroke="#2EC4B6" stroke-width="1.5" stroke-linecap="round" stroke-linejoin="round"/>
<path d="M38.12 55.8H39.96V67H38.12V55.8ZM42.0861 67V55.32H43.8141V67H42.0861ZM45.8205 67V55.32H47.5485V67H45.8205ZM54.9469 59H56.6749V67H54.9469V65.976C54.4242 66.7973 53.5975 67.208 52.4669 67.208C51.5495 67.208 50.8082 66.9147 50.2429 66.328C49.6775 65.7413 49.3949 64.936 49.3949 63.912V59H51.1229V63.736C51.1229 64.3333 51.2829 64.792 51.6029 65.112C51.9229 65.432 52.3602 65.592 52.9149 65.592C53.5229 65.592 54.0135 65.4053 54.3869 65.032C54.7602 64.648 54.9469 64.0667 54.9469 63.288V59ZM60.2006 61.208C60.2006 61.4747 60.3446 61.688 60.6326 61.848C60.9313 61.9973 61.2886 62.1307 61.7046 62.248C62.1313 62.3547 62.558 62.4827 62.9846 62.632C63.4113 62.7813 63.7686 63.0373 64.0566 63.4C64.3553 63.752 64.5046 64.2 64.5046 64.744C64.5046 65.512 64.206 66.1147 63.6086 66.552C63.022 66.9893 62.2806 67.208 61.3846 67.208C60.5953 67.208 59.918 67.0427 59.3526 66.712C58.7873 66.3813 58.3766 65.9227 58.1206 65.336L59.6086 64.472C59.886 65.24 60.478 65.624 61.3846 65.624C62.2913 65.624 62.7446 65.3253 62.7446 64.728C62.7446 64.472 62.5953 64.264 62.2966 64.104C62.0086 63.944 61.6513 63.8107 61.2246 63.704C60.8086 63.5867 60.3873 63.4533 59.9606 63.304C59.534 63.1547 59.1713 62.9093 58.8726 62.568C58.5846 62.216 58.4406 61.7733 58.4406 61.24C58.4406 60.504 58.718 59.912 59.2726 59.464C59.838 59.016 60.5366 58.792 61.3686 58.792C62.03 58.792 62.6166 58.9413 63.1286 59.24C63.6513 59.528 64.0513 59.9333 64.3286 60.456L62.8726 61.272C62.5953 60.664 62.094 60.36 61.3686 60.36C61.038 60.36 60.7606 60.4347 60.5366 60.584C60.3126 60.7227 60.2006 60.9307 60.2006 61.208ZM70.1751 60.664H68.1911V64.504C68.1911 64.8347 68.2658 65.0747 68.4151 65.224C68.5645 65.3627 68.7831 65.4427 69.0711 65.464C69.3698 65.4747 69.7378 65.4693 70.1751 65.448V67C68.8525 67.16 67.9031 67.048 67.3271 66.664C66.7511 66.2693 66.4631 65.5493 66.4631 64.504V60.664H64.9911V59H66.4631V57.272L68.1911 56.76V59H70.1751V60.664ZM73.5485 60.344C73.9858 59.352 74.8072 58.856 76.0125 58.856V60.728C75.3512 60.6853 74.7752 60.8453 74.2845 61.208C73.7938 61.56 73.5485 62.1467 73.5485 62.968V67H71.8205V59H73.5485V60.344ZM83.2503 59H84.9783V67H83.2503V65.848C82.5996 66.7547 81.6663 67.208 80.4503 67.208C79.3516 67.208 78.4129 66.8027 77.6343 65.992C76.8556 65.1707 76.4663 64.1733 76.4663 63C76.4663 61.816 76.8556 60.8187 77.6343 60.008C78.4129 59.1973 79.3516 58.792 80.4503 58.792C81.6663 58.792 82.5996 59.24 83.2503 60.136V59ZM78.9143 64.84C79.3943 65.32 79.9969 65.56 80.7223 65.56C81.4476 65.56 82.0503 65.32 82.5303 64.84C83.0103 64.3493 83.2503 63.736 83.2503 63C83.2503 62.264 83.0103 61.656 82.5303 61.176C82.0503 60.6853 81.4476 60.44 80.7223 60.44C79.9969 60.44 79.3943 60.6853 78.9143 61.176C78.4343 61.656 78.1943 62.264 78.1943 63C78.1943 63.736 78.4343 64.3493 78.9143 64.84ZM91.4564 60.664H89.4724V64.504C89.4724 64.8347 89.547 65.0747 89.6964 65.224C89.8457 65.3627 90.0644 65.4427 90.3524 65.464C90.651 65.4747 91.019 65.4693 91.4564 65.448V67C90.1337 67.16 89.1844 67.048 88.6084 66.664C88.0324 66.2693 87.7444 65.5493 87.7444 64.504V60.664H86.2724V59H87.7444V57.272L89.4724 56.76V59H91.4564V60.664ZM96.4715 67.208C95.2982 67.208 94.3008 66.8027 93.4795 65.992C92.6582 65.1813 92.2475 64.184 92.2475 63C92.2475 61.816 92.6582 60.8187 93.4795 60.008C94.3008 59.1973 95.2982 58.792 96.4715 58.792C97.6555 58.792 98.6528 59.1973 99.4635 60.008C100.285 60.8187 100.696 61.816 100.696 63C100.696 64.184 100.285 65.1813 99.4635 65.992C98.6528 66.8027 97.6555 67.208 96.4715 67.208ZM94.6955 64.808C95.1755 65.288 95.7675 65.528 96.4715 65.528C97.1755 65.528 97.7675 65.288 98.2475 64.808C98.7275 64.328 98.9675 63.7253 98.9675 63C98.9675 62.2747 98.7275 61.672 98.2475 61.192C97.7675 60.712 97.1755 60.472 96.4715 60.472C95.7675 60.472 95.1755 60.712 94.6955 61.192C94.2155 61.672 93.9755 62.2747 93.9755 63C93.9755 63.7253 94.2155 64.328 94.6955 64.808ZM103.986 60.344C104.423 59.352 105.245 58.856 106.45 58.856V60.728C105.789 60.6853 105.213 60.8453 104.722 61.208C104.231 61.56 103.986 62.1467 103.986 62.968V67H102.258V59H103.986V60.344Z" fill="#2EC4B6"/>
<rect x="1" y="48" width="117" height="30" rx="15" stroke="#2EC4B6" stroke-width="2"/>
<path d="M156.833 57.5833H145.167C144.706 57.5833 144.333 57.9564 144.333 58.4166V65.9166C144.333 66.3769 144.706 66.75 145.167 66.75H156.833C157.294 66.75 157.667 66.3769 157.667 65.9166V58.4166C157.667 57.9564 157.294 57.5833 156.833 57.5833Z" stroke="#2EC4B6" stroke-width="1.5" stroke-linecap="round" stroke-linejoin="round"/>
<path d="M145.167 66.75H156.833M144.125 68.8333H157.875C158.45 68.8333 158.917 68.367 158.917 67.7917C158.917 67.2163 158.45 66.75 157.875 66.75H144.125C143.55 66.75 143.083 67.2163 143.083 67.7917C143.083 68.367 143.55 68.8333 144.125 68.8333Z" stroke="#2EC4B6" stroke-width="1.5" stroke-linecap="round" stroke-linejoin="round"/>
<path d="M174.416 67L173.632 64.744H168.864L168.08 67H166.08L170.144 55.8H172.352L176.4 67H174.416ZM169.472 63.016H173.024L171.248 57.96L169.472 63.016ZM183.625 55.8H185.353V67H183.625V65.848C182.975 66.7547 182.041 67.208 180.825 67.208C179.727 67.208 178.788 66.8027 178.009 65.992C177.231 65.1707 176.841 64.1733 176.841 63C176.841 61.816 177.231 60.8187 178.009 60.008C178.788 59.1973 179.727 58.792 180.825 58.792C182.041 58.792 182.975 59.24 183.625 60.136V55.8ZM179.289 64.84C179.769 65.32 180.372 65.56 181.097 65.56C181.823 65.56 182.425 65.32 182.905 64.84C183.385 64.3493 183.625 63.736 183.625 63C183.625 62.264 183.385 61.656 182.905 61.176C182.425 60.6853 181.823 60.44 181.097 60.44C180.372 60.44 179.769 60.6853 179.289 61.176C178.809 61.656 178.569 62.264 178.569 63C178.569 63.736 178.809 64.3493 179.289 64.84ZM191.143 67.208C189.97 67.208 188.973 66.8027 188.151 65.992C187.33 65.1813 186.919 64.184 186.919 63C186.919 61.816 187.33 60.8187 188.151 60.008C188.973 59.1973 189.97 58.792 191.143 58.792C192.327 58.792 193.325 59.1973 194.135 60.008C194.957 60.8187 195.367 61.816 195.367 63C195.367 64.184 194.957 65.1813 194.135 65.992C193.325 66.8027 192.327 67.208 191.143 67.208ZM189.367 64.808C189.847 65.288 190.439 65.528 191.143 65.528C191.847 65.528 192.439 65.288 192.919 64.808C193.399 64.328 193.639 63.7253 193.639 63C193.639 62.2747 193.399 61.672 192.919 61.192C192.439 60.712 191.847 60.472 191.143 60.472C190.439 60.472 189.847 60.712 189.367 61.192C188.887 61.672 188.647 62.2747 188.647 63C188.647 63.7253 188.887 64.328 189.367 64.808ZM201.458 58.792C202.557 58.792 203.495 59.1973 204.274 60.008C205.053 60.8187 205.442 61.816 205.442 63C205.442 64.1733 205.053 65.1707 204.274 65.992C203.495 66.8027 202.557 67.208 201.458 67.208C200.242 67.208 199.309 66.7547 198.658 65.848V67H196.93V55.8H198.658V60.136C199.309 59.24 200.242 58.792 201.458 58.792ZM199.378 64.84C199.858 65.32 200.461 65.56 201.186 65.56C201.911 65.56 202.514 65.32 202.994 64.84C203.474 64.3493 203.714 63.736 203.714 63C203.714 62.264 203.474 61.656 202.994 61.176C202.514 60.6853 201.911 60.44 201.186 60.44C200.461 60.44 199.858 60.6853 199.378 61.176C198.898 61.656 198.658 62.264 198.658 63C198.658 63.736 198.898 64.3493 199.378 64.84ZM208.368 63.736C208.496 64.344 208.789 64.8133 209.248 65.144C209.707 65.464 210.267 65.624 210.928 65.624C211.845 65.624 212.533 65.2933 212.992 64.632L214.416 65.464C213.627 66.6267 212.459 67.208 210.912 67.208C209.611 67.208 208.56 66.8133 207.76 66.024C206.96 65.224 206.56 64.216 206.56 63C206.56 61.8053 206.955 60.808 207.744 60.008C208.533 59.1973 209.547 58.792 210.784 58.792C211.957 58.792 212.917 59.2027 213.664 60.024C214.421 60.8453 214.8 61.8427 214.8 63.016C214.8 63.1973 214.779 63.4373 214.736 63.736H208.368ZM208.352 62.328H213.056C212.939 61.6773 212.667 61.1867 212.24 60.856C211.824 60.5253 211.333 60.36 210.768 60.36C210.128 60.36 209.595 60.536 209.168 60.888C208.741 61.24 208.469 61.72 208.352 62.328ZM228.673 67H226.577L224.113 62.952L221.649 67H219.553L223.073 61.24L219.761 55.8H221.841L224.113 59.528L226.385 55.8H228.481L225.169 61.24L228.673 67ZM234.426 55.8C235.962 55.8 237.237 56.3387 238.25 57.416C239.274 58.4933 239.786 59.8213 239.786 61.4C239.786 62.968 239.274 64.296 238.25 65.384C237.237 66.4613 235.962 67 234.426 67H230.026V55.8H234.426ZM234.426 65.24C235.482 65.24 236.341 64.8773 237.002 64.152C237.674 63.4267 238.01 62.5093 238.01 61.4C238.01 60.28 237.674 59.3627 237.002 58.648C236.341 57.9227 235.482 57.56 234.426 57.56H231.866V65.24H234.426Z" fill="#2EC4B6"/>
<rect x="130" y="48" width="122" height="30" rx="15" stroke="#2EC4B6" stroke-width="2"/>
<path d="M27.8333 104.583H16.1666C15.7064 104.583 15.3333 104.956 15.3333 105.417V112.917C15.3333 113.377 15.7064 113.75 16.1666 113.75H27.8333C28.2935 113.75 28.6666 113.377 28.6666 112.917V105.417C28.6666 104.956 28.2935 104.583 27.8333 104.583Z" stroke="#2EC4B6" stroke-width="1.5" stroke-linecap="round" stroke-linejoin="round"/>
<path d="M16.1666 113.75H27.8333M15.1249 115.833H28.8749C29.4503 115.833 29.9166 115.367 29.9166 114.792C29.9166 114.216 29.4503 113.75 28.8749 113.75H15.1249C14.5496 113.75 14.0833 114.216 14.0833 114.792C14.0833 115.367 14.5496 115.833 15.1249 115.833Z" stroke="#2EC4B6" stroke-width="1.5" stroke-linecap="round" stroke-linejoin="round"/>
<path d="M45.416 114L44.632 111.744H39.864L39.08 114H37.08L41.144 102.8H43.352L47.4 114H45.416ZM40.472 110.016H44.024L42.248 104.96L40.472 110.016ZM52.4344 104.256C51.1757 104.139 50.5464 104.667 50.5464 105.84V106H52.4344V107.664H50.5464V114H48.8184V107.664H47.6024V106H48.8184V105.84C48.8184 104.741 49.1224 103.909 49.7304 103.344C50.349 102.768 51.2504 102.517 52.4344 102.592V104.256ZM58.1908 107.664H56.2068V111.504C56.2068 111.835 56.2814 112.075 56.4308 112.224C56.5801 112.363 56.7988 112.443 57.0868 112.464C57.3854 112.475 57.7534 112.469 58.1908 112.448V114C56.8681 114.16 55.9188 114.048 55.3428 113.664C54.7668 113.269 54.4788 112.549 54.4788 111.504V107.664H53.0068V106H54.4788V104.272L56.2068 103.76V106H58.1908V107.664ZM60.7899 110.736C60.9179 111.344 61.2112 111.813 61.6699 112.144C62.1285 112.464 62.6885 112.624 63.3499 112.624C64.2672 112.624 64.9552 112.293 65.4139 111.632L66.8379 112.464C66.0485 113.627 64.8805 114.208 63.3339 114.208C62.0325 114.208 60.9819 113.813 60.1819 113.024C59.3819 112.224 58.9819 111.216 58.9819 110C58.9819 108.805 59.3765 107.808 60.1659 107.008C60.9552 106.197 61.9685 105.792 63.2059 105.792C64.3792 105.792 65.3392 106.203 66.0859 107.024C66.8432 107.845 67.2219 108.843 67.2219 110.016C67.2219 110.197 67.2005 110.437 67.1579 110.736H60.7899ZM60.7739 109.328H65.4779C65.3605 108.677 65.0885 108.187 64.6619 107.856C64.2459 107.525 63.7552 107.36 63.1899 107.36C62.5499 107.36 62.0165 107.536 61.5899 107.888C61.1632 108.24 60.8912 108.72 60.7739 109.328ZM70.4704 107.344C70.9077 106.352 71.729 105.856 72.9344 105.856V107.728C72.273 107.685 71.697 107.845 71.2064 108.208C70.7157 108.56 70.4704 109.147 70.4704 109.968V114H68.7424V106H70.4704V107.344ZM80.1631 112.24H85.1231V114H78.3231V102.8H85.0431V104.56H80.1631V107.472H84.6431V109.216H80.1631V112.24ZM95.2875 104.096C94.0288 103.979 93.3995 104.507 93.3995 105.68V106H95.2875V107.664H93.3995V114H91.6715V107.664H88.9995V114H87.2715V107.664H86.0555V106H87.2715V105.84C87.2715 104.741 87.5755 103.909 88.1835 103.344C88.8022 102.768 89.7035 102.517 90.8875 102.592V104.256C89.6288 104.139 88.9995 104.667 88.9995 105.84V106H91.6715V105.68C91.6715 104.581 91.9755 103.749 92.5835 103.184C93.2022 102.608 94.1035 102.357 95.2875 102.432V104.096ZM97.2743 110.736C97.4023 111.344 97.6956 111.813 98.1543 112.144C98.6129 112.464 99.1729 112.624 99.8343 112.624C100.752 112.624 101.44 112.293 101.898 111.632L103.322 112.464C102.533 113.627 101.365 114.208 99.8183 114.208C98.5169 114.208 97.4663 113.813 96.6663 113.024C95.8663 112.224 95.4663 111.216 95.4663 110C95.4663 108.805 95.8609 107.808 96.6503 107.008C97.4396 106.197 98.4529 105.792 99.6903 105.792C100.864 105.792 101.824 106.203 102.57 107.024C103.328 107.845 103.706 108.843 103.706 110.016C103.706 110.197 103.685 110.437 103.642 110.736H97.2743ZM97.2582 109.328H101.962C101.845 108.677 101.573 108.187 101.146 107.856C100.73 107.525 100.24 107.36 99.6743 107.36C99.0343 107.36 98.5009 107.536 98.0743 107.888C97.6476 108.24 97.3756 108.72 97.2582 109.328ZM108.956 114.208C107.751 114.208 106.743 113.803 105.932 112.992C105.132 112.181 104.732 111.184 104.732 110C104.732 108.805 105.132 107.808 105.932 107.008C106.743 106.197 107.751 105.792 108.956 105.792C109.735 105.792 110.444 105.979 111.084 106.352C111.724 106.725 112.204 107.227 112.524 107.856L111.036 108.72C110.855 108.336 110.577 108.037 110.204 107.824C109.841 107.6 109.42 107.488 108.94 107.488C108.236 107.488 107.644 107.728 107.164 108.208C106.695 108.688 106.46 109.285 106.46 110C106.46 110.715 106.695 111.312 107.164 111.792C107.644 112.272 108.236 112.512 108.94 112.512C109.409 112.512 109.831 112.4 110.204 112.176C110.588 111.952 110.876 111.653 111.068 111.28L112.556 112.128C112.215 112.768 111.724 113.275 111.084 113.648C110.444 114.021 109.735 114.208 108.956 114.208ZM118.269 107.664H116.285V111.504C116.285 111.835 116.36 112.075 116.509 112.224C116.658 112.363 116.877 112.443 117.165 112.464C117.464 112.475 117.832 112.469 118.269 112.448V114C116.946 114.16 115.997 114.048 115.421 113.664C114.845 113.269 114.557 112.549 114.557 111.504V107.664H113.085V106H114.557V104.272L116.285 103.76V106H118.269V107.664ZM121.091 108.208C121.091 108.475 121.235 108.688 121.523 108.848C121.822 108.997 122.179 109.131 122.595 109.248C123.022 109.355 123.449 109.483 123.875 109.632C124.302 109.781 124.659 110.037 124.947 110.4C125.246 110.752 125.395 111.2 125.395 111.744C125.395 112.512 125.097 113.115 124.499 113.552C123.913 113.989 123.171 114.208 122.275 114.208C121.486 114.208 120.809 114.043 120.243 113.712C119.678 113.381 119.267 112.923 119.011 112.336L120.499 111.472C120.777 112.24 121.369 112.624 122.275 112.624C123.182 112.624 123.635 112.325 123.635 111.728C123.635 111.472 123.486 111.264 123.187 111.104C122.899 110.944 122.542 110.811 122.115 110.704C121.699 110.587 121.278 110.453 120.851 110.304C120.425 110.155 120.062 109.909 119.763 109.568C119.475 109.216 119.331 108.773 119.331 108.24C119.331 107.504 119.609 106.912 120.163 106.464C120.729 106.016 121.427 105.792 122.259 105.792C122.921 105.792 123.507 105.941 124.019 106.24C124.542 106.528 124.942 106.933 125.219 107.456L123.763 108.272C123.486 107.664 122.985 107.36 122.259 107.36C121.929 107.36 121.651 107.435 121.427 107.584C121.203 107.723 121.091 107.931 121.091 108.208Z" fill="#2EC4B6"/>
<rect x="1" y="95" width="136" height="30" rx="15" stroke="#2EC4B6" stroke-width="2"/>
<path d="M175.833 104.583H164.167C163.706 104.583 163.333 104.956 163.333 105.417V112.917C163.333 113.377 163.706 113.75 164.167 113.75H175.833C176.294 113.75 176.667 113.377 176.667 112.917V105.417C176.667 104.956 176.294 104.583 175.833 104.583Z" stroke="#2EC4B6" stroke-width="1.5" stroke-linecap="round" stroke-linejoin="round"/>
<path d="M164.167 113.75H175.833M163.125 115.833H176.875C177.45 115.833 177.917 115.367 177.917 114.792C177.917 114.216 177.45 113.75 176.875 113.75H163.125C162.55 113.75 162.083 114.216 162.083 114.792C162.083 115.367 162.55 115.833 163.125 115.833Z" stroke="#2EC4B6" stroke-width="1.5" stroke-linecap="round" stroke-linejoin="round"/>
<path d="M192.76 102.8H194.6V114H192.76V109.152H187.96V114H186.12V102.8H187.96V107.392H192.76V102.8ZM204.119 102.8V104.56H200.967V114H199.127V104.56H195.959V102.8H204.119ZM216.199 102.8V114H214.359V106.016L210.951 111.648H210.727L207.319 106V114H205.479V102.8H207.463L210.839 108.4L214.231 102.8H216.199ZM220.273 112.24H224.833V114H218.433V102.8H220.273V112.24ZM229.478 107.024C230.545 107.024 231.446 107.344 232.182 107.984C232.918 108.613 233.286 109.488 233.286 110.608C233.286 111.728 232.907 112.608 232.15 113.248C231.393 113.888 230.465 114.208 229.366 114.208C228.481 114.208 227.697 114.005 227.014 113.6C226.331 113.184 225.846 112.587 225.558 111.808L227.142 110.896C227.441 111.909 228.182 112.416 229.366 112.416C229.995 112.416 230.497 112.256 230.87 111.936C231.254 111.605 231.446 111.163 231.446 110.608C231.446 110.053 231.259 109.616 230.886 109.296C230.513 108.976 230.017 108.816 229.398 108.816H226.134L226.566 102.8H232.806V104.528H228.262L228.07 107.024H229.478Z" fill="#2EC4B6"/>
<rect x="149" y="95" width="96" height="30" rx="15" stroke="#2EC4B6" stroke-width="2"/>
<path d="M27.8333 151.583H16.1666C15.7064 151.583 15.3333 151.956 15.3333 152.417V159.917C15.3333 160.377 15.7064 160.75 16.1666 160.75H27.8333C28.2935 160.75 28.6666 160.377 28.6666 159.917V152.417C28.6666 151.956 28.2935 151.583 27.8333 151.583Z" stroke="#2EC4B6" stroke-width="1.5" stroke-linecap="round" stroke-linejoin="round"/>
<path d="M16.1666 160.75H27.8333M15.1249 162.833H28.8749C29.4503 162.833 29.9166 162.367 29.9166 161.792C29.9166 161.216 29.4503 160.75 28.8749 160.75H15.1249C14.5496 160.75 14.0833 161.216 14.0833 161.792C14.0833 162.367 14.5496 162.833 15.1249 162.833Z" stroke="#2EC4B6" stroke-width="1.5" stroke-linecap="round" stroke-linejoin="round"/>
<path d="M43.416 161.208C41.7307 161.208 40.3333 160.653 39.224 159.544C38.1147 158.424 37.56 157.043 37.56 155.4C37.56 153.757 38.1147 152.381 39.224 151.272C40.3333 150.152 41.7307 149.592 43.416 149.592C44.4293 149.592 45.3627 149.832 46.216 150.312C47.08 150.792 47.752 151.443 48.232 152.264L46.632 153.192C46.3333 152.637 45.896 152.2 45.32 151.88C44.7547 151.549 44.12 151.384 43.416 151.384C42.2213 151.384 41.2507 151.763 40.504 152.52C39.768 153.277 39.4 154.237 39.4 155.4C39.4 156.563 39.768 157.523 40.504 158.28C41.2507 159.037 42.2213 159.416 43.416 159.416C44.12 159.416 44.76 159.256 45.336 158.936C45.912 158.605 46.344 158.163 46.632 157.608L48.232 158.52C47.7627 159.341 47.096 159.997 46.232 160.488C45.3787 160.968 44.44 161.208 43.416 161.208ZM53.4886 161.208C52.4113 161.208 51.494 160.963 50.7366 160.472C49.99 159.981 49.4673 159.309 49.1686 158.456L50.7526 157.528C51.2006 158.787 52.1286 159.416 53.5366 159.416C54.23 159.416 54.7473 159.283 55.0886 159.016C55.4406 158.739 55.6166 158.381 55.6166 157.944C55.6166 157.485 55.43 157.139 55.0566 156.904C54.6833 156.659 54.022 156.392 53.0726 156.104C52.5393 155.944 52.1073 155.795 51.7766 155.656C51.446 155.517 51.094 155.325 50.7206 155.08C50.358 154.824 50.086 154.509 49.9046 154.136C49.7233 153.763 49.6326 153.325 49.6326 152.824C49.6326 151.832 49.9846 151.048 50.6886 150.472C51.3926 149.885 52.2406 149.592 53.2326 149.592C54.1286 149.592 54.9126 149.811 55.5846 150.248C56.2566 150.685 56.774 151.288 57.1366 152.056L55.5846 152.952C55.1153 151.907 54.3313 151.384 53.2326 151.384C52.6993 151.384 52.2726 151.512 51.9526 151.768C51.6326 152.013 51.4726 152.349 51.4726 152.776C51.4726 153.192 51.6326 153.523 51.9526 153.768C52.2833 154.003 52.8753 154.253 53.7286 154.52C54.1553 154.659 54.4646 154.765 54.6566 154.84C54.8593 154.904 55.1366 155.011 55.4886 155.16C55.8513 155.309 56.1233 155.459 56.3046 155.608C56.486 155.757 56.678 155.944 56.8806 156.168C57.094 156.392 57.2433 156.648 57.3286 156.936C57.414 157.224 57.4566 157.549 57.4566 157.912C57.4566 158.925 57.0886 159.731 56.3526 160.328C55.6273 160.915 54.6726 161.208 53.4886 161.208ZM62.4105 161.208C61.3332 161.208 60.4158 160.963 59.6585 160.472C58.9118 159.981 58.3892 159.309 58.0905 158.456L59.6745 157.528C60.1225 158.787 61.0505 159.416 62.4585 159.416C63.1518 159.416 63.6692 159.283 64.0105 159.016C64.3625 158.739 64.5385 158.381 64.5385 157.944C64.5385 157.485 64.3518 157.139 63.9785 156.904C63.6052 156.659 62.9438 156.392 61.9945 156.104C61.4612 155.944 61.0292 155.795 60.6985 155.656C60.3678 155.517 60.0158 155.325 59.6425 155.08C59.2798 154.824 59.0078 154.509 58.8265 154.136C58.6452 153.763 58.5545 153.325 58.5545 152.824C58.5545 151.832 58.9065 151.048 59.6105 150.472C60.3145 149.885 61.1625 149.592 62.1545 149.592C63.0505 149.592 63.8345 149.811 64.5065 150.248C65.1785 150.685 65.6958 151.288 66.0585 152.056L64.5065 152.952C64.0372 151.907 63.2532 151.384 62.1545 151.384C61.6212 151.384 61.1945 151.512 60.8745 151.768C60.5545 152.013 60.3945 152.349 60.3945 152.776C60.3945 153.192 60.5545 153.523 60.8745 153.768C61.2052 154.003 61.7972 154.253 62.6505 154.52C63.0772 154.659 63.3865 154.765 63.5785 154.84C63.7812 154.904 64.0585 155.011 64.4105 155.16C64.7732 155.309 65.0452 155.459 65.2265 155.608C65.4078 155.757 65.5998 155.944 65.8025 156.168C66.0158 156.392 66.1652 156.648 66.2505 156.936C66.3358 157.224 66.3785 157.549 66.3785 157.912C66.3785 158.925 66.0105 159.731 65.2745 160.328C64.5492 160.915 63.5945 161.208 62.4105 161.208ZM72.2034 154.376C73.014 154.568 73.67 154.947 74.1714 155.512C74.6834 156.067 74.9394 156.765 74.9394 157.608C74.9394 158.728 74.5607 159.608 73.8034 160.248C73.046 160.888 72.118 161.208 71.0194 161.208C70.166 161.208 69.398 161.011 68.7154 160.616C68.0434 160.221 67.558 159.645 67.2594 158.888L68.8274 157.976C69.158 158.936 69.8887 159.416 71.0194 159.416C71.6594 159.416 72.166 159.256 72.5394 158.936C72.9127 158.605 73.0994 158.163 73.0994 157.608C73.0994 157.053 72.9127 156.616 72.5394 156.296C72.166 155.976 71.6594 155.816 71.0194 155.816H70.6034L69.8674 154.712L72.2834 151.528H67.5954V149.8H74.4754V151.368L72.2034 154.376Z" fill="#2EC4B6"/>
<rect x="1" y="142" width="86" height="30" rx="15" stroke="#2EC4B6" stroke-width="2"/>
<path d="M125.833 151.583H114.167C113.706 151.583 113.333 151.956 113.333 152.417V159.917C113.333 160.377 113.706 160.75 114.167 160.75H125.833C126.294 160.75 126.667 160.377 126.667 159.917V152.417C126.667 151.956 126.294 151.583 125.833 151.583Z" stroke="#2EC4B6" stroke-width="1.5" stroke-linecap="round" stroke-linejoin="round"/>
<path d="M114.167 160.75H125.833M113.125 162.833H126.875C127.45 162.833 127.917 162.367 127.917 161.792C127.917 161.216 127.45 160.75 126.875 160.75H113.125C112.55 160.75 112.083 161.216 112.083 161.792C112.083 162.367 112.55 162.833 113.125 162.833Z" stroke="#2EC4B6" stroke-width="1.5" stroke-linecap="round" stroke-linejoin="round"/>
<path d="M139.16 161.208C137.421 161.208 136.221 160.525 135.56 159.16L137.144 158.232C137.507 159.021 138.184 159.416 139.176 159.416C139.816 159.416 140.307 159.261 140.648 158.952C141 158.632 141.176 158.184 141.176 157.608V149.8H143.016V157.608C143.016 158.76 142.653 159.651 141.928 160.28C141.203 160.899 140.28 161.208 139.16 161.208ZM151.282 153H153.01V161H151.282V159.848C150.631 160.755 149.698 161.208 148.482 161.208C147.383 161.208 146.444 160.803 145.666 159.992C144.887 159.171 144.498 158.173 144.498 157C144.498 155.816 144.887 154.819 145.666 154.008C146.444 153.197 147.383 152.792 148.482 152.792C149.698 152.792 150.631 153.24 151.282 154.136V153ZM146.946 158.84C147.426 159.32 148.028 159.56 148.754 159.56C149.479 159.56 150.082 159.32 150.562 158.84C151.042 158.349 151.282 157.736 151.282 157C151.282 156.264 151.042 155.656 150.562 155.176C150.082 154.685 149.479 154.44 148.754 154.44C148.028 154.44 147.426 154.685 146.946 155.176C146.466 155.656 146.226 156.264 146.226 157C146.226 157.736 146.466 158.349 146.946 158.84ZM160.448 153H162.336L159.216 161H157.216L154.096 153H155.984L158.224 159.08L160.448 153ZM169.453 153H171.181V161H169.453V159.848C168.803 160.755 167.869 161.208 166.653 161.208C165.555 161.208 164.616 160.803 163.837 159.992C163.059 159.171 162.669 158.173 162.669 157C162.669 155.816 163.059 154.819 163.837 154.008C164.616 153.197 165.555 152.792 166.653 152.792C167.869 152.792 168.803 153.24 169.453 154.136V153ZM165.117 158.84C165.597 159.32 166.2 159.56 166.925 159.56C167.651 159.56 168.253 159.32 168.733 158.84C169.213 158.349 169.453 157.736 169.453 157C169.453 156.264 169.213 155.656 168.733 155.176C168.253 154.685 167.651 154.44 166.925 154.44C166.2 154.44 165.597 154.685 165.117 155.176C164.637 155.656 164.397 156.264 164.397 157C164.397 157.736 164.637 158.349 165.117 158.84ZM174.701 155.208C174.701 155.475 174.845 155.688 175.133 155.848C175.431 155.997 175.789 156.131 176.205 156.248C176.631 156.355 177.058 156.483 177.485 156.632C177.911 156.781 178.269 157.037 178.557 157.4C178.855 157.752 179.005 158.2 179.005 158.744C179.005 159.512 178.706 160.115 178.109 160.552C177.522 160.989 176.781 161.208 175.885 161.208C175.095 161.208 174.418 161.043 173.853 160.712C173.287 160.381 172.877 159.923 172.621 159.336L174.109 158.472C174.386 159.24 174.978 159.624 175.885 159.624C176.791 159.624 177.245 159.325 177.245 158.728C177.245 158.472 177.095 158.264 176.797 158.104C176.509 157.944 176.151 157.811 175.725 157.704C175.309 157.587 174.887 157.453 174.461 157.304C174.034 157.155 173.671 156.909 173.373 156.568C173.085 156.216 172.941 155.773 172.941 155.24C172.941 154.504 173.218 153.912 173.773 153.464C174.338 153.016 175.037 152.792 175.869 152.792C176.53 152.792 177.117 152.941 177.629 153.24C178.151 153.528 178.551 153.933 178.829 154.456L177.373 155.272C177.095 154.664 176.594 154.36 175.869 154.36C175.538 154.36 175.261 154.435 175.037 154.584C174.813 154.723 174.701 154.931 174.701 155.208ZM184.097 161.208C182.891 161.208 181.883 160.803 181.073 159.992C180.273 159.181 179.873 158.184 179.873 157C179.873 155.805 180.273 154.808 181.073 154.008C181.883 153.197 182.891 152.792 184.097 152.792C184.875 152.792 185.585 152.979 186.225 153.352C186.865 153.725 187.345 154.227 187.665 154.856L186.177 155.72C185.995 155.336 185.718 155.037 185.345 154.824C184.982 154.6 184.561 154.488 184.081 154.488C183.377 154.488 182.785 154.728 182.305 155.208C181.835 155.688 181.601 156.285 181.601 157C181.601 157.715 181.835 158.312 182.305 158.792C182.785 159.272 183.377 159.512 184.081 159.512C184.55 159.512 184.971 159.4 185.345 159.176C185.729 158.952 186.017 158.653 186.209 158.28L187.697 159.128C187.355 159.768 186.865 160.275 186.225 160.648C185.585 161.021 184.875 161.208 184.097 161.208ZM190.72 154.344C191.158 153.352 191.979 152.856 193.184 152.856V154.728C192.523 154.685 191.947 154.845 191.456 155.208C190.966 155.56 190.72 156.147 190.72 156.968V161H188.992V153H190.72V154.344ZM196.093 151.48C195.88 151.693 195.624 151.8 195.325 151.8C195.026 151.8 194.765 151.693 194.541 151.48C194.328 151.256 194.221 150.995 194.221 150.696C194.221 150.397 194.328 150.141 194.541 149.928C194.754 149.704 195.016 149.592 195.325 149.592C195.634 149.592 195.896 149.704 196.109 149.928C196.322 150.141 196.429 150.397 196.429 150.696C196.429 150.995 196.317 151.256 196.093 151.48ZM194.461 161V153H196.189V161H194.461ZM202.724 152.792C203.822 152.792 204.761 153.203 205.54 154.024C206.318 154.835 206.708 155.827 206.708 157C206.708 158.184 206.318 159.181 205.54 159.992C204.761 160.803 203.822 161.208 202.724 161.208C201.508 161.208 200.574 160.76 199.924 159.864V164.2H198.196V153H199.924V154.152C200.574 153.245 201.508 152.792 202.724 152.792ZM200.644 158.84C201.124 159.32 201.726 159.56 202.452 159.56C203.177 159.56 203.78 159.32 204.26 158.84C204.74 158.349 204.98 157.736 204.98 157C204.98 156.264 204.74 155.656 204.26 155.176C203.78 154.685 203.177 154.44 202.452 154.44C201.726 154.44 201.124 154.685 200.644 155.176C200.164 155.656 199.924 156.264 199.924 157C199.924 157.736 200.164 158.349 200.644 158.84ZM212.581 154.664H210.597V158.504C210.597 158.835 210.672 159.075 210.821 159.224C210.971 159.363 211.189 159.443 211.477 159.464C211.776 159.475 212.144 159.469 212.581 159.448V161C211.259 161.16 210.309 161.048 209.733 160.664C209.157 160.269 208.869 159.549 208.869 158.504V154.664H207.397V153H208.869V151.272L210.597 150.76V153H212.581V154.664Z" fill="#2EC4B6"/>
<rect x="99" y="142" width="126" height="30" rx="15" stroke="#2EC4B6" stroke-width="2"/>
<path d="M27.8333 198.583H16.1666C15.7064 198.583 15.3333 198.956 15.3333 199.417V206.917C15.3333 207.377 15.7064 207.75 16.1666 207.75H27.8333C28.2935 207.75 28.6666 207.377 28.6666 206.917V199.417C28.6666 198.956 28.2935 198.583 27.8333 198.583Z" stroke="#2EC4B6" stroke-width="1.5" stroke-linecap="round" stroke-linejoin="round"/>
<path d="M16.1666 207.75H27.8333M15.1249 209.833H28.8749C29.4503 209.833 29.9166 209.367 29.9166 208.792C29.9166 208.216 29.4503 207.75 28.8749 207.75H15.1249C14.5496 207.75 14.0833 208.216 14.0833 208.792C14.0833 209.367 14.5496 209.833 15.1249 209.833Z" stroke="#2EC4B6" stroke-width="1.5" stroke-linecap="round" stroke-linejoin="round"/>
<path d="M39.96 206.24H44.92V208H38.12V196.8H44.84V198.56H39.96V201.472H44.44V203.216H39.96V206.24ZM53.6444 208H51.6444L49.6604 205.264L47.6604 208H45.6444L48.6524 203.888L45.8044 200H47.8044L49.6444 202.528L51.4844 200H53.5004L50.6524 203.904L53.6444 208ZM58.0028 208.208C56.7974 208.208 55.7894 207.803 54.9788 206.992C54.1788 206.181 53.7788 205.184 53.7788 204C53.7788 202.805 54.1788 201.808 54.9788 201.008C55.7894 200.197 56.7974 199.792 58.0028 199.792C58.7814 199.792 59.4908 199.979 60.1308 200.352C60.7708 200.725 61.2508 201.227 61.5708 201.856L60.0828 202.72C59.9014 202.336 59.6241 202.037 59.2508 201.824C58.8881 201.6 58.4668 201.488 57.9868 201.488C57.2828 201.488 56.6908 201.728 56.2108 202.208C55.7414 202.688 55.5068 203.285 55.5068 204C55.5068 204.715 55.7414 205.312 56.2108 205.792C56.6908 206.272 57.2828 206.512 57.9868 206.512C58.4561 206.512 58.8774 206.4 59.2508 206.176C59.6348 205.952 59.9228 205.653 60.1148 205.28L61.6028 206.128C61.2614 206.768 60.7708 207.275 60.1308 207.648C59.4908 208.021 58.7814 208.208 58.0028 208.208ZM64.0868 204.736C64.2148 205.344 64.5081 205.813 64.9668 206.144C65.4254 206.464 65.9854 206.624 66.6468 206.624C67.5641 206.624 68.2521 206.293 68.7108 205.632L70.1348 206.464C69.3454 207.627 68.1774 208.208 66.6308 208.208C65.3294 208.208 64.2788 207.813 63.4788 207.024C62.6788 206.224 62.2788 205.216 62.2788 204C62.2788 202.805 62.6734 201.808 63.4628 201.008C64.2521 200.197 65.2654 199.792 66.5028 199.792C67.6761 199.792 68.6361 200.203 69.3828 201.024C70.1401 201.845 70.5188 202.843 70.5188 204.016C70.5188 204.197 70.4974 204.437 70.4548 204.736H64.0868ZM64.0707 203.328H68.7748C68.6574 202.677 68.3854 202.187 67.9588 201.856C67.5428 201.525 67.0521 201.36 66.4868 201.36C65.8468 201.36 65.3134 201.536 64.8868 201.888C64.4601 202.24 64.1881 202.72 64.0707 203.328ZM72.0393 208V196.32H73.7673V208H72.0393Z" fill="#2EC4B6"/>
<rect x="1" y="189" width="85" height="30" rx="15" stroke="#2EC4B6" stroke-width="2"/>
</svg>
