<svg width="382" height="189" viewBox="0 0 382 189" fill="none" xmlns="http://www.w3.org/2000/svg">
<path d="M31 21H23C20.7909 21 19 22.7909 19 25V27H27H35V25C35 22.7909 33.2091 21 31 21Z" stroke="#2EC4B6" stroke-width="1.5" stroke-linecap="round" stroke-linejoin="round"/>
<path d="M27 17C29.2091 17 31 15.2091 31 13C31 10.7909 29.2091 9 27 9C24.7909 9 23 10.7909 23 13C23 15.2091 24.7909 17 27 17Z" stroke="#2EC4B6" stroke-width="1.5" stroke-linecap="round" stroke-linejoin="round"/>
<path d="M53.45 10.4V12.38H49.904V23H47.834V12.38H44.27V10.4H53.45ZM55.621 15.512C56.113 14.396 57.037 13.838 58.393 13.838V15.944C57.649 15.896 57.001 16.076 56.449 16.484C55.897 16.88 55.621 17.54 55.621 18.464V23H53.677V14H55.621V15.512ZM66.5354 14H68.4794V23H66.5354V21.704C65.8034 22.724 64.7534 23.234 63.3854 23.234C62.1494 23.234 61.0934 22.778 60.2174 21.866C59.3414 20.942 58.9034 19.82 58.9034 18.5C58.9034 17.168 59.3414 16.046 60.2174 15.134C61.0934 14.222 62.1494 13.766 63.3854 13.766C64.7534 13.766 65.8034 14.27 66.5354 15.278V14ZM61.6574 20.57C62.1974 21.11 62.8754 21.38 63.6914 21.38C64.5074 21.38 65.1854 21.11 65.7254 20.57C66.2654 20.018 66.5354 19.328 66.5354 18.5C66.5354 17.672 66.2654 16.988 65.7254 16.448C65.1854 15.896 64.5074 15.62 63.6914 15.62C62.8754 15.62 62.1974 15.896 61.6574 16.448C61.1174 16.988 60.8474 17.672 60.8474 18.5C60.8474 19.328 61.1174 20.018 61.6574 20.57ZM75.8393 13.766C77.0753 13.766 78.1313 14.222 79.0073 15.134C79.8833 16.046 80.3213 17.168 80.3213 18.5C80.3213 19.82 79.8833 20.942 79.0073 21.866C78.1313 22.778 77.0753 23.234 75.8393 23.234C74.4713 23.234 73.4213 22.724 72.6893 21.704V23H70.7453V10.4H72.6893V15.278C73.4213 14.27 74.4713 13.766 75.8393 13.766ZM73.4993 20.57C74.0393 21.11 74.7173 21.38 75.5333 21.38C76.3493 21.38 77.0273 21.11 77.5673 20.57C78.1073 20.018 78.3773 19.328 78.3773 18.5C78.3773 17.672 78.1073 16.988 77.5673 16.448C77.0273 15.896 76.3493 15.62 75.5333 15.62C74.7173 15.62 74.0393 15.896 73.4993 16.448C72.9593 16.988 72.6893 17.672 72.6893 18.5C72.6893 19.328 72.9593 20.018 73.4993 20.57ZM89.2112 14H91.1552V23H89.2112V21.704C88.4792 22.724 87.4292 23.234 86.0612 23.234C84.8252 23.234 83.7692 22.778 82.8932 21.866C82.0172 20.942 81.5792 19.82 81.5792 18.5C81.5792 17.168 82.0172 16.046 82.8932 15.134C83.7692 14.222 84.8252 13.766 86.0612 13.766C87.4292 13.766 88.4792 14.27 89.2112 15.278V14ZM84.3332 20.57C84.8732 21.11 85.5512 21.38 86.3672 21.38C87.1832 21.38 87.8612 21.11 88.4012 20.57C88.9412 20.018 89.2112 19.328 89.2112 18.5C89.2112 17.672 88.9412 16.988 88.4012 16.448C87.8612 15.896 87.1832 15.62 86.3672 15.62C85.5512 15.62 84.8732 15.896 84.3332 16.448C83.7932 16.988 83.5232 17.672 83.5232 18.5C83.5232 19.328 83.7932 20.018 84.3332 20.57ZM95.4233 12.29C95.1833 12.53 94.8953 12.65 94.5593 12.65C94.2233 12.65 93.9293 12.53 93.6773 12.29C93.4373 12.038 93.3173 11.744 93.3173 11.408C93.3173 11.072 93.4373 10.784 93.6773 10.544C93.9293 10.292 94.2233 10.166 94.5593 10.166C94.8953 10.166 95.1833 10.292 95.4233 10.544C95.6753 10.784 95.8013 11.072 95.8013 11.408C95.8013 11.744 95.6753 12.038 95.4233 12.29ZM93.5873 23.36V14H95.5313V23.36C95.5313 25.856 94.3013 27.014 91.8413 26.834V24.962C92.4413 25.022 92.8793 24.926 93.1553 24.674C93.4433 24.422 93.5873 23.984 93.5873 23.36ZM102.046 23.234C100.726 23.234 99.6041 22.778 98.6801 21.866C97.7561 20.954 97.2941 19.832 97.2941 18.5C97.2941 17.168 97.7561 16.046 98.6801 15.134C99.6041 14.222 100.726 13.766 102.046 13.766C103.378 13.766 104.5 14.222 105.412 15.134C106.336 16.046 106.798 17.168 106.798 18.5C106.798 19.832 106.336 20.954 105.412 21.866C104.5 22.778 103.378 23.234 102.046 23.234ZM100.048 20.534C100.588 21.074 101.254 21.344 102.046 21.344C102.838 21.344 103.504 21.074 104.044 20.534C104.584 19.994 104.854 19.316 104.854 18.5C104.854 17.684 104.584 17.006 104.044 16.466C103.504 15.926 102.838 15.656 102.046 15.656C101.254 15.656 100.588 15.926 100.048 16.466C99.5081 17.006 99.2381 17.684 99.2381 18.5C99.2381 19.316 99.5081 19.994 100.048 20.534ZM114.586 19.328C114.73 20.012 115.06 20.54 115.576 20.912C116.092 21.272 116.722 21.452 117.466 21.452C118.498 21.452 119.272 21.08 119.788 20.336L121.39 21.272C120.502 22.58 119.188 23.234 117.448 23.234C115.984 23.234 114.802 22.79 113.902 21.902C113.002 21.002 112.552 19.868 112.552 18.5C112.552 17.156 112.996 16.034 113.884 15.134C114.772 14.222 115.912 13.766 117.304 13.766C118.624 13.766 119.704 14.228 120.544 15.152C121.396 16.076 121.822 17.198 121.822 18.518C121.822 18.722 121.798 18.992 121.75 19.328H114.586ZM114.568 17.744H119.86C119.728 17.012 119.422 16.46 118.942 16.088C118.474 15.716 117.922 15.53 117.286 15.53C116.566 15.53 115.966 15.728 115.486 16.124C115.006 16.52 114.7 17.06 114.568 17.744ZM128.266 13.766C129.298 13.766 130.132 14.096 130.768 14.756C131.404 15.416 131.722 16.322 131.722 17.474V23H129.778V17.672C129.778 17 129.598 16.484 129.238 16.124C128.878 15.764 128.386 15.584 127.762 15.584C127.078 15.584 126.526 15.8 126.106 16.232C125.686 16.652 125.476 17.3 125.476 18.176V23H123.532V14H125.476V15.152C126.064 14.228 126.994 13.766 128.266 13.766ZM139.846 19.328C139.99 20.012 140.32 20.54 140.836 20.912C141.352 21.272 141.982 21.452 142.726 21.452C143.758 21.452 144.532 21.08 145.048 20.336L146.65 21.272C145.762 22.58 144.448 23.234 142.708 23.234C141.244 23.234 140.062 22.79 139.162 21.902C138.262 21.002 137.812 19.868 137.812 18.5C137.812 17.156 138.256 16.034 139.144 15.134C140.032 14.222 141.172 13.766 142.564 13.766C143.884 13.766 144.964 14.228 145.804 15.152C146.656 16.076 147.082 17.198 147.082 18.518C147.082 18.722 147.058 18.992 147.01 19.328H139.846ZM139.828 17.744H145.12C144.988 17.012 144.682 16.46 144.202 16.088C143.734 15.716 143.182 15.53 142.546 15.53C141.826 15.53 141.226 15.728 140.746 16.124C140.266 16.52 139.96 17.06 139.828 17.744ZM155.867 14H157.811V26.6H155.867V21.722C155.135 22.73 154.085 23.234 152.717 23.234C151.481 23.234 150.425 22.778 149.549 21.866C148.673 20.954 148.235 19.832 148.235 18.5C148.235 17.18 148.673 16.064 149.549 15.152C150.425 14.228 151.481 13.766 152.717 13.766C154.085 13.766 155.135 14.276 155.867 15.296V14ZM150.989 20.57C151.529 21.11 152.207 21.38 153.023 21.38C153.839 21.38 154.517 21.11 155.057 20.57C155.597 20.018 155.867 19.328 155.867 18.5C155.867 17.672 155.597 16.988 155.057 16.448C154.517 15.896 153.839 15.62 153.023 15.62C152.207 15.62 151.529 15.896 150.989 16.448C150.449 16.988 150.179 17.672 150.179 18.5C150.179 19.328 150.449 20.018 150.989 20.57ZM166.143 14H168.087V23H166.143V21.848C165.555 22.772 164.625 23.234 163.353 23.234C162.321 23.234 161.487 22.904 160.851 22.244C160.215 21.584 159.897 20.678 159.897 19.526V14H161.841V19.328C161.841 20 162.021 20.516 162.381 20.876C162.741 21.236 163.233 21.416 163.857 21.416C164.541 21.416 165.093 21.206 165.513 20.786C165.933 20.354 166.143 19.7 166.143 18.824V14ZM172.197 12.29C171.957 12.53 171.669 12.65 171.333 12.65C170.997 12.65 170.703 12.53 170.451 12.29C170.211 12.038 170.091 11.744 170.091 11.408C170.091 11.072 170.211 10.784 170.451 10.544C170.691 10.292 170.985 10.166 171.333 10.166C171.681 10.166 171.975 10.292 172.215 10.544C172.455 10.784 172.575 11.072 172.575 11.408C172.575 11.744 172.449 12.038 172.197 12.29ZM170.361 23V14H172.305V23H170.361ZM179.656 13.766C180.892 13.766 181.948 14.228 182.824 15.152C183.7 16.064 184.138 17.18 184.138 18.5C184.138 19.832 183.7 20.954 182.824 21.866C181.948 22.778 180.892 23.234 179.656 23.234C178.288 23.234 177.238 22.73 176.506 21.722V26.6H174.562V14H176.506V15.296C177.238 14.276 178.288 13.766 179.656 13.766ZM177.316 20.57C177.856 21.11 178.534 21.38 179.35 21.38C180.166 21.38 180.844 21.11 181.384 20.57C181.924 20.018 182.194 19.328 182.194 18.5C182.194 17.672 181.924 16.988 181.384 16.448C180.844 15.896 180.166 15.62 179.35 15.62C178.534 15.62 177.856 15.896 177.316 16.448C176.776 16.988 176.506 17.672 176.506 18.5C176.506 19.328 176.776 20.018 177.316 20.57ZM190.148 23.234C188.828 23.234 187.706 22.778 186.782 21.866C185.858 20.954 185.396 19.832 185.396 18.5C185.396 17.168 185.858 16.046 186.782 15.134C187.706 14.222 188.828 13.766 190.148 13.766C191.48 13.766 192.602 14.222 193.514 15.134C194.438 16.046 194.9 17.168 194.9 18.5C194.9 19.832 194.438 20.954 193.514 21.866C192.602 22.778 191.48 23.234 190.148 23.234ZM188.15 20.534C188.69 21.074 189.356 21.344 190.148 21.344C190.94 21.344 191.606 21.074 192.146 20.534C192.686 19.994 192.956 19.316 192.956 18.5C192.956 17.684 192.686 17.006 192.146 16.466C191.606 15.926 190.94 15.656 190.148 15.656C189.356 15.656 188.69 15.926 188.15 16.466C187.61 17.006 187.34 17.684 187.34 18.5C187.34 19.316 187.61 19.994 188.15 20.534Z" fill="#2EC4B6"/>
<rect x="1" y="1" width="209" height="34" rx="17" stroke="#2EC4B6" stroke-width="2"/>
<path d="M31 72H23C20.7909 72 19 73.7909 19 76V78H27H35V76C35 73.7909 33.2091 72 31 72Z" stroke="#2EC4B6" stroke-width="1.5" stroke-linecap="round" stroke-linejoin="round"/>
<path d="M27 68C29.2091 68 31 66.2091 31 64C31 61.7909 29.2091 60 27 60C24.7909 60 23 61.7909 23 64C23 66.2091 24.7909 68 27 68Z" stroke="#2EC4B6" stroke-width="1.5" stroke-linecap="round" stroke-linejoin="round"/>
<path d="M51.218 74.234C49.322 74.234 47.75 73.61 46.502 72.362C45.254 71.102 44.63 69.548 44.63 67.7C44.63 65.852 45.254 64.304 46.502 63.056C47.75 61.796 49.322 61.166 51.218 61.166C52.358 61.166 53.408 61.436 54.368 61.976C55.34 62.516 56.096 63.248 56.636 64.172L54.836 65.216C54.5 64.592 54.008 64.1 53.36 63.74C52.724 63.368 52.01 63.182 51.218 63.182C49.874 63.182 48.782 63.608 47.942 64.46C47.114 65.312 46.7 66.392 46.7 67.7C46.7 69.008 47.114 70.088 47.942 70.94C48.782 71.792 49.874 72.218 51.218 72.218C52.01 72.218 52.73 72.038 53.378 71.678C54.026 71.306 54.512 70.808 54.836 70.184L56.636 71.21C56.108 72.134 55.358 72.872 54.386 73.424C53.426 73.964 52.37 74.234 51.218 74.234ZM62.4601 74.234C61.1401 74.234 60.0181 73.778 59.0941 72.866C58.1701 71.954 57.7081 70.832 57.7081 69.5C57.7081 68.168 58.1701 67.046 59.0941 66.134C60.0181 65.222 61.1401 64.766 62.4601 64.766C63.7921 64.766 64.9141 65.222 65.8261 66.134C66.7501 67.046 67.2121 68.168 67.2121 69.5C67.2121 70.832 66.7501 71.954 65.8261 72.866C64.9141 73.778 63.7921 74.234 62.4601 74.234ZM60.4621 71.534C61.0021 72.074 61.6681 72.344 62.4601 72.344C63.2521 72.344 63.9181 72.074 64.4581 71.534C64.9981 70.994 65.2681 70.316 65.2681 69.5C65.2681 68.684 64.9981 68.006 64.4581 67.466C63.9181 66.926 63.2521 66.656 62.4601 66.656C61.6681 66.656 61.0021 66.926 60.4621 67.466C59.9221 68.006 59.6521 68.684 59.6521 69.5C59.6521 70.316 59.9221 70.994 60.4621 71.534ZM78.7979 64.766C79.8179 64.766 80.6399 65.096 81.2639 65.756C81.8879 66.416 82.1999 67.304 82.1999 68.42V74H80.2559V68.546C80.2559 67.922 80.0999 67.442 79.7879 67.106C79.4759 66.758 79.0499 66.584 78.5099 66.584C77.9099 66.584 77.4299 66.782 77.0699 67.178C76.7219 67.574 76.5479 68.168 76.5479 68.96V74H74.6039V68.546C74.6039 67.922 74.4539 67.442 74.1539 67.106C73.8659 66.758 73.4519 66.584 72.9119 66.584C72.3239 66.584 71.8439 66.788 71.4719 67.196C71.0999 67.592 70.9139 68.18 70.9139 68.96V74H68.9699V65H70.9139V66.08C71.4899 65.204 72.3479 64.766 73.4879 64.766C74.6399 64.766 75.4919 65.24 76.0439 66.188C76.6439 65.24 77.5619 64.766 78.7979 64.766ZM90.3465 65H92.2905V74H90.3465V72.848C89.7585 73.772 88.8285 74.234 87.5565 74.234C86.5245 74.234 85.6905 73.904 85.0545 73.244C84.4185 72.584 84.1005 71.678 84.1005 70.526V65H86.0445V70.328C86.0445 71 86.2245 71.516 86.5845 71.876C86.9445 72.236 87.4365 72.416 88.0605 72.416C88.7445 72.416 89.2965 72.206 89.7165 71.786C90.1365 71.354 90.3465 70.7 90.3465 69.824V65ZM99.2977 64.766C100.33 64.766 101.164 65.096 101.8 65.756C102.436 66.416 102.754 67.322 102.754 68.474V74H100.81V68.672C100.81 68 100.63 67.484 100.27 67.124C99.9097 66.764 99.4177 66.584 98.7937 66.584C98.1097 66.584 97.5577 66.8 97.1377 67.232C96.7177 67.652 96.5077 68.3 96.5077 69.176V74H94.5637V65H96.5077V66.152C97.0957 65.228 98.0257 64.766 99.2977 64.766ZM106.683 63.29C106.443 63.53 106.155 63.65 105.819 63.65C105.483 63.65 105.189 63.53 104.937 63.29C104.697 63.038 104.577 62.744 104.577 62.408C104.577 62.072 104.697 61.784 104.937 61.544C105.177 61.292 105.471 61.166 105.819 61.166C106.167 61.166 106.461 61.292 106.701 61.544C106.941 61.784 107.061 62.072 107.061 62.408C107.061 62.744 106.935 63.038 106.683 63.29ZM104.847 74V65H106.791V74H104.847ZM113.296 74.234C111.94 74.234 110.806 73.778 109.894 72.866C108.994 71.954 108.544 70.832 108.544 69.5C108.544 68.156 108.994 67.034 109.894 66.134C110.806 65.222 111.94 64.766 113.296 64.766C114.172 64.766 114.97 64.976 115.69 65.396C116.41 65.816 116.95 66.38 117.31 67.088L115.636 68.06C115.432 67.628 115.12 67.292 114.7 67.052C114.292 66.8 113.818 66.674 113.278 66.674C112.486 66.674 111.82 66.944 111.28 67.484C110.752 68.024 110.488 68.696 110.488 69.5C110.488 70.304 110.752 70.976 111.28 71.516C111.82 72.056 112.486 72.326 113.278 72.326C113.806 72.326 114.28 72.2 114.7 71.948C115.132 71.696 115.456 71.36 115.672 70.94L117.346 71.894C116.962 72.614 116.41 73.184 115.69 73.604C114.97 74.024 114.172 74.234 113.296 74.234ZM125.739 65H127.683V74H125.739V72.704C125.007 73.724 123.957 74.234 122.589 74.234C121.353 74.234 120.297 73.778 119.421 72.866C118.545 71.942 118.107 70.82 118.107 69.5C118.107 68.168 118.545 67.046 119.421 66.134C120.297 65.222 121.353 64.766 122.589 64.766C123.957 64.766 125.007 65.27 125.739 66.278V65ZM120.861 71.57C121.401 72.11 122.079 72.38 122.895 72.38C123.711 72.38 124.389 72.11 124.929 71.57C125.469 71.018 125.739 70.328 125.739 69.5C125.739 68.672 125.469 67.988 124.929 67.448C124.389 66.896 123.711 66.62 122.895 66.62C122.079 66.62 121.401 66.896 120.861 67.448C120.321 67.988 120.051 68.672 120.051 69.5C120.051 70.328 120.321 71.018 120.861 71.57ZM134.196 74.234C132.84 74.234 131.706 73.778 130.794 72.866C129.894 71.954 129.444 70.832 129.444 69.5C129.444 68.156 129.894 67.034 130.794 66.134C131.706 65.222 132.84 64.766 134.196 64.766C135.072 64.766 135.87 64.976 136.59 65.396C137.31 65.816 137.85 66.38 138.21 67.088L136.536 68.06C136.332 67.628 136.02 67.292 135.6 67.052C135.192 66.8 134.718 66.674 134.178 66.674C133.386 66.674 132.72 66.944 132.18 67.484C131.652 68.024 131.388 68.696 131.388 69.5C131.388 70.304 131.652 70.976 132.18 71.516C132.72 72.056 133.386 72.326 134.178 72.326C134.706 72.326 135.18 72.2 135.6 71.948C136.032 71.696 136.356 71.36 136.572 70.94L138.246 71.894C137.862 72.614 137.31 73.184 136.59 73.604C135.87 74.024 135.072 74.234 134.196 74.234ZM141.488 63.29C141.248 63.53 140.96 63.65 140.624 63.65C140.288 63.65 139.994 63.53 139.742 63.29C139.502 63.038 139.382 62.744 139.382 62.408C139.382 62.072 139.502 61.784 139.742 61.544C139.982 61.292 140.276 61.166 140.624 61.166C140.972 61.166 141.266 61.292 141.506 61.544C141.746 61.784 141.866 62.072 141.866 62.408C141.866 62.744 141.74 63.038 141.488 63.29ZM139.652 74V65H141.596V74H139.652ZM146.841 63.74H148.713L150.621 61.31H148.281L146.841 63.74ZM148.101 74.234C146.781 74.234 145.659 73.778 144.735 72.866C143.811 71.954 143.349 70.832 143.349 69.5C143.349 68.168 143.811 67.046 144.735 66.134C145.659 65.222 146.781 64.766 148.101 64.766C149.433 64.766 150.555 65.222 151.467 66.134C152.391 67.046 152.853 68.168 152.853 69.5C152.853 70.832 152.391 71.954 151.467 72.866C150.555 73.778 149.433 74.234 148.101 74.234ZM146.103 71.534C146.643 72.074 147.309 72.344 148.101 72.344C148.893 72.344 149.559 72.074 150.099 71.534C150.639 70.994 150.909 70.316 150.909 69.5C150.909 68.684 150.639 68.006 150.099 67.466C149.559 66.926 148.893 66.656 148.101 66.656C147.309 66.656 146.643 66.926 146.103 67.466C145.563 68.006 145.293 68.684 145.293 69.5C145.293 70.316 145.563 70.994 146.103 71.534ZM159.345 64.766C160.377 64.766 161.211 65.096 161.847 65.756C162.483 66.416 162.801 67.322 162.801 68.474V74H160.857V68.672C160.857 68 160.677 67.484 160.317 67.124C159.957 66.764 159.465 66.584 158.841 66.584C158.157 66.584 157.605 66.8 157.185 67.232C156.765 67.652 156.555 68.3 156.555 69.176V74H154.611V65H156.555V66.152C157.143 65.228 158.073 64.766 159.345 64.766ZM176.522 65H178.466V74H176.522V72.704C175.79 73.724 174.74 74.234 173.372 74.234C172.136 74.234 171.08 73.778 170.204 72.866C169.328 71.942 168.89 70.82 168.89 69.5C168.89 68.168 169.328 67.046 170.204 66.134C171.08 65.222 172.136 64.766 173.372 64.766C174.74 64.766 175.79 65.27 176.522 66.278V65ZM171.644 71.57C172.184 72.11 172.862 72.38 173.678 72.38C174.494 72.38 175.172 72.11 175.712 71.57C176.252 71.018 176.522 70.328 176.522 69.5C176.522 68.672 176.252 67.988 175.712 67.448C175.172 66.896 174.494 66.62 173.678 66.62C172.862 66.62 172.184 66.896 171.644 67.448C171.104 67.988 170.834 68.672 170.834 69.5C170.834 70.328 171.104 71.018 171.644 71.57ZM182.425 67.484C182.425 67.784 182.587 68.024 182.911 68.204C183.247 68.372 183.649 68.522 184.117 68.654C184.597 68.774 185.077 68.918 185.557 69.086C186.037 69.254 186.439 69.542 186.763 69.95C187.099 70.346 187.267 70.85 187.267 71.462C187.267 72.326 186.931 73.004 186.259 73.496C185.599 73.988 184.765 74.234 183.757 74.234C182.869 74.234 182.107 74.048 181.471 73.676C180.835 73.304 180.373 72.788 180.085 72.128L181.759 71.156C182.071 72.02 182.737 72.452 183.757 72.452C184.777 72.452 185.287 72.116 185.287 71.444C185.287 71.156 185.119 70.922 184.783 70.742C184.459 70.562 184.057 70.412 183.577 70.292C183.109 70.16 182.635 70.01 182.155 69.842C181.675 69.674 181.267 69.398 180.931 69.014C180.607 68.618 180.445 68.12 180.445 67.52C180.445 66.692 180.757 66.026 181.381 65.522C182.017 65.018 182.803 64.766 183.739 64.766C184.483 64.766 185.143 64.934 185.719 65.27C186.307 65.594 186.757 66.05 187.069 66.638L185.431 67.556C185.119 66.872 184.555 66.53 183.739 66.53C183.367 66.53 183.055 66.614 182.803 66.782C182.551 66.938 182.425 67.172 182.425 67.484ZM190.277 70.328C190.421 71.012 190.751 71.54 191.267 71.912C191.783 72.272 192.413 72.452 193.157 72.452C194.189 72.452 194.963 72.08 195.479 71.336L197.081 72.272C196.193 73.58 194.879 74.234 193.139 74.234C191.675 74.234 190.493 73.79 189.593 72.902C188.693 72.002 188.243 70.868 188.243 69.5C188.243 68.156 188.687 67.034 189.575 66.134C190.463 65.222 191.603 64.766 192.995 64.766C194.315 64.766 195.395 65.228 196.235 66.152C197.087 67.076 197.513 68.198 197.513 69.518C197.513 69.722 197.489 69.992 197.441 70.328H190.277ZM190.259 68.744H195.551C195.419 68.012 195.113 67.46 194.633 67.088C194.165 66.716 193.613 66.53 192.977 66.53C192.257 66.53 191.657 66.728 191.177 67.124C190.697 67.52 190.391 68.06 190.259 68.744ZM201.168 66.512C201.66 65.396 202.584 64.838 203.94 64.838V66.944C203.196 66.896 202.548 67.076 201.996 67.484C201.444 67.88 201.168 68.54 201.168 69.464V74H199.224V65H201.168V66.512ZM210.627 66.872H208.395V71.192C208.395 71.564 208.479 71.834 208.647 72.002C208.815 72.158 209.061 72.248 209.385 72.272C209.721 72.284 210.135 72.278 210.627 72.254V74C209.139 74.18 208.071 74.054 207.423 73.622C206.775 73.178 206.451 72.368 206.451 71.192V66.872H204.795V65H206.451V63.056L208.395 62.48V65H210.627V66.872ZM214.226 63.29C213.986 63.53 213.698 63.65 213.362 63.65C213.026 63.65 212.732 63.53 212.48 63.29C212.24 63.038 212.12 62.744 212.12 62.408C212.12 62.072 212.24 61.784 212.48 61.544C212.72 61.292 213.014 61.166 213.362 61.166C213.71 61.166 214.004 61.292 214.244 61.544C214.484 61.784 214.604 62.072 214.604 62.408C214.604 62.744 214.478 63.038 214.226 63.29ZM212.39 74V65H214.334V74H212.39ZM222.693 65H224.817L221.307 74H219.057L215.547 65H217.671L220.191 71.84L222.693 65ZM232.825 65H234.769V74H232.825V72.704C232.093 73.724 231.043 74.234 229.675 74.234C228.439 74.234 227.383 73.778 226.507 72.866C225.631 71.942 225.193 70.82 225.193 69.5C225.193 68.168 225.631 67.046 226.507 66.134C227.383 65.222 228.439 64.766 229.675 64.766C231.043 64.766 232.093 65.27 232.825 66.278V65ZM227.947 71.57C228.487 72.11 229.165 72.38 229.981 72.38C230.797 72.38 231.475 72.11 232.015 71.57C232.555 71.018 232.825 70.328 232.825 69.5C232.825 68.672 232.555 67.988 232.015 67.448C231.475 66.896 230.797 66.62 229.981 66.62C229.165 66.62 228.487 66.896 227.947 67.448C227.407 67.988 227.137 68.672 227.137 69.5C227.137 70.328 227.407 71.018 227.947 71.57Z" fill="#2EC4B6"/>
<rect x="1" y="52" width="249" height="34" rx="17" stroke="#2EC4B6" stroke-width="2"/>
<path d="M31 123H23C20.7909 123 19 124.791 19 127V129H27H35V127C35 124.791 33.2091 123 31 123Z" stroke="#2EC4B6" stroke-width="1.5" stroke-linecap="round" stroke-linejoin="round"/>
<path d="M27 119C29.2091 119 31 117.209 31 115C31 112.791 29.2091 111 27 111C24.7909 111 23 112.791 23 115C23 117.209 24.7909 119 27 119Z" stroke="#2EC4B6" stroke-width="1.5" stroke-linecap="round" stroke-linejoin="round"/>
<path d="M51.218 125.234C49.322 125.234 47.75 124.61 46.502 123.362C45.254 122.102 44.63 120.548 44.63 118.7C44.63 116.852 45.254 115.304 46.502 114.056C47.75 112.796 49.322 112.166 51.218 112.166C52.358 112.166 53.408 112.436 54.368 112.976C55.34 113.516 56.096 114.248 56.636 115.172L54.836 116.216C54.5 115.592 54.008 115.1 53.36 114.74C52.724 114.368 52.01 114.182 51.218 114.182C49.874 114.182 48.782 114.608 47.942 115.46C47.114 116.312 46.7 117.392 46.7 118.7C46.7 120.008 47.114 121.088 47.942 121.94C48.782 122.792 49.874 123.218 51.218 123.218C52.01 123.218 52.73 123.038 53.378 122.678C54.026 122.306 54.512 121.808 54.836 121.184L56.636 122.21C56.108 123.134 55.358 123.872 54.386 124.424C53.426 124.964 52.37 125.234 51.218 125.234ZM60.2616 117.512C60.7536 116.396 61.6776 115.838 63.0336 115.838V117.944C62.2896 117.896 61.6416 118.076 61.0896 118.484C60.5376 118.88 60.2616 119.54 60.2616 120.464V125H58.3176V116H60.2616V117.512ZM65.5781 121.328C65.7221 122.012 66.0521 122.54 66.5681 122.912C67.0841 123.272 67.7141 123.452 68.4581 123.452C69.4901 123.452 70.2641 123.08 70.7801 122.336L72.3821 123.272C71.4941 124.58 70.1801 125.234 68.4401 125.234C66.9761 125.234 65.7941 124.79 64.8941 123.902C63.9941 123.002 63.5441 121.868 63.5441 120.5C63.5441 119.156 63.9881 118.034 64.8761 117.134C65.7641 116.222 66.9041 115.766 68.2961 115.766C69.6161 115.766 70.6961 116.228 71.5361 117.152C72.3881 118.076 72.8141 119.198 72.8141 120.518C72.8141 120.722 72.7901 120.992 72.7421 121.328H65.5781ZM65.5601 119.744H70.8521C70.7201 119.012 70.4141 118.46 69.9341 118.088C69.4661 117.716 68.9141 117.53 68.2781 117.53C67.5581 117.53 66.9581 117.728 66.4781 118.124C65.9981 118.52 65.6921 119.06 65.5601 119.744ZM81.5999 116H83.5439V125H81.5999V123.704C80.8679 124.724 79.8179 125.234 78.4499 125.234C77.2139 125.234 76.1579 124.778 75.2819 123.866C74.4059 122.942 73.9679 121.82 73.9679 120.5C73.9679 119.168 74.4059 118.046 75.2819 117.134C76.1579 116.222 77.2139 115.766 78.4499 115.766C79.8179 115.766 80.8679 116.27 81.5999 117.278V116ZM76.7219 122.57C77.2619 123.11 77.9399 123.38 78.7559 123.38C79.5719 123.38 80.2499 123.11 80.7899 122.57C81.3299 122.018 81.5999 121.328 81.5999 120.5C81.5999 119.672 81.3299 118.988 80.7899 118.448C80.2499 117.896 79.5719 117.62 78.7559 117.62C77.9399 117.62 77.2619 117.896 76.7219 118.448C76.1819 118.988 75.9119 119.672 75.9119 120.5C75.9119 121.328 76.1819 122.018 76.7219 122.57ZM90.8318 117.872H88.5998V122.192C88.5998 122.564 88.6838 122.834 88.8518 123.002C89.0198 123.158 89.2658 123.248 89.5898 123.272C89.9258 123.284 90.3398 123.278 90.8318 123.254V125C89.3438 125.18 88.2758 125.054 87.6278 124.622C86.9798 124.178 86.6558 123.368 86.6558 122.192V117.872H84.9998V116H86.6558V114.056L88.5998 113.48V116H90.8318V117.872ZM94.4309 114.29C94.1909 114.53 93.9029 114.65 93.5669 114.65C93.2309 114.65 92.9369 114.53 92.6849 114.29C92.4449 114.038 92.3249 113.744 92.3249 113.408C92.3249 113.072 92.4449 112.784 92.6849 112.544C92.9249 112.292 93.2189 112.166 93.5669 112.166C93.9149 112.166 94.2089 112.292 94.4489 112.544C94.6889 112.784 94.8089 113.072 94.8089 113.408C94.8089 113.744 94.6829 114.038 94.4309 114.29ZM92.5949 125V116H94.5389V125H92.5949ZM102.898 116H105.022L101.512 125H99.2621L95.7521 116H97.8761L100.396 122.84L102.898 116ZM108.089 114.29C107.849 114.53 107.561 114.65 107.225 114.65C106.889 114.65 106.595 114.53 106.343 114.29C106.103 114.038 105.983 113.744 105.983 113.408C105.983 113.072 106.103 112.784 106.343 112.544C106.583 112.292 106.877 112.166 107.225 112.166C107.573 112.166 107.867 112.292 108.107 112.544C108.347 112.784 108.467 113.072 108.467 113.408C108.467 113.744 108.341 114.038 108.089 114.29ZM106.253 125V116H108.197V125H106.253ZM117.582 112.4H119.526V125H117.582V123.704C116.85 124.724 115.8 125.234 114.432 125.234C113.196 125.234 112.14 124.778 111.264 123.866C110.388 122.942 109.95 121.82 109.95 120.5C109.95 119.168 110.388 118.046 111.264 117.134C112.14 116.222 113.196 115.766 114.432 115.766C115.8 115.766 116.85 116.27 117.582 117.278V112.4ZM112.704 122.57C113.244 123.11 113.922 123.38 114.738 123.38C115.554 123.38 116.232 123.11 116.772 122.57C117.312 122.018 117.582 121.328 117.582 120.5C117.582 119.672 117.312 118.988 116.772 118.448C116.232 117.896 115.554 117.62 114.738 117.62C113.922 117.62 113.244 117.896 112.704 118.448C112.164 118.988 111.894 119.672 111.894 120.5C111.894 121.328 112.164 122.018 112.704 122.57ZM128.92 116H130.864V125H128.92V123.704C128.188 124.724 127.138 125.234 125.77 125.234C124.534 125.234 123.478 124.778 122.602 123.866C121.726 122.942 121.288 121.82 121.288 120.5C121.288 119.168 121.726 118.046 122.602 117.134C123.478 116.222 124.534 115.766 125.77 115.766C127.138 115.766 128.188 116.27 128.92 117.278V116ZM124.042 122.57C124.582 123.11 125.26 123.38 126.076 123.38C126.892 123.38 127.57 123.11 128.11 122.57C128.65 122.018 128.92 121.328 128.92 120.5C128.92 119.672 128.65 118.988 128.11 118.448C127.57 117.896 126.892 117.62 126.076 117.62C125.26 117.62 124.582 117.896 124.042 118.448C123.502 118.988 123.232 119.672 123.232 120.5C123.232 121.328 123.502 122.018 124.042 122.57ZM140.258 112.4H142.202V125H140.258V123.704C139.526 124.724 138.476 125.234 137.108 125.234C135.872 125.234 134.816 124.778 133.94 123.866C133.064 122.942 132.626 121.82 132.626 120.5C132.626 119.168 133.064 118.046 133.94 117.134C134.816 116.222 135.872 115.766 137.108 115.766C138.476 115.766 139.526 116.27 140.258 117.278V112.4ZM135.38 122.57C135.92 123.11 136.598 123.38 137.414 123.38C138.23 123.38 138.908 123.11 139.448 122.57C139.988 122.018 140.258 121.328 140.258 120.5C140.258 119.672 139.988 118.988 139.448 118.448C138.908 117.896 138.23 117.62 137.414 117.62C136.598 117.62 135.92 117.896 135.38 118.448C134.84 118.988 134.57 119.672 134.57 120.5C134.57 121.328 134.84 122.018 135.38 122.57Z" fill="#2EC4B6"/>
<rect x="1" y="103" width="157" height="34" rx="17" stroke="#2EC4B6" stroke-width="2"/>
<path d="M200 123H192C189.791 123 188 124.791 188 127V129H196H204V127C204 124.791 202.209 123 200 123Z" stroke="#2EC4B6" stroke-width="1.5" stroke-linecap="round" stroke-linejoin="round"/>
<path d="M196 119C198.209 119 200 117.209 200 115C200 112.791 198.209 111 196 111C193.791 111 192 112.791 192 115C192 117.209 193.791 119 196 119Z" stroke="#2EC4B6" stroke-width="1.5" stroke-linecap="round" stroke-linejoin="round"/>
<path d="M222.468 125L221.586 122.462H216.222L215.34 125H213.09L217.662 112.4H220.146L224.7 125H222.468ZM216.906 120.518H220.902L218.904 114.83L216.906 120.518ZM232.828 112.4H234.772V125H232.828V123.704C232.096 124.724 231.046 125.234 229.678 125.234C228.442 125.234 227.386 124.778 226.51 123.866C225.634 122.942 225.196 121.82 225.196 120.5C225.196 119.168 225.634 118.046 226.51 117.134C227.386 116.222 228.442 115.766 229.678 115.766C231.046 115.766 232.096 116.27 232.828 117.278V112.4ZM227.95 122.57C228.49 123.11 229.168 123.38 229.984 123.38C230.8 123.38 231.478 123.11 232.018 122.57C232.558 122.018 232.828 121.328 232.828 120.5C232.828 119.672 232.558 118.988 232.018 118.448C231.478 117.896 230.8 117.62 229.984 117.62C229.168 117.62 228.49 117.896 227.95 118.448C227.41 118.988 227.14 119.672 227.14 120.5C227.14 121.328 227.41 122.018 227.95 122.57ZM244.166 116H246.11V125H244.166V123.704C243.434 124.724 242.384 125.234 241.016 125.234C239.78 125.234 238.724 124.778 237.848 123.866C236.972 122.942 236.534 121.82 236.534 120.5C236.534 119.168 236.972 118.046 237.848 117.134C238.724 116.222 239.78 115.766 241.016 115.766C242.384 115.766 243.434 116.27 244.166 117.278V116ZM239.288 122.57C239.828 123.11 240.506 123.38 241.322 123.38C242.138 123.38 242.816 123.11 243.356 122.57C243.896 122.018 244.166 121.328 244.166 120.5C244.166 119.672 243.896 118.988 243.356 118.448C242.816 117.896 242.138 117.62 241.322 117.62C240.506 117.62 239.828 117.896 239.288 118.448C238.748 118.988 238.478 119.672 238.478 120.5C238.478 121.328 238.748 122.018 239.288 122.57ZM253.47 115.766C254.706 115.766 255.762 116.228 256.638 117.152C257.514 118.064 257.952 119.18 257.952 120.5C257.952 121.832 257.514 122.954 256.638 123.866C255.762 124.778 254.706 125.234 253.47 125.234C252.102 125.234 251.052 124.73 250.32 123.722V128.6H248.376V116H250.32V117.296C251.052 116.276 252.102 115.766 253.47 115.766ZM251.13 122.57C251.67 123.11 252.348 123.38 253.164 123.38C253.98 123.38 254.658 123.11 255.198 122.57C255.738 122.018 256.008 121.328 256.008 120.5C256.008 119.672 255.738 118.988 255.198 118.448C254.658 117.896 253.98 117.62 253.164 117.62C252.348 117.62 251.67 117.896 251.13 118.448C250.59 118.988 250.32 119.672 250.32 120.5C250.32 121.328 250.59 122.018 251.13 122.57ZM264.56 117.872H262.328V122.192C262.328 122.564 262.412 122.834 262.58 123.002C262.748 123.158 262.994 123.248 263.318 123.272C263.654 123.284 264.068 123.278 264.56 123.254V125C263.072 125.18 262.004 125.054 261.356 124.622C260.708 124.178 260.384 123.368 260.384 122.192V117.872H258.728V116H260.384V114.056L262.328 113.48V116H264.56V117.872ZM273.082 116H275.026V125H273.082V123.704C272.35 124.724 271.3 125.234 269.932 125.234C268.696 125.234 267.64 124.778 266.764 123.866C265.888 122.942 265.45 121.82 265.45 120.5C265.45 119.168 265.888 118.046 266.764 117.134C267.64 116.222 268.696 115.766 269.932 115.766C271.3 115.766 272.35 116.27 273.082 117.278V116ZM268.204 122.57C268.744 123.11 269.422 123.38 270.238 123.38C271.054 123.38 271.732 123.11 272.272 122.57C272.812 122.018 273.082 121.328 273.082 120.5C273.082 119.672 272.812 118.988 272.272 118.448C271.732 117.896 271.054 117.62 270.238 117.62C269.422 117.62 268.744 117.896 268.204 118.448C267.664 118.988 267.394 119.672 267.394 120.5C267.394 121.328 267.664 122.018 268.204 122.57ZM282.386 115.766C283.622 115.766 284.678 116.222 285.554 117.134C286.43 118.046 286.868 119.168 286.868 120.5C286.868 121.82 286.43 122.942 285.554 123.866C284.678 124.778 283.622 125.234 282.386 125.234C281.018 125.234 279.968 124.724 279.236 123.704V125H277.292V112.4H279.236V117.278C279.968 116.27 281.018 115.766 282.386 115.766ZM280.046 122.57C280.586 123.11 281.264 123.38 282.08 123.38C282.896 123.38 283.574 123.11 284.114 122.57C284.654 122.018 284.924 121.328 284.924 120.5C284.924 119.672 284.654 118.988 284.114 118.448C283.574 117.896 282.896 117.62 282.08 117.62C281.264 117.62 280.586 117.896 280.046 118.448C279.506 118.988 279.236 119.672 279.236 120.5C279.236 121.328 279.506 122.018 280.046 122.57ZM290.466 114.29C290.226 114.53 289.938 114.65 289.602 114.65C289.266 114.65 288.972 114.53 288.72 114.29C288.48 114.038 288.36 113.744 288.36 113.408C288.36 113.072 288.48 112.784 288.72 112.544C288.96 112.292 289.254 112.166 289.602 112.166C289.95 112.166 290.244 112.292 290.484 112.544C290.724 112.784 290.844 113.072 290.844 113.408C290.844 113.744 290.718 114.038 290.466 114.29ZM288.63 125V116H290.574V125H288.63ZM292.831 125V111.86H294.775V125H292.831ZM298.868 114.29C298.628 114.53 298.34 114.65 298.004 114.65C297.668 114.65 297.374 114.53 297.122 114.29C296.882 114.038 296.762 113.744 296.762 113.408C296.762 113.072 296.882 112.784 297.122 112.544C297.362 112.292 297.656 112.166 298.004 112.166C298.352 112.166 298.646 112.292 298.886 112.544C299.126 112.784 299.246 113.072 299.246 113.408C299.246 113.744 299.12 114.038 298.868 114.29ZM297.032 125V116H298.976V125H297.032ZM308.362 112.4H310.306V125H308.362V123.704C307.63 124.724 306.58 125.234 305.212 125.234C303.976 125.234 302.92 124.778 302.044 123.866C301.168 122.942 300.73 121.82 300.73 120.5C300.73 119.168 301.168 118.046 302.044 117.134C302.92 116.222 303.976 115.766 305.212 115.766C306.58 115.766 307.63 116.27 308.362 117.278V112.4ZM303.484 122.57C304.024 123.11 304.702 123.38 305.518 123.38C306.334 123.38 307.012 123.11 307.552 122.57C308.092 122.018 308.362 121.328 308.362 120.5C308.362 119.672 308.092 118.988 307.552 118.448C307.012 117.896 306.334 117.62 305.518 117.62C304.702 117.62 304.024 117.896 303.484 118.448C302.944 118.988 302.674 119.672 302.674 120.5C302.674 121.328 302.944 122.018 303.484 122.57ZM319.7 116H321.644V125H319.7V123.704C318.968 124.724 317.918 125.234 316.55 125.234C315.314 125.234 314.258 124.778 313.382 123.866C312.506 122.942 312.068 121.82 312.068 120.5C312.068 119.168 312.506 118.046 313.382 117.134C314.258 116.222 315.314 115.766 316.55 115.766C317.918 115.766 318.968 116.27 319.7 117.278V116ZM314.822 122.57C315.362 123.11 316.04 123.38 316.856 123.38C317.672 123.38 318.35 123.11 318.89 122.57C319.43 122.018 319.7 121.328 319.7 120.5C319.7 119.672 319.43 118.988 318.89 118.448C318.35 117.896 317.672 117.62 316.856 117.62C316.04 117.62 315.362 117.896 314.822 118.448C314.282 118.988 314.012 119.672 314.012 120.5C314.012 121.328 314.282 122.018 314.822 122.57ZM331.037 112.4H332.981V125H331.037V123.704C330.305 124.724 329.255 125.234 327.887 125.234C326.651 125.234 325.595 124.778 324.719 123.866C323.843 122.942 323.405 121.82 323.405 120.5C323.405 119.168 323.843 118.046 324.719 117.134C325.595 116.222 326.651 115.766 327.887 115.766C329.255 115.766 330.305 116.27 331.037 117.278V112.4ZM326.159 122.57C326.699 123.11 327.377 123.38 328.193 123.38C329.009 123.38 329.687 123.11 330.227 122.57C330.767 122.018 331.037 121.328 331.037 120.5C331.037 119.672 330.767 118.988 330.227 118.448C329.687 117.896 329.009 117.62 328.193 117.62C327.377 117.62 326.699 117.896 326.159 118.448C325.619 118.988 325.349 119.672 325.349 120.5C325.349 121.328 325.619 122.018 326.159 122.57Z" fill="#2EC4B6"/>
<rect x="170" y="103" width="179" height="34" rx="17" stroke="#2EC4B6" stroke-width="2"/>
<path d="M31 174H23C20.7909 174 19 175.791 19 178V180H27H35V178C35 175.791 33.2091 174 31 174Z" stroke="#2EC4B6" stroke-width="1.5" stroke-linecap="round" stroke-linejoin="round"/>
<path d="M27 170C29.2091 170 31 168.209 31 166C31 163.791 29.2091 162 27 162C24.7909 162 23 163.791 23 166C23 168.209 24.7909 170 27 170Z" stroke="#2EC4B6" stroke-width="1.5" stroke-linecap="round" stroke-linejoin="round"/>
<path d="M49.904 163.4C51.092 163.4 52.082 163.796 52.874 164.588C53.678 165.38 54.08 166.364 54.08 167.54C54.08 168.704 53.678 169.688 52.874 170.492C52.082 171.284 51.092 171.68 49.904 171.68H47.33V176H45.26V163.4H49.904ZM49.904 169.736C50.516 169.736 51.02 169.532 51.416 169.124C51.812 168.704 52.01 168.176 52.01 167.54C52.01 166.904 51.812 166.382 51.416 165.974C51.02 165.554 50.516 165.344 49.904 165.344H47.33V169.736H49.904ZM57.5194 168.512C58.0114 167.396 58.9354 166.838 60.2914 166.838V168.944C59.5474 168.896 58.8994 169.076 58.3474 169.484C57.7954 169.88 57.5194 170.54 57.5194 171.464V176H55.5754V167H57.5194V168.512ZM63.5638 165.29C63.3238 165.53 63.0358 165.65 62.6998 165.65C62.3638 165.65 62.0698 165.53 61.8178 165.29C61.5778 165.038 61.4578 164.744 61.4578 164.408C61.4578 164.072 61.5778 163.784 61.8178 163.544C62.0578 163.292 62.3518 163.166 62.6998 163.166C63.0478 163.166 63.3418 163.292 63.5818 163.544C63.8218 163.784 63.9418 164.072 63.9418 164.408C63.9418 164.744 63.8158 165.038 63.5638 165.29ZM61.7278 176V167H63.6718V176H61.7278ZM70.1769 176.234C68.8569 176.234 67.7349 175.778 66.8109 174.866C65.8869 173.954 65.4249 172.832 65.4249 171.5C65.4249 170.168 65.8869 169.046 66.8109 168.134C67.7349 167.222 68.8569 166.766 70.1769 166.766C71.5089 166.766 72.6309 167.222 73.5429 168.134C74.4669 169.046 74.9289 170.168 74.9289 171.5C74.9289 172.832 74.4669 173.954 73.5429 174.866C72.6309 175.778 71.5089 176.234 70.1769 176.234ZM68.1789 173.534C68.7189 174.074 69.3849 174.344 70.1769 174.344C70.9689 174.344 71.6349 174.074 72.1749 173.534C72.7149 172.994 72.9849 172.316 72.9849 171.5C72.9849 170.684 72.7149 170.006 72.1749 169.466C71.6349 168.926 70.9689 168.656 70.1769 168.656C69.3849 168.656 68.7189 168.926 68.1789 169.466C67.6389 170.006 67.3689 170.684 67.3689 171.5C67.3689 172.316 67.6389 172.994 68.1789 173.534ZM78.6307 168.512C79.1227 167.396 80.0467 166.838 81.4027 166.838V168.944C80.6587 168.896 80.0107 169.076 79.4587 169.484C78.9067 169.88 78.6307 170.54 78.6307 171.464V176H76.6867V167H78.6307V168.512ZM84.6751 165.29C84.4351 165.53 84.1471 165.65 83.8111 165.65C83.4751 165.65 83.1811 165.53 82.9291 165.29C82.6891 165.038 82.5691 164.744 82.5691 164.408C82.5691 164.072 82.6891 163.784 82.9291 163.544C83.1691 163.292 83.4631 163.166 83.8111 163.166C84.1591 163.166 84.4531 163.292 84.6931 163.544C84.9331 163.784 85.0531 164.072 85.0531 164.408C85.0531 164.744 84.9271 165.038 84.6751 165.29ZM82.8391 176V167H84.7831V176H82.8391ZM89.3623 174.164H93.7363V176H86.7163V174.704L90.9283 168.836H86.8963V167H93.5563V168.296L89.3623 174.164ZM102.131 167H104.075V176H102.131V174.704C101.399 175.724 100.349 176.234 98.9811 176.234C97.7451 176.234 96.6891 175.778 95.8131 174.866C94.9371 173.942 94.4991 172.82 94.4991 171.5C94.4991 170.168 94.9371 169.046 95.8131 168.134C96.6891 167.222 97.7451 166.766 98.9811 166.766C100.349 166.766 101.399 167.27 102.131 168.278V167ZM97.2531 173.57C97.7931 174.11 98.4711 174.38 99.2871 174.38C100.103 174.38 100.781 174.11 101.321 173.57C101.861 173.018 102.131 172.328 102.131 171.5C102.131 170.672 101.861 169.988 101.321 169.448C100.781 168.896 100.103 168.62 99.2871 168.62C98.4711 168.62 97.7931 168.896 97.2531 169.448C96.7131 169.988 96.4431 170.672 96.4431 171.5C96.4431 172.328 96.7131 173.018 97.2531 173.57ZM110.589 176.234C109.233 176.234 108.099 175.778 107.187 174.866C106.287 173.954 105.837 172.832 105.837 171.5C105.837 170.156 106.287 169.034 107.187 168.134C108.099 167.222 109.233 166.766 110.589 166.766C111.465 166.766 112.263 166.976 112.983 167.396C113.703 167.816 114.243 168.38 114.603 169.088L112.929 170.06C112.725 169.628 112.413 169.292 111.993 169.052C111.585 168.8 111.111 168.674 110.571 168.674C109.779 168.674 109.113 168.944 108.573 169.484C108.045 170.024 107.781 170.696 107.781 171.5C107.781 172.304 108.045 172.976 108.573 173.516C109.113 174.056 109.779 174.326 110.571 174.326C111.099 174.326 111.573 174.2 111.993 173.948C112.425 173.696 112.749 173.36 112.965 172.94L114.639 173.894C114.255 174.614 113.703 175.184 112.983 175.604C112.263 176.024 111.465 176.234 110.589 176.234ZM117.88 165.29C117.64 165.53 117.352 165.65 117.016 165.65C116.68 165.65 116.386 165.53 116.134 165.29C115.894 165.038 115.774 164.744 115.774 164.408C115.774 164.072 115.894 163.784 116.134 163.544C116.374 163.292 116.668 163.166 117.016 163.166C117.364 163.166 117.658 163.292 117.898 163.544C118.138 163.784 118.258 164.072 118.258 164.408C118.258 164.744 118.132 165.038 117.88 165.29ZM116.044 176V167H117.988V176H116.044ZM123.233 165.74H125.105L127.013 163.31H124.673L123.233 165.74ZM124.493 176.234C123.173 176.234 122.051 175.778 121.127 174.866C120.203 173.954 119.741 172.832 119.741 171.5C119.741 170.168 120.203 169.046 121.127 168.134C122.051 167.222 123.173 166.766 124.493 166.766C125.825 166.766 126.947 167.222 127.859 168.134C128.783 169.046 129.245 170.168 129.245 171.5C129.245 172.832 128.783 173.954 127.859 174.866C126.947 175.778 125.825 176.234 124.493 176.234ZM122.495 173.534C123.035 174.074 123.701 174.344 124.493 174.344C125.285 174.344 125.951 174.074 126.491 173.534C127.031 172.994 127.301 172.316 127.301 171.5C127.301 170.684 127.031 170.006 126.491 169.466C125.951 168.926 125.285 168.656 124.493 168.656C123.701 168.656 123.035 168.926 122.495 169.466C121.955 170.006 121.685 170.684 121.685 171.5C121.685 172.316 121.955 172.994 122.495 173.534ZM135.737 166.766C136.769 166.766 137.603 167.096 138.239 167.756C138.875 168.416 139.193 169.322 139.193 170.474V176H137.249V170.672C137.249 170 137.069 169.484 136.709 169.124C136.349 168.764 135.857 168.584 135.233 168.584C134.549 168.584 133.997 168.8 133.577 169.232C133.157 169.652 132.947 170.3 132.947 171.176V176H131.003V167H132.947V168.152C133.535 167.228 134.465 166.766 135.737 166.766ZM151.852 167H153.922L150.466 176.288C149.602 178.616 148.138 179.72 146.074 179.6V177.782C146.686 177.818 147.178 177.686 147.55 177.386C147.922 177.098 148.228 176.642 148.468 176.018L148.558 175.838L144.742 167H146.866L149.548 173.534L151.852 167ZM169.466 166.766C170.486 166.766 171.308 167.096 171.932 167.756C172.556 168.416 172.868 169.304 172.868 170.42V176H170.924V170.546C170.924 169.922 170.768 169.442 170.456 169.106C170.144 168.758 169.718 168.584 169.178 168.584C168.578 168.584 168.098 168.782 167.738 169.178C167.39 169.574 167.216 170.168 167.216 170.96V176H165.272V170.546C165.272 169.922 165.122 169.442 164.822 169.106C164.534 168.758 164.12 168.584 163.58 168.584C162.992 168.584 162.512 168.788 162.14 169.196C161.768 169.592 161.582 170.18 161.582 170.96V176H159.638V167H161.582V168.08C162.158 167.204 163.016 166.766 164.156 166.766C165.308 166.766 166.16 167.24 166.712 168.188C167.312 167.24 168.23 166.766 169.466 166.766ZM182.076 167H184.02V176H182.076V174.704C181.344 175.724 180.294 176.234 178.926 176.234C177.69 176.234 176.634 175.778 175.758 174.866C174.882 173.942 174.444 172.82 174.444 171.5C174.444 170.168 174.882 169.046 175.758 168.134C176.634 167.222 177.69 166.766 178.926 166.766C180.294 166.766 181.344 167.27 182.076 168.278V167ZM177.198 173.57C177.738 174.11 178.416 174.38 179.232 174.38C180.048 174.38 180.726 174.11 181.266 173.57C181.806 173.018 182.076 172.328 182.076 171.5C182.076 170.672 181.806 169.988 181.266 169.448C180.726 168.896 180.048 168.62 179.232 168.62C178.416 168.62 177.738 168.896 177.198 169.448C176.658 169.988 176.388 170.672 176.388 171.5C176.388 172.328 176.658 173.018 177.198 173.57ZM191.02 166.766C192.052 166.766 192.886 167.096 193.522 167.756C194.158 168.416 194.476 169.322 194.476 170.474V176H192.532V170.672C192.532 170 192.352 169.484 191.992 169.124C191.632 168.764 191.14 168.584 190.516 168.584C189.832 168.584 189.28 168.8 188.86 169.232C188.44 169.652 188.23 170.3 188.23 171.176V176H186.286V167H188.23V168.152C188.818 167.228 189.748 166.766 191.02 166.766ZM198.1 172.328C198.244 173.012 198.574 173.54 199.09 173.912C199.606 174.272 200.236 174.452 200.98 174.452C202.012 174.452 202.786 174.08 203.302 173.336L204.904 174.272C204.016 175.58 202.702 176.234 200.962 176.234C199.498 176.234 198.316 175.79 197.416 174.902C196.516 174.002 196.066 172.868 196.066 171.5C196.066 170.156 196.51 169.034 197.398 168.134C198.286 167.222 199.426 166.766 200.818 166.766C202.138 166.766 203.218 167.228 204.058 168.152C204.91 169.076 205.336 170.198 205.336 171.518C205.336 171.722 205.312 171.992 205.264 172.328H198.1ZM198.082 170.744H203.374C203.242 170.012 202.936 169.46 202.456 169.088C201.988 168.716 201.436 168.53 200.8 168.53C200.08 168.53 199.48 168.728 199 169.124C198.52 169.52 198.214 170.06 198.082 170.744ZM209.119 165.29C208.879 165.53 208.591 165.65 208.255 165.65C207.919 165.65 207.625 165.53 207.373 165.29C207.133 165.038 207.013 164.744 207.013 164.408C207.013 164.072 207.133 163.784 207.373 163.544C207.625 163.292 207.919 163.166 208.255 163.166C208.591 163.166 208.879 163.292 209.119 163.544C209.371 163.784 209.497 164.072 209.497 164.408C209.497 164.744 209.371 165.038 209.119 165.29ZM207.283 176.36V167H209.227V176.36C209.227 178.856 207.997 180.014 205.537 179.834V177.962C206.137 178.022 206.575 177.926 206.851 177.674C207.139 177.422 207.283 176.984 207.283 176.36ZM215.741 176.234C214.421 176.234 213.299 175.778 212.375 174.866C211.451 173.954 210.989 172.832 210.989 171.5C210.989 170.168 211.451 169.046 212.375 168.134C213.299 167.222 214.421 166.766 215.741 166.766C217.073 166.766 218.195 167.222 219.107 168.134C220.031 169.046 220.493 170.168 220.493 171.5C220.493 172.832 220.031 173.954 219.107 174.866C218.195 175.778 217.073 176.234 215.741 176.234ZM213.743 173.534C214.283 174.074 214.949 174.344 215.741 174.344C216.533 174.344 217.199 174.074 217.739 173.534C218.279 172.994 218.549 172.316 218.549 171.5C218.549 170.684 218.279 170.006 217.739 169.466C217.199 168.926 216.533 168.656 215.741 168.656C214.949 168.656 214.283 168.926 213.743 169.466C213.203 170.006 212.933 170.684 212.933 171.5C212.933 172.316 213.203 172.994 213.743 173.534ZM233.879 163.4H235.823V176H233.879V174.704C233.147 175.724 232.097 176.234 230.729 176.234C229.493 176.234 228.437 175.778 227.561 174.866C226.685 173.942 226.247 172.82 226.247 171.5C226.247 170.168 226.685 169.046 227.561 168.134C228.437 167.222 229.493 166.766 230.729 166.766C232.097 166.766 233.147 167.27 233.879 168.278V163.4ZM229.001 173.57C229.541 174.11 230.219 174.38 231.035 174.38C231.851 174.38 232.529 174.11 233.069 173.57C233.609 173.018 233.879 172.328 233.879 171.5C233.879 170.672 233.609 169.988 233.069 169.448C232.529 168.896 231.851 168.62 231.035 168.62C230.219 168.62 229.541 168.896 229.001 169.448C228.461 169.988 228.191 170.672 228.191 171.5C228.191 172.328 228.461 173.018 229.001 173.57ZM239.619 172.328C239.763 173.012 240.093 173.54 240.609 173.912C241.125 174.272 241.755 174.452 242.499 174.452C243.531 174.452 244.305 174.08 244.821 173.336L246.423 174.272C245.535 175.58 244.221 176.234 242.481 176.234C241.017 176.234 239.835 175.79 238.935 174.902C238.035 174.002 237.585 172.868 237.585 171.5C237.585 170.156 238.029 169.034 238.917 168.134C239.805 167.222 240.945 166.766 242.337 166.766C243.657 166.766 244.737 167.228 245.577 168.152C246.429 169.076 246.855 170.198 246.855 171.518C246.855 171.722 246.831 171.992 246.783 172.328H239.619ZM239.601 170.744H244.893C244.761 170.012 244.455 169.46 243.975 169.088C243.507 168.716 242.955 168.53 242.319 168.53C241.599 168.53 240.999 168.728 240.519 169.124C240.039 169.52 239.733 170.06 239.601 170.744ZM248.566 176V162.86H250.51V176H248.566ZM262.289 168.872H260.057V173.192C260.057 173.564 260.141 173.834 260.309 174.002C260.477 174.158 260.723 174.248 261.047 174.272C261.383 174.284 261.797 174.278 262.289 174.254V176C260.801 176.18 259.733 176.054 259.085 175.622C258.437 175.178 258.113 174.368 258.113 173.192V168.872H256.457V167H258.113V165.056L260.057 164.48V167H262.289V168.872ZM265.888 165.29C265.648 165.53 265.36 165.65 265.024 165.65C264.688 165.65 264.394 165.53 264.142 165.29C263.902 165.038 263.782 164.744 263.782 164.408C263.782 164.072 263.902 163.784 264.142 163.544C264.382 163.292 264.676 163.166 265.024 163.166C265.372 163.166 265.666 163.292 265.906 163.544C266.146 163.784 266.266 164.072 266.266 164.408C266.266 164.744 266.14 165.038 265.888 165.29ZM264.052 176V167H265.996V176H264.052ZM269.783 172.328C269.927 173.012 270.257 173.54 270.773 173.912C271.289 174.272 271.919 174.452 272.663 174.452C273.695 174.452 274.469 174.08 274.985 173.336L276.587 174.272C275.699 175.58 274.385 176.234 272.645 176.234C271.181 176.234 269.999 175.79 269.099 174.902C268.199 174.002 267.749 172.868 267.749 171.5C267.749 170.156 268.193 169.034 269.081 168.134C269.969 167.222 271.109 166.766 272.501 166.766C273.821 166.766 274.901 167.228 275.741 168.152C276.593 169.076 277.019 170.198 277.019 171.518C277.019 171.722 276.995 171.992 276.947 172.328H269.783ZM269.765 170.744H275.057C274.925 170.012 274.619 169.46 274.139 169.088C273.671 168.716 273.119 168.53 272.483 168.53C271.763 168.53 271.163 168.728 270.683 169.124C270.203 169.52 269.897 170.06 269.765 170.744ZM288.558 166.766C289.578 166.766 290.4 167.096 291.024 167.756C291.648 168.416 291.96 169.304 291.96 170.42V176H290.016V170.546C290.016 169.922 289.86 169.442 289.548 169.106C289.236 168.758 288.81 168.584 288.27 168.584C287.67 168.584 287.19 168.782 286.83 169.178C286.482 169.574 286.308 170.168 286.308 170.96V176H284.364V170.546C284.364 169.922 284.214 169.442 283.914 169.106C283.626 168.758 283.212 168.584 282.672 168.584C282.084 168.584 281.604 168.788 281.232 169.196C280.86 169.592 280.674 170.18 280.674 170.96V176H278.73V167H280.674V168.08C281.25 167.204 282.108 166.766 283.248 166.766C284.4 166.766 285.252 167.24 285.804 168.188C286.404 167.24 287.322 166.766 288.558 166.766ZM299.134 166.766C300.37 166.766 301.426 167.228 302.302 168.152C303.178 169.064 303.616 170.18 303.616 171.5C303.616 172.832 303.178 173.954 302.302 174.866C301.426 175.778 300.37 176.234 299.134 176.234C297.766 176.234 296.716 175.73 295.984 174.722V179.6H294.04V167H295.984V168.296C296.716 167.276 297.766 166.766 299.134 166.766ZM296.794 173.57C297.334 174.11 298.012 174.38 298.828 174.38C299.644 174.38 300.322 174.11 300.862 173.57C301.402 173.018 301.672 172.328 301.672 171.5C301.672 170.672 301.402 169.988 300.862 169.448C300.322 168.896 299.644 168.62 298.828 168.62C298.012 168.62 297.334 168.896 296.794 169.448C296.254 169.988 295.984 170.672 295.984 171.5C295.984 172.328 296.254 173.018 296.794 173.57ZM309.626 176.234C308.306 176.234 307.184 175.778 306.26 174.866C305.336 173.954 304.874 172.832 304.874 171.5C304.874 170.168 305.336 169.046 306.26 168.134C307.184 167.222 308.306 166.766 309.626 166.766C310.958 166.766 312.08 167.222 312.992 168.134C313.916 169.046 314.378 170.168 314.378 171.5C314.378 172.832 313.916 173.954 312.992 174.866C312.08 175.778 310.958 176.234 309.626 176.234ZM307.628 173.534C308.168 174.074 308.834 174.344 309.626 174.344C310.418 174.344 311.084 174.074 311.624 173.534C312.164 172.994 312.434 172.316 312.434 171.5C312.434 170.684 312.164 170.006 311.624 169.466C311.084 168.926 310.418 168.656 309.626 168.656C308.834 168.656 308.168 168.926 307.628 169.466C307.088 170.006 306.818 170.684 306.818 171.5C306.818 172.316 307.088 172.994 307.628 173.534Z" fill="#2EC4B6"/>
<rect x="1" y="154" width="329" height="34" rx="17" stroke="#2EC4B6" stroke-width="2"/>
</svg>
