<svg width="54" height="44" viewBox="0 0 54 44" fill="none" xmlns="http://www.w3.org/2000/svg">
<rect width="54" height="44" rx="22" fill="black" fill-opacity="0.3"/>
<path d="M22.68 20.56C22.68 19.7646 22.0353 19.12 21.24 19.12C20.4446 19.12 19.8 19.7646 19.8 20.56V25.36C19.8 29.3363 23.0237 32.56 27 32.56C30.9763 32.56 34.2 29.3363 34.2 25.36V21.52C34.2 20.7246 33.5553 20.08 32.76 20.08C31.9646 20.08 31.32 20.7246 31.32 21.52V20.56C31.32 19.7646 30.6753 19.12 29.88 19.12C29.0846 19.12 28.44 19.7646 28.44 20.56V19.6C28.44 18.8046 27.7953 18.16 27 18.16C26.2046 18.16 25.56 18.8046 25.56 19.6V12.88C25.56 12.0846 24.9153 11.44 24.12 11.44C23.3246 11.44 22.68 12.0846 22.68 12.88V23.92V20.56Z" stroke="white" stroke-miterlimit="10" stroke-linecap="round" stroke-linejoin="round"/>
<path d="M33.24 17.68V10.96" stroke="white" stroke-miterlimit="10" stroke-linecap="round" stroke-linejoin="round"/>
<path d="M34.68 16.24L33.24 17.68L31.8 16.24" stroke="white" stroke-miterlimit="10" stroke-linecap="round" stroke-linejoin="round"/>
<path d="M34.68 12.4L33.24 10.96L31.8 12.4" stroke="white" stroke-miterlimit="10" stroke-linecap="round" stroke-linejoin="round"/>
</svg>
