<svg width="375" height="283" viewBox="0 0 375 283" fill="none" xmlns="http://www.w3.org/2000/svg">
<path opacity="0.07" d="M-10.8668 166.256C-0.208704 166.256 8.68531 169.968 15.8152 177.392C23.0186 184.743 26.6204 193.894 26.6204 204.846C26.6204 215.798 23.0186 224.986 15.8152 232.41C8.68531 239.761 -0.208704 243.436 -10.8668 243.436H-42.2899V166.256H-10.8668ZM-10.8668 224.362C-5.50101 224.362 -1.12751 222.597 2.25369 219.069C5.63488 215.468 7.32548 210.726 7.32548 204.846C7.32548 198.966 5.63488 194.262 2.25369 190.733C-1.12751 187.132 -5.50101 185.331 -10.8668 185.331H-22.0027V224.362H-10.8668ZM53.6099 222.597C55.4475 227.081 59.5638 229.323 65.9586 229.323C69.9279 229.323 73.2723 228.037 75.992 225.464L89.2228 234.726C83.7834 241.562 75.8817 244.979 65.5176 244.979C56.1826 244.979 48.6851 242.26 43.0253 236.82C37.439 231.308 34.6458 224.362 34.6458 215.982C34.6458 207.676 37.4022 200.73 42.9151 195.144C48.4279 189.557 55.4475 186.764 63.974 186.764C72.2065 186.764 79.0057 189.52 84.3715 195.033C89.7373 200.546 92.4202 207.456 92.4202 215.762C92.4202 218.187 92.1629 220.466 91.6484 222.597H53.6099ZM53.3894 209.918H74.5586C73.0886 204.773 69.6339 202.2 64.1945 202.2C58.5347 202.2 54.933 204.773 53.3894 209.918ZM117.949 204.405C117.949 205.434 118.868 206.279 120.705 206.941C122.616 207.603 124.895 208.227 127.541 208.815C130.261 209.403 132.944 210.249 135.59 211.351C138.31 212.38 140.588 214.181 142.426 216.754C144.337 219.326 145.292 222.561 145.292 226.456C145.292 232.778 142.94 237.445 138.236 240.459C133.532 243.473 127.945 244.979 121.477 244.979C109.128 244.979 100.896 240.606 96.7796 231.859L112.767 223.81C114.163 227.853 117.03 229.874 121.367 229.874C124.674 229.874 126.328 228.882 126.328 226.897C126.328 225.868 125.41 225.023 123.572 224.362C121.734 223.7 119.492 223.038 116.846 222.377C114.2 221.715 111.554 220.833 108.908 219.731C106.262 218.628 104.02 216.864 102.182 214.438C100.345 211.939 99.4258 208.889 99.4258 205.287C99.4258 199.407 101.594 194.85 105.931 191.615C110.268 188.381 115.486 186.764 121.587 186.764C132.466 186.764 140.037 191.027 144.3 199.554L128.864 206.5C127.247 203.339 124.969 201.759 122.028 201.759C119.309 201.759 117.949 202.641 117.949 204.405ZM171.254 180.7C169.195 182.758 166.733 183.787 163.866 183.787C161 183.787 158.501 182.758 156.369 180.7C154.311 178.568 153.282 176.069 153.282 173.203C153.282 170.336 154.311 167.873 156.369 165.815C158.501 163.757 161 162.728 163.866 162.728C166.733 162.728 169.195 163.757 171.254 165.815C173.385 167.873 174.451 170.336 174.451 173.203C174.451 176.069 173.385 178.568 171.254 180.7ZM154.715 243.436V188.308H173.018V243.436H154.715ZM225.227 188.308H243.309V241.231C243.309 245.641 242.463 249.537 240.773 252.918C239.156 256.373 236.951 259.092 234.157 261.077C231.364 263.135 228.277 264.642 224.896 265.597C221.588 266.626 218.06 267.141 214.311 267.141C208.21 267.141 202.771 266.002 197.993 263.723C193.216 261.444 189.614 258.1 187.188 253.69L202.404 244.869C205.05 249.059 208.945 251.154 214.091 251.154C217.398 251.154 220.081 250.309 222.139 248.618C224.198 246.927 225.227 244.465 225.227 241.231V235.938C221.478 240.496 216.333 242.774 209.791 242.774C202.22 242.774 195.935 240.055 190.937 234.615C186.012 229.176 183.55 222.561 183.55 214.769C183.55 206.978 186.012 200.362 190.937 194.923C195.935 189.484 202.22 186.764 209.791 186.764C216.333 186.764 221.478 189.043 225.227 193.6V188.308ZM205.05 223.038C207.255 225.17 210.085 226.236 213.539 226.236C216.994 226.236 219.787 225.17 221.919 223.038C224.124 220.833 225.227 218.077 225.227 214.769C225.227 211.462 224.124 208.742 221.919 206.61C219.787 204.405 216.994 203.303 213.539 203.303C210.085 203.303 207.255 204.405 205.05 206.61C202.918 208.742 201.852 211.462 201.852 214.769C201.852 218.077 202.918 220.833 205.05 223.038ZM289.831 186.764C295.785 186.764 300.636 188.822 304.385 192.938C308.207 196.981 310.118 202.825 310.118 210.469V243.436H291.815V212.785C291.815 209.918 291.044 207.75 289.5 206.279C288.03 204.809 286.045 204.074 283.546 204.074C280.68 204.074 278.438 204.956 276.821 206.72C275.277 208.411 274.505 210.873 274.505 214.108V243.436H256.203V188.308H274.505V193.82C277.813 189.116 282.921 186.764 289.831 186.764ZM338.554 222.597C340.391 227.081 344.508 229.323 350.903 229.323C354.872 229.323 358.216 228.037 360.936 225.464L374.167 234.726C368.727 241.562 360.826 244.979 350.462 244.979C341.127 244.979 333.629 242.26 327.969 236.82C322.383 231.308 319.59 224.362 319.59 215.982C319.59 207.676 322.346 200.73 327.859 195.144C333.372 189.557 340.391 186.764 348.918 186.764C357.15 186.764 363.95 189.52 369.315 195.033C374.681 200.546 377.364 207.456 377.364 215.762C377.364 218.187 377.107 220.466 376.592 222.597H338.554ZM338.333 209.918H359.503C358.032 204.773 354.578 202.2 349.138 202.2C343.479 202.2 339.877 204.773 338.333 209.918ZM405.818 198.562C406.847 194.96 408.905 192.167 411.992 190.182C415.08 188.197 418.534 187.205 422.356 187.205V207.492C418.167 206.831 414.345 207.603 410.89 209.808C407.509 212.013 405.818 215.615 405.818 220.613V243.436H387.515V188.308H405.818V198.562Z" fill="white"/>
<path opacity="0.07" d="M168.695 113.267C163.035 118.191 155.721 120.654 146.754 120.654C137.786 120.654 130.436 118.191 124.703 113.267C119.043 108.342 116.213 101.8 116.213 93.641V41.8205H135.949V91.7667C135.949 98.235 139.551 101.469 146.754 101.469C153.957 101.469 157.559 98.235 157.559 91.7667V41.8205H177.295V93.641C177.295 101.8 174.428 108.342 168.695 113.267ZM253.522 119H231.471L219.343 98.4923L207.214 119H185.053L208.317 79.6385L185.935 41.8205H208.096L219.343 60.8949L230.589 41.8205H252.75L230.368 79.7487L253.522 119ZM267.588 130.026H259.87L303.973 30.7949H311.69L267.588 130.026ZM375.117 113.267C369.458 118.191 362.144 120.654 353.176 120.654C344.209 120.654 336.859 118.191 331.125 113.267C325.465 108.342 322.635 101.8 322.635 93.641V41.8205H342.371V91.7667C342.371 98.235 345.973 101.469 353.176 101.469C360.38 101.469 363.982 98.235 363.982 91.7667V41.8205H383.717V93.641C383.717 101.8 380.851 108.342 375.117 113.267ZM398.065 41.8205H417.801V119H398.065V41.8205Z" fill="white"/>
</svg>
