<svg width="802" height="268" viewBox="0 0 802 268" fill="none" xmlns="http://www.w3.org/2000/svg">
<path opacity="0.07" d="M141.946 222.58C126.724 235.825 107.053 242.448 82.9339 242.448C58.815 242.448 39.0453 235.825 23.6249 222.58C8.4023 209.334 0.790983 191.739 0.790983 169.795V30.4185H53.8725V164.753C53.8725 182.151 63.5597 190.849 82.9339 190.849C102.308 190.849 111.995 182.151 111.995 164.753V30.4185H165.077V169.795C165.077 191.739 157.367 209.334 141.946 222.58ZM367.56 238H308.251L275.631 182.843L243.011 238H183.405L245.976 132.133L185.778 30.4185H245.383L275.631 81.7208L305.878 30.4185H365.484L305.285 132.43L367.56 238ZM402.854 267.654H382.096L500.714 0.76401H521.472L402.854 267.654ZM689.528 222.58C674.305 235.825 654.634 242.448 630.515 242.448C606.396 242.448 586.627 235.825 571.206 222.58C555.984 209.334 548.372 191.739 548.372 169.795V30.4185H601.454V164.753C601.454 182.151 611.141 190.849 630.515 190.849C649.89 190.849 659.577 182.151 659.577 164.753V30.4185H712.658V169.795C712.658 191.739 704.948 209.334 689.528 222.58ZM748.71 30.4185H801.792V238H748.71V30.4185Z" fill="white"/>
</svg>
