<svg width="645" height="768" viewBox="0 0 645 768" fill="none" xmlns="http://www.w3.org/2000/svg">
<rect width="645" height="768" fill="#F6F6F6"/>
<rect width="530" height="150" transform="translate(58 34)" fill="#01534F"/>
<path d="M516.136 150.6H514.344L514.088 152.2H515.88L515.672 153.56H513.864L513.416 156.2H511.992L512.44 153.56H510.648L510.2 156.2H508.776L509.224 153.56H507.4L507.624 152.2H509.448L509.704 150.6H507.88L508.104 149.24H509.944L510.376 146.6H511.8L511.368 149.24H513.16L513.592 146.6H515.016L514.584 149.24H516.36L516.136 150.6ZM512.664 152.2L512.92 150.6H511.128L510.872 152.2H512.664ZM525.038 155.624C524.27 156.68 523.192 157.208 521.806 157.208C520.419 157.208 519.336 156.68 518.558 155.624C517.79 154.568 517.406 153.16 517.406 151.4C517.406 149.64 517.79 148.232 518.558 147.176C519.336 146.12 520.419 145.592 521.806 145.592C523.192 145.592 524.27 146.12 525.038 147.176C525.816 148.232 526.206 149.64 526.206 151.4C526.206 153.16 525.816 154.568 525.038 155.624ZM521.806 155.416C522.638 155.416 523.272 155.069 523.71 154.376C524.147 153.683 524.366 152.691 524.366 151.4C524.366 150.109 524.147 149.117 523.71 148.424C523.272 147.731 522.638 147.384 521.806 147.384C520.984 147.384 520.35 147.731 519.902 148.424C519.464 149.117 519.246 150.109 519.246 151.4C519.246 152.691 519.464 153.683 519.902 154.376C520.35 155.069 520.984 155.416 521.806 155.416ZM529.683 145.8H531.283V157H529.443V147.768L527.187 148.408L526.739 146.84L529.683 145.8ZM536.884 150.024C537.951 150.024 538.852 150.344 539.588 150.984C540.324 151.613 540.692 152.488 540.692 153.608C540.692 154.728 540.314 155.608 539.556 156.248C538.799 156.888 537.871 157.208 536.772 157.208C535.887 157.208 535.103 157.005 534.42 156.6C533.738 156.184 533.252 155.587 532.964 154.808L534.548 153.896C534.847 154.909 535.588 155.416 536.772 155.416C537.402 155.416 537.903 155.256 538.276 154.936C538.66 154.605 538.852 154.163 538.852 153.608C538.852 153.053 538.666 152.616 538.292 152.296C537.919 151.976 537.423 151.816 536.804 151.816H533.54L533.972 145.8H540.212V147.528H535.668L535.476 150.024H536.884ZM546.235 150.376C547.045 150.568 547.701 150.947 548.203 151.512C548.715 152.067 548.971 152.765 548.971 153.608C548.971 154.728 548.592 155.608 547.835 156.248C547.077 156.888 546.149 157.208 545.051 157.208C544.197 157.208 543.429 157.011 542.747 156.616C542.075 156.221 541.589 155.645 541.291 154.888L542.859 153.976C543.189 154.936 543.92 155.416 545.051 155.416C545.691 155.416 546.197 155.256 546.571 154.936C546.944 154.605 547.131 154.163 547.131 153.608C547.131 153.053 546.944 152.616 546.571 152.296C546.197 151.976 545.691 151.816 545.051 151.816H544.635L543.899 150.712L546.315 147.528H541.627V145.8H548.507V147.368L546.235 150.376ZM558.852 153.272V154.984H557.572V157H555.716V154.984H550.212V153.272L554.068 145.8H556.068L552.212 153.272H555.716V150.36H557.572V153.272H558.852ZM566.805 147.56H562.085V150.696H566.645V152.456H562.085V157H560.245V145.8H566.805V147.56Z" fill="white"/>
<rect width="265" height="80" transform="translate(58 184)" fill="#BBFF88"/>
<path d="M248.136 230.6H246.344L246.088 232.2H247.88L247.672 233.56H245.864L245.416 236.2H243.992L244.44 233.56H242.648L242.2 236.2H240.776L241.224 233.56H239.4L239.624 232.2H241.448L241.704 230.6H239.88L240.104 229.24H241.944L242.376 226.6H243.8L243.368 229.24H245.16L245.592 226.6H247.016L246.584 229.24H248.36L248.136 230.6ZM244.664 232.2L244.92 230.6H243.128L242.872 232.2H244.664ZM256.478 231.192C256.968 231.448 257.352 231.8 257.63 232.248C257.907 232.696 258.046 233.213 258.046 233.8C258.046 234.717 257.72 235.48 257.07 236.088C256.419 236.696 255.624 237 254.686 237H249.886V225.8H254.334C255.251 225.8 256.024 226.099 256.654 226.696C257.294 227.283 257.614 228.019 257.614 228.904C257.614 229.875 257.235 230.637 256.478 231.192ZM254.334 227.528H251.726V230.472H254.334C254.739 230.472 255.08 230.333 255.358 230.056C255.635 229.768 255.774 229.416 255.774 229C255.774 228.584 255.635 228.237 255.358 227.96C255.08 227.672 254.739 227.528 254.334 227.528ZM254.686 235.272C255.112 235.272 255.47 235.123 255.758 234.824C256.056 234.515 256.206 234.141 256.206 233.704C256.206 233.267 256.056 232.899 255.758 232.6C255.47 232.291 255.112 232.136 254.686 232.136H251.726V235.272H254.686ZM266.243 231.192C266.734 231.448 267.118 231.8 267.395 232.248C267.673 232.696 267.811 233.213 267.811 233.8C267.811 234.717 267.486 235.48 266.835 236.088C266.185 236.696 265.39 237 264.451 237H259.651V225.8H264.099C265.017 225.8 265.79 226.099 266.419 226.696C267.059 227.283 267.379 228.019 267.379 228.904C267.379 229.875 267.001 230.637 266.243 231.192ZM264.099 227.528H261.491V230.472H264.099C264.505 230.472 264.846 230.333 265.123 230.056C265.401 229.768 265.539 229.416 265.539 229C265.539 228.584 265.401 228.237 265.123 227.96C264.846 227.672 264.505 227.528 264.099 227.528ZM264.451 235.272C264.878 235.272 265.235 235.123 265.523 234.824C265.822 234.515 265.971 234.141 265.971 233.704C265.971 233.267 265.822 232.899 265.523 232.6C265.235 232.291 264.878 232.136 264.451 232.136H261.491V235.272H264.451ZM275.977 227.56H271.257V230.696H275.817V232.456H271.257V237H269.417V225.8H275.977V227.56ZM284.258 227.56H279.538V230.696H284.098V232.456H279.538V237H277.698V225.8H284.258V227.56ZM291.627 231.176C292.726 231.784 293.275 232.691 293.275 233.896C293.275 234.92 292.918 235.731 292.203 236.328C291.489 236.915 290.539 237.208 289.355 237.208C288.171 237.208 287.217 236.915 286.491 236.328C285.777 235.731 285.419 234.92 285.419 233.896C285.419 233.32 285.563 232.797 285.851 232.328C286.139 231.848 286.545 231.464 287.067 231.176C286.225 230.621 285.803 229.832 285.803 228.808C285.803 227.784 286.145 226.995 286.827 226.44C287.51 225.875 288.353 225.592 289.355 225.592C290.347 225.592 291.185 225.875 291.867 226.44C292.561 226.995 292.907 227.784 292.907 228.808C292.907 229.832 292.481 230.621 291.627 231.176ZM289.355 227.336C288.854 227.336 288.443 227.469 288.123 227.736C287.803 228.003 287.643 228.387 287.643 228.888C287.643 229.368 287.803 229.747 288.123 230.024C288.454 230.301 288.865 230.44 289.355 230.44C289.835 230.44 290.241 230.301 290.571 230.024C290.902 229.747 291.067 229.368 291.067 228.888C291.067 228.387 290.902 228.003 290.571 227.736C290.251 227.469 289.846 227.336 289.355 227.336ZM289.355 235.464C289.974 235.464 290.475 235.315 290.859 235.016C291.243 234.707 291.435 234.275 291.435 233.72C291.435 233.165 291.243 232.739 290.859 232.44C290.475 232.131 289.974 231.976 289.355 231.976C288.726 231.976 288.219 232.131 287.835 232.44C287.451 232.739 287.259 233.165 287.259 233.72C287.259 234.275 287.451 234.707 287.835 235.016C288.219 235.315 288.726 235.464 289.355 235.464ZM300.596 231.176C301.695 231.784 302.244 232.691 302.244 233.896C302.244 234.92 301.887 235.731 301.172 236.328C300.457 236.915 299.508 237.208 298.324 237.208C297.14 237.208 296.185 236.915 295.46 236.328C294.745 235.731 294.388 234.92 294.388 233.896C294.388 233.32 294.532 232.797 294.82 232.328C295.108 231.848 295.513 231.464 296.036 231.176C295.193 230.621 294.772 229.832 294.772 228.808C294.772 227.784 295.113 226.995 295.796 226.44C296.479 225.875 297.321 225.592 298.324 225.592C299.316 225.592 300.153 225.875 300.836 226.44C301.529 226.995 301.876 227.784 301.876 228.808C301.876 229.832 301.449 230.621 300.596 231.176ZM298.324 227.336C297.823 227.336 297.412 227.469 297.092 227.736C296.772 228.003 296.612 228.387 296.612 228.888C296.612 229.368 296.772 229.747 297.092 230.024C297.423 230.301 297.833 230.44 298.324 230.44C298.804 230.44 299.209 230.301 299.54 230.024C299.871 229.747 300.036 229.368 300.036 228.888C300.036 228.387 299.871 228.003 299.54 227.736C299.22 227.469 298.815 227.336 298.324 227.336ZM298.324 235.464C298.943 235.464 299.444 235.315 299.828 235.016C300.212 234.707 300.404 234.275 300.404 233.72C300.404 233.165 300.212 232.739 299.828 232.44C299.444 232.131 298.943 231.976 298.324 231.976C297.695 231.976 297.188 232.131 296.804 232.44C296.42 232.739 296.228 233.165 296.228 233.72C296.228 234.275 296.42 234.707 296.804 235.016C297.188 235.315 297.695 235.464 298.324 235.464Z" fill="#011627"/>
<rect width="265" height="80" transform="translate(323 184)" fill="#FF6857"/>
<path d="M516.136 230.6H514.344L514.088 232.2H515.88L515.672 233.56H513.864L513.416 236.2H511.992L512.44 233.56H510.648L510.2 236.2H508.776L509.224 233.56H507.4L507.624 232.2H509.448L509.704 230.6H507.88L508.104 229.24H509.944L510.376 226.6H511.8L511.368 229.24H513.16L513.592 226.6H515.016L514.584 229.24H516.36L516.136 230.6ZM512.664 232.2L512.92 230.6H511.128L510.872 232.2H512.664ZM524.446 227.56H519.726V230.696H524.286V232.456H519.726V237H517.886V225.8H524.446V227.56ZM532.727 227.56H528.007V230.696H532.567V232.456H528.007V237H526.167V225.8H532.727V227.56ZM537.696 229.56C538.859 229.56 539.808 229.917 540.544 230.632C541.28 231.336 541.648 232.253 541.648 233.384C541.648 234.515 541.28 235.437 540.544 236.152C539.808 236.856 538.859 237.208 537.696 237.208C536.523 237.208 535.568 236.856 534.832 236.152C534.096 235.437 533.728 234.515 533.728 233.384C533.728 232.531 533.952 231.779 534.4 231.128L537.952 225.8H540.048L537.488 229.56H537.696ZM537.696 235.464C538.315 235.464 538.821 235.277 539.216 234.904C539.611 234.52 539.808 234.013 539.808 233.384C539.808 232.755 539.611 232.253 539.216 231.88C538.821 231.496 538.315 231.304 537.696 231.304C537.067 231.304 536.555 231.496 536.16 231.88C535.765 232.253 535.568 232.755 535.568 233.384C535.568 234.013 535.765 234.52 536.16 234.904C536.555 235.277 537.067 235.464 537.696 235.464ZM548.815 231.176C549.914 231.784 550.463 232.691 550.463 233.896C550.463 234.92 550.106 235.731 549.391 236.328C548.676 236.915 547.727 237.208 546.543 237.208C545.359 237.208 544.404 236.915 543.679 236.328C542.964 235.731 542.607 234.92 542.607 233.896C542.607 233.32 542.751 232.797 543.039 232.328C543.327 231.848 543.732 231.464 544.255 231.176C543.412 230.621 542.991 229.832 542.991 228.808C542.991 227.784 543.332 226.995 544.015 226.44C544.698 225.875 545.54 225.592 546.543 225.592C547.535 225.592 548.372 225.875 549.055 226.44C549.748 226.995 550.095 227.784 550.095 228.808C550.095 229.832 549.668 230.621 548.815 231.176ZM546.543 227.336C546.042 227.336 545.631 227.469 545.311 227.736C544.991 228.003 544.831 228.387 544.831 228.888C544.831 229.368 544.991 229.747 545.311 230.024C545.642 230.301 546.052 230.44 546.543 230.44C547.023 230.44 547.428 230.301 547.759 230.024C548.09 229.747 548.255 229.368 548.255 228.888C548.255 228.387 548.09 228.003 547.759 227.736C547.439 227.469 547.034 227.336 546.543 227.336ZM546.543 235.464C547.162 235.464 547.663 235.315 548.047 235.016C548.431 234.707 548.623 234.275 548.623 233.72C548.623 233.165 548.431 232.739 548.047 232.44C547.663 232.131 547.162 231.976 546.543 231.976C545.914 231.976 545.407 232.131 545.023 232.44C544.639 232.739 544.447 233.165 544.447 233.72C544.447 234.275 544.639 234.707 545.023 235.016C545.407 235.315 545.914 235.464 546.543 235.464ZM555.259 230.024C556.326 230.024 557.227 230.344 557.963 230.984C558.699 231.613 559.067 232.488 559.067 233.608C559.067 234.728 558.689 235.608 557.931 236.248C557.174 236.888 556.246 237.208 555.147 237.208C554.262 237.208 553.478 237.005 552.795 236.6C552.113 236.184 551.627 235.587 551.339 234.808L552.923 233.896C553.222 234.909 553.963 235.416 555.147 235.416C555.777 235.416 556.278 235.256 556.651 234.936C557.035 234.605 557.227 234.163 557.227 233.608C557.227 233.053 557.041 232.616 556.667 232.296C556.294 231.976 555.798 231.816 555.179 231.816H551.915L552.347 225.8H558.587V227.528H554.043L553.851 230.024H555.259ZM559.506 225.8H566.626V227.4L562.69 237H560.754L564.626 227.56H559.506V225.8Z" fill="white"/>
<rect width="530" height="150" transform="translate(58 264)" fill="#040135"/>
<path d="M514.136 380.6H512.344L512.088 382.2H513.88L513.672 383.56H511.864L511.416 386.2H509.992L510.44 383.56H508.648L508.2 386.2H506.776L507.224 383.56H505.4L505.624 382.2H507.448L507.704 380.6H505.88L506.104 379.24H507.944L508.376 376.6H509.8L509.368 379.24H511.16L511.592 376.6H513.016L512.584 379.24H514.36L514.136 380.6ZM510.664 382.2L510.92 380.6H509.128L508.872 382.2H510.664ZM523.038 385.624C522.27 386.68 521.192 387.208 519.806 387.208C518.419 387.208 517.336 386.68 516.558 385.624C515.79 384.568 515.406 383.16 515.406 381.4C515.406 379.64 515.79 378.232 516.558 377.176C517.336 376.12 518.419 375.592 519.806 375.592C521.192 375.592 522.27 376.12 523.038 377.176C523.816 378.232 524.206 379.64 524.206 381.4C524.206 383.16 523.816 384.568 523.038 385.624ZM519.806 385.416C520.638 385.416 521.272 385.069 521.71 384.376C522.147 383.683 522.366 382.691 522.366 381.4C522.366 380.109 522.147 379.117 521.71 378.424C521.272 377.731 520.638 377.384 519.806 377.384C518.984 377.384 518.35 377.731 517.902 378.424C517.464 379.117 517.246 380.109 517.246 381.4C517.246 382.691 517.464 383.683 517.902 384.376C518.35 385.069 518.984 385.416 519.806 385.416ZM533.852 383.272V384.984H532.572V387H530.716V384.984H525.212V383.272L529.068 375.8H531.068L527.212 383.272H530.716V380.36H532.572V383.272H533.852ZM542.397 385.624C541.629 386.68 540.552 387.208 539.165 387.208C537.778 387.208 536.696 386.68 535.917 385.624C535.149 384.568 534.765 383.16 534.765 381.4C534.765 379.64 535.149 378.232 535.917 377.176C536.696 376.12 537.778 375.592 539.165 375.592C540.552 375.592 541.629 376.12 542.397 377.176C543.176 378.232 543.565 379.64 543.565 381.4C543.565 383.16 543.176 384.568 542.397 385.624ZM539.165 385.416C539.997 385.416 540.632 385.069 541.069 384.376C541.506 383.683 541.725 382.691 541.725 381.4C541.725 380.109 541.506 379.117 541.069 378.424C540.632 377.731 539.997 377.384 539.165 377.384C538.344 377.384 537.709 377.731 537.261 378.424C536.824 379.117 536.605 380.109 536.605 381.4C536.605 382.691 536.824 383.683 537.261 384.376C537.709 385.069 538.344 385.416 539.165 385.416ZM547.043 375.8H548.643V387H546.803V377.768L544.547 378.408L544.099 376.84L547.043 375.8ZM555.188 380.376C555.998 380.568 556.654 380.947 557.156 381.512C557.668 382.067 557.924 382.765 557.924 383.608C557.924 384.728 557.545 385.608 556.788 386.248C556.03 386.888 555.102 387.208 554.004 387.208C553.15 387.208 552.382 387.011 551.7 386.616C551.028 386.221 550.542 385.645 550.244 384.888L551.812 383.976C552.142 384.936 552.873 385.416 554.004 385.416C554.644 385.416 555.15 385.256 555.524 384.936C555.897 384.605 556.084 384.163 556.084 383.608C556.084 383.053 555.897 382.616 555.524 382.296C555.15 381.976 554.644 381.816 554.004 381.816H553.588L552.852 380.712L555.268 377.528H550.58V375.8H557.46V377.368L555.188 380.376ZM562.728 380.024C563.795 380.024 564.696 380.344 565.432 380.984C566.168 381.613 566.536 382.488 566.536 383.608C566.536 384.728 566.157 385.608 565.4 386.248C564.643 386.888 563.715 387.208 562.616 387.208C561.731 387.208 560.947 387.005 560.264 386.6C559.581 386.184 559.096 385.587 558.808 384.808L560.392 383.896C560.691 384.909 561.432 385.416 562.616 385.416C563.245 385.416 563.747 385.256 564.12 384.936C564.504 384.605 564.696 384.163 564.696 383.608C564.696 383.053 564.509 382.616 564.136 382.296C563.763 381.976 563.267 381.816 562.648 381.816H559.384L559.816 375.8H566.056V377.528H561.512L561.32 380.024H562.728Z" fill="white"/>
<rect width="265" height="80" transform="translate(58 414)" fill="#4791FA"/>
<path d="M252.136 460.6H250.344L250.088 462.2H251.88L251.672 463.56H249.864L249.416 466.2H247.992L248.44 463.56H246.648L246.2 466.2H244.776L245.224 463.56H243.4L243.624 462.2H245.448L245.704 460.6H243.88L244.104 459.24H245.944L246.376 456.6H247.8L247.368 459.24H249.16L249.592 456.6H251.016L250.584 459.24H252.36L252.136 460.6ZM248.664 462.2L248.92 460.6H247.128L246.872 462.2H248.664ZM261.774 463.272V464.984H260.494V467H258.638V464.984H253.134V463.272L256.99 455.8H258.99L255.134 463.272H258.638V460.36H260.494V463.272H261.774ZM261.974 455.8H269.094V457.4L265.158 467H263.222L267.094 457.56H261.974V455.8ZM277.898 459.416C277.898 460.269 277.674 461.021 277.226 461.672L273.69 467H271.578L274.138 463.24H273.946C272.783 463.24 271.829 462.888 271.082 462.184C270.346 461.469 269.978 460.547 269.978 459.416C269.978 458.285 270.346 457.368 271.082 456.664C271.829 455.949 272.783 455.592 273.946 455.592C275.109 455.592 276.058 455.949 276.794 456.664C277.53 457.368 277.898 458.285 277.898 459.416ZM271.818 459.416C271.818 460.035 272.015 460.536 272.41 460.92C272.815 461.304 273.327 461.496 273.946 461.496C274.565 461.496 275.071 461.309 275.466 460.936C275.861 460.552 276.058 460.045 276.058 459.416C276.058 458.787 275.861 458.285 275.466 457.912C275.071 457.528 274.565 457.336 273.946 457.336C273.327 457.336 272.815 457.528 272.41 457.912C272.015 458.285 271.818 458.787 271.818 459.416ZM281.449 455.8H283.049V467H281.209V457.768L278.953 458.408L278.505 456.84L281.449 455.8ZM291.93 457.56H287.21V460.696H291.77V462.456H287.21V467H285.37V455.8H291.93V457.56ZM300.463 467L299.679 464.744H294.911L294.127 467H292.127L296.191 455.8H298.399L302.447 467H300.463ZM295.519 463.016H299.071L297.295 457.96L295.519 463.016Z" fill="#011627"/>
<rect width="265" height="80" transform="translate(323 414)" fill="#E0EDFF"/>
<path d="M512.136 460.6H510.344L510.088 462.2H511.88L511.672 463.56H509.864L509.416 466.2H507.992L508.44 463.56H506.648L506.2 466.2H504.776L505.224 463.56H503.4L503.624 462.2H505.448L505.704 460.6H503.88L504.104 459.24H505.944L506.376 456.6H507.8L507.368 459.24H509.16L509.592 456.6H511.016L510.584 459.24H512.36L512.136 460.6ZM508.664 462.2L508.92 460.6H507.128L506.872 462.2H508.664ZM515.726 465.24H520.686V467H513.886V455.8H520.606V457.56H515.726V460.472H520.206V462.216H515.726V465.24ZM529.522 465.624C528.754 466.68 527.677 467.208 526.29 467.208C524.903 467.208 523.821 466.68 523.042 465.624C522.274 464.568 521.89 463.16 521.89 461.4C521.89 459.64 522.274 458.232 523.042 457.176C523.821 456.12 524.903 455.592 526.29 455.592C527.677 455.592 528.754 456.12 529.522 457.176C530.301 458.232 530.69 459.64 530.69 461.4C530.69 463.16 530.301 464.568 529.522 465.624ZM526.29 465.416C527.122 465.416 527.757 465.069 528.194 464.376C528.631 463.683 528.85 462.691 528.85 461.4C528.85 460.109 528.631 459.117 528.194 458.424C527.757 457.731 527.122 457.384 526.29 457.384C525.469 457.384 524.834 457.731 524.386 458.424C523.949 459.117 523.73 460.109 523.73 461.4C523.73 462.691 523.949 463.683 524.386 464.376C524.834 465.069 525.469 465.416 526.29 465.416ZM534.288 465.24H539.248V467H532.448V455.8H539.168V457.56H534.288V460.472H538.768V462.216H534.288V465.24ZM545.333 455.8C546.869 455.8 548.143 456.339 549.157 457.416C550.181 458.493 550.693 459.821 550.693 461.4C550.693 462.968 550.181 464.296 549.157 465.384C548.143 466.461 546.869 467 545.333 467H540.933V455.8H545.333ZM545.333 465.24C546.389 465.24 547.247 464.877 547.909 464.152C548.581 463.427 548.917 462.509 548.917 461.4C548.917 460.28 548.581 459.363 547.909 458.648C547.247 457.923 546.389 457.56 545.333 457.56H542.773V465.24H545.333ZM558.93 457.56H554.21V460.696H558.77V462.456H554.21V467H552.37V455.8H558.93V457.56ZM567.211 457.56H562.491V460.696H567.051V462.456H562.491V467H560.651V455.8H567.211V457.56Z" fill="white"/>
<rect width="265" height="80" transform="translate(58 494)" fill="#23D639"/>
<path d="M248.136 540.6H246.344L246.088 542.2H247.88L247.672 543.56H245.864L245.416 546.2H243.992L244.44 543.56H242.648L242.2 546.2H240.776L241.224 543.56H239.4L239.624 542.2H241.448L241.704 540.6H239.88L240.104 539.24H241.944L242.376 536.6H243.8L243.368 539.24H245.16L245.592 536.6H247.016L246.584 539.24H248.36L248.136 540.6ZM244.664 542.2L244.92 540.6H243.128L242.872 542.2H244.664ZM249.262 547V545.56L253.166 541.576C254.115 540.627 254.59 539.805 254.59 539.112C254.59 538.568 254.424 538.147 254.094 537.848C253.774 537.539 253.363 537.384 252.862 537.384C251.923 537.384 251.23 537.848 250.782 538.776L249.23 537.864C249.582 537.117 250.078 536.552 250.718 536.168C251.358 535.784 252.067 535.592 252.846 535.592C253.827 535.592 254.67 535.901 255.374 536.52C256.078 537.139 256.43 537.981 256.43 539.048C256.43 540.189 255.795 541.405 254.526 542.696L251.998 545.224H256.638V547H249.262ZM262.422 540.376C263.233 540.568 263.889 540.947 264.39 541.512C264.902 542.067 265.158 542.765 265.158 543.608C265.158 544.728 264.779 545.608 264.022 546.248C263.265 546.888 262.337 547.208 261.238 547.208C260.385 547.208 259.617 547.011 258.934 546.616C258.262 546.221 257.777 545.645 257.478 544.888L259.046 543.976C259.377 544.936 260.107 545.416 261.238 545.416C261.878 545.416 262.385 545.256 262.758 544.936C263.131 544.605 263.318 544.163 263.318 543.608C263.318 543.053 263.131 542.616 262.758 542.296C262.385 541.976 261.878 541.816 261.238 541.816H260.822L260.086 540.712L262.502 537.528H257.814V535.8H264.694V537.368L262.422 540.376ZM271.239 535.8C272.775 535.8 274.049 536.339 275.063 537.416C276.087 538.493 276.599 539.821 276.599 541.4C276.599 542.968 276.087 544.296 275.063 545.384C274.049 546.461 272.775 547 271.239 547H266.839V535.8H271.239ZM271.239 545.24C272.295 545.24 273.153 544.877 273.815 544.152C274.487 543.427 274.823 542.509 274.823 541.4C274.823 540.28 274.487 539.363 273.815 538.648C273.153 537.923 272.295 537.56 271.239 537.56H268.679V545.24H271.239ZM281.524 539.56C282.687 539.56 283.636 539.917 284.372 540.632C285.108 541.336 285.476 542.253 285.476 543.384C285.476 544.515 285.108 545.437 284.372 546.152C283.636 546.856 282.687 547.208 281.524 547.208C280.351 547.208 279.396 546.856 278.66 546.152C277.924 545.437 277.556 544.515 277.556 543.384C277.556 542.531 277.78 541.779 278.228 541.128L281.78 535.8H283.876L281.316 539.56H281.524ZM281.524 545.464C282.143 545.464 282.65 545.277 283.044 544.904C283.439 544.52 283.636 544.013 283.636 543.384C283.636 542.755 283.439 542.253 283.044 541.88C282.65 541.496 282.143 541.304 281.524 541.304C280.895 541.304 280.383 541.496 279.988 541.88C279.594 542.253 279.396 542.755 279.396 543.384C279.396 544.013 279.594 544.52 279.988 544.904C280.383 545.277 280.895 545.464 281.524 545.464ZM291.063 540.376C291.873 540.568 292.529 540.947 293.031 541.512C293.543 542.067 293.799 542.765 293.799 543.608C293.799 544.728 293.42 545.608 292.663 546.248C291.905 546.888 290.977 547.208 289.879 547.208C289.025 547.208 288.257 547.011 287.575 546.616C286.903 546.221 286.417 545.645 286.119 544.888L287.687 543.976C288.017 544.936 288.748 545.416 289.879 545.416C290.519 545.416 291.025 545.256 291.399 544.936C291.772 544.605 291.959 544.163 291.959 543.608C291.959 543.053 291.772 542.616 291.399 542.296C291.025 541.976 290.519 541.816 289.879 541.816H289.463L288.727 540.712L291.143 537.528H286.455V535.8H293.335V537.368L291.063 540.376ZM302.211 539.416C302.211 540.269 301.987 541.021 301.539 541.672L298.003 547H295.891L298.451 543.24H298.259C297.096 543.24 296.141 542.888 295.395 542.184C294.659 541.469 294.291 540.547 294.291 539.416C294.291 538.285 294.659 537.368 295.395 536.664C296.141 535.949 297.096 535.592 298.259 535.592C299.421 535.592 300.371 535.949 301.107 536.664C301.843 537.368 302.211 538.285 302.211 539.416ZM296.131 539.416C296.131 540.035 296.328 540.536 296.723 540.92C297.128 541.304 297.64 541.496 298.259 541.496C298.877 541.496 299.384 541.309 299.779 540.936C300.173 540.552 300.371 540.045 300.371 539.416C300.371 538.787 300.173 538.285 299.779 537.912C299.384 537.528 298.877 537.336 298.259 537.336C297.64 537.336 297.128 537.528 296.723 537.912C296.328 538.285 296.131 538.787 296.131 539.416Z" fill="white"/>
<rect width="265" height="80" transform="translate(323 494)" fill="#FF0000"/>
<path d="M510.136 540.6H508.344L508.088 542.2H509.88L509.672 543.56H507.864L507.416 546.2H505.992L506.44 543.56H504.648L504.2 546.2H502.776L503.224 543.56H501.4L501.624 542.2H503.448L503.704 540.6H501.88L502.104 539.24H503.944L504.376 536.6H505.8L505.368 539.24H507.16L507.592 536.6H509.016L508.584 539.24H510.36L510.136 540.6ZM506.664 542.2L506.92 540.6H505.128L504.872 542.2H506.664ZM518.446 537.56H513.726V540.696H518.286V542.456H513.726V547H511.886V535.8H518.446V537.56ZM526.727 537.56H522.007V540.696H526.567V542.456H522.007V547H520.167V535.8H526.727V537.56ZM535.6 545.624C534.832 546.68 533.755 547.208 532.368 547.208C530.981 547.208 529.899 546.68 529.12 545.624C528.352 544.568 527.968 543.16 527.968 541.4C527.968 539.64 528.352 538.232 529.12 537.176C529.899 536.12 530.981 535.592 532.368 535.592C533.755 535.592 534.832 536.12 535.6 537.176C536.379 538.232 536.768 539.64 536.768 541.4C536.768 543.16 536.379 544.568 535.6 545.624ZM532.368 545.416C533.2 545.416 533.835 545.069 534.272 544.376C534.709 543.683 534.928 542.691 534.928 541.4C534.928 540.109 534.709 539.117 534.272 538.424C533.835 537.731 533.2 537.384 532.368 537.384C531.547 537.384 530.912 537.731 530.464 538.424C530.027 539.117 529.808 540.109 529.808 541.4C529.808 542.691 530.027 543.683 530.464 544.376C530.912 545.069 531.547 545.416 532.368 545.416ZM545.678 545.624C544.91 546.68 543.833 547.208 542.446 547.208C541.06 547.208 539.977 546.68 539.198 545.624C538.43 544.568 538.046 543.16 538.046 541.4C538.046 539.64 538.43 538.232 539.198 537.176C539.977 536.12 541.06 535.592 542.446 535.592C543.833 535.592 544.91 536.12 545.678 537.176C546.457 538.232 546.846 539.64 546.846 541.4C546.846 543.16 546.457 544.568 545.678 545.624ZM542.446 545.416C543.278 545.416 543.913 545.069 544.35 544.376C544.788 543.683 545.006 542.691 545.006 541.4C545.006 540.109 544.788 539.117 544.35 538.424C543.913 537.731 543.278 537.384 542.446 537.384C541.625 537.384 540.99 537.731 540.542 538.424C540.105 539.117 539.886 540.109 539.886 541.4C539.886 542.691 540.105 543.683 540.542 544.376C540.99 545.069 541.625 545.416 542.446 545.416ZM555.756 545.624C554.988 546.68 553.911 547.208 552.524 547.208C551.138 547.208 550.055 546.68 549.276 545.624C548.508 544.568 548.124 543.16 548.124 541.4C548.124 539.64 548.508 538.232 549.276 537.176C550.055 536.12 551.138 535.592 552.524 535.592C553.911 535.592 554.988 536.12 555.756 537.176C556.535 538.232 556.924 539.64 556.924 541.4C556.924 543.16 556.535 544.568 555.756 545.624ZM552.524 545.416C553.356 545.416 553.991 545.069 554.428 544.376C554.866 543.683 555.084 542.691 555.084 541.4C555.084 540.109 554.866 539.117 554.428 538.424C553.991 537.731 553.356 537.384 552.524 537.384C551.703 537.384 551.068 537.731 550.62 538.424C550.183 539.117 549.964 540.109 549.964 541.4C549.964 542.691 550.183 543.683 550.62 544.376C551.068 545.069 551.703 545.416 552.524 545.416ZM565.835 545.624C565.067 546.68 563.989 547.208 562.603 547.208C561.216 547.208 560.133 546.68 559.355 545.624C558.587 544.568 558.203 543.16 558.203 541.4C558.203 539.64 558.587 538.232 559.355 537.176C560.133 536.12 561.216 535.592 562.603 535.592C563.989 535.592 565.067 536.12 565.835 537.176C566.613 538.232 567.003 539.64 567.003 541.4C567.003 543.16 566.613 544.568 565.835 545.624ZM562.603 545.416C563.435 545.416 564.069 545.069 564.507 544.376C564.944 543.683 565.163 542.691 565.163 541.4C565.163 540.109 564.944 539.117 564.507 538.424C564.069 537.731 563.435 537.384 562.603 537.384C561.781 537.384 561.147 537.731 560.699 538.424C560.261 539.117 560.043 540.109 560.043 541.4C560.043 542.691 560.261 543.683 560.699 544.376C561.147 545.069 561.781 545.416 562.603 545.416Z" fill="white"/>
<rect width="176.667" height="80" transform="translate(58 574)" fill="#343434"/>
<path d="M158.802 620.6H157.01L156.754 622.2H158.546L158.338 623.56H156.53L156.082 626.2H154.658L155.106 623.56H153.314L152.866 626.2H151.442L151.89 623.56H150.066L150.29 622.2H152.114L152.37 620.6H150.546L150.77 619.24H152.61L153.042 616.6H154.466L154.034 619.24H155.826L156.258 616.6H157.682L157.25 619.24H159.026L158.802 620.6ZM155.33 622.2L155.586 620.6H153.794L153.538 622.2H155.33ZM164.776 620.376C165.586 620.568 166.242 620.947 166.744 621.512C167.256 622.067 167.512 622.765 167.512 623.608C167.512 624.728 167.133 625.608 166.376 626.248C165.618 626.888 164.69 627.208 163.592 627.208C162.738 627.208 161.97 627.011 161.288 626.616C160.616 626.221 160.13 625.645 159.832 624.888L161.4 623.976C161.73 624.936 162.461 625.416 163.592 625.416C164.232 625.416 164.738 625.256 165.112 624.936C165.485 624.605 165.672 624.163 165.672 623.608C165.672 623.053 165.485 622.616 165.112 622.296C164.738 621.976 164.232 621.816 163.592 621.816H163.176L162.44 620.712L164.856 617.528H160.168V615.8H167.048V617.368L164.776 620.376ZM177.393 623.272V624.984H176.113V627H174.257V624.984H168.753V623.272L172.609 615.8H174.609L170.753 623.272H174.257V620.36H176.113V623.272H177.393ZM183.01 620.376C183.821 620.568 184.477 620.947 184.978 621.512C185.49 622.067 185.746 622.765 185.746 623.608C185.746 624.728 185.367 625.608 184.61 626.248C183.853 626.888 182.925 627.208 181.826 627.208C180.973 627.208 180.205 627.011 179.522 626.616C178.85 626.221 178.365 625.645 178.066 624.888L179.634 623.976C179.965 624.936 180.695 625.416 181.826 625.416C182.466 625.416 182.973 625.256 183.346 624.936C183.719 624.605 183.906 624.163 183.906 623.608C183.906 623.053 183.719 622.616 183.346 622.296C182.973 621.976 182.466 621.816 181.826 621.816H181.41L180.674 620.712L183.09 617.528H178.402V615.8H185.282V617.368L183.01 620.376ZM195.627 623.272V624.984H194.347V627H192.491V624.984H186.987V623.272L190.843 615.8H192.843L188.987 623.272H192.491V620.36H194.347V623.272H195.627ZM201.244 620.376C202.055 620.568 202.711 620.947 203.212 621.512C203.724 622.067 203.98 622.765 203.98 623.608C203.98 624.728 203.602 625.608 202.844 626.248C202.087 626.888 201.159 627.208 200.06 627.208C199.207 627.208 198.439 627.011 197.756 626.616C197.084 626.221 196.599 625.645 196.3 624.888L197.868 623.976C198.199 624.936 198.93 625.416 200.06 625.416C200.7 625.416 201.207 625.256 201.58 624.936C201.954 624.605 202.14 624.163 202.14 623.608C202.14 623.053 201.954 622.616 201.58 622.296C201.207 621.976 200.7 621.816 200.06 621.816H199.644L198.908 620.712L201.324 617.528H196.636V615.8H203.516V617.368L201.244 620.376ZM213.862 623.272V624.984H212.582V627H210.726V624.984H205.222V623.272L209.078 615.8H211.078L207.222 623.272H210.726V620.36H212.582V623.272H213.862Z" fill="white"/>
<rect width="176.667" height="80" transform="translate(234.666 574)" fill="#616161"/>
<path d="M350.468 620.6H348.676L348.42 622.2H350.212L350.004 623.56H348.196L347.748 626.2H346.324L346.772 623.56H344.98L344.532 626.2H343.108L343.556 623.56H341.732L341.956 622.2H343.78L344.036 620.6H342.212L342.436 619.24H344.276L344.708 616.6H346.132L345.7 619.24H347.492L347.924 616.6H349.348L348.916 619.24H350.692L350.468 620.6ZM346.996 622.2L347.252 620.6H345.46L345.204 622.2H346.996ZM355.466 619.56C356.628 619.56 357.578 619.917 358.314 620.632C359.05 621.336 359.418 622.253 359.418 623.384C359.418 624.515 359.05 625.437 358.314 626.152C357.578 626.856 356.628 627.208 355.466 627.208C354.292 627.208 353.338 626.856 352.602 626.152C351.866 625.437 351.498 624.515 351.498 623.384C351.498 622.531 351.722 621.779 352.17 621.128L355.722 615.8H357.818L355.258 619.56H355.466ZM355.466 625.464C356.084 625.464 356.591 625.277 356.986 624.904C357.38 624.52 357.578 624.013 357.578 623.384C357.578 622.755 357.38 622.253 356.986 621.88C356.591 621.496 356.084 621.304 355.466 621.304C354.836 621.304 354.324 621.496 353.93 621.88C353.535 622.253 353.338 622.755 353.338 623.384C353.338 624.013 353.535 624.52 353.93 624.904C354.324 625.277 354.836 625.464 355.466 625.464ZM361.687 615.8H363.287V627H361.447V617.768L359.191 618.408L358.743 616.84L361.687 615.8ZM368.856 619.56C370.019 619.56 370.968 619.917 371.704 620.632C372.44 621.336 372.808 622.253 372.808 623.384C372.808 624.515 372.44 625.437 371.704 626.152C370.968 626.856 370.019 627.208 368.856 627.208C367.683 627.208 366.728 626.856 365.992 626.152C365.256 625.437 364.888 624.515 364.888 623.384C364.888 622.531 365.112 621.779 365.56 621.128L369.112 615.8H371.208L368.648 619.56H368.856ZM368.856 625.464C369.475 625.464 369.982 625.277 370.376 624.904C370.771 624.52 370.968 624.013 370.968 623.384C370.968 622.755 370.771 622.253 370.376 621.88C369.982 621.496 369.475 621.304 368.856 621.304C368.227 621.304 367.715 621.496 367.32 621.88C366.926 622.253 366.728 622.755 366.728 623.384C366.728 624.013 366.926 624.52 367.32 624.904C367.715 625.277 368.227 625.464 368.856 625.464ZM375.078 615.8H376.678V627H374.838V617.768L372.582 618.408L372.134 616.84L375.078 615.8ZM382.247 619.56C383.41 619.56 384.359 619.917 385.095 620.632C385.831 621.336 386.199 622.253 386.199 623.384C386.199 624.515 385.831 625.437 385.095 626.152C384.359 626.856 383.41 627.208 382.247 627.208C381.074 627.208 380.119 626.856 379.383 626.152C378.647 625.437 378.279 624.515 378.279 623.384C378.279 622.531 378.503 621.779 378.951 621.128L382.503 615.8H384.599L382.039 619.56H382.247ZM382.247 625.464C382.866 625.464 383.372 625.277 383.767 624.904C384.162 624.52 384.359 624.013 384.359 623.384C384.359 622.755 384.162 622.253 383.767 621.88C383.372 621.496 382.866 621.304 382.247 621.304C381.618 621.304 381.106 621.496 380.711 621.88C380.316 622.253 380.119 622.755 380.119 623.384C380.119 624.013 380.316 624.52 380.711 624.904C381.106 625.277 381.618 625.464 382.247 625.464ZM388.468 615.8H390.068V627H388.228V617.768L385.972 618.408L385.524 616.84L388.468 615.8Z" fill="white"/>
<rect width="176.667" height="80" transform="translate(411.334 574)" fill="#8E8E8E"/>
<path d="M514.136 620.6H512.344L512.088 622.2H513.88L513.672 623.56H511.864L511.416 626.2H509.992L510.44 623.56H508.648L508.2 626.2H506.776L507.224 623.56H505.4L505.624 622.2H507.448L507.704 620.6H505.88L506.104 619.24H507.944L508.376 616.6H509.8L509.368 619.24H511.16L511.592 616.6H513.016L512.584 619.24H514.36L514.136 620.6ZM510.664 622.2L510.92 620.6H509.128L508.872 622.2H510.664ZM521.534 621.176C522.632 621.784 523.182 622.691 523.182 623.896C523.182 624.92 522.824 625.731 522.11 626.328C521.395 626.915 520.446 627.208 519.262 627.208C518.078 627.208 517.123 626.915 516.398 626.328C515.683 625.731 515.326 624.92 515.326 623.896C515.326 623.32 515.47 622.797 515.758 622.328C516.046 621.848 516.451 621.464 516.974 621.176C516.131 620.621 515.71 619.832 515.71 618.808C515.71 617.784 516.051 616.995 516.734 616.44C517.416 615.875 518.259 615.592 519.262 615.592C520.254 615.592 521.091 615.875 521.774 616.44C522.467 616.995 522.814 617.784 522.814 618.808C522.814 619.832 522.387 620.621 521.534 621.176ZM519.262 617.336C518.76 617.336 518.35 617.469 518.03 617.736C517.71 618.003 517.55 618.387 517.55 618.888C517.55 619.368 517.71 619.747 518.03 620.024C518.36 620.301 518.771 620.44 519.262 620.44C519.742 620.44 520.147 620.301 520.478 620.024C520.808 619.747 520.974 619.368 520.974 618.888C520.974 618.387 520.808 618.003 520.478 617.736C520.158 617.469 519.752 617.336 519.262 617.336ZM519.262 625.464C519.88 625.464 520.382 625.315 520.766 625.016C521.15 624.707 521.342 624.275 521.342 623.72C521.342 623.165 521.15 622.739 520.766 622.44C520.382 622.131 519.88 621.976 519.262 621.976C518.632 621.976 518.126 622.131 517.742 622.44C517.358 622.739 517.166 623.165 517.166 623.72C517.166 624.275 517.358 624.707 517.742 625.016C518.126 625.315 518.632 625.464 519.262 625.464ZM526.694 625.24H531.654V627H524.854V615.8H531.574V617.56H526.694V620.472H531.174V622.216H526.694V625.24ZM538.987 621.176C540.085 621.784 540.635 622.691 540.635 623.896C540.635 624.92 540.277 625.731 539.563 626.328C538.848 626.915 537.899 627.208 536.715 627.208C535.531 627.208 534.576 626.915 533.851 626.328C533.136 625.731 532.779 624.92 532.779 623.896C532.779 623.32 532.923 622.797 533.211 622.328C533.499 621.848 533.904 621.464 534.427 621.176C533.584 620.621 533.163 619.832 533.163 618.808C533.163 617.784 533.504 616.995 534.187 616.44C534.869 615.875 535.712 615.592 536.715 615.592C537.707 615.592 538.544 615.875 539.227 616.44C539.92 616.995 540.267 617.784 540.267 618.808C540.267 619.832 539.84 620.621 538.987 621.176ZM536.715 617.336C536.213 617.336 535.803 617.469 535.483 617.736C535.163 618.003 535.003 618.387 535.003 618.888C535.003 619.368 535.163 619.747 535.483 620.024C535.813 620.301 536.224 620.44 536.715 620.44C537.195 620.44 537.6 620.301 537.931 620.024C538.261 619.747 538.427 619.368 538.427 618.888C538.427 618.387 538.261 618.003 537.931 617.736C537.611 617.469 537.205 617.336 536.715 617.336ZM536.715 625.464C537.333 625.464 537.835 625.315 538.219 625.016C538.603 624.707 538.795 624.275 538.795 623.72C538.795 623.165 538.603 622.739 538.219 622.44C537.835 622.131 537.333 621.976 536.715 621.976C536.085 621.976 535.579 622.131 535.195 622.44C534.811 622.739 534.619 623.165 534.619 623.72C534.619 624.275 534.811 624.707 535.195 625.016C535.579 625.315 536.085 625.464 536.715 625.464ZM544.148 625.24H549.108V627H542.308V615.8H549.028V617.56H544.148V620.472H548.628V622.216H544.148V625.24ZM556.44 621.176C557.539 621.784 558.088 622.691 558.088 623.896C558.088 624.92 557.731 625.731 557.016 626.328C556.301 626.915 555.352 627.208 554.168 627.208C552.984 627.208 552.029 626.915 551.304 626.328C550.589 625.731 550.232 624.92 550.232 623.896C550.232 623.32 550.376 622.797 550.664 622.328C550.952 621.848 551.357 621.464 551.88 621.176C551.037 620.621 550.616 619.832 550.616 618.808C550.616 617.784 550.957 616.995 551.64 616.44C552.323 615.875 553.165 615.592 554.168 615.592C555.16 615.592 555.997 615.875 556.68 616.44C557.373 616.995 557.72 617.784 557.72 618.808C557.72 619.832 557.293 620.621 556.44 621.176ZM554.168 617.336C553.667 617.336 553.256 617.469 552.936 617.736C552.616 618.003 552.456 618.387 552.456 618.888C552.456 619.368 552.616 619.747 552.936 620.024C553.267 620.301 553.677 620.44 554.168 620.44C554.648 620.44 555.053 620.301 555.384 620.024C555.715 619.747 555.88 619.368 555.88 618.888C555.88 618.387 555.715 618.003 555.384 617.736C555.064 617.469 554.659 617.336 554.168 617.336ZM554.168 625.464C554.787 625.464 555.288 625.315 555.672 625.016C556.056 624.707 556.248 624.275 556.248 623.72C556.248 623.165 556.056 622.739 555.672 622.44C555.288 622.131 554.787 621.976 554.168 621.976C553.539 621.976 553.032 622.131 552.648 622.44C552.264 622.739 552.072 623.165 552.072 623.72C552.072 624.275 552.264 624.707 552.648 625.016C553.032 625.315 553.539 625.464 554.168 625.464ZM561.601 625.24H566.561V627H559.761V615.8H566.481V617.56H561.601V620.472H566.081V622.216H561.601V625.24Z" fill="white"/>
<rect width="176.667" height="80" transform="translate(58 654)" fill="#CCCCCC"/>
<path d="M143.802 700.6H142.01L141.754 702.2H143.546L143.338 703.56H141.53L141.082 706.2H139.658L140.106 703.56H138.314L137.866 706.2H136.442L136.89 703.56H135.066L135.29 702.2H137.114L137.37 700.6H135.546L135.77 699.24H137.61L138.042 696.6H139.466L139.034 699.24H140.826L141.258 696.6H142.682L142.25 699.24H144.026L143.802 700.6ZM140.33 702.2L140.586 700.6H138.794L138.538 702.2H140.33ZM150.848 707.208C149.162 707.208 147.765 706.653 146.656 705.544C145.546 704.424 144.992 703.043 144.992 701.4C144.992 699.757 145.546 698.381 146.656 697.272C147.765 696.152 149.162 695.592 150.848 695.592C151.861 695.592 152.794 695.832 153.648 696.312C154.512 696.792 155.184 697.443 155.664 698.264L154.064 699.192C153.765 698.637 153.328 698.2 152.752 697.88C152.186 697.549 151.552 697.384 150.848 697.384C149.653 697.384 148.682 697.763 147.936 698.52C147.2 699.277 146.832 700.237 146.832 701.4C146.832 702.563 147.2 703.523 147.936 704.28C148.682 705.037 149.653 705.416 150.848 705.416C151.552 705.416 152.192 705.256 152.768 704.936C153.344 704.605 153.776 704.163 154.064 703.608L155.664 704.52C155.194 705.341 154.528 705.997 153.664 706.488C152.81 706.968 151.872 707.208 150.848 707.208ZM162.41 707.208C160.725 707.208 159.327 706.653 158.218 705.544C157.109 704.424 156.554 703.043 156.554 701.4C156.554 699.757 157.109 698.381 158.218 697.272C159.327 696.152 160.725 695.592 162.41 695.592C163.423 695.592 164.357 695.832 165.21 696.312C166.074 696.792 166.746 697.443 167.226 698.264L165.626 699.192C165.327 698.637 164.89 698.2 164.314 697.88C163.749 697.549 163.114 697.384 162.41 697.384C161.215 697.384 160.245 697.763 159.498 698.52C158.762 699.277 158.394 700.237 158.394 701.4C158.394 702.563 158.762 703.523 159.498 704.28C160.245 705.037 161.215 705.416 162.41 705.416C163.114 705.416 163.754 705.256 164.33 704.936C164.906 704.605 165.338 704.163 165.626 703.608L167.226 704.52C166.757 705.341 166.09 705.997 165.226 706.488C164.373 706.968 163.434 707.208 162.41 707.208ZM173.973 707.208C172.287 707.208 170.89 706.653 169.781 705.544C168.671 704.424 168.117 703.043 168.117 701.4C168.117 699.757 168.671 698.381 169.781 697.272C170.89 696.152 172.287 695.592 173.973 695.592C174.986 695.592 175.919 695.832 176.773 696.312C177.637 696.792 178.309 697.443 178.789 698.264L177.189 699.192C176.89 698.637 176.453 698.2 175.877 697.88C175.311 697.549 174.677 697.384 173.973 697.384C172.778 697.384 171.807 697.763 171.061 698.52C170.325 699.277 169.957 700.237 169.957 701.4C169.957 702.563 170.325 703.523 171.061 704.28C171.807 705.037 172.778 705.416 173.973 705.416C174.677 705.416 175.317 705.256 175.893 704.936C176.469 704.605 176.901 704.163 177.189 703.608L178.789 704.52C178.319 705.341 177.653 705.997 176.789 706.488C175.935 706.968 174.997 707.208 173.973 707.208ZM185.535 707.208C183.85 707.208 182.452 706.653 181.343 705.544C180.234 704.424 179.679 703.043 179.679 701.4C179.679 699.757 180.234 698.381 181.343 697.272C182.452 696.152 183.85 695.592 185.535 695.592C186.548 695.592 187.482 695.832 188.335 696.312C189.199 696.792 189.871 697.443 190.351 698.264L188.751 699.192C188.452 698.637 188.015 698.2 187.439 697.88C186.874 697.549 186.239 697.384 185.535 697.384C184.34 697.384 183.37 697.763 182.623 698.52C181.887 699.277 181.519 700.237 181.519 701.4C181.519 702.563 181.887 703.523 182.623 704.28C183.37 705.037 184.34 705.416 185.535 705.416C186.239 705.416 186.879 705.256 187.455 704.936C188.031 704.605 188.463 704.163 188.751 703.608L190.351 704.52C189.882 705.341 189.215 705.997 188.351 706.488C187.498 706.968 186.559 707.208 185.535 707.208ZM197.098 707.208C195.412 707.208 194.015 706.653 192.906 705.544C191.796 704.424 191.242 703.043 191.242 701.4C191.242 699.757 191.796 698.381 192.906 697.272C194.015 696.152 195.412 695.592 197.098 695.592C198.111 695.592 199.044 695.832 199.898 696.312C200.762 696.792 201.434 697.443 201.914 698.264L200.314 699.192C200.015 698.637 199.578 698.2 199.002 697.88C198.436 697.549 197.802 697.384 197.098 697.384C195.903 697.384 194.932 697.763 194.186 698.52C193.45 699.277 193.082 700.237 193.082 701.4C193.082 702.563 193.45 703.523 194.186 704.28C194.932 705.037 195.903 705.416 197.098 705.416C197.802 705.416 198.442 705.256 199.018 704.936C199.594 704.605 200.026 704.163 200.314 703.608L201.914 704.52C201.444 705.341 200.778 705.997 199.914 706.488C199.06 706.968 198.122 707.208 197.098 707.208ZM208.66 707.208C206.975 707.208 205.577 706.653 204.468 705.544C203.359 704.424 202.804 703.043 202.804 701.4C202.804 699.757 203.359 698.381 204.468 697.272C205.577 696.152 206.975 695.592 208.66 695.592C209.673 695.592 210.607 695.832 211.46 696.312C212.324 696.792 212.996 697.443 213.476 698.264L211.876 699.192C211.577 698.637 211.14 698.2 210.564 697.88C209.999 697.549 209.364 697.384 208.66 697.384C207.465 697.384 206.495 697.763 205.748 698.52C205.012 699.277 204.644 700.237 204.644 701.4C204.644 702.563 205.012 703.523 205.748 704.28C206.495 705.037 207.465 705.416 208.66 705.416C209.364 705.416 210.004 705.256 210.58 704.936C211.156 704.605 211.588 704.163 211.876 703.608L213.476 704.52C213.007 705.341 212.34 705.997 211.476 706.488C210.623 706.968 209.684 707.208 208.66 707.208Z" fill="#8E8E8E"/>
<rect width="176.667" height="80" transform="translate(234.666 654)" fill="#EAEAEA"/>
<path d="M332.468 700.6H330.676L330.42 702.2H332.212L332.004 703.56H330.196L329.748 706.2H328.324L328.772 703.56H326.98L326.532 706.2H325.108L325.556 703.56H323.732L323.956 702.2H325.78L326.036 700.6H324.212L324.436 699.24H326.276L326.708 696.6H328.132L327.7 699.24H329.492L329.924 696.6H331.348L330.916 699.24H332.692L332.468 700.6ZM328.996 702.2L329.252 700.6H327.46L327.204 702.2H328.996ZM336.058 705.24H341.018V707H334.218V695.8H340.938V697.56H336.058V700.472H340.538V702.216H336.058V705.24ZM350.154 707L349.37 704.744H344.602L343.818 707H341.818L345.882 695.8H348.09L352.138 707H350.154ZM345.21 703.016H348.762L346.986 697.96L345.21 703.016ZM355.183 705.24H360.143V707H353.343V695.8H360.063V697.56H355.183V700.472H359.663V702.216H355.183V705.24ZM369.279 707L368.495 704.744H363.727L362.943 707H360.943L365.007 695.8H367.215L371.263 707H369.279ZM364.335 703.016H367.887L366.111 697.96L364.335 703.016ZM374.308 705.24H379.268V707H372.468V695.8H379.188V697.56H374.308V700.472H378.788V702.216H374.308V705.24ZM388.404 707L387.62 704.744H382.852L382.068 707H380.068L384.132 695.8H386.34L390.388 707H388.404ZM383.46 703.016H387.012L385.236 697.96L383.46 703.016Z" fill="#8E8E8E"/>
<rect x="411.834" y="654.5" width="175.667" height="79" fill="#F9F9FB"/>
<path d="M515.136 700.6H513.344L513.088 702.2H514.88L514.672 703.56H512.864L512.416 706.2H510.992L511.44 703.56H509.648L509.2 706.2H507.776L508.224 703.56H506.4L506.624 702.2H508.448L508.704 700.6H506.88L507.104 699.24H508.944L509.376 696.6H510.8L510.368 699.24H512.16L512.592 696.6H514.016L513.584 699.24H515.36L515.136 700.6ZM511.664 702.2L511.92 700.6H510.128L509.872 702.2H511.664ZM523.446 697.56H518.726V700.696H523.286V702.456H518.726V707H516.886V695.8H523.446V697.56ZM532.367 699.416C532.367 700.269 532.143 701.021 531.695 701.672L528.159 707H526.047L528.607 703.24H528.415C527.252 703.24 526.298 702.888 525.551 702.184C524.815 701.469 524.447 700.547 524.447 699.416C524.447 698.285 524.815 697.368 525.551 696.664C526.298 695.949 527.252 695.592 528.415 695.592C529.578 695.592 530.527 695.949 531.263 696.664C531.999 697.368 532.367 698.285 532.367 699.416ZM526.287 699.416C526.287 700.035 526.484 700.536 526.879 700.92C527.284 701.304 527.796 701.496 528.415 701.496C529.034 701.496 529.54 701.309 529.935 700.936C530.33 700.552 530.527 700.045 530.527 699.416C530.527 698.787 530.33 698.285 529.935 697.912C529.54 697.528 529.034 697.336 528.415 697.336C527.796 697.336 527.284 697.528 526.879 697.912C526.484 698.285 526.287 698.787 526.287 699.416ZM540.446 697.56H535.726V700.696H540.286V702.456H535.726V707H533.886V695.8H540.446V697.56ZM549.367 699.416C549.367 700.269 549.143 701.021 548.695 701.672L545.159 707H543.047L545.607 703.24H545.415C544.252 703.24 543.298 702.888 542.551 702.184C541.815 701.469 541.447 700.547 541.447 699.416C541.447 698.285 541.815 697.368 542.551 696.664C543.298 695.949 544.252 695.592 545.415 695.592C546.578 695.592 547.527 695.949 548.263 696.664C548.999 697.368 549.367 698.285 549.367 699.416ZM543.287 699.416C543.287 700.035 543.484 700.536 543.879 700.92C544.284 701.304 544.796 701.496 545.415 701.496C546.034 701.496 546.54 701.309 546.935 700.936C547.33 700.552 547.527 700.045 547.527 699.416C547.527 698.787 547.33 698.285 546.935 697.912C546.54 697.528 546.034 697.336 545.415 697.336C544.796 697.336 544.284 697.528 543.879 697.912C543.484 698.285 543.287 698.787 543.287 699.416ZM557.446 697.56H552.726V700.696H557.286V702.456H552.726V707H550.886V695.8H557.446V697.56ZM565.759 701.192C566.25 701.448 566.634 701.8 566.911 702.248C567.188 702.696 567.327 703.213 567.327 703.8C567.327 704.717 567.002 705.48 566.351 706.088C565.7 706.696 564.906 707 563.967 707H559.167V695.8H563.615C564.532 695.8 565.306 696.099 565.935 696.696C566.575 697.283 566.895 698.019 566.895 698.904C566.895 699.875 566.516 700.637 565.759 701.192ZM563.615 697.528H561.007V700.472H563.615C564.02 700.472 564.362 700.333 564.639 700.056C564.916 699.768 565.055 699.416 565.055 699C565.055 698.584 564.916 698.237 564.639 697.96C564.362 697.672 564.02 697.528 563.615 697.528ZM563.967 705.272C564.394 705.272 564.751 705.123 565.039 704.824C565.338 704.515 565.487 704.141 565.487 703.704C565.487 703.267 565.338 702.899 565.039 702.6C564.751 702.291 564.394 702.136 563.967 702.136H561.007V705.272H563.967Z" fill="#8E8E8E"/>
<rect x="411.834" y="654.5" width="175.667" height="79" stroke="#EAEAEA"/>
</svg>
