<svg width="335" height="700" viewBox="0 0 335 700" fill="none" xmlns="http://www.w3.org/2000/svg">
<rect width="335" height="700" fill="#F6F6F6"/>
<rect width="295" height="120" transform="translate(20 30)" fill="#01534F"/>
<path d="M253.136 126.6H251.344L251.088 128.2H252.88L252.672 129.56H250.864L250.416 132.2H248.992L249.44 129.56H247.648L247.2 132.2H245.776L246.224 129.56H244.4L244.624 128.2H246.448L246.704 126.6H244.88L245.104 125.24H246.944L247.376 122.6H248.8L248.368 125.24H250.16L250.592 122.6H252.016L251.584 125.24H253.36L253.136 126.6ZM249.664 128.2L249.92 126.6H248.128L247.872 128.2H249.664ZM262.038 131.624C261.27 132.68 260.192 133.208 258.806 133.208C257.419 133.208 256.336 132.68 255.558 131.624C254.79 130.568 254.406 129.16 254.406 127.4C254.406 125.64 254.79 124.232 255.558 123.176C256.336 122.12 257.419 121.592 258.806 121.592C260.192 121.592 261.27 122.12 262.038 123.176C262.816 124.232 263.206 125.64 263.206 127.4C263.206 129.16 262.816 130.568 262.038 131.624ZM258.806 131.416C259.638 131.416 260.272 131.069 260.71 130.376C261.147 129.683 261.366 128.691 261.366 127.4C261.366 126.109 261.147 125.117 260.71 124.424C260.272 123.731 259.638 123.384 258.806 123.384C257.984 123.384 257.35 123.731 256.902 124.424C256.464 125.117 256.246 126.109 256.246 127.4C256.246 128.691 256.464 129.683 256.902 130.376C257.35 131.069 257.984 131.416 258.806 131.416ZM266.683 121.8H268.283V133H266.443V123.768L264.187 124.408L263.739 122.84L266.683 121.8ZM273.884 126.024C274.951 126.024 275.852 126.344 276.588 126.984C277.324 127.613 277.692 128.488 277.692 129.608C277.692 130.728 277.314 131.608 276.556 132.248C275.799 132.888 274.871 133.208 273.772 133.208C272.887 133.208 272.103 133.005 271.42 132.6C270.738 132.184 270.252 131.587 269.964 130.808L271.548 129.896C271.847 130.909 272.588 131.416 273.772 131.416C274.402 131.416 274.903 131.256 275.276 130.936C275.66 130.605 275.852 130.163 275.852 129.608C275.852 129.053 275.666 128.616 275.292 128.296C274.919 127.976 274.423 127.816 273.804 127.816H270.54L270.972 121.8H277.212V123.528H272.668L272.476 126.024H273.884ZM283.235 126.376C284.045 126.568 284.701 126.947 285.203 127.512C285.715 128.067 285.971 128.765 285.971 129.608C285.971 130.728 285.592 131.608 284.835 132.248C284.077 132.888 283.149 133.208 282.051 133.208C281.197 133.208 280.429 133.011 279.747 132.616C279.075 132.221 278.589 131.645 278.291 130.888L279.859 129.976C280.189 130.936 280.92 131.416 282.051 131.416C282.691 131.416 283.197 131.256 283.571 130.936C283.944 130.605 284.131 130.163 284.131 129.608C284.131 129.053 283.944 128.616 283.571 128.296C283.197 127.976 282.691 127.816 282.051 127.816H281.635L280.899 126.712L283.315 123.528H278.627V121.8H285.507V123.368L283.235 126.376ZM295.852 129.272V130.984H294.572V133H292.716V130.984H287.212V129.272L291.068 121.8H293.068L289.212 129.272H292.716V126.36H294.572V129.272H295.852ZM303.805 123.56H299.085V126.696H303.645V128.456H299.085V133H297.245V121.8H303.805V123.56Z" fill="white"/>
<rect width="147.5" height="80" transform="translate(20 150)" fill="#BBFF88"/>
<path d="M102.636 206.6H100.844L100.588 208.2H102.38L102.172 209.56H100.364L99.916 212.2H98.492L98.94 209.56H97.148L96.7 212.2H95.276L95.724 209.56H93.9L94.124 208.2H95.948L96.204 206.6H94.38L94.604 205.24H96.444L96.876 202.6H98.3L97.868 205.24H99.66L100.092 202.6H101.516L101.084 205.24H102.86L102.636 206.6ZM99.164 208.2L99.42 206.6H97.628L97.372 208.2H99.164ZM110.978 207.192C111.468 207.448 111.852 207.8 112.13 208.248C112.407 208.696 112.546 209.213 112.546 209.8C112.546 210.717 112.22 211.48 111.57 212.088C110.919 212.696 110.124 213 109.186 213H104.386V201.8H108.834C109.751 201.8 110.524 202.099 111.154 202.696C111.794 203.283 112.114 204.019 112.114 204.904C112.114 205.875 111.735 206.637 110.978 207.192ZM108.834 203.528H106.226V206.472H108.834C109.239 206.472 109.58 206.333 109.858 206.056C110.135 205.768 110.274 205.416 110.274 205C110.274 204.584 110.135 204.237 109.858 203.96C109.58 203.672 109.239 203.528 108.834 203.528ZM109.186 211.272C109.612 211.272 109.97 211.123 110.258 210.824C110.556 210.515 110.706 210.141 110.706 209.704C110.706 209.267 110.556 208.899 110.258 208.6C109.97 208.291 109.612 208.136 109.186 208.136H106.226V211.272H109.186ZM120.743 207.192C121.234 207.448 121.618 207.8 121.895 208.248C122.173 208.696 122.311 209.213 122.311 209.8C122.311 210.717 121.986 211.48 121.335 212.088C120.685 212.696 119.89 213 118.951 213H114.151V201.8H118.599C119.517 201.8 120.29 202.099 120.919 202.696C121.559 203.283 121.879 204.019 121.879 204.904C121.879 205.875 121.501 206.637 120.743 207.192ZM118.599 203.528H115.991V206.472H118.599C119.005 206.472 119.346 206.333 119.623 206.056C119.901 205.768 120.039 205.416 120.039 205C120.039 204.584 119.901 204.237 119.623 203.96C119.346 203.672 119.005 203.528 118.599 203.528ZM118.951 211.272C119.378 211.272 119.735 211.123 120.023 210.824C120.322 210.515 120.471 210.141 120.471 209.704C120.471 209.267 120.322 208.899 120.023 208.6C119.735 208.291 119.378 208.136 118.951 208.136H115.991V211.272H118.951ZM130.477 203.56H125.757V206.696H130.317V208.456H125.757V213H123.917V201.8H130.477V203.56ZM138.758 203.56H134.038V206.696H138.598V208.456H134.038V213H132.198V201.8H138.758V203.56ZM146.127 207.176C147.226 207.784 147.775 208.691 147.775 209.896C147.775 210.92 147.418 211.731 146.703 212.328C145.989 212.915 145.039 213.208 143.855 213.208C142.671 213.208 141.717 212.915 140.991 212.328C140.277 211.731 139.919 210.92 139.919 209.896C139.919 209.32 140.063 208.797 140.351 208.328C140.639 207.848 141.045 207.464 141.567 207.176C140.725 206.621 140.303 205.832 140.303 204.808C140.303 203.784 140.645 202.995 141.327 202.44C142.01 201.875 142.853 201.592 143.855 201.592C144.847 201.592 145.685 201.875 146.367 202.44C147.061 202.995 147.407 203.784 147.407 204.808C147.407 205.832 146.981 206.621 146.127 207.176ZM143.855 203.336C143.354 203.336 142.943 203.469 142.623 203.736C142.303 204.003 142.143 204.387 142.143 204.888C142.143 205.368 142.303 205.747 142.623 206.024C142.954 206.301 143.365 206.44 143.855 206.44C144.335 206.44 144.741 206.301 145.071 206.024C145.402 205.747 145.567 205.368 145.567 204.888C145.567 204.387 145.402 204.003 145.071 203.736C144.751 203.469 144.346 203.336 143.855 203.336ZM143.855 211.464C144.474 211.464 144.975 211.315 145.359 211.016C145.743 210.707 145.935 210.275 145.935 209.72C145.935 209.165 145.743 208.739 145.359 208.44C144.975 208.131 144.474 207.976 143.855 207.976C143.226 207.976 142.719 208.131 142.335 208.44C141.951 208.739 141.759 209.165 141.759 209.72C141.759 210.275 141.951 210.707 142.335 211.016C142.719 211.315 143.226 211.464 143.855 211.464ZM155.096 207.176C156.195 207.784 156.744 208.691 156.744 209.896C156.744 210.92 156.387 211.731 155.672 212.328C154.957 212.915 154.008 213.208 152.824 213.208C151.64 213.208 150.685 212.915 149.96 212.328C149.245 211.731 148.888 210.92 148.888 209.896C148.888 209.32 149.032 208.797 149.32 208.328C149.608 207.848 150.013 207.464 150.536 207.176C149.693 206.621 149.272 205.832 149.272 204.808C149.272 203.784 149.613 202.995 150.296 202.44C150.979 201.875 151.821 201.592 152.824 201.592C153.816 201.592 154.653 201.875 155.336 202.44C156.029 202.995 156.376 203.784 156.376 204.808C156.376 205.832 155.949 206.621 155.096 207.176ZM152.824 203.336C152.323 203.336 151.912 203.469 151.592 203.736C151.272 204.003 151.112 204.387 151.112 204.888C151.112 205.368 151.272 205.747 151.592 206.024C151.923 206.301 152.333 206.44 152.824 206.44C153.304 206.44 153.709 206.301 154.04 206.024C154.371 205.747 154.536 205.368 154.536 204.888C154.536 204.387 154.371 204.003 154.04 203.736C153.72 203.469 153.315 203.336 152.824 203.336ZM152.824 211.464C153.443 211.464 153.944 211.315 154.328 211.016C154.712 210.707 154.904 210.275 154.904 209.72C154.904 209.165 154.712 208.739 154.328 208.44C153.944 208.131 153.443 207.976 152.824 207.976C152.195 207.976 151.688 208.131 151.304 208.44C150.92 208.739 150.728 209.165 150.728 209.72C150.728 210.275 150.92 210.707 151.304 211.016C151.688 211.315 152.195 211.464 152.824 211.464Z" fill="#011627"/>
<rect width="147.5" height="80" transform="translate(167.5 150)" fill="#FF6857"/>
<path d="M253.136 206.6H251.344L251.088 208.2H252.88L252.672 209.56H250.864L250.416 212.2H248.992L249.44 209.56H247.648L247.2 212.2H245.776L246.224 209.56H244.4L244.624 208.2H246.448L246.704 206.6H244.88L245.104 205.24H246.944L247.376 202.6H248.8L248.368 205.24H250.16L250.592 202.6H252.016L251.584 205.24H253.36L253.136 206.6ZM249.664 208.2L249.92 206.6H248.128L247.872 208.2H249.664ZM261.446 203.56H256.726V206.696H261.286V208.456H256.726V213H254.886V201.8H261.446V203.56ZM269.727 203.56H265.007V206.696H269.567V208.456H265.007V213H263.167V201.8H269.727V203.56ZM274.696 205.56C275.859 205.56 276.808 205.917 277.544 206.632C278.28 207.336 278.648 208.253 278.648 209.384C278.648 210.515 278.28 211.437 277.544 212.152C276.808 212.856 275.859 213.208 274.696 213.208C273.523 213.208 272.568 212.856 271.832 212.152C271.096 211.437 270.728 210.515 270.728 209.384C270.728 208.531 270.952 207.779 271.4 207.128L274.952 201.8H277.048L274.488 205.56H274.696ZM274.696 211.464C275.315 211.464 275.821 211.277 276.216 210.904C276.611 210.52 276.808 210.013 276.808 209.384C276.808 208.755 276.611 208.253 276.216 207.88C275.821 207.496 275.315 207.304 274.696 207.304C274.067 207.304 273.555 207.496 273.16 207.88C272.765 208.253 272.568 208.755 272.568 209.384C272.568 210.013 272.765 210.52 273.16 210.904C273.555 211.277 274.067 211.464 274.696 211.464ZM285.815 207.176C286.914 207.784 287.463 208.691 287.463 209.896C287.463 210.92 287.106 211.731 286.391 212.328C285.676 212.915 284.727 213.208 283.543 213.208C282.359 213.208 281.404 212.915 280.679 212.328C279.964 211.731 279.607 210.92 279.607 209.896C279.607 209.32 279.751 208.797 280.039 208.328C280.327 207.848 280.732 207.464 281.255 207.176C280.412 206.621 279.991 205.832 279.991 204.808C279.991 203.784 280.332 202.995 281.015 202.44C281.698 201.875 282.54 201.592 283.543 201.592C284.535 201.592 285.372 201.875 286.055 202.44C286.748 202.995 287.095 203.784 287.095 204.808C287.095 205.832 286.668 206.621 285.815 207.176ZM283.543 203.336C283.042 203.336 282.631 203.469 282.311 203.736C281.991 204.003 281.831 204.387 281.831 204.888C281.831 205.368 281.991 205.747 282.311 206.024C282.642 206.301 283.052 206.44 283.543 206.44C284.023 206.44 284.428 206.301 284.759 206.024C285.09 205.747 285.255 205.368 285.255 204.888C285.255 204.387 285.09 204.003 284.759 203.736C284.439 203.469 284.034 203.336 283.543 203.336ZM283.543 211.464C284.162 211.464 284.663 211.315 285.047 211.016C285.431 210.707 285.623 210.275 285.623 209.72C285.623 209.165 285.431 208.739 285.047 208.44C284.663 208.131 284.162 207.976 283.543 207.976C282.914 207.976 282.407 208.131 282.023 208.44C281.639 208.739 281.447 209.165 281.447 209.72C281.447 210.275 281.639 210.707 282.023 211.016C282.407 211.315 282.914 211.464 283.543 211.464ZM292.259 206.024C293.326 206.024 294.227 206.344 294.963 206.984C295.699 207.613 296.067 208.488 296.067 209.608C296.067 210.728 295.689 211.608 294.931 212.248C294.174 212.888 293.246 213.208 292.147 213.208C291.262 213.208 290.478 213.005 289.795 212.6C289.113 212.184 288.627 211.587 288.339 210.808L289.923 209.896C290.222 210.909 290.963 211.416 292.147 211.416C292.777 211.416 293.278 211.256 293.651 210.936C294.035 210.605 294.227 210.163 294.227 209.608C294.227 209.053 294.041 208.616 293.667 208.296C293.294 207.976 292.798 207.816 292.179 207.816H288.915L289.347 201.8H295.587V203.528H291.043L290.851 206.024H292.259ZM296.506 201.8H303.626V203.4L299.69 213H297.754L301.626 203.56H296.506V201.8Z" fill="white"/>
<rect width="295" height="120" transform="translate(20 230)" fill="#040135"/>
<path d="M251.136 326.6H249.344L249.088 328.2H250.88L250.672 329.56H248.864L248.416 332.2H246.992L247.44 329.56H245.648L245.2 332.2H243.776L244.224 329.56H242.4L242.624 328.2H244.448L244.704 326.6H242.88L243.104 325.24H244.944L245.376 322.6H246.8L246.368 325.24H248.16L248.592 322.6H250.016L249.584 325.24H251.36L251.136 326.6ZM247.664 328.2L247.92 326.6H246.128L245.872 328.2H247.664ZM260.038 331.624C259.27 332.68 258.192 333.208 256.806 333.208C255.419 333.208 254.336 332.68 253.558 331.624C252.79 330.568 252.406 329.16 252.406 327.4C252.406 325.64 252.79 324.232 253.558 323.176C254.336 322.12 255.419 321.592 256.806 321.592C258.192 321.592 259.27 322.12 260.038 323.176C260.816 324.232 261.206 325.64 261.206 327.4C261.206 329.16 260.816 330.568 260.038 331.624ZM256.806 331.416C257.638 331.416 258.272 331.069 258.71 330.376C259.147 329.683 259.366 328.691 259.366 327.4C259.366 326.109 259.147 325.117 258.71 324.424C258.272 323.731 257.638 323.384 256.806 323.384C255.984 323.384 255.35 323.731 254.902 324.424C254.464 325.117 254.246 326.109 254.246 327.4C254.246 328.691 254.464 329.683 254.902 330.376C255.35 331.069 255.984 331.416 256.806 331.416ZM270.852 329.272V330.984H269.572V333H267.716V330.984H262.212V329.272L266.068 321.8H268.068L264.212 329.272H267.716V326.36H269.572V329.272H270.852ZM279.397 331.624C278.629 332.68 277.552 333.208 276.165 333.208C274.778 333.208 273.696 332.68 272.917 331.624C272.149 330.568 271.765 329.16 271.765 327.4C271.765 325.64 272.149 324.232 272.917 323.176C273.696 322.12 274.778 321.592 276.165 321.592C277.552 321.592 278.629 322.12 279.397 323.176C280.176 324.232 280.565 325.64 280.565 327.4C280.565 329.16 280.176 330.568 279.397 331.624ZM276.165 331.416C276.997 331.416 277.632 331.069 278.069 330.376C278.506 329.683 278.725 328.691 278.725 327.4C278.725 326.109 278.506 325.117 278.069 324.424C277.632 323.731 276.997 323.384 276.165 323.384C275.344 323.384 274.709 323.731 274.261 324.424C273.824 325.117 273.605 326.109 273.605 327.4C273.605 328.691 273.824 329.683 274.261 330.376C274.709 331.069 275.344 331.416 276.165 331.416ZM284.043 321.8H285.643V333H283.803V323.768L281.547 324.408L281.099 322.84L284.043 321.8ZM292.188 326.376C292.998 326.568 293.654 326.947 294.156 327.512C294.668 328.067 294.924 328.765 294.924 329.608C294.924 330.728 294.545 331.608 293.788 332.248C293.03 332.888 292.102 333.208 291.004 333.208C290.15 333.208 289.382 333.011 288.7 332.616C288.028 332.221 287.542 331.645 287.244 330.888L288.812 329.976C289.142 330.936 289.873 331.416 291.004 331.416C291.644 331.416 292.15 331.256 292.524 330.936C292.897 330.605 293.084 330.163 293.084 329.608C293.084 329.053 292.897 328.616 292.524 328.296C292.15 327.976 291.644 327.816 291.004 327.816H290.588L289.852 326.712L292.268 323.528H287.58V321.8H294.46V323.368L292.188 326.376ZM299.728 326.024C300.795 326.024 301.696 326.344 302.432 326.984C303.168 327.613 303.536 328.488 303.536 329.608C303.536 330.728 303.157 331.608 302.4 332.248C301.643 332.888 300.715 333.208 299.616 333.208C298.731 333.208 297.947 333.005 297.264 332.6C296.581 332.184 296.096 331.587 295.808 330.808L297.392 329.896C297.691 330.909 298.432 331.416 299.616 331.416C300.245 331.416 300.747 331.256 301.12 330.936C301.504 330.605 301.696 330.163 301.696 329.608C301.696 329.053 301.509 328.616 301.136 328.296C300.763 327.976 300.267 327.816 299.648 327.816H296.384L296.816 321.8H303.056V323.528H298.512L298.32 326.024H299.728Z" fill="white"/>
<rect width="147.5" height="80" transform="translate(20 350)" fill="#4791FA"/>
<path d="M106.636 406.6H104.844L104.588 408.2H106.38L106.172 409.56H104.364L103.916 412.2H102.492L102.94 409.56H101.148L100.7 412.2H99.276L99.724 409.56H97.9L98.124 408.2H99.948L100.204 406.6H98.38L98.604 405.24H100.444L100.876 402.6H102.3L101.868 405.24H103.66L104.092 402.6H105.516L105.084 405.24H106.86L106.636 406.6ZM103.164 408.2L103.42 406.6H101.628L101.372 408.2H103.164ZM116.274 409.272V410.984H114.994V413H113.138V410.984H107.634V409.272L111.49 401.8H113.49L109.634 409.272H113.138V406.36H114.994V409.272H116.274ZM116.474 401.8H123.594V403.4L119.658 413H117.722L121.594 403.56H116.474V401.8ZM132.398 405.416C132.398 406.269 132.174 407.021 131.726 407.672L128.19 413H126.078L128.638 409.24H128.446C127.283 409.24 126.329 408.888 125.582 408.184C124.846 407.469 124.478 406.547 124.478 405.416C124.478 404.285 124.846 403.368 125.582 402.664C126.329 401.949 127.283 401.592 128.446 401.592C129.609 401.592 130.558 401.949 131.294 402.664C132.03 403.368 132.398 404.285 132.398 405.416ZM126.318 405.416C126.318 406.035 126.515 406.536 126.91 406.92C127.315 407.304 127.827 407.496 128.446 407.496C129.065 407.496 129.571 407.309 129.966 406.936C130.361 406.552 130.558 406.045 130.558 405.416C130.558 404.787 130.361 404.285 129.966 403.912C129.571 403.528 129.065 403.336 128.446 403.336C127.827 403.336 127.315 403.528 126.91 403.912C126.515 404.285 126.318 404.787 126.318 405.416ZM135.949 401.8H137.549V413H135.709V403.768L133.453 404.408L133.005 402.84L135.949 401.8ZM146.43 403.56H141.71V406.696H146.27V408.456H141.71V413H139.87V401.8H146.43V403.56ZM154.963 413L154.179 410.744H149.411L148.627 413H146.627L150.691 401.8H152.899L156.947 413H154.963ZM150.019 409.016H153.571L151.795 403.96L150.019 409.016Z" fill="#011627"/>
<rect width="147.5" height="80" transform="translate(167.5 350)" fill="#E0EDFF"/>
<path d="M249.136 406.6H247.344L247.088 408.2H248.88L248.672 409.56H246.864L246.416 412.2H244.992L245.44 409.56H243.648L243.2 412.2H241.776L242.224 409.56H240.4L240.624 408.2H242.448L242.704 406.6H240.88L241.104 405.24H242.944L243.376 402.6H244.8L244.368 405.24H246.16L246.592 402.6H248.016L247.584 405.24H249.36L249.136 406.6ZM245.664 408.2L245.92 406.6H244.128L243.872 408.2H245.664ZM252.726 411.24H257.686V413H250.886V401.8H257.606V403.56H252.726V406.472H257.206V408.216H252.726V411.24ZM266.522 411.624C265.754 412.68 264.677 413.208 263.29 413.208C261.903 413.208 260.821 412.68 260.042 411.624C259.274 410.568 258.89 409.16 258.89 407.4C258.89 405.64 259.274 404.232 260.042 403.176C260.821 402.12 261.903 401.592 263.29 401.592C264.677 401.592 265.754 402.12 266.522 403.176C267.301 404.232 267.69 405.64 267.69 407.4C267.69 409.16 267.301 410.568 266.522 411.624ZM263.29 411.416C264.122 411.416 264.757 411.069 265.194 410.376C265.631 409.683 265.85 408.691 265.85 407.4C265.85 406.109 265.631 405.117 265.194 404.424C264.757 403.731 264.122 403.384 263.29 403.384C262.469 403.384 261.834 403.731 261.386 404.424C260.949 405.117 260.73 406.109 260.73 407.4C260.73 408.691 260.949 409.683 261.386 410.376C261.834 411.069 262.469 411.416 263.29 411.416ZM271.288 411.24H276.248V413H269.448V401.8H276.168V403.56H271.288V406.472H275.768V408.216H271.288V411.24ZM282.333 401.8C283.869 401.8 285.143 402.339 286.157 403.416C287.181 404.493 287.693 405.821 287.693 407.4C287.693 408.968 287.181 410.296 286.157 411.384C285.143 412.461 283.869 413 282.333 413H277.933V401.8H282.333ZM282.333 411.24C283.389 411.24 284.247 410.877 284.909 410.152C285.581 409.427 285.917 408.509 285.917 407.4C285.917 406.28 285.581 405.363 284.909 404.648C284.247 403.923 283.389 403.56 282.333 403.56H279.773V411.24H282.333ZM295.93 403.56H291.21V406.696H295.77V408.456H291.21V413H289.37V401.8H295.93V403.56ZM304.211 403.56H299.491V406.696H304.051V408.456H299.491V413H297.651V401.8H304.211V403.56Z" fill="white"/>
<rect width="147.5" height="80" transform="translate(20 430)" fill="#23D639"/>
<path d="M102.636 486.6H100.844L100.588 488.2H102.38L102.172 489.56H100.364L99.916 492.2H98.492L98.94 489.56H97.148L96.7 492.2H95.276L95.724 489.56H93.9L94.124 488.2H95.948L96.204 486.6H94.38L94.604 485.24H96.444L96.876 482.6H98.3L97.868 485.24H99.66L100.092 482.6H101.516L101.084 485.24H102.86L102.636 486.6ZM99.164 488.2L99.42 486.6H97.628L97.372 488.2H99.164ZM103.762 493V491.56L107.666 487.576C108.615 486.627 109.09 485.805 109.09 485.112C109.09 484.568 108.924 484.147 108.594 483.848C108.274 483.539 107.863 483.384 107.362 483.384C106.423 483.384 105.73 483.848 105.282 484.776L103.73 483.864C104.082 483.117 104.578 482.552 105.218 482.168C105.858 481.784 106.567 481.592 107.346 481.592C108.327 481.592 109.17 481.901 109.874 482.52C110.578 483.139 110.93 483.981 110.93 485.048C110.93 486.189 110.295 487.405 109.026 488.696L106.498 491.224H111.138V493H103.762ZM116.922 486.376C117.733 486.568 118.389 486.947 118.89 487.512C119.402 488.067 119.658 488.765 119.658 489.608C119.658 490.728 119.279 491.608 118.522 492.248C117.765 492.888 116.837 493.208 115.738 493.208C114.885 493.208 114.117 493.011 113.434 492.616C112.762 492.221 112.277 491.645 111.978 490.888L113.546 489.976C113.877 490.936 114.607 491.416 115.738 491.416C116.378 491.416 116.885 491.256 117.258 490.936C117.631 490.605 117.818 490.163 117.818 489.608C117.818 489.053 117.631 488.616 117.258 488.296C116.885 487.976 116.378 487.816 115.738 487.816H115.322L114.586 486.712L117.002 483.528H112.314V481.8H119.194V483.368L116.922 486.376ZM125.739 481.8C127.275 481.8 128.549 482.339 129.563 483.416C130.587 484.493 131.099 485.821 131.099 487.4C131.099 488.968 130.587 490.296 129.563 491.384C128.549 492.461 127.275 493 125.739 493H121.339V481.8H125.739ZM125.739 491.24C126.795 491.24 127.653 490.877 128.315 490.152C128.987 489.427 129.323 488.509 129.323 487.4C129.323 486.28 128.987 485.363 128.315 484.648C127.653 483.923 126.795 483.56 125.739 483.56H123.179V491.24H125.739ZM136.024 485.56C137.187 485.56 138.136 485.917 138.872 486.632C139.608 487.336 139.976 488.253 139.976 489.384C139.976 490.515 139.608 491.437 138.872 492.152C138.136 492.856 137.187 493.208 136.024 493.208C134.851 493.208 133.896 492.856 133.16 492.152C132.424 491.437 132.056 490.515 132.056 489.384C132.056 488.531 132.28 487.779 132.728 487.128L136.28 481.8H138.376L135.816 485.56H136.024ZM136.024 491.464C136.643 491.464 137.15 491.277 137.544 490.904C137.939 490.52 138.136 490.013 138.136 489.384C138.136 488.755 137.939 488.253 137.544 487.88C137.15 487.496 136.643 487.304 136.024 487.304C135.395 487.304 134.883 487.496 134.488 487.88C134.094 488.253 133.896 488.755 133.896 489.384C133.896 490.013 134.094 490.52 134.488 490.904C134.883 491.277 135.395 491.464 136.024 491.464ZM145.563 486.376C146.373 486.568 147.029 486.947 147.531 487.512C148.043 488.067 148.299 488.765 148.299 489.608C148.299 490.728 147.92 491.608 147.163 492.248C146.405 492.888 145.477 493.208 144.379 493.208C143.525 493.208 142.757 493.011 142.075 492.616C141.403 492.221 140.917 491.645 140.619 490.888L142.187 489.976C142.517 490.936 143.248 491.416 144.379 491.416C145.019 491.416 145.525 491.256 145.899 490.936C146.272 490.605 146.459 490.163 146.459 489.608C146.459 489.053 146.272 488.616 145.899 488.296C145.525 487.976 145.019 487.816 144.379 487.816H143.963L143.227 486.712L145.643 483.528H140.955V481.8H147.835V483.368L145.563 486.376ZM156.711 485.416C156.711 486.269 156.487 487.021 156.039 487.672L152.503 493H150.391L152.951 489.24H152.759C151.596 489.24 150.641 488.888 149.895 488.184C149.159 487.469 148.791 486.547 148.791 485.416C148.791 484.285 149.159 483.368 149.895 482.664C150.641 481.949 151.596 481.592 152.759 481.592C153.921 481.592 154.871 481.949 155.607 482.664C156.343 483.368 156.711 484.285 156.711 485.416ZM150.631 485.416C150.631 486.035 150.828 486.536 151.223 486.92C151.628 487.304 152.14 487.496 152.759 487.496C153.377 487.496 153.884 487.309 154.279 486.936C154.673 486.552 154.871 486.045 154.871 485.416C154.871 484.787 154.673 484.285 154.279 483.912C153.884 483.528 153.377 483.336 152.759 483.336C152.14 483.336 151.628 483.528 151.223 483.912C150.828 484.285 150.631 484.787 150.631 485.416Z" fill="white"/>
<rect width="147.5" height="80" transform="translate(167.5 430)" fill="#FF0000"/>
<path d="M247.136 486.6H245.344L245.088 488.2H246.88L246.672 489.56H244.864L244.416 492.2H242.992L243.44 489.56H241.648L241.2 492.2H239.776L240.224 489.56H238.4L238.624 488.2H240.448L240.704 486.6H238.88L239.104 485.24H240.944L241.376 482.6H242.8L242.368 485.24H244.16L244.592 482.6H246.016L245.584 485.24H247.36L247.136 486.6ZM243.664 488.2L243.92 486.6H242.128L241.872 488.2H243.664ZM255.446 483.56H250.726V486.696H255.286V488.456H250.726V493H248.886V481.8H255.446V483.56ZM263.727 483.56H259.007V486.696H263.567V488.456H259.007V493H257.167V481.8H263.727V483.56ZM272.6 491.624C271.832 492.68 270.755 493.208 269.368 493.208C267.981 493.208 266.899 492.68 266.12 491.624C265.352 490.568 264.968 489.16 264.968 487.4C264.968 485.64 265.352 484.232 266.12 483.176C266.899 482.12 267.981 481.592 269.368 481.592C270.755 481.592 271.832 482.12 272.6 483.176C273.379 484.232 273.768 485.64 273.768 487.4C273.768 489.16 273.379 490.568 272.6 491.624ZM269.368 491.416C270.2 491.416 270.835 491.069 271.272 490.376C271.709 489.683 271.928 488.691 271.928 487.4C271.928 486.109 271.709 485.117 271.272 484.424C270.835 483.731 270.2 483.384 269.368 483.384C268.547 483.384 267.912 483.731 267.464 484.424C267.027 485.117 266.808 486.109 266.808 487.4C266.808 488.691 267.027 489.683 267.464 490.376C267.912 491.069 268.547 491.416 269.368 491.416ZM282.678 491.624C281.91 492.68 280.833 493.208 279.446 493.208C278.06 493.208 276.977 492.68 276.198 491.624C275.43 490.568 275.046 489.16 275.046 487.4C275.046 485.64 275.43 484.232 276.198 483.176C276.977 482.12 278.06 481.592 279.446 481.592C280.833 481.592 281.91 482.12 282.678 483.176C283.457 484.232 283.846 485.64 283.846 487.4C283.846 489.16 283.457 490.568 282.678 491.624ZM279.446 491.416C280.278 491.416 280.913 491.069 281.35 490.376C281.788 489.683 282.006 488.691 282.006 487.4C282.006 486.109 281.788 485.117 281.35 484.424C280.913 483.731 280.278 483.384 279.446 483.384C278.625 483.384 277.99 483.731 277.542 484.424C277.105 485.117 276.886 486.109 276.886 487.4C276.886 488.691 277.105 489.683 277.542 490.376C277.99 491.069 278.625 491.416 279.446 491.416ZM292.756 491.624C291.988 492.68 290.911 493.208 289.524 493.208C288.138 493.208 287.055 492.68 286.276 491.624C285.508 490.568 285.124 489.16 285.124 487.4C285.124 485.64 285.508 484.232 286.276 483.176C287.055 482.12 288.138 481.592 289.524 481.592C290.911 481.592 291.988 482.12 292.756 483.176C293.535 484.232 293.924 485.64 293.924 487.4C293.924 489.16 293.535 490.568 292.756 491.624ZM289.524 491.416C290.356 491.416 290.991 491.069 291.428 490.376C291.866 489.683 292.084 488.691 292.084 487.4C292.084 486.109 291.866 485.117 291.428 484.424C290.991 483.731 290.356 483.384 289.524 483.384C288.703 483.384 288.068 483.731 287.62 484.424C287.183 485.117 286.964 486.109 286.964 487.4C286.964 488.691 287.183 489.683 287.62 490.376C288.068 491.069 288.703 491.416 289.524 491.416ZM302.835 491.624C302.067 492.68 300.989 493.208 299.603 493.208C298.216 493.208 297.133 492.68 296.355 491.624C295.587 490.568 295.203 489.16 295.203 487.4C295.203 485.64 295.587 484.232 296.355 483.176C297.133 482.12 298.216 481.592 299.603 481.592C300.989 481.592 302.067 482.12 302.835 483.176C303.613 484.232 304.003 485.64 304.003 487.4C304.003 489.16 303.613 490.568 302.835 491.624ZM299.603 491.416C300.435 491.416 301.069 491.069 301.507 490.376C301.944 489.683 302.163 488.691 302.163 487.4C302.163 486.109 301.944 485.117 301.507 484.424C301.069 483.731 300.435 483.384 299.603 483.384C298.781 483.384 298.147 483.731 297.699 484.424C297.261 485.117 297.043 486.109 297.043 487.4C297.043 488.691 297.261 489.683 297.699 490.376C298.147 491.069 298.781 491.416 299.603 491.416Z" fill="white"/>
<rect width="98.3333" height="80" transform="translate(20 510)" fill="#343434"/>
<path d="M52.47 566.6H50.678L50.422 568.2H52.214L52.006 569.56H50.198L49.75 572.2H48.326L48.774 569.56H46.982L46.534 572.2H45.11L45.558 569.56H43.734L43.958 568.2H45.782L46.038 566.6H44.214L44.438 565.24H46.278L46.71 562.6H48.134L47.702 565.24H49.494L49.926 562.6H51.35L50.918 565.24H52.694L52.47 566.6ZM48.998 568.2L49.254 566.6H47.462L47.206 568.2H48.998ZM58.4436 566.376C59.2543 566.568 59.9103 566.947 60.4116 567.512C60.9236 568.067 61.1796 568.765 61.1796 569.608C61.1796 570.728 60.8009 571.608 60.0436 572.248C59.2863 572.888 58.3583 573.208 57.2596 573.208C56.4063 573.208 55.6383 573.011 54.9556 572.616C54.2836 572.221 53.7983 571.645 53.4996 570.888L55.0676 569.976C55.3983 570.936 56.1289 571.416 57.2596 571.416C57.8996 571.416 58.4063 571.256 58.7796 570.936C59.1529 570.605 59.3396 570.163 59.3396 569.608C59.3396 569.053 59.1529 568.616 58.7796 568.296C58.4063 567.976 57.8996 567.816 57.2596 567.816H56.8436L56.1076 566.712L58.5236 563.528H53.8356V561.8H60.7156V563.368L58.4436 566.376ZM71.0607 569.272V570.984H69.7807V573H67.9247V570.984H62.4207V569.272L66.2767 561.8H68.2767L64.4207 569.272H67.9247V566.36H69.7807V569.272H71.0607ZM76.678 566.376C77.4887 566.568 78.1447 566.947 78.646 567.512C79.158 568.067 79.414 568.765 79.414 569.608C79.414 570.728 79.0353 571.608 78.278 572.248C77.5207 572.888 76.5927 573.208 75.494 573.208C74.6407 573.208 73.8727 573.011 73.19 572.616C72.518 572.221 72.0327 571.645 71.734 570.888L73.302 569.976C73.6327 570.936 74.3633 571.416 75.494 571.416C76.134 571.416 76.6407 571.256 77.014 570.936C77.3873 570.605 77.574 570.163 77.574 569.608C77.574 569.053 77.3873 568.616 77.014 568.296C76.6407 567.976 76.134 567.816 75.494 567.816H75.078L74.342 566.712L76.758 563.528H72.07V561.8H78.95V563.368L76.678 566.376ZM89.2951 569.272V570.984H88.0151V573H86.1591V570.984H80.6551V569.272L84.5111 561.8H86.5111L82.6551 569.272H86.1591V566.36H88.0151V569.272H89.2951ZM94.9124 566.376C95.723 566.568 96.379 566.947 96.8804 567.512C97.3924 568.067 97.6484 568.765 97.6484 569.608C97.6484 570.728 97.2697 571.608 96.5124 572.248C95.755 572.888 94.827 573.208 93.7284 573.208C92.875 573.208 92.107 573.011 91.4244 572.616C90.7524 572.221 90.267 571.645 89.9684 570.888L91.5364 569.976C91.867 570.936 92.5977 571.416 93.7284 571.416C94.3684 571.416 94.875 571.256 95.2484 570.936C95.6217 570.605 95.8084 570.163 95.8084 569.608C95.8084 569.053 95.6217 568.616 95.2484 568.296C94.875 567.976 94.3684 567.816 93.7284 567.816H93.3124L92.5764 566.712L94.9924 563.528H90.3044V561.8H97.1844V563.368L94.9124 566.376ZM107.529 569.272V570.984H106.249V573H104.393V570.984H98.8895V569.272L102.745 561.8H104.745L100.889 569.272H104.393V566.36H106.249V569.272H107.529Z" fill="white"/>
<rect width="98.3333" height="80" transform="translate(118.334 510)" fill="#616161"/>
<path d="M165.804 566.6H164.012L163.756 568.2H165.548L165.34 569.56H163.532L163.084 572.2H161.66L162.108 569.56H160.316L159.868 572.2H158.444L158.892 569.56H157.068L157.292 568.2H159.116L159.372 566.6H157.548L157.772 565.24H159.612L160.044 562.6H161.468L161.036 565.24H162.828L163.26 562.6H164.684L164.252 565.24H166.028L165.804 566.6ZM162.332 568.2L162.588 566.6H160.796L160.54 568.2H162.332ZM170.802 565.56C171.964 565.56 172.914 565.917 173.65 566.632C174.386 567.336 174.754 568.253 174.754 569.384C174.754 570.515 174.386 571.437 173.65 572.152C172.914 572.856 171.964 573.208 170.802 573.208C169.628 573.208 168.674 572.856 167.938 572.152C167.202 571.437 166.834 570.515 166.834 569.384C166.834 568.531 167.058 567.779 167.506 567.128L171.058 561.8H173.154L170.594 565.56H170.802ZM170.802 571.464C171.42 571.464 171.927 571.277 172.322 570.904C172.716 570.52 172.914 570.013 172.914 569.384C172.914 568.755 172.716 568.253 172.322 567.88C171.927 567.496 171.42 567.304 170.802 567.304C170.172 567.304 169.66 567.496 169.266 567.88C168.871 568.253 168.674 568.755 168.674 569.384C168.674 570.013 168.871 570.52 169.266 570.904C169.66 571.277 170.172 571.464 170.802 571.464ZM177.023 561.8H178.623V573H176.783V563.768L174.527 564.408L174.079 562.84L177.023 561.8ZM184.192 565.56C185.355 565.56 186.304 565.917 187.04 566.632C187.776 567.336 188.144 568.253 188.144 569.384C188.144 570.515 187.776 571.437 187.04 572.152C186.304 572.856 185.355 573.208 184.192 573.208C183.019 573.208 182.064 572.856 181.328 572.152C180.592 571.437 180.224 570.515 180.224 569.384C180.224 568.531 180.448 567.779 180.896 567.128L184.448 561.8H186.544L183.984 565.56H184.192ZM184.192 571.464C184.811 571.464 185.318 571.277 185.712 570.904C186.107 570.52 186.304 570.013 186.304 569.384C186.304 568.755 186.107 568.253 185.712 567.88C185.318 567.496 184.811 567.304 184.192 567.304C183.563 567.304 183.051 567.496 182.656 567.88C182.262 568.253 182.064 568.755 182.064 569.384C182.064 570.013 182.262 570.52 182.656 570.904C183.051 571.277 183.563 571.464 184.192 571.464ZM190.414 561.8H192.014V573H190.174V563.768L187.918 564.408L187.47 562.84L190.414 561.8ZM197.583 565.56C198.746 565.56 199.695 565.917 200.431 566.632C201.167 567.336 201.535 568.253 201.535 569.384C201.535 570.515 201.167 571.437 200.431 572.152C199.695 572.856 198.746 573.208 197.583 573.208C196.41 573.208 195.455 572.856 194.719 572.152C193.983 571.437 193.615 570.515 193.615 569.384C193.615 568.531 193.839 567.779 194.287 567.128L197.839 561.8H199.935L197.375 565.56H197.583ZM197.583 571.464C198.202 571.464 198.708 571.277 199.103 570.904C199.498 570.52 199.695 570.013 199.695 569.384C199.695 568.755 199.498 568.253 199.103 567.88C198.708 567.496 198.202 567.304 197.583 567.304C196.954 567.304 196.442 567.496 196.047 567.88C195.652 568.253 195.455 568.755 195.455 569.384C195.455 570.013 195.652 570.52 196.047 570.904C196.442 571.277 196.954 571.464 197.583 571.464ZM203.804 561.8H205.404V573H203.564V563.768L201.308 564.408L200.86 562.84L203.804 561.8Z" fill="white"/>
<rect width="98.3333" height="80" transform="translate(216.666 510)" fill="#8E8E8E"/>
<path d="M251.136 566.6H249.344L249.088 568.2H250.88L250.672 569.56H248.864L248.416 572.2H246.992L247.44 569.56H245.648L245.2 572.2H243.776L244.224 569.56H242.4L242.624 568.2H244.448L244.704 566.6H242.88L243.104 565.24H244.944L245.376 562.6H246.8L246.368 565.24H248.16L248.592 562.6H250.016L249.584 565.24H251.36L251.136 566.6ZM247.664 568.2L247.92 566.6H246.128L245.872 568.2H247.664ZM258.534 567.176C259.632 567.784 260.182 568.691 260.182 569.896C260.182 570.92 259.824 571.731 259.11 572.328C258.395 572.915 257.446 573.208 256.262 573.208C255.078 573.208 254.123 572.915 253.398 572.328C252.683 571.731 252.326 570.92 252.326 569.896C252.326 569.32 252.47 568.797 252.758 568.328C253.046 567.848 253.451 567.464 253.974 567.176C253.131 566.621 252.71 565.832 252.71 564.808C252.71 563.784 253.051 562.995 253.734 562.44C254.416 561.875 255.259 561.592 256.262 561.592C257.254 561.592 258.091 561.875 258.774 562.44C259.467 562.995 259.814 563.784 259.814 564.808C259.814 565.832 259.387 566.621 258.534 567.176ZM256.262 563.336C255.76 563.336 255.35 563.469 255.03 563.736C254.71 564.003 254.55 564.387 254.55 564.888C254.55 565.368 254.71 565.747 255.03 566.024C255.36 566.301 255.771 566.44 256.262 566.44C256.742 566.44 257.147 566.301 257.478 566.024C257.808 565.747 257.974 565.368 257.974 564.888C257.974 564.387 257.808 564.003 257.478 563.736C257.158 563.469 256.752 563.336 256.262 563.336ZM256.262 571.464C256.88 571.464 257.382 571.315 257.766 571.016C258.15 570.707 258.342 570.275 258.342 569.72C258.342 569.165 258.15 568.739 257.766 568.44C257.382 568.131 256.88 567.976 256.262 567.976C255.632 567.976 255.126 568.131 254.742 568.44C254.358 568.739 254.166 569.165 254.166 569.72C254.166 570.275 254.358 570.707 254.742 571.016C255.126 571.315 255.632 571.464 256.262 571.464ZM263.694 571.24H268.654V573H261.854V561.8H268.574V563.56H263.694V566.472H268.174V568.216H263.694V571.24ZM275.987 567.176C277.085 567.784 277.635 568.691 277.635 569.896C277.635 570.92 277.277 571.731 276.563 572.328C275.848 572.915 274.899 573.208 273.715 573.208C272.531 573.208 271.576 572.915 270.851 572.328C270.136 571.731 269.779 570.92 269.779 569.896C269.779 569.32 269.923 568.797 270.211 568.328C270.499 567.848 270.904 567.464 271.427 567.176C270.584 566.621 270.163 565.832 270.163 564.808C270.163 563.784 270.504 562.995 271.187 562.44C271.869 561.875 272.712 561.592 273.715 561.592C274.707 561.592 275.544 561.875 276.227 562.44C276.92 562.995 277.267 563.784 277.267 564.808C277.267 565.832 276.84 566.621 275.987 567.176ZM273.715 563.336C273.213 563.336 272.803 563.469 272.483 563.736C272.163 564.003 272.003 564.387 272.003 564.888C272.003 565.368 272.163 565.747 272.483 566.024C272.813 566.301 273.224 566.44 273.715 566.44C274.195 566.44 274.6 566.301 274.931 566.024C275.261 565.747 275.427 565.368 275.427 564.888C275.427 564.387 275.261 564.003 274.931 563.736C274.611 563.469 274.205 563.336 273.715 563.336ZM273.715 571.464C274.333 571.464 274.835 571.315 275.219 571.016C275.603 570.707 275.795 570.275 275.795 569.72C275.795 569.165 275.603 568.739 275.219 568.44C274.835 568.131 274.333 567.976 273.715 567.976C273.085 567.976 272.579 568.131 272.195 568.44C271.811 568.739 271.619 569.165 271.619 569.72C271.619 570.275 271.811 570.707 272.195 571.016C272.579 571.315 273.085 571.464 273.715 571.464ZM281.148 571.24H286.108V573H279.308V561.8H286.028V563.56H281.148V566.472H285.628V568.216H281.148V571.24ZM293.44 567.176C294.539 567.784 295.088 568.691 295.088 569.896C295.088 570.92 294.731 571.731 294.016 572.328C293.301 572.915 292.352 573.208 291.168 573.208C289.984 573.208 289.029 572.915 288.304 572.328C287.589 571.731 287.232 570.92 287.232 569.896C287.232 569.32 287.376 568.797 287.664 568.328C287.952 567.848 288.357 567.464 288.88 567.176C288.037 566.621 287.616 565.832 287.616 564.808C287.616 563.784 287.957 562.995 288.64 562.44C289.323 561.875 290.165 561.592 291.168 561.592C292.16 561.592 292.997 561.875 293.68 562.44C294.373 562.995 294.72 563.784 294.72 564.808C294.72 565.832 294.293 566.621 293.44 567.176ZM291.168 563.336C290.667 563.336 290.256 563.469 289.936 563.736C289.616 564.003 289.456 564.387 289.456 564.888C289.456 565.368 289.616 565.747 289.936 566.024C290.267 566.301 290.677 566.44 291.168 566.44C291.648 566.44 292.053 566.301 292.384 566.024C292.715 565.747 292.88 565.368 292.88 564.888C292.88 564.387 292.715 564.003 292.384 563.736C292.064 563.469 291.659 563.336 291.168 563.336ZM291.168 571.464C291.787 571.464 292.288 571.315 292.672 571.016C293.056 570.707 293.248 570.275 293.248 569.72C293.248 569.165 293.056 568.739 292.672 568.44C292.288 568.131 291.787 567.976 291.168 567.976C290.539 567.976 290.032 568.131 289.648 568.44C289.264 568.739 289.072 569.165 289.072 569.72C289.072 570.275 289.264 570.707 289.648 571.016C290.032 571.315 290.539 571.464 291.168 571.464ZM298.601 571.24H303.561V573H296.761V561.8H303.481V563.56H298.601V566.472H303.081V568.216H298.601V571.24Z" fill="white"/>
<rect width="98.3333" height="80" transform="translate(20 590)" fill="#CCCCCC"/>
<path d="M37.47 646.6H35.678L35.422 648.2H37.214L37.006 649.56H35.198L34.75 652.2H33.326L33.774 649.56H31.982L31.534 652.2H30.11L30.558 649.56H28.734L28.958 648.2H30.782L31.038 646.6H29.214L29.438 645.24H31.278L31.71 642.6H33.134L32.702 645.24H34.494L34.926 642.6H36.35L35.918 645.24H37.694L37.47 646.6ZM33.998 648.2L34.254 646.6H32.462L32.206 648.2H33.998ZM44.5156 653.208C42.8303 653.208 41.4329 652.653 40.3236 651.544C39.2143 650.424 38.6596 649.043 38.6596 647.4C38.6596 645.757 39.2143 644.381 40.3236 643.272C41.4329 642.152 42.8303 641.592 44.5156 641.592C45.5289 641.592 46.4623 641.832 47.3156 642.312C48.1796 642.792 48.8516 643.443 49.3316 644.264L47.7316 645.192C47.4329 644.637 46.9956 644.2 46.4196 643.88C45.8543 643.549 45.2196 643.384 44.5156 643.384C43.3209 643.384 42.3503 643.763 41.6036 644.52C40.8676 645.277 40.4996 646.237 40.4996 647.4C40.4996 648.563 40.8676 649.523 41.6036 650.28C42.3503 651.037 43.3209 651.416 44.5156 651.416C45.2196 651.416 45.8596 651.256 46.4356 650.936C47.0116 650.605 47.4436 650.163 47.7316 649.608L49.3316 650.52C48.8623 651.341 48.1956 651.997 47.3316 652.488C46.4783 652.968 45.5396 653.208 44.5156 653.208ZM56.0781 653.208C54.3928 653.208 52.9954 652.653 51.8861 651.544C50.7768 650.424 50.2221 649.043 50.2221 647.4C50.2221 645.757 50.7768 644.381 51.8861 643.272C52.9954 642.152 54.3928 641.592 56.0781 641.592C57.0914 641.592 58.0248 641.832 58.8781 642.312C59.7421 642.792 60.4141 643.443 60.8941 644.264L59.2941 645.192C58.9954 644.637 58.5581 644.2 57.9821 643.88C57.4168 643.549 56.7821 643.384 56.0781 643.384C54.8834 643.384 53.9128 643.763 53.1661 644.52C52.4301 645.277 52.0621 646.237 52.0621 647.4C52.0621 648.563 52.4301 649.523 53.1661 650.28C53.9128 651.037 54.8834 651.416 56.0781 651.416C56.7821 651.416 57.4221 651.256 57.9981 650.936C58.5741 650.605 59.0061 650.163 59.2941 649.608L60.8941 650.52C60.4248 651.341 59.7581 651.997 58.8941 652.488C58.0408 652.968 57.1021 653.208 56.0781 653.208ZM67.6406 653.208C65.9553 653.208 64.5579 652.653 63.4486 651.544C62.3393 650.424 61.7846 649.043 61.7846 647.4C61.7846 645.757 62.3393 644.381 63.4486 643.272C64.5579 642.152 65.9553 641.592 67.6406 641.592C68.6539 641.592 69.5873 641.832 70.4406 642.312C71.3046 642.792 71.9766 643.443 72.4566 644.264L70.8566 645.192C70.5579 644.637 70.1206 644.2 69.5446 643.88C68.9793 643.549 68.3446 643.384 67.6406 643.384C66.4459 643.384 65.4753 643.763 64.7286 644.52C63.9926 645.277 63.6246 646.237 63.6246 647.4C63.6246 648.563 63.9926 649.523 64.7286 650.28C65.4753 651.037 66.4459 651.416 67.6406 651.416C68.3446 651.416 68.9846 651.256 69.5606 650.936C70.1366 650.605 70.5686 650.163 70.8566 649.608L72.4566 650.52C71.9873 651.341 71.3206 651.997 70.4566 652.488C69.6033 652.968 68.6646 653.208 67.6406 653.208ZM79.2031 653.208C77.5178 653.208 76.1204 652.653 75.0111 651.544C73.9018 650.424 73.3471 649.043 73.3471 647.4C73.3471 645.757 73.9018 644.381 75.0111 643.272C76.1204 642.152 77.5178 641.592 79.2031 641.592C80.2164 641.592 81.1498 641.832 82.0031 642.312C82.8671 642.792 83.5391 643.443 84.0191 644.264L82.4191 645.192C82.1204 644.637 81.6831 644.2 81.1071 643.88C80.5418 643.549 79.9071 643.384 79.2031 643.384C78.0084 643.384 77.0378 643.763 76.2911 644.52C75.5551 645.277 75.1871 646.237 75.1871 647.4C75.1871 648.563 75.5551 649.523 76.2911 650.28C77.0378 651.037 78.0084 651.416 79.2031 651.416C79.9071 651.416 80.5471 651.256 81.1231 650.936C81.6991 650.605 82.1311 650.163 82.4191 649.608L84.0191 650.52C83.5498 651.341 82.8831 651.997 82.0191 652.488C81.1658 652.968 80.2271 653.208 79.2031 653.208ZM90.7656 653.208C89.0803 653.208 87.6829 652.653 86.5736 651.544C85.4643 650.424 84.9096 649.043 84.9096 647.4C84.9096 645.757 85.4643 644.381 86.5736 643.272C87.6829 642.152 89.0803 641.592 90.7656 641.592C91.7789 641.592 92.7123 641.832 93.5656 642.312C94.4296 642.792 95.1016 643.443 95.5816 644.264L93.9816 645.192C93.6829 644.637 93.2456 644.2 92.6696 643.88C92.1043 643.549 91.4696 643.384 90.7656 643.384C89.5709 643.384 88.6003 643.763 87.8536 644.52C87.1176 645.277 86.7496 646.237 86.7496 647.4C86.7496 648.563 87.1176 649.523 87.8536 650.28C88.6003 651.037 89.5709 651.416 90.7656 651.416C91.4696 651.416 92.1096 651.256 92.6856 650.936C93.2616 650.605 93.6936 650.163 93.9816 649.608L95.5816 650.52C95.1123 651.341 94.4456 651.997 93.5816 652.488C92.7283 652.968 91.7896 653.208 90.7656 653.208ZM102.328 653.208C100.643 653.208 99.2454 652.653 98.1361 651.544C97.0268 650.424 96.4721 649.043 96.4721 647.4C96.4721 645.757 97.0268 644.381 98.1361 643.272C99.2454 642.152 100.643 641.592 102.328 641.592C103.341 641.592 104.275 641.832 105.128 642.312C105.992 642.792 106.664 643.443 107.144 644.264L105.544 645.192C105.245 644.637 104.808 644.2 104.232 643.88C103.667 643.549 103.032 643.384 102.328 643.384C101.133 643.384 100.163 643.763 99.4161 644.52C98.6801 645.277 98.3121 646.237 98.3121 647.4C98.3121 648.563 98.6801 649.523 99.4161 650.28C100.163 651.037 101.133 651.416 102.328 651.416C103.032 651.416 103.672 651.256 104.248 650.936C104.824 650.605 105.256 650.163 105.544 649.608L107.144 650.52C106.675 651.341 106.008 651.997 105.144 652.488C104.291 652.968 103.352 653.208 102.328 653.208Z" fill="#8E8E8E"/>
<rect width="98.3333" height="80" transform="translate(118.334 590)" fill="#EAEAEA"/>
<path d="M147.804 646.6H146.012L145.756 648.2H147.548L147.34 649.56H145.532L145.084 652.2H143.66L144.108 649.56H142.316L141.868 652.2H140.444L140.892 649.56H139.068L139.292 648.2H141.116L141.372 646.6H139.548L139.772 645.24H141.612L142.044 642.6H143.468L143.036 645.24H144.828L145.26 642.6H146.684L146.252 645.24H148.028L147.804 646.6ZM144.332 648.2L144.588 646.6H142.796L142.54 648.2H144.332ZM151.394 651.24H156.354V653H149.554V641.8H156.274V643.56H151.394V646.472H155.874V648.216H151.394V651.24ZM165.49 653L164.706 650.744H159.938L159.154 653H157.154L161.218 641.8H163.426L167.474 653H165.49ZM160.546 649.016H164.098L162.322 643.96L160.546 649.016ZM170.519 651.24H175.479V653H168.679V641.8H175.399V643.56H170.519V646.472H174.999V648.216H170.519V651.24ZM184.615 653L183.831 650.744H179.063L178.279 653H176.279L180.343 641.8H182.551L186.599 653H184.615ZM179.671 649.016H183.223L181.447 643.96L179.671 649.016ZM189.644 651.24H194.604V653H187.804V641.8H194.524V643.56H189.644V646.472H194.124V648.216H189.644V651.24ZM203.74 653L202.956 650.744H198.188L197.404 653H195.404L199.468 641.8H201.676L205.724 653H203.74ZM198.796 649.016H202.348L200.572 643.96L198.796 649.016Z" fill="#8E8E8E"/>
<rect x="217.166" y="590.5" width="97.3333" height="79" fill="#F9F9FB"/>
<path d="M252.136 646.6H250.344L250.088 648.2H251.88L251.672 649.56H249.864L249.416 652.2H247.992L248.44 649.56H246.648L246.2 652.2H244.776L245.224 649.56H243.4L243.624 648.2H245.448L245.704 646.6H243.88L244.104 645.24H245.944L246.376 642.6H247.8L247.368 645.24H249.16L249.592 642.6H251.016L250.584 645.24H252.36L252.136 646.6ZM248.664 648.2L248.92 646.6H247.128L246.872 648.2H248.664ZM260.446 643.56H255.726V646.696H260.286V648.456H255.726V653H253.886V641.8H260.446V643.56ZM269.367 645.416C269.367 646.269 269.143 647.021 268.695 647.672L265.159 653H263.047L265.607 649.24H265.415C264.252 649.24 263.298 648.888 262.551 648.184C261.815 647.469 261.447 646.547 261.447 645.416C261.447 644.285 261.815 643.368 262.551 642.664C263.298 641.949 264.252 641.592 265.415 641.592C266.578 641.592 267.527 641.949 268.263 642.664C268.999 643.368 269.367 644.285 269.367 645.416ZM263.287 645.416C263.287 646.035 263.484 646.536 263.879 646.92C264.284 647.304 264.796 647.496 265.415 647.496C266.034 647.496 266.54 647.309 266.935 646.936C267.33 646.552 267.527 646.045 267.527 645.416C267.527 644.787 267.33 644.285 266.935 643.912C266.54 643.528 266.034 643.336 265.415 643.336C264.796 643.336 264.284 643.528 263.879 643.912C263.484 644.285 263.287 644.787 263.287 645.416ZM277.446 643.56H272.726V646.696H277.286V648.456H272.726V653H270.886V641.8H277.446V643.56ZM286.367 645.416C286.367 646.269 286.143 647.021 285.695 647.672L282.159 653H280.047L282.607 649.24H282.415C281.252 649.24 280.298 648.888 279.551 648.184C278.815 647.469 278.447 646.547 278.447 645.416C278.447 644.285 278.815 643.368 279.551 642.664C280.298 641.949 281.252 641.592 282.415 641.592C283.578 641.592 284.527 641.949 285.263 642.664C285.999 643.368 286.367 644.285 286.367 645.416ZM280.287 645.416C280.287 646.035 280.484 646.536 280.879 646.92C281.284 647.304 281.796 647.496 282.415 647.496C283.034 647.496 283.54 647.309 283.935 646.936C284.33 646.552 284.527 646.045 284.527 645.416C284.527 644.787 284.33 644.285 283.935 643.912C283.54 643.528 283.034 643.336 282.415 643.336C281.796 643.336 281.284 643.528 280.879 643.912C280.484 644.285 280.287 644.787 280.287 645.416ZM294.446 643.56H289.726V646.696H294.286V648.456H289.726V653H287.886V641.8H294.446V643.56ZM302.759 647.192C303.25 647.448 303.634 647.8 303.911 648.248C304.188 648.696 304.327 649.213 304.327 649.8C304.327 650.717 304.002 651.48 303.351 652.088C302.7 652.696 301.906 653 300.967 653H296.167V641.8H300.615C301.532 641.8 302.306 642.099 302.935 642.696C303.575 643.283 303.895 644.019 303.895 644.904C303.895 645.875 303.516 646.637 302.759 647.192ZM300.615 643.528H298.007V646.472H300.615C301.02 646.472 301.362 646.333 301.639 646.056C301.916 645.768 302.055 645.416 302.055 645C302.055 644.584 301.916 644.237 301.639 643.96C301.362 643.672 301.02 643.528 300.615 643.528ZM300.967 651.272C301.394 651.272 301.751 651.123 302.039 650.824C302.338 650.515 302.487 650.141 302.487 649.704C302.487 649.267 302.338 648.899 302.039 648.6C301.751 648.291 301.394 648.136 300.967 648.136H298.007V651.272H300.967Z" fill="#8E8E8E"/>
<rect x="217.166" y="590.5" width="97.3333" height="79" stroke="#EAEAEA"/>
</svg>
