<svg width="335" height="700" viewBox="0 0 335 700" fill="none" xmlns="http://www.w3.org/2000/svg">
<g clip-path="url(#clip0_499_4035)">
<rect width="335" height="700" fill="white"/>
<rect x="-135" y="350" width="645" height="350" fill="#011627"/>
<path d="M159.05 194.172C158.388 188.394 156.598 182.803 153.782 177.718C150.967 172.632 147.181 168.152 142.641 164.534C138.101 160.915 132.896 158.228 127.323 156.627C121.749 155.026 115.917 154.542 110.159 155.202C104.401 155.862 98.83 157.654 93.7638 160.475C88.6976 163.296 84.2355 167.091 80.6324 171.643C77.0293 176.196 74.3557 181.416 72.7642 187.007C71.1727 192.598 70.6946 198.449 71.357 204.227L115.204 199.199L159.05 194.172Z" fill="#FFE6E2"/>
<path d="M62.8699 215.789C61.2376 217.975 58.9375 219.604 56.2974 220.444C53.6574 221.284 50.812 221.292 48.1667 220.468C45.5215 219.643 43.2113 218.028 41.5653 215.852C39.9194 213.676 39.0216 211.051 39 208.35H62.0789C62.1804 210.843 62.4446 213.328 62.8699 215.789Z" fill="#01534F"/>
<path d="M202.905 208.35C202.885 211.065 201.982 213.703 200.327 215.886C198.673 218.068 196.351 219.681 193.697 220.493C191.043 221.305 188.193 221.274 185.558 220.404C182.923 219.534 180.639 217.87 179.035 215.652C179.444 213.236 179.698 210.797 179.797 208.35H202.905Z" fill="#01534F"/>
<path d="M170.58 208.35C171.219 208.35 171.85 208.488 172.431 208.756C173.013 209.024 173.531 209.414 173.952 209.902C174.373 210.389 174.686 210.962 174.87 211.582C175.055 212.202 175.106 212.855 175.022 213.496C173.219 226.629 166.794 238.657 156.93 247.363C147.067 256.068 134.431 260.863 121.354 260.863C108.277 260.863 95.6417 256.068 85.7782 247.363C75.9148 238.657 69.4892 226.629 67.6868 213.496C67.6012 212.854 67.6522 212.201 67.8363 211.581C68.0204 210.96 68.3333 210.387 68.7541 209.9C69.1748 209.412 69.6937 209.021 70.2757 208.754C70.8577 208.487 71.4895 208.349 72.1284 208.35C73.2163 208.356 74.2653 208.76 75.0818 209.489C75.8982 210.218 76.4268 211.222 76.5701 212.316C78.0863 223.262 83.4521 233.284 91.6795 240.536C99.9068 247.789 110.441 251.782 121.343 251.782C132.245 251.782 142.78 247.789 151.007 240.536C159.234 233.284 164.6 223.262 166.116 212.316C166.26 211.222 166.788 210.218 167.605 209.489C168.421 208.76 169.47 208.356 170.558 208.35H170.58Z" fill="#01534F"/>
<path d="M127.317 142.455C127.317 142.488 127.317 142.52 127.317 142.552C118.552 141.625 109.689 142.628 101.351 145.492C101.264 145.085 101.196 144.665 101.148 144.242C100.943 142.475 101.099 140.684 101.605 138.979C102.111 137.273 102.958 135.689 104.094 134.321C105.229 132.953 106.631 131.83 108.212 131.02C109.794 130.21 111.524 129.73 113.296 129.609C115.068 129.488 116.847 129.729 118.524 130.316C120.2 130.903 121.741 131.826 123.051 133.027C124.362 134.228 125.416 135.683 126.148 137.303C126.881 138.924 127.278 140.677 127.314 142.455H127.317Z" fill="#FF6857"/>
<path d="M88.9165 186.168C88.6502 186.773 88.1532 187.248 87.5347 187.49C86.9161 187.731 86.2264 187.719 85.617 187.455L84.2715 186.875C83.764 186.656 83.3436 186.277 83.0757 185.796C82.8077 185.314 82.7072 184.759 82.7899 184.215C82.8725 183.671 83.1337 183.169 83.5326 182.788C83.9316 182.407 84.4461 182.168 84.996 182.108C85.4319 182.06 85.8728 182.126 86.2757 182.298L87.6212 182.881C87.9234 183.012 88.1967 183.201 88.4254 183.437C88.6541 183.674 88.8338 183.952 88.9541 184.257C89.0744 184.563 89.133 184.888 89.1266 185.216C89.1201 185.544 89.0487 185.867 88.9165 186.168Z" fill="#FF6857"/>
<path d="M96.7965 172.264L95.9807 171.07C95.7899 170.802 95.6505 170.495 95.5705 170.168C95.4904 169.841 95.4715 169.5 95.5148 169.165C95.5581 168.83 95.6628 168.507 95.8226 168.217C95.9824 167.926 96.1942 167.673 96.4456 167.472C96.697 167.271 96.9829 167.126 97.2865 167.046C97.5902 166.967 97.9055 166.953 98.2139 167.007C98.5224 167.061 98.8178 167.181 99.0828 167.36C99.3479 167.54 99.5772 167.774 99.7575 168.051L100.573 169.245C100.764 169.513 100.904 169.82 100.984 170.147C101.064 170.474 101.082 170.815 101.039 171.15C100.996 171.485 100.891 171.808 100.731 172.098C100.572 172.389 100.36 172.642 100.108 172.843C99.857 173.044 99.5712 173.189 99.2675 173.269C98.9639 173.348 98.6486 173.362 98.3401 173.308C98.0317 173.254 97.7363 173.134 97.4712 172.955C97.2061 172.775 96.9768 172.541 96.7965 172.264Z" fill="#FF6857"/>
<path d="M116.968 166.164C116.617 166.201 116.26 166.173 115.92 166.084C115.58 165.994 115.262 165.844 114.986 165.642C114.709 165.44 114.478 165.191 114.307 164.907C114.135 164.624 114.026 164.312 113.987 163.99L113.808 162.559C113.768 162.237 113.798 161.911 113.896 161.6C113.994 161.289 114.158 160.998 114.378 160.744C114.599 160.491 114.872 160.28 115.181 160.123C115.491 159.966 115.832 159.867 116.183 159.83C116.535 159.794 116.891 159.821 117.231 159.911C117.572 160 117.889 160.15 118.166 160.352C118.443 160.554 118.674 160.804 118.845 161.087C119.016 161.371 119.125 161.682 119.165 162.004L119.344 163.435C119.383 163.757 119.354 164.083 119.256 164.394C119.158 164.706 118.994 164.996 118.774 165.25C118.553 165.503 118.28 165.714 117.97 165.871C117.661 166.028 117.32 166.128 116.968 166.164Z" fill="#FF6857"/>
<path d="M135.044 175.04C135.154 175.16 135.228 175.306 135.259 175.464C135.29 175.622 135.278 175.785 135.223 175.937L132.518 183.508L127.408 197.823C127.349 197.982 127.246 198.122 127.11 198.226C126.975 198.33 126.812 198.394 126.64 198.412L108.874 200.387C108.69 200.408 108.503 200.373 108.339 200.288L104.376 198.24L97.5908 194.741C97.4615 194.674 97.3508 194.576 97.2684 194.458C97.186 194.339 97.1343 194.203 97.118 194.06C97.0133 193.16 97.1515 192.25 97.5187 191.419C97.886 190.589 98.4693 189.868 99.2101 189.329C99.3282 189.24 99.4665 189.181 99.6131 189.156C99.7598 189.131 99.9104 189.141 100.052 189.186L107.271 191.674L118.622 195.587L126.495 180.915L130.54 173.373H130.559C131.388 173.281 132.227 173.384 133.007 173.674C133.787 173.964 134.485 174.432 135.044 175.04Z" fill="#FF6857"/>
<path d="M139.239 164.432C139.289 164.869 139.222 165.312 139.046 165.715L138.463 167.06C138.333 167.362 138.144 167.635 137.908 167.864C137.673 168.092 137.395 168.272 137.09 168.393C136.786 168.513 136.46 168.572 136.133 168.566C135.806 168.56 135.483 168.489 135.183 168.358C134.883 168.226 134.611 168.036 134.384 167.799C134.157 167.562 133.978 167.282 133.858 166.976C133.739 166.669 133.68 166.342 133.686 166.013C133.692 165.683 133.762 165.358 133.893 165.056L134.476 163.711C134.694 163.204 135.073 162.784 135.554 162.516C136.034 162.248 136.589 162.147 137.133 162.229C137.676 162.311 138.177 162.572 138.558 162.97C138.939 163.369 139.178 163.883 139.239 164.432Z" fill="#FF6857"/>
<path d="M154.661 175.894C154.863 176.145 155.008 176.43 155.09 176.732C155.172 177.034 155.188 177.349 155.138 177.657C155.087 177.965 154.972 178.261 154.797 178.528C154.623 178.795 154.393 179.027 154.12 179.213L152.909 180.037C152.36 180.411 151.671 180.568 150.995 180.475C150.319 180.382 149.711 180.045 149.305 179.539C148.899 179.033 148.728 178.399 148.829 177.776C148.931 177.154 149.297 176.595 149.846 176.221L151.057 175.396C151.33 175.211 151.639 175.077 151.967 175.002C152.296 174.927 152.637 174.912 152.972 174.958C153.306 175.004 153.628 175.111 153.918 175.271C154.208 175.432 154.46 175.644 154.661 175.894Z" fill="#FF6857"/>
<path d="M169.494 193.139C168.414 193.26 167.328 192.98 166.436 192.351C165.544 191.722 164.907 190.787 164.641 189.719C161.926 179.034 155.494 169.703 146.53 163.445C137.566 157.187 126.674 154.423 115.859 155.662C105.044 156.902 95.0354 162.061 87.6753 170.189C80.3153 178.318 76.0997 188.869 75.805 199.9C75.784 201.002 75.3697 202.059 74.6388 202.876C73.908 203.693 72.91 204.213 71.8297 204.341C71.1971 204.415 70.556 204.352 69.9496 204.154C69.3432 203.956 68.7855 203.63 68.3139 203.196C67.8423 202.762 67.4678 202.23 67.2153 201.638C66.9629 201.045 66.8385 200.404 66.8504 199.758C67.1777 186.52 72.2183 173.849 81.0413 164.084C89.8643 154.32 101.874 148.122 114.853 146.635C127.831 145.147 140.903 148.471 151.653 155.993C162.403 163.514 170.106 174.725 173.339 187.555C173.491 188.181 173.509 188.832 173.393 189.466C173.276 190.1 173.028 190.701 172.664 191.23C172.3 191.758 171.829 192.202 171.282 192.532C170.736 192.861 170.126 193.068 169.494 193.139Z" fill="#FF6857"/>
<path d="M199.096 194.098C199.096 197.126 197.07 199.597 193.871 199.597C186.227 199.597 183.812 169.399 183.812 162.626C183.812 158.007 183.966 142.31 190.437 142.31C193.796 142.31 194.726 145.258 195.196 148.03C199.093 145.323 200.731 143.011 205.956 143.011C213.988 143.011 218.822 151.219 218.822 158.709C218.822 168.507 212.973 174.563 203.381 174.563C200.911 174.563 198.457 174.16 196.111 173.37C196.827 179.918 199.096 187.481 199.096 194.098ZM205.329 153.465C202.131 153.465 198.156 160.238 197.376 162.786C206.811 171.55 211.644 153.465 205.329 153.465Z" fill="#FF6857"/>
<path d="M222.976 156.712C223.209 149.932 222.028 143.111 222.252 136.461C222.322 134.46 223.588 132.693 225.935 132.764C233.293 132.995 233.266 158.2 233.099 163.168C232.96 167.302 233.099 175.126 226.791 174.928C222.233 174.783 221.904 170.575 222.02 167.153C222.136 163.731 222.86 160.212 222.976 156.712Z" fill="#FF6857"/>
<path d="M245.167 174.932C239.758 174.932 237.121 169.611 237.121 164.727C237.121 156.366 245.616 146.288 254.048 146.288C255.906 146.288 257.781 146.88 259.713 146.88C264.798 146.88 263.383 153.398 263.383 156.762C263.383 162.029 265.764 168.087 265.764 169.999C265.774 170.376 265.709 170.752 265.574 171.103C265.439 171.455 265.237 171.775 264.979 172.045C264.72 172.315 264.412 172.529 264.072 172.675C263.731 172.821 263.366 172.896 262.997 172.894C260.423 172.894 257.462 168.418 256.311 166.308C253.465 169.93 250.312 174.932 245.167 174.932ZM253.71 154.717C253.001 153.531 244.762 156.237 244.762 165.845C244.75 166.131 244.802 166.417 244.913 166.68C245.024 166.943 245.192 167.177 245.405 167.365C248.959 166.175 253.71 158.403 253.71 154.717Z" fill="#FF6857"/>
<path d="M287.845 147.436C295.855 147.436 296 161.337 296 166.784C296 169.581 295.617 172.817 291.999 172.817C287.845 172.817 286.587 166.124 286.14 161.056C285.696 155.1 283.619 156.124 280.949 160.616C277.687 165.984 277.687 173.34 273.537 173.34C268.947 173.34 268.947 164.88 268.947 161.72C268.947 157.896 269.54 147.083 274.803 147.083C276.956 147.083 278.364 149.143 278.586 150.983C281.099 149.857 285.103 147.436 287.845 147.436Z" fill="#FF6857"/>
<path d="M215.51 179.706C217.926 179.706 221.379 181.566 221.379 184.075C221.379 185.411 220.537 187.253 218.887 187.253C217.238 187.253 216.776 185.664 215.087 185.664C212.714 185.664 211.71 189.058 211.71 190.874C211.71 192.281 212.631 194.223 214.395 194.223C217.005 194.223 218.235 190.398 220.651 190.398C221.233 190.421 221.782 190.656 222.183 191.053C222.583 191.45 222.804 191.979 222.799 192.526C222.799 196.717 218.504 199.597 214.395 199.597C209.483 199.597 206.09 195.191 206.09 190.896C206.07 186.062 209.716 179.706 215.51 179.706Z" fill="#01534F"/>
<path d="M225.186 191.003C225.186 187.27 227.351 182.093 231.685 182.093C235.39 182.093 238.712 185.719 238.712 189.383C238.712 193.501 235.39 198.006 231.022 198.006C227.074 197.995 225.186 194.629 225.186 191.003ZM232.14 186.601C230.623 186.601 229.763 189.134 229.763 190.33C229.763 191.526 230.043 193.819 231.442 193.819C233.361 193.819 235.041 191.633 235.041 189.769C235.041 188.5 233.433 186.601 232.14 186.601Z" fill="#01534F"/>
<path d="M247.128 182.093C249.08 182.093 251.875 183.638 251.875 185.761C251.875 186.883 251.191 188.432 249.856 188.432C248.521 188.432 248.151 187.096 246.784 187.096C244.864 187.096 244.052 189.947 244.052 191.462C244.052 192.646 244.797 194.283 246.222 194.283C248.334 194.283 249.326 191.069 251.297 191.069C251.767 191.089 252.212 191.287 252.536 191.621C252.86 191.955 253.039 192.399 253.034 192.859C253.034 196.378 249.56 198.802 246.238 198.802C242.268 198.802 239.508 195.103 239.508 191.493C239.496 187.428 242.443 182.093 247.128 182.093Z" fill="#01534F"/>
<path d="M257.861 183.742C259.329 183.467 260.758 184.21 260.96 185.192C261.001 185.531 261.001 185.873 260.96 186.211C260.104 189.737 260.797 193.277 259.856 196.624C259.736 197.29 259.205 197.799 258.307 197.959C255.902 198.387 255.166 195.784 254.879 194.296C254.434 192.206 254.147 184.445 257.861 183.742Z" fill="#01534F"/>
<path d="M273.705 182.315C278.41 182.315 278.495 190.741 278.495 194.037C278.495 195.732 278.278 197.693 276.145 197.693C273.705 197.693 272.961 193.637 272.702 190.562C272.438 186.95 271.218 187.575 269.65 190.293C267.713 193.545 267.713 198.006 265.293 198.006C262.582 198.006 262.582 192.88 262.582 190.963C262.582 188.645 262.931 182.093 266.021 182.093C267.287 182.093 268.112 183.341 268.244 184.47C269.754 183.78 272.078 182.315 273.705 182.315Z" fill="#01534F"/>
<path d="M283.758 198.006C280.749 198.006 279.289 195.04 279.289 192.335C279.289 187.687 284.01 182.093 288.694 182.093C289.728 182.093 290.767 182.42 291.839 182.42C294.664 182.42 293.878 186.044 293.878 187.906C293.878 190.834 295.202 194.201 295.202 195.263C295.207 195.472 295.171 195.681 295.096 195.876C295.021 196.071 294.908 196.249 294.765 196.399C294.621 196.549 294.45 196.668 294.261 196.749C294.071 196.83 293.868 196.872 293.663 196.871C292.234 196.871 290.59 194.382 289.943 193.212C288.374 195.224 286.621 198.006 283.758 198.006ZM288.517 186.775C288.141 186.117 283.544 187.614 283.544 192.958C283.54 193.118 283.572 193.277 283.637 193.422C283.703 193.567 283.799 193.695 283.92 193.797C285.872 193.139 288.517 188.814 288.517 186.775Z" fill="#01534F"/>
<path d="M134.134 124.387C133.724 126.123 132.94 127.76 131.83 129.196L131.688 129.379C131.671 129.405 131.651 129.427 131.63 129.453L131.586 129.498C131.181 129.93 130.636 130.222 130.035 130.329C129.435 130.436 128.814 130.352 128.271 130.089C127.727 129.826 127.291 129.4 127.032 128.877C126.772 128.355 126.704 127.765 126.837 127.202C126.904 126.92 127.018 126.651 127.176 126.404C127.271 126.288 127.366 126.17 127.458 126.051C128.44 124.73 128.97 123.155 128.975 121.54C128.98 119.925 128.46 118.348 127.485 117.021C127.291 116.76 127.081 116.511 126.854 116.274C125.175 114.135 124.228 111.562 124.14 108.899C124.116 108.101 124.172 107.302 124.306 106.514C124.337 106.34 124.371 106.167 124.405 105.991C124.599 105.365 125.035 104.831 125.626 104.493C126.217 104.156 126.92 104.04 127.597 104.168C128.274 104.297 128.875 104.66 129.283 105.187C129.69 105.713 129.874 106.365 129.798 107.014C129.774 107.109 129.756 107.205 129.744 107.302C129.417 109.295 129.919 111.331 131.145 112.981C131.343 113.252 131.561 113.509 131.797 113.751C132.971 115.257 133.788 116.985 134.191 118.816C134.594 120.648 134.573 122.541 134.13 124.364L134.134 124.387Z" fill="#01534F"/>
<path d="M116.636 117.41C116.225 119.093 115.44 120.681 114.331 122.075C114.284 122.137 114.236 122.193 114.189 122.252L114.131 122.324L114.087 122.371C113.68 122.787 113.134 123.069 112.534 123.171C111.934 123.273 111.314 123.191 110.771 122.936C110.228 122.681 109.792 122.268 109.532 121.763C109.272 121.257 109.202 120.687 109.334 120.141C109.401 119.868 109.515 119.606 109.673 119.366C109.768 119.255 109.864 119.139 109.952 119.024C110.938 117.745 111.47 116.218 111.475 114.652C111.481 113.085 110.959 111.556 109.982 110.27C109.79 110.016 109.579 109.774 109.351 109.546C107.672 107.47 106.724 104.975 106.635 102.393C106.615 101.619 106.67 100.845 106.801 100.079C106.828 99.9084 106.866 99.7405 106.9 99.5694C107.095 98.9623 107.531 98.4442 108.122 98.117C108.713 97.7898 109.417 97.6774 110.094 97.8019C110.772 97.9264 111.374 98.2787 111.781 98.7895C112.189 99.3003 112.373 99.9325 112.298 100.561C112.274 100.655 112.254 100.748 112.24 100.841C111.912 102.774 112.415 104.748 113.642 106.349C113.84 106.61 114.057 106.86 114.291 107.095C115.466 108.556 116.284 110.231 116.687 112.008C117.09 113.785 117.069 115.62 116.626 117.389L116.636 117.41Z" fill="#01534F"/>
<path d="M121.686 92.0836C121.567 92.5599 121.298 92.9951 120.913 93.3371C120.528 93.6792 120.042 93.9137 119.513 94.0127C119.382 94.0127 119.25 94.0409 119.122 94.0597C118.651 94.1253 118.188 94.2302 117.738 94.3728C117.661 94.3906 117.586 94.4136 117.513 94.4417C117.504 94.4386 117.494 94.4386 117.485 94.4417C116.797 94.6468 116.049 94.6041 115.395 94.3224C114.741 94.0408 114.233 93.5419 113.975 92.9296C113.718 92.3173 113.731 91.6386 114.012 91.0348C114.293 90.4311 114.821 89.9486 115.485 89.6879C115.672 89.6221 115.859 89.5657 116.052 89.5094C116.779 89.301 117.523 89.147 118.278 89.049C118.303 89.0463 118.329 89.0463 118.354 89.049L118.717 89.0052C118.985 88.9895 119.255 89.0095 119.517 89.0647C119.878 89.1339 120.221 89.2669 120.526 89.4561C120.831 89.6453 121.091 89.887 121.293 90.1674C121.494 90.4477 121.633 90.7612 121.7 91.09C121.768 91.4188 121.763 91.7564 121.686 92.0836Z" fill="#01534F"/>
<path d="M91.0447 112.477C91.4555 110.744 92.2409 109.108 93.352 107.673L93.4947 107.49L93.5524 107.42C93.5654 107.402 93.5802 107.386 93.5966 107.372C94.0036 106.943 94.5497 106.654 95.1497 106.548C95.7496 106.443 96.3697 106.528 96.913 106.79C97.4563 107.052 97.8923 107.476 98.153 107.996C98.4136 108.516 98.4842 109.103 98.3538 109.665C98.287 109.947 98.1723 110.216 98.014 110.463C97.9188 110.575 97.8237 110.693 97.732 110.812C96.7476 112.132 96.2171 113.704 96.2123 115.318C96.2074 116.931 96.7284 118.507 97.7048 119.832C97.8987 120.093 98.1097 120.342 98.3368 120.578C100.019 122.715 100.968 125.285 101.055 127.945C101.079 128.744 101.023 129.542 100.889 130.331C100.858 130.504 100.824 130.68 100.79 130.857C100.603 131.49 100.169 132.032 99.5748 132.376C98.9808 132.72 98.2708 132.84 97.5873 132.711C96.9038 132.582 96.2972 132.214 95.8892 131.681C95.4812 131.149 95.3019 130.49 95.3874 129.838C95.4118 129.742 95.4299 129.645 95.4417 129.547C95.7861 127.543 95.2874 125.492 94.0519 123.829C93.8529 123.559 93.6361 123.301 93.4029 123.057C92.2264 121.552 91.4084 119.826 91.0049 117.995C90.6014 116.165 90.622 114.274 91.0651 112.452L91.0447 112.477Z" fill="#01534F"/>
<path d="M86.0135 137.595C86.1347 137.115 86.4075 136.677 86.7993 136.333C87.191 135.988 87.6852 135.752 88.2227 135.653C88.3564 135.653 88.49 135.628 88.6202 135.609C89.0987 135.551 89.5699 135.451 90.0273 135.313C90.1047 135.291 90.1821 135.268 90.2559 135.24H90.2841C90.9728 135.07 91.7074 135.138 92.3435 135.429C92.9795 135.72 93.4709 136.214 93.7209 136.814C93.971 137.413 93.9617 138.075 93.6948 138.669C93.4278 139.262 92.9227 139.745 92.2786 140.022C92.0887 140.085 91.8952 140.145 91.7017 140.201H91.7193C90.9809 140.412 90.2244 140.568 89.4574 140.668H89.38L89.0107 140.712C88.7381 140.729 88.4644 140.71 88.1981 140.655C87.8299 140.584 87.4811 140.448 87.1719 140.255C86.8626 140.062 86.5989 139.816 86.3959 139.532C86.1929 139.247 86.0546 138.93 85.989 138.597C85.9234 138.265 85.9317 137.924 86.0135 137.595Z" fill="#01534F"/>
<path d="M150.125 230.63C149.046 232.405 147.575 233.899 145.83 234.995C144.084 236.091 142.112 236.758 140.07 236.944C139.79 236.97 139.514 236.987 139.234 236.993C138.839 236.948 138.458 236.813 138.12 236.6C137.661 236.309 137.3 235.883 137.086 235.379C136.871 234.874 136.813 234.315 136.919 233.776C137.025 233.236 137.29 232.743 137.679 232.361C138.067 231.979 138.561 231.727 139.095 231.639C139.273 231.639 139.452 231.639 139.631 231.606C141.319 231.443 142.912 230.737 144.179 229.591C145.446 228.444 146.321 226.916 146.677 225.229C146.716 225.037 146.748 224.842 146.774 224.647C146.838 224.4 146.939 224.165 147.073 223.949C147.381 223.445 147.843 223.057 148.389 222.847C148.935 222.636 149.533 222.615 150.092 222.785C150.651 222.956 151.139 223.309 151.481 223.79C151.823 224.271 152 224.854 151.984 225.448C151.948 225.699 151.906 225.95 151.854 226.205C151.541 227.773 150.956 229.272 150.125 230.63Z" fill="#01534F"/>
<path d="M62.8699 565.789C61.2376 567.975 58.9375 569.604 56.2974 570.444C53.6574 571.284 50.812 571.292 48.1667 570.468C45.5215 569.643 43.2113 568.028 41.5653 565.852C39.9194 563.676 39.0216 561.051 39 558.35H62.0789C62.1804 560.843 62.4446 563.328 62.8699 565.789Z" fill="white"/>
<path d="M202.905 558.35C202.885 561.065 201.982 563.703 200.327 565.886C198.673 568.068 196.351 569.681 193.697 570.493C191.043 571.305 188.193 571.274 185.558 570.404C182.923 569.534 180.639 567.87 179.035 565.652C179.444 563.236 179.698 560.797 179.797 558.35H202.905Z" fill="white"/>
<path d="M170.58 558.35C171.219 558.35 171.85 558.488 172.431 558.756C173.013 559.024 173.531 559.414 173.952 559.902C174.373 560.389 174.686 560.962 174.87 561.582C175.055 562.202 175.106 562.855 175.022 563.496C173.219 576.629 166.794 588.657 156.93 597.363C147.067 606.068 134.431 610.863 121.354 610.863C108.277 610.863 95.6417 606.068 85.7782 597.363C75.9148 588.657 69.4892 576.629 67.6868 563.496C67.6012 562.854 67.6522 562.201 67.8363 561.581C68.0204 560.96 68.3333 560.387 68.7541 559.9C69.1748 559.412 69.6937 559.021 70.2757 558.754C70.8577 558.487 71.4895 558.349 72.1284 558.35C73.2163 558.356 74.2653 558.76 75.0818 559.489C75.8982 560.218 76.4268 561.222 76.5701 562.316C78.0863 573.262 83.4521 583.284 91.6795 590.536C99.9068 597.789 110.441 601.782 121.343 601.782C132.245 601.782 142.78 597.789 151.007 590.536C159.234 583.284 164.6 573.262 166.116 562.316C166.26 561.222 166.788 560.218 167.605 559.489C168.421 558.76 169.47 558.356 170.558 558.35H170.58Z" fill="white"/>
<path d="M127.317 492.455C127.317 492.488 127.317 492.52 127.317 492.552C118.552 491.625 109.689 492.628 101.351 495.492C101.264 495.085 101.196 494.665 101.148 494.242C100.943 492.475 101.099 490.684 101.605 488.979C102.111 487.273 102.958 485.689 104.094 484.321C105.229 482.953 106.631 481.83 108.212 481.02C109.794 480.21 111.524 479.73 113.296 479.609C115.068 479.488 116.847 479.729 118.524 480.316C120.2 480.903 121.741 481.826 123.051 483.027C124.362 484.228 125.416 485.683 126.148 487.303C126.881 488.924 127.278 490.677 127.314 492.455H127.317Z" fill="white"/>
<path d="M88.9165 536.168C88.6502 536.773 88.1532 537.248 87.5347 537.49C86.9161 537.731 86.2264 537.719 85.617 537.455L84.2715 536.875C83.764 536.656 83.3436 536.277 83.0757 535.796C82.8077 535.314 82.7072 534.759 82.7899 534.215C82.8725 533.671 83.1337 533.169 83.5326 532.788C83.9316 532.407 84.4461 532.168 84.996 532.108C85.4319 532.06 85.8728 532.126 86.2757 532.298L87.6212 532.881C87.9234 533.012 88.1967 533.201 88.4254 533.437C88.6541 533.674 88.8338 533.952 88.9541 534.257C89.0744 534.563 89.133 534.888 89.1266 535.216C89.1201 535.544 89.0487 535.867 88.9165 536.168Z" fill="white"/>
<path d="M96.7965 522.264L95.9807 521.07C95.7899 520.802 95.6505 520.495 95.5705 520.168C95.4904 519.841 95.4715 519.5 95.5148 519.165C95.5581 518.83 95.6628 518.507 95.8226 518.217C95.9824 517.926 96.1942 517.673 96.4456 517.472C96.697 517.271 96.9829 517.126 97.2865 517.046C97.5902 516.967 97.9055 516.953 98.2139 517.007C98.5224 517.061 98.8178 517.181 99.0828 517.36C99.3479 517.54 99.5772 517.774 99.7575 518.051L100.573 519.245C100.764 519.513 100.904 519.82 100.984 520.147C101.064 520.474 101.082 520.815 101.039 521.15C100.996 521.485 100.891 521.808 100.731 522.098C100.572 522.389 100.36 522.642 100.108 522.843C99.857 523.044 99.5712 523.189 99.2675 523.269C98.9639 523.348 98.6486 523.362 98.3401 523.308C98.0317 523.254 97.7363 523.134 97.4712 522.955C97.2061 522.775 96.9768 522.541 96.7965 522.264Z" fill="white"/>
<path d="M116.968 516.164C116.617 516.201 116.26 516.173 115.92 516.084C115.58 515.994 115.262 515.844 114.986 515.642C114.709 515.44 114.478 515.191 114.307 514.907C114.135 514.624 114.026 514.312 113.987 513.99L113.808 512.559C113.768 512.237 113.798 511.911 113.896 511.6C113.994 511.289 114.158 510.998 114.378 510.744C114.599 510.491 114.872 510.28 115.181 510.123C115.491 509.966 115.832 509.867 116.183 509.83C116.535 509.794 116.891 509.821 117.231 509.911C117.572 510 117.889 510.15 118.166 510.352C118.443 510.554 118.674 510.804 118.845 511.087C119.016 511.371 119.125 511.682 119.165 512.004L119.344 513.435C119.383 513.757 119.354 514.083 119.256 514.394C119.158 514.706 118.994 514.996 118.774 515.25C118.553 515.503 118.28 515.714 117.97 515.871C117.661 516.028 117.32 516.128 116.968 516.164Z" fill="white"/>
<path d="M135.044 525.04C135.154 525.16 135.228 525.306 135.259 525.464C135.29 525.622 135.278 525.785 135.223 525.937L132.518 533.508L127.408 547.823C127.349 547.982 127.246 548.122 127.11 548.226C126.975 548.33 126.812 548.394 126.64 548.412L108.874 550.387C108.69 550.408 108.503 550.373 108.339 550.288L104.376 548.24L97.5908 544.741C97.4615 544.674 97.3508 544.576 97.2684 544.458C97.186 544.339 97.1343 544.203 97.118 544.06C97.0133 543.16 97.1515 542.25 97.5187 541.419C97.886 540.589 98.4693 539.868 99.2101 539.329C99.3282 539.24 99.4665 539.181 99.6131 539.156C99.7598 539.131 99.9104 539.141 100.052 539.186L107.271 541.674L118.622 545.587L126.495 530.915L130.54 523.373H130.559C131.388 523.281 132.227 523.384 133.007 523.674C133.787 523.964 134.485 524.432 135.044 525.04Z" fill="white"/>
<path d="M139.239 514.432C139.289 514.869 139.222 515.312 139.046 515.715L138.463 517.06C138.333 517.362 138.144 517.635 137.908 517.864C137.673 518.092 137.395 518.272 137.09 518.393C136.786 518.513 136.46 518.572 136.133 518.566C135.806 518.56 135.483 518.489 135.183 518.358C134.883 518.226 134.611 518.036 134.384 517.799C134.157 517.562 133.978 517.282 133.858 516.976C133.739 516.669 133.68 516.342 133.686 516.013C133.692 515.683 133.762 515.358 133.893 515.056L134.476 513.711C134.694 513.204 135.073 512.784 135.554 512.516C136.034 512.248 136.589 512.147 137.133 512.229C137.676 512.311 138.177 512.572 138.558 512.97C138.939 513.369 139.178 513.883 139.239 514.432Z" fill="white"/>
<path d="M154.661 525.894C154.863 526.145 155.008 526.43 155.09 526.732C155.172 527.034 155.188 527.349 155.138 527.657C155.087 527.965 154.972 528.261 154.797 528.528C154.623 528.795 154.393 529.027 154.12 529.213L152.909 530.037C152.36 530.411 151.671 530.568 150.995 530.475C150.319 530.382 149.711 530.045 149.305 529.539C148.899 529.033 148.728 528.399 148.829 527.776C148.931 527.154 149.297 526.595 149.846 526.221L151.057 525.396C151.33 525.211 151.639 525.077 151.967 525.002C152.296 524.927 152.637 524.912 152.972 524.958C153.306 525.004 153.628 525.111 153.918 525.271C154.208 525.432 154.46 525.644 154.661 525.894Z" fill="white"/>
<path d="M169.494 543.139C168.414 543.26 167.328 542.98 166.436 542.351C165.544 541.722 164.907 540.787 164.641 539.719C161.926 529.034 155.494 519.703 146.53 513.445C137.566 507.187 126.674 504.423 115.859 505.662C105.044 506.902 95.0354 512.061 87.6753 520.189C80.3153 528.318 76.0997 538.869 75.805 549.9C75.784 551.002 75.3697 552.059 74.6388 552.876C73.908 553.693 72.91 554.213 71.8297 554.341C71.1971 554.415 70.556 554.352 69.9496 554.154C69.3432 553.956 68.7855 553.63 68.3139 553.196C67.8423 552.762 67.4678 552.23 67.2153 551.638C66.9629 551.045 66.8385 550.404 66.8504 549.758C67.1777 536.52 72.2183 523.849 81.0413 514.084C89.8643 504.32 101.874 498.122 114.853 496.635C127.831 495.147 140.903 498.471 151.653 505.993C162.403 513.514 170.106 524.725 173.339 537.555C173.491 538.181 173.509 538.832 173.393 539.466C173.276 540.1 173.028 540.701 172.664 541.23C172.3 541.758 171.829 542.202 171.282 542.532C170.736 542.861 170.126 543.068 169.494 543.139Z" fill="white"/>
<path d="M199.096 544.098C199.096 547.126 197.07 549.597 193.871 549.597C186.227 549.597 183.812 519.399 183.812 512.626C183.812 508.007 183.966 492.31 190.437 492.31C193.796 492.31 194.726 495.258 195.196 498.03C199.093 495.323 200.731 493.011 205.956 493.011C213.988 493.011 218.822 501.219 218.822 508.709C218.822 518.507 212.973 524.563 203.381 524.563C200.911 524.563 198.457 524.16 196.111 523.37C196.827 529.918 199.096 537.481 199.096 544.098ZM205.329 503.465C202.131 503.465 198.156 510.238 197.376 512.786C206.811 521.55 211.644 503.465 205.329 503.465Z" fill="white"/>
<path d="M222.976 506.712C223.209 499.932 222.028 493.111 222.252 486.461C222.322 484.46 223.588 482.693 225.935 482.764C233.293 482.995 233.266 508.2 233.099 513.168C232.96 517.302 233.099 525.126 226.791 524.928C222.233 524.783 221.904 520.575 222.02 517.153C222.136 513.731 222.86 510.212 222.976 506.712Z" fill="white"/>
<path d="M245.167 524.932C239.758 524.932 237.121 519.611 237.121 514.727C237.121 506.366 245.616 496.288 254.048 496.288C255.906 496.288 257.781 496.88 259.713 496.88C264.798 496.88 263.383 503.398 263.383 506.762C263.383 512.029 265.764 518.087 265.764 519.999C265.774 520.376 265.709 520.752 265.574 521.103C265.439 521.455 265.237 521.775 264.979 522.045C264.72 522.315 264.412 522.529 264.072 522.675C263.731 522.821 263.366 522.896 262.997 522.894C260.423 522.894 257.462 518.418 256.311 516.308C253.465 519.93 250.312 524.932 245.167 524.932ZM253.71 504.717C253.001 503.531 244.762 506.237 244.762 515.845C244.75 516.131 244.802 516.417 244.913 516.68C245.024 516.943 245.192 517.177 245.405 517.365C248.959 516.175 253.71 508.403 253.71 504.717Z" fill="white"/>
<path d="M287.845 497.436C295.855 497.436 296 511.337 296 516.784C296 519.581 295.617 522.817 291.999 522.817C287.845 522.817 286.587 516.124 286.14 511.056C285.696 505.1 283.619 506.124 280.949 510.616C277.687 515.984 277.687 523.34 273.537 523.34C268.947 523.34 268.947 514.88 268.947 511.72C268.947 507.896 269.54 497.083 274.803 497.083C276.956 497.083 278.364 499.143 278.586 500.983C281.099 499.857 285.103 497.436 287.845 497.436Z" fill="white"/>
<path d="M215.51 529.706C217.926 529.706 221.379 531.566 221.379 534.075C221.379 535.411 220.537 537.253 218.887 537.253C217.238 537.253 216.776 535.664 215.087 535.664C212.714 535.664 211.71 539.058 211.71 540.874C211.71 542.281 212.631 544.223 214.395 544.223C217.005 544.223 218.235 540.398 220.651 540.398C221.233 540.421 221.782 540.656 222.183 541.053C222.583 541.45 222.804 541.979 222.799 542.526C222.799 546.717 218.504 549.597 214.395 549.597C209.483 549.597 206.09 545.191 206.09 540.896C206.07 536.062 209.716 529.706 215.51 529.706Z" fill="white"/>
<path d="M225.186 541.003C225.186 537.27 227.351 532.093 231.685 532.093C235.39 532.093 238.712 535.719 238.712 539.383C238.712 543.501 235.39 548.006 231.022 548.006C227.074 547.995 225.186 544.629 225.186 541.003ZM232.14 536.601C230.623 536.601 229.763 539.134 229.763 540.33C229.763 541.526 230.043 543.819 231.442 543.819C233.361 543.819 235.041 541.633 235.041 539.769C235.041 538.5 233.433 536.601 232.14 536.601Z" fill="white"/>
<path d="M247.128 532.093C249.08 532.093 251.875 533.638 251.875 535.761C251.875 536.883 251.191 538.432 249.856 538.432C248.521 538.432 248.151 537.096 246.784 537.096C244.864 537.096 244.052 539.947 244.052 541.462C244.052 542.646 244.797 544.283 246.222 544.283C248.334 544.283 249.326 541.069 251.297 541.069C251.767 541.089 252.212 541.287 252.536 541.621C252.86 541.955 253.039 542.399 253.034 542.859C253.034 546.378 249.56 548.802 246.238 548.802C242.268 548.802 239.508 545.103 239.508 541.493C239.496 537.428 242.443 532.093 247.128 532.093Z" fill="white"/>
<path d="M257.861 533.742C259.329 533.467 260.758 534.21 260.96 535.192C261.001 535.531 261.001 535.873 260.96 536.211C260.104 539.737 260.797 543.277 259.856 546.624C259.736 547.29 259.205 547.799 258.307 547.959C255.902 548.387 255.166 545.784 254.879 544.296C254.434 542.206 254.147 534.445 257.861 533.742Z" fill="white"/>
<path d="M273.705 532.315C278.41 532.315 278.495 540.741 278.495 544.037C278.495 545.732 278.278 547.693 276.145 547.693C273.705 547.693 272.961 543.637 272.702 540.562C272.438 536.95 271.218 537.575 269.65 540.293C267.713 543.545 267.713 548.006 265.293 548.006C262.582 548.006 262.582 542.88 262.582 540.963C262.582 538.645 262.931 532.093 266.021 532.093C267.287 532.093 268.112 533.341 268.244 534.47C269.754 533.78 272.078 532.315 273.705 532.315Z" fill="white"/>
<path d="M283.758 548.006C280.749 548.006 279.289 545.04 279.289 542.335C279.289 537.687 284.01 532.093 288.694 532.093C289.728 532.093 290.767 532.42 291.839 532.42C294.664 532.42 293.878 536.044 293.878 537.906C293.878 540.834 295.202 544.201 295.202 545.263C295.207 545.472 295.171 545.681 295.096 545.876C295.021 546.071 294.908 546.249 294.765 546.399C294.621 546.549 294.45 546.668 294.261 546.749C294.071 546.83 293.868 546.872 293.663 546.871C292.234 546.871 290.59 544.382 289.943 543.212C288.374 545.224 286.621 548.006 283.758 548.006ZM288.517 536.775C288.141 536.117 283.544 537.614 283.544 542.958C283.54 543.118 283.572 543.277 283.637 543.422C283.703 543.567 283.799 543.695 283.92 543.797C285.872 543.139 288.517 538.814 288.517 536.775Z" fill="white"/>
<path d="M134.134 474.387C133.724 476.123 132.94 477.76 131.83 479.196L131.688 479.379C131.671 479.405 131.651 479.427 131.63 479.453L131.586 479.498C131.181 479.93 130.636 480.222 130.035 480.329C129.435 480.436 128.814 480.352 128.271 480.089C127.727 479.826 127.291 479.4 127.032 478.877C126.772 478.355 126.704 477.765 126.837 477.202C126.904 476.92 127.018 476.651 127.176 476.404C127.271 476.288 127.366 476.17 127.458 476.051C128.44 474.73 128.97 473.155 128.975 471.54C128.98 469.925 128.46 468.348 127.485 467.021C127.291 466.76 127.081 466.511 126.854 466.274C125.175 464.135 124.228 461.562 124.14 458.899C124.116 458.101 124.172 457.302 124.306 456.514C124.337 456.34 124.371 456.167 124.405 455.991C124.599 455.365 125.035 454.831 125.626 454.493C126.217 454.156 126.92 454.04 127.597 454.168C128.274 454.297 128.875 454.66 129.283 455.187C129.69 455.713 129.874 456.365 129.798 457.014C129.774 457.109 129.756 457.205 129.744 457.302C129.417 459.295 129.919 461.331 131.145 462.981C131.343 463.252 131.561 463.509 131.797 463.751C132.971 465.257 133.788 466.985 134.191 468.816C134.594 470.648 134.573 472.541 134.13 474.364L134.134 474.387Z" fill="white"/>
<path d="M116.636 467.41C116.225 469.093 115.44 470.681 114.331 472.075C114.284 472.137 114.236 472.193 114.189 472.252L114.131 472.324L114.087 472.371C113.68 472.787 113.134 473.069 112.534 473.171C111.934 473.273 111.314 473.191 110.771 472.936C110.228 472.681 109.792 472.268 109.532 471.763C109.272 471.257 109.202 470.687 109.334 470.141C109.401 469.868 109.515 469.606 109.673 469.366C109.768 469.255 109.864 469.139 109.952 469.024C110.938 467.745 111.47 466.218 111.475 464.652C111.481 463.085 110.959 461.556 109.982 460.27C109.79 460.016 109.579 459.774 109.351 459.546C107.672 457.47 106.724 454.975 106.635 452.393C106.615 451.619 106.67 450.845 106.801 450.079C106.828 449.908 106.866 449.74 106.9 449.569C107.095 448.962 107.531 448.444 108.122 448.117C108.713 447.79 109.417 447.677 110.094 447.802C110.772 447.926 111.374 448.279 111.781 448.79C112.189 449.3 112.373 449.932 112.298 450.561C112.274 450.655 112.254 450.748 112.24 450.841C111.912 452.774 112.415 454.748 113.642 456.349C113.84 456.61 114.057 456.86 114.291 457.095C115.466 458.556 116.284 460.231 116.687 462.008C117.09 463.785 117.069 465.62 116.626 467.389L116.636 467.41Z" fill="white"/>
<path d="M121.686 442.084C121.567 442.56 121.298 442.995 120.913 443.337C120.528 443.679 120.042 443.914 119.513 444.013C119.382 444.013 119.25 444.041 119.122 444.06C118.651 444.125 118.188 444.23 117.738 444.373C117.661 444.391 117.586 444.414 117.513 444.442C117.504 444.439 117.494 444.439 117.485 444.442C116.797 444.647 116.049 444.604 115.395 444.322C114.741 444.041 114.233 443.542 113.975 442.93C113.718 442.317 113.731 441.639 114.012 441.035C114.293 440.431 114.821 439.949 115.485 439.688C115.672 439.622 115.859 439.566 116.052 439.509C116.779 439.301 117.523 439.147 118.278 439.049C118.303 439.046 118.329 439.046 118.354 439.049L118.717 439.005C118.985 438.989 119.255 439.01 119.517 439.065C119.878 439.134 120.221 439.267 120.526 439.456C120.831 439.645 121.091 439.887 121.293 440.167C121.494 440.448 121.633 440.761 121.7 441.09C121.768 441.419 121.763 441.756 121.686 442.084Z" fill="white"/>
<path d="M91.0447 462.477C91.4555 460.744 92.2409 459.108 93.352 457.673L93.4947 457.49L93.5524 457.42C93.5654 457.402 93.5802 457.386 93.5966 457.372C94.0036 456.943 94.5497 456.654 95.1497 456.548C95.7496 456.443 96.3697 456.528 96.913 456.79C97.4563 457.052 97.8923 457.476 98.153 457.996C98.4136 458.516 98.4842 459.103 98.3538 459.665C98.287 459.947 98.1723 460.216 98.014 460.463C97.9188 460.575 97.8237 460.693 97.732 460.812C96.7476 462.132 96.2171 463.704 96.2123 465.318C96.2074 466.931 96.7284 468.507 97.7048 469.832C97.8987 470.093 98.1097 470.342 98.3368 470.578C100.019 472.715 100.968 475.285 101.055 477.945C101.079 478.744 101.023 479.542 100.889 480.331C100.858 480.504 100.824 480.68 100.79 480.857C100.603 481.49 100.169 482.032 99.5748 482.376C98.9808 482.72 98.2708 482.84 97.5873 482.711C96.9038 482.582 96.2972 482.214 95.8892 481.681C95.4812 481.149 95.3019 480.49 95.3874 479.838C95.4118 479.742 95.4299 479.645 95.4417 479.547C95.7861 477.543 95.2874 475.492 94.0519 473.829C93.8529 473.559 93.6361 473.301 93.4029 473.057C92.2264 471.552 91.4084 469.826 91.0049 467.995C90.6014 466.165 90.622 464.274 91.0651 462.452L91.0447 462.477Z" fill="white"/>
<path d="M86.0135 487.595C86.1347 487.115 86.4075 486.677 86.7993 486.333C87.191 485.988 87.6852 485.752 88.2227 485.653C88.3564 485.653 88.49 485.628 88.6202 485.609C89.0987 485.551 89.5699 485.451 90.0273 485.313C90.1047 485.291 90.1821 485.268 90.2559 485.24H90.2841C90.9728 485.07 91.7074 485.138 92.3435 485.429C92.9795 485.72 93.4709 486.214 93.7209 486.814C93.971 487.413 93.9617 488.075 93.6948 488.669C93.4278 489.262 92.9227 489.745 92.2786 490.022C92.0887 490.085 91.8952 490.145 91.7017 490.201H91.7193C90.9809 490.412 90.2244 490.568 89.4574 490.668H89.38L89.0107 490.712C88.7381 490.729 88.4644 490.71 88.1981 490.655C87.8299 490.584 87.4811 490.448 87.1719 490.255C86.8626 490.062 86.5989 489.816 86.3959 489.532C86.1929 489.247 86.0546 488.93 85.989 488.597C85.9234 488.265 85.9317 487.924 86.0135 487.595Z" fill="white"/>
<path d="M150.125 580.63C149.046 582.405 147.575 583.899 145.83 584.995C144.084 586.091 142.112 586.758 140.07 586.944C139.79 586.97 139.514 586.987 139.234 586.993C138.839 586.948 138.458 586.813 138.12 586.6C137.661 586.309 137.3 585.883 137.086 585.379C136.871 584.874 136.813 584.315 136.919 583.776C137.025 583.236 137.29 582.743 137.679 582.361C138.067 581.979 138.561 581.727 139.095 581.639C139.273 581.639 139.452 581.639 139.631 581.606C141.319 581.443 142.912 580.737 144.179 579.591C145.446 578.444 146.321 576.916 146.677 575.229C146.716 575.037 146.748 574.842 146.774 574.647C146.838 574.4 146.939 574.165 147.073 573.949C147.381 573.445 147.843 573.057 148.389 572.847C148.935 572.636 149.533 572.615 150.092 572.785C150.651 572.956 151.139 573.309 151.481 573.79C151.823 574.271 152 574.854 151.984 575.448C151.948 575.699 151.906 575.95 151.854 576.205C151.541 577.773 150.956 579.272 150.125 580.63Z" fill="white"/>
</g>
<defs>
<clipPath id="clip0_499_4035">
<rect width="335" height="700" fill="white"/>
</clipPath>
</defs>
</svg>
