<svg width="114" height="68" viewBox="0 0 114 68" fill="none" xmlns="http://www.w3.org/2000/svg">
<path d="M15.5307 62.3266C15.5307 65.4037 13.4713 67.9149 10.221 67.9149C2.45381 67.9149 0 37.2293 0 30.3465C0 25.6533 0.155496 9.70206 6.73185 9.70206C10.1452 9.70206 11.0895 12.6978 11.5674 15.5152C15.5269 12.7636 17.1918 10.4151 22.5015 10.4151C30.6631 10.4151 35.5745 18.7551 35.5745 26.3664C35.5745 36.3224 29.6315 42.4766 19.8846 42.4766C17.3745 42.4758 14.8806 42.0664 12.4966 41.2636C13.2248 47.9177 15.5307 55.6027 15.5307 62.3266ZM21.8643 21.0377C18.6141 21.0377 14.575 27.9205 13.7823 30.5093C23.37 39.415 28.2814 21.0377 21.8643 21.0377Z" fill="#FF6857"/>
<path d="M39.7987 24.3374C40.0348 17.4478 38.8346 10.5165 39.0628 3.75939C39.1336 1.72545 40.4204 -0.0698725 42.8051 0.00209191C50.2818 0.236923 50.2543 25.8487 50.0851 30.8975C49.9434 35.098 50.0851 43.0482 43.6748 42.8474C39.0431 42.6997 38.7086 38.4235 38.8267 34.9465C38.9448 31.4695 39.6806 27.894 39.7987 24.3374Z" fill="#FF6857"/>
<path d="M62.3446 42.8509C56.8489 42.8509 54.1689 37.4444 54.1689 32.482C54.1689 23.986 62.8013 13.7445 71.3695 13.7445C73.2568 13.7445 75.163 14.3469 77.1257 14.3469C82.2931 14.3469 80.855 20.9699 80.855 24.3876C80.855 29.7401 83.2745 35.8958 83.2745 37.8383C83.2841 38.2219 83.2184 38.6035 83.0812 38.9607C82.9441 39.3178 82.7384 39.6432 82.4762 39.9176C82.214 40.1919 81.9007 40.4097 81.5548 40.558C81.2089 40.7063 80.8375 40.7821 80.4624 40.781C77.8467 40.781 74.8384 36.2318 73.6682 34.0885C70.7769 37.7688 67.5723 42.8509 62.3446 42.8509ZM71.0261 22.31C70.3051 21.1051 61.9332 23.8547 61.9332 33.6173C61.921 33.9085 61.9734 34.1988 62.0865 34.4663C62.1996 34.7338 62.3704 34.9717 62.5862 35.1621C66.1984 33.9533 71.0261 26.0559 71.0261 22.31Z" fill="#FF6857"/>
<path d="M105.714 14.9114C113.852 14.9114 114 29.0364 114 34.5722C114 37.4134 113.612 40.7018 109.935 40.7018C105.714 40.7018 104.435 33.9015 103.981 28.7511C103.53 22.6986 101.419 23.7395 98.7067 28.3039C95.3915 33.7588 95.3915 41.2338 91.1746 41.2338C86.5107 41.2338 86.5107 32.637 86.5107 29.4257C86.5107 25.5398 87.1132 14.5529 92.461 14.5529C94.6491 14.5529 96.0794 16.6462 96.3048 18.5159C98.8582 17.3709 102.927 14.9114 105.714 14.9114Z" fill="#FF6857"/>
<path d="M32.212 47.7021C34.6674 47.7021 38.1756 49.5929 38.1756 52.1417C38.1756 53.4993 37.3197 55.3712 35.6439 55.3712C33.9681 55.3712 33.498 53.7565 31.782 53.7565C29.3709 53.7565 28.3501 57.2053 28.3501 59.0508C28.3501 60.4802 29.2865 62.4542 31.0788 62.4542C33.7311 62.4542 34.9808 58.5667 37.4362 58.5667C38.0271 58.5902 38.5852 58.8291 38.9924 59.2327C39.3996 59.6364 39.624 60.1732 39.6183 60.7298C39.6183 64.9879 35.2541 67.9149 31.0788 67.9149C26.0877 67.9149 22.6397 63.4374 22.6397 59.0734C22.6196 54.1611 26.3248 47.7021 32.212 47.7021Z" fill="#01534F"/>
<path d="M42.041 59.1815C42.041 55.3884 44.2412 50.1277 48.6455 50.1277C52.4102 50.1277 55.7857 53.8121 55.7857 57.5354C55.7857 61.7206 52.4102 66.298 47.9712 66.298C43.9599 66.2863 42.041 62.8659 42.041 59.1815ZM49.108 54.709C47.5666 54.709 46.6919 57.283 46.6919 58.4982C46.6919 59.7134 46.9771 62.0428 48.399 62.0428C50.3487 62.0428 52.0557 59.8221 52.0557 57.9275C52.0557 56.6385 50.4219 54.709 49.108 54.709Z" fill="#01534F"/>
<path d="M64.3387 50.1277C66.3221 50.1277 69.1622 51.6984 69.1622 53.8547C69.1622 54.9949 68.468 56.5694 67.1114 56.5694C65.7548 56.5694 65.378 55.2121 63.9897 55.2121C62.038 55.2121 61.213 58.1091 61.213 59.6487C61.213 60.851 61.9706 62.5147 63.4184 62.5147C65.5644 62.5147 66.572 59.2493 68.5751 59.2493C69.0532 59.2694 69.5046 59.4703 69.834 59.8097C70.1633 60.1491 70.3449 60.6003 70.3403 61.0681C70.3403 64.6438 66.81 67.1065 63.4343 67.1065C59.4002 67.1065 56.5957 63.3485 56.5957 59.6797C56.5838 55.5495 59.5787 50.1277 64.3387 50.1277Z" fill="#01534F"/>
<path d="M75.2456 51.8035C76.7371 51.5238 78.1893 52.2796 78.3939 53.2772C78.4355 53.6212 78.4355 53.9687 78.3939 54.3127C77.5242 57.8951 78.2286 61.4926 77.2723 64.8937C77.1503 65.5701 76.6112 66.0878 75.6982 66.2503C73.2543 66.6849 72.5066 64.0396 72.2154 62.5281C71.7628 60.4043 71.4716 52.5177 75.2456 51.8035Z" fill="#01534F"/>
<path d="M91.3442 50.3532C96.1257 50.3532 96.2122 58.9153 96.2122 62.2645C96.2122 63.9874 95.9919 65.98 93.8235 65.98C91.3442 65.98 90.5887 61.8579 90.325 58.7342C90.0574 55.063 88.8178 55.699 87.224 58.4604C85.2563 61.7653 85.2563 66.298 82.7967 66.298C80.042 66.298 80.042 61.0891 80.042 59.1407C80.042 56.7858 80.3962 50.1277 83.5366 50.1277C84.8234 50.1277 85.6616 51.3958 85.7954 52.543C87.3302 51.8426 89.6914 50.3532 91.3442 50.3532Z" fill="#01534F"/>
<path d="M101.561 66.298C98.5027 66.298 97.0195 63.2837 97.0195 60.5352C97.0195 55.8123 101.817 50.1277 106.576 50.1277C107.627 50.1277 108.682 50.4601 109.772 50.4601C112.643 50.4601 111.844 54.1429 111.844 56.0352C111.844 59.0104 113.189 62.4314 113.189 63.5104C113.194 63.7235 113.158 63.9354 113.081 64.1338C113.005 64.3321 112.891 64.5128 112.745 64.6651C112.599 64.8174 112.425 64.9384 112.233 65.0207C112.041 65.1031 111.834 65.1452 111.626 65.1446C110.173 65.1446 108.503 62.6151 107.845 61.4266C106.251 63.4713 104.47 66.298 101.561 66.298ZM106.396 54.8858C106.014 54.2172 101.343 55.7381 101.343 61.1685C101.339 61.331 101.372 61.4921 101.438 61.6397C101.504 61.7874 101.602 61.9177 101.725 62.0209C103.709 61.3523 106.396 56.9579 106.396 54.8858Z" fill="#01534F"/>
</svg>
