<svg width="645" height="768" viewBox="0 0 645 768" fill="none" xmlns="http://www.w3.org/2000/svg">
<rect width="645" height="768" fill="white"/>
<rect y="384" width="645" height="384" fill="#040135"/>
<path d="M309.704 220.053C308.74 211.645 306.135 203.508 302.037 196.107C297.94 188.707 292.431 182.187 285.824 176.921C279.217 171.655 271.642 167.745 263.532 165.415C255.421 163.085 246.934 162.38 238.554 163.341C230.175 164.302 222.068 166.909 214.695 171.015C207.322 175.12 200.829 180.643 195.585 187.267C190.342 193.892 186.451 201.49 184.135 209.625C181.819 217.761 181.123 226.276 182.087 234.685L245.896 227.369L309.704 220.053Z" fill="#FFE6E2"/>
<path d="M169.737 251.511C167.361 254.692 164.014 257.063 160.172 258.285C156.33 259.508 152.19 259.52 148.34 258.32C144.49 257.12 141.129 254.769 138.733 251.603C136.338 248.436 135.031 244.615 135 240.685H168.586C168.733 244.314 169.118 247.93 169.737 251.511Z" fill="#01534F"/>
<path d="M373.526 240.685C373.496 244.636 372.183 248.476 369.775 251.651C367.367 254.827 363.988 257.175 360.125 258.357C356.263 259.538 352.116 259.493 348.282 258.227C344.447 256.961 341.124 254.539 338.789 251.312C339.384 247.795 339.754 244.246 339.898 240.685H373.526Z" fill="#01534F"/>
<path d="M326.481 240.685C327.41 240.685 328.329 240.887 329.175 241.276C330.021 241.666 330.775 242.234 331.387 242.943C332 243.653 332.455 244.486 332.723 245.388C332.992 246.291 333.067 247.24 332.944 248.175C330.321 267.286 320.97 284.79 306.617 297.459C292.263 310.128 273.874 317.106 254.844 317.106C235.814 317.106 217.426 310.128 203.072 297.459C188.718 284.79 179.367 267.286 176.744 248.175C176.62 247.24 176.694 246.29 176.962 245.387C177.23 244.484 177.685 243.65 178.297 242.94C178.91 242.231 179.665 241.662 180.512 241.273C181.359 240.884 182.278 240.683 183.208 240.685C184.791 240.693 186.318 241.282 187.506 242.343C188.694 243.404 189.463 244.865 189.672 246.457C191.878 262.386 199.687 276.971 211.66 287.525C223.633 298.078 238.963 303.89 254.828 303.89C270.693 303.89 286.024 298.078 297.996 287.525C309.969 276.971 317.778 262.386 319.985 246.457C320.193 244.865 320.962 243.404 322.15 242.343C323.338 241.282 324.865 240.693 326.448 240.685H326.481Z" fill="#01534F"/>
<path d="M263.527 144.792C263.527 144.839 263.527 144.886 263.527 144.933C250.77 143.583 237.873 145.043 225.74 149.21C225.613 148.618 225.514 148.007 225.444 147.391C225.146 144.819 225.372 142.214 226.109 139.732C226.846 137.251 228.078 134.944 229.731 132.954C231.383 130.963 233.422 129.329 235.724 128.15C238.026 126.971 240.543 126.273 243.122 126.097C245.701 125.921 248.289 126.271 250.73 127.126C253.17 127.98 255.411 129.322 257.319 131.07C259.226 132.818 260.759 134.935 261.826 137.294C262.892 139.652 263.469 142.203 263.522 144.792H263.527Z" fill="#FF6857"/>
<path d="M207.64 208.404C207.253 209.285 206.53 209.977 205.629 210.328C204.729 210.68 203.726 210.662 202.839 210.278L200.881 209.434C200.142 209.115 199.53 208.563 199.14 207.863C198.751 207.162 198.604 206.353 198.725 205.562C198.845 204.771 199.225 204.041 199.805 203.486C200.386 202.932 201.135 202.584 201.935 202.496C202.569 202.427 203.211 202.522 203.797 202.773L205.755 203.621C206.195 203.812 206.593 204.087 206.926 204.431C207.259 204.775 207.52 205.18 207.695 205.624C207.87 206.068 207.955 206.543 207.946 207.02C207.937 207.497 207.833 207.967 207.64 208.404Z" fill="#FF6857"/>
<path d="M219.107 188.171L217.92 186.432C217.642 186.043 217.439 185.597 217.323 185.121C217.206 184.645 217.179 184.148 217.242 183.661C217.305 183.173 217.457 182.704 217.69 182.281C217.922 181.858 218.231 181.489 218.596 181.197C218.962 180.904 219.378 180.694 219.82 180.578C220.262 180.462 220.721 180.442 221.17 180.521C221.619 180.599 222.049 180.774 222.434 181.035C222.82 181.295 223.154 181.637 223.416 182.039L224.603 183.778C224.881 184.168 225.084 184.614 225.2 185.09C225.317 185.566 225.344 186.062 225.281 186.55C225.218 187.037 225.066 187.507 224.833 187.93C224.601 188.353 224.293 188.721 223.927 189.014C223.561 189.306 223.145 189.517 222.703 189.633C222.261 189.749 221.802 189.768 221.353 189.69C220.905 189.611 220.475 189.436 220.089 189.176C219.703 188.915 219.369 188.573 219.107 188.171Z" fill="#FF6857"/>
<path d="M248.466 179.294C247.954 179.347 247.435 179.307 246.94 179.177C246.445 179.046 245.983 178.828 245.58 178.534C245.177 178.241 244.841 177.877 244.592 177.464C244.343 177.052 244.184 176.598 244.127 176.13L243.867 174.048C243.809 173.579 243.852 173.105 243.995 172.652C244.137 172.198 244.375 171.775 244.696 171.407C245.017 171.038 245.414 170.73 245.865 170.502C246.316 170.274 246.811 170.129 247.323 170.076C247.835 170.023 248.353 170.063 248.848 170.193C249.344 170.323 249.806 170.542 250.209 170.835C250.612 171.129 250.947 171.493 251.197 171.905C251.446 172.318 251.604 172.771 251.662 173.24L251.922 175.322C251.98 175.791 251.937 176.265 251.794 176.718C251.652 177.171 251.414 177.594 251.093 177.963C250.772 178.332 250.374 178.639 249.924 178.868C249.473 179.096 248.977 179.241 248.466 179.294Z" fill="#FF6857"/>
<path d="M274.77 192.21C274.928 192.385 275.036 192.598 275.082 192.828C275.128 193.058 275.109 193.295 275.029 193.516L271.094 204.534L263.657 225.366C263.571 225.597 263.421 225.8 263.223 225.952C263.026 226.103 262.789 226.197 262.54 226.222L236.685 229.097C236.417 229.127 236.146 229.077 235.907 228.954L230.138 225.972L220.265 220.88C220.077 220.782 219.916 220.641 219.796 220.468C219.676 220.296 219.601 220.097 219.577 219.889C219.424 218.58 219.626 217.255 220.16 216.047C220.694 214.838 221.543 213.789 222.621 213.005C222.793 212.876 222.994 212.789 223.208 212.753C223.421 212.717 223.641 212.732 223.847 212.797L234.352 216.417L250.87 222.111L262.328 200.761L268.214 189.784H268.242C269.448 189.651 270.669 189.801 271.804 190.223C272.939 190.645 273.956 191.326 274.77 192.21Z" fill="#FF6857"/>
<path d="M280.873 176.773C280.946 177.41 280.848 178.054 280.592 178.64L279.744 180.597C279.554 181.037 279.279 181.434 278.936 181.767C278.594 182.1 278.189 182.361 277.746 182.537C277.302 182.712 276.829 182.798 276.353 182.789C275.876 182.781 275.407 182.678 274.97 182.486C274.533 182.295 274.138 182.018 273.807 181.673C273.477 181.328 273.217 180.921 273.043 180.475C272.868 180.029 272.783 179.552 272.792 179.073C272.8 178.594 272.903 178.121 273.093 177.681L273.941 175.724C274.259 174.986 274.811 174.374 275.51 173.984C276.209 173.594 277.017 173.448 277.808 173.567C278.598 173.687 279.327 174.066 279.882 174.646C280.436 175.226 280.784 175.974 280.873 176.773Z" fill="#FF6857"/>
<path d="M303.318 193.454C303.611 193.818 303.823 194.233 303.941 194.673C304.06 195.113 304.084 195.57 304.011 196.018C303.938 196.467 303.769 196.897 303.515 197.286C303.261 197.674 302.927 198.013 302.53 198.283L300.768 199.482C299.968 200.026 298.966 200.256 297.983 200.12C296.999 199.984 296.114 199.494 295.523 198.757C294.932 198.021 294.683 197.098 294.831 196.193C294.978 195.287 295.511 194.473 296.311 193.928L298.073 192.729C298.469 192.459 298.919 192.264 299.397 192.155C299.875 192.045 300.372 192.024 300.859 192.091C301.346 192.158 301.814 192.313 302.235 192.547C302.657 192.781 303.025 193.089 303.318 193.454Z" fill="#FF6857"/>
<path d="M324.904 218.55C323.332 218.725 321.751 218.317 320.453 217.402C319.155 216.487 318.227 215.127 317.842 213.573C313.89 198.023 304.529 184.444 291.485 175.337C278.44 166.23 262.589 162.207 246.851 164.011C231.112 165.815 216.547 173.322 205.836 185.152C195.125 196.981 188.991 212.336 188.562 228.388C188.531 229.992 187.928 231.531 186.865 232.719C185.801 233.908 184.349 234.665 182.777 234.851C181.856 234.959 180.923 234.866 180.041 234.579C179.158 234.292 178.347 233.816 177.66 233.184C176.974 232.553 176.429 231.78 176.062 230.917C175.694 230.054 175.513 229.122 175.53 228.182C176.007 208.917 183.342 190.477 196.182 176.267C209.022 162.058 226.499 153.038 245.386 150.874C264.274 148.709 283.296 153.546 298.94 164.492C314.584 175.437 325.794 191.752 330.5 210.423C330.72 211.334 330.747 212.282 330.577 213.204C330.408 214.127 330.046 215.002 329.516 215.771C328.987 216.54 328.301 217.186 327.506 217.665C326.71 218.144 325.823 218.446 324.904 218.55Z" fill="#FF6857"/>
<path d="M367.98 219.944C367.98 224.351 365.031 227.948 360.376 227.948C349.252 227.948 345.738 184.002 345.738 174.145C345.738 167.423 345.961 144.579 355.379 144.579C360.268 144.579 361.62 148.869 362.304 152.904C367.975 148.964 370.359 145.6 377.963 145.6C389.652 145.6 396.686 157.544 396.686 168.445C396.686 182.703 388.175 191.517 374.216 191.517C370.621 191.515 367.049 190.929 363.635 189.779C364.678 199.309 367.98 210.315 367.98 219.944ZM377.051 160.813C372.396 160.813 366.612 170.67 365.476 174.378C379.207 187.132 386.241 160.813 377.051 160.813Z" fill="#FF6857"/>
<path d="M402.734 165.539C403.072 155.672 401.354 145.746 401.68 136.069C401.782 133.156 403.625 130.585 407.04 130.688C417.748 131.024 417.708 167.703 417.466 174.934C417.263 180.95 417.466 192.335 408.285 192.048C401.652 191.836 401.173 185.712 401.342 180.733C401.511 175.753 402.565 170.632 402.734 165.539Z" fill="#FF6857"/>
<path d="M435.025 192.053C427.154 192.053 423.316 184.31 423.316 177.203C423.316 165.036 435.679 150.368 447.95 150.368C450.653 150.368 453.383 151.231 456.194 151.231C463.594 151.231 461.534 160.716 461.534 165.611C461.534 173.276 464.999 182.092 464.999 184.874C465.013 185.423 464.919 185.97 464.723 186.481C464.526 186.993 464.232 187.459 463.856 187.852C463.481 188.245 463.032 188.557 462.537 188.769C462.041 188.981 461.509 189.09 460.972 189.088C457.226 189.088 452.918 182.573 451.242 179.504C447.101 184.774 442.512 192.053 435.025 192.053ZM447.458 162.635C446.426 160.91 434.436 164.848 434.436 178.829C434.418 179.246 434.493 179.662 434.655 180.045C434.817 180.428 435.062 180.769 435.371 181.041C440.544 179.31 447.458 168 447.458 162.635Z" fill="#FF6857"/>
<path d="M497.135 152.04C508.79 152.04 509.001 172.268 509.001 180.196C509.001 184.265 508.445 188.975 503.179 188.975C497.135 188.975 495.303 179.236 494.652 171.86C494.006 163.192 490.984 164.683 487.099 171.219C482.351 179.032 482.351 189.737 476.312 189.737C469.633 189.737 469.633 177.425 469.633 172.826C469.633 167.261 470.496 151.526 478.154 151.526C481.288 151.526 483.336 154.524 483.659 157.202C487.316 155.562 493.144 152.04 497.135 152.04Z" fill="#FF6857"/>
<path d="M391.869 199C395.385 199 400.41 201.708 400.41 205.358C400.41 207.303 399.184 209.983 396.784 209.983C394.384 209.983 393.711 207.671 391.253 207.671C387.8 207.671 386.338 212.61 386.338 215.253C386.338 217.3 387.679 220.127 390.246 220.127C394.045 220.127 395.834 214.56 399.351 214.56C400.197 214.594 400.996 214.936 401.579 215.514C402.163 216.092 402.484 216.861 402.476 217.658C402.476 223.756 396.226 227.948 390.246 227.948C383.098 227.948 378.16 221.535 378.16 215.286C378.131 208.25 383.438 199 391.869 199Z" fill="#01534F"/>
<path d="M405.947 215.44C405.947 210.008 409.098 202.474 415.406 202.474C420.797 202.474 425.632 207.751 425.632 213.083C425.632 219.077 420.797 225.632 414.44 225.632C408.695 225.615 405.947 220.717 405.947 215.44ZM416.068 209.035C413.861 209.035 412.608 212.721 412.608 214.462C412.608 216.202 413.016 219.538 415.053 219.538C417.845 219.538 420.29 216.358 420.29 213.644C420.29 211.798 417.95 209.035 416.068 209.035Z" fill="#01534F"/>
<path d="M437.88 202.474C440.72 202.474 444.788 204.724 444.788 207.812C444.788 209.445 443.794 211.699 441.851 211.699C439.908 211.699 439.368 209.756 437.38 209.756C434.585 209.756 433.404 213.904 433.404 216.109C433.404 217.831 434.489 220.214 436.562 220.214C439.635 220.214 441.078 215.537 443.947 215.537C444.632 215.566 445.278 215.854 445.75 216.34C446.222 216.826 446.482 217.472 446.475 218.142C446.475 223.263 441.419 226.79 436.585 226.79C430.807 226.79 426.791 221.408 426.791 216.154C426.774 210.239 431.063 202.474 437.88 202.474Z" fill="#01534F"/>
<path d="M453.499 204.874C455.635 204.473 457.714 205.556 458.008 206.985C458.067 207.477 458.067 207.975 458.008 208.467C456.762 213.598 457.771 218.75 456.401 223.621C456.227 224.59 455.454 225.331 454.147 225.564C450.647 226.186 449.576 222.398 449.159 220.233C448.511 217.192 448.094 205.897 453.499 204.874Z" fill="#01534F"/>
<path d="M476.555 202.797C483.403 202.797 483.527 215.059 483.527 219.856C483.527 222.323 483.211 225.177 480.106 225.177C476.555 225.177 475.473 219.273 475.096 214.8C474.713 209.542 472.937 210.453 470.655 214.408C467.837 219.141 467.837 225.632 464.314 225.632C460.369 225.632 460.369 218.172 460.369 215.382C460.369 212.009 460.876 202.474 465.374 202.474C467.217 202.474 468.417 204.29 468.609 205.933C470.807 204.93 474.188 202.797 476.555 202.797Z" fill="#01534F"/>
<path d="M491.187 225.632C486.808 225.632 484.684 221.315 484.684 217.379C484.684 210.615 491.554 202.474 498.37 202.474C499.875 202.474 501.386 202.95 502.947 202.95C507.058 202.95 505.914 208.224 505.914 210.934C505.914 215.195 507.841 220.095 507.841 221.64C507.848 221.945 507.796 222.249 507.686 222.533C507.577 222.817 507.413 223.075 507.204 223.294C506.996 223.512 506.746 223.685 506.471 223.803C506.196 223.921 505.9 223.981 505.602 223.98C503.521 223.98 501.129 220.358 500.187 218.656C497.905 221.584 495.353 225.632 491.187 225.632ZM498.113 209.288C497.565 208.331 490.875 210.509 490.875 218.286C490.87 218.519 490.917 218.749 491.011 218.961C491.106 219.172 491.247 219.359 491.423 219.507C494.264 218.549 498.113 212.256 498.113 209.288Z" fill="#01534F"/>
<path d="M273.446 118.497C272.849 121.023 271.708 123.406 270.094 125.496L269.886 125.762C269.862 125.8 269.832 125.832 269.802 125.87L269.738 125.935C269.149 126.564 268.355 126.989 267.481 127.145C266.608 127.3 265.705 127.177 264.913 126.795C264.122 126.412 263.488 125.792 263.11 125.032C262.732 124.271 262.633 123.414 262.827 122.594C262.924 122.184 263.091 121.791 263.321 121.432C263.459 121.264 263.597 121.091 263.73 120.919C265.16 118.996 265.931 116.705 265.938 114.354C265.945 112.004 265.188 109.709 263.77 107.778C263.488 107.398 263.181 107.035 262.852 106.691C260.408 103.578 259.03 99.8329 258.902 95.9585C258.868 94.7967 258.949 93.6343 259.144 92.4868C259.188 92.2348 259.238 91.9828 259.287 91.7262C259.571 90.8152 260.205 90.0377 261.065 89.5468C261.925 89.0559 262.948 88.8872 263.933 89.074C264.918 89.2608 265.793 89.7895 266.386 90.5559C266.979 91.3223 267.247 92.2709 267.137 93.2147C267.101 93.3529 267.074 93.4932 267.058 93.6347C266.581 96.5349 267.312 99.4969 269.097 101.899C269.385 102.292 269.701 102.666 270.044 103.019C271.754 105.21 272.942 107.725 273.529 110.39C274.115 113.056 274.085 115.81 273.441 118.464L273.446 118.497Z" fill="#01534F"/>
<path d="M247.981 108.344C247.381 110.794 246.24 113.104 244.626 115.133C244.557 115.223 244.488 115.305 244.419 115.391L244.335 115.495L244.27 115.563C243.678 116.169 242.884 116.579 242.011 116.728C241.138 116.876 240.235 116.756 239.445 116.385C238.655 116.014 238.021 115.414 237.642 114.678C237.264 113.942 237.162 113.112 237.354 112.318C237.451 111.92 237.617 111.54 237.848 111.191C237.986 111.028 238.124 110.861 238.253 110.693C239.688 108.831 240.462 106.609 240.47 104.33C240.478 102.051 239.719 99.8243 238.297 97.9537C238.017 97.5837 237.71 97.2314 237.378 96.8993C234.935 93.879 233.556 90.2477 233.426 86.4905C233.396 85.3637 233.477 84.2369 233.668 83.1234C233.707 82.8745 233.762 82.6301 233.811 82.3812C234.095 81.4978 234.73 80.7437 235.59 80.2676C236.451 79.7915 237.475 79.6279 238.46 79.809C239.446 79.9902 240.322 80.5029 240.915 81.2463C241.509 81.9896 241.777 82.9096 241.667 83.8249C241.632 83.9607 241.602 84.0964 241.583 84.2322C241.106 87.045 241.837 89.9176 243.623 92.247C243.911 92.6276 244.227 92.9904 244.567 93.3331C246.278 95.4584 247.467 97.8972 248.054 100.483C248.64 103.068 248.61 105.739 247.966 108.313L247.981 108.344Z" fill="#01534F"/>
<path d="M255.332 71.4874C255.158 72.1806 254.767 72.8138 254.206 73.3116C253.645 73.8094 252.938 74.1507 252.169 74.2948C251.978 74.2948 251.786 74.3358 251.6 74.3631C250.914 74.4587 250.24 74.6112 249.585 74.8189C249.474 74.8447 249.364 74.8782 249.258 74.9191C249.245 74.9146 249.231 74.9146 249.218 74.9191C248.217 75.2176 247.128 75.1554 246.176 74.7455C245.225 74.3356 244.485 73.6097 244.11 72.7186C243.735 71.8275 243.754 70.8399 244.163 69.9612C244.572 69.0826 245.34 68.3805 246.307 68.001C246.579 67.9053 246.851 67.8233 247.133 67.7412C248.19 67.4381 249.273 67.214 250.371 67.0713C250.408 67.0673 250.445 67.0673 250.482 67.0713L251.011 67.0075C251.401 66.9847 251.793 67.0139 252.174 67.0941C252.7 67.1949 253.199 67.3884 253.643 67.6638C254.086 67.9391 254.465 68.2908 254.759 68.6988C255.052 69.1068 255.253 69.563 255.352 70.0415C255.45 70.52 255.443 71.0113 255.332 71.4874Z" fill="#01534F"/>
<path d="M210.739 101.166C211.337 98.6427 212.48 96.2625 214.097 94.1741L214.304 93.9084L214.388 93.8058C214.407 93.7806 214.429 93.7571 214.453 93.7359C215.045 93.1121 215.84 92.6908 216.713 92.5376C217.586 92.3844 218.488 92.5081 219.279 92.8893C220.069 93.2705 220.704 93.8877 221.083 94.6446C221.463 95.4016 221.565 96.2556 221.376 97.0734C221.278 97.4829 221.111 97.8749 220.881 98.234C220.743 98.3972 220.604 98.5696 220.471 98.7421C219.038 100.663 218.266 102.952 218.259 105.299C218.252 107.647 219.01 109.94 220.431 111.868C220.713 112.248 221.02 112.611 221.351 112.954C223.8 116.064 225.18 119.805 225.307 123.675C225.341 124.837 225.26 126 225.064 127.148C225.02 127.4 224.97 127.656 224.921 127.912C224.649 128.833 224.017 129.623 223.152 130.124C222.288 130.624 221.255 130.798 220.26 130.611C219.265 130.423 218.383 129.888 217.789 129.113C217.195 128.337 216.934 127.379 217.059 126.43C217.094 126.29 217.121 126.149 217.138 126.006C217.639 123.09 216.913 120.105 215.115 117.686C214.826 117.293 214.51 116.918 214.171 116.562C212.459 114.372 211.268 111.859 210.681 109.196C210.094 106.532 210.124 103.78 210.769 101.129L210.739 101.166Z" fill="#01534F"/>
<path d="M203.416 137.718C203.592 137.02 203.989 136.382 204.559 135.881C205.129 135.38 205.848 135.037 206.631 134.892C206.825 134.892 207.02 134.856 207.209 134.828C207.905 134.743 208.591 134.599 209.257 134.397C209.369 134.365 209.482 134.333 209.589 134.291H209.63C210.633 134.044 211.702 134.143 212.627 134.566C213.553 134.99 214.268 135.709 214.632 136.582C214.996 137.454 214.982 138.417 214.594 139.281C214.205 140.145 213.47 140.847 212.533 141.25C212.257 141.342 211.975 141.429 211.693 141.511H211.719C210.644 141.818 209.544 142.045 208.427 142.19H208.315L207.777 142.255C207.381 142.279 206.982 142.251 206.595 142.172C206.059 142.068 205.551 141.87 205.101 141.589C204.651 141.308 204.268 140.951 203.972 140.537C203.677 140.123 203.476 139.661 203.38 139.177C203.285 138.693 203.297 138.197 203.416 137.718Z" fill="#01534F"/>
<path d="M296.715 273.109C295.145 275.691 293.005 277.866 290.465 279.461C287.925 281.056 285.055 282.027 282.082 282.297C281.675 282.335 281.273 282.359 280.867 282.369C280.291 282.302 279.737 282.107 279.244 281.796C278.577 281.373 278.052 280.753 277.74 280.019C277.427 279.285 277.343 278.471 277.497 277.686C277.651 276.902 278.037 276.183 278.603 275.628C279.168 275.072 279.887 274.705 280.663 274.577C280.923 274.577 281.184 274.577 281.444 274.528C283.9 274.292 286.218 273.264 288.062 271.596C289.906 269.927 291.179 267.704 291.697 265.249C291.754 264.97 291.801 264.686 291.839 264.402C291.932 264.043 292.079 263.7 292.274 263.386C292.722 262.652 293.395 262.088 294.189 261.782C294.983 261.476 295.854 261.444 296.668 261.692C297.481 261.94 298.191 262.454 298.689 263.155C299.187 263.855 299.444 264.703 299.42 265.567C299.368 265.932 299.307 266.298 299.231 266.669C298.776 268.951 297.924 271.132 296.715 273.109Z" fill="#01534F"/>
<path d="M169.737 635.511C167.361 638.692 164.014 641.063 160.172 642.285C156.33 643.508 152.19 643.52 148.34 642.32C144.49 641.12 141.129 638.769 138.733 635.603C136.338 632.436 135.031 628.615 135 624.685H168.586C168.733 628.314 169.118 631.93 169.737 635.511Z" fill="white"/>
<path d="M373.526 624.685C373.496 628.636 372.183 632.476 369.775 635.651C367.367 638.827 363.988 641.175 360.125 642.357C356.263 643.538 352.116 643.493 348.282 642.227C344.447 640.961 341.124 638.539 338.789 635.312C339.384 631.795 339.754 628.246 339.898 624.685H373.526Z" fill="white"/>
<path d="M326.481 624.685C327.41 624.685 328.329 624.887 329.175 625.276C330.021 625.666 330.775 626.234 331.387 626.943C332 627.653 332.455 628.486 332.723 629.388C332.992 630.291 333.067 631.24 332.944 632.175C330.321 651.286 320.97 668.79 306.617 681.459C292.263 694.128 273.874 701.106 254.844 701.106C235.814 701.106 217.426 694.128 203.072 681.459C188.718 668.79 179.367 651.286 176.744 632.175C176.62 631.24 176.694 630.29 176.962 629.387C177.23 628.484 177.685 627.65 178.297 626.94C178.91 626.231 179.665 625.662 180.512 625.273C181.359 624.884 182.278 624.683 183.208 624.685C184.791 624.693 186.318 625.282 187.506 626.343C188.694 627.404 189.463 628.865 189.672 630.457C191.878 646.386 199.687 660.971 211.66 671.525C223.633 682.078 238.963 687.89 254.828 687.89C270.693 687.89 286.024 682.078 297.996 671.525C309.969 660.971 317.778 646.386 319.985 630.457C320.193 628.865 320.962 627.404 322.15 626.343C323.338 625.282 324.865 624.693 326.448 624.685H326.481Z" fill="white"/>
<path d="M263.527 528.792C263.527 528.839 263.527 528.886 263.527 528.933C250.77 527.583 237.873 529.043 225.74 533.21C225.613 532.618 225.514 532.007 225.444 531.391C225.146 528.819 225.372 526.214 226.109 523.732C226.846 521.251 228.078 518.944 229.731 516.954C231.383 514.963 233.422 513.329 235.724 512.15C238.026 510.971 240.543 510.273 243.122 510.097C245.701 509.921 248.289 510.271 250.73 511.126C253.17 511.98 255.411 513.322 257.319 515.07C259.226 516.818 260.759 518.935 261.826 521.294C262.892 523.652 263.469 526.203 263.522 528.792H263.527Z" fill="white"/>
<path d="M207.64 592.404C207.253 593.285 206.53 593.977 205.629 594.328C204.729 594.68 203.726 594.662 202.839 594.278L200.881 593.434C200.142 593.115 199.53 592.563 199.14 591.863C198.751 591.162 198.604 590.353 198.725 589.562C198.845 588.771 199.225 588.041 199.805 587.486C200.386 586.932 201.135 586.584 201.935 586.496C202.569 586.427 203.211 586.522 203.797 586.773L205.755 587.621C206.195 587.812 206.593 588.087 206.926 588.431C207.259 588.775 207.52 589.18 207.695 589.624C207.87 590.068 207.955 590.543 207.946 591.02C207.937 591.497 207.833 591.967 207.64 592.404Z" fill="white"/>
<path d="M219.107 572.171L217.92 570.432C217.642 570.043 217.439 569.597 217.323 569.121C217.206 568.645 217.179 568.148 217.242 567.661C217.305 567.173 217.457 566.704 217.69 566.281C217.922 565.858 218.231 565.489 218.596 565.197C218.962 564.904 219.378 564.694 219.82 564.578C220.262 564.462 220.721 564.442 221.17 564.521C221.619 564.599 222.049 564.774 222.434 565.035C222.82 565.295 223.154 565.637 223.416 566.039L224.603 567.778C224.881 568.168 225.084 568.614 225.2 569.09C225.317 569.566 225.344 570.062 225.281 570.55C225.218 571.037 225.066 571.507 224.833 571.93C224.601 572.353 224.293 572.721 223.927 573.014C223.561 573.306 223.145 573.517 222.703 573.633C222.261 573.749 221.802 573.768 221.353 573.69C220.905 573.611 220.475 573.436 220.089 573.176C219.703 572.915 219.369 572.573 219.107 572.171Z" fill="white"/>
<path d="M248.466 563.294C247.954 563.347 247.435 563.307 246.94 563.177C246.445 563.046 245.983 562.828 245.58 562.534C245.177 562.241 244.841 561.877 244.592 561.464C244.343 561.052 244.184 560.598 244.127 560.13L243.867 558.048C243.809 557.579 243.852 557.105 243.995 556.652C244.137 556.198 244.375 555.775 244.696 555.407C245.017 555.038 245.414 554.73 245.865 554.502C246.316 554.274 246.811 554.129 247.323 554.076C247.835 554.023 248.353 554.063 248.848 554.193C249.344 554.323 249.806 554.542 250.209 554.835C250.612 555.129 250.947 555.493 251.197 555.905C251.446 556.318 251.604 556.771 251.662 557.24L251.922 559.322C251.98 559.791 251.937 560.265 251.794 560.718C251.652 561.171 251.414 561.594 251.093 561.963C250.772 562.332 250.374 562.639 249.924 562.868C249.473 563.096 248.977 563.241 248.466 563.294Z" fill="white"/>
<path d="M274.77 576.21C274.928 576.385 275.036 576.598 275.082 576.828C275.128 577.058 275.109 577.295 275.029 577.516L271.094 588.534L263.657 609.366C263.571 609.597 263.421 609.8 263.223 609.952C263.026 610.103 262.789 610.197 262.54 610.222L236.685 613.097C236.417 613.127 236.146 613.077 235.907 612.954L230.138 609.972L220.265 604.88C220.077 604.782 219.916 604.641 219.796 604.468C219.676 604.296 219.601 604.097 219.577 603.889C219.424 602.58 219.626 601.255 220.16 600.047C220.694 598.838 221.543 597.789 222.621 597.005C222.793 596.876 222.994 596.789 223.208 596.753C223.421 596.717 223.641 596.732 223.847 596.797L234.352 600.417L250.87 606.111L262.328 584.761L268.214 573.784H268.242C269.448 573.651 270.669 573.801 271.804 574.223C272.939 574.645 273.956 575.326 274.77 576.21Z" fill="white"/>
<path d="M280.873 560.773C280.946 561.41 280.848 562.054 280.592 562.64L279.744 564.597C279.554 565.037 279.279 565.434 278.936 565.767C278.594 566.1 278.189 566.361 277.746 566.537C277.302 566.712 276.829 566.798 276.353 566.789C275.876 566.781 275.407 566.678 274.97 566.486C274.533 566.295 274.138 566.018 273.807 565.673C273.477 565.328 273.217 564.921 273.043 564.475C272.868 564.029 272.783 563.552 272.792 563.073C272.8 562.594 272.903 562.121 273.093 561.681L273.941 559.724C274.259 558.986 274.811 558.374 275.51 557.984C276.209 557.594 277.017 557.448 277.808 557.567C278.598 557.687 279.327 558.066 279.882 558.646C280.436 559.226 280.784 559.974 280.873 560.773Z" fill="white"/>
<path d="M303.318 577.454C303.611 577.818 303.823 578.233 303.941 578.673C304.06 579.113 304.084 579.57 304.011 580.018C303.938 580.467 303.769 580.897 303.515 581.286C303.261 581.674 302.927 582.013 302.53 582.283L300.768 583.482C299.968 584.026 298.966 584.256 297.983 584.12C296.999 583.984 296.114 583.494 295.523 582.757C294.932 582.021 294.683 581.098 294.831 580.193C294.978 579.287 295.511 578.473 296.311 577.928L298.073 576.729C298.469 576.459 298.919 576.264 299.397 576.155C299.875 576.045 300.372 576.024 300.859 576.091C301.346 576.158 301.814 576.313 302.235 576.547C302.657 576.781 303.025 577.089 303.318 577.454Z" fill="white"/>
<path d="M324.904 602.55C323.332 602.725 321.751 602.317 320.453 601.402C319.155 600.487 318.227 599.127 317.842 597.573C313.89 582.023 304.529 568.444 291.485 559.337C278.44 550.23 262.589 546.207 246.851 548.011C231.112 549.815 216.547 557.322 205.836 569.152C195.125 580.981 188.991 596.336 188.562 612.388C188.531 613.992 187.928 615.531 186.865 616.719C185.801 617.908 184.349 618.665 182.777 618.851C181.856 618.959 180.923 618.866 180.041 618.579C179.158 618.292 178.347 617.816 177.66 617.184C176.974 616.553 176.429 615.78 176.062 614.917C175.694 614.054 175.513 613.122 175.53 612.182C176.007 592.917 183.342 574.477 196.182 560.267C209.022 546.058 226.499 537.038 245.386 534.874C264.274 532.709 283.296 537.546 298.94 548.492C314.584 559.437 325.794 575.752 330.5 594.423C330.72 595.334 330.747 596.282 330.577 597.204C330.408 598.127 330.046 599.002 329.516 599.771C328.987 600.54 328.301 601.186 327.506 601.665C326.71 602.144 325.823 602.446 324.904 602.55Z" fill="white"/>
<path d="M367.98 603.944C367.98 608.351 365.031 611.948 360.376 611.948C349.252 611.948 345.738 568.002 345.738 558.145C345.738 551.423 345.961 528.579 355.379 528.579C360.268 528.579 361.62 532.869 362.304 536.904C367.975 532.964 370.359 529.6 377.963 529.6C389.652 529.6 396.686 541.544 396.686 552.445C396.686 566.703 388.175 575.517 374.216 575.517C370.621 575.515 367.049 574.929 363.635 573.779C364.678 583.309 367.98 594.315 367.98 603.944ZM377.051 544.813C372.396 544.813 366.612 554.67 365.476 558.378C379.207 571.132 386.241 544.813 377.051 544.813Z" fill="white"/>
<path d="M402.734 549.539C403.072 539.672 401.354 529.746 401.68 520.069C401.782 517.156 403.625 514.585 407.04 514.688C417.748 515.024 417.708 551.703 417.466 558.934C417.263 564.95 417.466 576.335 408.285 576.048C401.652 575.836 401.173 569.712 401.342 564.733C401.511 559.753 402.565 554.632 402.734 549.539Z" fill="white"/>
<path d="M435.025 576.053C427.154 576.053 423.316 568.31 423.316 561.203C423.316 549.036 435.679 534.368 447.95 534.368C450.653 534.368 453.383 535.231 456.194 535.231C463.594 535.231 461.534 544.716 461.534 549.611C461.534 557.276 464.999 566.092 464.999 568.874C465.013 569.423 464.919 569.97 464.723 570.481C464.526 570.993 464.232 571.459 463.856 571.852C463.481 572.245 463.032 572.557 462.537 572.769C462.041 572.981 461.509 573.09 460.972 573.088C457.226 573.088 452.918 566.573 451.242 563.504C447.101 568.774 442.512 576.053 435.025 576.053ZM447.458 546.635C446.426 544.91 434.436 548.848 434.436 562.829C434.418 563.246 434.493 563.662 434.655 564.045C434.817 564.428 435.062 564.769 435.371 565.041C440.544 563.31 447.458 552 447.458 546.635Z" fill="white"/>
<path d="M497.135 536.04C508.79 536.04 509.001 556.268 509.001 564.196C509.001 568.265 508.445 572.975 503.179 572.975C497.135 572.975 495.303 563.236 494.652 555.86C494.006 547.192 490.984 548.683 487.099 555.219C482.351 563.032 482.351 573.737 476.312 573.737C469.633 573.737 469.633 561.425 469.633 556.826C469.633 551.261 470.496 535.526 478.154 535.526C481.288 535.526 483.336 538.524 483.659 541.202C487.316 539.562 493.144 536.04 497.135 536.04Z" fill="white"/>
<path d="M391.869 583C395.385 583 400.41 585.708 400.41 589.358C400.41 591.303 399.184 593.983 396.784 593.983C394.384 593.983 393.711 591.671 391.253 591.671C387.8 591.671 386.338 596.61 386.338 599.253C386.338 601.3 387.679 604.127 390.246 604.127C394.045 604.127 395.834 598.56 399.351 598.56C400.197 598.594 400.996 598.936 401.579 599.514C402.163 600.092 402.484 600.861 402.476 601.658C402.476 607.756 396.226 611.948 390.246 611.948C383.098 611.948 378.16 605.535 378.16 599.286C378.131 592.25 383.438 583 391.869 583Z" fill="white"/>
<path d="M405.947 599.44C405.947 594.008 409.098 586.474 415.406 586.474C420.797 586.474 425.632 591.751 425.632 597.083C425.632 603.077 420.797 609.632 414.44 609.632C408.695 609.615 405.947 604.717 405.947 599.44ZM416.068 593.035C413.861 593.035 412.608 596.721 412.608 598.462C412.608 600.202 413.016 603.538 415.053 603.538C417.845 603.538 420.29 600.358 420.29 597.644C420.29 595.798 417.95 593.035 416.068 593.035Z" fill="white"/>
<path d="M437.88 586.474C440.72 586.474 444.788 588.724 444.788 591.812C444.788 593.445 443.794 595.699 441.851 595.699C439.908 595.699 439.368 593.756 437.38 593.756C434.585 593.756 433.404 597.904 433.404 600.109C433.404 601.831 434.489 604.214 436.562 604.214C439.635 604.214 441.078 599.537 443.947 599.537C444.632 599.566 445.278 599.854 445.75 600.34C446.222 600.826 446.482 601.472 446.475 602.142C446.475 607.263 441.419 610.79 436.585 610.79C430.807 610.79 426.791 605.408 426.791 600.154C426.774 594.239 431.063 586.474 437.88 586.474Z" fill="white"/>
<path d="M453.499 588.874C455.635 588.473 457.714 589.556 458.008 590.985C458.067 591.477 458.067 591.975 458.008 592.467C456.762 597.598 457.771 602.75 456.401 607.621C456.227 608.59 455.454 609.331 454.147 609.564C450.647 610.186 449.576 606.398 449.159 604.233C448.511 601.192 448.094 589.897 453.499 588.874Z" fill="white"/>
<path d="M476.555 586.797C483.403 586.797 483.527 599.059 483.527 603.856C483.527 606.323 483.211 609.177 480.106 609.177C476.555 609.177 475.473 603.273 475.096 598.8C474.713 593.542 472.937 594.453 470.655 598.408C467.837 603.141 467.837 609.632 464.314 609.632C460.369 609.632 460.369 602.172 460.369 599.382C460.369 596.009 460.876 586.474 465.374 586.474C467.217 586.474 468.417 588.29 468.609 589.933C470.807 588.93 474.188 586.797 476.555 586.797Z" fill="white"/>
<path d="M491.187 609.632C486.808 609.632 484.684 605.315 484.684 601.379C484.684 594.615 491.554 586.474 498.37 586.474C499.875 586.474 501.386 586.95 502.947 586.95C507.058 586.95 505.914 592.224 505.914 594.934C505.914 599.195 507.841 604.095 507.841 605.64C507.848 605.945 507.796 606.249 507.686 606.533C507.577 606.817 507.413 607.075 507.204 607.294C506.996 607.512 506.746 607.685 506.471 607.803C506.196 607.921 505.9 607.981 505.602 607.98C503.521 607.98 501.129 604.358 500.187 602.656C497.905 605.584 495.353 609.632 491.187 609.632ZM498.113 593.288C497.565 592.331 490.875 594.509 490.875 602.286C490.87 602.519 490.917 602.749 491.011 602.961C491.106 603.172 491.247 603.359 491.423 603.507C494.264 602.549 498.113 596.256 498.113 593.288Z" fill="white"/>
<path d="M273.446 502.497C272.849 505.023 271.708 507.406 270.094 509.496L269.886 509.762C269.862 509.8 269.832 509.832 269.802 509.87L269.738 509.935C269.149 510.564 268.355 510.989 267.481 511.145C266.608 511.3 265.705 511.177 264.913 510.795C264.122 510.412 263.488 509.792 263.11 509.032C262.732 508.271 262.633 507.414 262.827 506.594C262.924 506.184 263.091 505.791 263.321 505.432C263.459 505.264 263.597 505.091 263.73 504.919C265.16 502.996 265.931 500.705 265.938 498.354C265.945 496.004 265.188 493.709 263.77 491.778C263.488 491.398 263.181 491.035 262.852 490.691C260.408 487.578 259.03 483.833 258.902 479.959C258.868 478.797 258.949 477.634 259.144 476.487C259.188 476.235 259.238 475.983 259.287 475.726C259.571 474.815 260.205 474.038 261.065 473.547C261.925 473.056 262.948 472.887 263.933 473.074C264.918 473.261 265.793 473.789 266.386 474.556C266.979 475.322 267.247 476.271 267.137 477.215C267.101 477.353 267.074 477.493 267.058 477.635C266.581 480.535 267.312 483.497 269.097 485.899C269.385 486.292 269.701 486.666 270.044 487.019C271.754 489.21 272.942 491.725 273.529 494.39C274.115 497.056 274.085 499.81 273.441 502.464L273.446 502.497Z" fill="white"/>
<path d="M247.981 492.344C247.381 494.794 246.24 497.104 244.626 499.133C244.557 499.223 244.488 499.305 244.419 499.391L244.335 499.495L244.27 499.563C243.678 500.169 242.884 500.579 242.011 500.728C241.138 500.876 240.235 500.756 239.445 500.385C238.655 500.014 238.021 499.414 237.642 498.678C237.264 497.942 237.162 497.112 237.354 496.318C237.451 495.92 237.617 495.54 237.848 495.191C237.986 495.028 238.124 494.861 238.253 494.693C239.688 492.831 240.462 490.609 240.47 488.33C240.478 486.051 239.719 483.824 238.297 481.954C238.017 481.584 237.71 481.231 237.378 480.899C234.935 477.879 233.556 474.248 233.426 470.49C233.396 469.364 233.477 468.237 233.668 467.123C233.707 466.875 233.762 466.63 233.811 466.381C234.095 465.498 234.73 464.744 235.59 464.268C236.451 463.791 237.475 463.628 238.46 463.809C239.446 463.99 240.322 464.503 240.915 465.246C241.509 465.99 241.777 466.91 241.667 467.825C241.632 467.961 241.602 468.096 241.583 468.232C241.106 471.045 241.837 473.918 243.623 476.247C243.911 476.628 244.227 476.99 244.567 477.333C246.278 479.458 247.467 481.897 248.054 484.483C248.64 487.068 248.61 489.739 247.966 492.313L247.981 492.344Z" fill="white"/>
<path d="M255.332 455.487C255.158 456.181 254.767 456.814 254.206 457.312C253.645 457.809 252.938 458.151 252.169 458.295C251.978 458.295 251.786 458.336 251.6 458.363C250.914 458.459 250.24 458.611 249.585 458.819C249.474 458.845 249.364 458.878 249.258 458.919C249.245 458.915 249.231 458.915 249.218 458.919C248.217 459.218 247.128 459.155 246.176 458.745C245.225 458.336 244.485 457.61 244.11 456.719C243.735 455.827 243.754 454.84 244.163 453.961C244.572 453.083 245.34 452.38 246.307 452.001C246.579 451.905 246.851 451.823 247.133 451.741C248.19 451.438 249.273 451.214 250.371 451.071C250.408 451.067 250.445 451.067 250.482 451.071L251.011 451.008C251.401 450.985 251.793 451.014 252.174 451.094C252.7 451.195 253.199 451.388 253.643 451.664C254.086 451.939 254.465 452.291 254.759 452.699C255.052 453.107 255.253 453.563 255.352 454.042C255.45 454.52 255.443 455.011 255.332 455.487Z" fill="white"/>
<path d="M210.739 485.166C211.337 482.643 212.48 480.263 214.097 478.174L214.304 477.908L214.388 477.806C214.407 477.781 214.429 477.757 214.453 477.736C215.045 477.112 215.84 476.691 216.713 476.538C217.586 476.384 218.488 476.508 219.279 476.889C220.069 477.27 220.704 477.888 221.083 478.645C221.463 479.402 221.565 480.256 221.376 481.073C221.278 481.483 221.111 481.875 220.881 482.234C220.743 482.397 220.604 482.57 220.471 482.742C219.038 484.663 218.266 486.952 218.259 489.299C218.252 491.647 219.01 493.94 220.431 495.868C220.713 496.248 221.02 496.611 221.351 496.954C223.8 500.064 225.18 503.805 225.307 507.675C225.341 508.837 225.26 510 225.064 511.148C225.02 511.4 224.97 511.656 224.921 511.912C224.649 512.833 224.017 513.623 223.152 514.124C222.288 514.624 221.255 514.798 220.26 514.611C219.265 514.423 218.383 513.888 217.789 513.113C217.195 512.337 216.934 511.379 217.059 510.43C217.094 510.29 217.121 510.149 217.138 510.006C217.639 507.09 216.913 504.105 215.115 501.686C214.826 501.293 214.51 500.918 214.171 500.562C212.459 498.372 211.268 495.859 210.681 493.196C210.094 490.532 210.124 487.78 210.769 485.129L210.739 485.166Z" fill="white"/>
<path d="M203.416 521.718C203.592 521.02 203.989 520.382 204.559 519.881C205.129 519.38 205.848 519.037 206.631 518.892C206.825 518.892 207.02 518.856 207.209 518.828C207.905 518.743 208.591 518.599 209.257 518.397C209.369 518.365 209.482 518.333 209.589 518.291H209.63C210.633 518.044 211.702 518.143 212.627 518.566C213.553 518.99 214.268 519.709 214.632 520.582C214.996 521.454 214.982 522.417 214.594 523.281C214.205 524.145 213.47 524.847 212.533 525.25C212.257 525.342 211.975 525.429 211.693 525.511H211.719C210.644 525.818 209.544 526.045 208.427 526.19H208.315L207.777 526.255C207.381 526.279 206.982 526.251 206.595 526.172C206.059 526.068 205.551 525.87 205.101 525.589C204.651 525.308 204.268 524.951 203.972 524.537C203.677 524.123 203.476 523.661 203.38 523.177C203.285 522.693 203.297 522.197 203.416 521.718Z" fill="white"/>
<path d="M296.715 657.109C295.145 659.691 293.005 661.866 290.465 663.461C287.925 665.056 285.055 666.027 282.082 666.297C281.675 666.335 281.273 666.359 280.867 666.369C280.291 666.302 279.737 666.107 279.244 665.796C278.577 665.373 278.052 664.753 277.74 664.019C277.427 663.285 277.343 662.471 277.497 661.686C277.651 660.902 278.037 660.183 278.603 659.628C279.168 659.072 279.887 658.705 280.663 658.577C280.923 658.577 281.184 658.577 281.444 658.528C283.9 658.292 286.218 657.264 288.062 655.596C289.906 653.927 291.179 651.704 291.697 649.249C291.754 648.97 291.801 648.686 291.839 648.402C291.932 648.043 292.079 647.7 292.274 647.386C292.722 646.652 293.395 646.088 294.189 645.782C294.983 645.476 295.854 645.444 296.668 645.692C297.481 645.94 298.191 646.454 298.689 647.155C299.187 647.855 299.444 648.703 299.42 649.567C299.368 649.932 299.307 650.298 299.231 650.669C298.776 652.951 297.924 655.132 296.715 657.109Z" fill="white"/>
</svg>
