<svg width="645" height="768" viewBox="0 0 645 768" fill="none" xmlns="http://www.w3.org/2000/svg">
<rect width="645" height="768" fill="#F6F6F6"/>
<rect width="530" height="150" transform="translate(58 89)" fill="#0B5351"/>
<path d="M516.136 205.6H514.344L514.088 207.2H515.88L515.672 208.56H513.864L513.416 211.2H511.992L512.44 208.56H510.648L510.2 211.2H508.776L509.224 208.56H507.4L507.624 207.2H509.448L509.704 205.6H507.88L508.104 204.24H509.944L510.376 201.6H511.8L511.368 204.24H513.16L513.592 201.6H515.016L514.584 204.24H516.36L516.136 205.6ZM512.664 207.2L512.92 205.6H511.128L510.872 207.2H512.664ZM525.038 210.624C524.27 211.68 523.192 212.208 521.806 212.208C520.419 212.208 519.336 211.68 518.558 210.624C517.79 209.568 517.406 208.16 517.406 206.4C517.406 204.64 517.79 203.232 518.558 202.176C519.336 201.12 520.419 200.592 521.806 200.592C523.192 200.592 524.27 201.12 525.038 202.176C525.816 203.232 526.206 204.64 526.206 206.4C526.206 208.16 525.816 209.568 525.038 210.624ZM521.806 210.416C522.638 210.416 523.272 210.069 523.71 209.376C524.147 208.683 524.366 207.691 524.366 206.4C524.366 205.109 524.147 204.117 523.71 203.424C523.272 202.731 522.638 202.384 521.806 202.384C520.984 202.384 520.35 202.731 519.902 203.424C519.464 204.117 519.246 205.109 519.246 206.4C519.246 207.691 519.464 208.683 519.902 209.376C520.35 210.069 520.984 210.416 521.806 210.416ZM534.556 206.192C535.046 206.448 535.43 206.8 535.708 207.248C535.985 207.696 536.124 208.213 536.124 208.8C536.124 209.717 535.798 210.48 535.148 211.088C534.497 211.696 533.702 212 532.764 212H527.964V200.8H532.412C533.329 200.8 534.102 201.099 534.732 201.696C535.372 202.283 535.692 203.019 535.692 203.904C535.692 204.875 535.313 205.637 534.556 206.192ZM532.412 202.528H529.804V205.472H532.412C532.817 205.472 533.158 205.333 533.436 205.056C533.713 204.768 533.852 204.416 533.852 204C533.852 203.584 533.713 203.237 533.436 202.96C533.158 202.672 532.817 202.528 532.412 202.528ZM532.764 210.272C533.19 210.272 533.548 210.123 533.836 209.824C534.134 209.515 534.284 209.141 534.284 208.704C534.284 208.267 534.134 207.899 533.836 207.6C533.548 207.291 533.19 207.136 532.764 207.136H529.804V210.272H532.764ZM541.009 205.024C542.076 205.024 542.977 205.344 543.713 205.984C544.449 206.613 544.817 207.488 544.817 208.608C544.817 209.728 544.439 210.608 543.681 211.248C542.924 211.888 541.996 212.208 540.897 212.208C540.012 212.208 539.228 212.005 538.545 211.6C537.863 211.184 537.377 210.587 537.089 209.808L538.673 208.896C538.972 209.909 539.713 210.416 540.897 210.416C541.527 210.416 542.028 210.256 542.401 209.936C542.785 209.605 542.977 209.163 542.977 208.608C542.977 208.053 542.791 207.616 542.417 207.296C542.044 206.976 541.548 206.816 540.929 206.816H537.665L538.097 200.8H544.337V202.528H539.793L539.601 205.024H541.009ZM550.36 205.376C551.17 205.568 551.826 205.947 552.328 206.512C552.84 207.067 553.096 207.765 553.096 208.608C553.096 209.728 552.717 210.608 551.96 211.248C551.202 211.888 550.274 212.208 549.176 212.208C548.322 212.208 547.554 212.011 546.872 211.616C546.2 211.221 545.714 210.645 545.416 209.888L546.984 208.976C547.314 209.936 548.045 210.416 549.176 210.416C549.816 210.416 550.322 210.256 550.696 209.936C551.069 209.605 551.256 209.163 551.256 208.608C551.256 208.053 551.069 207.616 550.696 207.296C550.322 206.976 549.816 206.816 549.176 206.816H548.76L548.024 205.712L550.44 202.528H545.752V200.8H552.632V202.368L550.36 205.376ZM557.9 205.024C558.967 205.024 559.868 205.344 560.604 205.984C561.34 206.613 561.708 207.488 561.708 208.608C561.708 209.728 561.329 210.608 560.572 211.248C559.815 211.888 558.887 212.208 557.788 212.208C556.903 212.208 556.119 212.005 555.436 211.6C554.753 211.184 554.268 210.587 553.98 209.808L555.564 208.896C555.863 209.909 556.604 210.416 557.788 210.416C558.417 210.416 558.919 210.256 559.292 209.936C559.676 209.605 559.868 209.163 559.868 208.608C559.868 208.053 559.681 207.616 559.308 207.296C558.935 206.976 558.439 206.816 557.82 206.816H554.556L554.988 200.8H561.228V202.528H556.684L556.492 205.024H557.9ZM564.902 200.8H566.502V212H564.662V202.768L562.406 203.408L561.958 201.84L564.902 200.8Z" fill="white"/>
<rect width="176.667" height="80" transform="translate(58 239)" fill="#F9FCF8"/>
<path d="M159.802 285.6H158.01L157.754 287.2H159.546L159.338 288.56H157.53L157.082 291.2H155.658L156.106 288.56H154.314L153.866 291.2H152.442L152.89 288.56H151.066L151.29 287.2H153.114L153.37 285.6H151.546L151.77 284.24H153.61L154.042 281.6H155.466L155.034 284.24H156.826L157.258 281.6H158.682L158.25 284.24H160.026L159.802 285.6ZM156.33 287.2L156.586 285.6H154.794L154.538 287.2H156.33ZM168.112 282.56H163.392V285.696H167.952V287.456H163.392V292H161.552V280.8H168.112V282.56ZM177.033 284.416C177.033 285.269 176.809 286.021 176.361 286.672L172.825 292H170.713L173.273 288.24H173.081C171.918 288.24 170.964 287.888 170.217 287.184C169.481 286.469 169.113 285.547 169.113 284.416C169.113 283.285 169.481 282.368 170.217 281.664C170.964 280.949 171.918 280.592 173.081 280.592C174.244 280.592 175.193 280.949 175.929 281.664C176.665 282.368 177.033 283.285 177.033 284.416ZM170.953 284.416C170.953 285.035 171.15 285.536 171.545 285.92C171.95 286.304 172.462 286.496 173.081 286.496C173.7 286.496 174.206 286.309 174.601 285.936C174.996 285.552 175.193 285.045 175.193 284.416C175.193 283.787 174.996 283.285 174.601 282.912C174.206 282.528 173.7 282.336 173.081 282.336C172.462 282.336 171.95 282.528 171.545 282.912C171.15 283.285 170.953 283.787 170.953 284.416ZM185.112 282.56H180.392V285.696H184.952V287.456H180.392V292H178.552V280.8H185.112V282.56ZM192.129 292.208C190.444 292.208 189.046 291.653 187.937 290.544C186.828 289.424 186.273 288.043 186.273 286.4C186.273 284.757 186.828 283.381 187.937 282.272C189.046 281.152 190.444 280.592 192.129 280.592C193.142 280.592 194.076 280.832 194.929 281.312C195.793 281.792 196.465 282.443 196.945 283.264L195.345 284.192C195.046 283.637 194.609 283.2 194.033 282.88C193.468 282.549 192.833 282.384 192.129 282.384C190.934 282.384 189.964 282.763 189.217 283.52C188.481 284.277 188.113 285.237 188.113 286.4C188.113 287.563 188.481 288.523 189.217 289.28C189.964 290.037 190.934 290.416 192.129 290.416C192.833 290.416 193.473 290.256 194.049 289.936C194.625 289.605 195.057 289.163 195.345 288.608L196.945 289.52C196.476 290.341 195.809 290.997 194.945 291.488C194.092 291.968 193.153 292.208 192.129 292.208ZM205.034 282.56H200.314V285.696H204.874V287.456H200.314V292H198.474V280.8H205.034V282.56ZM212.403 286.176C213.501 286.784 214.051 287.691 214.051 288.896C214.051 289.92 213.693 290.731 212.979 291.328C212.264 291.915 211.315 292.208 210.131 292.208C208.947 292.208 207.992 291.915 207.267 291.328C206.552 290.731 206.195 289.92 206.195 288.896C206.195 288.32 206.339 287.797 206.627 287.328C206.915 286.848 207.32 286.464 207.843 286.176C207 285.621 206.579 284.832 206.579 283.808C206.579 282.784 206.92 281.995 207.603 281.44C208.285 280.875 209.128 280.592 210.131 280.592C211.123 280.592 211.96 280.875 212.643 281.44C213.336 281.995 213.683 282.784 213.683 283.808C213.683 284.832 213.256 285.621 212.403 286.176ZM210.131 282.336C209.629 282.336 209.219 282.469 208.899 282.736C208.579 283.003 208.419 283.387 208.419 283.888C208.419 284.368 208.579 284.747 208.899 285.024C209.229 285.301 209.64 285.44 210.131 285.44C210.611 285.44 211.016 285.301 211.347 285.024C211.677 284.747 211.843 284.368 211.843 283.888C211.843 283.387 211.677 283.003 211.347 282.736C211.027 282.469 210.621 282.336 210.131 282.336ZM210.131 290.464C210.749 290.464 211.251 290.315 211.635 290.016C212.019 289.707 212.211 289.275 212.211 288.72C212.211 288.165 212.019 287.739 211.635 287.44C211.251 287.131 210.749 286.976 210.131 286.976C209.501 286.976 208.995 287.131 208.611 287.44C208.227 287.739 208.035 288.165 208.035 288.72C208.035 289.275 208.227 289.707 208.611 290.016C208.995 290.315 209.501 290.464 210.131 290.464Z" fill="#0B5351"/>
<rect width="176.667" height="80" transform="translate(234.666 239)" fill="#EAF5E6"/>
<path d="M336.468 285.6H334.676L334.42 287.2H336.212L336.004 288.56H334.196L333.748 291.2H332.324L332.772 288.56H330.98L330.532 291.2H329.108L329.556 288.56H327.732L327.956 287.2H329.78L330.036 285.6H328.212L328.436 284.24H330.276L330.708 281.6H332.132L331.7 284.24H333.492L333.924 281.6H335.348L334.916 284.24H336.692L336.468 285.6ZM332.996 287.2L333.252 285.6H331.46L331.204 287.2H332.996ZM340.058 290.24H345.018V292H338.218V280.8H344.938V282.56H340.058V285.472H344.538V287.216H340.058V290.24ZM354.154 292L353.37 289.744H348.602L347.818 292H345.818L349.882 280.8H352.09L356.138 292H354.154ZM349.21 288.016H352.762L350.986 282.96L349.21 288.016ZM363.903 282.56H359.183V285.696H363.743V287.456H359.183V292H357.343V280.8H363.903V282.56ZM368.904 285.024C369.971 285.024 370.872 285.344 371.608 285.984C372.344 286.613 372.712 287.488 372.712 288.608C372.712 289.728 372.333 290.608 371.576 291.248C370.819 291.888 369.891 292.208 368.792 292.208C367.907 292.208 367.123 292.005 366.44 291.6C365.757 291.184 365.272 290.587 364.984 289.808L366.568 288.896C366.867 289.909 367.608 290.416 368.792 290.416C369.421 290.416 369.923 290.256 370.296 289.936C370.68 289.605 370.872 289.163 370.872 288.608C370.872 288.053 370.685 287.616 370.312 287.296C369.939 286.976 369.443 286.816 368.824 286.816H365.56L365.992 280.8H372.232V282.528H367.688L367.496 285.024H368.904ZM376.183 290.24H381.143V292H374.343V280.8H381.063V282.56H376.183V285.472H380.663V287.216H376.183V290.24ZM386.075 284.56C387.238 284.56 388.187 284.917 388.923 285.632C389.659 286.336 390.027 287.253 390.027 288.384C390.027 289.515 389.659 290.437 388.923 291.152C388.187 291.856 387.238 292.208 386.075 292.208C384.902 292.208 383.947 291.856 383.211 291.152C382.475 290.437 382.107 289.515 382.107 288.384C382.107 287.531 382.331 286.779 382.779 286.128L386.331 280.8H388.427L385.867 284.56H386.075ZM386.075 290.464C386.694 290.464 387.2 290.277 387.595 289.904C387.99 289.52 388.187 289.013 388.187 288.384C388.187 287.755 387.99 287.253 387.595 286.88C387.2 286.496 386.694 286.304 386.075 286.304C385.446 286.304 384.934 286.496 384.539 286.88C384.144 287.253 383.947 287.755 383.947 288.384C383.947 289.013 384.144 289.52 384.539 289.904C384.934 290.277 385.446 290.464 386.075 290.464Z" fill="#0B5351"/>
<rect width="176.667" height="80" transform="translate(411.334 239)" fill="#C7E6BC"/>
<path d="M509.136 285.6H507.344L507.088 287.2H508.88L508.672 288.56H506.864L506.416 291.2H504.992L505.44 288.56H503.648L503.2 291.2H501.776L502.224 288.56H500.4L500.624 287.2H502.448L502.704 285.6H500.88L501.104 284.24H502.944L503.376 281.6H504.8L504.368 284.24H506.16L506.592 281.6H508.016L507.584 284.24H509.36L509.136 285.6ZM505.664 287.2L505.92 285.6H504.128L503.872 287.2H505.664ZM516.182 292.208C514.496 292.208 513.099 291.653 511.99 290.544C510.88 289.424 510.326 288.043 510.326 286.4C510.326 284.757 510.88 283.381 511.99 282.272C513.099 281.152 514.496 280.592 516.182 280.592C517.195 280.592 518.128 280.832 518.982 281.312C519.846 281.792 520.518 282.443 520.998 283.264L519.398 284.192C519.099 283.637 518.662 283.2 518.086 282.88C517.52 282.549 516.886 282.384 516.182 282.384C514.987 282.384 514.016 282.763 513.27 283.52C512.534 284.277 512.166 285.237 512.166 286.4C512.166 287.563 512.534 288.523 513.27 289.28C514.016 290.037 514.987 290.416 516.182 290.416C516.886 290.416 517.526 290.256 518.102 289.936C518.678 289.605 519.11 289.163 519.398 288.608L520.998 289.52C520.528 290.341 519.862 290.997 518.998 291.488C518.144 291.968 517.206 292.208 516.182 292.208ZM521.49 280.8H528.61V282.4L524.674 292H522.738L526.61 282.56H521.49V280.8ZM532.054 290.24H537.014V292H530.214V280.8H536.934V282.56H532.054V285.472H536.534V287.216H532.054V290.24ZM541.946 284.56C543.109 284.56 544.058 284.917 544.794 285.632C545.53 286.336 545.898 287.253 545.898 288.384C545.898 289.515 545.53 290.437 544.794 291.152C544.058 291.856 543.109 292.208 541.946 292.208C540.773 292.208 539.818 291.856 539.082 291.152C538.346 290.437 537.978 289.515 537.978 288.384C537.978 287.531 538.202 286.779 538.65 286.128L542.202 280.8H544.298L541.738 284.56H541.946ZM541.946 290.464C542.565 290.464 543.071 290.277 543.466 289.904C543.861 289.52 544.058 289.013 544.058 288.384C544.058 287.755 543.861 287.253 543.466 286.88C543.071 286.496 542.565 286.304 541.946 286.304C541.317 286.304 540.805 286.496 540.41 286.88C540.015 287.253 539.818 287.755 539.818 288.384C539.818 289.013 540.015 289.52 540.41 289.904C540.805 290.277 541.317 290.464 541.946 290.464ZM554.009 286.192C554.5 286.448 554.884 286.8 555.161 287.248C555.438 287.696 555.577 288.213 555.577 288.8C555.577 289.717 555.252 290.48 554.601 291.088C553.95 291.696 553.156 292 552.217 292H547.417V280.8H551.865C552.782 280.8 553.556 281.099 554.185 281.696C554.825 282.283 555.145 283.019 555.145 283.904C555.145 284.875 554.766 285.637 554.009 286.192ZM551.865 282.528H549.257V285.472H551.865C552.27 285.472 552.612 285.333 552.889 285.056C553.166 284.768 553.305 284.416 553.305 284C553.305 283.584 553.166 283.237 552.889 282.96C552.612 282.672 552.27 282.528 551.865 282.528ZM552.217 290.272C552.644 290.272 553.001 290.123 553.289 289.824C553.588 289.515 553.737 289.141 553.737 288.704C553.737 288.267 553.588 287.899 553.289 287.6C553.001 287.291 552.644 287.136 552.217 287.136H549.257V290.272H552.217ZM562.479 292.208C560.793 292.208 559.396 291.653 558.287 290.544C557.177 289.424 556.623 288.043 556.623 286.4C556.623 284.757 557.177 283.381 558.287 282.272C559.396 281.152 560.793 280.592 562.479 280.592C563.492 280.592 564.425 280.832 565.279 281.312C566.143 281.792 566.815 282.443 567.295 283.264L565.695 284.192C565.396 283.637 564.959 283.2 564.383 282.88C563.817 282.549 563.183 282.384 562.479 282.384C561.284 282.384 560.313 282.763 559.567 283.52C558.831 284.277 558.463 285.237 558.463 286.4C558.463 287.563 558.831 288.523 559.567 289.28C560.313 290.037 561.284 290.416 562.479 290.416C563.183 290.416 563.823 290.256 564.399 289.936C564.975 289.605 565.407 289.163 565.695 288.608L567.295 289.52C566.825 290.341 566.159 290.997 565.295 291.488C564.441 291.968 563.503 292.208 562.479 292.208Z" fill="#0B5351"/>
<rect width="530" height="120" transform="translate(58 319)" fill="#FF9847"/>
<path d="M515.136 405.6H513.344L513.088 407.2H514.88L514.672 408.56H512.864L512.416 411.2H510.992L511.44 408.56H509.648L509.2 411.2H507.776L508.224 408.56H506.4L506.624 407.2H508.448L508.704 405.6H506.88L507.104 404.24H508.944L509.376 401.6H510.8L510.368 404.24H512.16L512.592 401.6H514.016L513.584 404.24H515.36L515.136 405.6ZM511.664 407.2L511.92 405.6H510.128L509.872 407.2H511.664ZM523.446 402.56H518.726V405.696H523.286V407.456H518.726V412H516.886V400.8H523.446V402.56ZM531.727 402.56H527.007V405.696H531.567V407.456H527.007V412H525.167V400.8H531.727V402.56ZM540.648 404.416C540.648 405.269 540.424 406.021 539.976 406.672L536.44 412H534.328L536.888 408.24H536.696C535.533 408.24 534.579 407.888 533.832 407.184C533.096 406.469 532.728 405.547 532.728 404.416C532.728 403.285 533.096 402.368 533.832 401.664C534.579 400.949 535.533 400.592 536.696 400.592C537.859 400.592 538.808 400.949 539.544 401.664C540.28 402.368 540.648 403.285 540.648 404.416ZM534.568 404.416C534.568 405.035 534.765 405.536 535.16 405.92C535.565 406.304 536.077 406.496 536.696 406.496C537.315 406.496 537.821 406.309 538.216 405.936C538.611 405.552 538.808 405.045 538.808 404.416C538.808 403.787 538.611 403.285 538.216 402.912C537.821 402.528 537.315 402.336 536.696 402.336C536.077 402.336 535.565 402.528 535.16 402.912C534.765 403.285 534.568 403.787 534.568 404.416ZM547.815 406.176C548.914 406.784 549.463 407.691 549.463 408.896C549.463 409.92 549.106 410.731 548.391 411.328C547.676 411.915 546.727 412.208 545.543 412.208C544.359 412.208 543.404 411.915 542.679 411.328C541.964 410.731 541.607 409.92 541.607 408.896C541.607 408.32 541.751 407.797 542.039 407.328C542.327 406.848 542.732 406.464 543.255 406.176C542.412 405.621 541.991 404.832 541.991 403.808C541.991 402.784 542.332 401.995 543.015 401.44C543.698 400.875 544.54 400.592 545.543 400.592C546.535 400.592 547.372 400.875 548.055 401.44C548.748 401.995 549.095 402.784 549.095 403.808C549.095 404.832 548.668 405.621 547.815 406.176ZM545.543 402.336C545.042 402.336 544.631 402.469 544.311 402.736C543.991 403.003 543.831 403.387 543.831 403.888C543.831 404.368 543.991 404.747 544.311 405.024C544.642 405.301 545.052 405.44 545.543 405.44C546.023 405.44 546.428 405.301 546.759 405.024C547.09 404.747 547.255 404.368 547.255 403.888C547.255 403.387 547.09 403.003 546.759 402.736C546.439 402.469 546.034 402.336 545.543 402.336ZM545.543 410.464C546.162 410.464 546.663 410.315 547.047 410.016C547.431 409.707 547.623 409.275 547.623 408.72C547.623 408.165 547.431 407.739 547.047 407.44C546.663 407.131 546.162 406.976 545.543 406.976C544.914 406.976 544.407 407.131 544.023 407.44C543.639 407.739 543.447 408.165 543.447 408.72C543.447 409.275 543.639 409.707 544.023 410.016C544.407 410.315 544.914 410.464 545.543 410.464ZM559.336 408.272V409.984H558.056V412H556.2V409.984H550.696V408.272L554.552 400.8H556.552L552.696 408.272H556.2V405.36H558.056V408.272H559.336ZM559.537 400.8H566.657V402.4L562.721 412H560.785L564.657 402.56H559.537V400.8Z" fill="white"/>
<rect width="530" height="80" transform="translate(58 439)" fill="#FCD675"/>
<path d="M512.136 485.6H510.344L510.088 487.2H511.88L511.672 488.56H509.864L509.416 491.2H507.992L508.44 488.56H506.648L506.2 491.2H504.776L505.224 488.56H503.4L503.624 487.2H505.448L505.704 485.6H503.88L504.104 484.24H505.944L506.376 481.6H507.8L507.368 484.24H509.16L509.592 481.6H511.016L510.584 484.24H512.36L512.136 485.6ZM508.664 487.2L508.92 485.6H507.128L506.872 487.2H508.664ZM520.446 482.56H515.726V485.696H520.286V487.456H515.726V492H513.886V480.8H520.446V482.56ZM527.463 492.208C525.778 492.208 524.38 491.653 523.271 490.544C522.162 489.424 521.607 488.043 521.607 486.4C521.607 484.757 522.162 483.381 523.271 482.272C524.38 481.152 525.778 480.592 527.463 480.592C528.476 480.592 529.41 480.832 530.263 481.312C531.127 481.792 531.799 482.443 532.279 483.264L530.679 484.192C530.38 483.637 529.943 483.2 529.367 482.88C528.802 482.549 528.167 482.384 527.463 482.384C526.268 482.384 525.298 482.763 524.551 483.52C523.815 484.277 523.447 485.237 523.447 486.4C523.447 487.563 523.815 488.523 524.551 489.28C525.298 490.037 526.268 490.416 527.463 490.416C528.167 490.416 528.807 490.256 529.383 489.936C529.959 489.605 530.391 489.163 530.679 488.608L532.279 489.52C531.81 490.341 531.143 490.997 530.279 491.488C529.426 491.968 528.487 492.208 527.463 492.208ZM538.208 480.8C539.744 480.8 541.018 481.339 542.032 482.416C543.056 483.493 543.568 484.821 543.568 486.4C543.568 487.968 543.056 489.296 542.032 490.384C541.018 491.461 539.744 492 538.208 492H533.808V480.8H538.208ZM538.208 490.24C539.264 490.24 540.122 489.877 540.784 489.152C541.456 488.427 541.792 487.509 541.792 486.4C541.792 485.28 541.456 484.363 540.784 483.648C540.122 482.923 539.264 482.56 538.208 482.56H535.648V490.24H538.208ZM548.493 484.56C549.656 484.56 550.605 484.917 551.341 485.632C552.077 486.336 552.445 487.253 552.445 488.384C552.445 489.515 552.077 490.437 551.341 491.152C550.605 491.856 549.656 492.208 548.493 492.208C547.32 492.208 546.365 491.856 545.629 491.152C544.893 490.437 544.525 489.515 544.525 488.384C544.525 487.531 544.749 486.779 545.197 486.128L548.749 480.8H550.845L548.285 484.56H548.493ZM548.493 490.464C549.112 490.464 549.618 490.277 550.013 489.904C550.408 489.52 550.605 489.013 550.605 488.384C550.605 487.755 550.408 487.253 550.013 486.88C549.618 486.496 549.112 486.304 548.493 486.304C547.864 486.304 547.352 486.496 546.957 486.88C546.562 487.253 546.365 487.755 546.365 488.384C546.365 489.013 546.562 489.52 546.957 489.904C547.352 490.277 547.864 490.464 548.493 490.464ZM552.115 480.8H559.235V482.4L555.299 492H553.363L557.235 482.56H552.115V480.8ZM563.15 485.024C564.217 485.024 565.118 485.344 565.854 485.984C566.59 486.613 566.958 487.488 566.958 488.608C566.958 489.728 566.579 490.608 565.822 491.248C565.065 491.888 564.137 492.208 563.038 492.208C562.153 492.208 561.369 492.005 560.686 491.6C560.003 491.184 559.518 490.587 559.23 489.808L560.814 488.896C561.113 489.909 561.854 490.416 563.038 490.416C563.667 490.416 564.169 490.256 564.542 489.936C564.926 489.605 565.118 489.163 565.118 488.608C565.118 488.053 564.931 487.616 564.558 487.296C564.185 486.976 563.689 486.816 563.07 486.816H559.806L560.238 480.8H566.478V482.528H561.934L561.742 485.024H563.15Z" fill="#FF9847"/>
<rect width="265" height="80" transform="translate(58 519)" fill="#B4B4B4"/>
<path d="M245.136 565.6H243.344L243.088 567.2H244.88L244.672 568.56H242.864L242.416 571.2H240.992L241.44 568.56H239.648L239.2 571.2H237.776L238.224 568.56H236.4L236.624 567.2H238.448L238.704 565.6H236.88L237.104 564.24H238.944L239.376 561.6H240.8L240.368 564.24H242.16L242.592 561.6H244.016L243.584 564.24H245.36L245.136 565.6ZM241.664 567.2L241.92 565.6H240.128L239.872 567.2H241.664ZM253.478 566.192C253.968 566.448 254.352 566.8 254.63 567.248C254.907 567.696 255.046 568.213 255.046 568.8C255.046 569.717 254.72 570.48 254.07 571.088C253.419 571.696 252.624 572 251.686 572H246.886V560.8H251.334C252.251 560.8 253.024 561.099 253.654 561.696C254.294 562.283 254.614 563.019 254.614 563.904C254.614 564.875 254.235 565.637 253.478 566.192ZM251.334 562.528H248.726V565.472H251.334C251.739 565.472 252.08 565.333 252.358 565.056C252.635 564.768 252.774 564.416 252.774 564C252.774 563.584 252.635 563.237 252.358 562.96C252.08 562.672 251.739 562.528 251.334 562.528ZM251.686 570.272C252.112 570.272 252.47 570.123 252.758 569.824C253.056 569.515 253.206 569.141 253.206 568.704C253.206 568.267 253.056 567.899 252.758 567.6C252.47 567.291 252.112 567.136 251.686 567.136H248.726V570.272H251.686ZM264.539 568.272V569.984H263.259V572H261.403V569.984H255.899V568.272L259.755 560.8H261.755L257.899 568.272H261.403V565.36H263.259V568.272H264.539ZM272.525 566.192C273.015 566.448 273.399 566.8 273.677 567.248C273.954 567.696 274.093 568.213 274.093 568.8C274.093 569.717 273.767 570.48 273.117 571.088C272.466 571.696 271.671 572 270.733 572H265.933V560.8H270.381C271.298 560.8 272.071 561.099 272.701 561.696C273.341 562.283 273.661 563.019 273.661 563.904C273.661 564.875 273.282 565.637 272.525 566.192ZM270.381 562.528H267.773V565.472H270.381C270.786 565.472 271.127 565.333 271.405 565.056C271.682 564.768 271.821 564.416 271.821 564C271.821 563.584 271.682 563.237 271.405 562.96C271.127 562.672 270.786 562.528 270.381 562.528ZM270.733 570.272C271.159 570.272 271.517 570.123 271.805 569.824C272.103 569.515 272.253 569.141 272.253 568.704C272.253 568.267 272.103 567.899 271.805 567.6C271.517 567.291 271.159 567.136 270.733 567.136H267.773V570.272H270.733ZM283.586 568.272V569.984H282.306V572H280.45V569.984H274.946V568.272L278.802 560.8H280.802L276.946 568.272H280.45V565.36H282.306V568.272H283.586ZM291.571 566.192C292.062 566.448 292.446 566.8 292.723 567.248C293.001 567.696 293.139 568.213 293.139 568.8C293.139 569.717 292.814 570.48 292.163 571.088C291.513 571.696 290.718 572 289.779 572H284.979V560.8H289.427C290.345 560.8 291.118 561.099 291.747 561.696C292.387 562.283 292.707 563.019 292.707 563.904C292.707 564.875 292.329 565.637 291.571 566.192ZM289.427 562.528H286.819V565.472H289.427C289.833 565.472 290.174 565.333 290.451 565.056C290.729 564.768 290.867 564.416 290.867 564C290.867 563.584 290.729 563.237 290.451 562.96C290.174 562.672 289.833 562.528 289.427 562.528ZM289.779 570.272C290.206 570.272 290.563 570.123 290.851 569.824C291.15 569.515 291.299 569.141 291.299 568.704C291.299 568.267 291.15 567.899 290.851 567.6C290.563 567.291 290.206 567.136 289.779 567.136H286.819V570.272H289.779ZM302.633 568.272V569.984H301.353V572H299.497V569.984H293.993V568.272L297.849 560.8H299.849L295.993 568.272H299.497V565.36H301.353V568.272H302.633Z" fill="white"/>
<rect width="265" height="80" transform="translate(323 519)" fill="#4F4F4F"/>
<path d="M514.136 565.6H512.344L512.088 567.2H513.88L513.672 568.56H511.864L511.416 571.2H509.992L510.44 568.56H508.648L508.2 571.2H506.776L507.224 568.56H505.4L505.624 567.2H507.448L507.704 565.6H505.88L506.104 564.24H507.944L508.376 561.6H509.8L509.368 564.24H511.16L511.592 561.6H513.016L512.584 564.24H514.36L514.136 565.6ZM510.664 567.2L510.92 565.6H509.128L508.872 567.2H510.664ZM523.774 568.272V569.984H522.494V572H520.638V569.984H515.134V568.272L518.99 560.8H520.99L517.134 568.272H520.638V565.36H522.494V568.272H523.774ZM531.727 562.56H527.007V565.696H531.567V567.456H527.007V572H525.167V560.8H531.727V562.56ZM541.18 568.272V569.984H539.9V572H538.044V569.984H532.54V568.272L536.396 560.8H538.396L534.54 568.272H538.044V565.36H539.9V568.272H541.18ZM549.133 562.56H544.413V565.696H548.973V567.456H544.413V572H542.573V560.8H549.133V562.56ZM558.586 568.272V569.984H557.306V572H555.45V569.984H549.946V568.272L553.802 560.8H555.802L551.946 568.272H555.45V565.36H557.306V568.272H558.586ZM566.539 562.56H561.819V565.696H566.379V567.456H561.819V572H559.979V560.8H566.539V562.56Z" fill="white"/>
<rect width="265" height="80" transform="translate(58 599)" fill="#23D639"/>
<path d="M248.136 645.6H246.344L246.088 647.2H247.88L247.672 648.56H245.864L245.416 651.2H243.992L244.44 648.56H242.648L242.2 651.2H240.776L241.224 648.56H239.4L239.624 647.2H241.448L241.704 645.6H239.88L240.104 644.24H241.944L242.376 641.6H243.8L243.368 644.24H245.16L245.592 641.6H247.016L246.584 644.24H248.36L248.136 645.6ZM244.664 647.2L244.92 645.6H243.128L242.872 647.2H244.664ZM249.262 652V650.56L253.166 646.576C254.115 645.627 254.59 644.805 254.59 644.112C254.59 643.568 254.424 643.147 254.094 642.848C253.774 642.539 253.363 642.384 252.862 642.384C251.923 642.384 251.23 642.848 250.782 643.776L249.23 642.864C249.582 642.117 250.078 641.552 250.718 641.168C251.358 640.784 252.067 640.592 252.846 640.592C253.827 640.592 254.67 640.901 255.374 641.52C256.078 642.139 256.43 642.981 256.43 644.048C256.43 645.189 255.795 646.405 254.526 647.696L251.998 650.224H256.638V652H249.262ZM262.422 645.376C263.233 645.568 263.889 645.947 264.39 646.512C264.902 647.067 265.158 647.765 265.158 648.608C265.158 649.728 264.779 650.608 264.022 651.248C263.265 651.888 262.337 652.208 261.238 652.208C260.385 652.208 259.617 652.011 258.934 651.616C258.262 651.221 257.777 650.645 257.478 649.888L259.046 648.976C259.377 649.936 260.107 650.416 261.238 650.416C261.878 650.416 262.385 650.256 262.758 649.936C263.131 649.605 263.318 649.163 263.318 648.608C263.318 648.053 263.131 647.616 262.758 647.296C262.385 646.976 261.878 646.816 261.238 646.816H260.822L260.086 645.712L262.502 642.528H257.814V640.8H264.694V642.368L262.422 645.376ZM271.239 640.8C272.775 640.8 274.049 641.339 275.063 642.416C276.087 643.493 276.599 644.821 276.599 646.4C276.599 647.968 276.087 649.296 275.063 650.384C274.049 651.461 272.775 652 271.239 652H266.839V640.8H271.239ZM271.239 650.24C272.295 650.24 273.153 649.877 273.815 649.152C274.487 648.427 274.823 647.509 274.823 646.4C274.823 645.28 274.487 644.363 273.815 643.648C273.153 642.923 272.295 642.56 271.239 642.56H268.679V650.24H271.239ZM281.524 644.56C282.687 644.56 283.636 644.917 284.372 645.632C285.108 646.336 285.476 647.253 285.476 648.384C285.476 649.515 285.108 650.437 284.372 651.152C283.636 651.856 282.687 652.208 281.524 652.208C280.351 652.208 279.396 651.856 278.66 651.152C277.924 650.437 277.556 649.515 277.556 648.384C277.556 647.531 277.78 646.779 278.228 646.128L281.78 640.8H283.876L281.316 644.56H281.524ZM281.524 650.464C282.143 650.464 282.65 650.277 283.044 649.904C283.439 649.52 283.636 649.013 283.636 648.384C283.636 647.755 283.439 647.253 283.044 646.88C282.65 646.496 282.143 646.304 281.524 646.304C280.895 646.304 280.383 646.496 279.988 646.88C279.594 647.253 279.396 647.755 279.396 648.384C279.396 649.013 279.594 649.52 279.988 649.904C280.383 650.277 280.895 650.464 281.524 650.464ZM291.063 645.376C291.873 645.568 292.529 645.947 293.031 646.512C293.543 647.067 293.799 647.765 293.799 648.608C293.799 649.728 293.42 650.608 292.663 651.248C291.905 651.888 290.977 652.208 289.879 652.208C289.025 652.208 288.257 652.011 287.575 651.616C286.903 651.221 286.417 650.645 286.119 649.888L287.687 648.976C288.017 649.936 288.748 650.416 289.879 650.416C290.519 650.416 291.025 650.256 291.399 649.936C291.772 649.605 291.959 649.163 291.959 648.608C291.959 648.053 291.772 647.616 291.399 647.296C291.025 646.976 290.519 646.816 289.879 646.816H289.463L288.727 645.712L291.143 642.528H286.455V640.8H293.335V642.368L291.063 645.376ZM302.211 644.416C302.211 645.269 301.987 646.021 301.539 646.672L298.003 652H295.891L298.451 648.24H298.259C297.096 648.24 296.141 647.888 295.395 647.184C294.659 646.469 294.291 645.547 294.291 644.416C294.291 643.285 294.659 642.368 295.395 641.664C296.141 640.949 297.096 640.592 298.259 640.592C299.421 640.592 300.371 640.949 301.107 641.664C301.843 642.368 302.211 643.285 302.211 644.416ZM296.131 644.416C296.131 645.035 296.328 645.536 296.723 645.92C297.128 646.304 297.64 646.496 298.259 646.496C298.877 646.496 299.384 646.309 299.779 645.936C300.173 645.552 300.371 645.045 300.371 644.416C300.371 643.787 300.173 643.285 299.779 642.912C299.384 642.528 298.877 642.336 298.259 642.336C297.64 642.336 297.128 642.528 296.723 642.912C296.328 643.285 296.131 643.787 296.131 644.416Z" fill="white"/>
<rect width="265" height="80" transform="translate(323 599)" fill="#FF0000"/>
<path d="M510.136 645.6H508.344L508.088 647.2H509.88L509.672 648.56H507.864L507.416 651.2H505.992L506.44 648.56H504.648L504.2 651.2H502.776L503.224 648.56H501.4L501.624 647.2H503.448L503.704 645.6H501.88L502.104 644.24H503.944L504.376 641.6H505.8L505.368 644.24H507.16L507.592 641.6H509.016L508.584 644.24H510.36L510.136 645.6ZM506.664 647.2L506.92 645.6H505.128L504.872 647.2H506.664ZM518.446 642.56H513.726V645.696H518.286V647.456H513.726V652H511.886V640.8H518.446V642.56ZM526.727 642.56H522.007V645.696H526.567V647.456H522.007V652H520.167V640.8H526.727V642.56ZM535.6 650.624C534.832 651.68 533.755 652.208 532.368 652.208C530.981 652.208 529.899 651.68 529.12 650.624C528.352 649.568 527.968 648.16 527.968 646.4C527.968 644.64 528.352 643.232 529.12 642.176C529.899 641.12 530.981 640.592 532.368 640.592C533.755 640.592 534.832 641.12 535.6 642.176C536.379 643.232 536.768 644.64 536.768 646.4C536.768 648.16 536.379 649.568 535.6 650.624ZM532.368 650.416C533.2 650.416 533.835 650.069 534.272 649.376C534.709 648.683 534.928 647.691 534.928 646.4C534.928 645.109 534.709 644.117 534.272 643.424C533.835 642.731 533.2 642.384 532.368 642.384C531.547 642.384 530.912 642.731 530.464 643.424C530.027 644.117 529.808 645.109 529.808 646.4C529.808 647.691 530.027 648.683 530.464 649.376C530.912 650.069 531.547 650.416 532.368 650.416ZM545.678 650.624C544.91 651.68 543.833 652.208 542.446 652.208C541.06 652.208 539.977 651.68 539.198 650.624C538.43 649.568 538.046 648.16 538.046 646.4C538.046 644.64 538.43 643.232 539.198 642.176C539.977 641.12 541.06 640.592 542.446 640.592C543.833 640.592 544.91 641.12 545.678 642.176C546.457 643.232 546.846 644.64 546.846 646.4C546.846 648.16 546.457 649.568 545.678 650.624ZM542.446 650.416C543.278 650.416 543.913 650.069 544.35 649.376C544.788 648.683 545.006 647.691 545.006 646.4C545.006 645.109 544.788 644.117 544.35 643.424C543.913 642.731 543.278 642.384 542.446 642.384C541.625 642.384 540.99 642.731 540.542 643.424C540.105 644.117 539.886 645.109 539.886 646.4C539.886 647.691 540.105 648.683 540.542 649.376C540.99 650.069 541.625 650.416 542.446 650.416ZM555.756 650.624C554.988 651.68 553.911 652.208 552.524 652.208C551.138 652.208 550.055 651.68 549.276 650.624C548.508 649.568 548.124 648.16 548.124 646.4C548.124 644.64 548.508 643.232 549.276 642.176C550.055 641.12 551.138 640.592 552.524 640.592C553.911 640.592 554.988 641.12 555.756 642.176C556.535 643.232 556.924 644.64 556.924 646.4C556.924 648.16 556.535 649.568 555.756 650.624ZM552.524 650.416C553.356 650.416 553.991 650.069 554.428 649.376C554.866 648.683 555.084 647.691 555.084 646.4C555.084 645.109 554.866 644.117 554.428 643.424C553.991 642.731 553.356 642.384 552.524 642.384C551.703 642.384 551.068 642.731 550.62 643.424C550.183 644.117 549.964 645.109 549.964 646.4C549.964 647.691 550.183 648.683 550.62 649.376C551.068 650.069 551.703 650.416 552.524 650.416ZM565.835 650.624C565.067 651.68 563.989 652.208 562.603 652.208C561.216 652.208 560.133 651.68 559.355 650.624C558.587 649.568 558.203 648.16 558.203 646.4C558.203 644.64 558.587 643.232 559.355 642.176C560.133 641.12 561.216 640.592 562.603 640.592C563.989 640.592 565.067 641.12 565.835 642.176C566.613 643.232 567.003 644.64 567.003 646.4C567.003 648.16 566.613 649.568 565.835 650.624ZM562.603 650.416C563.435 650.416 564.069 650.069 564.507 649.376C564.944 648.683 565.163 647.691 565.163 646.4C565.163 645.109 564.944 644.117 564.507 643.424C564.069 642.731 563.435 642.384 562.603 642.384C561.781 642.384 561.147 642.731 560.699 643.424C560.261 644.117 560.043 645.109 560.043 646.4C560.043 647.691 560.261 648.683 560.699 649.376C561.147 650.069 561.781 650.416 562.603 650.416Z" fill="white"/>
</svg>
