<svg width="335" height="700" viewBox="0 0 335 700" fill="none" xmlns="http://www.w3.org/2000/svg">
<rect width="335" height="700" fill="#F6F6F6"/>
<rect width="295" height="150" transform="translate(20 55)" fill="#0B5351"/>
<path d="M253.136 181.6H251.344L251.088 183.2H252.88L252.672 184.56H250.864L250.416 187.2H248.992L249.44 184.56H247.648L247.2 187.2H245.776L246.224 184.56H244.4L244.624 183.2H246.448L246.704 181.6H244.88L245.104 180.24H246.944L247.376 177.6H248.8L248.368 180.24H250.16L250.592 177.6H252.016L251.584 180.24H253.36L253.136 181.6ZM249.664 183.2L249.92 181.6H248.128L247.872 183.2H249.664ZM262.038 186.624C261.27 187.68 260.192 188.208 258.806 188.208C257.419 188.208 256.336 187.68 255.558 186.624C254.79 185.568 254.406 184.16 254.406 182.4C254.406 180.64 254.79 179.232 255.558 178.176C256.336 177.12 257.419 176.592 258.806 176.592C260.192 176.592 261.27 177.12 262.038 178.176C262.816 179.232 263.206 180.64 263.206 182.4C263.206 184.16 262.816 185.568 262.038 186.624ZM258.806 186.416C259.638 186.416 260.272 186.069 260.71 185.376C261.147 184.683 261.366 183.691 261.366 182.4C261.366 181.109 261.147 180.117 260.71 179.424C260.272 178.731 259.638 178.384 258.806 178.384C257.984 178.384 257.35 178.731 256.902 179.424C256.464 180.117 256.246 181.109 256.246 182.4C256.246 183.691 256.464 184.683 256.902 185.376C257.35 186.069 257.984 186.416 258.806 186.416ZM271.556 182.192C272.046 182.448 272.43 182.8 272.708 183.248C272.985 183.696 273.124 184.213 273.124 184.8C273.124 185.717 272.798 186.48 272.148 187.088C271.497 187.696 270.702 188 269.764 188H264.964V176.8H269.412C270.329 176.8 271.102 177.099 271.732 177.696C272.372 178.283 272.692 179.019 272.692 179.904C272.692 180.875 272.313 181.637 271.556 182.192ZM269.412 178.528H266.804V181.472H269.412C269.817 181.472 270.158 181.333 270.436 181.056C270.713 180.768 270.852 180.416 270.852 180C270.852 179.584 270.713 179.237 270.436 178.96C270.158 178.672 269.817 178.528 269.412 178.528ZM269.764 186.272C270.19 186.272 270.548 186.123 270.836 185.824C271.134 185.515 271.284 185.141 271.284 184.704C271.284 184.267 271.134 183.899 270.836 183.6C270.548 183.291 270.19 183.136 269.764 183.136H266.804V186.272H269.764ZM278.009 181.024C279.076 181.024 279.977 181.344 280.713 181.984C281.449 182.613 281.817 183.488 281.817 184.608C281.817 185.728 281.439 186.608 280.681 187.248C279.924 187.888 278.996 188.208 277.897 188.208C277.012 188.208 276.228 188.005 275.545 187.6C274.863 187.184 274.377 186.587 274.089 185.808L275.673 184.896C275.972 185.909 276.713 186.416 277.897 186.416C278.527 186.416 279.028 186.256 279.401 185.936C279.785 185.605 279.977 185.163 279.977 184.608C279.977 184.053 279.791 183.616 279.417 183.296C279.044 182.976 278.548 182.816 277.929 182.816H274.665L275.097 176.8H281.337V178.528H276.793L276.601 181.024H278.009ZM287.36 181.376C288.17 181.568 288.826 181.947 289.328 182.512C289.84 183.067 290.096 183.765 290.096 184.608C290.096 185.728 289.717 186.608 288.96 187.248C288.202 187.888 287.274 188.208 286.176 188.208C285.322 188.208 284.554 188.011 283.872 187.616C283.2 187.221 282.714 186.645 282.416 185.888L283.984 184.976C284.314 185.936 285.045 186.416 286.176 186.416C286.816 186.416 287.322 186.256 287.696 185.936C288.069 185.605 288.256 185.163 288.256 184.608C288.256 184.053 288.069 183.616 287.696 183.296C287.322 182.976 286.816 182.816 286.176 182.816H285.76L285.024 181.712L287.44 178.528H282.752V176.8H289.632V178.368L287.36 181.376ZM294.9 181.024C295.967 181.024 296.868 181.344 297.604 181.984C298.34 182.613 298.708 183.488 298.708 184.608C298.708 185.728 298.329 186.608 297.572 187.248C296.815 187.888 295.887 188.208 294.788 188.208C293.903 188.208 293.119 188.005 292.436 187.6C291.753 187.184 291.268 186.587 290.98 185.808L292.564 184.896C292.863 185.909 293.604 186.416 294.788 186.416C295.417 186.416 295.919 186.256 296.292 185.936C296.676 185.605 296.868 185.163 296.868 184.608C296.868 184.053 296.681 183.616 296.308 183.296C295.935 182.976 295.439 182.816 294.82 182.816H291.556L291.988 176.8H298.228V178.528H293.684L293.492 181.024H294.9ZM301.902 176.8H303.502V188H301.662V178.768L299.406 179.408L298.958 177.84L301.902 176.8Z" fill="white"/>
<rect width="98.3333" height="80" transform="translate(20 205)" fill="#F9FCF8"/>
<path d="M53.47 261.6H51.678L51.422 263.2H53.214L53.006 264.56H51.198L50.75 267.2H49.326L49.774 264.56H47.982L47.534 267.2H46.11L46.558 264.56H44.734L44.958 263.2H46.782L47.038 261.6H45.214L45.438 260.24H47.278L47.71 257.6H49.134L48.702 260.24H50.494L50.926 257.6H52.35L51.918 260.24H53.694L53.47 261.6ZM49.998 263.2L50.254 261.6H48.462L48.206 263.2H49.998ZM61.7796 258.56H57.0596V261.696H61.6196V263.456H57.0596V268H55.2196V256.8H61.7796V258.56ZM70.7009 260.416C70.7009 261.269 70.4769 262.021 70.0289 262.672L66.4929 268H64.3809L66.9409 264.24H66.7489C65.5862 264.24 64.6315 263.888 63.8849 263.184C63.1489 262.469 62.7809 261.547 62.7809 260.416C62.7809 259.285 63.1489 258.368 63.8849 257.664C64.6315 256.949 65.5862 256.592 66.7489 256.592C67.9115 256.592 68.8609 256.949 69.5969 257.664C70.3329 258.368 70.7009 259.285 70.7009 260.416ZM64.6209 260.416C64.6209 261.035 64.8182 261.536 65.2129 261.92C65.6182 262.304 66.1302 262.496 66.7489 262.496C67.3675 262.496 67.8742 262.309 68.2689 261.936C68.6635 261.552 68.8609 261.045 68.8609 260.416C68.8609 259.787 68.6635 259.285 68.2689 258.912C67.8742 258.528 67.3675 258.336 66.7489 258.336C66.1302 258.336 65.6182 258.528 65.2129 258.912C64.8182 259.285 64.6209 259.787 64.6209 260.416ZM78.7796 258.56H74.0596V261.696H78.6196V263.456H74.0596V268H72.2196V256.8H78.7796V258.56ZM85.7969 268.208C84.1115 268.208 82.7142 267.653 81.6049 266.544C80.4955 265.424 79.9409 264.043 79.9409 262.4C79.9409 260.757 80.4955 259.381 81.6049 258.272C82.7142 257.152 84.1115 256.592 85.7969 256.592C86.8102 256.592 87.7435 256.832 88.5969 257.312C89.4609 257.792 90.1329 258.443 90.6129 259.264L89.0129 260.192C88.7142 259.637 88.2769 259.2 87.7009 258.88C87.1355 258.549 86.5009 258.384 85.7969 258.384C84.6022 258.384 83.6315 258.763 82.8849 259.52C82.1489 260.277 81.7809 261.237 81.7809 262.4C81.7809 263.563 82.1489 264.523 82.8849 265.28C83.6315 266.037 84.6022 266.416 85.7969 266.416C86.5009 266.416 87.1409 266.256 87.7169 265.936C88.2929 265.605 88.7249 265.163 89.0129 264.608L90.6129 265.52C90.1435 266.341 89.4769 266.997 88.6129 267.488C87.7595 267.968 86.8209 268.208 85.7969 268.208ZM98.7015 258.56H93.9815V261.696H98.5415V263.456H93.9815V268H92.1415V256.8H98.7015V258.56ZM106.071 262.176C107.169 262.784 107.719 263.691 107.719 264.896C107.719 265.92 107.361 266.731 106.647 267.328C105.932 267.915 104.983 268.208 103.799 268.208C102.615 268.208 101.66 267.915 100.935 267.328C100.22 266.731 99.8627 265.92 99.8627 264.896C99.8627 264.32 100.007 263.797 100.295 263.328C100.583 262.848 100.988 262.464 101.511 262.176C100.668 261.621 100.247 260.832 100.247 259.808C100.247 258.784 100.588 257.995 101.271 257.44C101.953 256.875 102.796 256.592 103.799 256.592C104.791 256.592 105.628 256.875 106.311 257.44C107.004 257.995 107.351 258.784 107.351 259.808C107.351 260.832 106.924 261.621 106.071 262.176ZM103.799 258.336C103.297 258.336 102.887 258.469 102.567 258.736C102.247 259.003 102.087 259.387 102.087 259.888C102.087 260.368 102.247 260.747 102.567 261.024C102.897 261.301 103.308 261.44 103.799 261.44C104.279 261.44 104.684 261.301 105.015 261.024C105.345 260.747 105.511 260.368 105.511 259.888C105.511 259.387 105.345 259.003 105.015 258.736C104.695 258.469 104.289 258.336 103.799 258.336ZM103.799 266.464C104.417 266.464 104.919 266.315 105.303 266.016C105.687 265.707 105.879 265.275 105.879 264.72C105.879 264.165 105.687 263.739 105.303 263.44C104.919 263.131 104.417 262.976 103.799 262.976C103.169 262.976 102.663 263.131 102.279 263.44C101.895 263.739 101.703 264.165 101.703 264.72C101.703 265.275 101.895 265.707 102.279 266.016C102.663 266.315 103.169 266.464 103.799 266.464Z" fill="#0B5351"/>
<rect width="98.3333" height="80" transform="translate(118.334 205)" fill="#EAF5E6"/>
<path d="M151.804 261.6H150.012L149.756 263.2H151.548L151.34 264.56H149.532L149.084 267.2H147.66L148.108 264.56H146.316L145.868 267.2H144.444L144.892 264.56H143.068L143.292 263.2H145.116L145.372 261.6H143.548L143.772 260.24H145.612L146.044 257.6H147.468L147.036 260.24H148.828L149.26 257.6H150.684L150.252 260.24H152.028L151.804 261.6ZM148.332 263.2L148.588 261.6H146.796L146.54 263.2H148.332ZM155.394 266.24H160.354V268H153.554V256.8H160.274V258.56H155.394V261.472H159.874V263.216H155.394V266.24ZM169.49 268L168.706 265.744H163.938L163.154 268H161.154L165.218 256.8H167.426L171.474 268H169.49ZM164.546 264.016H168.098L166.322 258.96L164.546 264.016ZM179.239 258.56H174.519V261.696H179.079V263.456H174.519V268H172.679V256.8H179.239V258.56ZM184.24 261.024C185.307 261.024 186.208 261.344 186.944 261.984C187.68 262.613 188.048 263.488 188.048 264.608C188.048 265.728 187.669 266.608 186.912 267.248C186.155 267.888 185.227 268.208 184.128 268.208C183.243 268.208 182.459 268.005 181.776 267.6C181.093 267.184 180.608 266.587 180.32 265.808L181.904 264.896C182.203 265.909 182.944 266.416 184.128 266.416C184.757 266.416 185.259 266.256 185.632 265.936C186.016 265.605 186.208 265.163 186.208 264.608C186.208 264.053 186.021 263.616 185.648 263.296C185.275 262.976 184.779 262.816 184.16 262.816H180.896L181.328 256.8H187.568V258.528H183.024L182.832 261.024H184.24ZM191.519 266.24H196.479V268H189.679V256.8H196.399V258.56H191.519V261.472H195.999V263.216H191.519V266.24ZM201.411 260.56C202.574 260.56 203.523 260.917 204.259 261.632C204.995 262.336 205.363 263.253 205.363 264.384C205.363 265.515 204.995 266.437 204.259 267.152C203.523 267.856 202.574 268.208 201.411 268.208C200.238 268.208 199.283 267.856 198.547 267.152C197.811 266.437 197.443 265.515 197.443 264.384C197.443 263.531 197.667 262.779 198.115 262.128L201.667 256.8H203.763L201.203 260.56H201.411ZM201.411 266.464C202.03 266.464 202.536 266.277 202.931 265.904C203.326 265.52 203.523 265.013 203.523 264.384C203.523 263.755 203.326 263.253 202.931 262.88C202.536 262.496 202.03 262.304 201.411 262.304C200.782 262.304 200.27 262.496 199.875 262.88C199.48 263.253 199.283 263.755 199.283 264.384C199.283 265.013 199.48 265.52 199.875 265.904C200.27 266.277 200.782 266.464 201.411 266.464Z" fill="#0B5351"/>
<rect width="98.3333" height="80" transform="translate(216.666 205)" fill="#C7E6BC"/>
<path d="M246.136 261.6H244.344L244.088 263.2H245.88L245.672 264.56H243.864L243.416 267.2H241.992L242.44 264.56H240.648L240.2 267.2H238.776L239.224 264.56H237.4L237.624 263.2H239.448L239.704 261.6H237.88L238.104 260.24H239.944L240.376 257.6H241.8L241.368 260.24H243.16L243.592 257.6H245.016L244.584 260.24H246.36L246.136 261.6ZM242.664 263.2L242.92 261.6H241.128L240.872 263.2H242.664ZM253.182 268.208C251.496 268.208 250.099 267.653 248.99 266.544C247.88 265.424 247.326 264.043 247.326 262.4C247.326 260.757 247.88 259.381 248.99 258.272C250.099 257.152 251.496 256.592 253.182 256.592C254.195 256.592 255.128 256.832 255.982 257.312C256.846 257.792 257.518 258.443 257.998 259.264L256.398 260.192C256.099 259.637 255.662 259.2 255.086 258.88C254.52 258.549 253.886 258.384 253.182 258.384C251.987 258.384 251.016 258.763 250.27 259.52C249.534 260.277 249.166 261.237 249.166 262.4C249.166 263.563 249.534 264.523 250.27 265.28C251.016 266.037 251.987 266.416 253.182 266.416C253.886 266.416 254.526 266.256 255.102 265.936C255.678 265.605 256.11 265.163 256.398 264.608L257.998 265.52C257.528 266.341 256.862 266.997 255.998 267.488C255.144 267.968 254.206 268.208 253.182 268.208ZM258.49 256.8H265.61V258.4L261.674 268H259.738L263.61 258.56H258.49V256.8ZM269.054 266.24H274.014V268H267.214V256.8H273.934V258.56H269.054V261.472H273.534V263.216H269.054V266.24ZM278.946 260.56C280.109 260.56 281.058 260.917 281.794 261.632C282.53 262.336 282.898 263.253 282.898 264.384C282.898 265.515 282.53 266.437 281.794 267.152C281.058 267.856 280.109 268.208 278.946 268.208C277.773 268.208 276.818 267.856 276.082 267.152C275.346 266.437 274.978 265.515 274.978 264.384C274.978 263.531 275.202 262.779 275.65 262.128L279.202 256.8H281.298L278.738 260.56H278.946ZM278.946 266.464C279.565 266.464 280.071 266.277 280.466 265.904C280.861 265.52 281.058 265.013 281.058 264.384C281.058 263.755 280.861 263.253 280.466 262.88C280.071 262.496 279.565 262.304 278.946 262.304C278.317 262.304 277.805 262.496 277.41 262.88C277.015 263.253 276.818 263.755 276.818 264.384C276.818 265.013 277.015 265.52 277.41 265.904C277.805 266.277 278.317 266.464 278.946 266.464ZM291.009 262.192C291.5 262.448 291.884 262.8 292.161 263.248C292.438 263.696 292.577 264.213 292.577 264.8C292.577 265.717 292.252 266.48 291.601 267.088C290.95 267.696 290.156 268 289.217 268H284.417V256.8H288.865C289.782 256.8 290.556 257.099 291.185 257.696C291.825 258.283 292.145 259.019 292.145 259.904C292.145 260.875 291.766 261.637 291.009 262.192ZM288.865 258.528H286.257V261.472H288.865C289.27 261.472 289.612 261.333 289.889 261.056C290.166 260.768 290.305 260.416 290.305 260C290.305 259.584 290.166 259.237 289.889 258.96C289.612 258.672 289.27 258.528 288.865 258.528ZM289.217 266.272C289.644 266.272 290.001 266.123 290.289 265.824C290.588 265.515 290.737 265.141 290.737 264.704C290.737 264.267 290.588 263.899 290.289 263.6C290.001 263.291 289.644 263.136 289.217 263.136H286.257V266.272H289.217ZM299.479 268.208C297.793 268.208 296.396 267.653 295.287 266.544C294.177 265.424 293.623 264.043 293.623 262.4C293.623 260.757 294.177 259.381 295.287 258.272C296.396 257.152 297.793 256.592 299.479 256.592C300.492 256.592 301.425 256.832 302.279 257.312C303.143 257.792 303.815 258.443 304.295 259.264L302.695 260.192C302.396 259.637 301.959 259.2 301.383 258.88C300.817 258.549 300.183 258.384 299.479 258.384C298.284 258.384 297.313 258.763 296.567 259.52C295.831 260.277 295.463 261.237 295.463 262.4C295.463 263.563 295.831 264.523 296.567 265.28C297.313 266.037 298.284 266.416 299.479 266.416C300.183 266.416 300.823 266.256 301.399 265.936C301.975 265.605 302.407 265.163 302.695 264.608L304.295 265.52C303.825 266.341 303.159 266.997 302.295 267.488C301.441 267.968 300.503 268.208 299.479 268.208Z" fill="#0B5351"/>
<rect width="295" height="120" transform="translate(20 285)" fill="#FF9847"/>
<path d="M252.136 381.6H250.344L250.088 383.2H251.88L251.672 384.56H249.864L249.416 387.2H247.992L248.44 384.56H246.648L246.2 387.2H244.776L245.224 384.56H243.4L243.624 383.2H245.448L245.704 381.6H243.88L244.104 380.24H245.944L246.376 377.6H247.8L247.368 380.24H249.16L249.592 377.6H251.016L250.584 380.24H252.36L252.136 381.6ZM248.664 383.2L248.92 381.6H247.128L246.872 383.2H248.664ZM260.446 378.56H255.726V381.696H260.286V383.456H255.726V388H253.886V376.8H260.446V378.56ZM268.727 378.56H264.007V381.696H268.567V383.456H264.007V388H262.167V376.8H268.727V378.56ZM277.648 380.416C277.648 381.269 277.424 382.021 276.976 382.672L273.44 388H271.328L273.888 384.24H273.696C272.533 384.24 271.579 383.888 270.832 383.184C270.096 382.469 269.728 381.547 269.728 380.416C269.728 379.285 270.096 378.368 270.832 377.664C271.579 376.949 272.533 376.592 273.696 376.592C274.859 376.592 275.808 376.949 276.544 377.664C277.28 378.368 277.648 379.285 277.648 380.416ZM271.568 380.416C271.568 381.035 271.765 381.536 272.16 381.92C272.565 382.304 273.077 382.496 273.696 382.496C274.315 382.496 274.821 382.309 275.216 381.936C275.611 381.552 275.808 381.045 275.808 380.416C275.808 379.787 275.611 379.285 275.216 378.912C274.821 378.528 274.315 378.336 273.696 378.336C273.077 378.336 272.565 378.528 272.16 378.912C271.765 379.285 271.568 379.787 271.568 380.416ZM284.815 382.176C285.914 382.784 286.463 383.691 286.463 384.896C286.463 385.92 286.106 386.731 285.391 387.328C284.676 387.915 283.727 388.208 282.543 388.208C281.359 388.208 280.404 387.915 279.679 387.328C278.964 386.731 278.607 385.92 278.607 384.896C278.607 384.32 278.751 383.797 279.039 383.328C279.327 382.848 279.732 382.464 280.255 382.176C279.412 381.621 278.991 380.832 278.991 379.808C278.991 378.784 279.332 377.995 280.015 377.44C280.698 376.875 281.54 376.592 282.543 376.592C283.535 376.592 284.372 376.875 285.055 377.44C285.748 377.995 286.095 378.784 286.095 379.808C286.095 380.832 285.668 381.621 284.815 382.176ZM282.543 378.336C282.042 378.336 281.631 378.469 281.311 378.736C280.991 379.003 280.831 379.387 280.831 379.888C280.831 380.368 280.991 380.747 281.311 381.024C281.642 381.301 282.052 381.44 282.543 381.44C283.023 381.44 283.428 381.301 283.759 381.024C284.09 380.747 284.255 380.368 284.255 379.888C284.255 379.387 284.09 379.003 283.759 378.736C283.439 378.469 283.034 378.336 282.543 378.336ZM282.543 386.464C283.162 386.464 283.663 386.315 284.047 386.016C284.431 385.707 284.623 385.275 284.623 384.72C284.623 384.165 284.431 383.739 284.047 383.44C283.663 383.131 283.162 382.976 282.543 382.976C281.914 382.976 281.407 383.131 281.023 383.44C280.639 383.739 280.447 384.165 280.447 384.72C280.447 385.275 280.639 385.707 281.023 386.016C281.407 386.315 281.914 386.464 282.543 386.464ZM296.336 384.272V385.984H295.056V388H293.2V385.984H287.696V384.272L291.552 376.8H293.552L289.696 384.272H293.2V381.36H295.056V384.272H296.336ZM296.537 376.8H303.657V378.4L299.721 388H297.785L301.657 378.56H296.537V376.8Z" fill="white"/>
<rect width="295" height="80" transform="translate(20 405)" fill="#FCD675"/>
<path d="M249.136 461.6H247.344L247.088 463.2H248.88L248.672 464.56H246.864L246.416 467.2H244.992L245.44 464.56H243.648L243.2 467.2H241.776L242.224 464.56H240.4L240.624 463.2H242.448L242.704 461.6H240.88L241.104 460.24H242.944L243.376 457.6H244.8L244.368 460.24H246.16L246.592 457.6H248.016L247.584 460.24H249.36L249.136 461.6ZM245.664 463.2L245.92 461.6H244.128L243.872 463.2H245.664ZM257.446 458.56H252.726V461.696H257.286V463.456H252.726V468H250.886V456.8H257.446V458.56ZM264.463 468.208C262.778 468.208 261.38 467.653 260.271 466.544C259.162 465.424 258.607 464.043 258.607 462.4C258.607 460.757 259.162 459.381 260.271 458.272C261.38 457.152 262.778 456.592 264.463 456.592C265.476 456.592 266.41 456.832 267.263 457.312C268.127 457.792 268.799 458.443 269.279 459.264L267.679 460.192C267.38 459.637 266.943 459.2 266.367 458.88C265.802 458.549 265.167 458.384 264.463 458.384C263.268 458.384 262.298 458.763 261.551 459.52C260.815 460.277 260.447 461.237 260.447 462.4C260.447 463.563 260.815 464.523 261.551 465.28C262.298 466.037 263.268 466.416 264.463 466.416C265.167 466.416 265.807 466.256 266.383 465.936C266.959 465.605 267.391 465.163 267.679 464.608L269.279 465.52C268.81 466.341 268.143 466.997 267.279 467.488C266.426 467.968 265.487 468.208 264.463 468.208ZM275.208 456.8C276.744 456.8 278.018 457.339 279.032 458.416C280.056 459.493 280.568 460.821 280.568 462.4C280.568 463.968 280.056 465.296 279.032 466.384C278.018 467.461 276.744 468 275.208 468H270.808V456.8H275.208ZM275.208 466.24C276.264 466.24 277.122 465.877 277.784 465.152C278.456 464.427 278.792 463.509 278.792 462.4C278.792 461.28 278.456 460.363 277.784 459.648C277.122 458.923 276.264 458.56 275.208 458.56H272.648V466.24H275.208ZM285.493 460.56C286.656 460.56 287.605 460.917 288.341 461.632C289.077 462.336 289.445 463.253 289.445 464.384C289.445 465.515 289.077 466.437 288.341 467.152C287.605 467.856 286.656 468.208 285.493 468.208C284.32 468.208 283.365 467.856 282.629 467.152C281.893 466.437 281.525 465.515 281.525 464.384C281.525 463.531 281.749 462.779 282.197 462.128L285.749 456.8H287.845L285.285 460.56H285.493ZM285.493 466.464C286.112 466.464 286.618 466.277 287.013 465.904C287.408 465.52 287.605 465.013 287.605 464.384C287.605 463.755 287.408 463.253 287.013 462.88C286.618 462.496 286.112 462.304 285.493 462.304C284.864 462.304 284.352 462.496 283.957 462.88C283.562 463.253 283.365 463.755 283.365 464.384C283.365 465.013 283.562 465.52 283.957 465.904C284.352 466.277 284.864 466.464 285.493 466.464ZM289.115 456.8H296.235V458.4L292.299 468H290.363L294.235 458.56H289.115V456.8ZM300.15 461.024C301.217 461.024 302.118 461.344 302.854 461.984C303.59 462.613 303.958 463.488 303.958 464.608C303.958 465.728 303.579 466.608 302.822 467.248C302.065 467.888 301.137 468.208 300.038 468.208C299.153 468.208 298.369 468.005 297.686 467.6C297.003 467.184 296.518 466.587 296.23 465.808L297.814 464.896C298.113 465.909 298.854 466.416 300.038 466.416C300.667 466.416 301.169 466.256 301.542 465.936C301.926 465.605 302.118 465.163 302.118 464.608C302.118 464.053 301.931 463.616 301.558 463.296C301.185 462.976 300.689 462.816 300.07 462.816H296.806L297.238 456.8H303.478V458.528H298.934L298.742 461.024H300.15Z" fill="#FF9F1C"/>
<rect width="147.5" height="80" transform="translate(20 485)" fill="#B4B4B4"/>
<path d="M99.636 541.6H97.844L97.588 543.2H99.38L99.172 544.56H97.364L96.916 547.2H95.492L95.94 544.56H94.148L93.7 547.2H92.276L92.724 544.56H90.9L91.124 543.2H92.948L93.204 541.6H91.38L91.604 540.24H93.444L93.876 537.6H95.3L94.868 540.24H96.66L97.092 537.6H98.516L98.084 540.24H99.86L99.636 541.6ZM96.164 543.2L96.42 541.6H94.628L94.372 543.2H96.164ZM107.978 542.192C108.468 542.448 108.852 542.8 109.13 543.248C109.407 543.696 109.546 544.213 109.546 544.8C109.546 545.717 109.22 546.48 108.57 547.088C107.919 547.696 107.124 548 106.186 548H101.386V536.8H105.834C106.751 536.8 107.524 537.099 108.154 537.696C108.794 538.283 109.114 539.019 109.114 539.904C109.114 540.875 108.735 541.637 107.978 542.192ZM105.834 538.528H103.226V541.472H105.834C106.239 541.472 106.58 541.333 106.858 541.056C107.135 540.768 107.274 540.416 107.274 540C107.274 539.584 107.135 539.237 106.858 538.96C106.58 538.672 106.239 538.528 105.834 538.528ZM106.186 546.272C106.612 546.272 106.97 546.123 107.258 545.824C107.556 545.515 107.706 545.141 107.706 544.704C107.706 544.267 107.556 543.899 107.258 543.6C106.97 543.291 106.612 543.136 106.186 543.136H103.226V546.272H106.186ZM119.039 544.272V545.984H117.759V548H115.903V545.984H110.399V544.272L114.255 536.8H116.255L112.399 544.272H115.903V541.36H117.759V544.272H119.039ZM127.025 542.192C127.515 542.448 127.899 542.8 128.177 543.248C128.454 543.696 128.593 544.213 128.593 544.8C128.593 545.717 128.267 546.48 127.617 547.088C126.966 547.696 126.171 548 125.233 548H120.433V536.8H124.881C125.798 536.8 126.571 537.099 127.201 537.696C127.841 538.283 128.161 539.019 128.161 539.904C128.161 540.875 127.782 541.637 127.025 542.192ZM124.881 538.528H122.273V541.472H124.881C125.286 541.472 125.627 541.333 125.905 541.056C126.182 540.768 126.321 540.416 126.321 540C126.321 539.584 126.182 539.237 125.905 538.96C125.627 538.672 125.286 538.528 124.881 538.528ZM125.233 546.272C125.659 546.272 126.017 546.123 126.305 545.824C126.603 545.515 126.753 545.141 126.753 544.704C126.753 544.267 126.603 543.899 126.305 543.6C126.017 543.291 125.659 543.136 125.233 543.136H122.273V546.272H125.233ZM138.086 544.272V545.984H136.806V548H134.95V545.984H129.446V544.272L133.302 536.8H135.302L131.446 544.272H134.95V541.36H136.806V544.272H138.086ZM146.071 542.192C146.562 542.448 146.946 542.8 147.223 543.248C147.501 543.696 147.639 544.213 147.639 544.8C147.639 545.717 147.314 546.48 146.663 547.088C146.013 547.696 145.218 548 144.279 548H139.479V536.8H143.927C144.845 536.8 145.618 537.099 146.247 537.696C146.887 538.283 147.207 539.019 147.207 539.904C147.207 540.875 146.829 541.637 146.071 542.192ZM143.927 538.528H141.319V541.472H143.927C144.333 541.472 144.674 541.333 144.951 541.056C145.229 540.768 145.367 540.416 145.367 540C145.367 539.584 145.229 539.237 144.951 538.96C144.674 538.672 144.333 538.528 143.927 538.528ZM144.279 546.272C144.706 546.272 145.063 546.123 145.351 545.824C145.65 545.515 145.799 545.141 145.799 544.704C145.799 544.267 145.65 543.899 145.351 543.6C145.063 543.291 144.706 543.136 144.279 543.136H141.319V546.272H144.279ZM157.133 544.272V545.984H155.853V548H153.997V545.984H148.493V544.272L152.349 536.8H154.349L150.493 544.272H153.997V541.36H155.853V544.272H157.133Z" fill="white"/>
<rect width="147.5" height="80" transform="translate(167.5 485)" fill="#4F4F4F"/>
<path d="M251.136 541.6H249.344L249.088 543.2H250.88L250.672 544.56H248.864L248.416 547.2H246.992L247.44 544.56H245.648L245.2 547.2H243.776L244.224 544.56H242.4L242.624 543.2H244.448L244.704 541.6H242.88L243.104 540.24H244.944L245.376 537.6H246.8L246.368 540.24H248.16L248.592 537.6H250.016L249.584 540.24H251.36L251.136 541.6ZM247.664 543.2L247.92 541.6H246.128L245.872 543.2H247.664ZM260.774 544.272V545.984H259.494V548H257.638V545.984H252.134V544.272L255.99 536.8H257.99L254.134 544.272H257.638V541.36H259.494V544.272H260.774ZM268.727 538.56H264.007V541.696H268.567V543.456H264.007V548H262.167V536.8H268.727V538.56ZM278.18 544.272V545.984H276.9V548H275.044V545.984H269.54V544.272L273.396 536.8H275.396L271.54 544.272H275.044V541.36H276.9V544.272H278.18ZM286.133 538.56H281.413V541.696H285.973V543.456H281.413V548H279.573V536.8H286.133V538.56ZM295.586 544.272V545.984H294.306V548H292.45V545.984H286.946V544.272L290.802 536.8H292.802L288.946 544.272H292.45V541.36H294.306V544.272H295.586ZM303.539 538.56H298.819V541.696H303.379V543.456H298.819V548H296.979V536.8H303.539V538.56Z" fill="white"/>
<rect width="147.5" height="80" transform="translate(20 565)" fill="#23D639"/>
<path d="M102.636 621.6H100.844L100.588 623.2H102.38L102.172 624.56H100.364L99.916 627.2H98.492L98.94 624.56H97.148L96.7 627.2H95.276L95.724 624.56H93.9L94.124 623.2H95.948L96.204 621.6H94.38L94.604 620.24H96.444L96.876 617.6H98.3L97.868 620.24H99.66L100.092 617.6H101.516L101.084 620.24H102.86L102.636 621.6ZM99.164 623.2L99.42 621.6H97.628L97.372 623.2H99.164ZM103.762 628V626.56L107.666 622.576C108.615 621.627 109.09 620.805 109.09 620.112C109.09 619.568 108.924 619.147 108.594 618.848C108.274 618.539 107.863 618.384 107.362 618.384C106.423 618.384 105.73 618.848 105.282 619.776L103.73 618.864C104.082 618.117 104.578 617.552 105.218 617.168C105.858 616.784 106.567 616.592 107.346 616.592C108.327 616.592 109.17 616.901 109.874 617.52C110.578 618.139 110.93 618.981 110.93 620.048C110.93 621.189 110.295 622.405 109.026 623.696L106.498 626.224H111.138V628H103.762ZM116.922 621.376C117.733 621.568 118.389 621.947 118.89 622.512C119.402 623.067 119.658 623.765 119.658 624.608C119.658 625.728 119.279 626.608 118.522 627.248C117.765 627.888 116.837 628.208 115.738 628.208C114.885 628.208 114.117 628.011 113.434 627.616C112.762 627.221 112.277 626.645 111.978 625.888L113.546 624.976C113.877 625.936 114.607 626.416 115.738 626.416C116.378 626.416 116.885 626.256 117.258 625.936C117.631 625.605 117.818 625.163 117.818 624.608C117.818 624.053 117.631 623.616 117.258 623.296C116.885 622.976 116.378 622.816 115.738 622.816H115.322L114.586 621.712L117.002 618.528H112.314V616.8H119.194V618.368L116.922 621.376ZM125.739 616.8C127.275 616.8 128.549 617.339 129.563 618.416C130.587 619.493 131.099 620.821 131.099 622.4C131.099 623.968 130.587 625.296 129.563 626.384C128.549 627.461 127.275 628 125.739 628H121.339V616.8H125.739ZM125.739 626.24C126.795 626.24 127.653 625.877 128.315 625.152C128.987 624.427 129.323 623.509 129.323 622.4C129.323 621.28 128.987 620.363 128.315 619.648C127.653 618.923 126.795 618.56 125.739 618.56H123.179V626.24H125.739ZM136.024 620.56C137.187 620.56 138.136 620.917 138.872 621.632C139.608 622.336 139.976 623.253 139.976 624.384C139.976 625.515 139.608 626.437 138.872 627.152C138.136 627.856 137.187 628.208 136.024 628.208C134.851 628.208 133.896 627.856 133.16 627.152C132.424 626.437 132.056 625.515 132.056 624.384C132.056 623.531 132.28 622.779 132.728 622.128L136.28 616.8H138.376L135.816 620.56H136.024ZM136.024 626.464C136.643 626.464 137.15 626.277 137.544 625.904C137.939 625.52 138.136 625.013 138.136 624.384C138.136 623.755 137.939 623.253 137.544 622.88C137.15 622.496 136.643 622.304 136.024 622.304C135.395 622.304 134.883 622.496 134.488 622.88C134.094 623.253 133.896 623.755 133.896 624.384C133.896 625.013 134.094 625.52 134.488 625.904C134.883 626.277 135.395 626.464 136.024 626.464ZM145.563 621.376C146.373 621.568 147.029 621.947 147.531 622.512C148.043 623.067 148.299 623.765 148.299 624.608C148.299 625.728 147.92 626.608 147.163 627.248C146.405 627.888 145.477 628.208 144.379 628.208C143.525 628.208 142.757 628.011 142.075 627.616C141.403 627.221 140.917 626.645 140.619 625.888L142.187 624.976C142.517 625.936 143.248 626.416 144.379 626.416C145.019 626.416 145.525 626.256 145.899 625.936C146.272 625.605 146.459 625.163 146.459 624.608C146.459 624.053 146.272 623.616 145.899 623.296C145.525 622.976 145.019 622.816 144.379 622.816H143.963L143.227 621.712L145.643 618.528H140.955V616.8H147.835V618.368L145.563 621.376ZM156.711 620.416C156.711 621.269 156.487 622.021 156.039 622.672L152.503 628H150.391L152.951 624.24H152.759C151.596 624.24 150.641 623.888 149.895 623.184C149.159 622.469 148.791 621.547 148.791 620.416C148.791 619.285 149.159 618.368 149.895 617.664C150.641 616.949 151.596 616.592 152.759 616.592C153.921 616.592 154.871 616.949 155.607 617.664C156.343 618.368 156.711 619.285 156.711 620.416ZM150.631 620.416C150.631 621.035 150.828 621.536 151.223 621.92C151.628 622.304 152.14 622.496 152.759 622.496C153.377 622.496 153.884 622.309 154.279 621.936C154.673 621.552 154.871 621.045 154.871 620.416C154.871 619.787 154.673 619.285 154.279 618.912C153.884 618.528 153.377 618.336 152.759 618.336C152.14 618.336 151.628 618.528 151.223 618.912C150.828 619.285 150.631 619.787 150.631 620.416Z" fill="white"/>
<rect width="147.5" height="80" transform="translate(167.5 565)" fill="#FF0000"/>
<path d="M247.136 621.6H245.344L245.088 623.2H246.88L246.672 624.56H244.864L244.416 627.2H242.992L243.44 624.56H241.648L241.2 627.2H239.776L240.224 624.56H238.4L238.624 623.2H240.448L240.704 621.6H238.88L239.104 620.24H240.944L241.376 617.6H242.8L242.368 620.24H244.16L244.592 617.6H246.016L245.584 620.24H247.36L247.136 621.6ZM243.664 623.2L243.92 621.6H242.128L241.872 623.2H243.664ZM255.446 618.56H250.726V621.696H255.286V623.456H250.726V628H248.886V616.8H255.446V618.56ZM263.727 618.56H259.007V621.696H263.567V623.456H259.007V628H257.167V616.8H263.727V618.56ZM272.6 626.624C271.832 627.68 270.755 628.208 269.368 628.208C267.981 628.208 266.899 627.68 266.12 626.624C265.352 625.568 264.968 624.16 264.968 622.4C264.968 620.64 265.352 619.232 266.12 618.176C266.899 617.12 267.981 616.592 269.368 616.592C270.755 616.592 271.832 617.12 272.6 618.176C273.379 619.232 273.768 620.64 273.768 622.4C273.768 624.16 273.379 625.568 272.6 626.624ZM269.368 626.416C270.2 626.416 270.835 626.069 271.272 625.376C271.709 624.683 271.928 623.691 271.928 622.4C271.928 621.109 271.709 620.117 271.272 619.424C270.835 618.731 270.2 618.384 269.368 618.384C268.547 618.384 267.912 618.731 267.464 619.424C267.027 620.117 266.808 621.109 266.808 622.4C266.808 623.691 267.027 624.683 267.464 625.376C267.912 626.069 268.547 626.416 269.368 626.416ZM282.678 626.624C281.91 627.68 280.833 628.208 279.446 628.208C278.06 628.208 276.977 627.68 276.198 626.624C275.43 625.568 275.046 624.16 275.046 622.4C275.046 620.64 275.43 619.232 276.198 618.176C276.977 617.12 278.06 616.592 279.446 616.592C280.833 616.592 281.91 617.12 282.678 618.176C283.457 619.232 283.846 620.64 283.846 622.4C283.846 624.16 283.457 625.568 282.678 626.624ZM279.446 626.416C280.278 626.416 280.913 626.069 281.35 625.376C281.788 624.683 282.006 623.691 282.006 622.4C282.006 621.109 281.788 620.117 281.35 619.424C280.913 618.731 280.278 618.384 279.446 618.384C278.625 618.384 277.99 618.731 277.542 619.424C277.105 620.117 276.886 621.109 276.886 622.4C276.886 623.691 277.105 624.683 277.542 625.376C277.99 626.069 278.625 626.416 279.446 626.416ZM292.756 626.624C291.988 627.68 290.911 628.208 289.524 628.208C288.138 628.208 287.055 627.68 286.276 626.624C285.508 625.568 285.124 624.16 285.124 622.4C285.124 620.64 285.508 619.232 286.276 618.176C287.055 617.12 288.138 616.592 289.524 616.592C290.911 616.592 291.988 617.12 292.756 618.176C293.535 619.232 293.924 620.64 293.924 622.4C293.924 624.16 293.535 625.568 292.756 626.624ZM289.524 626.416C290.356 626.416 290.991 626.069 291.428 625.376C291.866 624.683 292.084 623.691 292.084 622.4C292.084 621.109 291.866 620.117 291.428 619.424C290.991 618.731 290.356 618.384 289.524 618.384C288.703 618.384 288.068 618.731 287.62 619.424C287.183 620.117 286.964 621.109 286.964 622.4C286.964 623.691 287.183 624.683 287.62 625.376C288.068 626.069 288.703 626.416 289.524 626.416ZM302.835 626.624C302.067 627.68 300.989 628.208 299.603 628.208C298.216 628.208 297.133 627.68 296.355 626.624C295.587 625.568 295.203 624.16 295.203 622.4C295.203 620.64 295.587 619.232 296.355 618.176C297.133 617.12 298.216 616.592 299.603 616.592C300.989 616.592 302.067 617.12 302.835 618.176C303.613 619.232 304.003 620.64 304.003 622.4C304.003 624.16 303.613 625.568 302.835 626.624ZM299.603 626.416C300.435 626.416 301.069 626.069 301.507 625.376C301.944 624.683 302.163 623.691 302.163 622.4C302.163 621.109 301.944 620.117 301.507 619.424C301.069 618.731 300.435 618.384 299.603 618.384C298.781 618.384 298.147 618.731 297.699 619.424C297.261 620.117 297.043 621.109 297.043 622.4C297.043 623.691 297.261 624.683 297.699 625.376C298.147 626.069 298.781 626.416 299.603 626.416Z" fill="white"/>
</svg>
