<svg width="335" height="700" viewBox="0 0 335 700" fill="none" xmlns="http://www.w3.org/2000/svg">
<g clip-path="url(#clip0_339_4770)">
<rect width="335" height="700" fill="white"/>
<path d="M128.116 199.661C127.063 199.661 126.216 200.515 126.216 201.56V208.537C126.216 209.935 125.722 211.136 124.726 212.125C123.808 213.043 122.544 213.586 121.245 213.607C119.804 213.636 118.575 213.141 117.566 212.132C116.591 211.157 116.069 209.815 116.069 208.438V201.56C116.069 200.508 115.214 199.661 114.169 199.661C113.117 199.661 112.27 200.515 112.27 201.56V208.537C112.27 210.995 113.138 213.092 114.868 214.822C116.598 216.552 118.696 217.421 121.153 217.421C123.067 217.421 124.761 216.898 126.223 215.853V217.294C126.223 218.713 125.679 220.097 124.655 221.086C124.027 221.686 123.321 222.095 122.537 222.314C121.732 222.533 121.146 223.232 121.146 224.073V224.285C121.146 225.457 122.247 226.318 123.391 226.036C124.91 225.662 126.251 224.885 127.431 223.705C129.161 221.975 130.029 219.878 130.029 217.421V201.56C130.015 200.508 129.168 199.661 128.116 199.661Z" fill="#C7E6BC"/>
<path d="M100.84 200.367C98.383 200.367 96.2858 201.235 94.5557 202.965C92.8256 204.695 91.957 206.793 91.957 209.25V216.29C91.957 217.307 92.7832 218.134 93.8001 218.134C94.8876 218.134 95.7632 217.251 95.7632 216.17V209.257C95.7632 207.725 96.3564 206.433 97.5498 205.387C98.3336 204.702 99.3222 204.279 100.353 204.201C102.182 204.06 103.679 204.71 104.851 206.143C105.558 207.012 105.911 208.113 105.911 209.236V215.966C105.911 217.159 106.878 218.134 108.079 218.134C108.982 218.134 109.717 217.399 109.717 216.495V209.243C109.717 206.786 108.848 204.688 107.118 202.958C105.388 201.228 103.298 200.367 100.84 200.367Z" fill="#C7E6BC"/>
<path d="M88.0859 200.48H87.987C86.9066 200.48 86.0239 201.355 86.0239 202.443V209.236C86.0239 210.634 85.5014 211.997 84.5128 212.979C83.6725 213.812 82.6768 214.285 81.5398 214.405C79.7533 214.596 77.9526 213.819 76.8651 212.386C76.2084 211.517 75.8765 210.507 75.8765 209.363V202.344C75.8765 201.32 75.0432 200.487 74.0193 200.487C72.946 200.487 72.0703 201.362 72.0703 202.436V209.363C72.0703 211.821 72.9389 213.918 74.669 215.648C76.3991 217.378 78.4963 218.247 80.9537 218.247C83.4112 218.247 85.5084 217.378 87.2385 215.648C88.9686 213.918 89.8372 211.821 89.8372 209.363V202.231C89.8301 201.264 89.0533 200.48 88.0859 200.48Z" fill="#C7E6BC"/>
<path d="M66.5911 217.541C66.351 217.301 66.1392 216.834 66.1392 216.566C64.6704 217.611 62.9827 218.134 61.069 218.134C58.6116 218.134 56.5143 217.265 54.7842 215.535C53.0541 213.805 52.1855 211.708 52.1855 209.25C52.1855 206.793 53.0541 204.696 54.7842 202.966C56.5143 201.236 58.6116 200.367 61.069 200.367C63.5264 200.367 65.6237 201.236 67.3537 202.966C69.0838 204.696 69.9524 206.793 69.9524 209.25V216.566C69.9524 216.827 69.7829 217.301 69.5499 217.519C68.7237 218.268 67.2055 218.162 66.5911 217.541ZM64.4161 205.437C63.5899 204.696 62.5166 204.251 61.4079 204.194C59.7485 204.102 58.3644 204.674 57.2557 205.91C56.5143 206.736 56.0694 207.81 56.0058 208.918C55.914 210.578 56.486 211.962 57.7289 213.071C58.5551 213.812 59.6284 214.257 60.7371 214.313C62.3965 214.405 63.7806 213.833 64.8893 212.59C65.6307 211.764 66.0756 210.691 66.1392 209.582C66.2239 207.93 65.6519 206.546 64.4161 205.437Z" fill="#C7E6BC"/>
<path d="M47.5179 199.251C48.2099 199.315 48.8737 199.541 49.4669 199.887C50.1801 200.303 51.0911 200.155 51.6772 199.569C52.5952 198.651 52.3621 197.119 51.2252 196.49C49.9471 195.777 48.5206 195.424 46.9459 195.424C44.4885 195.424 42.3912 196.292 40.6611 198.022C38.9311 199.753 38.0625 201.85 38.0625 204.307V216.354C38.0625 217.406 38.9169 218.254 39.962 218.254C41.0142 218.254 41.8616 217.399 41.8616 216.354V206.849C41.8616 206.842 41.8687 206.842 41.8687 206.842H48.7396C49.6717 206.842 50.5402 206.214 50.7027 205.296C50.9216 204.088 49.9965 203.036 48.8314 203.036H42.0311C42.024 203.036 42.017 203.029 42.024 203.022C42.2359 202.153 42.6807 201.384 43.3516 200.72C44.4744 199.59 45.8655 199.103 47.5179 199.251Z" fill="#C7E6BC"/>
<path d="M25.1995 164.072C27.8041 155.788 34.4104 155.25 37.059 155.609C38.427 159.219 39.5451 160.96 42.4277 163.341L39.8427 169.761C32.2833 171.65 28.4345 167.742 25.1995 164.072Z" fill="#FF9847"/>
<path d="M126.485 139.015H126.235C123.509 139.015 121.281 141.224 121.281 143.969V161.111C121.281 164.639 119.963 168.078 117.468 170.555C115.347 172.658 112.835 173.852 109.966 174.155C105.458 174.636 100.914 172.676 98.1696 169.058C96.5124 166.866 95.675 164.318 95.675 161.432V143.719C95.675 141.135 93.5723 139.033 90.9885 139.033C88.2799 139.033 86.0703 141.242 86.0703 143.951V161.432C86.0703 167.633 88.2621 172.925 92.6279 177.291C96.9936 181.657 102.286 183.848 108.487 183.848C114.688 183.848 119.98 181.657 124.346 177.291C128.712 172.925 130.904 167.633 130.904 161.432V143.434C130.886 140.993 128.926 139.015 126.485 139.015Z" fill="#C7E6BC"/>
<path d="M70.4608 182.066C69.8549 181.46 69.3203 180.284 69.3203 179.607C65.6139 182.244 61.3551 183.563 56.5261 183.563C50.325 183.563 45.0326 181.371 40.6669 177.005C36.3012 172.64 34.1094 167.347 34.1094 161.146C34.1094 154.945 36.3012 149.653 40.6669 145.287C45.0326 140.921 50.325 138.729 56.5261 138.729C62.7272 138.729 68.0195 140.921 72.3853 145.287C76.751 149.653 78.9428 154.945 78.9428 161.146V179.607C78.9428 180.266 78.5151 181.46 77.9271 182.012C75.8422 183.901 72.0111 183.634 70.4608 182.066ZM64.9724 151.524C62.8876 149.653 60.179 148.53 57.3814 148.387C53.1939 148.156 49.7013 149.599 46.9036 152.718C45.0326 154.802 43.91 157.511 43.7496 160.309C43.518 164.496 44.9613 167.989 48.0975 170.786C50.1824 172.657 52.8909 173.78 55.6886 173.922C59.8761 174.154 63.3687 172.711 66.1663 169.575C68.0374 167.49 69.16 164.781 69.3203 161.984C69.5342 157.814 68.0908 154.321 64.9724 151.524Z" fill="#C7E6BC"/>
<path d="M131.118 131.926C131.118 134.599 128.944 136.773 126.271 136.773C123.598 136.773 121.424 134.599 121.424 131.926C121.424 129.253 123.598 127.079 126.271 127.079C128.944 127.079 131.118 129.253 131.118 131.926Z" fill="#FF9847"/>
<path d="M61.3734 159.614C61.3734 162.287 59.1994 164.461 56.5265 164.461C53.8536 164.461 51.6797 162.287 51.6797 159.614C51.6797 156.941 53.8536 154.767 56.5265 154.767C59.1994 154.767 61.3734 156.941 61.3734 159.614Z" fill="#FF9847"/>
<path d="M90.632 136.773C93.3089 136.773 95.4789 134.603 95.4789 131.926C95.4789 129.249 93.3089 127.079 90.632 127.079C87.9552 127.079 85.7852 129.249 85.7852 131.926C85.7852 134.603 87.9552 136.773 90.632 136.773Z" fill="#FF9847"/>
<path fill-rule="evenodd" clip-rule="evenodd" d="M127.819 122.575C125.669 122.217 121.438 123.307 119.411 129.38L118.082 133.363L114.028 132.272C111.222 131.517 106.675 131.517 103.87 132.272L99.3746 133.482L98.3636 128.938C97.186 123.645 92.6326 122.148 90.0807 122.574C88.656 122.812 86.9659 123.525 85.6447 124.995C84.3787 126.404 83.1108 128.884 83.1108 133.316C83.1108 135.777 81.1163 137.771 78.656 137.771C76.1957 137.771 74.2012 135.777 74.2012 133.316C74.2012 127.057 76.0517 122.34 79.0178 119.04C81.9287 115.801 85.5843 114.292 88.6145 113.786C94.0913 112.872 102.05 115.382 105.676 122.951C107.903 122.736 110.278 122.745 112.492 122.978C116.4 115.67 123.401 112.808 129.281 113.786C132.296 114.287 136.014 115.802 138.848 119.133C141.757 122.552 143.315 127.39 142.79 133.686C142.586 136.138 140.432 137.96 137.98 137.756C135.529 137.551 133.707 135.398 133.911 132.946C134.277 128.559 133.162 126.199 132.062 124.907C130.887 123.525 129.259 122.814 127.819 122.575Z" fill="#FF9847"/>
<path d="M187.309 173.571C188.886 168.554 192.888 168.228 194.492 168.445C195.321 170.632 195.998 171.687 197.744 173.129L196.178 177.017C191.599 178.162 189.268 175.794 187.309 173.571Z" fill="#FF9847"/>
<path d="M310.828 157.142C309.22 157.142 307.925 158.448 307.925 160.046V170.709C307.925 172.847 307.169 174.681 305.647 176.193C304.244 177.596 302.312 178.427 300.326 178.459C298.124 178.502 296.246 177.747 294.703 176.203C293.213 174.714 292.414 172.663 292.414 170.558V160.046C292.414 158.437 291.108 157.142 289.511 157.142C287.903 157.142 286.607 158.448 286.607 160.046V170.709C286.607 174.466 287.935 177.671 290.579 180.316C293.224 182.96 296.429 184.288 300.186 184.288C303.111 184.288 305.701 183.489 307.935 181.892V184.093C307.935 186.263 307.104 188.378 305.539 189.889C304.579 190.807 303.499 191.433 302.301 191.768C301.071 192.102 300.175 193.171 300.175 194.455V194.779C300.175 196.571 301.859 197.887 303.607 197.456C305.928 196.884 307.978 195.696 309.781 193.894C312.425 191.249 313.753 188.044 313.753 184.288V160.046C313.731 158.437 312.436 157.142 310.828 157.142Z" fill="#C7E6BC"/>
<path d="M269.231 158.221C265.474 158.221 262.269 159.549 259.624 162.193C256.98 164.838 255.652 168.043 255.652 171.799V182.56C255.652 184.115 256.915 185.378 258.469 185.378C260.132 185.378 261.47 184.028 261.47 182.377V171.81C261.47 169.468 262.377 167.493 264.201 165.895C265.399 164.848 266.91 164.201 268.486 164.082C271.281 163.866 273.57 164.859 275.361 167.05C276.441 168.378 276.98 170.062 276.98 171.778V182.064C276.98 183.888 278.459 185.378 280.294 185.378C281.675 185.378 282.798 184.255 282.798 182.873V171.789C282.798 168.032 281.47 164.827 278.826 162.182C276.182 159.538 272.987 158.221 269.231 158.221Z" fill="#C7E6BC"/>
<path d="M248.659 158.394H248.508C246.857 158.394 245.508 159.732 245.508 161.395V171.778C245.508 173.915 244.709 175.998 243.198 177.498C241.913 178.772 240.391 179.495 238.654 179.679C235.923 179.97 233.171 178.783 231.508 176.592C230.505 175.264 229.997 173.721 229.997 171.972V161.244C229.997 159.678 228.724 158.405 227.159 158.405C225.518 158.405 224.18 159.743 224.18 161.384V171.972C224.18 175.728 225.507 178.934 228.152 181.578C230.796 184.223 234.002 185.55 237.758 185.55C241.514 185.55 244.72 184.223 247.364 181.578C250.008 178.934 251.336 175.728 251.336 171.972V161.071C251.325 159.592 250.138 158.394 248.659 158.394Z" fill="#C7E6BC"/>
<path d="M214.724 184.471C214.357 184.104 214.033 183.392 214.033 182.982C211.788 184.579 209.208 185.378 206.283 185.378C202.527 185.378 199.321 184.05 196.677 181.406C194.033 178.761 192.705 175.556 192.705 171.799C192.705 168.043 194.033 164.838 196.677 162.193C199.321 159.549 202.527 158.221 206.283 158.221C210.039 158.221 213.245 159.549 215.889 162.193C218.534 164.838 219.861 168.043 219.861 171.799V182.982C219.861 183.381 219.602 184.104 219.246 184.439C217.983 185.583 215.663 185.421 214.724 184.471ZM211.399 165.971C210.137 164.838 208.496 164.158 206.801 164.071C204.265 163.931 202.149 164.805 200.455 166.694C199.321 167.957 198.641 169.598 198.544 171.292C198.404 173.829 199.278 175.944 201.178 177.639C202.441 178.772 204.081 179.452 205.776 179.538C208.312 179.679 210.428 178.804 212.123 176.905C213.256 175.642 213.936 174.001 214.033 172.307C214.162 169.781 213.288 167.666 211.399 165.971Z" fill="#C7E6BC"/>
<path d="M181.253 156.516C182.311 156.613 183.326 156.958 184.232 157.487C185.322 158.124 186.715 157.897 187.611 157.002C189.014 155.598 188.658 153.256 186.92 152.296C184.966 151.205 182.786 150.666 180.379 150.666C176.623 150.666 173.417 151.993 170.773 154.638C168.128 157.282 166.801 160.488 166.801 164.244V182.658C166.801 184.266 168.107 185.561 169.704 185.561C171.312 185.561 172.608 184.255 172.608 182.658V168.13C172.608 168.119 172.618 168.119 172.618 168.119H183.121C184.545 168.119 185.873 167.158 186.121 165.755C186.456 163.909 185.042 162.301 183.261 162.301H172.867C172.856 162.301 172.845 162.29 172.856 162.28C173.18 160.952 173.86 159.775 174.885 158.761C176.601 157.034 178.728 156.289 181.253 156.516Z" fill="#C7E6BC"/>
<path d="M251.465 154.1C251.465 155.719 250.149 157.036 248.53 157.036C246.911 157.036 245.594 155.719 245.594 154.1C245.594 152.481 246.911 151.165 248.53 151.165C250.149 151.165 251.465 152.481 251.465 154.1Z" fill="#FF9847"/>
<path d="M209.219 170.871C209.219 172.49 207.903 173.807 206.283 173.807C204.664 173.807 203.348 172.49 203.348 170.871C203.348 169.252 204.664 167.935 206.283 167.935C207.903 167.935 209.219 169.252 209.219 170.871Z" fill="#FF9847"/>
<path d="M226.942 157.036C228.563 157.036 229.878 155.722 229.878 154.1C229.878 152.479 228.563 151.165 226.942 151.165C225.32 151.165 224.006 152.479 224.006 154.1C224.006 155.722 225.32 157.036 226.942 157.036Z" fill="#FF9847"/>
<path fill-rule="evenodd" clip-rule="evenodd" d="M249.468 148.436C248.165 148.219 245.602 148.88 244.375 152.558L243.57 154.971L241.114 154.31C239.415 153.853 236.66 153.853 234.961 154.31L232.238 155.043L231.626 152.29C230.913 149.084 228.154 148.178 226.609 148.436C225.746 148.58 224.722 149.012 223.922 149.902C223.155 150.756 222.387 152.258 222.387 154.942C222.387 156.433 221.179 157.641 219.689 157.641C218.198 157.641 216.99 156.433 216.99 154.942C216.99 151.151 218.111 148.294 219.908 146.295C221.671 144.333 223.885 143.419 225.721 143.113C229.038 142.559 233.859 144.079 236.055 148.664C237.404 148.534 238.842 148.539 240.184 148.681C242.551 144.254 246.792 142.52 250.353 143.112C252.179 143.416 254.431 144.334 256.148 146.351C257.91 148.422 258.854 151.353 258.536 155.167C258.412 156.652 257.108 157.755 255.622 157.631C254.137 157.508 253.034 156.203 253.158 154.718C253.379 152.061 252.704 150.632 252.038 149.849C251.326 149.012 250.34 148.581 249.468 148.436Z" fill="#FF9847"/>
<rect x="-135" y="350" width="645" height="350" fill="#FF9847"/>
<path d="M128.116 554.661C127.063 554.661 126.216 555.515 126.216 556.56V563.537C126.216 564.935 125.722 566.136 124.726 567.124C123.808 568.042 122.544 568.586 121.245 568.607C119.804 568.635 118.575 568.141 117.566 567.131C116.591 566.157 116.069 564.815 116.069 563.438V556.56C116.069 555.508 115.214 554.661 114.169 554.661C113.117 554.661 112.27 555.515 112.27 556.56V563.537C112.27 565.994 113.138 568.092 114.868 569.822C116.598 571.552 118.696 572.42 121.153 572.42C123.067 572.42 124.761 571.898 126.223 570.853V572.293C126.223 573.713 125.679 575.097 124.655 576.085C124.027 576.686 123.321 577.095 122.537 577.314C121.732 577.533 121.146 578.232 121.146 579.072V579.284C121.146 580.456 122.247 581.318 123.391 581.036C124.91 580.661 126.251 579.884 127.431 578.705C129.161 576.975 130.029 574.878 130.029 572.42V556.56C130.015 555.508 129.168 554.661 128.116 554.661Z" fill="white"/>
<path d="M100.84 555.367C98.383 555.367 96.2858 556.235 94.5557 557.965C92.8256 559.695 91.957 561.793 91.957 564.25V571.29C91.957 572.307 92.7832 573.134 93.8001 573.134C94.8876 573.134 95.7632 572.251 95.7632 571.17V564.257C95.7632 562.725 96.3564 561.433 97.5498 560.387C98.3336 559.702 99.3222 559.279 100.353 559.201C102.182 559.06 103.679 559.71 104.851 561.143C105.558 562.012 105.911 563.113 105.911 564.236V570.966C105.911 572.159 106.878 573.134 108.079 573.134C108.982 573.134 109.717 572.399 109.717 571.495V564.243C109.717 561.786 108.848 559.688 107.118 557.958C105.388 556.228 103.298 555.367 100.84 555.367Z" fill="white"/>
<path d="M88.0859 555.48H87.987C86.9066 555.48 86.0239 556.355 86.0239 557.443V564.236C86.0239 565.634 85.5014 566.997 84.5128 567.979C83.6725 568.812 82.6768 569.285 81.5398 569.405C79.7533 569.596 77.9526 568.819 76.8651 567.386C76.2084 566.517 75.8765 565.507 75.8765 564.363V557.344C75.8765 556.32 75.0432 555.487 74.0193 555.487C72.946 555.487 72.0703 556.362 72.0703 557.436V564.363C72.0703 566.821 72.9389 568.918 74.669 570.648C76.3991 572.378 78.4963 573.247 80.9537 573.247C83.4112 573.247 85.5084 572.378 87.2385 570.648C88.9686 568.918 89.8372 566.821 89.8372 564.363V557.231C89.8301 556.264 89.0533 555.48 88.0859 555.48Z" fill="white"/>
<path d="M66.5911 572.541C66.351 572.301 66.1392 571.834 66.1392 571.566C64.6704 572.611 62.9827 573.134 61.069 573.134C58.6116 573.134 56.5143 572.265 54.7842 570.535C53.0541 568.805 52.1855 566.708 52.1855 564.25C52.1855 561.793 53.0541 559.696 54.7842 557.966C56.5143 556.236 58.6116 555.367 61.069 555.367C63.5264 555.367 65.6237 556.236 67.3537 557.966C69.0838 559.696 69.9524 561.793 69.9524 564.25V571.566C69.9524 571.827 69.7829 572.301 69.5499 572.519C68.7237 573.268 67.2055 573.162 66.5911 572.541ZM64.4161 560.437C63.5899 559.696 62.5166 559.251 61.4079 559.194C59.7485 559.102 58.3644 559.674 57.2557 560.91C56.5143 561.736 56.0694 562.81 56.0058 563.918C55.914 565.578 56.486 566.962 57.7289 568.071C58.5551 568.812 59.6284 569.257 60.7371 569.313C62.3965 569.405 63.7806 568.833 64.8893 567.59C65.6307 566.764 66.0756 565.691 66.1392 564.582C66.2239 562.93 65.6519 561.546 64.4161 560.437Z" fill="white"/>
<path d="M47.5179 554.251C48.2099 554.315 48.8737 554.541 49.4669 554.887C50.1801 555.303 51.0911 555.155 51.6772 554.569C52.5952 553.651 52.3621 552.119 51.2252 551.49C49.9471 550.777 48.5206 550.424 46.9459 550.424C44.4885 550.424 42.3912 551.292 40.6611 553.022C38.9311 554.753 38.0625 556.85 38.0625 559.307V571.354C38.0625 572.406 38.9169 573.254 39.962 573.254C41.0142 573.254 41.8616 572.399 41.8616 571.354V561.849C41.8616 561.842 41.8687 561.842 41.8687 561.842H48.7396C49.6717 561.842 50.5402 561.214 50.7027 560.296C50.9216 559.088 49.9965 558.036 48.8314 558.036H42.0311C42.024 558.036 42.017 558.029 42.024 558.022C42.2359 557.153 42.6807 556.384 43.3516 555.72C44.4744 554.59 45.8655 554.103 47.5179 554.251Z" fill="white"/>
<path d="M25.1995 519.072C27.8041 510.788 34.4104 510.25 37.059 510.609C38.427 514.219 39.5451 515.96 42.4277 518.341L39.8427 524.761C32.2833 526.65 28.4345 522.742 25.1995 519.072Z" fill="white"/>
<path d="M126.485 494.015H126.235C123.509 494.015 121.281 496.224 121.281 498.969V516.111C121.281 519.639 119.963 523.078 117.468 525.555C115.347 527.658 112.835 528.852 109.966 529.155C105.458 529.636 100.914 527.676 98.1696 524.058C96.5124 521.866 95.675 519.318 95.675 516.432V498.719C95.675 496.135 93.5723 494.033 90.9885 494.033C88.2799 494.033 86.0703 496.242 86.0703 498.951V516.432C86.0703 522.633 88.2621 527.925 92.6279 532.291C96.9936 536.657 102.286 538.848 108.487 538.848C114.688 538.848 119.98 536.657 124.346 532.291C128.712 527.925 130.904 522.633 130.904 516.432V498.434C130.886 495.993 128.926 494.015 126.485 494.015Z" fill="white"/>
<path d="M70.4608 537.066C69.8549 536.46 69.3203 535.284 69.3203 534.607C65.6139 537.244 61.3551 538.563 56.5261 538.563C50.325 538.563 45.0326 536.371 40.6669 532.005C36.3012 527.64 34.1094 522.347 34.1094 516.146C34.1094 509.945 36.3012 504.653 40.6669 500.287C45.0326 495.921 50.325 493.729 56.5261 493.729C62.7272 493.729 68.0195 495.921 72.3853 500.287C76.751 504.653 78.9428 509.945 78.9428 516.146V534.607C78.9428 535.266 78.5151 536.46 77.9271 537.012C75.8422 538.901 72.0111 538.634 70.4608 537.066ZM64.9724 506.524C62.8876 504.653 60.179 503.53 57.3814 503.387C53.1939 503.156 49.7013 504.599 46.9036 507.718C45.0326 509.802 43.91 512.511 43.7496 515.309C43.518 519.496 44.9613 522.989 48.0975 525.786C50.1824 527.657 52.8909 528.78 55.6886 528.922C59.8761 529.154 63.3687 527.711 66.1663 524.575C68.0374 522.49 69.16 519.781 69.3203 516.984C69.5342 512.814 68.0908 509.321 64.9724 506.524Z" fill="white"/>
<path d="M131.118 486.926C131.118 489.599 128.944 491.773 126.271 491.773C123.598 491.773 121.424 489.599 121.424 486.926C121.424 484.253 123.598 482.079 126.271 482.079C128.944 482.079 131.118 484.253 131.118 486.926Z" fill="white"/>
<path d="M61.3734 514.614C61.3734 517.287 59.1994 519.461 56.5265 519.461C53.8536 519.461 51.6797 517.287 51.6797 514.614C51.6797 511.941 53.8536 509.767 56.5265 509.767C59.1994 509.767 61.3734 511.941 61.3734 514.614Z" fill="white"/>
<path d="M90.632 491.773C93.3089 491.773 95.4789 489.603 95.4789 486.926C95.4789 484.249 93.3089 482.079 90.632 482.079C87.9552 482.079 85.7852 484.249 85.7852 486.926C85.7852 489.603 87.9552 491.773 90.632 491.773Z" fill="white"/>
<path fill-rule="evenodd" clip-rule="evenodd" d="M127.819 477.575C125.669 477.217 121.438 478.307 119.411 484.38L118.082 488.363L114.028 487.272C111.222 486.517 106.675 486.517 103.87 487.272L99.3746 488.482L98.3636 483.938C97.186 478.645 92.6326 477.148 90.0807 477.574C88.656 477.812 86.9659 478.525 85.6447 479.995C84.3787 481.404 83.1108 483.884 83.1108 488.316C83.1108 490.777 81.1163 492.771 78.656 492.771C76.1957 492.771 74.2012 490.777 74.2012 488.316C74.2012 482.057 76.0517 477.34 79.0178 474.04C81.9287 470.801 85.5843 469.292 88.6145 468.786C94.0913 467.872 102.05 470.382 105.676 477.951C107.903 477.736 110.278 477.745 112.492 477.978C116.4 470.67 123.401 467.808 129.281 468.786C132.296 469.287 136.014 470.802 138.848 474.133C141.757 477.552 143.315 482.39 142.79 488.686C142.586 491.138 140.432 492.96 137.98 492.756C135.529 492.551 133.707 490.398 133.911 487.946C134.277 483.559 133.162 481.199 132.062 479.907C130.887 478.525 129.259 477.814 127.819 477.575Z" fill="white"/>
<path d="M187.309 528.571C188.886 523.554 192.888 523.228 194.492 523.445C195.321 525.632 195.998 526.687 197.744 528.129L196.178 532.017C191.599 533.162 189.268 530.794 187.309 528.571Z" fill="white"/>
<path d="M310.828 512.142C309.22 512.142 307.925 513.448 307.925 515.046V525.709C307.925 527.847 307.169 529.681 305.647 531.193C304.244 532.596 302.312 533.427 300.326 533.459C298.124 533.502 296.246 532.747 294.703 531.203C293.213 529.714 292.414 527.663 292.414 525.558V515.046C292.414 513.437 291.108 512.142 289.511 512.142C287.903 512.142 286.607 513.448 286.607 515.046V525.709C286.607 529.466 287.935 532.671 290.579 535.316C293.224 537.96 296.429 539.288 300.186 539.288C303.111 539.288 305.701 538.489 307.935 536.892V539.093C307.935 541.263 307.104 543.378 305.539 544.889C304.579 545.807 303.499 546.433 302.301 546.768C301.071 547.102 300.175 548.171 300.175 549.455V549.779C300.175 551.571 301.859 552.887 303.607 552.456C305.928 551.884 307.978 550.696 309.781 548.894C312.425 546.249 313.753 543.044 313.753 539.288V515.046C313.731 513.437 312.436 512.142 310.828 512.142Z" fill="white"/>
<path d="M269.231 513.221C265.474 513.221 262.269 514.549 259.624 517.193C256.98 519.838 255.652 523.043 255.652 526.8V537.561C255.652 539.115 256.915 540.378 258.469 540.378C260.132 540.378 261.47 539.029 261.47 537.377V526.81C261.47 524.468 262.377 522.493 264.201 520.896C265.399 519.849 266.91 519.201 268.486 519.082C271.281 518.866 273.57 519.859 275.361 522.05C276.441 523.378 276.98 525.062 276.98 526.778V537.064C276.98 538.888 278.459 540.378 280.294 540.378C281.675 540.378 282.798 539.255 282.798 537.874V526.789C282.798 523.033 281.47 519.827 278.826 517.183C276.182 514.538 272.987 513.221 269.231 513.221Z" fill="white"/>
<path d="M248.659 513.394H248.508C246.857 513.394 245.508 514.733 245.508 516.395V526.778C245.508 528.915 244.709 530.998 243.198 532.499C241.913 533.772 240.391 534.496 238.654 534.679C235.923 534.97 233.171 533.783 231.508 531.592C230.505 530.264 229.997 528.721 229.997 526.972V516.244C229.997 514.679 228.724 513.405 227.159 513.405C225.518 513.405 224.18 514.743 224.18 516.384V526.972C224.18 530.729 225.507 533.934 228.152 536.579C230.796 539.223 234.002 540.551 237.758 540.551C241.514 540.551 244.72 539.223 247.364 536.579C250.008 533.934 251.336 530.729 251.336 526.972V516.071C251.325 514.592 250.138 513.394 248.659 513.394Z" fill="white"/>
<path d="M214.724 539.471C214.357 539.104 214.033 538.392 214.033 537.982C211.788 539.579 209.208 540.378 206.283 540.378C202.527 540.378 199.321 539.05 196.677 536.406C194.033 533.761 192.705 530.556 192.705 526.799C192.705 523.043 194.033 519.838 196.677 517.193C199.321 514.549 202.527 513.221 206.283 513.221C210.039 513.221 213.245 514.549 215.889 517.193C218.534 519.838 219.861 523.043 219.861 526.799V537.982C219.861 538.381 219.602 539.104 219.246 539.439C217.983 540.583 215.663 540.421 214.724 539.471ZM211.399 520.971C210.137 519.838 208.496 519.158 206.801 519.071C204.265 518.931 202.149 519.805 200.455 521.694C199.321 522.957 198.641 524.598 198.544 526.292C198.404 528.829 199.278 530.944 201.178 532.639C202.441 533.772 204.081 534.452 205.776 534.538C208.312 534.679 210.428 533.804 212.123 531.905C213.256 530.642 213.936 529.001 214.033 527.307C214.162 524.781 213.288 522.666 211.399 520.971Z" fill="white"/>
<path d="M181.253 511.516C182.311 511.613 183.326 511.958 184.232 512.487C185.322 513.124 186.715 512.897 187.611 512.002C189.014 510.598 188.658 508.256 186.92 507.296C184.966 506.205 182.786 505.666 180.379 505.666C176.623 505.666 173.417 506.993 170.773 509.638C168.128 512.282 166.801 515.488 166.801 519.244V537.658C166.801 539.266 168.107 540.561 169.704 540.561C171.312 540.561 172.608 539.255 172.608 537.658V523.13C172.608 523.119 172.618 523.119 172.618 523.119H183.121C184.545 523.119 185.873 522.158 186.121 520.755C186.456 518.909 185.042 517.301 183.261 517.301H172.867C172.856 517.301 172.845 517.29 172.856 517.28C173.18 515.952 173.86 514.775 174.885 513.761C176.601 512.034 178.728 511.289 181.253 511.516Z" fill="white"/>
<path d="M251.465 509.1C251.465 510.719 250.149 512.036 248.53 512.036C246.911 512.036 245.594 510.719 245.594 509.1C245.594 507.481 246.911 506.165 248.53 506.165C250.149 506.165 251.465 507.481 251.465 509.1Z" fill="white"/>
<path d="M209.219 525.871C209.219 527.49 207.903 528.807 206.283 528.807C204.664 528.807 203.348 527.49 203.348 525.871C203.348 524.252 204.664 522.935 206.283 522.935C207.903 522.935 209.219 524.252 209.219 525.871Z" fill="white"/>
<path d="M226.942 512.036C228.563 512.036 229.878 510.722 229.878 509.1C229.878 507.479 228.563 506.165 226.942 506.165C225.32 506.165 224.006 507.479 224.006 509.1C224.006 510.722 225.32 512.036 226.942 512.036Z" fill="white"/>
<path fill-rule="evenodd" clip-rule="evenodd" d="M249.468 503.436C248.165 503.219 245.602 503.88 244.375 507.558L243.57 509.971L241.114 509.31C239.415 508.853 236.66 508.853 234.961 509.31L232.238 510.043L231.626 507.29C230.913 504.084 228.154 503.178 226.609 503.436C225.746 503.58 224.722 504.012 223.922 504.902C223.155 505.756 222.387 507.258 222.387 509.942C222.387 511.433 221.179 512.641 219.689 512.641C218.198 512.641 216.99 511.433 216.99 509.942C216.99 506.151 218.111 503.294 219.908 501.295C221.671 499.333 223.885 498.419 225.721 498.113C229.038 497.559 233.859 499.079 236.055 503.664C237.404 503.534 238.842 503.539 240.184 503.681C242.551 499.254 246.792 497.52 250.353 498.112C252.179 498.416 254.431 499.334 256.148 501.351C257.91 503.422 258.854 506.353 258.536 510.167C258.412 511.652 257.108 512.755 255.622 512.631C254.137 512.508 253.034 511.203 253.158 509.718C253.379 507.061 252.704 505.632 252.038 504.849C251.326 504.012 250.34 503.581 249.468 503.436Z" fill="white"/>
</g>
<defs>
<clipPath id="clip0_339_4770">
<rect width="335" height="700" fill="white"/>
</clipPath>
</defs>
</svg>
