<svg width="645" height="768" viewBox="0 0 645 768" fill="none" xmlns="http://www.w3.org/2000/svg">
<rect width="645" height="768" fill="#F6F6F6"/>
<rect y="384" width="645" height="384" fill="#FF9847"/>
<path d="M233.525 241.434C231.772 241.434 230.359 242.859 230.359 244.6V256.228C230.359 258.559 229.536 260.559 227.876 262.207C226.346 263.737 224.239 264.643 222.074 264.679C219.673 264.726 217.625 263.902 215.942 262.219C214.318 260.595 213.447 258.359 213.447 256.064V244.6C213.447 242.847 212.023 241.434 210.281 241.434C208.528 241.434 207.115 242.859 207.115 244.6V256.228C207.115 260.324 208.563 263.82 211.446 266.703C214.33 269.586 217.825 271.034 221.921 271.034C225.11 271.034 227.935 270.163 230.371 268.421V270.822C230.371 273.188 229.465 275.495 227.758 277.142C226.711 278.143 225.534 278.825 224.228 279.19C222.886 279.555 221.909 280.72 221.909 282.121V282.474C221.909 284.428 223.745 285.863 225.652 285.393C228.182 284.769 230.418 283.474 232.384 281.509C235.267 278.625 236.715 275.13 236.715 271.034V244.6C236.691 242.847 235.279 241.434 233.525 241.434Z" fill="#C7E6BC"/>
<path d="M188.066 242.611C183.971 242.611 180.475 244.059 177.592 246.942C174.708 249.826 173.261 253.321 173.261 257.417V269.151C173.261 270.845 174.638 272.222 176.333 272.222C178.145 272.222 179.604 270.751 179.604 268.951V257.429C179.604 254.875 180.593 252.721 182.582 250.979C183.888 249.837 185.536 249.131 187.254 249.002C190.303 248.766 192.798 249.849 194.751 252.238C195.928 253.686 196.517 255.522 196.517 257.393V268.609C196.517 270.598 198.129 272.222 200.13 272.222C201.636 272.222 202.86 270.998 202.86 269.492V257.405C202.86 253.309 201.413 249.814 198.529 246.93C195.646 244.047 192.162 242.611 188.066 242.611Z" fill="#C7E6BC"/>
<path d="M166.811 242.799H166.646C164.845 242.799 163.374 244.259 163.374 246.071V257.393C163.374 259.724 162.503 261.995 160.856 263.631C159.455 265.02 157.796 265.808 155.901 266.008C152.923 266.326 149.922 265.032 148.109 262.642C147.015 261.195 146.462 259.512 146.462 257.605V245.907C146.462 244.2 145.073 242.811 143.366 242.811C141.578 242.811 140.118 244.271 140.118 246.06V257.605C140.118 261.701 141.566 265.196 144.449 268.08C147.333 270.963 150.828 272.411 154.924 272.411C159.02 272.411 162.515 270.963 165.399 268.08C168.282 265.196 169.73 261.701 169.73 257.605V245.718C169.718 244.106 168.423 242.799 166.811 242.799Z" fill="#C7E6BC"/>
<path d="M130.985 271.234C130.585 270.834 130.232 270.057 130.232 269.61C127.784 271.352 124.971 272.223 121.781 272.223C117.686 272.223 114.19 270.775 111.307 267.892C108.423 265.008 106.976 261.513 106.976 257.417C106.976 253.321 108.423 249.826 111.307 246.943C114.19 244.059 117.686 242.611 121.781 242.611C125.877 242.611 129.372 244.059 132.256 246.943C135.139 249.826 136.587 253.321 136.587 257.417V269.61C136.587 270.046 136.305 270.834 135.916 271.199C134.539 272.447 132.009 272.27 130.985 271.234ZM127.36 251.062C125.983 249.826 124.194 249.085 122.346 248.99C119.58 248.837 117.274 249.791 115.426 251.85C114.19 253.227 113.449 255.016 113.343 256.864C113.19 259.63 114.143 261.937 116.214 263.784C117.591 265.02 119.38 265.762 121.228 265.856C123.994 266.009 126.301 265.055 128.148 262.984C129.384 261.607 130.126 259.818 130.232 257.97C130.373 255.216 129.42 252.91 127.36 251.062Z" fill="#C7E6BC"/>
<path d="M99.1965 240.752C100.35 240.858 101.456 241.234 102.445 241.811C103.634 242.505 105.152 242.258 106.129 241.281C107.659 239.751 107.27 237.197 105.375 236.15C103.245 234.961 100.868 234.373 98.2432 234.373C94.1475 234.373 90.652 235.82 87.7686 238.704C84.8851 241.587 83.4375 245.083 83.4375 249.179V269.257C83.4375 271.01 84.8616 272.423 86.6034 272.423C88.357 272.423 89.7693 270.999 89.7693 269.257V253.415C89.7693 253.404 89.7811 253.404 89.7811 253.404H101.233C102.786 253.404 104.234 252.356 104.504 250.826C104.869 248.814 103.328 247.06 101.386 247.06H90.0518C90.04 247.06 90.0283 247.048 90.04 247.037C90.3931 245.589 91.1346 244.306 92.2527 243.2C94.124 241.317 96.4425 240.505 99.1965 240.752Z" fill="#C7E6BC"/>
<path d="M62.0001 182.119C66.3411 168.314 77.3516 167.417 81.766 168.014C84.0459 174.031 85.9095 176.934 90.7139 180.901L86.4054 191.601C73.8065 194.751 67.3918 188.236 62.0001 182.119Z" fill="#FF9847"/>
<path d="M230.808 140.358H230.392C225.849 140.358 222.136 144.041 222.136 148.614V177.185C222.136 183.065 219.938 188.797 215.781 192.925C212.246 196.429 208.059 198.419 203.277 198.924C195.764 199.726 188.19 196.459 183.617 190.43C180.855 186.777 179.459 182.53 179.459 177.719V148.199C179.459 143.892 175.954 140.388 171.648 140.388C167.134 140.388 163.451 144.07 163.451 148.585V177.719C163.451 188.054 167.104 196.875 174.38 204.151C181.657 211.427 190.477 215.08 200.812 215.08C211.148 215.08 219.968 211.427 227.244 204.151C234.521 196.875 238.174 188.054 238.174 177.719V147.723C238.144 143.655 234.877 140.358 230.808 140.358Z" fill="#C7E6BC"/>
<path d="M137.435 212.11C136.426 211.1 135.535 209.14 135.535 208.011C129.357 212.407 122.259 214.604 114.211 214.604C103.876 214.604 95.055 210.952 87.7788 203.675C80.5026 196.399 76.8496 187.579 76.8496 177.243C76.8496 166.908 80.5026 158.088 87.7788 150.811C95.055 143.535 103.876 139.882 114.211 139.882C124.546 139.882 133.367 143.535 140.643 150.811C147.919 158.088 151.572 166.908 151.572 177.243V208.011C151.572 209.11 150.859 211.1 149.879 212.021C146.404 215.169 140.019 214.723 137.435 212.11ZM128.288 161.206C124.813 158.088 120.299 156.217 115.636 155.979C108.657 155.593 102.836 157.998 98.1734 163.196C95.055 166.671 93.184 171.185 92.9167 175.847C92.5306 182.827 94.9362 188.648 100.163 193.31C103.638 196.429 108.152 198.3 112.815 198.537C119.794 198.923 125.615 196.518 130.278 191.291C133.396 187.816 135.267 183.302 135.535 178.639C135.891 171.69 133.485 165.869 128.288 161.206Z" fill="#C7E6BC"/>
<path d="M238.529 128.544C238.529 132.998 234.906 136.622 230.451 136.622C225.996 136.622 222.373 132.998 222.373 128.544C222.373 124.089 225.996 120.466 230.451 120.466C234.906 120.466 238.529 124.089 238.529 128.544Z" fill="#FF9847"/>
<path d="M122.289 174.689C122.289 179.144 118.666 182.767 114.211 182.767C109.756 182.767 106.133 179.144 106.133 174.689C106.133 170.234 109.756 166.611 114.211 166.611C118.666 166.611 122.289 170.234 122.289 174.689Z" fill="#FF9847"/>
<path d="M171.054 136.622C175.515 136.622 179.132 133.005 179.132 128.544C179.132 124.082 175.515 120.466 171.054 120.466C166.592 120.466 162.976 124.082 162.976 128.544C162.976 133.005 166.592 136.622 171.054 136.622Z" fill="#FF9847"/>
<path fill-rule="evenodd" clip-rule="evenodd" d="M233.034 112.957C229.451 112.361 222.399 114.178 219.021 124.301L216.806 130.939L210.049 129.12C205.373 127.862 197.794 127.862 193.119 129.12L185.627 131.136L183.942 123.563C181.979 114.742 174.39 112.247 170.137 112.957C167.762 113.353 164.945 114.542 162.743 116.992C160.633 119.34 158.52 123.474 158.52 130.86C158.52 134.961 155.196 138.285 151.096 138.285C146.995 138.285 143.671 134.961 143.671 130.86C143.671 120.427 146.755 112.567 151.699 107.066C156.55 101.668 162.643 99.1524 167.693 98.3099C176.821 96.787 190.086 100.97 196.128 113.585C199.84 113.226 203.798 113.242 207.489 113.631C214.002 101.449 225.671 96.6794 235.471 98.3092C240.496 99.145 246.692 101.67 251.415 107.221C256.264 112.92 258.861 120.984 257.986 131.477C257.645 135.564 254.056 138.6 249.97 138.259C245.883 137.918 242.847 134.33 243.188 130.243C243.798 122.931 241.939 118.999 240.106 116.844C238.147 114.542 235.434 113.357 233.034 112.957Z" fill="#FF9847"/>
<path d="M387.18 197.953C389.809 189.59 396.478 189.047 399.152 189.409C400.533 193.053 401.662 194.812 404.572 197.215L401.963 203.696C394.331 205.604 390.446 201.658 387.18 197.953Z" fill="#FF9847"/>
<path d="M593.046 170.57C590.366 170.57 588.207 172.747 588.207 175.409V193.183C588.207 196.744 586.948 199.803 584.411 202.321C582.073 204.66 578.853 206.045 575.543 206.099C571.873 206.171 568.743 204.912 566.171 202.339C563.688 199.857 562.357 196.439 562.357 192.931V175.409C562.357 172.729 560.18 170.57 557.518 170.57C554.837 170.57 552.679 172.747 552.679 175.409V193.183C552.679 199.443 554.891 204.786 559.299 209.193C563.706 213.6 569.049 215.813 575.309 215.813C580.184 215.813 584.501 214.482 588.225 211.819V215.489C588.225 219.105 586.84 222.631 584.232 225.149C582.631 226.678 580.832 227.722 578.835 228.279C576.784 228.837 575.291 230.618 575.291 232.759V233.298C575.291 236.285 578.097 238.479 581.012 237.76C584.879 236.806 588.297 234.827 591.301 231.823C595.709 227.416 597.921 222.073 597.921 215.813V175.409C597.885 172.729 595.727 170.57 593.046 170.57Z" fill="#C7E6BC"/>
<path d="M523.716 172.369C517.456 172.369 512.113 174.581 507.706 178.989C503.299 183.396 501.086 188.739 501.086 194.999V212.934C501.086 215.525 503.191 217.629 505.781 217.629C508.551 217.629 510.782 215.381 510.782 212.628V195.017C510.782 191.113 512.293 187.821 515.333 185.159C517.33 183.414 519.849 182.335 522.475 182.137C527.134 181.777 530.948 183.432 533.934 187.084C535.733 189.297 536.632 192.103 536.632 194.963V212.107C536.632 215.147 539.097 217.629 542.155 217.629C544.458 217.629 546.329 215.759 546.329 213.456V194.981C546.329 188.721 544.116 183.378 539.709 178.971C535.301 174.563 529.976 172.369 523.716 172.369Z" fill="#C7E6BC"/>
<path d="M489.43 172.657H489.178C486.426 172.657 484.177 174.888 484.177 177.658V194.963C484.177 198.525 482.846 201.997 480.328 204.498C478.187 206.62 475.651 207.826 472.754 208.131C468.203 208.617 463.616 206.638 460.845 202.987C459.172 200.774 458.327 198.201 458.327 195.287V177.406C458.327 174.798 456.204 172.675 453.596 172.675C450.862 172.675 448.631 174.905 448.631 177.64V195.287C448.631 201.547 450.844 206.89 455.251 211.297C459.658 215.705 465.001 217.917 471.261 217.917C477.521 217.917 482.864 215.705 487.272 211.297C491.679 206.89 493.891 201.547 493.891 195.287V177.118C493.873 174.654 491.895 172.657 489.43 172.657Z" fill="#C7E6BC"/>
<path d="M432.872 216.118C432.26 215.507 431.72 214.319 431.72 213.636C427.979 216.298 423.679 217.629 418.804 217.629C412.544 217.629 407.201 215.417 402.794 211.009C398.386 206.602 396.174 201.259 396.174 194.999C396.174 188.739 398.386 183.396 402.794 178.989C407.201 174.581 412.544 172.369 418.804 172.369C425.064 172.369 430.407 174.581 434.814 178.989C439.222 183.396 441.434 188.739 441.434 194.999V213.636C441.434 214.301 441.003 215.507 440.409 216.064C438.304 217.971 434.437 217.701 432.872 216.118ZM427.331 185.285C425.226 183.396 422.492 182.263 419.668 182.119C415.44 181.885 411.914 183.342 409.09 186.49C407.201 188.595 406.068 191.329 405.906 194.154C405.672 198.381 407.129 201.907 410.295 204.731C412.4 206.62 415.134 207.753 417.959 207.897C422.186 208.131 425.712 206.674 428.536 203.508C430.425 201.403 431.558 198.669 431.72 195.845C431.936 191.635 430.479 188.109 427.331 185.285Z" fill="#C7E6BC"/>
<path d="M377.087 169.526C378.85 169.688 380.541 170.264 382.052 171.145C383.869 172.207 386.19 171.829 387.683 170.336C390.022 167.997 389.428 164.094 386.532 162.493C383.276 160.676 379.642 159.776 375.63 159.776C369.37 159.776 364.027 161.989 359.62 166.396C355.213 170.804 353 176.146 353 182.407V213.096C353 215.776 355.177 217.935 357.839 217.935C360.519 217.935 362.678 215.758 362.678 213.096V188.883C362.678 188.865 362.696 188.865 362.696 188.865H380.2C382.574 188.865 384.787 187.264 385.201 184.925C385.758 181.849 383.402 179.169 380.433 179.169H363.11C363.092 179.169 363.074 179.151 363.092 179.133C363.632 176.92 364.765 174.959 366.474 173.268C369.334 170.39 372.878 169.149 377.087 169.526Z" fill="#C7E6BC"/>
<path d="M494.106 165.501C494.106 168.199 491.912 170.394 489.213 170.394C486.515 170.394 484.32 168.199 484.32 165.501C484.32 162.802 486.515 160.608 489.213 160.608C491.912 160.608 494.106 162.802 494.106 165.501Z" fill="#FF9847"/>
<path d="M423.698 193.452C423.698 196.15 421.504 198.345 418.805 198.345C416.107 198.345 413.912 196.15 413.912 193.452C413.912 190.754 416.107 188.559 418.805 188.559C421.504 188.559 423.698 190.754 423.698 193.452Z" fill="#FF9847"/>
<path d="M453.236 170.394C455.938 170.394 458.129 168.203 458.129 165.501C458.129 162.798 455.938 160.608 453.236 160.608C450.533 160.608 448.343 162.798 448.343 165.501C448.343 168.203 450.533 170.394 453.236 170.394Z" fill="#FF9847"/>
<path fill-rule="evenodd" clip-rule="evenodd" d="M490.778 156.06C488.608 155.699 484.336 156.799 482.29 162.931L480.949 166.952L476.856 165.85C474.023 165.088 469.433 165.088 466.601 165.85L462.063 167.071L461.042 162.484C459.853 157.141 455.257 155.63 452.68 156.06C451.242 156.3 449.536 157.02 448.202 158.504C446.924 159.926 445.644 162.43 445.644 166.904C445.644 169.388 443.63 171.401 441.147 171.401C438.663 171.401 436.649 169.388 436.649 166.904C436.649 160.585 438.518 155.824 441.512 152.492C444.451 149.222 448.141 147.698 451.2 147.188C456.729 146.265 464.764 148.799 468.424 156.44C470.672 156.223 473.07 156.232 475.305 156.468C479.25 149.089 486.318 146.2 492.254 147.187C495.298 147.694 499.051 149.223 501.912 152.585C504.849 156.037 506.422 160.922 505.892 167.278C505.686 169.753 503.512 171.592 501.036 171.386C498.561 171.179 496.722 169.005 496.928 166.53C497.298 162.101 496.172 159.719 495.062 158.414C493.875 157.02 492.232 156.302 490.778 156.06Z" fill="#FF9847"/>
<path d="M233.525 625.434C231.772 625.434 230.359 626.858 230.359 628.6V640.228C230.359 642.559 229.536 644.559 227.876 646.207C226.346 647.737 224.239 648.643 222.074 648.679C219.673 648.726 217.625 647.902 215.942 646.219C214.318 644.595 213.447 642.358 213.447 640.063V628.6C213.447 626.847 212.023 625.434 210.281 625.434C208.528 625.434 207.115 626.858 207.115 628.6V640.228C207.115 644.324 208.563 647.819 211.446 650.703C214.33 653.586 217.825 655.034 221.921 655.034C225.11 655.034 227.935 654.163 230.371 652.421V654.822C230.371 657.188 229.465 659.495 227.758 661.142C226.711 662.143 225.534 662.825 224.228 663.19C222.886 663.555 221.909 664.72 221.909 666.121V666.474C221.909 668.427 223.745 669.863 225.652 669.392C228.182 668.769 230.418 667.474 232.384 665.509C235.267 662.625 236.715 659.13 236.715 655.034V628.6C236.691 626.847 235.279 625.434 233.525 625.434Z" fill="white"/>
<path d="M188.066 626.611C183.971 626.611 180.475 628.059 177.592 630.942C174.708 633.826 173.261 637.321 173.261 641.417V653.151C173.261 654.845 174.638 656.222 176.333 656.222C178.145 656.222 179.604 654.751 179.604 652.951V641.429C179.604 638.875 180.593 636.721 182.582 634.979C183.888 633.837 185.536 633.131 187.254 633.002C190.303 632.766 192.798 633.849 194.751 636.238C195.928 637.686 196.517 639.522 196.517 641.393V652.609C196.517 654.598 198.129 656.222 200.13 656.222C201.636 656.222 202.86 654.998 202.86 653.492V641.405C202.86 637.309 201.413 633.814 198.529 630.93C195.646 628.047 192.162 626.611 188.066 626.611Z" fill="white"/>
<path d="M166.811 626.799H166.646C164.845 626.799 163.374 628.259 163.374 630.071V641.393C163.374 643.723 162.503 645.995 160.856 647.631C159.455 649.02 157.796 649.808 155.901 650.008C152.923 650.326 149.922 649.031 148.109 646.642C147.015 645.195 146.462 643.512 146.462 641.605V629.906C146.462 628.2 145.073 626.811 143.366 626.811C141.578 626.811 140.118 628.27 140.118 630.059V641.605C140.118 645.701 141.566 649.196 144.449 652.08C147.333 654.963 150.828 656.411 154.924 656.411C159.02 656.411 162.515 654.963 165.399 652.08C168.282 649.196 169.73 645.701 169.73 641.605V629.718C169.718 628.106 168.423 626.799 166.811 626.799Z" fill="white"/>
<path d="M130.985 655.234C130.585 654.834 130.232 654.057 130.232 653.61C127.784 655.352 124.971 656.223 121.781 656.223C117.686 656.223 114.19 654.775 111.307 651.892C108.423 649.008 106.976 645.513 106.976 641.417C106.976 637.321 108.423 633.826 111.307 630.943C114.19 628.059 117.686 626.611 121.781 626.611C125.877 626.611 129.372 628.059 132.256 630.943C135.139 633.826 136.587 637.321 136.587 641.417V653.61C136.587 654.046 136.305 654.834 135.916 655.199C134.539 656.447 132.009 656.27 130.985 655.234ZM127.36 635.062C125.983 633.826 124.194 633.085 122.346 632.99C119.58 632.837 117.274 633.791 115.426 635.85C114.19 637.227 113.449 639.016 113.343 640.864C113.19 643.63 114.143 645.937 116.214 647.784C117.591 649.02 119.38 649.762 121.228 649.856C123.994 650.009 126.301 649.055 128.148 646.984C129.384 645.607 130.126 643.818 130.232 641.97C130.373 639.216 129.42 636.91 127.36 635.062Z" fill="white"/>
<path d="M99.1965 624.752C100.35 624.858 101.456 625.234 102.445 625.811C103.634 626.505 105.152 626.258 106.129 625.281C107.659 623.751 107.27 621.197 105.375 620.15C103.245 618.961 100.868 618.373 98.2432 618.373C94.1475 618.373 90.652 619.82 87.7686 622.704C84.8851 625.587 83.4375 629.083 83.4375 633.179V653.257C83.4375 655.01 84.8616 656.423 86.6034 656.423C88.357 656.423 89.7693 654.999 89.7693 653.257V637.415C89.7693 637.404 89.7811 637.404 89.7811 637.404H101.233C102.786 637.404 104.234 636.356 104.504 634.826C104.869 632.814 103.328 631.06 101.386 631.06H90.0518C90.04 631.06 90.0283 631.048 90.04 631.037C90.3931 629.589 91.1346 628.306 92.2527 627.2C94.124 625.317 96.4425 624.505 99.1965 624.752Z" fill="white"/>
<path d="M62.0001 566.119C66.3411 552.314 77.3516 551.417 81.766 552.014C84.0459 558.031 85.9095 560.934 90.7139 564.901L86.4054 575.601C73.8065 578.751 67.3918 572.236 62.0001 566.119Z" fill="white"/>
<path d="M230.808 524.358H230.392C225.849 524.358 222.136 528.041 222.136 532.614V561.185C222.136 567.065 219.938 572.797 215.781 576.925C212.246 580.429 208.059 582.419 203.277 582.924C195.764 583.726 188.19 580.459 183.617 574.43C180.855 570.777 179.459 566.53 179.459 561.719V532.198C179.459 527.892 175.954 524.388 171.648 524.388C167.134 524.388 163.451 528.07 163.451 532.584V561.719C163.451 572.054 167.104 580.875 174.38 588.151C181.657 595.427 190.477 599.08 200.812 599.08C211.148 599.08 219.968 595.427 227.244 588.151C234.521 580.875 238.174 572.054 238.174 561.719V531.723C238.144 527.654 234.877 524.358 230.808 524.358Z" fill="white"/>
<path d="M137.435 596.11C136.426 595.1 135.535 593.14 135.535 592.011C129.357 596.407 122.259 598.604 114.211 598.604C103.876 598.604 95.055 594.952 87.7788 587.675C80.5026 580.399 76.8496 571.579 76.8496 561.243C76.8496 550.908 80.5026 542.088 87.7788 534.811C95.055 527.535 103.876 523.882 114.211 523.882C124.546 523.882 133.367 527.535 140.643 534.811C147.919 542.088 151.572 550.908 151.572 561.243V592.011C151.572 593.11 150.859 595.1 149.879 596.021C146.404 599.169 140.019 598.723 137.435 596.11ZM128.288 545.206C124.813 542.088 120.299 540.217 115.636 539.979C108.657 539.593 102.836 541.998 98.1734 547.196C95.055 550.671 93.184 555.185 92.9167 559.847C92.5306 566.827 94.9362 572.648 100.163 577.31C103.638 580.429 108.152 582.3 112.815 582.537C119.794 582.923 125.615 580.518 130.278 575.291C133.396 571.816 135.267 567.302 135.535 562.639C135.891 555.69 133.485 549.869 128.288 545.206Z" fill="white"/>
<path d="M238.529 512.544C238.529 516.998 234.906 520.622 230.451 520.622C225.996 520.622 222.373 516.998 222.373 512.544C222.373 508.089 225.996 504.466 230.451 504.466C234.906 504.466 238.529 508.089 238.529 512.544Z" fill="white"/>
<path d="M122.289 558.689C122.289 563.144 118.666 566.768 114.211 566.768C109.756 566.768 106.133 563.144 106.133 558.689C106.133 554.235 109.756 550.611 114.211 550.611C118.666 550.611 122.289 554.235 122.289 558.689Z" fill="white"/>
<path d="M171.054 520.622C175.515 520.622 179.132 517.005 179.132 512.544C179.132 508.082 175.515 504.466 171.054 504.466C166.592 504.466 162.976 508.082 162.976 512.544C162.976 517.005 166.592 520.622 171.054 520.622Z" fill="white"/>
<path fill-rule="evenodd" clip-rule="evenodd" d="M233.034 496.957C229.451 496.361 222.399 498.178 219.021 508.301L216.806 514.939L210.049 513.12C205.373 511.862 197.794 511.862 193.119 513.12L185.627 515.136L183.942 507.563C181.979 498.742 174.39 496.247 170.137 496.957C167.762 497.353 164.945 498.542 162.743 500.992C160.633 503.34 158.52 507.474 158.52 514.86C158.52 518.961 155.196 522.285 151.096 522.285C146.995 522.285 143.671 518.961 143.671 514.86C143.671 504.427 146.755 496.567 151.699 491.066C156.55 485.668 162.643 483.152 167.693 482.31C176.821 480.787 190.086 484.97 196.128 497.585C199.84 497.226 203.798 497.242 207.489 497.631C214.002 485.449 225.671 480.679 235.471 482.309C240.496 483.145 246.692 485.67 251.415 491.221C256.264 496.92 258.861 504.984 257.986 515.477C257.645 519.564 254.056 522.6 249.97 522.259C245.883 521.918 242.847 518.33 243.188 514.243C243.798 506.931 241.939 502.999 240.106 500.844C238.147 498.542 235.434 497.357 233.034 496.957Z" fill="white"/>
<path d="M387.18 581.953C389.809 573.59 396.478 573.047 399.152 573.409C400.533 577.053 401.662 578.812 404.572 581.215L401.963 587.696C394.331 589.604 390.446 585.658 387.18 581.953Z" fill="white"/>
<path d="M593.046 554.57C590.366 554.57 588.207 556.747 588.207 559.409V577.183C588.207 580.744 586.948 583.803 584.411 586.321C582.073 588.66 578.853 590.045 575.543 590.099C571.873 590.171 568.743 588.912 566.171 586.339C563.688 583.857 562.357 580.439 562.357 576.931V559.409C562.357 556.729 560.18 554.57 557.518 554.57C554.837 554.57 552.679 556.747 552.679 559.409V577.183C552.679 583.443 554.891 588.786 559.299 593.193C563.706 597.6 569.049 599.813 575.309 599.813C580.184 599.813 584.501 598.482 588.225 595.819V599.489C588.225 603.105 586.84 606.631 584.232 609.149C582.631 610.678 580.832 611.722 578.835 612.279C576.784 612.837 575.291 614.618 575.291 616.759V617.298C575.291 620.285 578.097 622.479 581.012 621.76C584.879 620.806 588.297 618.827 591.301 615.823C595.709 611.416 597.921 606.073 597.921 599.813V559.409C597.885 556.729 595.727 554.57 593.046 554.57Z" fill="white"/>
<path d="M523.716 556.369C517.456 556.369 512.113 558.582 507.706 562.989C503.299 567.396 501.086 572.739 501.086 578.999V596.934C501.086 599.525 503.191 601.63 505.781 601.63C508.551 601.63 510.782 599.381 510.782 596.629V579.017C510.782 575.114 512.293 571.822 515.333 569.159C517.33 567.414 519.849 566.335 522.475 566.137C527.134 565.777 530.948 567.432 533.934 571.084C535.733 573.297 536.632 576.103 536.632 578.963V596.107C536.632 599.147 539.097 601.63 542.155 601.63C544.458 601.63 546.329 599.759 546.329 597.456V578.981C546.329 572.721 544.116 567.378 539.709 562.971C535.301 558.564 529.976 556.369 523.716 556.369Z" fill="white"/>
<path d="M489.43 556.657H489.178C486.426 556.657 484.177 558.888 484.177 561.658V578.963C484.177 582.525 482.846 585.997 480.328 588.498C478.187 590.62 475.651 591.826 472.754 592.132C468.203 592.617 463.616 590.638 460.845 586.987C459.172 584.774 458.327 582.202 458.327 579.287V561.406C458.327 558.798 456.204 556.675 453.596 556.675C450.862 556.675 448.631 558.906 448.631 561.64V579.287C448.631 585.548 450.844 590.89 455.251 595.298C459.658 599.705 465.001 601.918 471.261 601.918C477.521 601.918 482.864 599.705 487.272 595.298C491.679 590.89 493.891 585.548 493.891 579.287V561.118C493.873 558.654 491.895 556.657 489.43 556.657Z" fill="white"/>
<path d="M432.872 600.118C432.26 599.507 431.72 598.319 431.72 597.636C427.979 600.298 423.679 601.629 418.804 601.629C412.544 601.629 407.201 599.417 402.794 595.009C398.386 590.602 396.174 585.259 396.174 578.999C396.174 572.739 398.386 567.396 402.794 562.989C407.201 558.581 412.544 556.369 418.804 556.369C425.064 556.369 430.407 558.581 434.814 562.989C439.222 567.396 441.434 572.739 441.434 578.999V597.636C441.434 598.301 441.003 599.507 440.409 600.064C438.304 601.971 434.437 601.701 432.872 600.118ZM427.331 569.285C425.226 567.396 422.492 566.263 419.668 566.119C415.44 565.885 411.914 567.342 409.09 570.49C407.201 572.595 406.068 575.329 405.906 578.154C405.672 582.381 407.129 585.907 410.295 588.731C412.4 590.62 415.134 591.753 417.959 591.897C422.186 592.131 425.712 590.674 428.536 587.508C430.425 585.403 431.558 582.669 431.72 579.845C431.936 575.635 430.479 572.109 427.331 569.285Z" fill="white"/>
<path d="M377.087 553.526C378.85 553.688 380.541 554.264 382.052 555.145C383.869 556.207 386.19 555.829 387.683 554.336C390.022 551.997 389.428 548.094 386.532 546.493C383.276 544.676 379.642 543.776 375.63 543.776C369.37 543.776 364.027 545.989 359.62 550.396C355.213 554.804 353 560.146 353 566.407V597.096C353 599.776 355.177 601.935 357.839 601.935C360.519 601.935 362.678 599.758 362.678 597.096V572.883C362.678 572.865 362.696 572.865 362.696 572.865H380.2C382.574 572.865 384.787 571.264 385.201 568.925C385.758 565.849 383.402 563.169 380.433 563.169H363.11C363.092 563.169 363.074 563.151 363.092 563.133C363.632 560.92 364.765 558.959 366.474 557.268C369.334 554.39 372.878 553.149 377.087 553.526Z" fill="white"/>
<path d="M494.106 549.501C494.106 552.199 491.912 554.394 489.213 554.394C486.515 554.394 484.32 552.199 484.32 549.501C484.32 546.802 486.515 544.608 489.213 544.608C491.912 544.608 494.106 546.802 494.106 549.501Z" fill="white"/>
<path d="M423.698 577.452C423.698 580.15 421.504 582.345 418.805 582.345C416.107 582.345 413.912 580.15 413.912 577.452C413.912 574.754 416.107 572.559 418.805 572.559C421.504 572.559 423.698 574.754 423.698 577.452Z" fill="white"/>
<path d="M453.236 554.394C455.938 554.394 458.129 552.203 458.129 549.501C458.129 546.798 455.938 544.608 453.236 544.608C450.533 544.608 448.343 546.798 448.343 549.501C448.343 552.203 450.533 554.394 453.236 554.394Z" fill="white"/>
<path fill-rule="evenodd" clip-rule="evenodd" d="M490.778 540.06C488.608 539.699 484.336 540.799 482.29 546.931L480.949 550.952L476.856 549.85C474.023 549.088 469.433 549.088 466.601 549.85L462.063 551.071L461.042 546.484C459.853 541.141 455.257 539.63 452.68 540.06C451.242 540.3 449.536 541.02 448.202 542.504C446.924 543.926 445.644 546.43 445.644 550.904C445.644 553.388 443.63 555.401 441.147 555.401C438.663 555.401 436.649 553.388 436.649 550.904C436.649 544.585 438.518 539.824 441.512 536.492C444.451 533.222 448.141 531.698 451.2 531.188C456.729 530.265 464.764 532.799 468.424 540.44C470.672 540.223 473.07 540.232 475.305 540.468C479.25 533.089 486.318 530.2 492.254 531.187C495.298 531.694 499.051 533.223 501.912 536.585C504.849 540.037 506.422 544.922 505.892 551.278C505.686 553.753 503.512 555.592 501.036 555.386C498.561 555.179 496.722 553.005 496.928 550.53C497.298 546.101 496.172 543.719 495.062 542.414C493.875 541.02 492.232 540.302 490.778 540.06Z" fill="white"/>
</svg>
