<svg width="273" height="37" viewBox="0 0 273 37" fill="none" xmlns="http://www.w3.org/2000/svg">
<path d="M212.759 12.9577H217.506V24.675H219.493V12.9577H224.24V11.508H212.759V12.9577Z" fill="#0C2340"/>
<path d="M180.713 19.6684C180.713 22.254 178.999 23.6738 175.905 23.6738C173.221 23.6738 171.674 22.1942 171.674 19.6235V11.5081H169.702V19.489C169.702 20.6548 169.869 22.1344 171.173 23.4048C171.962 24.152 173.418 25.0338 175.875 25.0338C177.922 25.0338 179.545 24.4808 180.698 23.4048C182.002 22.1344 182.169 20.6398 182.169 19.489V11.5081H180.698V19.6684H180.713Z" fill="#0C2340"/>
<path d="M195.788 11.508H193.816V24.675H204.539V23.2253H195.788V11.508Z" fill="#0C2340"/>
<path d="M246.398 17.9048C247.141 17.2173 247.566 16.2608 247.566 15.3491C247.566 14.4225 247.202 13.4809 246.595 12.8682C245.382 11.6875 244.366 11.4932 241.909 11.4932H234.887V24.6602H236.858V19.0257H242.212L245.624 24.6602H247.899L244.305 18.9061C245.139 18.7567 245.837 18.4279 246.398 17.9048ZM245.594 15.3641C245.594 16.8138 244.563 17.6806 242.819 17.6806H236.858V12.9578H242.531C244.623 12.9578 245.594 13.72 245.594 15.3641Z" fill="#0C2340"/>
<path d="M266.554 11.5827L266.509 11.508H264.522L257.955 24.675H259.73L261.428 21.0134H268.966L270.771 24.675H273L266.554 11.5827ZM268.329 19.728H262.035L265.114 13.167L268.329 19.728Z" fill="#0C2340"/>
<path d="M44.3378 13.2415C44.2165 14.0785 44.7776 14.7959 45.5663 14.7959C46.3549 14.7959 47.1284 14.0785 47.2497 13.2415C47.3711 12.4046 46.8099 11.6872 46.0213 11.6872C45.2326 11.6872 44.4591 12.4046 44.3378 13.2415Z" fill="#0C2340"/>
<path d="M106.989 16.7986C105.063 16.7986 103.046 19.1301 101.909 20.3258C104.472 16.156 107.141 12.2701 109.856 8.20495H107.126C105.488 10.6261 103.698 13.3014 101.984 16.0065C100.483 18.0541 98.4507 20.2212 96.1606 21.088C96.2819 20.535 96.3274 19.9671 96.2971 19.3992C96.2667 18.6668 96.0241 17.7103 95.4022 17.2619C94.9928 16.9481 94.3861 16.7389 93.5975 16.7389C91.1557 16.7389 88.6077 18.2484 86.9546 20.4453L86.9698 20.4155C86.9394 20.4603 86.9091 20.5051 86.8788 20.55C86.7271 20.7592 86.5906 20.9535 86.4541 21.1777C84.528 24.1219 82.708 27.8434 80.7819 27.8434C80.3573 27.8434 80.0691 27.6192 80.0388 27.0214C79.9326 23.554 88.0011 11.6125 90.2912 8.2199H87.5158C85.4683 11.3286 82.8749 15.3041 80.7213 19.0255C79.2956 21.5065 75.5344 27.9928 72.2888 27.9928C71.2878 27.9928 70.7418 27.4399 70.7115 26.4535C70.6508 24.9888 71.4091 23.5092 72.2129 22.3434C72.5011 22.4182 72.7893 22.463 73.0926 22.463C75.2462 22.463 78.8103 20.6695 78.7193 18.2185C78.6738 17.0975 77.6122 16.7389 76.5505 16.7389C73.9571 16.7389 71.1816 19.2198 69.8318 21.2076C68.6792 22.9114 66.4042 27.9331 64.1293 27.9331C63.5985 27.9331 63.28 27.6939 63.2648 27.1559C63.1738 24.8244 67.1626 21.9997 67.0564 18.9508C67.0109 17.7253 66.1161 16.7986 64.6601 16.7986C62.5823 16.7986 60.5349 19.0704 59.2609 20.4603C59.6249 19.7429 59.9889 19.0255 60.3681 18.3081C62.4913 16.6193 69.1948 11.762 69.0887 8.99707C69.0584 8.17506 68.4972 7.63702 67.5872 7.63702C63.9776 7.63702 60.3681 13.5555 58.8211 16.3204C58.2296 17.3815 57.7139 18.5024 57.1073 19.5486C55.712 21.925 51.5716 27.9331 48.5535 27.9331C47.4767 27.9331 47.2189 27.3801 47.1885 26.4086C47.0975 24.0771 50.7678 17.3965 53.3612 17.3965C53.7707 17.3965 54.1195 17.5609 54.1347 18.0092C54.1802 19.2049 52.1176 19.5038 52.1631 20.7592C52.1782 21.2674 52.5877 21.5812 53.0882 21.5812C54.4987 21.5812 55.0447 19.7877 54.9992 18.6369C54.9537 17.3666 54.1195 16.7986 52.8911 16.7986C49.6 16.7986 46.8397 19.8475 45.4596 22.4779C44.7467 23.823 42.3656 27.9181 40.6063 27.9181C40.1969 27.9181 39.939 27.679 39.9239 27.2755C39.8329 24.9589 43.3818 19.0554 44.6709 16.9481H42.0926C40.212 19.444 37.9067 23.5839 37.9067 25.9752C37.9067 27.6043 38.8016 28.5907 40.4243 28.5907C42.2443 28.5907 43.8823 26.4086 44.7771 25.0635C44.7164 27.3352 46.1269 28.6056 48.4018 28.6056C51.2379 28.6056 53.801 25.5717 55.3025 23.5241C54.9688 24.2565 53.801 26.842 53.1944 28.4113L55.6817 28.3216C56.5461 26.0649 57.6684 23.8679 59.0789 21.91C60.0496 20.5649 62.8553 17.4861 64.6298 17.4861C64.9483 17.4861 65.2364 17.6655 65.2516 18.0092C65.3123 19.6831 61.0657 22.9861 61.187 26.1994C61.2325 27.5445 62.4307 28.6206 63.7956 28.6206C66.0554 28.6206 67.6175 26.3787 68.6489 24.6899C68.6185 24.944 68.6034 25.198 68.6034 25.4521C68.6792 27.4548 70.1958 28.6056 72.1523 28.6056C74.7306 28.6056 77.0055 26.0051 78.3705 24.1518C78.2491 24.7048 78.1126 25.3624 78.1278 25.9304C78.1885 27.4847 79.053 28.5159 80.6909 28.5159C82.7535 28.5159 84.3308 25.9453 85.3015 24.4209C85.256 24.8692 85.256 25.3176 85.3318 25.7062C85.6351 27.4399 86.8484 28.5907 88.6987 28.5907C91.9443 28.5907 94.9624 24.5404 95.9482 21.8203C97.4345 21.3869 98.7237 20.4603 99.846 19.444L99.9976 19.2049C99.8308 19.4888 99.6488 19.7728 99.482 20.0568C98.5872 21.5663 97.207 24.0024 97.2829 25.8407C97.3435 27.664 98.936 28.5309 100.635 28.5309C104.017 28.5309 106.944 25.9603 108.4 23.1804C108.961 22.1192 109.401 20.6396 109.355 19.4291C109.279 18.0242 108.567 16.7986 106.989 16.7986ZM77.1875 17.3516C77.4302 17.3516 77.6273 17.4712 77.6425 17.7253C77.7032 19.3992 74.6396 21.9399 73.0016 21.9399C72.8348 21.9399 72.6679 21.9399 72.5011 21.8951C73.1836 20.8489 75.9439 17.3516 77.1875 17.3516ZM67.6024 8.36935C68.0877 8.36935 68.3607 8.60848 68.3759 9.02696C68.4517 11.1193 62.9312 15.3639 61.2325 16.694C62.188 14.9603 65.8128 8.36935 67.6024 8.36935ZM88.3651 27.9928C87.6522 27.9928 87.2428 27.3801 87.2276 26.7374C87.1821 25.4969 88.1376 23.7035 88.7897 22.6125C89.912 20.7592 91.1708 18.8013 93.0211 17.8149C92.4752 18.4128 92.1718 19.2647 92.1718 20.1016C92.1718 21.1627 92.8088 22.179 94.2193 22.1043C93.2638 24.0771 90.8675 27.9928 88.3651 27.9928ZM94.5378 21.4168C93.3245 21.5663 92.8998 20.9684 92.8998 20.1165C92.8998 19.0704 93.6581 17.6505 94.5681 17.6505C94.9624 17.6505 95.2051 17.9943 95.2354 18.5323C95.2658 19.4888 94.9018 20.5649 94.5378 21.4168ZM105.806 22.6573C104.912 24.1817 102.53 27.9928 100.437 27.9928C99.6791 27.9928 99.2393 27.5594 99.209 26.8121C99.1483 25.1681 100.604 23.0907 101.529 21.8203C102.439 20.5948 105.306 17.5011 106.853 17.5011C107.308 17.5011 107.596 17.6804 107.611 18.1587C107.657 19.2945 106.398 21.6559 105.806 22.6573Z" fill="#0C2340"/>
<path d="M33.5694 28.1722C33.5694 27.9032 33.5998 27.6043 33.6453 27.3801C34.7524 21.7307 41.1526 8.86259 46.5366 6.97946C47.2646 6.72538 48.1291 6.65065 48.8116 6.72538C48.8722 6.42647 48.5689 6.21723 48.1139 6.20229C38.3013 6.21723 31.3855 16.6941 25.5464 23.1206C26.5626 21.4019 27.3209 19.5337 28.1096 17.6954C29.0499 15.5134 31.7646 7.78652 34.5401 7.78652C34.7372 7.78652 34.9799 7.81641 35.2377 7.90608C35.2984 7.74168 35.2529 7.4876 34.8282 7.3232C31.3096 5.99305 26.6991 4.76752 22.4373 4.76752C19.1917 4.76752 14.5509 5.76887 14.5509 9.5202C14.5509 11.0895 15.6125 12.031 16.7348 12.031C16.9775 12.031 17.1291 11.9713 17.1746 11.9115C16.3405 11.4631 15.9917 10.7158 15.9917 9.86394C15.9917 6.53109 20.4657 5.67919 23.3322 5.67919C26.6839 5.67919 30.1873 6.39658 33.3874 7.38299C32.6443 7.45771 31.9163 7.57728 31.2035 7.78652C26.3654 9.20634 22.0127 14.1683 19.1614 18.069C15.9765 22.4182 12.1242 29.1138 5.84538 29.1138C3.57043 29.1138 1.65948 28.0975 1.55331 25.6315C1.38648 21.6859 5.28423 17.7851 9.31847 17.7851C11.1688 17.7851 12.2304 18.7416 12.2607 20.3557C12.3062 22.5228 10.5469 24.122 8.89381 24.6451C9.01515 24.929 9.59146 25.0038 10.183 24.7348C11.8512 23.9725 13.0797 22.1492 13.0039 20.2361C12.9129 18.0392 11.2143 16.9332 8.66632 16.9332C4.23775 16.9332 -0.190814 19.9223 0.00634823 24.66C0.142845 28.0228 2.58462 29.8461 5.95155 29.8461C19.2827 29.8461 23.135 10.1479 32.341 8.08543C26.1076 11.1642 25.1369 19.2647 22.4677 24.944C22.1188 25.7062 21.6942 26.4236 21.1179 27.0364C21.3909 27.2008 21.679 27.2456 21.9824 27.2456C22.953 27.2456 23.6203 26.857 24.2876 26.2144C25.5313 25.0038 26.5626 23.569 27.6849 22.2538C31.1731 18.1886 37.7553 10.1479 42.5176 8.19004C37.7402 11.0745 30.703 23.0758 30.9153 28.0377C30.9608 29.1586 31.6433 29.7415 32.7656 29.7415C33.2661 29.7415 33.7969 29.6518 34.1912 29.4725C33.7363 29.2035 33.5694 28.6355 33.5694 28.1722Z" fill="#0C2340"/>
<path d="M110.023 27.3502H109.492V28.6206H109.219V27.3502H108.703V27.1559H110.038V27.3502H110.023ZM110.553 28.6057H110.265V27.141H110.705L111.221 28.247L111.721 27.141H112.161V28.6057H111.888V27.3801H111.873L111.312 28.6057H111.13L110.569 27.3801H110.553V28.6057Z" fill="#63666A"/>
<path d="M44.3378 13.2415C44.2165 14.0785 44.7776 14.7959 45.5663 14.7959C46.3549 14.7959 47.1284 14.0785 47.2497 13.2415C47.3711 12.4046 46.8099 11.6872 46.0213 11.6872C45.2326 11.6872 44.4591 12.4046 44.3378 13.2415Z" fill="#0C2340"/>
<path d="M106.989 16.7986C105.063 16.7986 103.046 19.1301 101.909 20.3258C104.472 16.156 107.141 12.2701 109.856 8.20495H107.126C105.488 10.6261 103.698 13.3014 101.984 16.0065C100.483 18.0541 98.4507 20.2212 96.1606 21.088C96.2819 20.535 96.3274 19.9671 96.2971 19.3992C96.2667 18.6668 96.0241 17.7103 95.4022 17.2619C94.9928 16.9481 94.3861 16.7389 93.5975 16.7389C91.1557 16.7389 88.6077 18.2484 86.9546 20.4453L86.9698 20.4155C86.9394 20.4603 86.9091 20.5051 86.8788 20.55C86.7271 20.7592 86.5906 20.9535 86.4541 21.1777C84.528 24.1219 82.708 27.8434 80.7819 27.8434C80.3573 27.8434 80.0691 27.6192 80.0388 27.0214C79.9326 23.554 88.0011 11.6125 90.2912 8.2199H87.5158C85.4683 11.3286 82.8749 15.3041 80.7213 19.0255C79.2956 21.5065 75.5344 27.9928 72.2888 27.9928C71.2878 27.9928 70.7418 27.4399 70.7115 26.4535C70.6508 24.9888 71.4091 23.5092 72.2129 22.3434C72.5011 22.4182 72.7893 22.463 73.0926 22.463C75.2462 22.463 78.8103 20.6695 78.7193 18.2185C78.6738 17.0975 77.6122 16.7389 76.5505 16.7389C73.9571 16.7389 71.1816 19.2198 69.8318 21.2076C68.6792 22.9114 66.4042 27.9331 64.1293 27.9331C63.5985 27.9331 63.28 27.6939 63.2648 27.1559C63.1738 24.8244 67.1626 21.9997 67.0564 18.9508C67.0109 17.7253 66.1161 16.7986 64.6601 16.7986C62.5823 16.7986 60.5349 19.0704 59.2609 20.4603C59.6249 19.7429 59.9889 19.0255 60.3681 18.3081C62.4913 16.6193 69.1948 11.762 69.0887 8.99707C69.0584 8.17506 68.4972 7.63702 67.5872 7.63702C63.9776 7.63702 60.3681 13.5555 58.8211 16.3204C58.2296 17.3815 57.7139 18.5024 57.1073 19.5486C55.712 21.925 51.5716 27.9331 48.5535 27.9331C47.4767 27.9331 47.2189 27.3801 47.1885 26.4086C47.0975 24.0771 50.7678 17.3965 53.3612 17.3965C53.7707 17.3965 54.1195 17.5609 54.1347 18.0092C54.1802 19.2049 52.1176 19.5038 52.1631 20.7592C52.1782 21.2674 52.5877 21.5812 53.0882 21.5812C54.4987 21.5812 55.0447 19.7877 54.9992 18.6369C54.9537 17.3666 54.1195 16.7986 52.8911 16.7986C49.6 16.7986 46.8397 19.8475 45.4596 22.4779C44.7467 23.823 42.3656 27.9181 40.6063 27.9181C40.1969 27.9181 39.939 27.679 39.9239 27.2755C39.8329 24.9589 43.3818 19.0554 44.6709 16.9481H42.0926C40.212 19.444 37.9067 23.5839 37.9067 25.9752C37.9067 27.6043 38.8016 28.5907 40.4243 28.5907C42.2443 28.5907 43.8823 26.4086 44.7771 25.0635C44.7164 27.3352 46.1269 28.6056 48.4018 28.6056C51.2379 28.6056 53.801 25.5717 55.3025 23.5241C54.9688 24.2565 53.801 26.842 53.1944 28.4113L55.6817 28.3216C56.5461 26.0649 57.6684 23.8679 59.0789 21.91C60.0496 20.5649 62.8553 17.4861 64.6298 17.4861C64.9483 17.4861 65.2364 17.6655 65.2516 18.0092C65.3123 19.6831 61.0657 22.9861 61.187 26.1994C61.2325 27.5445 62.4307 28.6206 63.7956 28.6206C66.0554 28.6206 67.6175 26.3787 68.6489 24.6899C68.6185 24.944 68.6034 25.198 68.6034 25.4521C68.6792 27.4548 70.1958 28.6056 72.1523 28.6056C74.7306 28.6056 77.0055 26.0051 78.3705 24.1518C78.2491 24.7048 78.1126 25.3624 78.1278 25.9304C78.1885 27.4847 79.053 28.5159 80.6909 28.5159C82.7535 28.5159 84.3308 25.9453 85.3015 24.4209C85.256 24.8692 85.256 25.3176 85.3318 25.7062C85.6351 27.4399 86.8484 28.5907 88.6987 28.5907C91.9443 28.5907 94.9624 24.5404 95.9482 21.8203C97.4345 21.3869 98.7237 20.4603 99.846 19.444L99.9976 19.2049C99.8308 19.4888 99.6488 19.7728 99.482 20.0568C98.5872 21.5663 97.207 24.0024 97.2829 25.8407C97.3435 27.664 98.936 28.5309 100.635 28.5309C104.017 28.5309 106.944 25.9603 108.4 23.1804C108.961 22.1192 109.401 20.6396 109.355 19.4291C109.279 18.0242 108.567 16.7986 106.989 16.7986ZM77.1875 17.3516C77.4302 17.3516 77.6273 17.4712 77.6425 17.7253C77.7032 19.3992 74.6396 21.9399 73.0016 21.9399C72.8348 21.9399 72.6679 21.9399 72.5011 21.8951C73.1836 20.8489 75.9439 17.3516 77.1875 17.3516ZM67.6024 8.36935C68.0877 8.36935 68.3607 8.60848 68.3759 9.02696C68.4517 11.1193 62.9312 15.3639 61.2325 16.694C62.188 14.9603 65.8128 8.36935 67.6024 8.36935ZM88.3651 27.9928C87.6522 27.9928 87.2428 27.3801 87.2276 26.7374C87.1821 25.4969 88.1376 23.7035 88.7897 22.6125C89.912 20.7592 91.1708 18.8013 93.0211 17.8149C92.4752 18.4128 92.1718 19.2647 92.1718 20.1016C92.1718 21.1627 92.8088 22.179 94.2193 22.1043C93.2638 24.0771 90.8675 27.9928 88.3651 27.9928ZM94.5378 21.4168C93.3245 21.5663 92.8998 20.9684 92.8998 20.1165C92.8998 19.0704 93.6581 17.6505 94.5681 17.6505C94.9624 17.6505 95.2051 17.9943 95.2354 18.5323C95.2658 19.4888 94.9018 20.5649 94.5378 21.4168ZM105.806 22.6573C104.912 24.1817 102.53 27.9928 100.437 27.9928C99.6791 27.9928 99.2393 27.5594 99.209 26.8121C99.1483 25.1681 100.604 23.0907 101.529 21.8203C102.439 20.5948 105.306 17.5011 106.853 17.5011C107.308 17.5011 107.596 17.6804 107.611 18.1587C107.657 19.2945 106.398 21.6559 105.806 22.6573Z" fill="#0C2340"/>
<path d="M33.5694 28.1722C33.5694 27.9032 33.5998 27.6043 33.6453 27.3801C34.7524 21.7307 41.1526 8.86259 46.5366 6.97946C47.2646 6.72538 48.1291 6.65065 48.8116 6.72538C48.8722 6.42647 48.5689 6.21723 48.1139 6.20229C38.3013 6.21723 31.3855 16.6941 25.5464 23.1206C26.5626 21.4019 27.3209 19.5337 28.1096 17.6954C29.0499 15.5134 31.7646 7.78652 34.5401 7.78652C34.7372 7.78652 34.9799 7.81641 35.2377 7.90608C35.2984 7.74168 35.2529 7.4876 34.8282 7.3232C31.3096 5.99305 26.6991 4.76752 22.4373 4.76752C19.1917 4.76752 14.5509 5.76887 14.5509 9.5202C14.5509 11.0895 15.6125 12.031 16.7348 12.031C16.9775 12.031 17.1291 11.9713 17.1746 11.9115C16.3405 11.4631 15.9917 10.7158 15.9917 9.86394C15.9917 6.53109 20.4657 5.67919 23.3322 5.67919C26.6839 5.67919 30.1873 6.39658 33.3874 7.38299C32.6443 7.45771 31.9163 7.57728 31.2035 7.78652C26.3654 9.20634 22.0127 14.1683 19.1614 18.069C15.9765 22.4182 12.1242 29.1138 5.84538 29.1138C3.57043 29.1138 1.65948 28.0975 1.55331 25.6315C1.38648 21.6859 5.28423 17.7851 9.31847 17.7851C11.1688 17.7851 12.2304 18.7416 12.2607 20.3557C12.3062 22.5228 10.5469 24.122 8.89381 24.6451C9.01515 24.929 9.59146 25.0038 10.183 24.7348C11.8512 23.9725 13.0797 22.1492 13.0039 20.2361C12.9129 18.0392 11.2143 16.9332 8.66632 16.9332C4.23775 16.9332 -0.190814 19.9223 0.00634823 24.66C0.142845 28.0228 2.58462 29.8461 5.95155 29.8461C19.2827 29.8461 23.135 10.1479 32.341 8.08543C26.1076 11.1642 25.1369 19.2647 22.4677 24.944C22.1188 25.7062 21.6942 26.4236 21.1179 27.0364C21.3909 27.2008 21.679 27.2456 21.9824 27.2456C22.953 27.2456 23.6203 26.857 24.2876 26.2144C25.5313 25.0038 26.5626 23.569 27.6849 22.2538C31.1731 18.1886 37.7553 10.1479 42.5176 8.19004C37.7402 11.0745 30.703 23.0758 30.9153 28.0377C30.9608 29.1586 31.6433 29.7415 32.7656 29.7415C33.2661 29.7415 33.7969 29.6518 34.1912 29.4725C33.7363 29.2035 33.5694 28.6355 33.5694 28.1722Z" fill="#0C2340"/>
<path d="M110.023 27.3502H109.492V28.6206H109.219V27.3502H108.703V27.1559H110.038V27.3502H110.023ZM110.553 28.6057H110.265V27.141H110.705L111.221 28.247L111.721 27.141H112.161V28.6057H111.888V27.3801H111.873L111.312 28.6057H111.13L110.569 27.3801H110.553V28.6057Z" fill="#63666A"/>
<path d="M151.988 35.0624H151.457V36.3328H151.184V35.0624H150.668V34.8682H152.003V35.0624H151.988ZM152.504 36.3179H152.231V34.8532H152.67L153.186 35.9592L153.687 34.8532H154.126V36.3179H153.853V35.0923H153.838L153.277 36.3179H153.095L152.534 35.0923H152.519V36.3179H152.504Z" fill="#63666A"/>
<path d="M130.846 36.3326V0H149.076V36.3326L139.961 27.3802L130.846 36.3326Z" fill="#CF2030"/>
<path d="M140.12 27.3802L131.005 36.3326V0H140.12V27.3802Z" fill="#DF1C2D"/>
<path d="M140.12 27.3802L131.005 36.3326V0H140.12V27.3802Z" fill="#DF1C2D"/>
</svg>
